<?xml version="1.0" encoding="UTF-8" standalone="no"?>
<!DOCTYPE svg PUBLIC "-//W3C//DTD SVG 1.1//EN"
 "http://www.w3.org/Graphics/SVG/1.1/DTD/svg11.dtd">
<!-- Generated by graphviz version 12.2.0 (20241103.1931)
 -->
<!-- Pages: 1 -->
<svg width="1256pt" height="650pt"
 viewBox="0.00 0.00 1256.25 649.50" xmlns="http://www.w3.org/2000/svg" xmlns:xlink="http://www.w3.org/1999/xlink">
<g id="graph0" class="graph" transform="scale(1 1) rotate(0) translate(4 645.5)">
<polygon fill="#dcdcdc" stroke="none" points="-4,4 -4,-645.5 1252.25,-645.5 1252.25,4 -4,4"/>
<!-- node0x105600710 -->
<g id="node1" class="node">
<title>node0x105600710</title>
<path fill="#f18805" stroke="#af3800" d="M371.62,-542.5C371.62,-542.5 581.62,-542.5 581.62,-542.5 587.62,-542.5 593.62,-548.5 593.62,-554.5 593.62,-554.5 593.62,-629 593.62,-629 593.62,-635 587.62,-641 581.62,-641 581.62,-641 371.62,-641 371.62,-641 365.62,-641 359.62,-635 359.62,-629 359.62,-629 359.62,-554.5 359.62,-554.5 359.62,-548.5 365.62,-542.5 371.62,-542.5"/>
<text text-anchor="middle" x="476.62" y="-623.7" font-family="Times,serif" font-size="14.00" fill="#000000">*</text>
<text text-anchor="middle" x="476.62" y="-607.2" font-family="Times,serif" font-size="14.00" fill="#000000">0x105600710</text>
<polyline fill="none" stroke="#af3800" points="359.62,-600 593.62,-600"/>
<text text-anchor="middle" x="404.75" y="-582.7" font-family="Times,serif" font-size="14.00" fill="#000000">Left</text>
<text text-anchor="middle" x="404.75" y="-566.2" font-family="Times,serif" font-size="14.00" fill="#000000">*</text>
<text text-anchor="middle" x="404.75" y="-549.7" font-family="Times,serif" font-size="14.00" fill="#000000">0x105600910</text>
<polyline fill="none" stroke="#af3800" points="449.88,-542.5 449.88,-600"/>
<text text-anchor="middle" x="476.62" y="-582.7" font-family="Times,serif" font-size="14.00" fill="#000000">Parent</text>
<text text-anchor="middle" x="476.62" y="-566.2" font-family="Times,serif" font-size="14.00" fill="#000000">NONE</text>
<text text-anchor="middle" x="476.62" y="-549.7" font-family="Times,serif" font-size="14.00" fill="#000000">0x0</text>
<polyline fill="none" stroke="#af3800" points="503.38,-542.5 503.38,-600"/>
<text text-anchor="middle" x="548.5" y="-582.7" font-family="Times,serif" font-size="14.00" fill="#000000">Right</text>
<text text-anchor="middle" x="548.5" y="-566.2" font-family="Times,serif" font-size="14.00" fill="#000000">+</text>
<text text-anchor="middle" x="548.5" y="-549.7" font-family="Times,serif" font-size="14.00" fill="#000000">0x105600750</text>
</g>
<!-- node0x105600910 -->
<g id="node2" class="node">
<title>node0x105600910</title>
<path fill="#fbee21" stroke="#d3c70d" d="M120.62,-407C120.62,-407 366.62,-407 366.62,-407 372.62,-407 378.62,-413 378.62,-419 378.62,-419 378.62,-493.5 378.62,-493.5 378.62,-499.5 372.62,-505.5 366.62,-505.5 366.62,-505.5 120.62,-505.5 120.62,-505.5 114.63,-505.5 108.62,-499.5 108.62,-493.5 108.62,-493.5 108.62,-419 108.62,-419 108.62,-413 114.62,-407 120.62,-407"/>
<text text-anchor="middle" x="243.62" y="-488.2" font-family="Times,serif" font-size="14.00" fill="#000000">*</text>
<text text-anchor="middle" x="243.62" y="-471.7" font-family="Times,serif" font-size="14.00" fill="#000000">0x105600910</text>
<polyline fill="none" stroke="#d3c70d" points="108.62,-464.5 378.62,-464.5"/>
<text text-anchor="middle" x="153.38" y="-447.2" font-family="Times,serif" font-size="14.00" fill="#000000">Left</text>
<text text-anchor="middle" x="153.38" y="-430.7" font-family="Times,serif" font-size="14.00" fill="#000000">&#45;1</text>
<text text-anchor="middle" x="153.38" y="-414.2" font-family="Times,serif" font-size="14.00" fill="#000000">0x105600a50</text>
<polyline fill="none" stroke="#d3c70d" points="198.12,-407 198.12,-464.5"/>
<text text-anchor="middle" x="243.25" y="-447.2" font-family="Times,serif" font-size="14.00" fill="#000000">Parent</text>
<text text-anchor="middle" x="243.25" y="-430.7" font-family="Times,serif" font-size="14.00" fill="#000000">*</text>
<text text-anchor="middle" x="243.25" y="-414.2" font-family="Times,serif" font-size="14.00" fill="#000000">0x105600710</text>
<polyline fill="none" stroke="#d3c70d" points="288.38,-407 288.38,-464.5"/>
<text text-anchor="middle" x="333.5" y="-447.2" font-family="Times,serif" font-size="14.00" fill="#000000">Right</text>
<text text-anchor="middle" x="333.5" y="-430.7" font-family="Times,serif" font-size="14.00" fill="#000000">sin</text>
<text text-anchor="middle" x="333.5" y="-414.2" font-family="Times,serif" font-size="14.00" fill="#000000">0x105600950</text>
</g>
<!-- node0x105600710&#45;&gt;node0x105600910 -->
<g id="edge1" class="edge">
<title>node0x105600710:left&#45;&gt;node0x105600910</title>
<path fill="none" stroke="#187ae8" stroke-width="2" d="M358.62,-571.25C323.14,-571.25 294.69,-543.53 274.96,-515.43"/>
<polygon fill="#187ae8" stroke="#187ae8" stroke-width="2" points="278.76,-514.81 270.29,-508.44 272.94,-518.7 278.76,-514.81"/>
</g>
<!-- node0x105600750 -->
<g id="node8" class="node">
<title>node0x105600750</title>
<path fill="#fbee21" stroke="#d3c70d" d="M587.25,-407C587.25,-407 834,-407 834,-407 840,-407 846,-413 846,-419 846,-419 846,-493.5 846,-493.5 846,-499.5 840,-505.5 834,-505.5 834,-505.5 587.25,-505.5 587.25,-505.5 581.25,-505.5 575.25,-499.5 575.25,-493.5 575.25,-493.5 575.25,-419 575.25,-419 575.25,-413 581.25,-407 587.25,-407"/>
<text text-anchor="middle" x="710.62" y="-488.2" font-family="Times,serif" font-size="14.00" fill="#000000">+</text>
<text text-anchor="middle" x="710.62" y="-471.7" font-family="Times,serif" font-size="14.00" fill="#000000">0x105600750</text>
<polyline fill="none" stroke="#d3c70d" points="575.25,-464.5 846,-464.5"/>
<text text-anchor="middle" x="620.38" y="-447.2" font-family="Times,serif" font-size="14.00" fill="#000000">Left</text>
<text text-anchor="middle" x="620.38" y="-430.7" font-family="Times,serif" font-size="14.00" fill="#000000">*</text>
<text text-anchor="middle" x="620.38" y="-414.2" font-family="Times,serif" font-size="14.00" fill="#000000">0x105600850</text>
<polyline fill="none" stroke="#d3c70d" points="665.5,-407 665.5,-464.5"/>
<text text-anchor="middle" x="710.62" y="-447.2" font-family="Times,serif" font-size="14.00" fill="#000000">Parent</text>
<text text-anchor="middle" x="710.62" y="-430.7" font-family="Times,serif" font-size="14.00" fill="#000000">*</text>
<text text-anchor="middle" x="710.62" y="-414.2" font-family="Times,serif" font-size="14.00" fill="#000000">0x105600710</text>
<polyline fill="none" stroke="#d3c70d" points="755.75,-407 755.75,-464.5"/>
<text text-anchor="middle" x="800.88" y="-447.2" font-family="Times,serif" font-size="14.00" fill="#000000">Right</text>
<text text-anchor="middle" x="800.88" y="-430.7" font-family="Times,serif" font-size="14.00" fill="#000000">*</text>
<text text-anchor="middle" x="800.88" y="-414.2" font-family="Times,serif" font-size="14.00" fill="#000000">0x105600790</text>
</g>
<!-- node0x105600710&#45;&gt;node0x105600750 -->
<g id="edge13" class="edge">
<title>node0x105600710:right&#45;&gt;node0x105600750</title>
<path fill="none" stroke="#48e818" stroke-width="2" d="M594.62,-571.25C630.27,-571.25 658.96,-543.53 678.9,-515.43"/>
<polygon fill="#48e818" stroke="#48e818" stroke-width="2" points="680.93,-518.68 683.63,-508.44 675.13,-514.76 680.93,-518.68"/>
</g>
<!-- node0x105600a50 -->
<g id="node3" class="node">
<title>node0x105600a50</title>
<path fill="#bdef9e" stroke="#99c2a2" d="M12,-271.5C12,-271.5 185.25,-271.5 185.25,-271.5 191.25,-271.5 197.25,-277.5 197.25,-283.5 197.25,-283.5 197.25,-358 197.25,-358 197.25,-364 191.25,-370 185.25,-370 185.25,-370 12,-370 12,-370 6,-370 0,-364 0,-358 0,-358 0,-283.5 0,-283.5 0,-277.5 6,-271.5 12,-271.5"/>
<text text-anchor="middle" x="98.62" y="-352.7" font-family="Times,serif" font-size="14.00" fill="#000000">&#45;1</text>
<text text-anchor="middle" x="98.62" y="-336.2" font-family="Times,serif" font-size="14.00" fill="#000000">0x105600a50</text>
<polyline fill="none" stroke="#99c2a2" points="0,-329 197.25,-329"/>
<text text-anchor="middle" x="26.75" y="-311.7" font-family="Times,serif" font-size="14.00" fill="#000000">Left</text>
<text text-anchor="middle" x="26.75" y="-295.2" font-family="Times,serif" font-size="14.00" fill="#000000">NONE</text>
<text text-anchor="middle" x="26.75" y="-278.7" font-family="Times,serif" font-size="14.00" fill="#000000">0x0</text>
<polyline fill="none" stroke="#99c2a2" points="53.5,-271.5 53.5,-329"/>
<text text-anchor="middle" x="98.62" y="-311.7" font-family="Times,serif" font-size="14.00" fill="#000000">Parent</text>
<text text-anchor="middle" x="98.62" y="-295.2" font-family="Times,serif" font-size="14.00" fill="#000000">*</text>
<text text-anchor="middle" x="98.62" y="-278.7" font-family="Times,serif" font-size="14.00" fill="#000000">0x105600910</text>
<polyline fill="none" stroke="#99c2a2" points="143.75,-271.5 143.75,-329"/>
<text text-anchor="middle" x="170.5" y="-311.7" font-family="Times,serif" font-size="14.00" fill="#000000">Right</text>
<text text-anchor="middle" x="170.5" y="-295.2" font-family="Times,serif" font-size="14.00" fill="#000000">NONE</text>
<text text-anchor="middle" x="170.5" y="-278.7" font-family="Times,serif" font-size="14.00" fill="#000000">0x0</text>
</g>
<!-- node0x105600910&#45;&gt;node0x105600a50 -->
<g id="edge2" class="edge">
<title>node0x105600910:left&#45;&gt;node0x105600a50</title>
<path fill="none" stroke="#187ae8" stroke-width="2" d="M153.38,-406.5C153.38,-397.51 151.17,-388.72 147.65,-380.4"/>
<polygon fill="#187ae8" stroke="#187ae8" stroke-width="2" points="151.49,-380.26 143.91,-372.86 145.22,-383.38 151.49,-380.26"/>
</g>
<!-- node0x105600950 -->
<g id="node4" class="node">
<title>node0x105600950</title>
<path fill="#fbee21" stroke="#d3c70d" d="M227.62,-271.5C227.62,-271.5 437.62,-271.5 437.62,-271.5 443.62,-271.5 449.62,-277.5 449.62,-283.5 449.62,-283.5 449.62,-358 449.62,-358 449.62,-364 443.62,-370 437.62,-370 437.62,-370 227.62,-370 227.62,-370 221.62,-370 215.62,-364 215.62,-358 215.62,-358 215.62,-283.5 215.62,-283.5 215.62,-277.5 221.62,-271.5 227.62,-271.5"/>
<text text-anchor="middle" x="332.62" y="-352.7" font-family="Times,serif" font-size="14.00" fill="#000000">sin</text>
<text text-anchor="middle" x="332.62" y="-336.2" font-family="Times,serif" font-size="14.00" fill="#000000">0x105600950</text>
<polyline fill="none" stroke="#d3c70d" points="215.62,-329 449.62,-329"/>
<text text-anchor="middle" x="260.75" y="-311.7" font-family="Times,serif" font-size="14.00" fill="#000000">Left</text>
<text text-anchor="middle" x="260.75" y="-295.2" font-family="Times,serif" font-size="14.00" fill="#000000">*</text>
<text text-anchor="middle" x="260.75" y="-278.7" font-family="Times,serif" font-size="14.00" fill="#000000">0x105600990</text>
<polyline fill="none" stroke="#d3c70d" points="305.88,-271.5 305.88,-329"/>
<text text-anchor="middle" x="351" y="-311.7" font-family="Times,serif" font-size="14.00" fill="#000000">Parent</text>
<text text-anchor="middle" x="351" y="-295.2" font-family="Times,serif" font-size="14.00" fill="#000000">*</text>
<text text-anchor="middle" x="351" y="-278.7" font-family="Times,serif" font-size="14.00" fill="#000000">0x105600910</text>
<polyline fill="none" stroke="#d3c70d" points="396.12,-271.5 396.12,-329"/>
<text text-anchor="middle" x="422.88" y="-311.7" font-family="Times,serif" font-size="14.00" fill="#000000">Right</text>
<text text-anchor="middle" x="422.88" y="-295.2" font-family="Times,serif" font-size="14.00" fill="#000000">NONE</text>
<text text-anchor="middle" x="422.88" y="-278.7" font-family="Times,serif" font-size="14.00" fill="#000000">0x0</text>
</g>
<!-- node0x105600910&#45;&gt;node0x105600950 -->
<g id="edge6" class="edge">
<title>node0x105600910:right&#45;&gt;node0x105600950</title>
<path fill="none" stroke="#48e818" stroke-width="2" d="M333.5,-406.5C333.5,-398.41 333.46,-389.88 333.4,-381.48"/>
<polygon fill="#48e818" stroke="#48e818" stroke-width="2" points="336.91,-383.15 333.32,-373.18 329.91,-383.21 336.91,-383.15"/>
</g>
<!-- node0x105600990 -->
<g id="node5" class="node">
<title>node0x105600990</title>
<path fill="#fbee21" stroke="#d3c70d" d="M129.62,-136C129.62,-136 375.62,-136 375.62,-136 381.62,-136 387.62,-142 387.62,-148 387.62,-148 387.62,-222.5 387.62,-222.5 387.62,-228.5 381.62,-234.5 375.62,-234.5 375.62,-234.5 129.62,-234.5 129.62,-234.5 123.63,-234.5 117.62,-228.5 117.62,-222.5 117.62,-222.5 117.62,-148 117.62,-148 117.62,-142 123.62,-136 129.62,-136"/>
<text text-anchor="middle" x="252.62" y="-217.2" font-family="Times,serif" font-size="14.00" fill="#000000">*</text>
<text text-anchor="middle" x="252.62" y="-200.7" font-family="Times,serif" font-size="14.00" fill="#000000">0x105600990</text>
<polyline fill="none" stroke="#d3c70d" points="117.62,-193.5 387.62,-193.5"/>
<text text-anchor="middle" x="162.38" y="-176.2" font-family="Times,serif" font-size="14.00" fill="#000000">Left</text>
<text text-anchor="middle" x="162.38" y="-159.7" font-family="Times,serif" font-size="14.00" fill="#000000">2</text>
<text text-anchor="middle" x="162.38" y="-143.2" font-family="Times,serif" font-size="14.00" fill="#000000">0x105600a10</text>
<polyline fill="none" stroke="#d3c70d" points="207.12,-136 207.12,-193.5"/>
<text text-anchor="middle" x="252.25" y="-176.2" font-family="Times,serif" font-size="14.00" fill="#000000">Parent</text>
<text text-anchor="middle" x="252.25" y="-159.7" font-family="Times,serif" font-size="14.00" fill="#000000">sin</text>
<text text-anchor="middle" x="252.25" y="-143.2" font-family="Times,serif" font-size="14.00" fill="#000000">0x105600950</text>
<polyline fill="none" stroke="#d3c70d" points="297.38,-136 297.38,-193.5"/>
<text text-anchor="middle" x="342.5" y="-176.2" font-family="Times,serif" font-size="14.00" fill="#000000">Right</text>
<text text-anchor="middle" x="342.5" y="-159.7" font-family="Times,serif" font-size="14.00" fill="#000000">x</text>
<text text-anchor="middle" x="342.5" y="-143.2" font-family="Times,serif" font-size="14.00" fill="#000000">0x1056009d0</text>
</g>
<!-- node0x105600950&#45;&gt;node0x105600990 -->
<g id="edge3" class="edge">
<title>node0x105600950:left&#45;&gt;node0x105600990</title>
<path fill="none" stroke="#187ae8" stroke-width="2" d="M260.75,-271C260.75,-262.87 260.37,-254.32 259.79,-245.91"/>
<polygon fill="#187ae8" stroke="#187ae8" stroke-width="2" points="263.41,-247.28 259.11,-237.59 256.43,-247.84 263.41,-247.28"/>
</g>
<!-- node0x105600a10 -->
<g id="node6" class="node">
<title>node0x105600a10</title>
<path fill="#bdef9e" stroke="#99c2a2" d="M58,-0.5C58,-0.5 231.25,-0.5 231.25,-0.5 237.25,-0.5 243.25,-6.5 243.25,-12.5 243.25,-12.5 243.25,-87 243.25,-87 243.25,-93 237.25,-99 231.25,-99 231.25,-99 58,-99 58,-99 52,-99 46,-93 46,-87 46,-87 46,-12.5 46,-12.5 46,-6.5 52,-0.5 58,-0.5"/>
<text text-anchor="middle" x="144.62" y="-81.7" font-family="Times,serif" font-size="14.00" fill="#000000">2</text>
<text text-anchor="middle" x="144.62" y="-65.2" font-family="Times,serif" font-size="14.00" fill="#000000">0x105600a10</text>
<polyline fill="none" stroke="#99c2a2" points="46,-58 243.25,-58"/>
<text text-anchor="middle" x="72.75" y="-40.7" font-family="Times,serif" font-size="14.00" fill="#000000">Left</text>
<text text-anchor="middle" x="72.75" y="-24.2" font-family="Times,serif" font-size="14.00" fill="#000000">NONE</text>
<text text-anchor="middle" x="72.75" y="-7.7" font-family="Times,serif" font-size="14.00" fill="#000000">0x0</text>
<polyline fill="none" stroke="#99c2a2" points="99.5,-0.5 99.5,-58"/>
<text text-anchor="middle" x="144.62" y="-40.7" font-family="Times,serif" font-size="14.00" fill="#000000">Parent</text>
<text text-anchor="middle" x="144.62" y="-24.2" font-family="Times,serif" font-size="14.00" fill="#000000">*</text>
<text text-anchor="middle" x="144.62" y="-7.7" font-family="Times,serif" font-size="14.00" fill="#000000">0x105600990</text>
<polyline fill="none" stroke="#99c2a2" points="189.75,-0.5 189.75,-58"/>
<text text-anchor="middle" x="216.5" y="-40.7" font-family="Times,serif" font-size="14.00" fill="#000000">Right</text>
<text text-anchor="middle" x="216.5" y="-24.2" font-family="Times,serif" font-size="14.00" fill="#000000">NONE</text>
<text text-anchor="middle" x="216.5" y="-7.7" font-family="Times,serif" font-size="14.00" fill="#000000">0x0</text>
</g>
<!-- node0x105600990&#45;&gt;node0x105600a10 -->
<g id="edge4" class="edge">
<title>node0x105600990:left&#45;&gt;node0x105600a10</title>
<path fill="none" stroke="#187ae8" stroke-width="2" d="M162.38,-135.5C162.38,-127.34 161.58,-118.82 160.32,-110.47"/>
<polygon fill="#187ae8" stroke="#187ae8" stroke-width="2" points="164.04,-111.46 158.87,-102.22 157.15,-112.67 164.04,-111.46"/>
</g>
<!-- node0x1056009d0 -->
<g id="node7" class="node">
<title>node0x1056009d0</title>
<path fill="#d5cfe1" stroke="#8797b2" d="M273,-0.5C273,-0.5 446.25,-0.5 446.25,-0.5 452.25,-0.5 458.25,-6.5 458.25,-12.5 458.25,-12.5 458.25,-87 458.25,-87 458.25,-93 452.25,-99 446.25,-99 446.25,-99 273,-99 273,-99 267,-99 261,-93 261,-87 261,-87 261,-12.5 261,-12.5 261,-6.5 267,-0.5 273,-0.5"/>
<text text-anchor="middle" x="359.62" y="-81.7" font-family="Times,serif" font-size="14.00" fill="#000000">x</text>
<text text-anchor="middle" x="359.62" y="-65.2" font-family="Times,serif" font-size="14.00" fill="#000000">0x1056009d0</text>
<polyline fill="none" stroke="#8797b2" points="261,-58 458.25,-58"/>
<text text-anchor="middle" x="287.75" y="-40.7" font-family="Times,serif" font-size="14.00" fill="#000000">Left</text>
<text text-anchor="middle" x="287.75" y="-24.2" font-family="Times,serif" font-size="14.00" fill="#000000">NONE</text>
<text text-anchor="middle" x="287.75" y="-7.7" font-family="Times,serif" font-size="14.00" fill="#000000">0x0</text>
<polyline fill="none" stroke="#8797b2" points="314.5,-0.5 314.5,-58"/>
<text text-anchor="middle" x="359.62" y="-40.7" font-family="Times,serif" font-size="14.00" fill="#000000">Parent</text>
<text text-anchor="middle" x="359.62" y="-24.2" font-family="Times,serif" font-size="14.00" fill="#000000">*</text>
<text text-anchor="middle" x="359.62" y="-7.7" font-family="Times,serif" font-size="14.00" fill="#000000">0x105600990</text>
<polyline fill="none" stroke="#8797b2" points="404.75,-0.5 404.75,-58"/>
<text text-anchor="middle" x="431.5" y="-40.7" font-family="Times,serif" font-size="14.00" fill="#000000">Right</text>
<text text-anchor="middle" x="431.5" y="-24.2" font-family="Times,serif" font-size="14.00" fill="#000000">NONE</text>
<text text-anchor="middle" x="431.5" y="-7.7" font-family="Times,serif" font-size="14.00" fill="#000000">0x0</text>
</g>
<!-- node0x105600990&#45;&gt;node0x1056009d0 -->
<g id="edge5" class="edge">
<title>node0x105600990:right&#45;&gt;node0x1056009d0</title>
<path fill="none" stroke="#48e818" stroke-width="2" d="M342.5,-135.5C342.5,-127.35 343.27,-118.84 344.49,-110.49"/>
<polygon fill="#48e818" stroke="#48e818" stroke-width="2" points="347.66,-112.69 345.88,-102.25 340.76,-111.52 347.66,-112.69"/>
</g>
<!-- node0x105600850 -->
<g id="node9" class="node">
<title>node0x105600850</title>
<path fill="#fbee21" stroke="#d3c70d" d="M497.25,-271.5C497.25,-271.5 744,-271.5 744,-271.5 750,-271.5 756,-277.5 756,-283.5 756,-283.5 756,-358 756,-358 756,-364 750,-370 744,-370 744,-370 497.25,-370 497.25,-370 491.25,-370 485.25,-364 485.25,-358 485.25,-358 485.25,-283.5 485.25,-283.5 485.25,-277.5 491.25,-271.5 497.25,-271.5"/>
<text text-anchor="middle" x="620.62" y="-352.7" font-family="Times,serif" font-size="14.00" fill="#000000">*</text>
<text text-anchor="middle" x="620.62" y="-336.2" font-family="Times,serif" font-size="14.00" fill="#000000">0x105600850</text>
<polyline fill="none" stroke="#d3c70d" points="485.25,-329 756,-329"/>
<text text-anchor="middle" x="530.38" y="-311.7" font-family="Times,serif" font-size="14.00" fill="#000000">Left</text>
<text text-anchor="middle" x="530.38" y="-295.2" font-family="Times,serif" font-size="14.00" fill="#000000">0</text>
<text text-anchor="middle" x="530.38" y="-278.7" font-family="Times,serif" font-size="14.00" fill="#000000">0x1056008d0</text>
<polyline fill="none" stroke="#d3c70d" points="575.5,-271.5 575.5,-329"/>
<text text-anchor="middle" x="620.62" y="-311.7" font-family="Times,serif" font-size="14.00" fill="#000000">Parent</text>
<text text-anchor="middle" x="620.62" y="-295.2" font-family="Times,serif" font-size="14.00" fill="#000000">+</text>
<text text-anchor="middle" x="620.62" y="-278.7" font-family="Times,serif" font-size="14.00" fill="#000000">0x105600750</text>
<polyline fill="none" stroke="#d3c70d" points="665.75,-271.5 665.75,-329"/>
<text text-anchor="middle" x="710.88" y="-311.7" font-family="Times,serif" font-size="14.00" fill="#000000">Right</text>
<text text-anchor="middle" x="710.88" y="-295.2" font-family="Times,serif" font-size="14.00" fill="#000000">x</text>
<text text-anchor="middle" x="710.88" y="-278.7" font-family="Times,serif" font-size="14.00" fill="#000000">0x105600890</text>
</g>
<!-- node0x105600750&#45;&gt;node0x105600850 -->
<g id="edge7" class="edge">
<title>node0x105600750:left&#45;&gt;node0x105600850</title>
<path fill="none" stroke="#187ae8" stroke-width="2" d="M620.38,-406.5C620.38,-398.41 620.39,-389.88 620.4,-381.48"/>
<polygon fill="#187ae8" stroke="#187ae8" stroke-width="2" points="623.9,-383.19 620.43,-373.18 616.9,-383.17 623.9,-383.19"/>
</g>
<!-- node0x105600790 -->
<g id="node12" class="node">
<title>node0x105600790</title>
<path fill="#fbee21" stroke="#d3c70d" d="M901.25,-271.5C901.25,-271.5 1148,-271.5 1148,-271.5 1154,-271.5 1160,-277.5 1160,-283.5 1160,-283.5 1160,-358 1160,-358 1160,-364 1154,-370 1148,-370 1148,-370 901.25,-370 901.25,-370 895.25,-370 889.25,-364 889.25,-358 889.25,-358 889.25,-283.5 889.25,-283.5 889.25,-277.5 895.25,-271.5 901.25,-271.5"/>
<text text-anchor="middle" x="1024.62" y="-352.7" font-family="Times,serif" font-size="14.00" fill="#000000">*</text>
<text text-anchor="middle" x="1024.62" y="-336.2" font-family="Times,serif" font-size="14.00" fill="#000000">0x105600790</text>
<polyline fill="none" stroke="#d3c70d" points="889.25,-329 1160,-329"/>
<text text-anchor="middle" x="934.38" y="-311.7" font-family="Times,serif" font-size="14.00" fill="#000000">Left</text>
<text text-anchor="middle" x="934.38" y="-295.2" font-family="Times,serif" font-size="14.00" fill="#000000">2</text>
<text text-anchor="middle" x="934.38" y="-278.7" font-family="Times,serif" font-size="14.00" fill="#000000">0x105600810</text>
<polyline fill="none" stroke="#d3c70d" points="979.5,-271.5 979.5,-329"/>
<text text-anchor="middle" x="1024.62" y="-311.7" font-family="Times,serif" font-size="14.00" fill="#000000">Parent</text>
<text text-anchor="middle" x="1024.62" y="-295.2" font-family="Times,serif" font-size="14.00" fill="#000000">+</text>
<text text-anchor="middle" x="1024.62" y="-278.7" font-family="Times,serif" font-size="14.00" fill="#000000">0x105600750</text>
<polyline fill="none" stroke="#d3c70d" points="1069.75,-271.5 1069.75,-329"/>
<text text-anchor="middle" x="1114.88" y="-311.7" font-family="Times,serif" font-size="14.00" fill="#000000">Right</text>
<text text-anchor="middle" x="1114.88" y="-295.2" font-family="Times,serif" font-size="14.00" fill="#000000">1</text>
<text text-anchor="middle" x="1114.88" y="-278.7" font-family="Times,serif" font-size="14.00" fill="#000000">0x1056007d0</text>
</g>
<!-- node0x105600750&#45;&gt;node0x105600790 -->
<g id="edge12" class="edge">
<title>node0x105600750:right&#45;&gt;node0x105600790</title>
<path fill="none" stroke="#48e818" stroke-width="2" d="M847,-435.75C894.26,-435.75 938.98,-406.81 971.73,-378.1"/>
<polygon fill="#48e818" stroke="#48e818" stroke-width="2" points="972.9,-381.76 977.97,-372.46 968.21,-376.57 972.9,-381.76"/>
</g>
<!-- node0x1056008d0 -->
<g id="node10" class="node">
<title>node0x1056008d0</title>
<path fill="#bdef9e" stroke="#99c2a2" d="M418,-136C418,-136 591.25,-136 591.25,-136 597.25,-136 603.25,-142 603.25,-148 603.25,-148 603.25,-222.5 603.25,-222.5 603.25,-228.5 597.25,-234.5 591.25,-234.5 591.25,-234.5 418,-234.5 418,-234.5 412,-234.5 406,-228.5 406,-222.5 406,-222.5 406,-148 406,-148 406,-142 412,-136 418,-136"/>
<text text-anchor="middle" x="504.62" y="-217.2" font-family="Times,serif" font-size="14.00" fill="#000000">0</text>
<text text-anchor="middle" x="504.62" y="-200.7" font-family="Times,serif" font-size="14.00" fill="#000000">0x1056008d0</text>
<polyline fill="none" stroke="#99c2a2" points="406,-193.5 603.25,-193.5"/>
<text text-anchor="middle" x="432.75" y="-176.2" font-family="Times,serif" font-size="14.00" fill="#000000">Left</text>
<text text-anchor="middle" x="432.75" y="-159.7" font-family="Times,serif" font-size="14.00" fill="#000000">NONE</text>
<text text-anchor="middle" x="432.75" y="-143.2" font-family="Times,serif" font-size="14.00" fill="#000000">0x0</text>
<polyline fill="none" stroke="#99c2a2" points="459.5,-136 459.5,-193.5"/>
<text text-anchor="middle" x="504.62" y="-176.2" font-family="Times,serif" font-size="14.00" fill="#000000">Parent</text>
<text text-anchor="middle" x="504.62" y="-159.7" font-family="Times,serif" font-size="14.00" fill="#000000">*</text>
<text text-anchor="middle" x="504.62" y="-143.2" font-family="Times,serif" font-size="14.00" fill="#000000">0x105600850</text>
<polyline fill="none" stroke="#99c2a2" points="549.75,-136 549.75,-193.5"/>
<text text-anchor="middle" x="576.5" y="-176.2" font-family="Times,serif" font-size="14.00" fill="#000000">Right</text>
<text text-anchor="middle" x="576.5" y="-159.7" font-family="Times,serif" font-size="14.00" fill="#000000">NONE</text>
<text text-anchor="middle" x="576.5" y="-143.2" font-family="Times,serif" font-size="14.00" fill="#000000">0x0</text>
</g>
<!-- node0x105600850&#45;&gt;node0x1056008d0 -->
<g id="edge8" class="edge">
<title>node0x105600850:left&#45;&gt;node0x1056008d0</title>
<path fill="none" stroke="#187ae8" stroke-width="2" d="M530.38,-271C530.38,-262.75 529.25,-254.24 527.46,-245.94"/>
<polygon fill="#187ae8" stroke="#187ae8" stroke-width="2" points="531.23,-246.58 525.4,-237.73 524.44,-248.28 531.23,-246.58"/>
</g>
<!-- node0x105600890 -->
<g id="node11" class="node">
<title>node0x105600890</title>
<path fill="#d5cfe1" stroke="#8797b2" d="M633,-136C633,-136 806.25,-136 806.25,-136 812.25,-136 818.25,-142 818.25,-148 818.25,-148 818.25,-222.5 818.25,-222.5 818.25,-228.5 812.25,-234.5 806.25,-234.5 806.25,-234.5 633,-234.5 633,-234.5 627,-234.5 621,-228.5 621,-222.5 621,-222.5 621,-148 621,-148 621,-142 627,-136 633,-136"/>
<text text-anchor="middle" x="719.62" y="-217.2" font-family="Times,serif" font-size="14.00" fill="#000000">x</text>
<text text-anchor="middle" x="719.62" y="-200.7" font-family="Times,serif" font-size="14.00" fill="#000000">0x105600890</text>
<polyline fill="none" stroke="#8797b2" points="621,-193.5 818.25,-193.5"/>
<text text-anchor="middle" x="647.75" y="-176.2" font-family="Times,serif" font-size="14.00" fill="#000000">Left</text>
<text text-anchor="middle" x="647.75" y="-159.7" font-family="Times,serif" font-size="14.00" fill="#000000">NONE</text>
<text text-anchor="middle" x="647.75" y="-143.2" font-family="Times,serif" font-size="14.00" fill="#000000">0x0</text>
<polyline fill="none" stroke="#8797b2" points="674.5,-136 674.5,-193.5"/>
<text text-anchor="middle" x="719.62" y="-176.2" font-family="Times,serif" font-size="14.00" fill="#000000">Parent</text>
<text text-anchor="middle" x="719.62" y="-159.7" font-family="Times,serif" font-size="14.00" fill="#000000">*</text>
<text text-anchor="middle" x="719.62" y="-143.2" font-family="Times,serif" font-size="14.00" fill="#000000">0x105600850</text>
<polyline fill="none" stroke="#8797b2" points="764.75,-136 764.75,-193.5"/>
<text text-anchor="middle" x="791.5" y="-176.2" font-family="Times,serif" font-size="14.00" fill="#000000">Right</text>
<text text-anchor="middle" x="791.5" y="-159.7" font-family="Times,serif" font-size="14.00" fill="#000000">NONE</text>
<text text-anchor="middle" x="791.5" y="-143.2" font-family="Times,serif" font-size="14.00" fill="#000000">0x0</text>
</g>
<!-- node0x105600850&#45;&gt;node0x105600890 -->
<g id="edge9" class="edge">
<title>node0x105600850:right&#45;&gt;node0x105600890</title>
<path fill="none" stroke="#48e818" stroke-width="2" d="M710.88,-271C710.88,-262.86 711.28,-254.31 711.91,-245.9"/>
<polygon fill="#48e818" stroke="#48e818" stroke-width="2" points="715.26,-247.85 712.64,-237.58 708.28,-247.24 715.26,-247.85"/>
</g>
<!-- node0x105600810 -->
<g id="node13" class="node">
<title>node0x105600810</title>
<path fill="#bdef9e" stroke="#99c2a2" d="M848,-136C848,-136 1021.25,-136 1021.25,-136 1027.25,-136 1033.25,-142 1033.25,-148 1033.25,-148 1033.25,-222.5 1033.25,-222.5 1033.25,-228.5 1027.25,-234.5 1021.25,-234.5 1021.25,-234.5 848,-234.5 848,-234.5 842,-234.5 836,-228.5 836,-222.5 836,-222.5 836,-148 836,-148 836,-142 842,-136 848,-136"/>
<text text-anchor="middle" x="934.62" y="-217.2" font-family="Times,serif" font-size="14.00" fill="#000000">2</text>
<text text-anchor="middle" x="934.62" y="-200.7" font-family="Times,serif" font-size="14.00" fill="#000000">0x105600810</text>
<polyline fill="none" stroke="#99c2a2" points="836,-193.5 1033.25,-193.5"/>
<text text-anchor="middle" x="862.75" y="-176.2" font-family="Times,serif" font-size="14.00" fill="#000000">Left</text>
<text text-anchor="middle" x="862.75" y="-159.7" font-family="Times,serif" font-size="14.00" fill="#000000">NONE</text>
<text text-anchor="middle" x="862.75" y="-143.2" font-family="Times,serif" font-size="14.00" fill="#000000">0x0</text>
<polyline fill="none" stroke="#99c2a2" points="889.5,-136 889.5,-193.5"/>
<text text-anchor="middle" x="934.62" y="-176.2" font-family="Times,serif" font-size="14.00" fill="#000000">Parent</text>
<text text-anchor="middle" x="934.62" y="-159.7" font-family="Times,serif" font-size="14.00" fill="#000000">*</text>
<text text-anchor="middle" x="934.62" y="-143.2" font-family="Times,serif" font-size="14.00" fill="#000000">0x105600790</text>
<polyline fill="none" stroke="#99c2a2" points="979.75,-136 979.75,-193.5"/>
<text text-anchor="middle" x="1006.5" y="-176.2" font-family="Times,serif" font-size="14.00" fill="#000000">Right</text>
<text text-anchor="middle" x="1006.5" y="-159.7" font-family="Times,serif" font-size="14.00" fill="#000000">NONE</text>
<text text-anchor="middle" x="1006.5" y="-143.2" font-family="Times,serif" font-size="14.00" fill="#000000">0x0</text>
</g>
<!-- node0x105600790&#45;&gt;node0x105600810 -->
<g id="edge10" class="edge">
<title>node0x105600790:left&#45;&gt;node0x105600810</title>
<path fill="none" stroke="#187ae8" stroke-width="2" d="M934.38,-271C934.38,-262.91 934.39,-254.38 934.4,-245.98"/>
<polygon fill="#187ae8" stroke="#187ae8" stroke-width="2" points="937.9,-247.69 934.43,-237.68 930.9,-247.67 937.9,-247.69"/>
</g>
<!-- node0x1056007d0 -->
<g id="node14" class="node">
<title>node0x1056007d0</title>
<path fill="#bdef9e" stroke="#99c2a2" d="M1063,-136C1063,-136 1236.25,-136 1236.25,-136 1242.25,-136 1248.25,-142 1248.25,-148 1248.25,-148 1248.25,-222.5 1248.25,-222.5 1248.25,-228.5 1242.25,-234.5 1236.25,-234.5 1236.25,-234.5 1063,-234.5 1063,-234.5 1057,-234.5 1051,-228.5 1051,-222.5 1051,-222.5 1051,-148 1051,-148 1051,-142 1057,-136 1063,-136"/>
<text text-anchor="middle" x="1149.62" y="-217.2" font-family="Times,serif" font-size="14.00" fill="#000000">1</text>
<text text-anchor="middle" x="1149.62" y="-200.7" font-family="Times,serif" font-size="14.00" fill="#000000">0x1056007d0</text>
<polyline fill="none" stroke="#99c2a2" points="1051,-193.5 1248.25,-193.5"/>
<text text-anchor="middle" x="1077.75" y="-176.2" font-family="Times,serif" font-size="14.00" fill="#000000">Left</text>
<text text-anchor="middle" x="1077.75" y="-159.7" font-family="Times,serif" font-size="14.00" fill="#000000">NONE</text>
<text text-anchor="middle" x="1077.75" y="-143.2" font-family="Times,serif" font-size="14.00" fill="#000000">0x0</text>
<polyline fill="none" stroke="#99c2a2" points="1104.5,-136 1104.5,-193.5"/>
<text text-anchor="middle" x="1149.62" y="-176.2" font-family="Times,serif" font-size="14.00" fill="#000000">Parent</text>
<text text-anchor="middle" x="1149.62" y="-159.7" font-family="Times,serif" font-size="14.00" fill="#000000">*</text>
<text text-anchor="middle" x="1149.62" y="-143.2" font-family="Times,serif" font-size="14.00" fill="#000000">0x105600790</text>
<polyline fill="none" stroke="#99c2a2" points="1194.75,-136 1194.75,-193.5"/>
<text text-anchor="middle" x="1221.5" y="-176.2" font-family="Times,serif" font-size="14.00" fill="#000000">Right</text>
<text text-anchor="middle" x="1221.5" y="-159.7" font-family="Times,serif" font-size="14.00" fill="#000000">NONE</text>
<text text-anchor="middle" x="1221.5" y="-143.2" font-family="Times,serif" font-size="14.00" fill="#000000">0x0</text>
</g>
<!-- node0x105600790&#45;&gt;node0x1056007d0 -->
<g id="edge11" class="edge">
<title>node0x105600790:right&#45;&gt;node0x1056007d0</title>
<path fill="none" stroke="#48e818" stroke-width="2" d="M1114.88,-271C1114.88,-262.49 1116.39,-253.83 1118.8,-245.45"/>
<polygon fill="#48e818" stroke="#48e818" stroke-width="2" points="1121.6,-248.12 1121.45,-237.52 1114.96,-245.89 1121.6,-248.12"/>
</g>
</g>
</svg>
