<?xml version="1.0" encoding="UTF-8" standalone="no"?>
<!DOCTYPE svg PUBLIC "-//W3C//DTD SVG 1.1//EN"
 "http://www.w3.org/Graphics/SVG/1.1/DTD/svg11.dtd">
<!-- Generated by graphviz version 12.2.0 (20241103.1931)
 -->
<!-- Pages: 1 -->
<svg width="1695pt" height="785pt"
 viewBox="0.00 0.00 1695.25 785.00" xmlns="http://www.w3.org/2000/svg" xmlns:xlink="http://www.w3.org/1999/xlink">
<g id="graph0" class="graph" transform="scale(1 1) rotate(0) translate(4 781)">
<polygon fill="#dcdcdc" stroke="none" points="-4,4 -4,-781 1691.25,-781 1691.25,4 -4,4"/>
<!-- node0x103d004d0 -->
<g id="node1" class="node">
<title>node0x103d004d0</title>
<path fill="#f18805" stroke="#af3800" d="M344.62,-678C344.62,-678 554.62,-678 554.62,-678 560.62,-678 566.62,-684 566.62,-690 566.62,-690 566.62,-764.5 566.62,-764.5 566.62,-770.5 560.62,-776.5 554.62,-776.5 554.62,-776.5 344.62,-776.5 344.62,-776.5 338.62,-776.5 332.62,-770.5 332.62,-764.5 332.62,-764.5 332.62,-690 332.62,-690 332.62,-684 338.62,-678 344.62,-678"/>
<text text-anchor="middle" x="449.62" y="-759.2" font-family="Times,serif" font-size="14.00" fill="#000000">+</text>
<text text-anchor="middle" x="449.62" y="-742.7" font-family="Times,serif" font-size="14.00" fill="#000000">0x103d004d0</text>
<polyline fill="none" stroke="#af3800" points="332.62,-735.5 566.62,-735.5"/>
<text text-anchor="middle" x="377.75" y="-718.2" font-family="Times,serif" font-size="14.00" fill="#000000">Left</text>
<text text-anchor="middle" x="377.75" y="-701.7" font-family="Times,serif" font-size="14.00" fill="#000000">*</text>
<text text-anchor="middle" x="377.75" y="-685.2" font-family="Times,serif" font-size="14.00" fill="#000000">0x103d00890</text>
<polyline fill="none" stroke="#af3800" points="422.88,-678 422.88,-735.5"/>
<text text-anchor="middle" x="449.62" y="-718.2" font-family="Times,serif" font-size="14.00" fill="#000000">Parent</text>
<text text-anchor="middle" x="449.62" y="-701.7" font-family="Times,serif" font-size="14.00" fill="#000000">NONE</text>
<text text-anchor="middle" x="449.62" y="-685.2" font-family="Times,serif" font-size="14.00" fill="#000000">0x0</text>
<polyline fill="none" stroke="#af3800" points="476.38,-678 476.38,-735.5"/>
<text text-anchor="middle" x="521.5" y="-718.2" font-family="Times,serif" font-size="14.00" fill="#000000">Right</text>
<text text-anchor="middle" x="521.5" y="-701.7" font-family="Times,serif" font-size="14.00" fill="#000000">*</text>
<text text-anchor="middle" x="521.5" y="-685.2" font-family="Times,serif" font-size="14.00" fill="#000000">0x103d00510</text>
</g>
<!-- node0x103d00890 -->
<g id="node2" class="node">
<title>node0x103d00890</title>
<path fill="#fbee21" stroke="#d3c70d" d="M119.25,-542.5C119.25,-542.5 366,-542.5 366,-542.5 372,-542.5 378,-548.5 378,-554.5 378,-554.5 378,-629 378,-629 378,-635 372,-641 366,-641 366,-641 119.25,-641 119.25,-641 113.25,-641 107.25,-635 107.25,-629 107.25,-629 107.25,-554.5 107.25,-554.5 107.25,-548.5 113.25,-542.5 119.25,-542.5"/>
<text text-anchor="middle" x="242.62" y="-623.7" font-family="Times,serif" font-size="14.00" fill="#000000">*</text>
<text text-anchor="middle" x="242.62" y="-607.2" font-family="Times,serif" font-size="14.00" fill="#000000">0x103d00890</text>
<polyline fill="none" stroke="#d3c70d" points="107.25,-600 378,-600"/>
<text text-anchor="middle" x="152.38" y="-582.7" font-family="Times,serif" font-size="14.00" fill="#000000">Left</text>
<text text-anchor="middle" x="152.38" y="-566.2" font-family="Times,serif" font-size="14.00" fill="#000000">0</text>
<text text-anchor="middle" x="152.38" y="-549.7" font-family="Times,serif" font-size="14.00" fill="#000000">0x103d009d0</text>
<polyline fill="none" stroke="#d3c70d" points="197.5,-542.5 197.5,-600"/>
<text text-anchor="middle" x="242.62" y="-582.7" font-family="Times,serif" font-size="14.00" fill="#000000">Parent</text>
<text text-anchor="middle" x="242.62" y="-566.2" font-family="Times,serif" font-size="14.00" fill="#000000">+</text>
<text text-anchor="middle" x="242.62" y="-549.7" font-family="Times,serif" font-size="14.00" fill="#000000">0x103d004d0</text>
<polyline fill="none" stroke="#d3c70d" points="287.75,-542.5 287.75,-600"/>
<text text-anchor="middle" x="332.88" y="-582.7" font-family="Times,serif" font-size="14.00" fill="#000000">Right</text>
<text text-anchor="middle" x="332.88" y="-566.2" font-family="Times,serif" font-size="14.00" fill="#000000">exp</text>
<text text-anchor="middle" x="332.88" y="-549.7" font-family="Times,serif" font-size="14.00" fill="#000000">0x103d008d0</text>
</g>
<!-- node0x103d004d0&#45;&gt;node0x103d00890 -->
<g id="edge1" class="edge">
<title>node0x103d004d0:left&#45;&gt;node0x103d00890</title>
<path fill="none" stroke="#187ae8" stroke-width="2" d="M331.62,-706.75C300.21,-706.75 278.24,-679.51 263.99,-651.66"/>
<polygon fill="#187ae8" stroke="#187ae8" stroke-width="2" points="267.87,-651.66 260.39,-644.16 261.56,-654.69 267.87,-651.66"/>
</g>
<!-- node0x103d00510 -->
<g id="node8" class="node">
<title>node0x103d00510</title>
<path fill="#fbee21" stroke="#d3c70d" d="M533.25,-542.5C533.25,-542.5 780,-542.5 780,-542.5 786,-542.5 792,-548.5 792,-554.5 792,-554.5 792,-629 792,-629 792,-635 786,-641 780,-641 780,-641 533.25,-641 533.25,-641 527.25,-641 521.25,-635 521.25,-629 521.25,-629 521.25,-554.5 521.25,-554.5 521.25,-548.5 527.25,-542.5 533.25,-542.5"/>
<text text-anchor="middle" x="656.62" y="-623.7" font-family="Times,serif" font-size="14.00" fill="#000000">*</text>
<text text-anchor="middle" x="656.62" y="-607.2" font-family="Times,serif" font-size="14.00" fill="#000000">0x103d00510</text>
<polyline fill="none" stroke="#d3c70d" points="521.25,-600 792,-600"/>
<text text-anchor="middle" x="566.38" y="-582.7" font-family="Times,serif" font-size="14.00" fill="#000000">Left</text>
<text text-anchor="middle" x="566.38" y="-566.2" font-family="Times,serif" font-size="14.00" fill="#000000">2</text>
<text text-anchor="middle" x="566.38" y="-549.7" font-family="Times,serif" font-size="14.00" fill="#000000">0x103d00850</text>
<polyline fill="none" stroke="#d3c70d" points="611.5,-542.5 611.5,-600"/>
<text text-anchor="middle" x="656.62" y="-582.7" font-family="Times,serif" font-size="14.00" fill="#000000">Parent</text>
<text text-anchor="middle" x="656.62" y="-566.2" font-family="Times,serif" font-size="14.00" fill="#000000">+</text>
<text text-anchor="middle" x="656.62" y="-549.7" font-family="Times,serif" font-size="14.00" fill="#000000">0x103d004d0</text>
<polyline fill="none" stroke="#d3c70d" points="701.75,-542.5 701.75,-600"/>
<text text-anchor="middle" x="746.88" y="-582.7" font-family="Times,serif" font-size="14.00" fill="#000000">Right</text>
<text text-anchor="middle" x="746.88" y="-566.2" font-family="Times,serif" font-size="14.00" fill="#000000">*</text>
<text text-anchor="middle" x="746.88" y="-549.7" font-family="Times,serif" font-size="14.00" fill="#000000">0x103d00550</text>
</g>
<!-- node0x103d004d0&#45;&gt;node0x103d00510 -->
<g id="edge20" class="edge">
<title>node0x103d004d0:right&#45;&gt;node0x103d00510</title>
<path fill="none" stroke="#48e818" stroke-width="2" d="M567.62,-706.75C599.04,-706.75 621.01,-679.51 635.26,-651.66"/>
<polygon fill="#48e818" stroke="#48e818" stroke-width="2" points="637.69,-654.69 638.86,-644.16 631.38,-651.66 637.69,-654.69"/>
</g>
<!-- node0x103d009d0 -->
<g id="node3" class="node">
<title>node0x103d009d0</title>
<path fill="#bdef9e" stroke="#99c2a2" d="M12,-407C12,-407 185.25,-407 185.25,-407 191.25,-407 197.25,-413 197.25,-419 197.25,-419 197.25,-493.5 197.25,-493.5 197.25,-499.5 191.25,-505.5 185.25,-505.5 185.25,-505.5 12,-505.5 12,-505.5 6,-505.5 0,-499.5 0,-493.5 0,-493.5 0,-419 0,-419 0,-413 6,-407 12,-407"/>
<text text-anchor="middle" x="98.62" y="-488.2" font-family="Times,serif" font-size="14.00" fill="#000000">0</text>
<text text-anchor="middle" x="98.62" y="-471.7" font-family="Times,serif" font-size="14.00" fill="#000000">0x103d009d0</text>
<polyline fill="none" stroke="#99c2a2" points="0,-464.5 197.25,-464.5"/>
<text text-anchor="middle" x="26.75" y="-447.2" font-family="Times,serif" font-size="14.00" fill="#000000">Left</text>
<text text-anchor="middle" x="26.75" y="-430.7" font-family="Times,serif" font-size="14.00" fill="#000000">NONE</text>
<text text-anchor="middle" x="26.75" y="-414.2" font-family="Times,serif" font-size="14.00" fill="#000000">0x0</text>
<polyline fill="none" stroke="#99c2a2" points="53.5,-407 53.5,-464.5"/>
<text text-anchor="middle" x="98.62" y="-447.2" font-family="Times,serif" font-size="14.00" fill="#000000">Parent</text>
<text text-anchor="middle" x="98.62" y="-430.7" font-family="Times,serif" font-size="14.00" fill="#000000">*</text>
<text text-anchor="middle" x="98.62" y="-414.2" font-family="Times,serif" font-size="14.00" fill="#000000">0x103d00890</text>
<polyline fill="none" stroke="#99c2a2" points="143.75,-407 143.75,-464.5"/>
<text text-anchor="middle" x="170.5" y="-447.2" font-family="Times,serif" font-size="14.00" fill="#000000">Right</text>
<text text-anchor="middle" x="170.5" y="-430.7" font-family="Times,serif" font-size="14.00" fill="#000000">NONE</text>
<text text-anchor="middle" x="170.5" y="-414.2" font-family="Times,serif" font-size="14.00" fill="#000000">0x0</text>
</g>
<!-- node0x103d00890&#45;&gt;node0x103d009d0 -->
<g id="edge2" class="edge">
<title>node0x103d00890:left&#45;&gt;node0x103d009d0</title>
<path fill="none" stroke="#187ae8" stroke-width="2" d="M152.38,-542C152.38,-533.06 150.21,-524.29 146.76,-516"/>
<polygon fill="#187ae8" stroke="#187ae8" stroke-width="2" points="150.62,-515.93 143.08,-508.48 144.33,-519 150.62,-515.93"/>
</g>
<!-- node0x103d008d0 -->
<g id="node4" class="node">
<title>node0x103d008d0</title>
<path fill="#fbee21" stroke="#d3c70d" d="M227.62,-407C227.62,-407 437.62,-407 437.62,-407 443.62,-407 449.62,-413 449.62,-419 449.62,-419 449.62,-493.5 449.62,-493.5 449.62,-499.5 443.62,-505.5 437.62,-505.5 437.62,-505.5 227.62,-505.5 227.62,-505.5 221.62,-505.5 215.62,-499.5 215.62,-493.5 215.62,-493.5 215.62,-419 215.62,-419 215.62,-413 221.62,-407 227.62,-407"/>
<text text-anchor="middle" x="332.62" y="-488.2" font-family="Times,serif" font-size="14.00" fill="#000000">exp</text>
<text text-anchor="middle" x="332.62" y="-471.7" font-family="Times,serif" font-size="14.00" fill="#000000">0x103d008d0</text>
<polyline fill="none" stroke="#d3c70d" points="215.62,-464.5 449.62,-464.5"/>
<text text-anchor="middle" x="260.75" y="-447.2" font-family="Times,serif" font-size="14.00" fill="#000000">Left</text>
<text text-anchor="middle" x="260.75" y="-430.7" font-family="Times,serif" font-size="14.00" fill="#000000">*</text>
<text text-anchor="middle" x="260.75" y="-414.2" font-family="Times,serif" font-size="14.00" fill="#000000">0x103d00910</text>
<polyline fill="none" stroke="#d3c70d" points="305.88,-407 305.88,-464.5"/>
<text text-anchor="middle" x="351" y="-447.2" font-family="Times,serif" font-size="14.00" fill="#000000">Parent</text>
<text text-anchor="middle" x="351" y="-430.7" font-family="Times,serif" font-size="14.00" fill="#000000">*</text>
<text text-anchor="middle" x="351" y="-414.2" font-family="Times,serif" font-size="14.00" fill="#000000">0x103d00890</text>
<polyline fill="none" stroke="#d3c70d" points="396.12,-407 396.12,-464.5"/>
<text text-anchor="middle" x="422.88" y="-447.2" font-family="Times,serif" font-size="14.00" fill="#000000">Right</text>
<text text-anchor="middle" x="422.88" y="-430.7" font-family="Times,serif" font-size="14.00" fill="#000000">NONE</text>
<text text-anchor="middle" x="422.88" y="-414.2" font-family="Times,serif" font-size="14.00" fill="#000000">0x0</text>
</g>
<!-- node0x103d00890&#45;&gt;node0x103d008d0 -->
<g id="edge6" class="edge">
<title>node0x103d00890:right&#45;&gt;node0x103d008d0</title>
<path fill="none" stroke="#48e818" stroke-width="2" d="M332.88,-542C332.88,-533.91 332.86,-525.38 332.85,-516.98"/>
<polygon fill="#48e818" stroke="#48e818" stroke-width="2" points="336.35,-518.67 332.82,-508.68 329.35,-518.69 336.35,-518.67"/>
</g>
<!-- node0x103d00910 -->
<g id="node5" class="node">
<title>node0x103d00910</title>
<path fill="#fbee21" stroke="#d3c70d" d="M138.25,-271.5C138.25,-271.5 385,-271.5 385,-271.5 391,-271.5 397,-277.5 397,-283.5 397,-283.5 397,-358 397,-358 397,-364 391,-370 385,-370 385,-370 138.25,-370 138.25,-370 132.25,-370 126.25,-364 126.25,-358 126.25,-358 126.25,-283.5 126.25,-283.5 126.25,-277.5 132.25,-271.5 138.25,-271.5"/>
<text text-anchor="middle" x="261.62" y="-352.7" font-family="Times,serif" font-size="14.00" fill="#000000">*</text>
<text text-anchor="middle" x="261.62" y="-336.2" font-family="Times,serif" font-size="14.00" fill="#000000">0x103d00910</text>
<polyline fill="none" stroke="#d3c70d" points="126.25,-329 397,-329"/>
<text text-anchor="middle" x="171.38" y="-311.7" font-family="Times,serif" font-size="14.00" fill="#000000">Left</text>
<text text-anchor="middle" x="171.38" y="-295.2" font-family="Times,serif" font-size="14.00" fill="#000000">x</text>
<text text-anchor="middle" x="171.38" y="-278.7" font-family="Times,serif" font-size="14.00" fill="#000000">0x103d00990</text>
<polyline fill="none" stroke="#d3c70d" points="216.5,-271.5 216.5,-329"/>
<text text-anchor="middle" x="261.62" y="-311.7" font-family="Times,serif" font-size="14.00" fill="#000000">Parent</text>
<text text-anchor="middle" x="261.62" y="-295.2" font-family="Times,serif" font-size="14.00" fill="#000000">exp</text>
<text text-anchor="middle" x="261.62" y="-278.7" font-family="Times,serif" font-size="14.00" fill="#000000">0x103d008d0</text>
<polyline fill="none" stroke="#d3c70d" points="306.75,-271.5 306.75,-329"/>
<text text-anchor="middle" x="351.88" y="-311.7" font-family="Times,serif" font-size="14.00" fill="#000000">Right</text>
<text text-anchor="middle" x="351.88" y="-295.2" font-family="Times,serif" font-size="14.00" fill="#000000">2</text>
<text text-anchor="middle" x="351.88" y="-278.7" font-family="Times,serif" font-size="14.00" fill="#000000">0x103d00950</text>
</g>
<!-- node0x103d008d0&#45;&gt;node0x103d00910 -->
<g id="edge3" class="edge">
<title>node0x103d008d0:left&#45;&gt;node0x103d00910</title>
<path fill="none" stroke="#187ae8" stroke-width="2" d="M260.75,-406.5C260.75,-398.41 260.79,-389.88 260.85,-381.48"/>
<polygon fill="#187ae8" stroke="#187ae8" stroke-width="2" points="264.34,-383.21 260.93,-373.18 257.34,-383.15 264.34,-383.21"/>
</g>
<!-- node0x103d00990 -->
<g id="node6" class="node">
<title>node0x103d00990</title>
<path fill="#d5cfe1" stroke="#8797b2" d="M67,-136C67,-136 240.25,-136 240.25,-136 246.25,-136 252.25,-142 252.25,-148 252.25,-148 252.25,-222.5 252.25,-222.5 252.25,-228.5 246.25,-234.5 240.25,-234.5 240.25,-234.5 67,-234.5 67,-234.5 61,-234.5 55,-228.5 55,-222.5 55,-222.5 55,-148 55,-148 55,-142 61,-136 67,-136"/>
<text text-anchor="middle" x="153.62" y="-217.2" font-family="Times,serif" font-size="14.00" fill="#000000">x</text>
<text text-anchor="middle" x="153.62" y="-200.7" font-family="Times,serif" font-size="14.00" fill="#000000">0x103d00990</text>
<polyline fill="none" stroke="#8797b2" points="55,-193.5 252.25,-193.5"/>
<text text-anchor="middle" x="81.75" y="-176.2" font-family="Times,serif" font-size="14.00" fill="#000000">Left</text>
<text text-anchor="middle" x="81.75" y="-159.7" font-family="Times,serif" font-size="14.00" fill="#000000">NONE</text>
<text text-anchor="middle" x="81.75" y="-143.2" font-family="Times,serif" font-size="14.00" fill="#000000">0x0</text>
<polyline fill="none" stroke="#8797b2" points="108.5,-136 108.5,-193.5"/>
<text text-anchor="middle" x="153.62" y="-176.2" font-family="Times,serif" font-size="14.00" fill="#000000">Parent</text>
<text text-anchor="middle" x="153.62" y="-159.7" font-family="Times,serif" font-size="14.00" fill="#000000">*</text>
<text text-anchor="middle" x="153.62" y="-143.2" font-family="Times,serif" font-size="14.00" fill="#000000">0x103d00910</text>
<polyline fill="none" stroke="#8797b2" points="198.75,-136 198.75,-193.5"/>
<text text-anchor="middle" x="225.5" y="-176.2" font-family="Times,serif" font-size="14.00" fill="#000000">Right</text>
<text text-anchor="middle" x="225.5" y="-159.7" font-family="Times,serif" font-size="14.00" fill="#000000">NONE</text>
<text text-anchor="middle" x="225.5" y="-143.2" font-family="Times,serif" font-size="14.00" fill="#000000">0x0</text>
</g>
<!-- node0x103d00910&#45;&gt;node0x103d00990 -->
<g id="edge4" class="edge">
<title>node0x103d00910:left&#45;&gt;node0x103d00990</title>
<path fill="none" stroke="#187ae8" stroke-width="2" d="M171.38,-271C171.38,-262.84 170.58,-254.32 169.32,-245.97"/>
<polygon fill="#187ae8" stroke="#187ae8" stroke-width="2" points="173.04,-246.96 167.87,-237.72 166.15,-248.17 173.04,-246.96"/>
</g>
<!-- node0x103d00950 -->
<g id="node7" class="node">
<title>node0x103d00950</title>
<path fill="#bdef9e" stroke="#99c2a2" d="M282,-136C282,-136 455.25,-136 455.25,-136 461.25,-136 467.25,-142 467.25,-148 467.25,-148 467.25,-222.5 467.25,-222.5 467.25,-228.5 461.25,-234.5 455.25,-234.5 455.25,-234.5 282,-234.5 282,-234.5 276,-234.5 270,-228.5 270,-222.5 270,-222.5 270,-148 270,-148 270,-142 276,-136 282,-136"/>
<text text-anchor="middle" x="368.62" y="-217.2" font-family="Times,serif" font-size="14.00" fill="#000000">2</text>
<text text-anchor="middle" x="368.62" y="-200.7" font-family="Times,serif" font-size="14.00" fill="#000000">0x103d00950</text>
<polyline fill="none" stroke="#99c2a2" points="270,-193.5 467.25,-193.5"/>
<text text-anchor="middle" x="296.75" y="-176.2" font-family="Times,serif" font-size="14.00" fill="#000000">Left</text>
<text text-anchor="middle" x="296.75" y="-159.7" font-family="Times,serif" font-size="14.00" fill="#000000">NONE</text>
<text text-anchor="middle" x="296.75" y="-143.2" font-family="Times,serif" font-size="14.00" fill="#000000">0x0</text>
<polyline fill="none" stroke="#99c2a2" points="323.5,-136 323.5,-193.5"/>
<text text-anchor="middle" x="368.62" y="-176.2" font-family="Times,serif" font-size="14.00" fill="#000000">Parent</text>
<text text-anchor="middle" x="368.62" y="-159.7" font-family="Times,serif" font-size="14.00" fill="#000000">*</text>
<text text-anchor="middle" x="368.62" y="-143.2" font-family="Times,serif" font-size="14.00" fill="#000000">0x103d00910</text>
<polyline fill="none" stroke="#99c2a2" points="413.75,-136 413.75,-193.5"/>
<text text-anchor="middle" x="440.5" y="-176.2" font-family="Times,serif" font-size="14.00" fill="#000000">Right</text>
<text text-anchor="middle" x="440.5" y="-159.7" font-family="Times,serif" font-size="14.00" fill="#000000">NONE</text>
<text text-anchor="middle" x="440.5" y="-143.2" font-family="Times,serif" font-size="14.00" fill="#000000">0x0</text>
</g>
<!-- node0x103d00910&#45;&gt;node0x103d00950 -->
<g id="edge5" class="edge">
<title>node0x103d00910:right&#45;&gt;node0x103d00950</title>
<path fill="none" stroke="#48e818" stroke-width="2" d="M351.88,-271C351.88,-262.85 352.63,-254.35 353.82,-246.01"/>
<polygon fill="#48e818" stroke="#48e818" stroke-width="2" points="357,-248.2 355.18,-237.76 350.1,-247.06 357,-248.2"/>
</g>
<!-- node0x103d00850 -->
<g id="node9" class="node">
<title>node0x103d00850</title>
<path fill="#bdef9e" stroke="#99c2a2" d="M480,-407C480,-407 653.25,-407 653.25,-407 659.25,-407 665.25,-413 665.25,-419 665.25,-419 665.25,-493.5 665.25,-493.5 665.25,-499.5 659.25,-505.5 653.25,-505.5 653.25,-505.5 480,-505.5 480,-505.5 474,-505.5 468,-499.5 468,-493.5 468,-493.5 468,-419 468,-419 468,-413 474,-407 480,-407"/>
<text text-anchor="middle" x="566.62" y="-488.2" font-family="Times,serif" font-size="14.00" fill="#000000">2</text>
<text text-anchor="middle" x="566.62" y="-471.7" font-family="Times,serif" font-size="14.00" fill="#000000">0x103d00850</text>
<polyline fill="none" stroke="#99c2a2" points="468,-464.5 665.25,-464.5"/>
<text text-anchor="middle" x="494.75" y="-447.2" font-family="Times,serif" font-size="14.00" fill="#000000">Left</text>
<text text-anchor="middle" x="494.75" y="-430.7" font-family="Times,serif" font-size="14.00" fill="#000000">NONE</text>
<text text-anchor="middle" x="494.75" y="-414.2" font-family="Times,serif" font-size="14.00" fill="#000000">0x0</text>
<polyline fill="none" stroke="#99c2a2" points="521.5,-407 521.5,-464.5"/>
<text text-anchor="middle" x="566.62" y="-447.2" font-family="Times,serif" font-size="14.00" fill="#000000">Parent</text>
<text text-anchor="middle" x="566.62" y="-430.7" font-family="Times,serif" font-size="14.00" fill="#000000">*</text>
<text text-anchor="middle" x="566.62" y="-414.2" font-family="Times,serif" font-size="14.00" fill="#000000">0x103d00510</text>
<polyline fill="none" stroke="#99c2a2" points="611.75,-407 611.75,-464.5"/>
<text text-anchor="middle" x="638.5" y="-447.2" font-family="Times,serif" font-size="14.00" fill="#000000">Right</text>
<text text-anchor="middle" x="638.5" y="-430.7" font-family="Times,serif" font-size="14.00" fill="#000000">NONE</text>
<text text-anchor="middle" x="638.5" y="-414.2" font-family="Times,serif" font-size="14.00" fill="#000000">0x0</text>
</g>
<!-- node0x103d00510&#45;&gt;node0x103d00850 -->
<g id="edge7" class="edge">
<title>node0x103d00510:left&#45;&gt;node0x103d00850</title>
<path fill="none" stroke="#187ae8" stroke-width="2" d="M566.38,-542C566.38,-533.91 566.39,-525.38 566.4,-516.98"/>
<polygon fill="#187ae8" stroke="#187ae8" stroke-width="2" points="569.9,-518.69 566.43,-508.68 562.9,-518.67 569.9,-518.69"/>
</g>
<!-- node0x103d00550 -->
<g id="node10" class="node">
<title>node0x103d00550</title>
<path fill="#fbee21" stroke="#d3c70d" d="M695.25,-407C695.25,-407 942,-407 942,-407 948,-407 954,-413 954,-419 954,-419 954,-493.5 954,-493.5 954,-499.5 948,-505.5 942,-505.5 942,-505.5 695.25,-505.5 695.25,-505.5 689.25,-505.5 683.25,-499.5 683.25,-493.5 683.25,-493.5 683.25,-419 683.25,-419 683.25,-413 689.25,-407 695.25,-407"/>
<text text-anchor="middle" x="818.62" y="-488.2" font-family="Times,serif" font-size="14.00" fill="#000000">*</text>
<text text-anchor="middle" x="818.62" y="-471.7" font-family="Times,serif" font-size="14.00" fill="#000000">0x103d00550</text>
<polyline fill="none" stroke="#d3c70d" points="683.25,-464.5 954,-464.5"/>
<text text-anchor="middle" x="728.38" y="-447.2" font-family="Times,serif" font-size="14.00" fill="#000000">Left</text>
<text text-anchor="middle" x="728.38" y="-430.7" font-family="Times,serif" font-size="14.00" fill="#000000">exp</text>
<text text-anchor="middle" x="728.38" y="-414.2" font-family="Times,serif" font-size="14.00" fill="#000000">0x103d00750</text>
<polyline fill="none" stroke="#d3c70d" points="773.5,-407 773.5,-464.5"/>
<text text-anchor="middle" x="818.62" y="-447.2" font-family="Times,serif" font-size="14.00" fill="#000000">Parent</text>
<text text-anchor="middle" x="818.62" y="-430.7" font-family="Times,serif" font-size="14.00" fill="#000000">*</text>
<text text-anchor="middle" x="818.62" y="-414.2" font-family="Times,serif" font-size="14.00" fill="#000000">0x103d00510</text>
<polyline fill="none" stroke="#d3c70d" points="863.75,-407 863.75,-464.5"/>
<text text-anchor="middle" x="908.88" y="-447.2" font-family="Times,serif" font-size="14.00" fill="#000000">Right</text>
<text text-anchor="middle" x="908.88" y="-430.7" font-family="Times,serif" font-size="14.00" fill="#000000">+</text>
<text text-anchor="middle" x="908.88" y="-414.2" font-family="Times,serif" font-size="14.00" fill="#000000">0x103d00590</text>
</g>
<!-- node0x103d00510&#45;&gt;node0x103d00550 -->
<g id="edge19" class="edge">
<title>node0x103d00510:right&#45;&gt;node0x103d00550</title>
<path fill="none" stroke="#48e818" stroke-width="2" d="M746.88,-542C746.88,-532.54 749.51,-523.6 753.77,-515.32"/>
<polygon fill="#48e818" stroke="#48e818" stroke-width="2" points="755.93,-518.51 758.13,-508.14 749.95,-514.87 755.93,-518.51"/>
</g>
<!-- node0x103d00750 -->
<g id="node11" class="node">
<title>node0x103d00750</title>
<path fill="#fbee21" stroke="#d3c70d" d="M613.62,-271.5C613.62,-271.5 823.62,-271.5 823.62,-271.5 829.62,-271.5 835.62,-277.5 835.62,-283.5 835.62,-283.5 835.62,-358 835.62,-358 835.62,-364 829.62,-370 823.62,-370 823.62,-370 613.62,-370 613.62,-370 607.62,-370 601.62,-364 601.62,-358 601.62,-358 601.62,-283.5 601.62,-283.5 601.62,-277.5 607.62,-271.5 613.62,-271.5"/>
<text text-anchor="middle" x="718.62" y="-352.7" font-family="Times,serif" font-size="14.00" fill="#000000">exp</text>
<text text-anchor="middle" x="718.62" y="-336.2" font-family="Times,serif" font-size="14.00" fill="#000000">0x103d00750</text>
<polyline fill="none" stroke="#d3c70d" points="601.62,-329 835.62,-329"/>
<text text-anchor="middle" x="646.75" y="-311.7" font-family="Times,serif" font-size="14.00" fill="#000000">Left</text>
<text text-anchor="middle" x="646.75" y="-295.2" font-family="Times,serif" font-size="14.00" fill="#000000">*</text>
<text text-anchor="middle" x="646.75" y="-278.7" font-family="Times,serif" font-size="14.00" fill="#000000">0x103d00790</text>
<polyline fill="none" stroke="#d3c70d" points="691.88,-271.5 691.88,-329"/>
<text text-anchor="middle" x="737" y="-311.7" font-family="Times,serif" font-size="14.00" fill="#000000">Parent</text>
<text text-anchor="middle" x="737" y="-295.2" font-family="Times,serif" font-size="14.00" fill="#000000">*</text>
<text text-anchor="middle" x="737" y="-278.7" font-family="Times,serif" font-size="14.00" fill="#000000">0x103d00550</text>
<polyline fill="none" stroke="#d3c70d" points="782.12,-271.5 782.12,-329"/>
<text text-anchor="middle" x="808.88" y="-311.7" font-family="Times,serif" font-size="14.00" fill="#000000">Right</text>
<text text-anchor="middle" x="808.88" y="-295.2" font-family="Times,serif" font-size="14.00" fill="#000000">NONE</text>
<text text-anchor="middle" x="808.88" y="-278.7" font-family="Times,serif" font-size="14.00" fill="#000000">0x0</text>
</g>
<!-- node0x103d00550&#45;&gt;node0x103d00750 -->
<g id="edge8" class="edge">
<title>node0x103d00550:left&#45;&gt;node0x103d00750</title>
<path fill="none" stroke="#187ae8" stroke-width="2" d="M728.38,-406.5C728.38,-398.46 727.94,-390.01 727.24,-381.7"/>
<polygon fill="#187ae8" stroke="#187ae8" stroke-width="2" points="730.9,-383.12 726.45,-373.5 723.93,-383.79 730.9,-383.12"/>
</g>
<!-- node0x103d00590 -->
<g id="node15" class="node">
<title>node0x103d00590</title>
<path fill="#fbee21" stroke="#d3c70d" d="M1018.25,-271.5C1018.25,-271.5 1265,-271.5 1265,-271.5 1271,-271.5 1277,-277.5 1277,-283.5 1277,-283.5 1277,-358 1277,-358 1277,-364 1271,-370 1265,-370 1265,-370 1018.25,-370 1018.25,-370 1012.25,-370 1006.25,-364 1006.25,-358 1006.25,-358 1006.25,-283.5 1006.25,-283.5 1006.25,-277.5 1012.25,-271.5 1018.25,-271.5"/>
<text text-anchor="middle" x="1141.62" y="-352.7" font-family="Times,serif" font-size="14.00" fill="#000000">+</text>
<text text-anchor="middle" x="1141.62" y="-336.2" font-family="Times,serif" font-size="14.00" fill="#000000">0x103d00590</text>
<polyline fill="none" stroke="#d3c70d" points="1006.25,-329 1277,-329"/>
<text text-anchor="middle" x="1051.38" y="-311.7" font-family="Times,serif" font-size="14.00" fill="#000000">Left</text>
<text text-anchor="middle" x="1051.38" y="-295.2" font-family="Times,serif" font-size="14.00" fill="#000000">*</text>
<text text-anchor="middle" x="1051.38" y="-278.7" font-family="Times,serif" font-size="14.00" fill="#000000">0x103d00690</text>
<polyline fill="none" stroke="#d3c70d" points="1096.5,-271.5 1096.5,-329"/>
<text text-anchor="middle" x="1141.62" y="-311.7" font-family="Times,serif" font-size="14.00" fill="#000000">Parent</text>
<text text-anchor="middle" x="1141.62" y="-295.2" font-family="Times,serif" font-size="14.00" fill="#000000">*</text>
<text text-anchor="middle" x="1141.62" y="-278.7" font-family="Times,serif" font-size="14.00" fill="#000000">0x103d00550</text>
<polyline fill="none" stroke="#d3c70d" points="1186.75,-271.5 1186.75,-329"/>
<text text-anchor="middle" x="1231.88" y="-311.7" font-family="Times,serif" font-size="14.00" fill="#000000">Right</text>
<text text-anchor="middle" x="1231.88" y="-295.2" font-family="Times,serif" font-size="14.00" fill="#000000">*</text>
<text text-anchor="middle" x="1231.88" y="-278.7" font-family="Times,serif" font-size="14.00" fill="#000000">0x103d005d0</text>
</g>
<!-- node0x103d00550&#45;&gt;node0x103d00590 -->
<g id="edge18" class="edge">
<title>node0x103d00550:right&#45;&gt;node0x103d00590</title>
<path fill="none" stroke="#48e818" stroke-width="2" d="M955,-435.75C1004.18,-435.75 1051.36,-406.57 1085.99,-377.73"/>
<polygon fill="#48e818" stroke="#48e818" stroke-width="2" points="1086.9,-381.56 1092.21,-372.4 1082.34,-376.25 1086.9,-381.56"/>
</g>
<!-- node0x103d00790 -->
<g id="node12" class="node">
<title>node0x103d00790</title>
<path fill="#fbee21" stroke="#d3c70d" d="M515.25,-136C515.25,-136 762,-136 762,-136 768,-136 774,-142 774,-148 774,-148 774,-222.5 774,-222.5 774,-228.5 768,-234.5 762,-234.5 762,-234.5 515.25,-234.5 515.25,-234.5 509.25,-234.5 503.25,-228.5 503.25,-222.5 503.25,-222.5 503.25,-148 503.25,-148 503.25,-142 509.25,-136 515.25,-136"/>
<text text-anchor="middle" x="638.62" y="-217.2" font-family="Times,serif" font-size="14.00" fill="#000000">*</text>
<text text-anchor="middle" x="638.62" y="-200.7" font-family="Times,serif" font-size="14.00" fill="#000000">0x103d00790</text>
<polyline fill="none" stroke="#d3c70d" points="503.25,-193.5 774,-193.5"/>
<text text-anchor="middle" x="548.38" y="-176.2" font-family="Times,serif" font-size="14.00" fill="#000000">Left</text>
<text text-anchor="middle" x="548.38" y="-159.7" font-family="Times,serif" font-size="14.00" fill="#000000">x</text>
<text text-anchor="middle" x="548.38" y="-143.2" font-family="Times,serif" font-size="14.00" fill="#000000">0x103d00810</text>
<polyline fill="none" stroke="#d3c70d" points="593.5,-136 593.5,-193.5"/>
<text text-anchor="middle" x="638.62" y="-176.2" font-family="Times,serif" font-size="14.00" fill="#000000">Parent</text>
<text text-anchor="middle" x="638.62" y="-159.7" font-family="Times,serif" font-size="14.00" fill="#000000">exp</text>
<text text-anchor="middle" x="638.62" y="-143.2" font-family="Times,serif" font-size="14.00" fill="#000000">0x103d00750</text>
<polyline fill="none" stroke="#d3c70d" points="683.75,-136 683.75,-193.5"/>
<text text-anchor="middle" x="728.88" y="-176.2" font-family="Times,serif" font-size="14.00" fill="#000000">Right</text>
<text text-anchor="middle" x="728.88" y="-159.7" font-family="Times,serif" font-size="14.00" fill="#000000">2</text>
<text text-anchor="middle" x="728.88" y="-143.2" font-family="Times,serif" font-size="14.00" fill="#000000">0x103d007d0</text>
</g>
<!-- node0x103d00750&#45;&gt;node0x103d00790 -->
<g id="edge9" class="edge">
<title>node0x103d00750:left&#45;&gt;node0x103d00790</title>
<path fill="none" stroke="#187ae8" stroke-width="2" d="M646.75,-271C646.75,-262.87 646.37,-254.32 645.79,-245.91"/>
<polygon fill="#187ae8" stroke="#187ae8" stroke-width="2" points="649.41,-247.28 645.11,-237.59 642.43,-247.84 649.41,-247.28"/>
</g>
<!-- node0x103d00810 -->
<g id="node13" class="node">
<title>node0x103d00810</title>
<path fill="#d5cfe1" stroke="#8797b2" d="M427,-0.5C427,-0.5 600.25,-0.5 600.25,-0.5 606.25,-0.5 612.25,-6.5 612.25,-12.5 612.25,-12.5 612.25,-87 612.25,-87 612.25,-93 606.25,-99 600.25,-99 600.25,-99 427,-99 427,-99 421,-99 415,-93 415,-87 415,-87 415,-12.5 415,-12.5 415,-6.5 421,-0.5 427,-0.5"/>
<text text-anchor="middle" x="513.62" y="-81.7" font-family="Times,serif" font-size="14.00" fill="#000000">x</text>
<text text-anchor="middle" x="513.62" y="-65.2" font-family="Times,serif" font-size="14.00" fill="#000000">0x103d00810</text>
<polyline fill="none" stroke="#8797b2" points="415,-58 612.25,-58"/>
<text text-anchor="middle" x="441.75" y="-40.7" font-family="Times,serif" font-size="14.00" fill="#000000">Left</text>
<text text-anchor="middle" x="441.75" y="-24.2" font-family="Times,serif" font-size="14.00" fill="#000000">NONE</text>
<text text-anchor="middle" x="441.75" y="-7.7" font-family="Times,serif" font-size="14.00" fill="#000000">0x0</text>
<polyline fill="none" stroke="#8797b2" points="468.5,-0.5 468.5,-58"/>
<text text-anchor="middle" x="513.62" y="-40.7" font-family="Times,serif" font-size="14.00" fill="#000000">Parent</text>
<text text-anchor="middle" x="513.62" y="-24.2" font-family="Times,serif" font-size="14.00" fill="#000000">*</text>
<text text-anchor="middle" x="513.62" y="-7.7" font-family="Times,serif" font-size="14.00" fill="#000000">0x103d00790</text>
<polyline fill="none" stroke="#8797b2" points="558.75,-0.5 558.75,-58"/>
<text text-anchor="middle" x="585.5" y="-40.7" font-family="Times,serif" font-size="14.00" fill="#000000">Right</text>
<text text-anchor="middle" x="585.5" y="-24.2" font-family="Times,serif" font-size="14.00" fill="#000000">NONE</text>
<text text-anchor="middle" x="585.5" y="-7.7" font-family="Times,serif" font-size="14.00" fill="#000000">0x0</text>
</g>
<!-- node0x103d00790&#45;&gt;node0x103d00810 -->
<g id="edge10" class="edge">
<title>node0x103d00790:left&#45;&gt;node0x103d00810</title>
<path fill="none" stroke="#187ae8" stroke-width="2" d="M548.38,-135.5C548.38,-126.99 546.86,-118.33 544.45,-109.95"/>
<polygon fill="#187ae8" stroke="#187ae8" stroke-width="2" points="548.29,-110.39 541.8,-102.02 541.65,-112.62 548.29,-110.39"/>
</g>
<!-- node0x103d007d0 -->
<g id="node14" class="node">
<title>node0x103d007d0</title>
<path fill="#bdef9e" stroke="#99c2a2" d="M642,-0.5C642,-0.5 815.25,-0.5 815.25,-0.5 821.25,-0.5 827.25,-6.5 827.25,-12.5 827.25,-12.5 827.25,-87 827.25,-87 827.25,-93 821.25,-99 815.25,-99 815.25,-99 642,-99 642,-99 636,-99 630,-93 630,-87 630,-87 630,-12.5 630,-12.5 630,-6.5 636,-0.5 642,-0.5"/>
<text text-anchor="middle" x="728.62" y="-81.7" font-family="Times,serif" font-size="14.00" fill="#000000">2</text>
<text text-anchor="middle" x="728.62" y="-65.2" font-family="Times,serif" font-size="14.00" fill="#000000">0x103d007d0</text>
<polyline fill="none" stroke="#99c2a2" points="630,-58 827.25,-58"/>
<text text-anchor="middle" x="656.75" y="-40.7" font-family="Times,serif" font-size="14.00" fill="#000000">Left</text>
<text text-anchor="middle" x="656.75" y="-24.2" font-family="Times,serif" font-size="14.00" fill="#000000">NONE</text>
<text text-anchor="middle" x="656.75" y="-7.7" font-family="Times,serif" font-size="14.00" fill="#000000">0x0</text>
<polyline fill="none" stroke="#99c2a2" points="683.5,-0.5 683.5,-58"/>
<text text-anchor="middle" x="728.62" y="-40.7" font-family="Times,serif" font-size="14.00" fill="#000000">Parent</text>
<text text-anchor="middle" x="728.62" y="-24.2" font-family="Times,serif" font-size="14.00" fill="#000000">*</text>
<text text-anchor="middle" x="728.62" y="-7.7" font-family="Times,serif" font-size="14.00" fill="#000000">0x103d00790</text>
<polyline fill="none" stroke="#99c2a2" points="773.75,-0.5 773.75,-58"/>
<text text-anchor="middle" x="800.5" y="-40.7" font-family="Times,serif" font-size="14.00" fill="#000000">Right</text>
<text text-anchor="middle" x="800.5" y="-24.2" font-family="Times,serif" font-size="14.00" fill="#000000">NONE</text>
<text text-anchor="middle" x="800.5" y="-7.7" font-family="Times,serif" font-size="14.00" fill="#000000">0x0</text>
</g>
<!-- node0x103d00790&#45;&gt;node0x103d007d0 -->
<g id="edge11" class="edge">
<title>node0x103d00790:right&#45;&gt;node0x103d007d0</title>
<path fill="none" stroke="#48e818" stroke-width="2" d="M728.88,-135.5C728.88,-127.41 728.86,-118.88 728.85,-110.48"/>
<polygon fill="#48e818" stroke="#48e818" stroke-width="2" points="732.35,-112.17 728.82,-102.18 725.35,-112.19 732.35,-112.17"/>
</g>
<!-- node0x103d00690 -->
<g id="node16" class="node">
<title>node0x103d00690</title>
<path fill="#fbee21" stroke="#d3c70d" d="M928.25,-136C928.25,-136 1175,-136 1175,-136 1181,-136 1187,-142 1187,-148 1187,-148 1187,-222.5 1187,-222.5 1187,-228.5 1181,-234.5 1175,-234.5 1175,-234.5 928.25,-234.5 928.25,-234.5 922.25,-234.5 916.25,-228.5 916.25,-222.5 916.25,-222.5 916.25,-148 916.25,-148 916.25,-142 922.25,-136 928.25,-136"/>
<text text-anchor="middle" x="1051.62" y="-217.2" font-family="Times,serif" font-size="14.00" fill="#000000">*</text>
<text text-anchor="middle" x="1051.62" y="-200.7" font-family="Times,serif" font-size="14.00" fill="#000000">0x103d00690</text>
<polyline fill="none" stroke="#d3c70d" points="916.25,-193.5 1187,-193.5"/>
<text text-anchor="middle" x="961.38" y="-176.2" font-family="Times,serif" font-size="14.00" fill="#000000">Left</text>
<text text-anchor="middle" x="961.38" y="-159.7" font-family="Times,serif" font-size="14.00" fill="#000000">1</text>
<text text-anchor="middle" x="961.38" y="-143.2" font-family="Times,serif" font-size="14.00" fill="#000000">0x103d00710</text>
<polyline fill="none" stroke="#d3c70d" points="1006.5,-136 1006.5,-193.5"/>
<text text-anchor="middle" x="1051.62" y="-176.2" font-family="Times,serif" font-size="14.00" fill="#000000">Parent</text>
<text text-anchor="middle" x="1051.62" y="-159.7" font-family="Times,serif" font-size="14.00" fill="#000000">+</text>
<text text-anchor="middle" x="1051.62" y="-143.2" font-family="Times,serif" font-size="14.00" fill="#000000">0x103d00590</text>
<polyline fill="none" stroke="#d3c70d" points="1096.75,-136 1096.75,-193.5"/>
<text text-anchor="middle" x="1141.88" y="-176.2" font-family="Times,serif" font-size="14.00" fill="#000000">Right</text>
<text text-anchor="middle" x="1141.88" y="-159.7" font-family="Times,serif" font-size="14.00" fill="#000000">2</text>
<text text-anchor="middle" x="1141.88" y="-143.2" font-family="Times,serif" font-size="14.00" fill="#000000">0x103d006d0</text>
</g>
<!-- node0x103d00590&#45;&gt;node0x103d00690 -->
<g id="edge12" class="edge">
<title>node0x103d00590:left&#45;&gt;node0x103d00690</title>
<path fill="none" stroke="#187ae8" stroke-width="2" d="M1051.38,-271C1051.38,-262.91 1051.39,-254.38 1051.4,-245.98"/>
<polygon fill="#187ae8" stroke="#187ae8" stroke-width="2" points="1054.9,-247.69 1051.43,-237.68 1047.9,-247.67 1054.9,-247.69"/>
</g>
<!-- node0x103d005d0 -->
<g id="node19" class="node">
<title>node0x103d005d0</title>
<path fill="#fbee21" stroke="#d3c70d" d="M1340.25,-136C1340.25,-136 1587,-136 1587,-136 1593,-136 1599,-142 1599,-148 1599,-148 1599,-222.5 1599,-222.5 1599,-228.5 1593,-234.5 1587,-234.5 1587,-234.5 1340.25,-234.5 1340.25,-234.5 1334.25,-234.5 1328.25,-228.5 1328.25,-222.5 1328.25,-222.5 1328.25,-148 1328.25,-148 1328.25,-142 1334.25,-136 1340.25,-136"/>
<text text-anchor="middle" x="1463.62" y="-217.2" font-family="Times,serif" font-size="14.00" fill="#000000">*</text>
<text text-anchor="middle" x="1463.62" y="-200.7" font-family="Times,serif" font-size="14.00" fill="#000000">0x103d005d0</text>
<polyline fill="none" stroke="#d3c70d" points="1328.25,-193.5 1599,-193.5"/>
<text text-anchor="middle" x="1373.38" y="-176.2" font-family="Times,serif" font-size="14.00" fill="#000000">Left</text>
<text text-anchor="middle" x="1373.38" y="-159.7" font-family="Times,serif" font-size="14.00" fill="#000000">x</text>
<text text-anchor="middle" x="1373.38" y="-143.2" font-family="Times,serif" font-size="14.00" fill="#000000">0x103d00650</text>
<polyline fill="none" stroke="#d3c70d" points="1418.5,-136 1418.5,-193.5"/>
<text text-anchor="middle" x="1463.62" y="-176.2" font-family="Times,serif" font-size="14.00" fill="#000000">Parent</text>
<text text-anchor="middle" x="1463.62" y="-159.7" font-family="Times,serif" font-size="14.00" fill="#000000">+</text>
<text text-anchor="middle" x="1463.62" y="-143.2" font-family="Times,serif" font-size="14.00" fill="#000000">0x103d00590</text>
<polyline fill="none" stroke="#d3c70d" points="1508.75,-136 1508.75,-193.5"/>
<text text-anchor="middle" x="1553.88" y="-176.2" font-family="Times,serif" font-size="14.00" fill="#000000">Right</text>
<text text-anchor="middle" x="1553.88" y="-159.7" font-family="Times,serif" font-size="14.00" fill="#000000">0</text>
<text text-anchor="middle" x="1553.88" y="-143.2" font-family="Times,serif" font-size="14.00" fill="#000000">0x103d00610</text>
</g>
<!-- node0x103d00590&#45;&gt;node0x103d005d0 -->
<g id="edge17" class="edge">
<title>node0x103d00590:right&#45;&gt;node0x103d005d0</title>
<path fill="none" stroke="#48e818" stroke-width="2" d="M1278,-300.25C1326.98,-300.25 1373.92,-271.07 1408.34,-242.23"/>
<polygon fill="#48e818" stroke="#48e818" stroke-width="2" points="1409.23,-246.08 1414.52,-236.9 1404.66,-240.78 1409.23,-246.08"/>
</g>
<!-- node0x103d00710 -->
<g id="node17" class="node">
<title>node0x103d00710</title>
<path fill="#bdef9e" stroke="#99c2a2" d="M857,-0.5C857,-0.5 1030.25,-0.5 1030.25,-0.5 1036.25,-0.5 1042.25,-6.5 1042.25,-12.5 1042.25,-12.5 1042.25,-87 1042.25,-87 1042.25,-93 1036.25,-99 1030.25,-99 1030.25,-99 857,-99 857,-99 851,-99 845,-93 845,-87 845,-87 845,-12.5 845,-12.5 845,-6.5 851,-0.5 857,-0.5"/>
<text text-anchor="middle" x="943.62" y="-81.7" font-family="Times,serif" font-size="14.00" fill="#000000">1</text>
<text text-anchor="middle" x="943.62" y="-65.2" font-family="Times,serif" font-size="14.00" fill="#000000">0x103d00710</text>
<polyline fill="none" stroke="#99c2a2" points="845,-58 1042.25,-58"/>
<text text-anchor="middle" x="871.75" y="-40.7" font-family="Times,serif" font-size="14.00" fill="#000000">Left</text>
<text text-anchor="middle" x="871.75" y="-24.2" font-family="Times,serif" font-size="14.00" fill="#000000">NONE</text>
<text text-anchor="middle" x="871.75" y="-7.7" font-family="Times,serif" font-size="14.00" fill="#000000">0x0</text>
<polyline fill="none" stroke="#99c2a2" points="898.5,-0.5 898.5,-58"/>
<text text-anchor="middle" x="943.62" y="-40.7" font-family="Times,serif" font-size="14.00" fill="#000000">Parent</text>
<text text-anchor="middle" x="943.62" y="-24.2" font-family="Times,serif" font-size="14.00" fill="#000000">*</text>
<text text-anchor="middle" x="943.62" y="-7.7" font-family="Times,serif" font-size="14.00" fill="#000000">0x103d00690</text>
<polyline fill="none" stroke="#99c2a2" points="988.75,-0.5 988.75,-58"/>
<text text-anchor="middle" x="1015.5" y="-40.7" font-family="Times,serif" font-size="14.00" fill="#000000">Right</text>
<text text-anchor="middle" x="1015.5" y="-24.2" font-family="Times,serif" font-size="14.00" fill="#000000">NONE</text>
<text text-anchor="middle" x="1015.5" y="-7.7" font-family="Times,serif" font-size="14.00" fill="#000000">0x0</text>
</g>
<!-- node0x103d00690&#45;&gt;node0x103d00710 -->
<g id="edge13" class="edge">
<title>node0x103d00690:left&#45;&gt;node0x103d00710</title>
<path fill="none" stroke="#187ae8" stroke-width="2" d="M961.38,-135.5C961.38,-127.34 960.58,-118.82 959.32,-110.47"/>
<polygon fill="#187ae8" stroke="#187ae8" stroke-width="2" points="963.04,-111.46 957.87,-102.22 956.15,-112.67 963.04,-111.46"/>
</g>
<!-- node0x103d006d0 -->
<g id="node18" class="node">
<title>node0x103d006d0</title>
<path fill="#bdef9e" stroke="#99c2a2" d="M1072,-0.5C1072,-0.5 1245.25,-0.5 1245.25,-0.5 1251.25,-0.5 1257.25,-6.5 1257.25,-12.5 1257.25,-12.5 1257.25,-87 1257.25,-87 1257.25,-93 1251.25,-99 1245.25,-99 1245.25,-99 1072,-99 1072,-99 1066,-99 1060,-93 1060,-87 1060,-87 1060,-12.5 1060,-12.5 1060,-6.5 1066,-0.5 1072,-0.5"/>
<text text-anchor="middle" x="1158.62" y="-81.7" font-family="Times,serif" font-size="14.00" fill="#000000">2</text>
<text text-anchor="middle" x="1158.62" y="-65.2" font-family="Times,serif" font-size="14.00" fill="#000000">0x103d006d0</text>
<polyline fill="none" stroke="#99c2a2" points="1060,-58 1257.25,-58"/>
<text text-anchor="middle" x="1086.75" y="-40.7" font-family="Times,serif" font-size="14.00" fill="#000000">Left</text>
<text text-anchor="middle" x="1086.75" y="-24.2" font-family="Times,serif" font-size="14.00" fill="#000000">NONE</text>
<text text-anchor="middle" x="1086.75" y="-7.7" font-family="Times,serif" font-size="14.00" fill="#000000">0x0</text>
<polyline fill="none" stroke="#99c2a2" points="1113.5,-0.5 1113.5,-58"/>
<text text-anchor="middle" x="1158.62" y="-40.7" font-family="Times,serif" font-size="14.00" fill="#000000">Parent</text>
<text text-anchor="middle" x="1158.62" y="-24.2" font-family="Times,serif" font-size="14.00" fill="#000000">*</text>
<text text-anchor="middle" x="1158.62" y="-7.7" font-family="Times,serif" font-size="14.00" fill="#000000">0x103d00690</text>
<polyline fill="none" stroke="#99c2a2" points="1203.75,-0.5 1203.75,-58"/>
<text text-anchor="middle" x="1230.5" y="-40.7" font-family="Times,serif" font-size="14.00" fill="#000000">Right</text>
<text text-anchor="middle" x="1230.5" y="-24.2" font-family="Times,serif" font-size="14.00" fill="#000000">NONE</text>
<text text-anchor="middle" x="1230.5" y="-7.7" font-family="Times,serif" font-size="14.00" fill="#000000">0x0</text>
</g>
<!-- node0x103d00690&#45;&gt;node0x103d006d0 -->
<g id="edge14" class="edge">
<title>node0x103d00690:right&#45;&gt;node0x103d006d0</title>
<path fill="none" stroke="#48e818" stroke-width="2" d="M1141.88,-135.5C1141.88,-127.35 1142.63,-118.85 1143.82,-110.51"/>
<polygon fill="#48e818" stroke="#48e818" stroke-width="2" points="1147,-112.7 1145.18,-102.26 1140.1,-111.56 1147,-112.7"/>
</g>
<!-- node0x103d00650 -->
<g id="node20" class="node">
<title>node0x103d00650</title>
<path fill="#d5cfe1" stroke="#8797b2" d="M1287,-0.5C1287,-0.5 1460.25,-0.5 1460.25,-0.5 1466.25,-0.5 1472.25,-6.5 1472.25,-12.5 1472.25,-12.5 1472.25,-87 1472.25,-87 1472.25,-93 1466.25,-99 1460.25,-99 1460.25,-99 1287,-99 1287,-99 1281,-99 1275,-93 1275,-87 1275,-87 1275,-12.5 1275,-12.5 1275,-6.5 1281,-0.5 1287,-0.5"/>
<text text-anchor="middle" x="1373.62" y="-81.7" font-family="Times,serif" font-size="14.00" fill="#000000">x</text>
<text text-anchor="middle" x="1373.62" y="-65.2" font-family="Times,serif" font-size="14.00" fill="#000000">0x103d00650</text>
<polyline fill="none" stroke="#8797b2" points="1275,-58 1472.25,-58"/>
<text text-anchor="middle" x="1301.75" y="-40.7" font-family="Times,serif" font-size="14.00" fill="#000000">Left</text>
<text text-anchor="middle" x="1301.75" y="-24.2" font-family="Times,serif" font-size="14.00" fill="#000000">NONE</text>
<text text-anchor="middle" x="1301.75" y="-7.7" font-family="Times,serif" font-size="14.00" fill="#000000">0x0</text>
<polyline fill="none" stroke="#8797b2" points="1328.5,-0.5 1328.5,-58"/>
<text text-anchor="middle" x="1373.62" y="-40.7" font-family="Times,serif" font-size="14.00" fill="#000000">Parent</text>
<text text-anchor="middle" x="1373.62" y="-24.2" font-family="Times,serif" font-size="14.00" fill="#000000">*</text>
<text text-anchor="middle" x="1373.62" y="-7.7" font-family="Times,serif" font-size="14.00" fill="#000000">0x103d005d0</text>
<polyline fill="none" stroke="#8797b2" points="1418.75,-0.5 1418.75,-58"/>
<text text-anchor="middle" x="1445.5" y="-40.7" font-family="Times,serif" font-size="14.00" fill="#000000">Right</text>
<text text-anchor="middle" x="1445.5" y="-24.2" font-family="Times,serif" font-size="14.00" fill="#000000">NONE</text>
<text text-anchor="middle" x="1445.5" y="-7.7" font-family="Times,serif" font-size="14.00" fill="#000000">0x0</text>
</g>
<!-- node0x103d005d0&#45;&gt;node0x103d00650 -->
<g id="edge15" class="edge">
<title>node0x103d005d0:left&#45;&gt;node0x103d00650</title>
<path fill="none" stroke="#187ae8" stroke-width="2" d="M1373.38,-135.5C1373.38,-127.41 1373.39,-118.88 1373.4,-110.48"/>
<polygon fill="#187ae8" stroke="#187ae8" stroke-width="2" points="1376.9,-112.19 1373.43,-102.18 1369.9,-112.17 1376.9,-112.19"/>
</g>
<!-- node0x103d00610 -->
<g id="node21" class="node">
<title>node0x103d00610</title>
<path fill="#bdef9e" stroke="#99c2a2" d="M1502,-0.5C1502,-0.5 1675.25,-0.5 1675.25,-0.5 1681.25,-0.5 1687.25,-6.5 1687.25,-12.5 1687.25,-12.5 1687.25,-87 1687.25,-87 1687.25,-93 1681.25,-99 1675.25,-99 1675.25,-99 1502,-99 1502,-99 1496,-99 1490,-93 1490,-87 1490,-87 1490,-12.5 1490,-12.5 1490,-6.5 1496,-0.5 1502,-0.5"/>
<text text-anchor="middle" x="1588.62" y="-81.7" font-family="Times,serif" font-size="14.00" fill="#000000">0</text>
<text text-anchor="middle" x="1588.62" y="-65.2" font-family="Times,serif" font-size="14.00" fill="#000000">0x103d00610</text>
<polyline fill="none" stroke="#99c2a2" points="1490,-58 1687.25,-58"/>
<text text-anchor="middle" x="1516.75" y="-40.7" font-family="Times,serif" font-size="14.00" fill="#000000">Left</text>
<text text-anchor="middle" x="1516.75" y="-24.2" font-family="Times,serif" font-size="14.00" fill="#000000">NONE</text>
<text text-anchor="middle" x="1516.75" y="-7.7" font-family="Times,serif" font-size="14.00" fill="#000000">0x0</text>
<polyline fill="none" stroke="#99c2a2" points="1543.5,-0.5 1543.5,-58"/>
<text text-anchor="middle" x="1588.62" y="-40.7" font-family="Times,serif" font-size="14.00" fill="#000000">Parent</text>
<text text-anchor="middle" x="1588.62" y="-24.2" font-family="Times,serif" font-size="14.00" fill="#000000">*</text>
<text text-anchor="middle" x="1588.62" y="-7.7" font-family="Times,serif" font-size="14.00" fill="#000000">0x103d005d0</text>
<polyline fill="none" stroke="#99c2a2" points="1633.75,-0.5 1633.75,-58"/>
<text text-anchor="middle" x="1660.5" y="-40.7" font-family="Times,serif" font-size="14.00" fill="#000000">Right</text>
<text text-anchor="middle" x="1660.5" y="-24.2" font-family="Times,serif" font-size="14.00" fill="#000000">NONE</text>
<text text-anchor="middle" x="1660.5" y="-7.7" font-family="Times,serif" font-size="14.00" fill="#000000">0x0</text>
</g>
<!-- node0x103d005d0&#45;&gt;node0x103d00610 -->
<g id="edge16" class="edge">
<title>node0x103d005d0:right&#45;&gt;node0x103d00610</title>
<path fill="none" stroke="#48e818" stroke-width="2" d="M1553.88,-135.5C1553.88,-126.99 1555.39,-118.33 1557.8,-109.95"/>
<polygon fill="#48e818" stroke="#48e818" stroke-width="2" points="1560.6,-112.62 1560.45,-102.02 1553.96,-110.39 1560.6,-112.62"/>
</g>
</g>
</svg>
