<?xml version="1.0" encoding="UTF-8" standalone="no"?>
<!DOCTYPE svg PUBLIC "-//W3C//DTD SVG 1.1//EN"
 "http://www.w3.org/Graphics/SVG/1.1/DTD/svg11.dtd">
<!-- Generated by graphviz version 12.2.0 (20241103.1931)
 -->
<!-- Pages: 1 -->
<svg width="716pt" height="785pt"
 viewBox="0.00 0.00 716.25 785.00" xmlns="http://www.w3.org/2000/svg" xmlns:xlink="http://www.w3.org/1999/xlink">
<g id="graph0" class="graph" transform="scale(1 1) rotate(0) translate(4 781)">
<polygon fill="#dcdcdc" stroke="none" points="-4,4 -4,-781 712.25,-781 712.25,4 -4,4"/>
<!-- node0x1034008d0 -->
<g id="node1" class="node">
<title>node0x1034008d0</title>
<path fill="#fbee21" stroke="#d3c70d" d="M245.62,-678C245.62,-678 455.62,-678 455.62,-678 461.62,-678 467.62,-684 467.62,-690 467.62,-690 467.62,-764.5 467.62,-764.5 467.62,-770.5 461.62,-776.5 455.62,-776.5 455.62,-776.5 245.62,-776.5 245.62,-776.5 239.62,-776.5 233.62,-770.5 233.62,-764.5 233.62,-764.5 233.62,-690 233.62,-690 233.62,-684 239.62,-678 245.62,-678"/>
<text text-anchor="middle" x="350.62" y="-759.2" font-family="Times,serif" font-size="14.00" fill="#000000">*</text>
<text text-anchor="middle" x="350.62" y="-742.7" font-family="Times,serif" font-size="14.00" fill="#000000">0x1034008d0</text>
<polyline fill="none" stroke="#d3c70d" points="233.62,-735.5 467.62,-735.5"/>
<text text-anchor="middle" x="278.75" y="-718.2" font-family="Times,serif" font-size="14.00" fill="#000000">Left</text>
<text text-anchor="middle" x="278.75" y="-701.7" font-family="Times,serif" font-size="14.00" fill="#000000">+</text>
<text text-anchor="middle" x="278.75" y="-685.2" font-family="Times,serif" font-size="14.00" fill="#000000">0x103400950</text>
<polyline fill="none" stroke="#d3c70d" points="323.88,-678 323.88,-735.5"/>
<text text-anchor="middle" x="350.62" y="-718.2" font-family="Times,serif" font-size="14.00" fill="#000000">Parent</text>
<text text-anchor="middle" x="350.62" y="-701.7" font-family="Times,serif" font-size="14.00" fill="#000000">NONE</text>
<text text-anchor="middle" x="350.62" y="-685.2" font-family="Times,serif" font-size="14.00" fill="#000000">0x0</text>
<polyline fill="none" stroke="#d3c70d" points="377.38,-678 377.38,-735.5"/>
<text text-anchor="middle" x="422.5" y="-718.2" font-family="Times,serif" font-size="14.00" fill="#000000">Right</text>
<text text-anchor="middle" x="422.5" y="-701.7" font-family="Times,serif" font-size="14.00" fill="#000000">x</text>
<text text-anchor="middle" x="422.5" y="-685.2" font-family="Times,serif" font-size="14.00" fill="#000000">0x103400910</text>
</g>
<!-- node0x103400950 -->
<g id="node2" class="node">
<title>node0x103400950</title>
<path fill="#fbee21" stroke="#d3c70d" d="M101.25,-542.5C101.25,-542.5 348,-542.5 348,-542.5 354,-542.5 360,-548.5 360,-554.5 360,-554.5 360,-629 360,-629 360,-635 354,-641 348,-641 348,-641 101.25,-641 101.25,-641 95.25,-641 89.25,-635 89.25,-629 89.25,-629 89.25,-554.5 89.25,-554.5 89.25,-548.5 95.25,-542.5 101.25,-542.5"/>
<text text-anchor="middle" x="224.62" y="-623.7" font-family="Times,serif" font-size="14.00" fill="#000000">+</text>
<text text-anchor="middle" x="224.62" y="-607.2" font-family="Times,serif" font-size="14.00" fill="#000000">0x103400950</text>
<polyline fill="none" stroke="#d3c70d" points="89.25,-600 360,-600"/>
<text text-anchor="middle" x="134.38" y="-582.7" font-family="Times,serif" font-size="14.00" fill="#000000">Left</text>
<text text-anchor="middle" x="134.38" y="-566.2" font-family="Times,serif" font-size="14.00" fill="#000000">1</text>
<text text-anchor="middle" x="134.38" y="-549.7" font-family="Times,serif" font-size="14.00" fill="#000000">0x103400b10</text>
<polyline fill="none" stroke="#d3c70d" points="179.5,-542.5 179.5,-600"/>
<text text-anchor="middle" x="224.62" y="-582.7" font-family="Times,serif" font-size="14.00" fill="#000000">Parent</text>
<text text-anchor="middle" x="224.62" y="-566.2" font-family="Times,serif" font-size="14.00" fill="#000000">*</text>
<text text-anchor="middle" x="224.62" y="-549.7" font-family="Times,serif" font-size="14.00" fill="#000000">0x1034008d0</text>
<polyline fill="none" stroke="#d3c70d" points="269.75,-542.5 269.75,-600"/>
<text text-anchor="middle" x="314.88" y="-582.7" font-family="Times,serif" font-size="14.00" fill="#000000">Right</text>
<text text-anchor="middle" x="314.88" y="-566.2" font-family="Times,serif" font-size="14.00" fill="#000000">^</text>
<text text-anchor="middle" x="314.88" y="-549.7" font-family="Times,serif" font-size="14.00" fill="#000000">0x103400990</text>
</g>
<!-- node0x1034008d0&#45;&gt;node0x103400950 -->
<g id="edge1" class="edge">
<title>node0x1034008d0:left&#45;&gt;node0x103400950</title>
<path fill="none" stroke="#187ae8" stroke-width="2" d="M278.75,-677.5C278.75,-668.54 276.57,-659.76 273.09,-651.46"/>
<polygon fill="#187ae8" stroke="#187ae8" stroke-width="2" points="276.95,-651.36 269.39,-643.94 270.67,-654.45 276.95,-651.36"/>
</g>
<!-- node0x103400910 -->
<g id="node10" class="node">
<title>node0x103400910</title>
<path fill="#d5cfe1" stroke="#8797b2" d="M390,-542.5C390,-542.5 563.25,-542.5 563.25,-542.5 569.25,-542.5 575.25,-548.5 575.25,-554.5 575.25,-554.5 575.25,-629 575.25,-629 575.25,-635 569.25,-641 563.25,-641 563.25,-641 390,-641 390,-641 384,-641 378,-635 378,-629 378,-629 378,-554.5 378,-554.5 378,-548.5 384,-542.5 390,-542.5"/>
<text text-anchor="middle" x="476.62" y="-623.7" font-family="Times,serif" font-size="14.00" fill="#000000">x</text>
<text text-anchor="middle" x="476.62" y="-607.2" font-family="Times,serif" font-size="14.00" fill="#000000">0x103400910</text>
<polyline fill="none" stroke="#8797b2" points="378,-600 575.25,-600"/>
<text text-anchor="middle" x="404.75" y="-582.7" font-family="Times,serif" font-size="14.00" fill="#000000">Left</text>
<text text-anchor="middle" x="404.75" y="-566.2" font-family="Times,serif" font-size="14.00" fill="#000000">NONE</text>
<text text-anchor="middle" x="404.75" y="-549.7" font-family="Times,serif" font-size="14.00" fill="#000000">0x0</text>
<polyline fill="none" stroke="#8797b2" points="431.5,-542.5 431.5,-600"/>
<text text-anchor="middle" x="476.62" y="-582.7" font-family="Times,serif" font-size="14.00" fill="#000000">Parent</text>
<text text-anchor="middle" x="476.62" y="-566.2" font-family="Times,serif" font-size="14.00" fill="#000000">*</text>
<text text-anchor="middle" x="476.62" y="-549.7" font-family="Times,serif" font-size="14.00" fill="#000000">0x1034008d0</text>
<polyline fill="none" stroke="#8797b2" points="521.75,-542.5 521.75,-600"/>
<text text-anchor="middle" x="548.5" y="-582.7" font-family="Times,serif" font-size="14.00" fill="#000000">Right</text>
<text text-anchor="middle" x="548.5" y="-566.2" font-family="Times,serif" font-size="14.00" fill="#000000">NONE</text>
<text text-anchor="middle" x="548.5" y="-549.7" font-family="Times,serif" font-size="14.00" fill="#000000">0x0</text>
</g>
<!-- node0x1034008d0&#45;&gt;node0x103400910 -->
<g id="edge9" class="edge">
<title>node0x1034008d0:right&#45;&gt;node0x103400910</title>
<path fill="none" stroke="#48e818" stroke-width="2" d="M422.5,-677.5C422.5,-668.54 424.68,-659.76 428.16,-651.46"/>
<polygon fill="#48e818" stroke="#48e818" stroke-width="2" points="430.58,-654.45 431.86,-643.94 424.3,-651.36 430.58,-654.45"/>
</g>
<!-- node0x103400b10 -->
<g id="node3" class="node">
<title>node0x103400b10</title>
<path fill="#bdef9e" stroke="#99c2a2" d="M12,-407C12,-407 185.25,-407 185.25,-407 191.25,-407 197.25,-413 197.25,-419 197.25,-419 197.25,-493.5 197.25,-493.5 197.25,-499.5 191.25,-505.5 185.25,-505.5 185.25,-505.5 12,-505.5 12,-505.5 6,-505.5 0,-499.5 0,-493.5 0,-493.5 0,-419 0,-419 0,-413 6,-407 12,-407"/>
<text text-anchor="middle" x="98.62" y="-488.2" font-family="Times,serif" font-size="14.00" fill="#000000">1</text>
<text text-anchor="middle" x="98.62" y="-471.7" font-family="Times,serif" font-size="14.00" fill="#000000">0x103400b10</text>
<polyline fill="none" stroke="#99c2a2" points="0,-464.5 197.25,-464.5"/>
<text text-anchor="middle" x="26.75" y="-447.2" font-family="Times,serif" font-size="14.00" fill="#000000">Left</text>
<text text-anchor="middle" x="26.75" y="-430.7" font-family="Times,serif" font-size="14.00" fill="#000000">NONE</text>
<text text-anchor="middle" x="26.75" y="-414.2" font-family="Times,serif" font-size="14.00" fill="#000000">0x0</text>
<polyline fill="none" stroke="#99c2a2" points="53.5,-407 53.5,-464.5"/>
<text text-anchor="middle" x="98.62" y="-447.2" font-family="Times,serif" font-size="14.00" fill="#000000">Parent</text>
<text text-anchor="middle" x="98.62" y="-430.7" font-family="Times,serif" font-size="14.00" fill="#000000">+</text>
<text text-anchor="middle" x="98.62" y="-414.2" font-family="Times,serif" font-size="14.00" fill="#000000">0x103400950</text>
<polyline fill="none" stroke="#99c2a2" points="143.75,-407 143.75,-464.5"/>
<text text-anchor="middle" x="170.5" y="-447.2" font-family="Times,serif" font-size="14.00" fill="#000000">Right</text>
<text text-anchor="middle" x="170.5" y="-430.7" font-family="Times,serif" font-size="14.00" fill="#000000">NONE</text>
<text text-anchor="middle" x="170.5" y="-414.2" font-family="Times,serif" font-size="14.00" fill="#000000">0x0</text>
</g>
<!-- node0x103400950&#45;&gt;node0x103400b10 -->
<g id="edge2" class="edge">
<title>node0x103400950:left&#45;&gt;node0x103400b10</title>
<path fill="none" stroke="#187ae8" stroke-width="2" d="M134.38,-542C134.38,-533.45 132.81,-524.77 130.34,-516.39"/>
<polygon fill="#187ae8" stroke="#187ae8" stroke-width="2" points="134.17,-516.75 127.6,-508.44 127.55,-519.03 134.17,-516.75"/>
</g>
<!-- node0x103400990 -->
<g id="node4" class="node">
<title>node0x103400990</title>
<path fill="#fbee21" stroke="#d3c70d" d="M227.62,-407C227.62,-407 473.62,-407 473.62,-407 479.62,-407 485.62,-413 485.62,-419 485.62,-419 485.62,-493.5 485.62,-493.5 485.62,-499.5 479.62,-505.5 473.62,-505.5 473.62,-505.5 227.62,-505.5 227.62,-505.5 221.62,-505.5 215.62,-499.5 215.62,-493.5 215.62,-493.5 215.62,-419 215.62,-419 215.62,-413 221.62,-407 227.62,-407"/>
<text text-anchor="middle" x="350.62" y="-488.2" font-family="Times,serif" font-size="14.00" fill="#000000">^</text>
<text text-anchor="middle" x="350.62" y="-471.7" font-family="Times,serif" font-size="14.00" fill="#000000">0x103400990</text>
<polyline fill="none" stroke="#d3c70d" points="215.62,-464.5 485.62,-464.5"/>
<text text-anchor="middle" x="260.38" y="-447.2" font-family="Times,serif" font-size="14.00" fill="#000000">Left</text>
<text text-anchor="middle" x="260.38" y="-430.7" font-family="Times,serif" font-size="14.00" fill="#000000">x</text>
<text text-anchor="middle" x="260.38" y="-414.2" font-family="Times,serif" font-size="14.00" fill="#000000">0x103400ad0</text>
<polyline fill="none" stroke="#d3c70d" points="305.12,-407 305.12,-464.5"/>
<text text-anchor="middle" x="350.25" y="-447.2" font-family="Times,serif" font-size="14.00" fill="#000000">Parent</text>
<text text-anchor="middle" x="350.25" y="-430.7" font-family="Times,serif" font-size="14.00" fill="#000000">+</text>
<text text-anchor="middle" x="350.25" y="-414.2" font-family="Times,serif" font-size="14.00" fill="#000000">0x103400950</text>
<polyline fill="none" stroke="#d3c70d" points="395.38,-407 395.38,-464.5"/>
<text text-anchor="middle" x="440.5" y="-447.2" font-family="Times,serif" font-size="14.00" fill="#000000">Right</text>
<text text-anchor="middle" x="440.5" y="-430.7" font-family="Times,serif" font-size="14.00" fill="#000000">+</text>
<text text-anchor="middle" x="440.5" y="-414.2" font-family="Times,serif" font-size="14.00" fill="#000000">0x1034009d0</text>
</g>
<!-- node0x103400950&#45;&gt;node0x103400990 -->
<g id="edge8" class="edge">
<title>node0x103400950:right&#45;&gt;node0x103400990</title>
<path fill="none" stroke="#48e818" stroke-width="2" d="M314.88,-542C314.88,-533.45 316.44,-524.77 318.91,-516.39"/>
<polygon fill="#48e818" stroke="#48e818" stroke-width="2" points="321.7,-519.03 321.65,-508.44 315.08,-516.75 321.7,-519.03"/>
</g>
<!-- node0x103400ad0 -->
<g id="node5" class="node">
<title>node0x103400ad0</title>
<path fill="#d5cfe1" stroke="#8797b2" d="M138,-271.5C138,-271.5 311.25,-271.5 311.25,-271.5 317.25,-271.5 323.25,-277.5 323.25,-283.5 323.25,-283.5 323.25,-358 323.25,-358 323.25,-364 317.25,-370 311.25,-370 311.25,-370 138,-370 138,-370 132,-370 126,-364 126,-358 126,-358 126,-283.5 126,-283.5 126,-277.5 132,-271.5 138,-271.5"/>
<text text-anchor="middle" x="224.62" y="-352.7" font-family="Times,serif" font-size="14.00" fill="#000000">x</text>
<text text-anchor="middle" x="224.62" y="-336.2" font-family="Times,serif" font-size="14.00" fill="#000000">0x103400ad0</text>
<polyline fill="none" stroke="#8797b2" points="126,-329 323.25,-329"/>
<text text-anchor="middle" x="152.75" y="-311.7" font-family="Times,serif" font-size="14.00" fill="#000000">Left</text>
<text text-anchor="middle" x="152.75" y="-295.2" font-family="Times,serif" font-size="14.00" fill="#000000">NONE</text>
<text text-anchor="middle" x="152.75" y="-278.7" font-family="Times,serif" font-size="14.00" fill="#000000">0x0</text>
<polyline fill="none" stroke="#8797b2" points="179.5,-271.5 179.5,-329"/>
<text text-anchor="middle" x="224.62" y="-311.7" font-family="Times,serif" font-size="14.00" fill="#000000">Parent</text>
<text text-anchor="middle" x="224.62" y="-295.2" font-family="Times,serif" font-size="14.00" fill="#000000">^</text>
<text text-anchor="middle" x="224.62" y="-278.7" font-family="Times,serif" font-size="14.00" fill="#000000">0x103400990</text>
<polyline fill="none" stroke="#8797b2" points="269.75,-271.5 269.75,-329"/>
<text text-anchor="middle" x="296.5" y="-311.7" font-family="Times,serif" font-size="14.00" fill="#000000">Right</text>
<text text-anchor="middle" x="296.5" y="-295.2" font-family="Times,serif" font-size="14.00" fill="#000000">NONE</text>
<text text-anchor="middle" x="296.5" y="-278.7" font-family="Times,serif" font-size="14.00" fill="#000000">0x0</text>
</g>
<!-- node0x103400990&#45;&gt;node0x103400ad0 -->
<g id="edge3" class="edge">
<title>node0x103400990:left&#45;&gt;node0x103400ad0</title>
<path fill="none" stroke="#187ae8" stroke-width="2" d="M260.38,-406.5C260.38,-397.95 258.81,-389.27 256.34,-380.89"/>
<polygon fill="#187ae8" stroke="#187ae8" stroke-width="2" points="260.17,-381.25 253.6,-372.94 253.55,-383.53 260.17,-381.25"/>
</g>
<!-- node0x1034009d0 -->
<g id="node6" class="node">
<title>node0x1034009d0</title>
<path fill="#fbee21" stroke="#d3c70d" d="M353,-271.5C353,-271.5 598.25,-271.5 598.25,-271.5 604.25,-271.5 610.25,-277.5 610.25,-283.5 610.25,-283.5 610.25,-358 610.25,-358 610.25,-364 604.25,-370 598.25,-370 598.25,-370 353,-370 353,-370 347,-370 341,-364 341,-358 341,-358 341,-283.5 341,-283.5 341,-277.5 347,-271.5 353,-271.5"/>
<text text-anchor="middle" x="475.62" y="-352.7" font-family="Times,serif" font-size="14.00" fill="#000000">+</text>
<text text-anchor="middle" x="475.62" y="-336.2" font-family="Times,serif" font-size="14.00" fill="#000000">0x1034009d0</text>
<polyline fill="none" stroke="#d3c70d" points="341,-329 610.25,-329"/>
<text text-anchor="middle" x="385.75" y="-311.7" font-family="Times,serif" font-size="14.00" fill="#000000">Left</text>
<text text-anchor="middle" x="385.75" y="-295.2" font-family="Times,serif" font-size="14.00" fill="#000000">x</text>
<text text-anchor="middle" x="385.75" y="-278.7" font-family="Times,serif" font-size="14.00" fill="#000000">0x103400a90</text>
<polyline fill="none" stroke="#d3c70d" points="430.5,-271.5 430.5,-329"/>
<text text-anchor="middle" x="475.62" y="-311.7" font-family="Times,serif" font-size="14.00" fill="#000000">Parent</text>
<text text-anchor="middle" x="475.62" y="-295.2" font-family="Times,serif" font-size="14.00" fill="#000000">^</text>
<text text-anchor="middle" x="475.62" y="-278.7" font-family="Times,serif" font-size="14.00" fill="#000000">0x103400990</text>
<polyline fill="none" stroke="#d3c70d" points="520.75,-271.5 520.75,-329"/>
<text text-anchor="middle" x="565.5" y="-311.7" font-family="Times,serif" font-size="14.00" fill="#000000">Right</text>
<text text-anchor="middle" x="565.5" y="-295.2" font-family="Times,serif" font-size="14.00" fill="#000000">sin</text>
<text text-anchor="middle" x="565.5" y="-278.7" font-family="Times,serif" font-size="14.00" fill="#000000">0x103400a10</text>
</g>
<!-- node0x103400990&#45;&gt;node0x1034009d0 -->
<g id="edge7" class="edge">
<title>node0x103400990:right&#45;&gt;node0x1034009d0</title>
<path fill="none" stroke="#48e818" stroke-width="2" d="M440.5,-406.5C440.5,-397.97 442.04,-389.31 444.47,-380.93"/>
<polygon fill="#48e818" stroke="#48e818" stroke-width="2" points="447.26,-383.58 447.15,-372.99 440.63,-381.34 447.26,-383.58"/>
</g>
<!-- node0x103400a90 -->
<g id="node7" class="node">
<title>node0x103400a90</title>
<path fill="#d5cfe1" stroke="#8797b2" d="M272,-136C272,-136 445.25,-136 445.25,-136 451.25,-136 457.25,-142 457.25,-148 457.25,-148 457.25,-222.5 457.25,-222.5 457.25,-228.5 451.25,-234.5 445.25,-234.5 445.25,-234.5 272,-234.5 272,-234.5 266,-234.5 260,-228.5 260,-222.5 260,-222.5 260,-148 260,-148 260,-142 266,-136 272,-136"/>
<text text-anchor="middle" x="358.62" y="-217.2" font-family="Times,serif" font-size="14.00" fill="#000000">x</text>
<text text-anchor="middle" x="358.62" y="-200.7" font-family="Times,serif" font-size="14.00" fill="#000000">0x103400a90</text>
<polyline fill="none" stroke="#8797b2" points="260,-193.5 457.25,-193.5"/>
<text text-anchor="middle" x="286.75" y="-176.2" font-family="Times,serif" font-size="14.00" fill="#000000">Left</text>
<text text-anchor="middle" x="286.75" y="-159.7" font-family="Times,serif" font-size="14.00" fill="#000000">NONE</text>
<text text-anchor="middle" x="286.75" y="-143.2" font-family="Times,serif" font-size="14.00" fill="#000000">0x0</text>
<polyline fill="none" stroke="#8797b2" points="313.5,-136 313.5,-193.5"/>
<text text-anchor="middle" x="358.62" y="-176.2" font-family="Times,serif" font-size="14.00" fill="#000000">Parent</text>
<text text-anchor="middle" x="358.62" y="-159.7" font-family="Times,serif" font-size="14.00" fill="#000000">+</text>
<text text-anchor="middle" x="358.62" y="-143.2" font-family="Times,serif" font-size="14.00" fill="#000000">0x1034009d0</text>
<polyline fill="none" stroke="#8797b2" points="403.75,-136 403.75,-193.5"/>
<text text-anchor="middle" x="430.5" y="-176.2" font-family="Times,serif" font-size="14.00" fill="#000000">Right</text>
<text text-anchor="middle" x="430.5" y="-159.7" font-family="Times,serif" font-size="14.00" fill="#000000">NONE</text>
<text text-anchor="middle" x="430.5" y="-143.2" font-family="Times,serif" font-size="14.00" fill="#000000">0x0</text>
</g>
<!-- node0x1034009d0&#45;&gt;node0x103400a90 -->
<g id="edge4" class="edge">
<title>node0x1034009d0:left&#45;&gt;node0x103400a90</title>
<path fill="none" stroke="#187ae8" stroke-width="2" d="M385.75,-271C385.75,-262.62 384.53,-253.99 382.61,-245.59"/>
<polygon fill="#187ae8" stroke="#187ae8" stroke-width="2" points="386.45,-246.41 380.51,-237.64 379.69,-248.2 386.45,-246.41"/>
</g>
<!-- node0x103400a10 -->
<g id="node8" class="node">
<title>node0x103400a10</title>
<path fill="#fbee21" stroke="#d3c70d" d="M487,-136C487,-136 696.25,-136 696.25,-136 702.25,-136 708.25,-142 708.25,-148 708.25,-148 708.25,-222.5 708.25,-222.5 708.25,-228.5 702.25,-234.5 696.25,-234.5 696.25,-234.5 487,-234.5 487,-234.5 481,-234.5 475,-228.5 475,-222.5 475,-222.5 475,-148 475,-148 475,-142 481,-136 487,-136"/>
<text text-anchor="middle" x="591.62" y="-217.2" font-family="Times,serif" font-size="14.00" fill="#000000">sin</text>
<text text-anchor="middle" x="591.62" y="-200.7" font-family="Times,serif" font-size="14.00" fill="#000000">0x103400a10</text>
<polyline fill="none" stroke="#d3c70d" points="475,-193.5 708.25,-193.5"/>
<text text-anchor="middle" x="519.75" y="-176.2" font-family="Times,serif" font-size="14.00" fill="#000000">Left</text>
<text text-anchor="middle" x="519.75" y="-159.7" font-family="Times,serif" font-size="14.00" fill="#000000">x</text>
<text text-anchor="middle" x="519.75" y="-143.2" font-family="Times,serif" font-size="14.00" fill="#000000">0x103400a50</text>
<polyline fill="none" stroke="#d3c70d" points="564.5,-136 564.5,-193.5"/>
<text text-anchor="middle" x="609.62" y="-176.2" font-family="Times,serif" font-size="14.00" fill="#000000">Parent</text>
<text text-anchor="middle" x="609.62" y="-159.7" font-family="Times,serif" font-size="14.00" fill="#000000">+</text>
<text text-anchor="middle" x="609.62" y="-143.2" font-family="Times,serif" font-size="14.00" fill="#000000">0x1034009d0</text>
<polyline fill="none" stroke="#d3c70d" points="654.75,-136 654.75,-193.5"/>
<text text-anchor="middle" x="681.5" y="-176.2" font-family="Times,serif" font-size="14.00" fill="#000000">Right</text>
<text text-anchor="middle" x="681.5" y="-159.7" font-family="Times,serif" font-size="14.00" fill="#000000">NONE</text>
<text text-anchor="middle" x="681.5" y="-143.2" font-family="Times,serif" font-size="14.00" fill="#000000">0x0</text>
</g>
<!-- node0x1034009d0&#45;&gt;node0x103400a10 -->
<g id="edge6" class="edge">
<title>node0x1034009d0:right&#45;&gt;node0x103400a10</title>
<path fill="none" stroke="#48e818" stroke-width="2" d="M565.5,-271C565.5,-262.74 566.65,-254.23 568.46,-245.92"/>
<polygon fill="#48e818" stroke="#48e818" stroke-width="2" points="571.47,-248.26 570.55,-237.71 564.69,-246.53 571.47,-248.26"/>
</g>
<!-- node0x103400a50 -->
<g id="node9" class="node">
<title>node0x103400a50</title>
<path fill="#d5cfe1" stroke="#8797b2" d="M434.38,-0.5C434.38,-0.5 606.88,-0.5 606.88,-0.5 612.88,-0.5 618.88,-6.5 618.88,-12.5 618.88,-12.5 618.88,-87 618.88,-87 618.88,-93 612.88,-99 606.88,-99 606.88,-99 434.38,-99 434.38,-99 428.38,-99 422.38,-93 422.38,-87 422.38,-87 422.38,-12.5 422.38,-12.5 422.38,-6.5 428.38,-0.5 434.38,-0.5"/>
<text text-anchor="middle" x="520.62" y="-81.7" font-family="Times,serif" font-size="14.00" fill="#000000">x</text>
<text text-anchor="middle" x="520.62" y="-65.2" font-family="Times,serif" font-size="14.00" fill="#000000">0x103400a50</text>
<polyline fill="none" stroke="#8797b2" points="422.38,-58 618.88,-58"/>
<text text-anchor="middle" x="449.12" y="-40.7" font-family="Times,serif" font-size="14.00" fill="#000000">Left</text>
<text text-anchor="middle" x="449.12" y="-24.2" font-family="Times,serif" font-size="14.00" fill="#000000">NONE</text>
<text text-anchor="middle" x="449.12" y="-7.7" font-family="Times,serif" font-size="14.00" fill="#000000">0x0</text>
<polyline fill="none" stroke="#8797b2" points="475.88,-0.5 475.88,-58"/>
<text text-anchor="middle" x="520.62" y="-40.7" font-family="Times,serif" font-size="14.00" fill="#000000">Parent</text>
<text text-anchor="middle" x="520.62" y="-24.2" font-family="Times,serif" font-size="14.00" fill="#000000">sin</text>
<text text-anchor="middle" x="520.62" y="-7.7" font-family="Times,serif" font-size="14.00" fill="#000000">0x103400a10</text>
<polyline fill="none" stroke="#8797b2" points="565.38,-0.5 565.38,-58"/>
<text text-anchor="middle" x="592.12" y="-40.7" font-family="Times,serif" font-size="14.00" fill="#000000">Right</text>
<text text-anchor="middle" x="592.12" y="-24.2" font-family="Times,serif" font-size="14.00" fill="#000000">NONE</text>
<text text-anchor="middle" x="592.12" y="-7.7" font-family="Times,serif" font-size="14.00" fill="#000000">0x0</text>
</g>
<!-- node0x103400a10&#45;&gt;node0x103400a50 -->
<g id="edge5" class="edge">
<title>node0x103400a10:left&#45;&gt;node0x103400a50</title>
<path fill="none" stroke="#187ae8" stroke-width="2" d="M519.75,-135.5C519.75,-127.41 519.79,-118.88 519.85,-110.48"/>
<polygon fill="#187ae8" stroke="#187ae8" stroke-width="2" points="523.34,-112.21 519.93,-102.18 516.34,-112.15 523.34,-112.21"/>
</g>
</g>
</svg>
