<?xml version="1.0" encoding="UTF-8" standalone="no"?>
<!DOCTYPE svg PUBLIC "-//W3C//DTD SVG 1.1//EN"
 "http://www.w3.org/Graphics/SVG/1.1/DTD/svg11.dtd">
<!-- Generated by graphviz version 12.2.0 (20241103.1931)
 -->
<!-- Pages: 1 -->
<svg width="436pt" height="514pt"
 viewBox="0.00 0.00 435.50 514.00" xmlns="http://www.w3.org/2000/svg" xmlns:xlink="http://www.w3.org/1999/xlink">
<g id="graph0" class="graph" transform="scale(1 1) rotate(0) translate(4 510)">
<polygon fill="#dcdcdc" stroke="none" points="-4,4 -4,-510 431.5,-510 431.5,4 -4,4"/>
<!-- node0x105900b90 -->
<g id="node1" class="node">
<title>node0x105900b90</title>
<path fill="#fbee21" stroke="#d3c70d" d="M243,-407C243,-407 415.5,-407 415.5,-407 421.5,-407 427.5,-413 427.5,-419 427.5,-419 427.5,-493.5 427.5,-493.5 427.5,-499.5 421.5,-505.5 415.5,-505.5 415.5,-505.5 243,-505.5 243,-505.5 237,-505.5 231,-499.5 231,-493.5 231,-493.5 231,-419 231,-419 231,-413 237,-407 243,-407"/>
<text text-anchor="middle" x="329.25" y="-488.2" font-family="Times,serif" font-size="14.00" fill="#000000">sin</text>
<text text-anchor="middle" x="329.25" y="-471.7" font-family="Times,serif" font-size="14.00" fill="#000000">0x105900b90</text>
<polyline fill="none" stroke="#d3c70d" points="231,-464.5 427.5,-464.5"/>
<text text-anchor="middle" x="275.75" y="-447.2" font-family="Times,serif" font-size="14.00" fill="#000000">Left</text>
<text text-anchor="middle" x="275.75" y="-430.7" font-family="Times,serif" font-size="14.00" fill="#000000">/</text>
<text text-anchor="middle" x="275.75" y="-414.2" font-family="Times,serif" font-size="14.00" fill="#000000">0x105900a10</text>
<polyline fill="none" stroke="#d3c70d" points="320.5,-407 320.5,-464.5"/>
<text text-anchor="middle" x="347.25" y="-447.2" font-family="Times,serif" font-size="14.00" fill="#000000">Parent</text>
<text text-anchor="middle" x="347.25" y="-430.7" font-family="Times,serif" font-size="14.00" fill="#000000">NONE</text>
<text text-anchor="middle" x="347.25" y="-414.2" font-family="Times,serif" font-size="14.00" fill="#000000">0x0</text>
<polyline fill="none" stroke="#d3c70d" points="374,-407 374,-464.5"/>
<text text-anchor="middle" x="400.75" y="-447.2" font-family="Times,serif" font-size="14.00" fill="#000000">Right</text>
<text text-anchor="middle" x="400.75" y="-430.7" font-family="Times,serif" font-size="14.00" fill="#000000">NONE</text>
<text text-anchor="middle" x="400.75" y="-414.2" font-family="Times,serif" font-size="14.00" fill="#000000">0x0</text>
</g>
<!-- node0x105900a10 -->
<g id="node2" class="node">
<title>node0x105900a10</title>
<path fill="#f18805" stroke="#af3800" d="M171.62,-271.5C171.62,-271.5 380.88,-271.5 380.88,-271.5 386.88,-271.5 392.88,-277.5 392.88,-283.5 392.88,-283.5 392.88,-358 392.88,-358 392.88,-364 386.88,-370 380.88,-370 380.88,-370 171.62,-370 171.62,-370 165.62,-370 159.62,-364 159.62,-358 159.62,-358 159.62,-283.5 159.62,-283.5 159.62,-277.5 165.62,-271.5 171.62,-271.5"/>
<text text-anchor="middle" x="276.25" y="-352.7" font-family="Times,serif" font-size="14.00" fill="#000000">/</text>
<text text-anchor="middle" x="276.25" y="-336.2" font-family="Times,serif" font-size="14.00" fill="#000000">0x105900a10</text>
<polyline fill="none" stroke="#af3800" points="159.62,-329 392.88,-329"/>
<text text-anchor="middle" x="204.38" y="-311.7" font-family="Times,serif" font-size="14.00" fill="#000000">Left</text>
<text text-anchor="middle" x="204.38" y="-295.2" font-family="Times,serif" font-size="14.00" fill="#000000">+</text>
<text text-anchor="middle" x="204.38" y="-278.7" font-family="Times,serif" font-size="14.00" fill="#000000">0x105900a90</text>
<polyline fill="none" stroke="#af3800" points="249.12,-271.5 249.12,-329"/>
<text text-anchor="middle" x="294.25" y="-311.7" font-family="Times,serif" font-size="14.00" fill="#000000">Parent</text>
<text text-anchor="middle" x="294.25" y="-295.2" font-family="Times,serif" font-size="14.00" fill="#000000">sin</text>
<text text-anchor="middle" x="294.25" y="-278.7" font-family="Times,serif" font-size="14.00" fill="#000000">0x105900b90</text>
<polyline fill="none" stroke="#af3800" points="339.38,-271.5 339.38,-329"/>
<text text-anchor="middle" x="366.12" y="-311.7" font-family="Times,serif" font-size="14.00" fill="#000000">Right</text>
<text text-anchor="middle" x="366.12" y="-295.2" font-family="Times,serif" font-size="14.00" fill="#000000">NONE</text>
<text text-anchor="middle" x="366.12" y="-278.7" font-family="Times,serif" font-size="14.00" fill="#000000">0x0</text>
</g>
<!-- node0x105900b90&#45;&gt;node0x105900a10 -->
<g id="edge1" class="edge">
<title>node0x105900b90:left&#45;&gt;node0x105900a10</title>
<path fill="none" stroke="#187ae8" stroke-width="2" d="M275.75,-406.5C275.75,-398.41 275.77,-389.88 275.81,-381.48"/>
<polygon fill="#187ae8" stroke="#187ae8" stroke-width="2" points="279.3,-383.2 275.85,-373.18 272.3,-383.16 279.3,-383.2"/>
</g>
<!-- node0x105900a90 -->
<g id="node3" class="node">
<title>node0x105900a90</title>
<path fill="#fbee21" stroke="#d3c70d" d="M83,-136C83,-136 327.5,-136 327.5,-136 333.5,-136 339.5,-142 339.5,-148 339.5,-148 339.5,-222.5 339.5,-222.5 339.5,-228.5 333.5,-234.5 327.5,-234.5 327.5,-234.5 83,-234.5 83,-234.5 77,-234.5 71,-228.5 71,-222.5 71,-222.5 71,-148 71,-148 71,-142 77,-136 83,-136"/>
<text text-anchor="middle" x="205.25" y="-217.2" font-family="Times,serif" font-size="14.00" fill="#000000">+</text>
<text text-anchor="middle" x="205.25" y="-200.7" font-family="Times,serif" font-size="14.00" fill="#000000">0x105900a90</text>
<polyline fill="none" stroke="#d3c70d" points="71,-193.5 339.5,-193.5"/>
<text text-anchor="middle" x="115.75" y="-176.2" font-family="Times,serif" font-size="14.00" fill="#000000">Left</text>
<text text-anchor="middle" x="115.75" y="-159.7" font-family="Times,serif" font-size="14.00" fill="#000000">1</text>
<text text-anchor="middle" x="115.75" y="-143.2" font-family="Times,serif" font-size="14.00" fill="#000000">0x105900ad0</text>
<polyline fill="none" stroke="#d3c70d" points="160.5,-136 160.5,-193.5"/>
<text text-anchor="middle" x="205.25" y="-176.2" font-family="Times,serif" font-size="14.00" fill="#000000">Parent</text>
<text text-anchor="middle" x="205.25" y="-159.7" font-family="Times,serif" font-size="14.00" fill="#000000">/</text>
<text text-anchor="middle" x="205.25" y="-143.2" font-family="Times,serif" font-size="14.00" fill="#000000">0x105900a10</text>
<polyline fill="none" stroke="#d3c70d" points="250,-136 250,-193.5"/>
<text text-anchor="middle" x="294.75" y="-176.2" font-family="Times,serif" font-size="14.00" fill="#000000">Right</text>
<text text-anchor="middle" x="294.75" y="-159.7" font-family="Times,serif" font-size="14.00" fill="#000000">x</text>
<text text-anchor="middle" x="294.75" y="-143.2" font-family="Times,serif" font-size="14.00" fill="#000000">0x105900a50</text>
</g>
<!-- node0x105900a10&#45;&gt;node0x105900a90 -->
<g id="edge2" class="edge">
<title>node0x105900a10:left&#45;&gt;node0x105900a90</title>
<path fill="none" stroke="#187ae8" stroke-width="2" d="M204.38,-271C204.38,-262.91 204.42,-254.38 204.48,-245.98"/>
<polygon fill="#187ae8" stroke="#187ae8" stroke-width="2" points="207.96,-247.71 204.55,-237.68 200.96,-247.65 207.96,-247.71"/>
</g>
<!-- node0x105900ad0 -->
<g id="node4" class="node">
<title>node0x105900ad0</title>
<path fill="#bdef9e" stroke="#99c2a2" d="M12,-0.5C12,-0.5 184.5,-0.5 184.5,-0.5 190.5,-0.5 196.5,-6.5 196.5,-12.5 196.5,-12.5 196.5,-87 196.5,-87 196.5,-93 190.5,-99 184.5,-99 184.5,-99 12,-99 12,-99 6,-99 0,-93 0,-87 0,-87 0,-12.5 0,-12.5 0,-6.5 6,-0.5 12,-0.5"/>
<text text-anchor="middle" x="98.25" y="-81.7" font-family="Times,serif" font-size="14.00" fill="#000000">1</text>
<text text-anchor="middle" x="98.25" y="-65.2" font-family="Times,serif" font-size="14.00" fill="#000000">0x105900ad0</text>
<polyline fill="none" stroke="#99c2a2" points="0,-58 196.5,-58"/>
<text text-anchor="middle" x="26.75" y="-40.7" font-family="Times,serif" font-size="14.00" fill="#000000">Left</text>
<text text-anchor="middle" x="26.75" y="-24.2" font-family="Times,serif" font-size="14.00" fill="#000000">NONE</text>
<text text-anchor="middle" x="26.75" y="-7.7" font-family="Times,serif" font-size="14.00" fill="#000000">0x0</text>
<polyline fill="none" stroke="#99c2a2" points="53.5,-0.5 53.5,-58"/>
<text text-anchor="middle" x="98.25" y="-40.7" font-family="Times,serif" font-size="14.00" fill="#000000">Parent</text>
<text text-anchor="middle" x="98.25" y="-24.2" font-family="Times,serif" font-size="14.00" fill="#000000">+</text>
<text text-anchor="middle" x="98.25" y="-7.7" font-family="Times,serif" font-size="14.00" fill="#000000">0x105900a90</text>
<polyline fill="none" stroke="#99c2a2" points="143,-0.5 143,-58"/>
<text text-anchor="middle" x="169.75" y="-40.7" font-family="Times,serif" font-size="14.00" fill="#000000">Right</text>
<text text-anchor="middle" x="169.75" y="-24.2" font-family="Times,serif" font-size="14.00" fill="#000000">NONE</text>
<text text-anchor="middle" x="169.75" y="-7.7" font-family="Times,serif" font-size="14.00" fill="#000000">0x0</text>
</g>
<!-- node0x105900a90&#45;&gt;node0x105900ad0 -->
<g id="edge3" class="edge">
<title>node0x105900a90:left&#45;&gt;node0x105900ad0</title>
<path fill="none" stroke="#187ae8" stroke-width="2" d="M115.75,-135.5C115.75,-127.34 114.96,-118.83 113.72,-110.48"/>
<polygon fill="#187ae8" stroke="#187ae8" stroke-width="2" points="117.45,-111.49 112.29,-102.23 110.55,-112.68 117.45,-111.49"/>
</g>
<!-- node0x105900a50 -->
<g id="node5" class="node">
<title>node0x105900a50</title>
<path fill="#d5cfe1" stroke="#8797b2" d="M227,-0.5C227,-0.5 399.5,-0.5 399.5,-0.5 405.5,-0.5 411.5,-6.5 411.5,-12.5 411.5,-12.5 411.5,-87 411.5,-87 411.5,-93 405.5,-99 399.5,-99 399.5,-99 227,-99 227,-99 221,-99 215,-93 215,-87 215,-87 215,-12.5 215,-12.5 215,-6.5 221,-0.5 227,-0.5"/>
<text text-anchor="middle" x="313.25" y="-81.7" font-family="Times,serif" font-size="14.00" fill="#000000">x</text>
<text text-anchor="middle" x="313.25" y="-65.2" font-family="Times,serif" font-size="14.00" fill="#000000">0x105900a50</text>
<polyline fill="none" stroke="#8797b2" points="215,-58 411.5,-58"/>
<text text-anchor="middle" x="241.75" y="-40.7" font-family="Times,serif" font-size="14.00" fill="#000000">Left</text>
<text text-anchor="middle" x="241.75" y="-24.2" font-family="Times,serif" font-size="14.00" fill="#000000">NONE</text>
<text text-anchor="middle" x="241.75" y="-7.7" font-family="Times,serif" font-size="14.00" fill="#000000">0x0</text>
<polyline fill="none" stroke="#8797b2" points="268.5,-0.5 268.5,-58"/>
<text text-anchor="middle" x="313.25" y="-40.7" font-family="Times,serif" font-size="14.00" fill="#000000">Parent</text>
<text text-anchor="middle" x="313.25" y="-24.2" font-family="Times,serif" font-size="14.00" fill="#000000">+</text>
<text text-anchor="middle" x="313.25" y="-7.7" font-family="Times,serif" font-size="14.00" fill="#000000">0x105900a90</text>
<polyline fill="none" stroke="#8797b2" points="358,-0.5 358,-58"/>
<text text-anchor="middle" x="384.75" y="-40.7" font-family="Times,serif" font-size="14.00" fill="#000000">Right</text>
<text text-anchor="middle" x="384.75" y="-24.2" font-family="Times,serif" font-size="14.00" fill="#000000">NONE</text>
<text text-anchor="middle" x="384.75" y="-7.7" font-family="Times,serif" font-size="14.00" fill="#000000">0x0</text>
</g>
<!-- node0x105900a90&#45;&gt;node0x105900a50 -->
<g id="edge4" class="edge">
<title>node0x105900a90:right&#45;&gt;node0x105900a50</title>
<path fill="none" stroke="#48e818" stroke-width="2" d="M294.75,-135.5C294.75,-127.32 295.58,-118.8 296.89,-110.44"/>
<polygon fill="#48e818" stroke="#48e818" stroke-width="2" points="300.05,-112.65 298.4,-102.18 293.16,-111.39 300.05,-112.65"/>
</g>
</g>
</svg>
