<?xml version="1.0" encoding="UTF-8" standalone="no"?>
<!DOCTYPE svg PUBLIC "-//W3C//DTD SVG 1.1//EN"
 "http://www.w3.org/Graphics/SVG/1.1/DTD/svg11.dtd">
<!-- Generated by graphviz version 12.2.0 (20241103.1931)
 -->
<!-- Pages: 1 -->
<svg width="145pt" height="108pt"
 viewBox="0.00 0.00 145.25 107.50" xmlns="http://www.w3.org/2000/svg" xmlns:xlink="http://www.w3.org/1999/xlink">
<g id="graph0" class="graph" transform="scale(1 1) rotate(0) translate(4 103.5)">
<polygon fill="#dcdcdc" stroke="none" points="-4,4 -4,-103.5 141.25,-103.5 141.25,4 -4,4"/>
<!-- node0x105a00b90 -->
<g id="node1" class="node">
<title>node0x105a00b90</title>
<path fill="#bd3458" stroke="#7b0d1e" d="M12,-0.5C12,-0.5 125.25,-0.5 125.25,-0.5 131.25,-0.5 137.25,-6.5 137.25,-12.5 137.25,-12.5 137.25,-87 137.25,-87 137.25,-93 131.25,-99 125.25,-99 125.25,-99 12,-99 12,-99 6,-99 0,-93 0,-87 0,-87 0,-12.5 0,-12.5 0,-6.5 6,-0.5 12,-0.5"/>
<text text-anchor="middle" x="68.62" y="-81.7" font-family="Times,serif" font-size="14.00" fill="#000000">&#45;666</text>
<text text-anchor="middle" x="68.62" y="-65.2" font-family="Times,serif" font-size="14.00" fill="#000000">0x105a00b90</text>
<polyline fill="none" stroke="#7b0d1e" points="0,-58 137.25,-58"/>
<text text-anchor="middle" x="20.38" y="-40.7" font-family="Times,serif" font-size="14.00" fill="#000000">Left</text>
<text text-anchor="middle" x="20.38" y="-24.2" font-family="Times,serif" font-size="14.00" fill="#000000">&#45;666</text>
<text text-anchor="middle" x="20.38" y="-7.7" font-family="Times,serif" font-size="14.00" fill="#000000">0x0</text>
<polyline fill="none" stroke="#7b0d1e" points="40.75,-0.5 40.75,-58"/>
<text text-anchor="middle" x="66" y="-40.7" font-family="Times,serif" font-size="14.00" fill="#000000">Parent</text>
<text text-anchor="middle" x="66" y="-24.2" font-family="Times,serif" font-size="14.00" fill="#000000">&#45;666</text>
<text text-anchor="middle" x="66" y="-7.7" font-family="Times,serif" font-size="14.00" fill="#000000">0x0</text>
<polyline fill="none" stroke="#7b0d1e" points="91.25,-0.5 91.25,-58"/>
<text text-anchor="middle" x="114.25" y="-40.7" font-family="Times,serif" font-size="14.00" fill="#000000">Right</text>
<text text-anchor="middle" x="114.25" y="-24.2" font-family="Times,serif" font-size="14.00" fill="#000000">&#45;666</text>
<text text-anchor="middle" x="114.25" y="-7.7" font-family="Times,serif" font-size="14.00" fill="#000000">0x0</text>
</g>
</g>
</svg>
