<?xml version="1.0" encoding="UTF-8" standalone="no"?>
<!DOCTYPE svg PUBLIC "-//W3C//DTD SVG 1.1//EN"
 "http://www.w3.org/Graphics/SVG/1.1/DTD/svg11.dtd">
<!-- Generated by graphviz version 12.2.0 (20241103.1931)
 -->
<!-- Pages: 1 -->
<svg width="384pt" height="379pt"
 viewBox="0.00 0.00 383.88 378.50" xmlns="http://www.w3.org/2000/svg" xmlns:xlink="http://www.w3.org/1999/xlink">
<g id="graph0" class="graph" transform="scale(1 1) rotate(0) translate(4 374.5)">
<polygon fill="#dcdcdc" stroke="none" points="-4,4 -4,-374.5 379.88,-374.5 379.88,4 -4,4"/>
<!-- node0x105000950 -->
<g id="node1" class="node">
<title>node0x105000950</title>
<path fill="#f18805" stroke="#af3800" d="M73.25,-271.5C73.25,-271.5 283.25,-271.5 283.25,-271.5 289.25,-271.5 295.25,-277.5 295.25,-283.5 295.25,-283.5 295.25,-358 295.25,-358 295.25,-364 289.25,-370 283.25,-370 283.25,-370 73.25,-370 73.25,-370 67.25,-370 61.25,-364 61.25,-358 61.25,-358 61.25,-283.5 61.25,-283.5 61.25,-277.5 67.25,-271.5 73.25,-271.5"/>
<text text-anchor="middle" x="178.25" y="-352.7" font-family="Times,serif" font-size="14.00" fill="#000000">*</text>
<text text-anchor="middle" x="178.25" y="-336.2" font-family="Times,serif" font-size="14.00" fill="#000000">0x105000950</text>
<polyline fill="none" stroke="#af3800" points="61.25,-329 295.25,-329"/>
<text text-anchor="middle" x="106.38" y="-311.7" font-family="Times,serif" font-size="14.00" fill="#000000">Left</text>
<text text-anchor="middle" x="106.38" y="-295.2" font-family="Times,serif" font-size="14.00" fill="#000000">&#45;1</text>
<text text-anchor="middle" x="106.38" y="-278.7" font-family="Times,serif" font-size="14.00" fill="#000000">0x105000910</text>
<polyline fill="none" stroke="#af3800" points="151.5,-271.5 151.5,-329"/>
<text text-anchor="middle" x="178.25" y="-311.7" font-family="Times,serif" font-size="14.00" fill="#000000">Parent</text>
<text text-anchor="middle" x="178.25" y="-295.2" font-family="Times,serif" font-size="14.00" fill="#000000">NONE</text>
<text text-anchor="middle" x="178.25" y="-278.7" font-family="Times,serif" font-size="14.00" fill="#000000">0x0</text>
<polyline fill="none" stroke="#af3800" points="205,-271.5 205,-329"/>
<text text-anchor="middle" x="250.12" y="-311.7" font-family="Times,serif" font-size="14.00" fill="#000000">Right</text>
<text text-anchor="middle" x="250.12" y="-295.2" font-family="Times,serif" font-size="14.00" fill="#000000">sin</text>
<text text-anchor="middle" x="250.12" y="-278.7" font-family="Times,serif" font-size="14.00" fill="#000000">0x105000890</text>
</g>
<!-- node0x105000910 -->
<g id="node2" class="node">
<title>node0x105000910</title>
<path fill="#bdef9e" stroke="#99c2a2" d="M12,-136C12,-136 148.5,-136 148.5,-136 154.5,-136 160.5,-142 160.5,-148 160.5,-148 160.5,-222.5 160.5,-222.5 160.5,-228.5 154.5,-234.5 148.5,-234.5 148.5,-234.5 12,-234.5 12,-234.5 6,-234.5 0,-228.5 0,-222.5 0,-222.5 0,-148 0,-148 0,-142 6,-136 12,-136"/>
<text text-anchor="middle" x="80.25" y="-217.2" font-family="Times,serif" font-size="14.00" fill="#000000">&#45;1</text>
<text text-anchor="middle" x="80.25" y="-200.7" font-family="Times,serif" font-size="14.00" fill="#000000">0x105000910</text>
<polyline fill="none" stroke="#99c2a2" points="0,-193.5 160.5,-193.5"/>
<text text-anchor="middle" x="26.75" y="-176.2" font-family="Times,serif" font-size="14.00" fill="#000000">Left</text>
<text text-anchor="middle" x="26.75" y="-159.7" font-family="Times,serif" font-size="14.00" fill="#000000">NONE</text>
<text text-anchor="middle" x="26.75" y="-143.2" font-family="Times,serif" font-size="14.00" fill="#000000">0x0</text>
<polyline fill="none" stroke="#99c2a2" points="53.5,-136 53.5,-193.5"/>
<text text-anchor="middle" x="80.25" y="-176.2" font-family="Times,serif" font-size="14.00" fill="#000000">Parent</text>
<text text-anchor="middle" x="80.25" y="-159.7" font-family="Times,serif" font-size="14.00" fill="#000000">NONE</text>
<text text-anchor="middle" x="80.25" y="-143.2" font-family="Times,serif" font-size="14.00" fill="#000000">0x0</text>
<polyline fill="none" stroke="#99c2a2" points="107,-136 107,-193.5"/>
<text text-anchor="middle" x="133.75" y="-176.2" font-family="Times,serif" font-size="14.00" fill="#000000">Right</text>
<text text-anchor="middle" x="133.75" y="-159.7" font-family="Times,serif" font-size="14.00" fill="#000000">NONE</text>
<text text-anchor="middle" x="133.75" y="-143.2" font-family="Times,serif" font-size="14.00" fill="#000000">0x0</text>
</g>
<!-- node0x105000950&#45;&gt;node0x105000910 -->
<g id="edge1" class="edge">
<title>node0x105000950:left&#45;&gt;node0x105000910</title>
<path fill="none" stroke="#187ae8" stroke-width="2" d="M106.38,-271C106.38,-262.74 105.23,-254.23 103.42,-245.92"/>
<polygon fill="#187ae8" stroke="#187ae8" stroke-width="2" points="107.18,-246.53 101.32,-237.71 100.4,-248.26 107.18,-246.53"/>
</g>
<!-- node0x105000890 -->
<g id="node3" class="node">
<title>node0x105000890</title>
<path fill="#fbee21" stroke="#d3c70d" d="M190.62,-136C190.62,-136 363.88,-136 363.88,-136 369.88,-136 375.88,-142 375.88,-148 375.88,-148 375.88,-222.5 375.88,-222.5 375.88,-228.5 369.88,-234.5 363.88,-234.5 363.88,-234.5 190.62,-234.5 190.62,-234.5 184.62,-234.5 178.62,-228.5 178.62,-222.5 178.62,-222.5 178.62,-148 178.62,-148 178.62,-142 184.62,-136 190.62,-136"/>
<text text-anchor="middle" x="277.25" y="-217.2" font-family="Times,serif" font-size="14.00" fill="#000000">sin</text>
<text text-anchor="middle" x="277.25" y="-200.7" font-family="Times,serif" font-size="14.00" fill="#000000">0x105000890</text>
<polyline fill="none" stroke="#d3c70d" points="178.62,-193.5 375.88,-193.5"/>
<text text-anchor="middle" x="223.75" y="-176.2" font-family="Times,serif" font-size="14.00" fill="#000000">Left</text>
<text text-anchor="middle" x="223.75" y="-159.7" font-family="Times,serif" font-size="14.00" fill="#000000">x</text>
<text text-anchor="middle" x="223.75" y="-143.2" font-family="Times,serif" font-size="14.00" fill="#000000">0x1050008d0</text>
<polyline fill="none" stroke="#d3c70d" points="268.88,-136 268.88,-193.5"/>
<text text-anchor="middle" x="295.62" y="-176.2" font-family="Times,serif" font-size="14.00" fill="#000000">Parent</text>
<text text-anchor="middle" x="295.62" y="-159.7" font-family="Times,serif" font-size="14.00" fill="#000000">NONE</text>
<text text-anchor="middle" x="295.62" y="-143.2" font-family="Times,serif" font-size="14.00" fill="#000000">0x0</text>
<polyline fill="none" stroke="#d3c70d" points="322.38,-136 322.38,-193.5"/>
<text text-anchor="middle" x="349.12" y="-176.2" font-family="Times,serif" font-size="14.00" fill="#000000">Right</text>
<text text-anchor="middle" x="349.12" y="-159.7" font-family="Times,serif" font-size="14.00" fill="#000000">NONE</text>
<text text-anchor="middle" x="349.12" y="-143.2" font-family="Times,serif" font-size="14.00" fill="#000000">0x0</text>
</g>
<!-- node0x105000950&#45;&gt;node0x105000890 -->
<g id="edge3" class="edge">
<title>node0x105000950:right&#45;&gt;node0x105000890</title>
<path fill="none" stroke="#48e818" stroke-width="2" d="M250.12,-271C250.12,-262.62 251.34,-253.99 253.26,-245.59"/>
<polygon fill="#48e818" stroke="#48e818" stroke-width="2" points="256.19,-248.2 255.37,-237.64 249.42,-246.41 256.19,-248.2"/>
</g>
<!-- node0x1050008d0 -->
<g id="node4" class="node">
<title>node0x1050008d0</title>
<path fill="#d5cfe1" stroke="#8797b2" d="M137.62,-0.5C137.62,-0.5 310.88,-0.5 310.88,-0.5 316.88,-0.5 322.88,-6.5 322.88,-12.5 322.88,-12.5 322.88,-87 322.88,-87 322.88,-93 316.88,-99 310.88,-99 310.88,-99 137.62,-99 137.62,-99 131.62,-99 125.62,-93 125.62,-87 125.62,-87 125.62,-12.5 125.62,-12.5 125.62,-6.5 131.62,-0.5 137.62,-0.5"/>
<text text-anchor="middle" x="224.25" y="-81.7" font-family="Times,serif" font-size="14.00" fill="#000000">x</text>
<text text-anchor="middle" x="224.25" y="-65.2" font-family="Times,serif" font-size="14.00" fill="#000000">0x1050008d0</text>
<polyline fill="none" stroke="#8797b2" points="125.62,-58 322.88,-58"/>
<text text-anchor="middle" x="152.38" y="-40.7" font-family="Times,serif" font-size="14.00" fill="#000000">Left</text>
<text text-anchor="middle" x="152.38" y="-24.2" font-family="Times,serif" font-size="14.00" fill="#000000">NONE</text>
<text text-anchor="middle" x="152.38" y="-7.7" font-family="Times,serif" font-size="14.00" fill="#000000">0x0</text>
<polyline fill="none" stroke="#8797b2" points="179.12,-0.5 179.12,-58"/>
<text text-anchor="middle" x="224.25" y="-40.7" font-family="Times,serif" font-size="14.00" fill="#000000">Parent</text>
<text text-anchor="middle" x="224.25" y="-24.2" font-family="Times,serif" font-size="14.00" fill="#000000">sin</text>
<text text-anchor="middle" x="224.25" y="-7.7" font-family="Times,serif" font-size="14.00" fill="#000000">0x105000890</text>
<polyline fill="none" stroke="#8797b2" points="269.38,-0.5 269.38,-58"/>
<text text-anchor="middle" x="296.12" y="-40.7" font-family="Times,serif" font-size="14.00" fill="#000000">Right</text>
<text text-anchor="middle" x="296.12" y="-24.2" font-family="Times,serif" font-size="14.00" fill="#000000">NONE</text>
<text text-anchor="middle" x="296.12" y="-7.7" font-family="Times,serif" font-size="14.00" fill="#000000">0x0</text>
</g>
<!-- node0x105000890&#45;&gt;node0x1050008d0 -->
<g id="edge2" class="edge">
<title>node0x105000890:left&#45;&gt;node0x1050008d0</title>
<path fill="none" stroke="#187ae8" stroke-width="2" d="M223.75,-135.5C223.75,-127.41 223.77,-118.88 223.81,-110.48"/>
<polygon fill="#187ae8" stroke="#187ae8" stroke-width="2" points="227.3,-112.2 223.85,-102.18 220.3,-112.16 227.3,-112.2"/>
</g>
</g>
</svg>
