<?xml version="1.0" encoding="UTF-8" standalone="no"?>
<!DOCTYPE svg PUBLIC "-//W3C//DTD SVG 1.1//EN"
 "http://www.w3.org/Graphics/SVG/1.1/DTD/svg11.dtd">
<!-- Generated by graphviz version 12.2.0 (20241103.1931)
 -->
<!-- Pages: 1 -->
<svg width="563pt" height="379pt"
 viewBox="0.00 0.00 563.25 378.50" xmlns="http://www.w3.org/2000/svg" xmlns:xlink="http://www.w3.org/1999/xlink">
<g id="graph0" class="graph" transform="scale(1 1) rotate(0) translate(4 374.5)">
<polygon fill="#dcdcdc" stroke="none" points="-4,4 -4,-374.5 559.25,-374.5 559.25,4 -4,4"/>
<!-- node0x103100b90 -->
<g id="node1" class="node">
<title>node0x103100b90</title>
<path fill="#fbee21" stroke="#d3c70d" d="M118.62,-271.5C118.62,-271.5 328.62,-271.5 328.62,-271.5 334.62,-271.5 340.62,-277.5 340.62,-283.5 340.62,-283.5 340.62,-358 340.62,-358 340.62,-364 334.62,-370 328.62,-370 328.62,-370 118.63,-370 118.63,-370 112.62,-370 106.62,-364 106.62,-358 106.62,-358 106.62,-283.5 106.62,-283.5 106.62,-277.5 112.62,-271.5 118.62,-271.5"/>
<text text-anchor="middle" x="223.62" y="-352.7" font-family="Times,serif" font-size="14.00" fill="#000000">+</text>
<text text-anchor="middle" x="223.62" y="-336.2" font-family="Times,serif" font-size="14.00" fill="#000000">0x103100b90</text>
<polyline fill="none" stroke="#d3c70d" points="106.62,-329 340.62,-329"/>
<text text-anchor="middle" x="151.75" y="-311.7" font-family="Times,serif" font-size="14.00" fill="#000000">Left</text>
<text text-anchor="middle" x="151.75" y="-295.2" font-family="Times,serif" font-size="14.00" fill="#000000">1</text>
<text text-anchor="middle" x="151.75" y="-278.7" font-family="Times,serif" font-size="14.00" fill="#000000">0x103100b50</text>
<polyline fill="none" stroke="#d3c70d" points="196.88,-271.5 196.88,-329"/>
<text text-anchor="middle" x="223.62" y="-311.7" font-family="Times,serif" font-size="14.00" fill="#000000">Parent</text>
<text text-anchor="middle" x="223.62" y="-295.2" font-family="Times,serif" font-size="14.00" fill="#000000">NONE</text>
<text text-anchor="middle" x="223.62" y="-278.7" font-family="Times,serif" font-size="14.00" fill="#000000">0x0</text>
<polyline fill="none" stroke="#d3c70d" points="250.38,-271.5 250.38,-329"/>
<text text-anchor="middle" x="295.5" y="-311.7" font-family="Times,serif" font-size="14.00" fill="#000000">Right</text>
<text text-anchor="middle" x="295.5" y="-295.2" font-family="Times,serif" font-size="14.00" fill="#000000">^</text>
<text text-anchor="middle" x="295.5" y="-278.7" font-family="Times,serif" font-size="14.00" fill="#000000">0x103100b10</text>
</g>
<!-- node0x103100b50 -->
<g id="node2" class="node">
<title>node0x103100b50</title>
<path fill="#bdef9e" stroke="#99c2a2" d="M12,-136C12,-136 185.25,-136 185.25,-136 191.25,-136 197.25,-142 197.25,-148 197.25,-148 197.25,-222.5 197.25,-222.5 197.25,-228.5 191.25,-234.5 185.25,-234.5 185.25,-234.5 12,-234.5 12,-234.5 6,-234.5 0,-228.5 0,-222.5 0,-222.5 0,-148 0,-148 0,-142 6,-136 12,-136"/>
<text text-anchor="middle" x="98.62" y="-217.2" font-family="Times,serif" font-size="14.00" fill="#000000">1</text>
<text text-anchor="middle" x="98.62" y="-200.7" font-family="Times,serif" font-size="14.00" fill="#000000">0x103100b50</text>
<polyline fill="none" stroke="#99c2a2" points="0,-193.5 197.25,-193.5"/>
<text text-anchor="middle" x="26.75" y="-176.2" font-family="Times,serif" font-size="14.00" fill="#000000">Left</text>
<text text-anchor="middle" x="26.75" y="-159.7" font-family="Times,serif" font-size="14.00" fill="#000000">NONE</text>
<text text-anchor="middle" x="26.75" y="-143.2" font-family="Times,serif" font-size="14.00" fill="#000000">0x0</text>
<polyline fill="none" stroke="#99c2a2" points="53.5,-136 53.5,-193.5"/>
<text text-anchor="middle" x="98.62" y="-176.2" font-family="Times,serif" font-size="14.00" fill="#000000">Parent</text>
<text text-anchor="middle" x="98.62" y="-159.7" font-family="Times,serif" font-size="14.00" fill="#000000">+</text>
<text text-anchor="middle" x="98.62" y="-143.2" font-family="Times,serif" font-size="14.00" fill="#000000">0x103100b90</text>
<polyline fill="none" stroke="#99c2a2" points="143.75,-136 143.75,-193.5"/>
<text text-anchor="middle" x="170.5" y="-176.2" font-family="Times,serif" font-size="14.00" fill="#000000">Right</text>
<text text-anchor="middle" x="170.5" y="-159.7" font-family="Times,serif" font-size="14.00" fill="#000000">NONE</text>
<text text-anchor="middle" x="170.5" y="-143.2" font-family="Times,serif" font-size="14.00" fill="#000000">0x0</text>
</g>
<!-- node0x103100b90&#45;&gt;node0x103100b50 -->
<g id="edge1" class="edge">
<title>node0x103100b90:left&#45;&gt;node0x103100b50</title>
<path fill="none" stroke="#187ae8" stroke-width="2" d="M151.75,-271C151.75,-262.09 149.61,-253.34 146.2,-245.05"/>
<polygon fill="#187ae8" stroke="#187ae8" stroke-width="2" points="150.07,-245.03 142.57,-237.55 143.77,-248.07 150.07,-245.03"/>
</g>
<!-- node0x103100b10 -->
<g id="node3" class="node">
<title>node0x103100b10</title>
<path fill="#fbee21" stroke="#d3c70d" d="M227,-136C227,-136 472.25,-136 472.25,-136 478.25,-136 484.25,-142 484.25,-148 484.25,-148 484.25,-222.5 484.25,-222.5 484.25,-228.5 478.25,-234.5 472.25,-234.5 472.25,-234.5 227,-234.5 227,-234.5 221,-234.5 215,-228.5 215,-222.5 215,-222.5 215,-148 215,-148 215,-142 221,-136 227,-136"/>
<text text-anchor="middle" x="349.62" y="-217.2" font-family="Times,serif" font-size="14.00" fill="#000000">^</text>
<text text-anchor="middle" x="349.62" y="-200.7" font-family="Times,serif" font-size="14.00" fill="#000000">0x103100b10</text>
<polyline fill="none" stroke="#d3c70d" points="215,-193.5 484.25,-193.5"/>
<text text-anchor="middle" x="259.75" y="-176.2" font-family="Times,serif" font-size="14.00" fill="#000000">Left</text>
<text text-anchor="middle" x="259.75" y="-159.7" font-family="Times,serif" font-size="14.00" fill="#000000">x</text>
<text text-anchor="middle" x="259.75" y="-143.2" font-family="Times,serif" font-size="14.00" fill="#000000">0x103100ad0</text>
<polyline fill="none" stroke="#d3c70d" points="304.5,-136 304.5,-193.5"/>
<text text-anchor="middle" x="349.62" y="-176.2" font-family="Times,serif" font-size="14.00" fill="#000000">Parent</text>
<text text-anchor="middle" x="349.62" y="-159.7" font-family="Times,serif" font-size="14.00" fill="#000000">+</text>
<text text-anchor="middle" x="349.62" y="-143.2" font-family="Times,serif" font-size="14.00" fill="#000000">0x103100b90</text>
<polyline fill="none" stroke="#d3c70d" points="394.75,-136 394.75,-193.5"/>
<text text-anchor="middle" x="439.5" y="-176.2" font-family="Times,serif" font-size="14.00" fill="#000000">Right</text>
<text text-anchor="middle" x="439.5" y="-159.7" font-family="Times,serif" font-size="14.00" fill="#000000">2</text>
<text text-anchor="middle" x="439.5" y="-143.2" font-family="Times,serif" font-size="14.00" fill="#000000">0x103100a90</text>
</g>
<!-- node0x103100b90&#45;&gt;node0x103100b10 -->
<g id="edge4" class="edge">
<title>node0x103100b90:right&#45;&gt;node0x103100b10</title>
<path fill="none" stroke="#48e818" stroke-width="2" d="M295.5,-271C295.5,-262.04 297.68,-253.26 301.16,-244.96"/>
<polygon fill="#48e818" stroke="#48e818" stroke-width="2" points="303.58,-247.95 304.86,-237.44 297.3,-244.86 303.58,-247.95"/>
</g>
<!-- node0x103100ad0 -->
<g id="node4" class="node">
<title>node0x103100ad0</title>
<path fill="#d5cfe1" stroke="#8797b2" d="M155,-0.5C155,-0.5 328.25,-0.5 328.25,-0.5 334.25,-0.5 340.25,-6.5 340.25,-12.5 340.25,-12.5 340.25,-87 340.25,-87 340.25,-93 334.25,-99 328.25,-99 328.25,-99 155,-99 155,-99 149,-99 143,-93 143,-87 143,-87 143,-12.5 143,-12.5 143,-6.5 149,-0.5 155,-0.5"/>
<text text-anchor="middle" x="241.62" y="-81.7" font-family="Times,serif" font-size="14.00" fill="#000000">x</text>
<text text-anchor="middle" x="241.62" y="-65.2" font-family="Times,serif" font-size="14.00" fill="#000000">0x103100ad0</text>
<polyline fill="none" stroke="#8797b2" points="143,-58 340.25,-58"/>
<text text-anchor="middle" x="169.75" y="-40.7" font-family="Times,serif" font-size="14.00" fill="#000000">Left</text>
<text text-anchor="middle" x="169.75" y="-24.2" font-family="Times,serif" font-size="14.00" fill="#000000">NONE</text>
<text text-anchor="middle" x="169.75" y="-7.7" font-family="Times,serif" font-size="14.00" fill="#000000">0x0</text>
<polyline fill="none" stroke="#8797b2" points="196.5,-0.5 196.5,-58"/>
<text text-anchor="middle" x="241.62" y="-40.7" font-family="Times,serif" font-size="14.00" fill="#000000">Parent</text>
<text text-anchor="middle" x="241.62" y="-24.2" font-family="Times,serif" font-size="14.00" fill="#000000">^</text>
<text text-anchor="middle" x="241.62" y="-7.7" font-family="Times,serif" font-size="14.00" fill="#000000">0x103100b10</text>
<polyline fill="none" stroke="#8797b2" points="286.75,-0.5 286.75,-58"/>
<text text-anchor="middle" x="313.5" y="-40.7" font-family="Times,serif" font-size="14.00" fill="#000000">Right</text>
<text text-anchor="middle" x="313.5" y="-24.2" font-family="Times,serif" font-size="14.00" fill="#000000">NONE</text>
<text text-anchor="middle" x="313.5" y="-7.7" font-family="Times,serif" font-size="14.00" fill="#000000">0x0</text>
</g>
<!-- node0x103100b10&#45;&gt;node0x103100ad0 -->
<g id="edge2" class="edge">
<title>node0x103100b10:left&#45;&gt;node0x103100ad0</title>
<path fill="none" stroke="#187ae8" stroke-width="2" d="M259.75,-135.5C259.75,-127.33 258.93,-118.81 257.65,-110.46"/>
<polygon fill="#187ae8" stroke="#187ae8" stroke-width="2" points="261.38,-111.43 256.17,-102.2 254.49,-112.66 261.38,-111.43"/>
</g>
<!-- node0x103100a90 -->
<g id="node5" class="node">
<title>node0x103100a90</title>
<path fill="#bdef9e" stroke="#99c2a2" d="M370,-0.5C370,-0.5 543.25,-0.5 543.25,-0.5 549.25,-0.5 555.25,-6.5 555.25,-12.5 555.25,-12.5 555.25,-87 555.25,-87 555.25,-93 549.25,-99 543.25,-99 543.25,-99 370,-99 370,-99 364,-99 358,-93 358,-87 358,-87 358,-12.5 358,-12.5 358,-6.5 364,-0.5 370,-0.5"/>
<text text-anchor="middle" x="456.62" y="-81.7" font-family="Times,serif" font-size="14.00" fill="#000000">2</text>
<text text-anchor="middle" x="456.62" y="-65.2" font-family="Times,serif" font-size="14.00" fill="#000000">0x103100a90</text>
<polyline fill="none" stroke="#99c2a2" points="358,-58 555.25,-58"/>
<text text-anchor="middle" x="384.75" y="-40.7" font-family="Times,serif" font-size="14.00" fill="#000000">Left</text>
<text text-anchor="middle" x="384.75" y="-24.2" font-family="Times,serif" font-size="14.00" fill="#000000">NONE</text>
<text text-anchor="middle" x="384.75" y="-7.7" font-family="Times,serif" font-size="14.00" fill="#000000">0x0</text>
<polyline fill="none" stroke="#99c2a2" points="411.5,-0.5 411.5,-58"/>
<text text-anchor="middle" x="456.62" y="-40.7" font-family="Times,serif" font-size="14.00" fill="#000000">Parent</text>
<text text-anchor="middle" x="456.62" y="-24.2" font-family="Times,serif" font-size="14.00" fill="#000000">^</text>
<text text-anchor="middle" x="456.62" y="-7.7" font-family="Times,serif" font-size="14.00" fill="#000000">0x103100b10</text>
<polyline fill="none" stroke="#99c2a2" points="501.75,-0.5 501.75,-58"/>
<text text-anchor="middle" x="528.5" y="-40.7" font-family="Times,serif" font-size="14.00" fill="#000000">Right</text>
<text text-anchor="middle" x="528.5" y="-24.2" font-family="Times,serif" font-size="14.00" fill="#000000">NONE</text>
<text text-anchor="middle" x="528.5" y="-7.7" font-family="Times,serif" font-size="14.00" fill="#000000">0x0</text>
</g>
<!-- node0x103100b10&#45;&gt;node0x103100a90 -->
<g id="edge3" class="edge">
<title>node0x103100b10:right&#45;&gt;node0x103100a90</title>
<path fill="none" stroke="#48e818" stroke-width="2" d="M439.5,-135.5C439.5,-127.35 440.27,-118.84 441.49,-110.49"/>
<polygon fill="#48e818" stroke="#48e818" stroke-width="2" points="444.66,-112.69 442.88,-102.25 437.76,-111.52 444.66,-112.69"/>
</g>
</g>
</svg>
