<?xml version="1.0" encoding="UTF-8" standalone="no"?>
<!DOCTYPE svg PUBLIC "-//W3C//DTD SVG 1.1//EN"
 "http://www.w3.org/Graphics/SVG/1.1/DTD/svg11.dtd">
<!-- Generated by graphviz version 12.2.0 (20241103.1931)
 -->
<!-- Pages: 1 -->
<svg width="1013pt" height="514pt"
 viewBox="0.00 0.00 1012.88 514.00" xmlns="http://www.w3.org/2000/svg" xmlns:xlink="http://www.w3.org/1999/xlink">
<g id="graph0" class="graph" transform="scale(1 1) rotate(0) translate(4 510)">
<polygon fill="#dcdcdc" stroke="none" points="-4,4 -4,-510 1008.88,-510 1008.88,4 -4,4"/>
<!-- node0x107600890 -->
<g id="node1" class="node">
<title>node0x107600890</title>
<path fill="#fbee21" stroke="#d3c70d" d="M441.25,-407C441.25,-407 651.25,-407 651.25,-407 657.25,-407 663.25,-413 663.25,-419 663.25,-419 663.25,-493.5 663.25,-493.5 663.25,-499.5 657.25,-505.5 651.25,-505.5 651.25,-505.5 441.25,-505.5 441.25,-505.5 435.25,-505.5 429.25,-499.5 429.25,-493.5 429.25,-493.5 429.25,-419 429.25,-419 429.25,-413 435.25,-407 441.25,-407"/>
<text text-anchor="middle" x="546.25" y="-488.2" font-family="Times,serif" font-size="14.00" fill="#000000">/</text>
<text text-anchor="middle" x="546.25" y="-471.7" font-family="Times,serif" font-size="14.00" fill="#000000">0x107600890</text>
<polyline fill="none" stroke="#d3c70d" points="429.25,-464.5 663.25,-464.5"/>
<text text-anchor="middle" x="474.38" y="-447.2" font-family="Times,serif" font-size="14.00" fill="#000000">Left</text>
<text text-anchor="middle" x="474.38" y="-430.7" font-family="Times,serif" font-size="14.00" fill="#000000">+</text>
<text text-anchor="middle" x="474.38" y="-414.2" font-family="Times,serif" font-size="14.00" fill="#000000">0x1076009d0</text>
<polyline fill="none" stroke="#d3c70d" points="519.5,-407 519.5,-464.5"/>
<text text-anchor="middle" x="546.25" y="-447.2" font-family="Times,serif" font-size="14.00" fill="#000000">Parent</text>
<text text-anchor="middle" x="546.25" y="-430.7" font-family="Times,serif" font-size="14.00" fill="#000000">NONE</text>
<text text-anchor="middle" x="546.25" y="-414.2" font-family="Times,serif" font-size="14.00" fill="#000000">0x0</text>
<polyline fill="none" stroke="#d3c70d" points="573,-407 573,-464.5"/>
<text text-anchor="middle" x="618.12" y="-447.2" font-family="Times,serif" font-size="14.00" fill="#000000">Right</text>
<text text-anchor="middle" x="618.12" y="-430.7" font-family="Times,serif" font-size="14.00" fill="#000000">+</text>
<text text-anchor="middle" x="618.12" y="-414.2" font-family="Times,serif" font-size="14.00" fill="#000000">0x1076008d0</text>
</g>
<!-- node0x1076009d0 -->
<g id="node2" class="node">
<title>node0x1076009d0</title>
<path fill="#fbee21" stroke="#d3c70d" d="M208.62,-271.5C208.62,-271.5 453.88,-271.5 453.88,-271.5 459.88,-271.5 465.88,-277.5 465.88,-283.5 465.88,-283.5 465.88,-358 465.88,-358 465.88,-364 459.88,-370 453.88,-370 453.88,-370 208.62,-370 208.62,-370 202.62,-370 196.62,-364 196.62,-358 196.62,-358 196.62,-283.5 196.62,-283.5 196.62,-277.5 202.62,-271.5 208.62,-271.5"/>
<text text-anchor="middle" x="331.25" y="-352.7" font-family="Times,serif" font-size="14.00" fill="#000000">+</text>
<text text-anchor="middle" x="331.25" y="-336.2" font-family="Times,serif" font-size="14.00" fill="#000000">0x1076009d0</text>
<polyline fill="none" stroke="#d3c70d" points="196.62,-329 465.88,-329"/>
<text text-anchor="middle" x="241.38" y="-311.7" font-family="Times,serif" font-size="14.00" fill="#000000">Left</text>
<text text-anchor="middle" x="241.38" y="-295.2" font-family="Times,serif" font-size="14.00" fill="#000000">sin</text>
<text text-anchor="middle" x="241.38" y="-278.7" font-family="Times,serif" font-size="14.00" fill="#000000">0x107600a90</text>
<polyline fill="none" stroke="#d3c70d" points="286.12,-271.5 286.12,-329"/>
<text text-anchor="middle" x="331.25" y="-311.7" font-family="Times,serif" font-size="14.00" fill="#000000">Parent</text>
<text text-anchor="middle" x="331.25" y="-295.2" font-family="Times,serif" font-size="14.00" fill="#000000">/</text>
<text text-anchor="middle" x="331.25" y="-278.7" font-family="Times,serif" font-size="14.00" fill="#000000">0x107600890</text>
<polyline fill="none" stroke="#d3c70d" points="376.38,-271.5 376.38,-329"/>
<text text-anchor="middle" x="421.12" y="-311.7" font-family="Times,serif" font-size="14.00" fill="#000000">Right</text>
<text text-anchor="middle" x="421.12" y="-295.2" font-family="Times,serif" font-size="14.00" fill="#000000">cos</text>
<text text-anchor="middle" x="421.12" y="-278.7" font-family="Times,serif" font-size="14.00" fill="#000000">0x107600a10</text>
</g>
<!-- node0x107600890&#45;&gt;node0x1076009d0 -->
<g id="edge1" class="edge">
<title>node0x107600890:left&#45;&gt;node0x1076009d0</title>
<path fill="none" stroke="#187ae8" stroke-width="2" d="M428.25,-435.75C395.59,-435.75 371.62,-408.27 355.68,-380.3"/>
<polygon fill="#187ae8" stroke="#187ae8" stroke-width="2" points="359.62,-380.25 351.8,-373.09 353.46,-383.56 359.62,-380.25"/>
</g>
<!-- node0x1076008d0 -->
<g id="node7" class="node">
<title>node0x1076008d0</title>
<path fill="#fbee21" stroke="#d3c70d" d="M638.88,-271.5C638.88,-271.5 885.62,-271.5 885.62,-271.5 891.62,-271.5 897.62,-277.5 897.62,-283.5 897.62,-283.5 897.62,-358 897.62,-358 897.62,-364 891.62,-370 885.62,-370 885.62,-370 638.88,-370 638.88,-370 632.88,-370 626.88,-364 626.88,-358 626.88,-358 626.88,-283.5 626.88,-283.5 626.88,-277.5 632.88,-271.5 638.88,-271.5"/>
<text text-anchor="middle" x="762.25" y="-352.7" font-family="Times,serif" font-size="14.00" fill="#000000">+</text>
<text text-anchor="middle" x="762.25" y="-336.2" font-family="Times,serif" font-size="14.00" fill="#000000">0x1076008d0</text>
<polyline fill="none" stroke="#d3c70d" points="626.88,-329 897.62,-329"/>
<text text-anchor="middle" x="672" y="-311.7" font-family="Times,serif" font-size="14.00" fill="#000000">Left</text>
<text text-anchor="middle" x="672" y="-295.2" font-family="Times,serif" font-size="14.00" fill="#000000">ln</text>
<text text-anchor="middle" x="672" y="-278.7" font-family="Times,serif" font-size="14.00" fill="#000000">0x107600950</text>
<polyline fill="none" stroke="#d3c70d" points="717.12,-271.5 717.12,-329"/>
<text text-anchor="middle" x="762.25" y="-311.7" font-family="Times,serif" font-size="14.00" fill="#000000">Parent</text>
<text text-anchor="middle" x="762.25" y="-295.2" font-family="Times,serif" font-size="14.00" fill="#000000">/</text>
<text text-anchor="middle" x="762.25" y="-278.7" font-family="Times,serif" font-size="14.00" fill="#000000">0x107600890</text>
<polyline fill="none" stroke="#d3c70d" points="807.38,-271.5 807.38,-329"/>
<text text-anchor="middle" x="852.5" y="-311.7" font-family="Times,serif" font-size="14.00" fill="#000000">Right</text>
<text text-anchor="middle" x="852.5" y="-295.2" font-family="Times,serif" font-size="14.00" fill="#000000">9</text>
<text text-anchor="middle" x="852.5" y="-278.7" font-family="Times,serif" font-size="14.00" fill="#000000">0x107600910</text>
</g>
<!-- node0x107600890&#45;&gt;node0x1076008d0 -->
<g id="edge9" class="edge">
<title>node0x107600890:right&#45;&gt;node0x1076008d0</title>
<path fill="none" stroke="#48e818" stroke-width="2" d="M664.25,-435.75C697.05,-435.75 721.27,-408.27 737.42,-380.3"/>
<polygon fill="#48e818" stroke="#48e818" stroke-width="2" points="739.64,-383.54 741.35,-373.09 733.49,-380.19 739.64,-383.54"/>
</g>
<!-- node0x107600a90 -->
<g id="node3" class="node">
<title>node0x107600a90</title>
<path fill="#fbee21" stroke="#d3c70d" d="M64.62,-136C64.62,-136 273.88,-136 273.88,-136 279.88,-136 285.88,-142 285.88,-148 285.88,-148 285.88,-222.5 285.88,-222.5 285.88,-228.5 279.88,-234.5 273.88,-234.5 273.88,-234.5 64.63,-234.5 64.63,-234.5 58.62,-234.5 52.62,-228.5 52.62,-222.5 52.62,-222.5 52.62,-148 52.62,-148 52.62,-142 58.62,-136 64.62,-136"/>
<text text-anchor="middle" x="169.25" y="-217.2" font-family="Times,serif" font-size="14.00" fill="#000000">sin</text>
<text text-anchor="middle" x="169.25" y="-200.7" font-family="Times,serif" font-size="14.00" fill="#000000">0x107600a90</text>
<polyline fill="none" stroke="#d3c70d" points="52.62,-193.5 285.88,-193.5"/>
<text text-anchor="middle" x="97.38" y="-176.2" font-family="Times,serif" font-size="14.00" fill="#000000">Left</text>
<text text-anchor="middle" x="97.38" y="-159.7" font-family="Times,serif" font-size="14.00" fill="#000000">ded</text>
<text text-anchor="middle" x="97.38" y="-143.2" font-family="Times,serif" font-size="14.00" fill="#000000">0x107600ad0</text>
<polyline fill="none" stroke="#d3c70d" points="142.12,-136 142.12,-193.5"/>
<text text-anchor="middle" x="187.25" y="-176.2" font-family="Times,serif" font-size="14.00" fill="#000000">Parent</text>
<text text-anchor="middle" x="187.25" y="-159.7" font-family="Times,serif" font-size="14.00" fill="#000000">+</text>
<text text-anchor="middle" x="187.25" y="-143.2" font-family="Times,serif" font-size="14.00" fill="#000000">0x1076009d0</text>
<polyline fill="none" stroke="#d3c70d" points="232.38,-136 232.38,-193.5"/>
<text text-anchor="middle" x="259.12" y="-176.2" font-family="Times,serif" font-size="14.00" fill="#000000">Right</text>
<text text-anchor="middle" x="259.12" y="-159.7" font-family="Times,serif" font-size="14.00" fill="#000000">NONE</text>
<text text-anchor="middle" x="259.12" y="-143.2" font-family="Times,serif" font-size="14.00" fill="#000000">0x0</text>
</g>
<!-- node0x1076009d0&#45;&gt;node0x107600a90 -->
<g id="edge2" class="edge">
<title>node0x1076009d0:left&#45;&gt;node0x107600a90</title>
<path fill="none" stroke="#187ae8" stroke-width="2" d="M241.38,-271C241.38,-261.66 238.8,-252.82 234.63,-244.64"/>
<polygon fill="#187ae8" stroke="#187ae8" stroke-width="2" points="238.53,-244.33 230.37,-237.57 232.54,-247.95 238.53,-244.33"/>
</g>
<!-- node0x107600a10 -->
<g id="node5" class="node">
<title>node0x107600a10</title>
<path fill="#fbee21" stroke="#d3c70d" d="M315.62,-136C315.62,-136 524.88,-136 524.88,-136 530.88,-136 536.88,-142 536.88,-148 536.88,-148 536.88,-222.5 536.88,-222.5 536.88,-228.5 530.88,-234.5 524.88,-234.5 524.88,-234.5 315.62,-234.5 315.62,-234.5 309.62,-234.5 303.62,-228.5 303.62,-222.5 303.62,-222.5 303.62,-148 303.62,-148 303.62,-142 309.62,-136 315.62,-136"/>
<text text-anchor="middle" x="420.25" y="-217.2" font-family="Times,serif" font-size="14.00" fill="#000000">cos</text>
<text text-anchor="middle" x="420.25" y="-200.7" font-family="Times,serif" font-size="14.00" fill="#000000">0x107600a10</text>
<polyline fill="none" stroke="#d3c70d" points="303.62,-193.5 536.88,-193.5"/>
<text text-anchor="middle" x="348.38" y="-176.2" font-family="Times,serif" font-size="14.00" fill="#000000">Left</text>
<text text-anchor="middle" x="348.38" y="-159.7" font-family="Times,serif" font-size="14.00" fill="#000000">ded</text>
<text text-anchor="middle" x="348.38" y="-143.2" font-family="Times,serif" font-size="14.00" fill="#000000">0x107600a50</text>
<polyline fill="none" stroke="#d3c70d" points="393.12,-136 393.12,-193.5"/>
<text text-anchor="middle" x="438.25" y="-176.2" font-family="Times,serif" font-size="14.00" fill="#000000">Parent</text>
<text text-anchor="middle" x="438.25" y="-159.7" font-family="Times,serif" font-size="14.00" fill="#000000">+</text>
<text text-anchor="middle" x="438.25" y="-143.2" font-family="Times,serif" font-size="14.00" fill="#000000">0x1076009d0</text>
<polyline fill="none" stroke="#d3c70d" points="483.38,-136 483.38,-193.5"/>
<text text-anchor="middle" x="510.12" y="-176.2" font-family="Times,serif" font-size="14.00" fill="#000000">Right</text>
<text text-anchor="middle" x="510.12" y="-159.7" font-family="Times,serif" font-size="14.00" fill="#000000">NONE</text>
<text text-anchor="middle" x="510.12" y="-143.2" font-family="Times,serif" font-size="14.00" fill="#000000">0x0</text>
</g>
<!-- node0x1076009d0&#45;&gt;node0x107600a10 -->
<g id="edge5" class="edge">
<title>node0x1076009d0:right&#45;&gt;node0x107600a10</title>
<path fill="none" stroke="#48e818" stroke-width="2" d="M421.12,-271C421.12,-262.91 421.08,-254.38 421.02,-245.98"/>
<polygon fill="#48e818" stroke="#48e818" stroke-width="2" points="424.54,-247.65 420.95,-237.68 417.54,-247.71 424.54,-247.65"/>
</g>
<!-- node0x107600ad0 -->
<g id="node4" class="node">
<title>node0x107600ad0</title>
<path fill="#d5cfe1" stroke="#8797b2" d="M12,-0.5C12,-0.5 184.5,-0.5 184.5,-0.5 190.5,-0.5 196.5,-6.5 196.5,-12.5 196.5,-12.5 196.5,-87 196.5,-87 196.5,-93 190.5,-99 184.5,-99 184.5,-99 12,-99 12,-99 6,-99 0,-93 0,-87 0,-87 0,-12.5 0,-12.5 0,-6.5 6,-0.5 12,-0.5"/>
<text text-anchor="middle" x="98.25" y="-81.7" font-family="Times,serif" font-size="14.00" fill="#000000">ded</text>
<text text-anchor="middle" x="98.25" y="-65.2" font-family="Times,serif" font-size="14.00" fill="#000000">0x107600ad0</text>
<polyline fill="none" stroke="#8797b2" points="0,-58 196.5,-58"/>
<text text-anchor="middle" x="26.75" y="-40.7" font-family="Times,serif" font-size="14.00" fill="#000000">Left</text>
<text text-anchor="middle" x="26.75" y="-24.2" font-family="Times,serif" font-size="14.00" fill="#000000">NONE</text>
<text text-anchor="middle" x="26.75" y="-7.7" font-family="Times,serif" font-size="14.00" fill="#000000">0x0</text>
<polyline fill="none" stroke="#8797b2" points="53.5,-0.5 53.5,-58"/>
<text text-anchor="middle" x="98.25" y="-40.7" font-family="Times,serif" font-size="14.00" fill="#000000">Parent</text>
<text text-anchor="middle" x="98.25" y="-24.2" font-family="Times,serif" font-size="14.00" fill="#000000">sin</text>
<text text-anchor="middle" x="98.25" y="-7.7" font-family="Times,serif" font-size="14.00" fill="#000000">0x107600a90</text>
<polyline fill="none" stroke="#8797b2" points="143,-0.5 143,-58"/>
<text text-anchor="middle" x="169.75" y="-40.7" font-family="Times,serif" font-size="14.00" fill="#000000">Right</text>
<text text-anchor="middle" x="169.75" y="-24.2" font-family="Times,serif" font-size="14.00" fill="#000000">NONE</text>
<text text-anchor="middle" x="169.75" y="-7.7" font-family="Times,serif" font-size="14.00" fill="#000000">0x0</text>
</g>
<!-- node0x107600a90&#45;&gt;node0x107600ad0 -->
<g id="edge3" class="edge">
<title>node0x107600a90:left&#45;&gt;node0x107600ad0</title>
<path fill="none" stroke="#187ae8" stroke-width="2" d="M97.38,-135.5C97.38,-127.41 97.42,-118.88 97.48,-110.48"/>
<polygon fill="#187ae8" stroke="#187ae8" stroke-width="2" points="100.96,-112.21 97.55,-102.18 93.96,-112.15 100.96,-112.21"/>
</g>
<!-- node0x107600a50 -->
<g id="node6" class="node">
<title>node0x107600a50</title>
<path fill="#d5cfe1" stroke="#8797b2" d="M263,-0.5C263,-0.5 435.5,-0.5 435.5,-0.5 441.5,-0.5 447.5,-6.5 447.5,-12.5 447.5,-12.5 447.5,-87 447.5,-87 447.5,-93 441.5,-99 435.5,-99 435.5,-99 263,-99 263,-99 257,-99 251,-93 251,-87 251,-87 251,-12.5 251,-12.5 251,-6.5 257,-0.5 263,-0.5"/>
<text text-anchor="middle" x="349.25" y="-81.7" font-family="Times,serif" font-size="14.00" fill="#000000">ded</text>
<text text-anchor="middle" x="349.25" y="-65.2" font-family="Times,serif" font-size="14.00" fill="#000000">0x107600a50</text>
<polyline fill="none" stroke="#8797b2" points="251,-58 447.5,-58"/>
<text text-anchor="middle" x="277.75" y="-40.7" font-family="Times,serif" font-size="14.00" fill="#000000">Left</text>
<text text-anchor="middle" x="277.75" y="-24.2" font-family="Times,serif" font-size="14.00" fill="#000000">NONE</text>
<text text-anchor="middle" x="277.75" y="-7.7" font-family="Times,serif" font-size="14.00" fill="#000000">0x0</text>
<polyline fill="none" stroke="#8797b2" points="304.5,-0.5 304.5,-58"/>
<text text-anchor="middle" x="349.25" y="-40.7" font-family="Times,serif" font-size="14.00" fill="#000000">Parent</text>
<text text-anchor="middle" x="349.25" y="-24.2" font-family="Times,serif" font-size="14.00" fill="#000000">cos</text>
<text text-anchor="middle" x="349.25" y="-7.7" font-family="Times,serif" font-size="14.00" fill="#000000">0x107600a10</text>
<polyline fill="none" stroke="#8797b2" points="394,-0.5 394,-58"/>
<text text-anchor="middle" x="420.75" y="-40.7" font-family="Times,serif" font-size="14.00" fill="#000000">Right</text>
<text text-anchor="middle" x="420.75" y="-24.2" font-family="Times,serif" font-size="14.00" fill="#000000">NONE</text>
<text text-anchor="middle" x="420.75" y="-7.7" font-family="Times,serif" font-size="14.00" fill="#000000">0x0</text>
</g>
<!-- node0x107600a10&#45;&gt;node0x107600a50 -->
<g id="edge4" class="edge">
<title>node0x107600a10:left&#45;&gt;node0x107600a50</title>
<path fill="none" stroke="#187ae8" stroke-width="2" d="M348.38,-135.5C348.38,-127.41 348.42,-118.88 348.48,-110.48"/>
<polygon fill="#187ae8" stroke="#187ae8" stroke-width="2" points="351.96,-112.21 348.55,-102.18 344.96,-112.15 351.96,-112.21"/>
</g>
<!-- node0x107600950 -->
<g id="node8" class="node">
<title>node0x107600950</title>
<path fill="#fbee21" stroke="#d3c70d" d="M567.25,-136C567.25,-136 777.25,-136 777.25,-136 783.25,-136 789.25,-142 789.25,-148 789.25,-148 789.25,-222.5 789.25,-222.5 789.25,-228.5 783.25,-234.5 777.25,-234.5 777.25,-234.5 567.25,-234.5 567.25,-234.5 561.25,-234.5 555.25,-228.5 555.25,-222.5 555.25,-222.5 555.25,-148 555.25,-148 555.25,-142 561.25,-136 567.25,-136"/>
<text text-anchor="middle" x="672.25" y="-217.2" font-family="Times,serif" font-size="14.00" fill="#000000">ln</text>
<text text-anchor="middle" x="672.25" y="-200.7" font-family="Times,serif" font-size="14.00" fill="#000000">0x107600950</text>
<polyline fill="none" stroke="#d3c70d" points="555.25,-193.5 789.25,-193.5"/>
<text text-anchor="middle" x="600.38" y="-176.2" font-family="Times,serif" font-size="14.00" fill="#000000">Left</text>
<text text-anchor="middle" x="600.38" y="-159.7" font-family="Times,serif" font-size="14.00" fill="#000000">ded</text>
<text text-anchor="middle" x="600.38" y="-143.2" font-family="Times,serif" font-size="14.00" fill="#000000">0x107600990</text>
<polyline fill="none" stroke="#d3c70d" points="645.5,-136 645.5,-193.5"/>
<text text-anchor="middle" x="690.62" y="-176.2" font-family="Times,serif" font-size="14.00" fill="#000000">Parent</text>
<text text-anchor="middle" x="690.62" y="-159.7" font-family="Times,serif" font-size="14.00" fill="#000000">+</text>
<text text-anchor="middle" x="690.62" y="-143.2" font-family="Times,serif" font-size="14.00" fill="#000000">0x1076008d0</text>
<polyline fill="none" stroke="#d3c70d" points="735.75,-136 735.75,-193.5"/>
<text text-anchor="middle" x="762.5" y="-176.2" font-family="Times,serif" font-size="14.00" fill="#000000">Right</text>
<text text-anchor="middle" x="762.5" y="-159.7" font-family="Times,serif" font-size="14.00" fill="#000000">NONE</text>
<text text-anchor="middle" x="762.5" y="-143.2" font-family="Times,serif" font-size="14.00" fill="#000000">0x0</text>
</g>
<!-- node0x1076008d0&#45;&gt;node0x107600950 -->
<g id="edge6" class="edge">
<title>node0x1076008d0:left&#45;&gt;node0x107600950</title>
<path fill="none" stroke="#187ae8" stroke-width="2" d="M672,-271C672,-262.91 672.01,-254.38 672.03,-245.98"/>
<polygon fill="#187ae8" stroke="#187ae8" stroke-width="2" points="675.53,-247.69 672.05,-237.68 668.53,-247.67 675.53,-247.69"/>
</g>
<!-- node0x107600910 -->
<g id="node10" class="node">
<title>node0x107600910</title>
<path fill="#bdef9e" stroke="#99c2a2" d="M819.62,-136C819.62,-136 992.88,-136 992.88,-136 998.88,-136 1004.88,-142 1004.88,-148 1004.88,-148 1004.88,-222.5 1004.88,-222.5 1004.88,-228.5 998.88,-234.5 992.88,-234.5 992.88,-234.5 819.62,-234.5 819.62,-234.5 813.62,-234.5 807.62,-228.5 807.62,-222.5 807.62,-222.5 807.62,-148 807.62,-148 807.62,-142 813.62,-136 819.62,-136"/>
<text text-anchor="middle" x="906.25" y="-217.2" font-family="Times,serif" font-size="14.00" fill="#000000">9</text>
<text text-anchor="middle" x="906.25" y="-200.7" font-family="Times,serif" font-size="14.00" fill="#000000">0x107600910</text>
<polyline fill="none" stroke="#99c2a2" points="807.62,-193.5 1004.88,-193.5"/>
<text text-anchor="middle" x="834.38" y="-176.2" font-family="Times,serif" font-size="14.00" fill="#000000">Left</text>
<text text-anchor="middle" x="834.38" y="-159.7" font-family="Times,serif" font-size="14.00" fill="#000000">NONE</text>
<text text-anchor="middle" x="834.38" y="-143.2" font-family="Times,serif" font-size="14.00" fill="#000000">0x0</text>
<polyline fill="none" stroke="#99c2a2" points="861.12,-136 861.12,-193.5"/>
<text text-anchor="middle" x="906.25" y="-176.2" font-family="Times,serif" font-size="14.00" fill="#000000">Parent</text>
<text text-anchor="middle" x="906.25" y="-159.7" font-family="Times,serif" font-size="14.00" fill="#000000">+</text>
<text text-anchor="middle" x="906.25" y="-143.2" font-family="Times,serif" font-size="14.00" fill="#000000">0x1076008d0</text>
<polyline fill="none" stroke="#99c2a2" points="951.38,-136 951.38,-193.5"/>
<text text-anchor="middle" x="978.12" y="-176.2" font-family="Times,serif" font-size="14.00" fill="#000000">Right</text>
<text text-anchor="middle" x="978.12" y="-159.7" font-family="Times,serif" font-size="14.00" fill="#000000">NONE</text>
<text text-anchor="middle" x="978.12" y="-143.2" font-family="Times,serif" font-size="14.00" fill="#000000">0x0</text>
</g>
<!-- node0x1076008d0&#45;&gt;node0x107600910 -->
<g id="edge8" class="edge">
<title>node0x1076008d0:right&#45;&gt;node0x107600910</title>
<path fill="none" stroke="#48e818" stroke-width="2" d="M852.5,-271C852.5,-262.06 854.66,-253.29 858.12,-245"/>
<polygon fill="#48e818" stroke="#48e818" stroke-width="2" points="860.54,-248 861.79,-237.48 854.25,-244.93 860.54,-248"/>
</g>
<!-- node0x107600990 -->
<g id="node9" class="node">
<title>node0x107600990</title>
<path fill="#d5cfe1" stroke="#8797b2" d="M514.62,-0.5C514.62,-0.5 687.88,-0.5 687.88,-0.5 693.88,-0.5 699.88,-6.5 699.88,-12.5 699.88,-12.5 699.88,-87 699.88,-87 699.88,-93 693.88,-99 687.88,-99 687.88,-99 514.62,-99 514.62,-99 508.62,-99 502.62,-93 502.62,-87 502.62,-87 502.62,-12.5 502.62,-12.5 502.62,-6.5 508.62,-0.5 514.62,-0.5"/>
<text text-anchor="middle" x="601.25" y="-81.7" font-family="Times,serif" font-size="14.00" fill="#000000">ded</text>
<text text-anchor="middle" x="601.25" y="-65.2" font-family="Times,serif" font-size="14.00" fill="#000000">0x107600990</text>
<polyline fill="none" stroke="#8797b2" points="502.62,-58 699.88,-58"/>
<text text-anchor="middle" x="529.38" y="-40.7" font-family="Times,serif" font-size="14.00" fill="#000000">Left</text>
<text text-anchor="middle" x="529.38" y="-24.2" font-family="Times,serif" font-size="14.00" fill="#000000">NONE</text>
<text text-anchor="middle" x="529.38" y="-7.7" font-family="Times,serif" font-size="14.00" fill="#000000">0x0</text>
<polyline fill="none" stroke="#8797b2" points="556.12,-0.5 556.12,-58"/>
<text text-anchor="middle" x="601.25" y="-40.7" font-family="Times,serif" font-size="14.00" fill="#000000">Parent</text>
<text text-anchor="middle" x="601.25" y="-24.2" font-family="Times,serif" font-size="14.00" fill="#000000">ln</text>
<text text-anchor="middle" x="601.25" y="-7.7" font-family="Times,serif" font-size="14.00" fill="#000000">0x107600950</text>
<polyline fill="none" stroke="#8797b2" points="646.38,-0.5 646.38,-58"/>
<text text-anchor="middle" x="673.12" y="-40.7" font-family="Times,serif" font-size="14.00" fill="#000000">Right</text>
<text text-anchor="middle" x="673.12" y="-24.2" font-family="Times,serif" font-size="14.00" fill="#000000">NONE</text>
<text text-anchor="middle" x="673.12" y="-7.7" font-family="Times,serif" font-size="14.00" fill="#000000">0x0</text>
</g>
<!-- node0x107600950&#45;&gt;node0x107600990 -->
<g id="edge7" class="edge">
<title>node0x107600950:left&#45;&gt;node0x107600990</title>
<path fill="none" stroke="#187ae8" stroke-width="2" d="M600.38,-135.5C600.38,-127.41 600.42,-118.88 600.48,-110.48"/>
<polygon fill="#187ae8" stroke="#187ae8" stroke-width="2" points="603.96,-112.21 600.55,-102.18 596.96,-112.15 603.96,-112.21"/>
</g>
</g>
</svg>
