<?xml version="1.0" encoding="UTF-8" standalone="no"?>
<!DOCTYPE svg PUBLIC "-//W3C//DTD SVG 1.1//EN"
 "http://www.w3.org/Graphics/SVG/1.1/DTD/svg11.dtd">
<!-- Generated by graphviz version 12.2.0 (20241103.1931)
 -->
<!-- Pages: 1 -->
<svg width="1171pt" height="785pt"
 viewBox="0.00 0.00 1170.50 785.00" xmlns="http://www.w3.org/2000/svg" xmlns:xlink="http://www.w3.org/1999/xlink">
<g id="graph0" class="graph" transform="scale(1 1) rotate(0) translate(4 781)">
<polygon fill="#dcdcdc" stroke="none" points="-4,4 -4,-781 1166.5,-781 1166.5,4 -4,4"/>
<!-- node0x103c003d0 -->
<g id="node1" class="node">
<title>node0x103c003d0</title>
<path fill="#f18805" stroke="#af3800" d="M512,-678C512,-678 720.5,-678 720.5,-678 726.5,-678 732.5,-684 732.5,-690 732.5,-690 732.5,-764.5 732.5,-764.5 732.5,-770.5 726.5,-776.5 720.5,-776.5 720.5,-776.5 512,-776.5 512,-776.5 506,-776.5 500,-770.5 500,-764.5 500,-764.5 500,-690 500,-690 500,-684 506,-678 512,-678"/>
<text text-anchor="middle" x="616.25" y="-759.2" font-family="Times,serif" font-size="14.00" fill="#000000">*</text>
<text text-anchor="middle" x="616.25" y="-742.7" font-family="Times,serif" font-size="14.00" fill="#000000">0x103c003d0</text>
<polyline fill="none" stroke="#af3800" points="500,-735.5 732.5,-735.5"/>
<text text-anchor="middle" x="544.75" y="-718.2" font-family="Times,serif" font-size="14.00" fill="#000000">Left</text>
<text text-anchor="middle" x="544.75" y="-701.7" font-family="Times,serif" font-size="14.00" fill="#000000">*</text>
<text text-anchor="middle" x="544.75" y="-685.2" font-family="Times,serif" font-size="14.00" fill="#000000">0x103c00790</text>
<polyline fill="none" stroke="#af3800" points="589.5,-678 589.5,-735.5"/>
<text text-anchor="middle" x="616.25" y="-718.2" font-family="Times,serif" font-size="14.00" fill="#000000">Parent</text>
<text text-anchor="middle" x="616.25" y="-701.7" font-family="Times,serif" font-size="14.00" fill="#000000">NONE</text>
<text text-anchor="middle" x="616.25" y="-685.2" font-family="Times,serif" font-size="14.00" fill="#000000">0x0</text>
<polyline fill="none" stroke="#af3800" points="643,-678 643,-735.5"/>
<text text-anchor="middle" x="687.75" y="-718.2" font-family="Times,serif" font-size="14.00" fill="#000000">Right</text>
<text text-anchor="middle" x="687.75" y="-701.7" font-family="Times,serif" font-size="14.00" fill="#000000">*</text>
<text text-anchor="middle" x="687.75" y="-685.2" font-family="Times,serif" font-size="14.00" fill="#000000">0x103c00410</text>
</g>
<!-- node0x103c00790 -->
<g id="node2" class="node">
<title>node0x103c00790</title>
<path fill="#fbee21" stroke="#d3c70d" d="M209,-542.5C209,-542.5 453.5,-542.5 453.5,-542.5 459.5,-542.5 465.5,-548.5 465.5,-554.5 465.5,-554.5 465.5,-629 465.5,-629 465.5,-635 459.5,-641 453.5,-641 453.5,-641 209,-641 209,-641 203,-641 197,-635 197,-629 197,-629 197,-554.5 197,-554.5 197,-548.5 203,-542.5 209,-542.5"/>
<text text-anchor="middle" x="331.25" y="-623.7" font-family="Times,serif" font-size="14.00" fill="#000000">*</text>
<text text-anchor="middle" x="331.25" y="-607.2" font-family="Times,serif" font-size="14.00" fill="#000000">0x103c00790</text>
<polyline fill="none" stroke="#d3c70d" points="197,-600 465.5,-600"/>
<text text-anchor="middle" x="241.75" y="-582.7" font-family="Times,serif" font-size="14.00" fill="#000000">Left</text>
<text text-anchor="middle" x="241.75" y="-566.2" font-family="Times,serif" font-size="14.00" fill="#000000">3</text>
<text text-anchor="middle" x="241.75" y="-549.7" font-family="Times,serif" font-size="14.00" fill="#000000">0x103c009d0</text>
<polyline fill="none" stroke="#d3c70d" points="286.5,-542.5 286.5,-600"/>
<text text-anchor="middle" x="331.25" y="-582.7" font-family="Times,serif" font-size="14.00" fill="#000000">Parent</text>
<text text-anchor="middle" x="331.25" y="-566.2" font-family="Times,serif" font-size="14.00" fill="#000000">*</text>
<text text-anchor="middle" x="331.25" y="-549.7" font-family="Times,serif" font-size="14.00" fill="#000000">0x103c003d0</text>
<polyline fill="none" stroke="#d3c70d" points="376,-542.5 376,-600"/>
<text text-anchor="middle" x="420.75" y="-582.7" font-family="Times,serif" font-size="14.00" fill="#000000">Right</text>
<text text-anchor="middle" x="420.75" y="-566.2" font-family="Times,serif" font-size="14.00" fill="#000000">^</text>
<text text-anchor="middle" x="420.75" y="-549.7" font-family="Times,serif" font-size="14.00" fill="#000000">0x103c007d0</text>
</g>
<!-- node0x103c003d0&#45;&gt;node0x103c00790 -->
<g id="edge1" class="edge">
<title>node0x103c003d0:left&#45;&gt;node0x103c00790</title>
<path fill="none" stroke="#187ae8" stroke-width="2" d="M499,-706.75C453.59,-706.75 411.35,-677.81 380.62,-649.1"/>
<polygon fill="#187ae8" stroke="#187ae8" stroke-width="2" points="384.47,-647.95 374.85,-643.53 379.61,-652.99 384.47,-647.95"/>
</g>
<!-- node0x103c00410 -->
<g id="node10" class="node">
<title>node0x103c00410</title>
<path fill="#fbee21" stroke="#d3c70d" d="M780,-542.5C780,-542.5 1024.5,-542.5 1024.5,-542.5 1030.5,-542.5 1036.5,-548.5 1036.5,-554.5 1036.5,-554.5 1036.5,-629 1036.5,-629 1036.5,-635 1030.5,-641 1024.5,-641 1024.5,-641 780,-641 780,-641 774,-641 768,-635 768,-629 768,-629 768,-554.5 768,-554.5 768,-548.5 774,-542.5 780,-542.5"/>
<text text-anchor="middle" x="902.25" y="-623.7" font-family="Times,serif" font-size="14.00" fill="#000000">*</text>
<text text-anchor="middle" x="902.25" y="-607.2" font-family="Times,serif" font-size="14.00" fill="#000000">0x103c00410</text>
<polyline fill="none" stroke="#d3c70d" points="768,-600 1036.5,-600"/>
<text text-anchor="middle" x="812.75" y="-582.7" font-family="Times,serif" font-size="14.00" fill="#000000">Left</text>
<text text-anchor="middle" x="812.75" y="-566.2" font-family="Times,serif" font-size="14.00" fill="#000000">*</text>
<text text-anchor="middle" x="812.75" y="-549.7" font-family="Times,serif" font-size="14.00" fill="#000000">0x103c00610</text>
<polyline fill="none" stroke="#d3c70d" points="857.5,-542.5 857.5,-600"/>
<text text-anchor="middle" x="902.25" y="-582.7" font-family="Times,serif" font-size="14.00" fill="#000000">Parent</text>
<text text-anchor="middle" x="902.25" y="-566.2" font-family="Times,serif" font-size="14.00" fill="#000000">*</text>
<text text-anchor="middle" x="902.25" y="-549.7" font-family="Times,serif" font-size="14.00" fill="#000000">0x103c003d0</text>
<polyline fill="none" stroke="#d3c70d" points="947,-542.5 947,-600"/>
<text text-anchor="middle" x="991.75" y="-582.7" font-family="Times,serif" font-size="14.00" fill="#000000">Right</text>
<text text-anchor="middle" x="991.75" y="-566.2" font-family="Times,serif" font-size="14.00" fill="#000000">2</text>
<text text-anchor="middle" x="991.75" y="-549.7" font-family="Times,serif" font-size="14.00" fill="#000000">0x103c00450</text>
</g>
<!-- node0x103c003d0&#45;&gt;node0x103c00410 -->
<g id="edge16" class="edge">
<title>node0x103c003d0:right&#45;&gt;node0x103c00410</title>
<path fill="none" stroke="#48e818" stroke-width="2" d="M733.5,-706.75C779.1,-706.75 821.58,-677.81 852.52,-649.1"/>
<polygon fill="#48e818" stroke="#48e818" stroke-width="2" points="853.54,-652.97 858.34,-643.52 848.7,-647.91 853.54,-652.97"/>
</g>
<!-- node0x103c009d0 -->
<g id="node3" class="node">
<title>node0x103c009d0</title>
<path fill="#bdef9e" stroke="#99c2a2" d="M83,-407C83,-407 255.5,-407 255.5,-407 261.5,-407 267.5,-413 267.5,-419 267.5,-419 267.5,-493.5 267.5,-493.5 267.5,-499.5 261.5,-505.5 255.5,-505.5 255.5,-505.5 83,-505.5 83,-505.5 77,-505.5 71,-499.5 71,-493.5 71,-493.5 71,-419 71,-419 71,-413 77,-407 83,-407"/>
<text text-anchor="middle" x="169.25" y="-488.2" font-family="Times,serif" font-size="14.00" fill="#000000">3</text>
<text text-anchor="middle" x="169.25" y="-471.7" font-family="Times,serif" font-size="14.00" fill="#000000">0x103c009d0</text>
<polyline fill="none" stroke="#99c2a2" points="71,-464.5 267.5,-464.5"/>
<text text-anchor="middle" x="97.75" y="-447.2" font-family="Times,serif" font-size="14.00" fill="#000000">Left</text>
<text text-anchor="middle" x="97.75" y="-430.7" font-family="Times,serif" font-size="14.00" fill="#000000">NONE</text>
<text text-anchor="middle" x="97.75" y="-414.2" font-family="Times,serif" font-size="14.00" fill="#000000">0x0</text>
<polyline fill="none" stroke="#99c2a2" points="124.5,-407 124.5,-464.5"/>
<text text-anchor="middle" x="169.25" y="-447.2" font-family="Times,serif" font-size="14.00" fill="#000000">Parent</text>
<text text-anchor="middle" x="169.25" y="-430.7" font-family="Times,serif" font-size="14.00" fill="#000000">*</text>
<text text-anchor="middle" x="169.25" y="-414.2" font-family="Times,serif" font-size="14.00" fill="#000000">0x103c00790</text>
<polyline fill="none" stroke="#99c2a2" points="214,-407 214,-464.5"/>
<text text-anchor="middle" x="240.75" y="-447.2" font-family="Times,serif" font-size="14.00" fill="#000000">Right</text>
<text text-anchor="middle" x="240.75" y="-430.7" font-family="Times,serif" font-size="14.00" fill="#000000">NONE</text>
<text text-anchor="middle" x="240.75" y="-414.2" font-family="Times,serif" font-size="14.00" fill="#000000">0x0</text>
</g>
<!-- node0x103c00790&#45;&gt;node0x103c009d0 -->
<g id="edge2" class="edge">
<title>node0x103c00790:left&#45;&gt;node0x103c009d0</title>
<path fill="none" stroke="#187ae8" stroke-width="2" d="M241.75,-542C241.75,-532.64 239.16,-523.79 234.97,-515.6"/>
<polygon fill="#187ae8" stroke="#187ae8" stroke-width="2" points="238.86,-515.27 230.69,-508.52 232.87,-518.89 238.86,-515.27"/>
</g>
<!-- node0x103c007d0 -->
<g id="node4" class="node">
<title>node0x103c007d0</title>
<path fill="#fbee21" stroke="#d3c70d" d="M298,-407C298,-407 542.5,-407 542.5,-407 548.5,-407 554.5,-413 554.5,-419 554.5,-419 554.5,-493.5 554.5,-493.5 554.5,-499.5 548.5,-505.5 542.5,-505.5 542.5,-505.5 298,-505.5 298,-505.5 292,-505.5 286,-499.5 286,-493.5 286,-493.5 286,-419 286,-419 286,-413 292,-407 298,-407"/>
<text text-anchor="middle" x="420.25" y="-488.2" font-family="Times,serif" font-size="14.00" fill="#000000">^</text>
<text text-anchor="middle" x="420.25" y="-471.7" font-family="Times,serif" font-size="14.00" fill="#000000">0x103c007d0</text>
<polyline fill="none" stroke="#d3c70d" points="286,-464.5 554.5,-464.5"/>
<text text-anchor="middle" x="330.75" y="-447.2" font-family="Times,serif" font-size="14.00" fill="#000000">Left</text>
<text text-anchor="middle" x="330.75" y="-430.7" font-family="Times,serif" font-size="14.00" fill="#000000">cos</text>
<text text-anchor="middle" x="330.75" y="-414.2" font-family="Times,serif" font-size="14.00" fill="#000000">0x103c008d0</text>
<polyline fill="none" stroke="#d3c70d" points="375.5,-407 375.5,-464.5"/>
<text text-anchor="middle" x="420.25" y="-447.2" font-family="Times,serif" font-size="14.00" fill="#000000">Parent</text>
<text text-anchor="middle" x="420.25" y="-430.7" font-family="Times,serif" font-size="14.00" fill="#000000">*</text>
<text text-anchor="middle" x="420.25" y="-414.2" font-family="Times,serif" font-size="14.00" fill="#000000">0x103c00790</text>
<polyline fill="none" stroke="#d3c70d" points="465,-407 465,-464.5"/>
<text text-anchor="middle" x="509.75" y="-447.2" font-family="Times,serif" font-size="14.00" fill="#000000">Right</text>
<text text-anchor="middle" x="509.75" y="-430.7" font-family="Times,serif" font-size="14.00" fill="#000000">2</text>
<text text-anchor="middle" x="509.75" y="-414.2" font-family="Times,serif" font-size="14.00" fill="#000000">0x103c00390</text>
</g>
<!-- node0x103c00790&#45;&gt;node0x103c007d0 -->
<g id="edge8" class="edge">
<title>node0x103c00790:right&#45;&gt;node0x103c007d0</title>
<path fill="none" stroke="#48e818" stroke-width="2" d="M420.75,-542C420.75,-533.91 420.73,-525.38 420.69,-516.98"/>
<polygon fill="#48e818" stroke="#48e818" stroke-width="2" points="424.2,-518.66 420.65,-508.68 417.2,-518.7 424.2,-518.66"/>
</g>
<!-- node0x103c008d0 -->
<g id="node5" class="node">
<title>node0x103c008d0</title>
<path fill="#fbee21" stroke="#d3c70d" d="M172,-271.5C172,-271.5 380.5,-271.5 380.5,-271.5 386.5,-271.5 392.5,-277.5 392.5,-283.5 392.5,-283.5 392.5,-358 392.5,-358 392.5,-364 386.5,-370 380.5,-370 380.5,-370 172,-370 172,-370 166,-370 160,-364 160,-358 160,-358 160,-283.5 160,-283.5 160,-277.5 166,-271.5 172,-271.5"/>
<text text-anchor="middle" x="276.25" y="-352.7" font-family="Times,serif" font-size="14.00" fill="#000000">cos</text>
<text text-anchor="middle" x="276.25" y="-336.2" font-family="Times,serif" font-size="14.00" fill="#000000">0x103c008d0</text>
<polyline fill="none" stroke="#d3c70d" points="160,-329 392.5,-329"/>
<text text-anchor="middle" x="204.75" y="-311.7" font-family="Times,serif" font-size="14.00" fill="#000000">Left</text>
<text text-anchor="middle" x="204.75" y="-295.2" font-family="Times,serif" font-size="14.00" fill="#000000">*</text>
<text text-anchor="middle" x="204.75" y="-278.7" font-family="Times,serif" font-size="14.00" fill="#000000">0x103c00910</text>
<polyline fill="none" stroke="#d3c70d" points="249.5,-271.5 249.5,-329"/>
<text text-anchor="middle" x="294.25" y="-311.7" font-family="Times,serif" font-size="14.00" fill="#000000">Parent</text>
<text text-anchor="middle" x="294.25" y="-295.2" font-family="Times,serif" font-size="14.00" fill="#000000">^</text>
<text text-anchor="middle" x="294.25" y="-278.7" font-family="Times,serif" font-size="14.00" fill="#000000">0x103c007d0</text>
<polyline fill="none" stroke="#d3c70d" points="339,-271.5 339,-329"/>
<text text-anchor="middle" x="365.75" y="-311.7" font-family="Times,serif" font-size="14.00" fill="#000000">Right</text>
<text text-anchor="middle" x="365.75" y="-295.2" font-family="Times,serif" font-size="14.00" fill="#000000">NONE</text>
<text text-anchor="middle" x="365.75" y="-278.7" font-family="Times,serif" font-size="14.00" fill="#000000">0x0</text>
</g>
<!-- node0x103c007d0&#45;&gt;node0x103c008d0 -->
<g id="edge3" class="edge">
<title>node0x103c007d0:left&#45;&gt;node0x103c008d0</title>
<path fill="none" stroke="#187ae8" stroke-width="2" d="M330.75,-406.5C330.75,-397.52 328.56,-388.74 325.06,-380.43"/>
<polygon fill="#187ae8" stroke="#187ae8" stroke-width="2" points="328.9,-380.3 321.33,-372.89 322.63,-383.41 328.9,-380.3"/>
</g>
<!-- node0x103c00390 -->
<g id="node9" class="node">
<title>node0x103c00390</title>
<path fill="#bdef9e" stroke="#99c2a2" d="M423,-271.5C423,-271.5 595.5,-271.5 595.5,-271.5 601.5,-271.5 607.5,-277.5 607.5,-283.5 607.5,-283.5 607.5,-358 607.5,-358 607.5,-364 601.5,-370 595.5,-370 595.5,-370 423,-370 423,-370 417,-370 411,-364 411,-358 411,-358 411,-283.5 411,-283.5 411,-277.5 417,-271.5 423,-271.5"/>
<text text-anchor="middle" x="509.25" y="-352.7" font-family="Times,serif" font-size="14.00" fill="#000000">2</text>
<text text-anchor="middle" x="509.25" y="-336.2" font-family="Times,serif" font-size="14.00" fill="#000000">0x103c00390</text>
<polyline fill="none" stroke="#99c2a2" points="411,-329 607.5,-329"/>
<text text-anchor="middle" x="437.75" y="-311.7" font-family="Times,serif" font-size="14.00" fill="#000000">Left</text>
<text text-anchor="middle" x="437.75" y="-295.2" font-family="Times,serif" font-size="14.00" fill="#000000">NONE</text>
<text text-anchor="middle" x="437.75" y="-278.7" font-family="Times,serif" font-size="14.00" fill="#000000">0x0</text>
<polyline fill="none" stroke="#99c2a2" points="464.5,-271.5 464.5,-329"/>
<text text-anchor="middle" x="509.25" y="-311.7" font-family="Times,serif" font-size="14.00" fill="#000000">Parent</text>
<text text-anchor="middle" x="509.25" y="-295.2" font-family="Times,serif" font-size="14.00" fill="#000000">^</text>
<text text-anchor="middle" x="509.25" y="-278.7" font-family="Times,serif" font-size="14.00" fill="#000000">0x103c007d0</text>
<polyline fill="none" stroke="#99c2a2" points="554,-271.5 554,-329"/>
<text text-anchor="middle" x="580.75" y="-311.7" font-family="Times,serif" font-size="14.00" fill="#000000">Right</text>
<text text-anchor="middle" x="580.75" y="-295.2" font-family="Times,serif" font-size="14.00" fill="#000000">NONE</text>
<text text-anchor="middle" x="580.75" y="-278.7" font-family="Times,serif" font-size="14.00" fill="#000000">0x0</text>
</g>
<!-- node0x103c007d0&#45;&gt;node0x103c00390 -->
<g id="edge7" class="edge">
<title>node0x103c007d0:right&#45;&gt;node0x103c00390</title>
<path fill="none" stroke="#48e818" stroke-width="2" d="M509.75,-406.5C509.75,-398.41 509.73,-389.88 509.69,-381.48"/>
<polygon fill="#48e818" stroke="#48e818" stroke-width="2" points="513.2,-383.16 509.65,-373.18 506.2,-383.2 513.2,-383.16"/>
</g>
<!-- node0x103c00910 -->
<g id="node6" class="node">
<title>node0x103c00910</title>
<path fill="#fbee21" stroke="#d3c70d" d="M83,-136C83,-136 327.5,-136 327.5,-136 333.5,-136 339.5,-142 339.5,-148 339.5,-148 339.5,-222.5 339.5,-222.5 339.5,-228.5 333.5,-234.5 327.5,-234.5 327.5,-234.5 83,-234.5 83,-234.5 77,-234.5 71,-228.5 71,-222.5 71,-222.5 71,-148 71,-148 71,-142 77,-136 83,-136"/>
<text text-anchor="middle" x="205.25" y="-217.2" font-family="Times,serif" font-size="14.00" fill="#000000">*</text>
<text text-anchor="middle" x="205.25" y="-200.7" font-family="Times,serif" font-size="14.00" fill="#000000">0x103c00910</text>
<polyline fill="none" stroke="#d3c70d" points="71,-193.5 339.5,-193.5"/>
<text text-anchor="middle" x="115.75" y="-176.2" font-family="Times,serif" font-size="14.00" fill="#000000">Left</text>
<text text-anchor="middle" x="115.75" y="-159.7" font-family="Times,serif" font-size="14.00" fill="#000000">x</text>
<text text-anchor="middle" x="115.75" y="-143.2" font-family="Times,serif" font-size="14.00" fill="#000000">0x103c00990</text>
<polyline fill="none" stroke="#d3c70d" points="160.5,-136 160.5,-193.5"/>
<text text-anchor="middle" x="205.25" y="-176.2" font-family="Times,serif" font-size="14.00" fill="#000000">Parent</text>
<text text-anchor="middle" x="205.25" y="-159.7" font-family="Times,serif" font-size="14.00" fill="#000000">cos</text>
<text text-anchor="middle" x="205.25" y="-143.2" font-family="Times,serif" font-size="14.00" fill="#000000">0x103c008d0</text>
<polyline fill="none" stroke="#d3c70d" points="250,-136 250,-193.5"/>
<text text-anchor="middle" x="294.75" y="-176.2" font-family="Times,serif" font-size="14.00" fill="#000000">Right</text>
<text text-anchor="middle" x="294.75" y="-159.7" font-family="Times,serif" font-size="14.00" fill="#000000">2</text>
<text text-anchor="middle" x="294.75" y="-143.2" font-family="Times,serif" font-size="14.00" fill="#000000">0x103c00950</text>
</g>
<!-- node0x103c008d0&#45;&gt;node0x103c00910 -->
<g id="edge4" class="edge">
<title>node0x103c008d0:left&#45;&gt;node0x103c00910</title>
<path fill="none" stroke="#187ae8" stroke-width="2" d="M204.75,-271C204.75,-262.91 204.77,-254.38 204.81,-245.98"/>
<polygon fill="#187ae8" stroke="#187ae8" stroke-width="2" points="208.3,-247.7 204.85,-237.68 201.3,-247.66 208.3,-247.7"/>
</g>
<!-- node0x103c00990 -->
<g id="node7" class="node">
<title>node0x103c00990</title>
<path fill="#d5cfe1" stroke="#8797b2" d="M12,-0.5C12,-0.5 184.5,-0.5 184.5,-0.5 190.5,-0.5 196.5,-6.5 196.5,-12.5 196.5,-12.5 196.5,-87 196.5,-87 196.5,-93 190.5,-99 184.5,-99 184.5,-99 12,-99 12,-99 6,-99 0,-93 0,-87 0,-87 0,-12.5 0,-12.5 0,-6.5 6,-0.5 12,-0.5"/>
<text text-anchor="middle" x="98.25" y="-81.7" font-family="Times,serif" font-size="14.00" fill="#000000">x</text>
<text text-anchor="middle" x="98.25" y="-65.2" font-family="Times,serif" font-size="14.00" fill="#000000">0x103c00990</text>
<polyline fill="none" stroke="#8797b2" points="0,-58 196.5,-58"/>
<text text-anchor="middle" x="26.75" y="-40.7" font-family="Times,serif" font-size="14.00" fill="#000000">Left</text>
<text text-anchor="middle" x="26.75" y="-24.2" font-family="Times,serif" font-size="14.00" fill="#000000">NONE</text>
<text text-anchor="middle" x="26.75" y="-7.7" font-family="Times,serif" font-size="14.00" fill="#000000">0x0</text>
<polyline fill="none" stroke="#8797b2" points="53.5,-0.5 53.5,-58"/>
<text text-anchor="middle" x="98.25" y="-40.7" font-family="Times,serif" font-size="14.00" fill="#000000">Parent</text>
<text text-anchor="middle" x="98.25" y="-24.2" font-family="Times,serif" font-size="14.00" fill="#000000">*</text>
<text text-anchor="middle" x="98.25" y="-7.7" font-family="Times,serif" font-size="14.00" fill="#000000">0x103c00910</text>
<polyline fill="none" stroke="#8797b2" points="143,-0.5 143,-58"/>
<text text-anchor="middle" x="169.75" y="-40.7" font-family="Times,serif" font-size="14.00" fill="#000000">Right</text>
<text text-anchor="middle" x="169.75" y="-24.2" font-family="Times,serif" font-size="14.00" fill="#000000">NONE</text>
<text text-anchor="middle" x="169.75" y="-7.7" font-family="Times,serif" font-size="14.00" fill="#000000">0x0</text>
</g>
<!-- node0x103c00910&#45;&gt;node0x103c00990 -->
<g id="edge5" class="edge">
<title>node0x103c00910:left&#45;&gt;node0x103c00990</title>
<path fill="none" stroke="#187ae8" stroke-width="2" d="M115.75,-135.5C115.75,-127.34 114.96,-118.83 113.72,-110.48"/>
<polygon fill="#187ae8" stroke="#187ae8" stroke-width="2" points="117.45,-111.49 112.29,-102.23 110.55,-112.68 117.45,-111.49"/>
</g>
<!-- node0x103c00950 -->
<g id="node8" class="node">
<title>node0x103c00950</title>
<path fill="#bdef9e" stroke="#99c2a2" d="M227,-0.5C227,-0.5 399.5,-0.5 399.5,-0.5 405.5,-0.5 411.5,-6.5 411.5,-12.5 411.5,-12.5 411.5,-87 411.5,-87 411.5,-93 405.5,-99 399.5,-99 399.5,-99 227,-99 227,-99 221,-99 215,-93 215,-87 215,-87 215,-12.5 215,-12.5 215,-6.5 221,-0.5 227,-0.5"/>
<text text-anchor="middle" x="313.25" y="-81.7" font-family="Times,serif" font-size="14.00" fill="#000000">2</text>
<text text-anchor="middle" x="313.25" y="-65.2" font-family="Times,serif" font-size="14.00" fill="#000000">0x103c00950</text>
<polyline fill="none" stroke="#99c2a2" points="215,-58 411.5,-58"/>
<text text-anchor="middle" x="241.75" y="-40.7" font-family="Times,serif" font-size="14.00" fill="#000000">Left</text>
<text text-anchor="middle" x="241.75" y="-24.2" font-family="Times,serif" font-size="14.00" fill="#000000">NONE</text>
<text text-anchor="middle" x="241.75" y="-7.7" font-family="Times,serif" font-size="14.00" fill="#000000">0x0</text>
<polyline fill="none" stroke="#99c2a2" points="268.5,-0.5 268.5,-58"/>
<text text-anchor="middle" x="313.25" y="-40.7" font-family="Times,serif" font-size="14.00" fill="#000000">Parent</text>
<text text-anchor="middle" x="313.25" y="-24.2" font-family="Times,serif" font-size="14.00" fill="#000000">*</text>
<text text-anchor="middle" x="313.25" y="-7.7" font-family="Times,serif" font-size="14.00" fill="#000000">0x103c00910</text>
<polyline fill="none" stroke="#99c2a2" points="358,-0.5 358,-58"/>
<text text-anchor="middle" x="384.75" y="-40.7" font-family="Times,serif" font-size="14.00" fill="#000000">Right</text>
<text text-anchor="middle" x="384.75" y="-24.2" font-family="Times,serif" font-size="14.00" fill="#000000">NONE</text>
<text text-anchor="middle" x="384.75" y="-7.7" font-family="Times,serif" font-size="14.00" fill="#000000">0x0</text>
</g>
<!-- node0x103c00910&#45;&gt;node0x103c00950 -->
<g id="edge6" class="edge">
<title>node0x103c00910:right&#45;&gt;node0x103c00950</title>
<path fill="none" stroke="#48e818" stroke-width="2" d="M294.75,-135.5C294.75,-127.32 295.58,-118.8 296.89,-110.44"/>
<polygon fill="#48e818" stroke="#48e818" stroke-width="2" points="300.05,-112.65 298.4,-102.18 293.16,-111.39 300.05,-112.65"/>
</g>
<!-- node0x103c00610 -->
<g id="node11" class="node">
<title>node0x103c00610</title>
<path fill="#fbee21" stroke="#d3c70d" d="M691,-407C691,-407 935.5,-407 935.5,-407 941.5,-407 947.5,-413 947.5,-419 947.5,-419 947.5,-493.5 947.5,-493.5 947.5,-499.5 941.5,-505.5 935.5,-505.5 935.5,-505.5 691,-505.5 691,-505.5 685,-505.5 679,-499.5 679,-493.5 679,-493.5 679,-419 679,-419 679,-413 685,-407 691,-407"/>
<text text-anchor="middle" x="813.25" y="-488.2" font-family="Times,serif" font-size="14.00" fill="#000000">*</text>
<text text-anchor="middle" x="813.25" y="-471.7" font-family="Times,serif" font-size="14.00" fill="#000000">0x103c00610</text>
<polyline fill="none" stroke="#d3c70d" points="679,-464.5 947.5,-464.5"/>
<text text-anchor="middle" x="723.75" y="-447.2" font-family="Times,serif" font-size="14.00" fill="#000000">Left</text>
<text text-anchor="middle" x="723.75" y="-430.7" font-family="Times,serif" font-size="14.00" fill="#000000">&#45;1</text>
<text text-anchor="middle" x="723.75" y="-414.2" font-family="Times,serif" font-size="14.00" fill="#000000">0x103c00750</text>
<polyline fill="none" stroke="#d3c70d" points="768.5,-407 768.5,-464.5"/>
<text text-anchor="middle" x="813.25" y="-447.2" font-family="Times,serif" font-size="14.00" fill="#000000">Parent</text>
<text text-anchor="middle" x="813.25" y="-430.7" font-family="Times,serif" font-size="14.00" fill="#000000">*</text>
<text text-anchor="middle" x="813.25" y="-414.2" font-family="Times,serif" font-size="14.00" fill="#000000">0x103c00410</text>
<polyline fill="none" stroke="#d3c70d" points="858,-407 858,-464.5"/>
<text text-anchor="middle" x="902.75" y="-447.2" font-family="Times,serif" font-size="14.00" fill="#000000">Right</text>
<text text-anchor="middle" x="902.75" y="-430.7" font-family="Times,serif" font-size="14.00" fill="#000000">sin</text>
<text text-anchor="middle" x="902.75" y="-414.2" font-family="Times,serif" font-size="14.00" fill="#000000">0x103c00650</text>
</g>
<!-- node0x103c00410&#45;&gt;node0x103c00610 -->
<g id="edge9" class="edge">
<title>node0x103c00410:left&#45;&gt;node0x103c00610</title>
<path fill="none" stroke="#187ae8" stroke-width="2" d="M812.75,-542C812.75,-533.91 812.77,-525.38 812.81,-516.98"/>
<polygon fill="#187ae8" stroke="#187ae8" stroke-width="2" points="816.3,-518.7 812.85,-508.68 809.3,-518.66 816.3,-518.7"/>
</g>
<!-- node0x103c00450 -->
<g id="node17" class="node">
<title>node0x103c00450</title>
<path fill="#bdef9e" stroke="#99c2a2" d="M978,-407C978,-407 1150.5,-407 1150.5,-407 1156.5,-407 1162.5,-413 1162.5,-419 1162.5,-419 1162.5,-493.5 1162.5,-493.5 1162.5,-499.5 1156.5,-505.5 1150.5,-505.5 1150.5,-505.5 978,-505.5 978,-505.5 972,-505.5 966,-499.5 966,-493.5 966,-493.5 966,-419 966,-419 966,-413 972,-407 978,-407"/>
<text text-anchor="middle" x="1064.25" y="-488.2" font-family="Times,serif" font-size="14.00" fill="#000000">2</text>
<text text-anchor="middle" x="1064.25" y="-471.7" font-family="Times,serif" font-size="14.00" fill="#000000">0x103c00450</text>
<polyline fill="none" stroke="#99c2a2" points="966,-464.5 1162.5,-464.5"/>
<text text-anchor="middle" x="992.75" y="-447.2" font-family="Times,serif" font-size="14.00" fill="#000000">Left</text>
<text text-anchor="middle" x="992.75" y="-430.7" font-family="Times,serif" font-size="14.00" fill="#000000">NONE</text>
<text text-anchor="middle" x="992.75" y="-414.2" font-family="Times,serif" font-size="14.00" fill="#000000">0x0</text>
<polyline fill="none" stroke="#99c2a2" points="1019.5,-407 1019.5,-464.5"/>
<text text-anchor="middle" x="1064.25" y="-447.2" font-family="Times,serif" font-size="14.00" fill="#000000">Parent</text>
<text text-anchor="middle" x="1064.25" y="-430.7" font-family="Times,serif" font-size="14.00" fill="#000000">*</text>
<text text-anchor="middle" x="1064.25" y="-414.2" font-family="Times,serif" font-size="14.00" fill="#000000">0x103c00410</text>
<polyline fill="none" stroke="#99c2a2" points="1109,-407 1109,-464.5"/>
<text text-anchor="middle" x="1135.75" y="-447.2" font-family="Times,serif" font-size="14.00" fill="#000000">Right</text>
<text text-anchor="middle" x="1135.75" y="-430.7" font-family="Times,serif" font-size="14.00" fill="#000000">NONE</text>
<text text-anchor="middle" x="1135.75" y="-414.2" font-family="Times,serif" font-size="14.00" fill="#000000">0x0</text>
</g>
<!-- node0x103c00410&#45;&gt;node0x103c00450 -->
<g id="edge15" class="edge">
<title>node0x103c00410:right&#45;&gt;node0x103c00450</title>
<path fill="none" stroke="#48e818" stroke-width="2" d="M991.75,-542C991.75,-532.64 994.34,-523.79 998.53,-515.6"/>
<polygon fill="#48e818" stroke="#48e818" stroke-width="2" points="1000.63,-518.89 1002.81,-508.52 994.64,-515.27 1000.63,-518.89"/>
</g>
<!-- node0x103c00750 -->
<g id="node12" class="node">
<title>node0x103c00750</title>
<path fill="#bdef9e" stroke="#99c2a2" d="M638,-271.5C638,-271.5 810.5,-271.5 810.5,-271.5 816.5,-271.5 822.5,-277.5 822.5,-283.5 822.5,-283.5 822.5,-358 822.5,-358 822.5,-364 816.5,-370 810.5,-370 810.5,-370 638,-370 638,-370 632,-370 626,-364 626,-358 626,-358 626,-283.5 626,-283.5 626,-277.5 632,-271.5 638,-271.5"/>
<text text-anchor="middle" x="724.25" y="-352.7" font-family="Times,serif" font-size="14.00" fill="#000000">&#45;1</text>
<text text-anchor="middle" x="724.25" y="-336.2" font-family="Times,serif" font-size="14.00" fill="#000000">0x103c00750</text>
<polyline fill="none" stroke="#99c2a2" points="626,-329 822.5,-329"/>
<text text-anchor="middle" x="652.75" y="-311.7" font-family="Times,serif" font-size="14.00" fill="#000000">Left</text>
<text text-anchor="middle" x="652.75" y="-295.2" font-family="Times,serif" font-size="14.00" fill="#000000">NONE</text>
<text text-anchor="middle" x="652.75" y="-278.7" font-family="Times,serif" font-size="14.00" fill="#000000">0x0</text>
<polyline fill="none" stroke="#99c2a2" points="679.5,-271.5 679.5,-329"/>
<text text-anchor="middle" x="724.25" y="-311.7" font-family="Times,serif" font-size="14.00" fill="#000000">Parent</text>
<text text-anchor="middle" x="724.25" y="-295.2" font-family="Times,serif" font-size="14.00" fill="#000000">*</text>
<text text-anchor="middle" x="724.25" y="-278.7" font-family="Times,serif" font-size="14.00" fill="#000000">0x103c00610</text>
<polyline fill="none" stroke="#99c2a2" points="769,-271.5 769,-329"/>
<text text-anchor="middle" x="795.75" y="-311.7" font-family="Times,serif" font-size="14.00" fill="#000000">Right</text>
<text text-anchor="middle" x="795.75" y="-295.2" font-family="Times,serif" font-size="14.00" fill="#000000">NONE</text>
<text text-anchor="middle" x="795.75" y="-278.7" font-family="Times,serif" font-size="14.00" fill="#000000">0x0</text>
</g>
<!-- node0x103c00610&#45;&gt;node0x103c00750 -->
<g id="edge10" class="edge">
<title>node0x103c00610:left&#45;&gt;node0x103c00750</title>
<path fill="none" stroke="#187ae8" stroke-width="2" d="M723.75,-406.5C723.75,-398.41 723.77,-389.88 723.81,-381.48"/>
<polygon fill="#187ae8" stroke="#187ae8" stroke-width="2" points="727.3,-383.2 723.85,-373.18 720.3,-383.16 727.3,-383.2"/>
</g>
<!-- node0x103c00650 -->
<g id="node13" class="node">
<title>node0x103c00650</title>
<path fill="#fbee21" stroke="#d3c70d" d="M853,-271.5C853,-271.5 1061.5,-271.5 1061.5,-271.5 1067.5,-271.5 1073.5,-277.5 1073.5,-283.5 1073.5,-283.5 1073.5,-358 1073.5,-358 1073.5,-364 1067.5,-370 1061.5,-370 1061.5,-370 853,-370 853,-370 847,-370 841,-364 841,-358 841,-358 841,-283.5 841,-283.5 841,-277.5 847,-271.5 853,-271.5"/>
<text text-anchor="middle" x="957.25" y="-352.7" font-family="Times,serif" font-size="14.00" fill="#000000">sin</text>
<text text-anchor="middle" x="957.25" y="-336.2" font-family="Times,serif" font-size="14.00" fill="#000000">0x103c00650</text>
<polyline fill="none" stroke="#d3c70d" points="841,-329 1073.5,-329"/>
<text text-anchor="middle" x="885.75" y="-311.7" font-family="Times,serif" font-size="14.00" fill="#000000">Left</text>
<text text-anchor="middle" x="885.75" y="-295.2" font-family="Times,serif" font-size="14.00" fill="#000000">*</text>
<text text-anchor="middle" x="885.75" y="-278.7" font-family="Times,serif" font-size="14.00" fill="#000000">0x103c00690</text>
<polyline fill="none" stroke="#d3c70d" points="930.5,-271.5 930.5,-329"/>
<text text-anchor="middle" x="975.25" y="-311.7" font-family="Times,serif" font-size="14.00" fill="#000000">Parent</text>
<text text-anchor="middle" x="975.25" y="-295.2" font-family="Times,serif" font-size="14.00" fill="#000000">*</text>
<text text-anchor="middle" x="975.25" y="-278.7" font-family="Times,serif" font-size="14.00" fill="#000000">0x103c00610</text>
<polyline fill="none" stroke="#d3c70d" points="1020,-271.5 1020,-329"/>
<text text-anchor="middle" x="1046.75" y="-311.7" font-family="Times,serif" font-size="14.00" fill="#000000">Right</text>
<text text-anchor="middle" x="1046.75" y="-295.2" font-family="Times,serif" font-size="14.00" fill="#000000">NONE</text>
<text text-anchor="middle" x="1046.75" y="-278.7" font-family="Times,serif" font-size="14.00" fill="#000000">0x0</text>
</g>
<!-- node0x103c00610&#45;&gt;node0x103c00650 -->
<g id="edge14" class="edge">
<title>node0x103c00610:right&#45;&gt;node0x103c00650</title>
<path fill="none" stroke="#48e818" stroke-width="2" d="M902.75,-406.5C902.75,-397.52 904.94,-388.74 908.44,-380.43"/>
<polygon fill="#48e818" stroke="#48e818" stroke-width="2" points="910.87,-383.41 912.17,-372.89 904.6,-380.3 910.87,-383.41"/>
</g>
<!-- node0x103c00690 -->
<g id="node14" class="node">
<title>node0x103c00690</title>
<path fill="#fbee21" stroke="#d3c70d" d="M764,-136C764,-136 1008.5,-136 1008.5,-136 1014.5,-136 1020.5,-142 1020.5,-148 1020.5,-148 1020.5,-222.5 1020.5,-222.5 1020.5,-228.5 1014.5,-234.5 1008.5,-234.5 1008.5,-234.5 764,-234.5 764,-234.5 758,-234.5 752,-228.5 752,-222.5 752,-222.5 752,-148 752,-148 752,-142 758,-136 764,-136"/>
<text text-anchor="middle" x="886.25" y="-217.2" font-family="Times,serif" font-size="14.00" fill="#000000">*</text>
<text text-anchor="middle" x="886.25" y="-200.7" font-family="Times,serif" font-size="14.00" fill="#000000">0x103c00690</text>
<polyline fill="none" stroke="#d3c70d" points="752,-193.5 1020.5,-193.5"/>
<text text-anchor="middle" x="796.75" y="-176.2" font-family="Times,serif" font-size="14.00" fill="#000000">Left</text>
<text text-anchor="middle" x="796.75" y="-159.7" font-family="Times,serif" font-size="14.00" fill="#000000">x</text>
<text text-anchor="middle" x="796.75" y="-143.2" font-family="Times,serif" font-size="14.00" fill="#000000">0x103c00710</text>
<polyline fill="none" stroke="#d3c70d" points="841.5,-136 841.5,-193.5"/>
<text text-anchor="middle" x="886.25" y="-176.2" font-family="Times,serif" font-size="14.00" fill="#000000">Parent</text>
<text text-anchor="middle" x="886.25" y="-159.7" font-family="Times,serif" font-size="14.00" fill="#000000">sin</text>
<text text-anchor="middle" x="886.25" y="-143.2" font-family="Times,serif" font-size="14.00" fill="#000000">0x103c00650</text>
<polyline fill="none" stroke="#d3c70d" points="931,-136 931,-193.5"/>
<text text-anchor="middle" x="975.75" y="-176.2" font-family="Times,serif" font-size="14.00" fill="#000000">Right</text>
<text text-anchor="middle" x="975.75" y="-159.7" font-family="Times,serif" font-size="14.00" fill="#000000">2</text>
<text text-anchor="middle" x="975.75" y="-143.2" font-family="Times,serif" font-size="14.00" fill="#000000">0x103c006d0</text>
</g>
<!-- node0x103c00650&#45;&gt;node0x103c00690 -->
<g id="edge11" class="edge">
<title>node0x103c00650:left&#45;&gt;node0x103c00690</title>
<path fill="none" stroke="#187ae8" stroke-width="2" d="M885.75,-271C885.75,-262.91 885.77,-254.38 885.81,-245.98"/>
<polygon fill="#187ae8" stroke="#187ae8" stroke-width="2" points="889.3,-247.7 885.85,-237.68 882.3,-247.66 889.3,-247.7"/>
</g>
<!-- node0x103c00710 -->
<g id="node15" class="node">
<title>node0x103c00710</title>
<path fill="#d5cfe1" stroke="#8797b2" d="M693,-0.5C693,-0.5 865.5,-0.5 865.5,-0.5 871.5,-0.5 877.5,-6.5 877.5,-12.5 877.5,-12.5 877.5,-87 877.5,-87 877.5,-93 871.5,-99 865.5,-99 865.5,-99 693,-99 693,-99 687,-99 681,-93 681,-87 681,-87 681,-12.5 681,-12.5 681,-6.5 687,-0.5 693,-0.5"/>
<text text-anchor="middle" x="779.25" y="-81.7" font-family="Times,serif" font-size="14.00" fill="#000000">x</text>
<text text-anchor="middle" x="779.25" y="-65.2" font-family="Times,serif" font-size="14.00" fill="#000000">0x103c00710</text>
<polyline fill="none" stroke="#8797b2" points="681,-58 877.5,-58"/>
<text text-anchor="middle" x="707.75" y="-40.7" font-family="Times,serif" font-size="14.00" fill="#000000">Left</text>
<text text-anchor="middle" x="707.75" y="-24.2" font-family="Times,serif" font-size="14.00" fill="#000000">NONE</text>
<text text-anchor="middle" x="707.75" y="-7.7" font-family="Times,serif" font-size="14.00" fill="#000000">0x0</text>
<polyline fill="none" stroke="#8797b2" points="734.5,-0.5 734.5,-58"/>
<text text-anchor="middle" x="779.25" y="-40.7" font-family="Times,serif" font-size="14.00" fill="#000000">Parent</text>
<text text-anchor="middle" x="779.25" y="-24.2" font-family="Times,serif" font-size="14.00" fill="#000000">*</text>
<text text-anchor="middle" x="779.25" y="-7.7" font-family="Times,serif" font-size="14.00" fill="#000000">0x103c00690</text>
<polyline fill="none" stroke="#8797b2" points="824,-0.5 824,-58"/>
<text text-anchor="middle" x="850.75" y="-40.7" font-family="Times,serif" font-size="14.00" fill="#000000">Right</text>
<text text-anchor="middle" x="850.75" y="-24.2" font-family="Times,serif" font-size="14.00" fill="#000000">NONE</text>
<text text-anchor="middle" x="850.75" y="-7.7" font-family="Times,serif" font-size="14.00" fill="#000000">0x0</text>
</g>
<!-- node0x103c00690&#45;&gt;node0x103c00710 -->
<g id="edge12" class="edge">
<title>node0x103c00690:left&#45;&gt;node0x103c00710</title>
<path fill="none" stroke="#187ae8" stroke-width="2" d="M796.75,-135.5C796.75,-127.34 795.96,-118.83 794.72,-110.48"/>
<polygon fill="#187ae8" stroke="#187ae8" stroke-width="2" points="798.45,-111.49 793.29,-102.23 791.55,-112.68 798.45,-111.49"/>
</g>
<!-- node0x103c006d0 -->
<g id="node16" class="node">
<title>node0x103c006d0</title>
<path fill="#bdef9e" stroke="#99c2a2" d="M908,-0.5C908,-0.5 1080.5,-0.5 1080.5,-0.5 1086.5,-0.5 1092.5,-6.5 1092.5,-12.5 1092.5,-12.5 1092.5,-87 1092.5,-87 1092.5,-93 1086.5,-99 1080.5,-99 1080.5,-99 908,-99 908,-99 902,-99 896,-93 896,-87 896,-87 896,-12.5 896,-12.5 896,-6.5 902,-0.5 908,-0.5"/>
<text text-anchor="middle" x="994.25" y="-81.7" font-family="Times,serif" font-size="14.00" fill="#000000">2</text>
<text text-anchor="middle" x="994.25" y="-65.2" font-family="Times,serif" font-size="14.00" fill="#000000">0x103c006d0</text>
<polyline fill="none" stroke="#99c2a2" points="896,-58 1092.5,-58"/>
<text text-anchor="middle" x="922.75" y="-40.7" font-family="Times,serif" font-size="14.00" fill="#000000">Left</text>
<text text-anchor="middle" x="922.75" y="-24.2" font-family="Times,serif" font-size="14.00" fill="#000000">NONE</text>
<text text-anchor="middle" x="922.75" y="-7.7" font-family="Times,serif" font-size="14.00" fill="#000000">0x0</text>
<polyline fill="none" stroke="#99c2a2" points="949.5,-0.5 949.5,-58"/>
<text text-anchor="middle" x="994.25" y="-40.7" font-family="Times,serif" font-size="14.00" fill="#000000">Parent</text>
<text text-anchor="middle" x="994.25" y="-24.2" font-family="Times,serif" font-size="14.00" fill="#000000">*</text>
<text text-anchor="middle" x="994.25" y="-7.7" font-family="Times,serif" font-size="14.00" fill="#000000">0x103c00690</text>
<polyline fill="none" stroke="#99c2a2" points="1039,-0.5 1039,-58"/>
<text text-anchor="middle" x="1065.75" y="-40.7" font-family="Times,serif" font-size="14.00" fill="#000000">Right</text>
<text text-anchor="middle" x="1065.75" y="-24.2" font-family="Times,serif" font-size="14.00" fill="#000000">NONE</text>
<text text-anchor="middle" x="1065.75" y="-7.7" font-family="Times,serif" font-size="14.00" fill="#000000">0x0</text>
</g>
<!-- node0x103c00690&#45;&gt;node0x103c006d0 -->
<g id="edge13" class="edge">
<title>node0x103c00690:right&#45;&gt;node0x103c006d0</title>
<path fill="none" stroke="#48e818" stroke-width="2" d="M975.75,-135.5C975.75,-127.32 976.58,-118.8 977.89,-110.44"/>
<polygon fill="#48e818" stroke="#48e818" stroke-width="2" points="981.05,-112.65 979.4,-102.18 974.16,-111.39 981.05,-112.65"/>
</g>
</g>
</svg>
