<?xml version="1.0" encoding="UTF-8" standalone="no"?>
<!DOCTYPE svg PUBLIC "-//W3C//DTD SVG 1.1//EN"
 "http://www.w3.org/Graphics/SVG/1.1/DTD/svg11.dtd">
<!-- Generated by graphviz version 12.2.0 (20241103.1931)
 -->
<!-- Pages: 1 -->
<svg width="616pt" height="514pt"
 viewBox="0.00 0.00 615.50 514.00" xmlns="http://www.w3.org/2000/svg" xmlns:xlink="http://www.w3.org/1999/xlink">
<g id="graph0" class="graph" transform="scale(1 1) rotate(0) translate(4 510)">
<polygon fill="#dcdcdc" stroke="none" points="-4,4 -4,-510 611.5,-510 611.5,4 -4,4"/>
<!-- node0x103c00b90 -->
<g id="node1" class="node">
<title>node0x103c00b90</title>
<path fill="#fbee21" stroke="#d3c70d" d="M288.38,-407C288.38,-407 496.12,-407 496.12,-407 502.12,-407 508.12,-413 508.12,-419 508.12,-419 508.12,-493.5 508.12,-493.5 508.12,-499.5 502.12,-505.5 496.12,-505.5 496.12,-505.5 288.38,-505.5 288.38,-505.5 282.38,-505.5 276.38,-499.5 276.38,-493.5 276.38,-493.5 276.38,-419 276.38,-419 276.38,-413 282.38,-407 288.38,-407"/>
<text text-anchor="middle" x="392.25" y="-488.2" font-family="Times,serif" font-size="14.00" fill="#000000">^</text>
<text text-anchor="middle" x="392.25" y="-471.7" font-family="Times,serif" font-size="14.00" fill="#000000">0x103c00b90</text>
<polyline fill="none" stroke="#d3c70d" points="276.38,-464.5 508.12,-464.5"/>
<text text-anchor="middle" x="321.12" y="-447.2" font-family="Times,serif" font-size="14.00" fill="#000000">Left</text>
<text text-anchor="middle" x="321.12" y="-430.7" font-family="Times,serif" font-size="14.00" fill="#000000">cos</text>
<text text-anchor="middle" x="321.12" y="-414.2" font-family="Times,serif" font-size="14.00" fill="#000000">0x103c00b50</text>
<polyline fill="none" stroke="#d3c70d" points="365.88,-407 365.88,-464.5"/>
<text text-anchor="middle" x="392.62" y="-447.2" font-family="Times,serif" font-size="14.00" fill="#000000">Parent</text>
<text text-anchor="middle" x="392.62" y="-430.7" font-family="Times,serif" font-size="14.00" fill="#000000">NONE</text>
<text text-anchor="middle" x="392.62" y="-414.2" font-family="Times,serif" font-size="14.00" fill="#000000">0x0</text>
<polyline fill="none" stroke="#d3c70d" points="419.38,-407 419.38,-464.5"/>
<text text-anchor="middle" x="463.75" y="-447.2" font-family="Times,serif" font-size="14.00" fill="#000000">Right</text>
<text text-anchor="middle" x="463.75" y="-430.7" font-family="Times,serif" font-size="14.00" fill="#000000">3</text>
<text text-anchor="middle" x="463.75" y="-414.2" font-family="Times,serif" font-size="14.00" fill="#000000">0x103c00a50</text>
</g>
<!-- node0x103c00b50 -->
<g id="node2" class="node">
<title>node0x103c00b50</title>
<path fill="#fbee21" stroke="#d3c70d" d="M172,-271.5C172,-271.5 380.5,-271.5 380.5,-271.5 386.5,-271.5 392.5,-277.5 392.5,-283.5 392.5,-283.5 392.5,-358 392.5,-358 392.5,-364 386.5,-370 380.5,-370 380.5,-370 172,-370 172,-370 166,-370 160,-364 160,-358 160,-358 160,-283.5 160,-283.5 160,-277.5 166,-271.5 172,-271.5"/>
<text text-anchor="middle" x="276.25" y="-352.7" font-family="Times,serif" font-size="14.00" fill="#000000">cos</text>
<text text-anchor="middle" x="276.25" y="-336.2" font-family="Times,serif" font-size="14.00" fill="#000000">0x103c00b50</text>
<polyline fill="none" stroke="#d3c70d" points="160,-329 392.5,-329"/>
<text text-anchor="middle" x="204.75" y="-311.7" font-family="Times,serif" font-size="14.00" fill="#000000">Left</text>
<text text-anchor="middle" x="204.75" y="-295.2" font-family="Times,serif" font-size="14.00" fill="#000000">*</text>
<text text-anchor="middle" x="204.75" y="-278.7" font-family="Times,serif" font-size="14.00" fill="#000000">0x103c00b10</text>
<polyline fill="none" stroke="#d3c70d" points="249.5,-271.5 249.5,-329"/>
<text text-anchor="middle" x="294.25" y="-311.7" font-family="Times,serif" font-size="14.00" fill="#000000">Parent</text>
<text text-anchor="middle" x="294.25" y="-295.2" font-family="Times,serif" font-size="14.00" fill="#000000">^</text>
<text text-anchor="middle" x="294.25" y="-278.7" font-family="Times,serif" font-size="14.00" fill="#000000">0x103c00b90</text>
<polyline fill="none" stroke="#d3c70d" points="339,-271.5 339,-329"/>
<text text-anchor="middle" x="365.75" y="-311.7" font-family="Times,serif" font-size="14.00" fill="#000000">Right</text>
<text text-anchor="middle" x="365.75" y="-295.2" font-family="Times,serif" font-size="14.00" fill="#000000">NONE</text>
<text text-anchor="middle" x="365.75" y="-278.7" font-family="Times,serif" font-size="14.00" fill="#000000">0x0</text>
</g>
<!-- node0x103c00b90&#45;&gt;node0x103c00b50 -->
<g id="edge1" class="edge">
<title>node0x103c00b90:left&#45;&gt;node0x103c00b50</title>
<path fill="none" stroke="#187ae8" stroke-width="2" d="M321.12,-406.5C321.12,-397.72 319.22,-388.96 316.2,-380.59"/>
<polygon fill="#187ae8" stroke="#187ae8" stroke-width="2" points="320.11,-380.86 313,-373 313.66,-383.58 320.11,-380.86"/>
</g>
<!-- node0x103c00a50 -->
<g id="node6" class="node">
<title>node0x103c00a50</title>
<path fill="#bdef9e" stroke="#99c2a2" d="M423,-271.5C423,-271.5 595.5,-271.5 595.5,-271.5 601.5,-271.5 607.5,-277.5 607.5,-283.5 607.5,-283.5 607.5,-358 607.5,-358 607.5,-364 601.5,-370 595.5,-370 595.5,-370 423,-370 423,-370 417,-370 411,-364 411,-358 411,-358 411,-283.5 411,-283.5 411,-277.5 417,-271.5 423,-271.5"/>
<text text-anchor="middle" x="509.25" y="-352.7" font-family="Times,serif" font-size="14.00" fill="#000000">3</text>
<text text-anchor="middle" x="509.25" y="-336.2" font-family="Times,serif" font-size="14.00" fill="#000000">0x103c00a50</text>
<polyline fill="none" stroke="#99c2a2" points="411,-329 607.5,-329"/>
<text text-anchor="middle" x="437.75" y="-311.7" font-family="Times,serif" font-size="14.00" fill="#000000">Left</text>
<text text-anchor="middle" x="437.75" y="-295.2" font-family="Times,serif" font-size="14.00" fill="#000000">NONE</text>
<text text-anchor="middle" x="437.75" y="-278.7" font-family="Times,serif" font-size="14.00" fill="#000000">0x0</text>
<polyline fill="none" stroke="#99c2a2" points="464.5,-271.5 464.5,-329"/>
<text text-anchor="middle" x="509.25" y="-311.7" font-family="Times,serif" font-size="14.00" fill="#000000">Parent</text>
<text text-anchor="middle" x="509.25" y="-295.2" font-family="Times,serif" font-size="14.00" fill="#000000">^</text>
<text text-anchor="middle" x="509.25" y="-278.7" font-family="Times,serif" font-size="14.00" fill="#000000">0x103c00b90</text>
<polyline fill="none" stroke="#99c2a2" points="554,-271.5 554,-329"/>
<text text-anchor="middle" x="580.75" y="-311.7" font-family="Times,serif" font-size="14.00" fill="#000000">Right</text>
<text text-anchor="middle" x="580.75" y="-295.2" font-family="Times,serif" font-size="14.00" fill="#000000">NONE</text>
<text text-anchor="middle" x="580.75" y="-278.7" font-family="Times,serif" font-size="14.00" fill="#000000">0x0</text>
</g>
<!-- node0x103c00b90&#45;&gt;node0x103c00a50 -->
<g id="edge5" class="edge">
<title>node0x103c00b90:right&#45;&gt;node0x103c00a50</title>
<path fill="none" stroke="#48e818" stroke-width="2" d="M463.75,-406.5C463.75,-397.69 465.68,-388.92 468.75,-380.54"/>
<polygon fill="#48e818" stroke="#48e818" stroke-width="2" points="471.28,-383.51 471.99,-372.94 464.84,-380.76 471.28,-383.51"/>
</g>
<!-- node0x103c00b10 -->
<g id="node3" class="node">
<title>node0x103c00b10</title>
<path fill="#fbee21" stroke="#d3c70d" d="M83.75,-136C83.75,-136 326.75,-136 326.75,-136 332.75,-136 338.75,-142 338.75,-148 338.75,-148 338.75,-222.5 338.75,-222.5 338.75,-228.5 332.75,-234.5 326.75,-234.5 326.75,-234.5 83.75,-234.5 83.75,-234.5 77.75,-234.5 71.75,-228.5 71.75,-222.5 71.75,-222.5 71.75,-148 71.75,-148 71.75,-142 77.75,-136 83.75,-136"/>
<text text-anchor="middle" x="205.25" y="-217.2" font-family="Times,serif" font-size="14.00" fill="#000000">*</text>
<text text-anchor="middle" x="205.25" y="-200.7" font-family="Times,serif" font-size="14.00" fill="#000000">0x103c00b10</text>
<polyline fill="none" stroke="#d3c70d" points="71.75,-193.5 338.75,-193.5"/>
<text text-anchor="middle" x="116.12" y="-176.2" font-family="Times,serif" font-size="14.00" fill="#000000">Left</text>
<text text-anchor="middle" x="116.12" y="-159.7" font-family="Times,serif" font-size="14.00" fill="#000000">x</text>
<text text-anchor="middle" x="116.12" y="-143.2" font-family="Times,serif" font-size="14.00" fill="#000000">0x103c00ad0</text>
<polyline fill="none" stroke="#d3c70d" points="160.5,-136 160.5,-193.5"/>
<text text-anchor="middle" x="205.25" y="-176.2" font-family="Times,serif" font-size="14.00" fill="#000000">Parent</text>
<text text-anchor="middle" x="205.25" y="-159.7" font-family="Times,serif" font-size="14.00" fill="#000000">cos</text>
<text text-anchor="middle" x="205.25" y="-143.2" font-family="Times,serif" font-size="14.00" fill="#000000">0x103c00b50</text>
<polyline fill="none" stroke="#d3c70d" points="250,-136 250,-193.5"/>
<text text-anchor="middle" x="294.38" y="-176.2" font-family="Times,serif" font-size="14.00" fill="#000000">Right</text>
<text text-anchor="middle" x="294.38" y="-159.7" font-family="Times,serif" font-size="14.00" fill="#000000">2</text>
<text text-anchor="middle" x="294.38" y="-143.2" font-family="Times,serif" font-size="14.00" fill="#000000">0x103c00a90</text>
</g>
<!-- node0x103c00b50&#45;&gt;node0x103c00b10 -->
<g id="edge2" class="edge">
<title>node0x103c00b50:left&#45;&gt;node0x103c00b10</title>
<path fill="none" stroke="#187ae8" stroke-width="2" d="M204.75,-271C204.75,-262.91 204.77,-254.38 204.81,-245.98"/>
<polygon fill="#187ae8" stroke="#187ae8" stroke-width="2" points="208.3,-247.7 204.85,-237.68 201.3,-247.66 208.3,-247.7"/>
</g>
<!-- node0x103c00ad0 -->
<g id="node4" class="node">
<title>node0x103c00ad0</title>
<path fill="#d5cfe1" stroke="#8797b2" d="M12,-0.5C12,-0.5 184.5,-0.5 184.5,-0.5 190.5,-0.5 196.5,-6.5 196.5,-12.5 196.5,-12.5 196.5,-87 196.5,-87 196.5,-93 190.5,-99 184.5,-99 184.5,-99 12,-99 12,-99 6,-99 0,-93 0,-87 0,-87 0,-12.5 0,-12.5 0,-6.5 6,-0.5 12,-0.5"/>
<text text-anchor="middle" x="98.25" y="-81.7" font-family="Times,serif" font-size="14.00" fill="#000000">x</text>
<text text-anchor="middle" x="98.25" y="-65.2" font-family="Times,serif" font-size="14.00" fill="#000000">0x103c00ad0</text>
<polyline fill="none" stroke="#8797b2" points="0,-58 196.5,-58"/>
<text text-anchor="middle" x="26.75" y="-40.7" font-family="Times,serif" font-size="14.00" fill="#000000">Left</text>
<text text-anchor="middle" x="26.75" y="-24.2" font-family="Times,serif" font-size="14.00" fill="#000000">NONE</text>
<text text-anchor="middle" x="26.75" y="-7.7" font-family="Times,serif" font-size="14.00" fill="#000000">0x0</text>
<polyline fill="none" stroke="#8797b2" points="53.5,-0.5 53.5,-58"/>
<text text-anchor="middle" x="98.25" y="-40.7" font-family="Times,serif" font-size="14.00" fill="#000000">Parent</text>
<text text-anchor="middle" x="98.25" y="-24.2" font-family="Times,serif" font-size="14.00" fill="#000000">*</text>
<text text-anchor="middle" x="98.25" y="-7.7" font-family="Times,serif" font-size="14.00" fill="#000000">0x103c00b10</text>
<polyline fill="none" stroke="#8797b2" points="143,-0.5 143,-58"/>
<text text-anchor="middle" x="169.75" y="-40.7" font-family="Times,serif" font-size="14.00" fill="#000000">Right</text>
<text text-anchor="middle" x="169.75" y="-24.2" font-family="Times,serif" font-size="14.00" fill="#000000">NONE</text>
<text text-anchor="middle" x="169.75" y="-7.7" font-family="Times,serif" font-size="14.00" fill="#000000">0x0</text>
</g>
<!-- node0x103c00b10&#45;&gt;node0x103c00ad0 -->
<g id="edge3" class="edge">
<title>node0x103c00b10:left&#45;&gt;node0x103c00ad0</title>
<path fill="none" stroke="#187ae8" stroke-width="2" d="M116.12,-135.5C116.12,-127.33 115.32,-118.82 114.05,-110.47"/>
<polygon fill="#187ae8" stroke="#187ae8" stroke-width="2" points="117.78,-111.45 112.6,-102.21 110.89,-112.67 117.78,-111.45"/>
</g>
<!-- node0x103c00a90 -->
<g id="node5" class="node">
<title>node0x103c00a90</title>
<path fill="#bdef9e" stroke="#99c2a2" d="M227,-0.5C227,-0.5 399.5,-0.5 399.5,-0.5 405.5,-0.5 411.5,-6.5 411.5,-12.5 411.5,-12.5 411.5,-87 411.5,-87 411.5,-93 405.5,-99 399.5,-99 399.5,-99 227,-99 227,-99 221,-99 215,-93 215,-87 215,-87 215,-12.5 215,-12.5 215,-6.5 221,-0.5 227,-0.5"/>
<text text-anchor="middle" x="313.25" y="-81.7" font-family="Times,serif" font-size="14.00" fill="#000000">2</text>
<text text-anchor="middle" x="313.25" y="-65.2" font-family="Times,serif" font-size="14.00" fill="#000000">0x103c00a90</text>
<polyline fill="none" stroke="#99c2a2" points="215,-58 411.5,-58"/>
<text text-anchor="middle" x="241.75" y="-40.7" font-family="Times,serif" font-size="14.00" fill="#000000">Left</text>
<text text-anchor="middle" x="241.75" y="-24.2" font-family="Times,serif" font-size="14.00" fill="#000000">NONE</text>
<text text-anchor="middle" x="241.75" y="-7.7" font-family="Times,serif" font-size="14.00" fill="#000000">0x0</text>
<polyline fill="none" stroke="#99c2a2" points="268.5,-0.5 268.5,-58"/>
<text text-anchor="middle" x="313.25" y="-40.7" font-family="Times,serif" font-size="14.00" fill="#000000">Parent</text>
<text text-anchor="middle" x="313.25" y="-24.2" font-family="Times,serif" font-size="14.00" fill="#000000">*</text>
<text text-anchor="middle" x="313.25" y="-7.7" font-family="Times,serif" font-size="14.00" fill="#000000">0x103c00b10</text>
<polyline fill="none" stroke="#99c2a2" points="358,-0.5 358,-58"/>
<text text-anchor="middle" x="384.75" y="-40.7" font-family="Times,serif" font-size="14.00" fill="#000000">Right</text>
<text text-anchor="middle" x="384.75" y="-24.2" font-family="Times,serif" font-size="14.00" fill="#000000">NONE</text>
<text text-anchor="middle" x="384.75" y="-7.7" font-family="Times,serif" font-size="14.00" fill="#000000">0x0</text>
</g>
<!-- node0x103c00b10&#45;&gt;node0x103c00a90 -->
<g id="edge4" class="edge">
<title>node0x103c00b10:right&#45;&gt;node0x103c00a90</title>
<path fill="none" stroke="#48e818" stroke-width="2" d="M294.38,-135.5C294.38,-127.31 295.22,-118.79 296.56,-110.43"/>
<polygon fill="#48e818" stroke="#48e818" stroke-width="2" points="299.71,-112.64 298.1,-102.17 292.83,-111.36 299.71,-112.64"/>
</g>
</g>
</svg>
