<?xml version="1.0" encoding="UTF-8" standalone="no"?>
<!DOCTYPE svg PUBLIC "-//W3C//DTD SVG 1.1//EN"
 "http://www.w3.org/Graphics/SVG/1.1/DTD/svg11.dtd">
<!-- Generated by graphviz version 12.2.0 (20241103.1931)
 -->
<!-- Pages: 1 -->
<svg width="1375pt" height="1463pt"
 viewBox="0.00 0.00 1374.50 1462.50" xmlns="http://www.w3.org/2000/svg" xmlns:xlink="http://www.w3.org/1999/xlink">
<g id="graph0" class="graph" transform="scale(1 1) rotate(0) translate(4 1458.5)">
<polygon fill="#dcdcdc" stroke="none" points="-4,4 -4,-1458.5 1370.5,-1458.5 1370.5,4 -4,4"/>
<!-- node0x103d0b8d0 -->
<g id="node1" class="node">
<title>node0x103d0b8d0</title>
<path fill="#f18805" stroke="#af3800" d="M931,-1355.5C931,-1355.5 1139.5,-1355.5 1139.5,-1355.5 1145.5,-1355.5 1151.5,-1361.5 1151.5,-1367.5 1151.5,-1367.5 1151.5,-1442 1151.5,-1442 1151.5,-1448 1145.5,-1454 1139.5,-1454 1139.5,-1454 931,-1454 931,-1454 925,-1454 919,-1448 919,-1442 919,-1442 919,-1367.5 919,-1367.5 919,-1361.5 925,-1355.5 931,-1355.5"/>
<text text-anchor="middle" x="1035.25" y="-1436.7" font-family="Times,serif" font-size="14.00" fill="#000000">*</text>
<text text-anchor="middle" x="1035.25" y="-1420.2" font-family="Times,serif" font-size="14.00" fill="#000000">0x103d0b8d0</text>
<polyline fill="none" stroke="#af3800" points="919,-1413 1151.5,-1413"/>
<text text-anchor="middle" x="963.75" y="-1395.7" font-family="Times,serif" font-size="14.00" fill="#000000">Left</text>
<text text-anchor="middle" x="963.75" y="-1379.2" font-family="Times,serif" font-size="14.00" fill="#000000">2</text>
<text text-anchor="middle" x="963.75" y="-1362.7" font-family="Times,serif" font-size="14.00" fill="#000000">0x103d0c590</text>
<polyline fill="none" stroke="#af3800" points="1008.5,-1355.5 1008.5,-1413"/>
<text text-anchor="middle" x="1035.25" y="-1395.7" font-family="Times,serif" font-size="14.00" fill="#000000">Parent</text>
<text text-anchor="middle" x="1035.25" y="-1379.2" font-family="Times,serif" font-size="14.00" fill="#000000">NONE</text>
<text text-anchor="middle" x="1035.25" y="-1362.7" font-family="Times,serif" font-size="14.00" fill="#000000">0x0</text>
<polyline fill="none" stroke="#af3800" points="1062,-1355.5 1062,-1413"/>
<text text-anchor="middle" x="1106.75" y="-1395.7" font-family="Times,serif" font-size="14.00" fill="#000000">Right</text>
<text text-anchor="middle" x="1106.75" y="-1379.2" font-family="Times,serif" font-size="14.00" fill="#000000">*</text>
<text text-anchor="middle" x="1106.75" y="-1362.7" font-family="Times,serif" font-size="14.00" fill="#000000">0x103d0c110</text>
</g>
<!-- node0x103d0c590 -->
<g id="node2" class="node">
<title>node0x103d0c590</title>
<path fill="#bdef9e" stroke="#99c2a2" d="M860,-1220C860,-1220 996.5,-1220 996.5,-1220 1002.5,-1220 1008.5,-1226 1008.5,-1232 1008.5,-1232 1008.5,-1306.5 1008.5,-1306.5 1008.5,-1312.5 1002.5,-1318.5 996.5,-1318.5 996.5,-1318.5 860,-1318.5 860,-1318.5 854,-1318.5 848,-1312.5 848,-1306.5 848,-1306.5 848,-1232 848,-1232 848,-1226 854,-1220 860,-1220"/>
<text text-anchor="middle" x="928.25" y="-1301.2" font-family="Times,serif" font-size="14.00" fill="#000000">2</text>
<text text-anchor="middle" x="928.25" y="-1284.7" font-family="Times,serif" font-size="14.00" fill="#000000">0x103d0c590</text>
<polyline fill="none" stroke="#99c2a2" points="848,-1277.5 1008.5,-1277.5"/>
<text text-anchor="middle" x="874.75" y="-1260.2" font-family="Times,serif" font-size="14.00" fill="#000000">Left</text>
<text text-anchor="middle" x="874.75" y="-1243.7" font-family="Times,serif" font-size="14.00" fill="#000000">NONE</text>
<text text-anchor="middle" x="874.75" y="-1227.2" font-family="Times,serif" font-size="14.00" fill="#000000">0x0</text>
<polyline fill="none" stroke="#99c2a2" points="901.5,-1220 901.5,-1277.5"/>
<text text-anchor="middle" x="928.25" y="-1260.2" font-family="Times,serif" font-size="14.00" fill="#000000">Parent</text>
<text text-anchor="middle" x="928.25" y="-1243.7" font-family="Times,serif" font-size="14.00" fill="#000000">NONE</text>
<text text-anchor="middle" x="928.25" y="-1227.2" font-family="Times,serif" font-size="14.00" fill="#000000">0x0</text>
<polyline fill="none" stroke="#99c2a2" points="955,-1220 955,-1277.5"/>
<text text-anchor="middle" x="981.75" y="-1260.2" font-family="Times,serif" font-size="14.00" fill="#000000">Right</text>
<text text-anchor="middle" x="981.75" y="-1243.7" font-family="Times,serif" font-size="14.00" fill="#000000">NONE</text>
<text text-anchor="middle" x="981.75" y="-1227.2" font-family="Times,serif" font-size="14.00" fill="#000000">0x0</text>
</g>
<!-- node0x103d0b8d0&#45;&gt;node0x103d0c590 -->
<g id="edge1" class="edge">
<title>node0x103d0b8d0:left&#45;&gt;node0x103d0c590</title>
<path fill="none" stroke="#187ae8" stroke-width="2" d="M963.75,-1355C963.75,-1346.46 962.2,-1337.78 959.74,-1329.4"/>
<polygon fill="#187ae8" stroke="#187ae8" stroke-width="2" points="963.57,-1329.79 957.03,-1321.46 956.95,-1332.05 963.57,-1329.79"/>
</g>
<!-- node0x103d0c110 -->
<g id="node3" class="node">
<title>node0x103d0c110</title>
<path fill="#fbee21" stroke="#d3c70d" d="M1039,-1220C1039,-1220 1247.5,-1220 1247.5,-1220 1253.5,-1220 1259.5,-1226 1259.5,-1232 1259.5,-1232 1259.5,-1306.5 1259.5,-1306.5 1259.5,-1312.5 1253.5,-1318.5 1247.5,-1318.5 1247.5,-1318.5 1039,-1318.5 1039,-1318.5 1033,-1318.5 1027,-1312.5 1027,-1306.5 1027,-1306.5 1027,-1232 1027,-1232 1027,-1226 1033,-1220 1039,-1220"/>
<text text-anchor="middle" x="1143.25" y="-1301.2" font-family="Times,serif" font-size="14.00" fill="#000000">*</text>
<text text-anchor="middle" x="1143.25" y="-1284.7" font-family="Times,serif" font-size="14.00" fill="#000000">0x103d0c110</text>
<polyline fill="none" stroke="#d3c70d" points="1027,-1277.5 1259.5,-1277.5"/>
<text text-anchor="middle" x="1071.75" y="-1260.2" font-family="Times,serif" font-size="14.00" fill="#000000">Left</text>
<text text-anchor="middle" x="1071.75" y="-1243.7" font-family="Times,serif" font-size="14.00" fill="#000000">*</text>
<text text-anchor="middle" x="1071.75" y="-1227.2" font-family="Times,serif" font-size="14.00" fill="#000000">0x103d0c190</text>
<polyline fill="none" stroke="#d3c70d" points="1116.5,-1220 1116.5,-1277.5"/>
<text text-anchor="middle" x="1143.25" y="-1260.2" font-family="Times,serif" font-size="14.00" fill="#000000">Parent</text>
<text text-anchor="middle" x="1143.25" y="-1243.7" font-family="Times,serif" font-size="14.00" fill="#000000">NONE</text>
<text text-anchor="middle" x="1143.25" y="-1227.2" font-family="Times,serif" font-size="14.00" fill="#000000">0x0</text>
<polyline fill="none" stroke="#d3c70d" points="1170,-1220 1170,-1277.5"/>
<text text-anchor="middle" x="1214.75" y="-1260.2" font-family="Times,serif" font-size="14.00" fill="#000000">Right</text>
<text text-anchor="middle" x="1214.75" y="-1243.7" font-family="Times,serif" font-size="14.00" fill="#000000">2</text>
<text text-anchor="middle" x="1214.75" y="-1227.2" font-family="Times,serif" font-size="14.00" fill="#000000">0x103d0c150</text>
</g>
<!-- node0x103d0b8d0&#45;&gt;node0x103d0c110 -->
<g id="edge19" class="edge">
<title>node0x103d0b8d0:right&#45;&gt;node0x103d0c110</title>
<path fill="none" stroke="#48e818" stroke-width="2" d="M1106.75,-1355C1106.75,-1346.53 1108.31,-1337.95 1110.77,-1329.66"/>
<polygon fill="#48e818" stroke="#48e818" stroke-width="2" points="1113.52,-1332.42 1113.5,-1321.83 1106.91,-1330.12 1113.52,-1332.42"/>
</g>
<!-- node0x103d0c190 -->
<g id="node4" class="node">
<title>node0x103d0c190</title>
<path fill="#fbee21" stroke="#d3c70d" d="M895,-1084.5C895,-1084.5 1139.5,-1084.5 1139.5,-1084.5 1145.5,-1084.5 1151.5,-1090.5 1151.5,-1096.5 1151.5,-1096.5 1151.5,-1171 1151.5,-1171 1151.5,-1177 1145.5,-1183 1139.5,-1183 1139.5,-1183 895,-1183 895,-1183 889,-1183 883,-1177 883,-1171 883,-1171 883,-1096.5 883,-1096.5 883,-1090.5 889,-1084.5 895,-1084.5"/>
<text text-anchor="middle" x="1017.25" y="-1165.7" font-family="Times,serif" font-size="14.00" fill="#000000">*</text>
<text text-anchor="middle" x="1017.25" y="-1149.2" font-family="Times,serif" font-size="14.00" fill="#000000">0x103d0c190</text>
<polyline fill="none" stroke="#d3c70d" points="883,-1142 1151.5,-1142"/>
<text text-anchor="middle" x="927.75" y="-1124.7" font-family="Times,serif" font-size="14.00" fill="#000000">Left</text>
<text text-anchor="middle" x="927.75" y="-1108.2" font-family="Times,serif" font-size="14.00" fill="#000000">*</text>
<text text-anchor="middle" x="927.75" y="-1091.7" font-family="Times,serif" font-size="14.00" fill="#000000">0x103d0c210</text>
<polyline fill="none" stroke="#d3c70d" points="972.5,-1084.5 972.5,-1142"/>
<text text-anchor="middle" x="1017.25" y="-1124.7" font-family="Times,serif" font-size="14.00" fill="#000000">Parent</text>
<text text-anchor="middle" x="1017.25" y="-1108.2" font-family="Times,serif" font-size="14.00" fill="#000000">*</text>
<text text-anchor="middle" x="1017.25" y="-1091.7" font-family="Times,serif" font-size="14.00" fill="#000000">0x103d0c110</text>
<polyline fill="none" stroke="#d3c70d" points="1062,-1084.5 1062,-1142"/>
<text text-anchor="middle" x="1106.75" y="-1124.7" font-family="Times,serif" font-size="14.00" fill="#000000">Right</text>
<text text-anchor="middle" x="1106.75" y="-1108.2" font-family="Times,serif" font-size="14.00" fill="#000000">2</text>
<text text-anchor="middle" x="1106.75" y="-1091.7" font-family="Times,serif" font-size="14.00" fill="#000000">0x103d0c1d0</text>
</g>
<!-- node0x103d0c110&#45;&gt;node0x103d0c190 -->
<g id="edge2" class="edge">
<title>node0x103d0c110:left&#45;&gt;node0x103d0c190</title>
<path fill="none" stroke="#187ae8" stroke-width="2" d="M1071.75,-1219.5C1071.75,-1210.52 1069.56,-1201.74 1066.06,-1193.43"/>
<polygon fill="#187ae8" stroke="#187ae8" stroke-width="2" points="1069.9,-1193.3 1062.33,-1185.89 1063.63,-1196.41 1069.9,-1193.3"/>
</g>
<!-- node0x103d0c150 -->
<g id="node20" class="node">
<title>node0x103d0c150</title>
<path fill="#bdef9e" stroke="#99c2a2" d="M1182,-1084.5C1182,-1084.5 1354.5,-1084.5 1354.5,-1084.5 1360.5,-1084.5 1366.5,-1090.5 1366.5,-1096.5 1366.5,-1096.5 1366.5,-1171 1366.5,-1171 1366.5,-1177 1360.5,-1183 1354.5,-1183 1354.5,-1183 1182,-1183 1182,-1183 1176,-1183 1170,-1177 1170,-1171 1170,-1171 1170,-1096.5 1170,-1096.5 1170,-1090.5 1176,-1084.5 1182,-1084.5"/>
<text text-anchor="middle" x="1268.25" y="-1165.7" font-family="Times,serif" font-size="14.00" fill="#000000">2</text>
<text text-anchor="middle" x="1268.25" y="-1149.2" font-family="Times,serif" font-size="14.00" fill="#000000">0x103d0c150</text>
<polyline fill="none" stroke="#99c2a2" points="1170,-1142 1366.5,-1142"/>
<text text-anchor="middle" x="1196.75" y="-1124.7" font-family="Times,serif" font-size="14.00" fill="#000000">Left</text>
<text text-anchor="middle" x="1196.75" y="-1108.2" font-family="Times,serif" font-size="14.00" fill="#000000">NONE</text>
<text text-anchor="middle" x="1196.75" y="-1091.7" font-family="Times,serif" font-size="14.00" fill="#000000">0x0</text>
<polyline fill="none" stroke="#99c2a2" points="1223.5,-1084.5 1223.5,-1142"/>
<text text-anchor="middle" x="1268.25" y="-1124.7" font-family="Times,serif" font-size="14.00" fill="#000000">Parent</text>
<text text-anchor="middle" x="1268.25" y="-1108.2" font-family="Times,serif" font-size="14.00" fill="#000000">*</text>
<text text-anchor="middle" x="1268.25" y="-1091.7" font-family="Times,serif" font-size="14.00" fill="#000000">0x103d0c110</text>
<polyline fill="none" stroke="#99c2a2" points="1313,-1084.5 1313,-1142"/>
<text text-anchor="middle" x="1339.75" y="-1124.7" font-family="Times,serif" font-size="14.00" fill="#000000">Right</text>
<text text-anchor="middle" x="1339.75" y="-1108.2" font-family="Times,serif" font-size="14.00" fill="#000000">NONE</text>
<text text-anchor="middle" x="1339.75" y="-1091.7" font-family="Times,serif" font-size="14.00" fill="#000000">0x0</text>
</g>
<!-- node0x103d0c110&#45;&gt;node0x103d0c150 -->
<g id="edge18" class="edge">
<title>node0x103d0c110:right&#45;&gt;node0x103d0c150</title>
<path fill="none" stroke="#48e818" stroke-width="2" d="M1214.75,-1219.5C1214.75,-1210.57 1216.9,-1201.81 1220.34,-1193.52"/>
<polygon fill="#48e818" stroke="#48e818" stroke-width="2" points="1222.77,-1196.53 1224,-1186.01 1216.47,-1193.47 1222.77,-1196.53"/>
</g>
<!-- node0x103d0c210 -->
<g id="node5" class="node">
<title>node0x103d0c210</title>
<path fill="#fbee21" stroke="#d3c70d" d="M770,-949C770,-949 1014.5,-949 1014.5,-949 1020.5,-949 1026.5,-955 1026.5,-961 1026.5,-961 1026.5,-1035.5 1026.5,-1035.5 1026.5,-1041.5 1020.5,-1047.5 1014.5,-1047.5 1014.5,-1047.5 770,-1047.5 770,-1047.5 764,-1047.5 758,-1041.5 758,-1035.5 758,-1035.5 758,-961 758,-961 758,-955 764,-949 770,-949"/>
<text text-anchor="middle" x="892.25" y="-1030.2" font-family="Times,serif" font-size="14.00" fill="#000000">*</text>
<text text-anchor="middle" x="892.25" y="-1013.7" font-family="Times,serif" font-size="14.00" fill="#000000">0x103d0c210</text>
<polyline fill="none" stroke="#d3c70d" points="758,-1006.5 1026.5,-1006.5"/>
<text text-anchor="middle" x="802.75" y="-989.2" font-family="Times,serif" font-size="14.00" fill="#000000">Left</text>
<text text-anchor="middle" x="802.75" y="-972.7" font-family="Times,serif" font-size="14.00" fill="#000000">*</text>
<text text-anchor="middle" x="802.75" y="-956.2" font-family="Times,serif" font-size="14.00" fill="#000000">0x103d0c290</text>
<polyline fill="none" stroke="#d3c70d" points="847.5,-949 847.5,-1006.5"/>
<text text-anchor="middle" x="892.25" y="-989.2" font-family="Times,serif" font-size="14.00" fill="#000000">Parent</text>
<text text-anchor="middle" x="892.25" y="-972.7" font-family="Times,serif" font-size="14.00" fill="#000000">*</text>
<text text-anchor="middle" x="892.25" y="-956.2" font-family="Times,serif" font-size="14.00" fill="#000000">0x103d0c190</text>
<polyline fill="none" stroke="#d3c70d" points="937,-949 937,-1006.5"/>
<text text-anchor="middle" x="981.75" y="-989.2" font-family="Times,serif" font-size="14.00" fill="#000000">Right</text>
<text text-anchor="middle" x="981.75" y="-972.7" font-family="Times,serif" font-size="14.00" fill="#000000">2</text>
<text text-anchor="middle" x="981.75" y="-956.2" font-family="Times,serif" font-size="14.00" fill="#000000">0x103d0c250</text>
</g>
<!-- node0x103d0c190&#45;&gt;node0x103d0c210 -->
<g id="edge3" class="edge">
<title>node0x103d0c190:left&#45;&gt;node0x103d0c210</title>
<path fill="none" stroke="#187ae8" stroke-width="2" d="M927.75,-1084C927.75,-1075.46 926.2,-1066.78 923.74,-1058.4"/>
<polygon fill="#187ae8" stroke="#187ae8" stroke-width="2" points="927.57,-1058.79 921.03,-1050.46 920.95,-1061.05 927.57,-1058.79"/>
</g>
<!-- node0x103d0c1d0 -->
<g id="node19" class="node">
<title>node0x103d0c1d0</title>
<path fill="#bdef9e" stroke="#99c2a2" d="M1057,-949C1057,-949 1229.5,-949 1229.5,-949 1235.5,-949 1241.5,-955 1241.5,-961 1241.5,-961 1241.5,-1035.5 1241.5,-1035.5 1241.5,-1041.5 1235.5,-1047.5 1229.5,-1047.5 1229.5,-1047.5 1057,-1047.5 1057,-1047.5 1051,-1047.5 1045,-1041.5 1045,-1035.5 1045,-1035.5 1045,-961 1045,-961 1045,-955 1051,-949 1057,-949"/>
<text text-anchor="middle" x="1143.25" y="-1030.2" font-family="Times,serif" font-size="14.00" fill="#000000">2</text>
<text text-anchor="middle" x="1143.25" y="-1013.7" font-family="Times,serif" font-size="14.00" fill="#000000">0x103d0c1d0</text>
<polyline fill="none" stroke="#99c2a2" points="1045,-1006.5 1241.5,-1006.5"/>
<text text-anchor="middle" x="1071.75" y="-989.2" font-family="Times,serif" font-size="14.00" fill="#000000">Left</text>
<text text-anchor="middle" x="1071.75" y="-972.7" font-family="Times,serif" font-size="14.00" fill="#000000">NONE</text>
<text text-anchor="middle" x="1071.75" y="-956.2" font-family="Times,serif" font-size="14.00" fill="#000000">0x0</text>
<polyline fill="none" stroke="#99c2a2" points="1098.5,-949 1098.5,-1006.5"/>
<text text-anchor="middle" x="1143.25" y="-989.2" font-family="Times,serif" font-size="14.00" fill="#000000">Parent</text>
<text text-anchor="middle" x="1143.25" y="-972.7" font-family="Times,serif" font-size="14.00" fill="#000000">*</text>
<text text-anchor="middle" x="1143.25" y="-956.2" font-family="Times,serif" font-size="14.00" fill="#000000">0x103d0c190</text>
<polyline fill="none" stroke="#99c2a2" points="1188,-949 1188,-1006.5"/>
<text text-anchor="middle" x="1214.75" y="-989.2" font-family="Times,serif" font-size="14.00" fill="#000000">Right</text>
<text text-anchor="middle" x="1214.75" y="-972.7" font-family="Times,serif" font-size="14.00" fill="#000000">NONE</text>
<text text-anchor="middle" x="1214.75" y="-956.2" font-family="Times,serif" font-size="14.00" fill="#000000">0x0</text>
</g>
<!-- node0x103d0c190&#45;&gt;node0x103d0c1d0 -->
<g id="edge17" class="edge">
<title>node0x103d0c190:right&#45;&gt;node0x103d0c1d0</title>
<path fill="none" stroke="#48e818" stroke-width="2" d="M1106.75,-1084C1106.75,-1075.53 1108.31,-1066.95 1110.77,-1058.66"/>
<polygon fill="#48e818" stroke="#48e818" stroke-width="2" points="1113.52,-1061.42 1113.5,-1050.83 1106.91,-1059.12 1113.52,-1061.42"/>
</g>
<!-- node0x103d0c290 -->
<g id="node6" class="node">
<title>node0x103d0c290</title>
<path fill="#fbee21" stroke="#d3c70d" d="M645,-813.5C645,-813.5 889.5,-813.5 889.5,-813.5 895.5,-813.5 901.5,-819.5 901.5,-825.5 901.5,-825.5 901.5,-900 901.5,-900 901.5,-906 895.5,-912 889.5,-912 889.5,-912 645,-912 645,-912 639,-912 633,-906 633,-900 633,-900 633,-825.5 633,-825.5 633,-819.5 639,-813.5 645,-813.5"/>
<text text-anchor="middle" x="767.25" y="-894.7" font-family="Times,serif" font-size="14.00" fill="#000000">*</text>
<text text-anchor="middle" x="767.25" y="-878.2" font-family="Times,serif" font-size="14.00" fill="#000000">0x103d0c290</text>
<polyline fill="none" stroke="#d3c70d" points="633,-871 901.5,-871"/>
<text text-anchor="middle" x="677.75" y="-853.7" font-family="Times,serif" font-size="14.00" fill="#000000">Left</text>
<text text-anchor="middle" x="677.75" y="-837.2" font-family="Times,serif" font-size="14.00" fill="#000000">*</text>
<text text-anchor="middle" x="677.75" y="-820.7" font-family="Times,serif" font-size="14.00" fill="#000000">0x103d0c310</text>
<polyline fill="none" stroke="#d3c70d" points="722.5,-813.5 722.5,-871"/>
<text text-anchor="middle" x="767.25" y="-853.7" font-family="Times,serif" font-size="14.00" fill="#000000">Parent</text>
<text text-anchor="middle" x="767.25" y="-837.2" font-family="Times,serif" font-size="14.00" fill="#000000">*</text>
<text text-anchor="middle" x="767.25" y="-820.7" font-family="Times,serif" font-size="14.00" fill="#000000">0x103d0c210</text>
<polyline fill="none" stroke="#d3c70d" points="812,-813.5 812,-871"/>
<text text-anchor="middle" x="856.75" y="-853.7" font-family="Times,serif" font-size="14.00" fill="#000000">Right</text>
<text text-anchor="middle" x="856.75" y="-837.2" font-family="Times,serif" font-size="14.00" fill="#000000">2</text>
<text text-anchor="middle" x="856.75" y="-820.7" font-family="Times,serif" font-size="14.00" fill="#000000">0x103d0c2d0</text>
</g>
<!-- node0x103d0c210&#45;&gt;node0x103d0c290 -->
<g id="edge4" class="edge">
<title>node0x103d0c210:left&#45;&gt;node0x103d0c290</title>
<path fill="none" stroke="#187ae8" stroke-width="2" d="M802.75,-948.5C802.75,-939.96 801.2,-931.28 798.74,-922.9"/>
<polygon fill="#187ae8" stroke="#187ae8" stroke-width="2" points="802.57,-923.29 796.03,-914.96 795.95,-925.55 802.57,-923.29"/>
</g>
<!-- node0x103d0c250 -->
<g id="node18" class="node">
<title>node0x103d0c250</title>
<path fill="#bdef9e" stroke="#99c2a2" d="M932,-813.5C932,-813.5 1104.5,-813.5 1104.5,-813.5 1110.5,-813.5 1116.5,-819.5 1116.5,-825.5 1116.5,-825.5 1116.5,-900 1116.5,-900 1116.5,-906 1110.5,-912 1104.5,-912 1104.5,-912 932,-912 932,-912 926,-912 920,-906 920,-900 920,-900 920,-825.5 920,-825.5 920,-819.5 926,-813.5 932,-813.5"/>
<text text-anchor="middle" x="1018.25" y="-894.7" font-family="Times,serif" font-size="14.00" fill="#000000">2</text>
<text text-anchor="middle" x="1018.25" y="-878.2" font-family="Times,serif" font-size="14.00" fill="#000000">0x103d0c250</text>
<polyline fill="none" stroke="#99c2a2" points="920,-871 1116.5,-871"/>
<text text-anchor="middle" x="946.75" y="-853.7" font-family="Times,serif" font-size="14.00" fill="#000000">Left</text>
<text text-anchor="middle" x="946.75" y="-837.2" font-family="Times,serif" font-size="14.00" fill="#000000">NONE</text>
<text text-anchor="middle" x="946.75" y="-820.7" font-family="Times,serif" font-size="14.00" fill="#000000">0x0</text>
<polyline fill="none" stroke="#99c2a2" points="973.5,-813.5 973.5,-871"/>
<text text-anchor="middle" x="1018.25" y="-853.7" font-family="Times,serif" font-size="14.00" fill="#000000">Parent</text>
<text text-anchor="middle" x="1018.25" y="-837.2" font-family="Times,serif" font-size="14.00" fill="#000000">*</text>
<text text-anchor="middle" x="1018.25" y="-820.7" font-family="Times,serif" font-size="14.00" fill="#000000">0x103d0c210</text>
<polyline fill="none" stroke="#99c2a2" points="1063,-813.5 1063,-871"/>
<text text-anchor="middle" x="1089.75" y="-853.7" font-family="Times,serif" font-size="14.00" fill="#000000">Right</text>
<text text-anchor="middle" x="1089.75" y="-837.2" font-family="Times,serif" font-size="14.00" fill="#000000">NONE</text>
<text text-anchor="middle" x="1089.75" y="-820.7" font-family="Times,serif" font-size="14.00" fill="#000000">0x0</text>
</g>
<!-- node0x103d0c210&#45;&gt;node0x103d0c250 -->
<g id="edge16" class="edge">
<title>node0x103d0c210:right&#45;&gt;node0x103d0c250</title>
<path fill="none" stroke="#48e818" stroke-width="2" d="M981.75,-948.5C981.75,-940.03 983.31,-931.45 985.77,-923.16"/>
<polygon fill="#48e818" stroke="#48e818" stroke-width="2" points="988.52,-925.92 988.5,-915.33 981.91,-923.62 988.52,-925.92"/>
</g>
<!-- node0x103d0c310 -->
<g id="node7" class="node">
<title>node0x103d0c310</title>
<path fill="#fbee21" stroke="#d3c70d" d="M520,-678C520,-678 764.5,-678 764.5,-678 770.5,-678 776.5,-684 776.5,-690 776.5,-690 776.5,-764.5 776.5,-764.5 776.5,-770.5 770.5,-776.5 764.5,-776.5 764.5,-776.5 520,-776.5 520,-776.5 514,-776.5 508,-770.5 508,-764.5 508,-764.5 508,-690 508,-690 508,-684 514,-678 520,-678"/>
<text text-anchor="middle" x="642.25" y="-759.2" font-family="Times,serif" font-size="14.00" fill="#000000">*</text>
<text text-anchor="middle" x="642.25" y="-742.7" font-family="Times,serif" font-size="14.00" fill="#000000">0x103d0c310</text>
<polyline fill="none" stroke="#d3c70d" points="508,-735.5 776.5,-735.5"/>
<text text-anchor="middle" x="552.75" y="-718.2" font-family="Times,serif" font-size="14.00" fill="#000000">Left</text>
<text text-anchor="middle" x="552.75" y="-701.7" font-family="Times,serif" font-size="14.00" fill="#000000">*</text>
<text text-anchor="middle" x="552.75" y="-685.2" font-family="Times,serif" font-size="14.00" fill="#000000">0x103d0c390</text>
<polyline fill="none" stroke="#d3c70d" points="597.5,-678 597.5,-735.5"/>
<text text-anchor="middle" x="642.25" y="-718.2" font-family="Times,serif" font-size="14.00" fill="#000000">Parent</text>
<text text-anchor="middle" x="642.25" y="-701.7" font-family="Times,serif" font-size="14.00" fill="#000000">*</text>
<text text-anchor="middle" x="642.25" y="-685.2" font-family="Times,serif" font-size="14.00" fill="#000000">0x103d0c290</text>
<polyline fill="none" stroke="#d3c70d" points="687,-678 687,-735.5"/>
<text text-anchor="middle" x="731.75" y="-718.2" font-family="Times,serif" font-size="14.00" fill="#000000">Right</text>
<text text-anchor="middle" x="731.75" y="-701.7" font-family="Times,serif" font-size="14.00" fill="#000000">2</text>
<text text-anchor="middle" x="731.75" y="-685.2" font-family="Times,serif" font-size="14.00" fill="#000000">0x103d0c350</text>
</g>
<!-- node0x103d0c290&#45;&gt;node0x103d0c310 -->
<g id="edge5" class="edge">
<title>node0x103d0c290:left&#45;&gt;node0x103d0c310</title>
<path fill="none" stroke="#187ae8" stroke-width="2" d="M677.75,-813C677.75,-804.46 676.2,-795.78 673.74,-787.4"/>
<polygon fill="#187ae8" stroke="#187ae8" stroke-width="2" points="677.57,-787.79 671.03,-779.46 670.95,-790.05 677.57,-787.79"/>
</g>
<!-- node0x103d0c2d0 -->
<g id="node17" class="node">
<title>node0x103d0c2d0</title>
<path fill="#bdef9e" stroke="#99c2a2" d="M807,-678C807,-678 979.5,-678 979.5,-678 985.5,-678 991.5,-684 991.5,-690 991.5,-690 991.5,-764.5 991.5,-764.5 991.5,-770.5 985.5,-776.5 979.5,-776.5 979.5,-776.5 807,-776.5 807,-776.5 801,-776.5 795,-770.5 795,-764.5 795,-764.5 795,-690 795,-690 795,-684 801,-678 807,-678"/>
<text text-anchor="middle" x="893.25" y="-759.2" font-family="Times,serif" font-size="14.00" fill="#000000">2</text>
<text text-anchor="middle" x="893.25" y="-742.7" font-family="Times,serif" font-size="14.00" fill="#000000">0x103d0c2d0</text>
<polyline fill="none" stroke="#99c2a2" points="795,-735.5 991.5,-735.5"/>
<text text-anchor="middle" x="821.75" y="-718.2" font-family="Times,serif" font-size="14.00" fill="#000000">Left</text>
<text text-anchor="middle" x="821.75" y="-701.7" font-family="Times,serif" font-size="14.00" fill="#000000">NONE</text>
<text text-anchor="middle" x="821.75" y="-685.2" font-family="Times,serif" font-size="14.00" fill="#000000">0x0</text>
<polyline fill="none" stroke="#99c2a2" points="848.5,-678 848.5,-735.5"/>
<text text-anchor="middle" x="893.25" y="-718.2" font-family="Times,serif" font-size="14.00" fill="#000000">Parent</text>
<text text-anchor="middle" x="893.25" y="-701.7" font-family="Times,serif" font-size="14.00" fill="#000000">*</text>
<text text-anchor="middle" x="893.25" y="-685.2" font-family="Times,serif" font-size="14.00" fill="#000000">0x103d0c290</text>
<polyline fill="none" stroke="#99c2a2" points="938,-678 938,-735.5"/>
<text text-anchor="middle" x="964.75" y="-718.2" font-family="Times,serif" font-size="14.00" fill="#000000">Right</text>
<text text-anchor="middle" x="964.75" y="-701.7" font-family="Times,serif" font-size="14.00" fill="#000000">NONE</text>
<text text-anchor="middle" x="964.75" y="-685.2" font-family="Times,serif" font-size="14.00" fill="#000000">0x0</text>
</g>
<!-- node0x103d0c290&#45;&gt;node0x103d0c2d0 -->
<g id="edge15" class="edge">
<title>node0x103d0c290:right&#45;&gt;node0x103d0c2d0</title>
<path fill="none" stroke="#48e818" stroke-width="2" d="M856.75,-813C856.75,-804.53 858.31,-795.95 860.77,-787.66"/>
<polygon fill="#48e818" stroke="#48e818" stroke-width="2" points="863.52,-790.42 863.5,-779.83 856.91,-788.12 863.52,-790.42"/>
</g>
<!-- node0x103d0c390 -->
<g id="node8" class="node">
<title>node0x103d0c390</title>
<path fill="#fbee21" stroke="#d3c70d" d="M395,-542.5C395,-542.5 639.5,-542.5 639.5,-542.5 645.5,-542.5 651.5,-548.5 651.5,-554.5 651.5,-554.5 651.5,-629 651.5,-629 651.5,-635 645.5,-641 639.5,-641 639.5,-641 395,-641 395,-641 389,-641 383,-635 383,-629 383,-629 383,-554.5 383,-554.5 383,-548.5 389,-542.5 395,-542.5"/>
<text text-anchor="middle" x="517.25" y="-623.7" font-family="Times,serif" font-size="14.00" fill="#000000">*</text>
<text text-anchor="middle" x="517.25" y="-607.2" font-family="Times,serif" font-size="14.00" fill="#000000">0x103d0c390</text>
<polyline fill="none" stroke="#d3c70d" points="383,-600 651.5,-600"/>
<text text-anchor="middle" x="427.75" y="-582.7" font-family="Times,serif" font-size="14.00" fill="#000000">Left</text>
<text text-anchor="middle" x="427.75" y="-566.2" font-family="Times,serif" font-size="14.00" fill="#000000">*</text>
<text text-anchor="middle" x="427.75" y="-549.7" font-family="Times,serif" font-size="14.00" fill="#000000">0x103d0c410</text>
<polyline fill="none" stroke="#d3c70d" points="472.5,-542.5 472.5,-600"/>
<text text-anchor="middle" x="517.25" y="-582.7" font-family="Times,serif" font-size="14.00" fill="#000000">Parent</text>
<text text-anchor="middle" x="517.25" y="-566.2" font-family="Times,serif" font-size="14.00" fill="#000000">*</text>
<text text-anchor="middle" x="517.25" y="-549.7" font-family="Times,serif" font-size="14.00" fill="#000000">0x103d0c310</text>
<polyline fill="none" stroke="#d3c70d" points="562,-542.5 562,-600"/>
<text text-anchor="middle" x="606.75" y="-582.7" font-family="Times,serif" font-size="14.00" fill="#000000">Right</text>
<text text-anchor="middle" x="606.75" y="-566.2" font-family="Times,serif" font-size="14.00" fill="#000000">2</text>
<text text-anchor="middle" x="606.75" y="-549.7" font-family="Times,serif" font-size="14.00" fill="#000000">0x103d0c3d0</text>
</g>
<!-- node0x103d0c310&#45;&gt;node0x103d0c390 -->
<g id="edge6" class="edge">
<title>node0x103d0c310:left&#45;&gt;node0x103d0c390</title>
<path fill="none" stroke="#187ae8" stroke-width="2" d="M552.75,-677.5C552.75,-668.96 551.2,-660.28 548.74,-651.9"/>
<polygon fill="#187ae8" stroke="#187ae8" stroke-width="2" points="552.57,-652.29 546.03,-643.96 545.95,-654.55 552.57,-652.29"/>
</g>
<!-- node0x103d0c350 -->
<g id="node16" class="node">
<title>node0x103d0c350</title>
<path fill="#bdef9e" stroke="#99c2a2" d="M682,-542.5C682,-542.5 854.5,-542.5 854.5,-542.5 860.5,-542.5 866.5,-548.5 866.5,-554.5 866.5,-554.5 866.5,-629 866.5,-629 866.5,-635 860.5,-641 854.5,-641 854.5,-641 682,-641 682,-641 676,-641 670,-635 670,-629 670,-629 670,-554.5 670,-554.5 670,-548.5 676,-542.5 682,-542.5"/>
<text text-anchor="middle" x="768.25" y="-623.7" font-family="Times,serif" font-size="14.00" fill="#000000">2</text>
<text text-anchor="middle" x="768.25" y="-607.2" font-family="Times,serif" font-size="14.00" fill="#000000">0x103d0c350</text>
<polyline fill="none" stroke="#99c2a2" points="670,-600 866.5,-600"/>
<text text-anchor="middle" x="696.75" y="-582.7" font-family="Times,serif" font-size="14.00" fill="#000000">Left</text>
<text text-anchor="middle" x="696.75" y="-566.2" font-family="Times,serif" font-size="14.00" fill="#000000">NONE</text>
<text text-anchor="middle" x="696.75" y="-549.7" font-family="Times,serif" font-size="14.00" fill="#000000">0x0</text>
<polyline fill="none" stroke="#99c2a2" points="723.5,-542.5 723.5,-600"/>
<text text-anchor="middle" x="768.25" y="-582.7" font-family="Times,serif" font-size="14.00" fill="#000000">Parent</text>
<text text-anchor="middle" x="768.25" y="-566.2" font-family="Times,serif" font-size="14.00" fill="#000000">*</text>
<text text-anchor="middle" x="768.25" y="-549.7" font-family="Times,serif" font-size="14.00" fill="#000000">0x103d0c310</text>
<polyline fill="none" stroke="#99c2a2" points="813,-542.5 813,-600"/>
<text text-anchor="middle" x="839.75" y="-582.7" font-family="Times,serif" font-size="14.00" fill="#000000">Right</text>
<text text-anchor="middle" x="839.75" y="-566.2" font-family="Times,serif" font-size="14.00" fill="#000000">NONE</text>
<text text-anchor="middle" x="839.75" y="-549.7" font-family="Times,serif" font-size="14.00" fill="#000000">0x0</text>
</g>
<!-- node0x103d0c310&#45;&gt;node0x103d0c350 -->
<g id="edge14" class="edge">
<title>node0x103d0c310:right&#45;&gt;node0x103d0c350</title>
<path fill="none" stroke="#48e818" stroke-width="2" d="M731.75,-677.5C731.75,-669.03 733.31,-660.45 735.77,-652.16"/>
<polygon fill="#48e818" stroke="#48e818" stroke-width="2" points="738.52,-654.92 738.5,-644.33 731.91,-652.62 738.52,-654.92"/>
</g>
<!-- node0x103d0c410 -->
<g id="node9" class="node">
<title>node0x103d0c410</title>
<path fill="#fbee21" stroke="#d3c70d" d="M270,-407C270,-407 514.5,-407 514.5,-407 520.5,-407 526.5,-413 526.5,-419 526.5,-419 526.5,-493.5 526.5,-493.5 526.5,-499.5 520.5,-505.5 514.5,-505.5 514.5,-505.5 270,-505.5 270,-505.5 264,-505.5 258,-499.5 258,-493.5 258,-493.5 258,-419 258,-419 258,-413 264,-407 270,-407"/>
<text text-anchor="middle" x="392.25" y="-488.2" font-family="Times,serif" font-size="14.00" fill="#000000">*</text>
<text text-anchor="middle" x="392.25" y="-471.7" font-family="Times,serif" font-size="14.00" fill="#000000">0x103d0c410</text>
<polyline fill="none" stroke="#d3c70d" points="258,-464.5 526.5,-464.5"/>
<text text-anchor="middle" x="302.75" y="-447.2" font-family="Times,serif" font-size="14.00" fill="#000000">Left</text>
<text text-anchor="middle" x="302.75" y="-430.7" font-family="Times,serif" font-size="14.00" fill="#000000">exp</text>
<text text-anchor="middle" x="302.75" y="-414.2" font-family="Times,serif" font-size="14.00" fill="#000000">0x103d0c490</text>
<polyline fill="none" stroke="#d3c70d" points="347.5,-407 347.5,-464.5"/>
<text text-anchor="middle" x="392.25" y="-447.2" font-family="Times,serif" font-size="14.00" fill="#000000">Parent</text>
<text text-anchor="middle" x="392.25" y="-430.7" font-family="Times,serif" font-size="14.00" fill="#000000">*</text>
<text text-anchor="middle" x="392.25" y="-414.2" font-family="Times,serif" font-size="14.00" fill="#000000">0x103d0c390</text>
<polyline fill="none" stroke="#d3c70d" points="437,-407 437,-464.5"/>
<text text-anchor="middle" x="481.75" y="-447.2" font-family="Times,serif" font-size="14.00" fill="#000000">Right</text>
<text text-anchor="middle" x="481.75" y="-430.7" font-family="Times,serif" font-size="14.00" fill="#000000">2</text>
<text text-anchor="middle" x="481.75" y="-414.2" font-family="Times,serif" font-size="14.00" fill="#000000">0x103d0c450</text>
</g>
<!-- node0x103d0c390&#45;&gt;node0x103d0c410 -->
<g id="edge7" class="edge">
<title>node0x103d0c390:left&#45;&gt;node0x103d0c410</title>
<path fill="none" stroke="#187ae8" stroke-width="2" d="M427.75,-542C427.75,-533.46 426.2,-524.78 423.74,-516.4"/>
<polygon fill="#187ae8" stroke="#187ae8" stroke-width="2" points="427.57,-516.79 421.03,-508.46 420.95,-519.05 427.57,-516.79"/>
</g>
<!-- node0x103d0c3d0 -->
<g id="node15" class="node">
<title>node0x103d0c3d0</title>
<path fill="#bdef9e" stroke="#99c2a2" d="M557,-407C557,-407 729.5,-407 729.5,-407 735.5,-407 741.5,-413 741.5,-419 741.5,-419 741.5,-493.5 741.5,-493.5 741.5,-499.5 735.5,-505.5 729.5,-505.5 729.5,-505.5 557,-505.5 557,-505.5 551,-505.5 545,-499.5 545,-493.5 545,-493.5 545,-419 545,-419 545,-413 551,-407 557,-407"/>
<text text-anchor="middle" x="643.25" y="-488.2" font-family="Times,serif" font-size="14.00" fill="#000000">2</text>
<text text-anchor="middle" x="643.25" y="-471.7" font-family="Times,serif" font-size="14.00" fill="#000000">0x103d0c3d0</text>
<polyline fill="none" stroke="#99c2a2" points="545,-464.5 741.5,-464.5"/>
<text text-anchor="middle" x="571.75" y="-447.2" font-family="Times,serif" font-size="14.00" fill="#000000">Left</text>
<text text-anchor="middle" x="571.75" y="-430.7" font-family="Times,serif" font-size="14.00" fill="#000000">NONE</text>
<text text-anchor="middle" x="571.75" y="-414.2" font-family="Times,serif" font-size="14.00" fill="#000000">0x0</text>
<polyline fill="none" stroke="#99c2a2" points="598.5,-407 598.5,-464.5"/>
<text text-anchor="middle" x="643.25" y="-447.2" font-family="Times,serif" font-size="14.00" fill="#000000">Parent</text>
<text text-anchor="middle" x="643.25" y="-430.7" font-family="Times,serif" font-size="14.00" fill="#000000">*</text>
<text text-anchor="middle" x="643.25" y="-414.2" font-family="Times,serif" font-size="14.00" fill="#000000">0x103d0c390</text>
<polyline fill="none" stroke="#99c2a2" points="688,-407 688,-464.5"/>
<text text-anchor="middle" x="714.75" y="-447.2" font-family="Times,serif" font-size="14.00" fill="#000000">Right</text>
<text text-anchor="middle" x="714.75" y="-430.7" font-family="Times,serif" font-size="14.00" fill="#000000">NONE</text>
<text text-anchor="middle" x="714.75" y="-414.2" font-family="Times,serif" font-size="14.00" fill="#000000">0x0</text>
</g>
<!-- node0x103d0c390&#45;&gt;node0x103d0c3d0 -->
<g id="edge13" class="edge">
<title>node0x103d0c390:right&#45;&gt;node0x103d0c3d0</title>
<path fill="none" stroke="#48e818" stroke-width="2" d="M606.75,-542C606.75,-533.53 608.31,-524.95 610.77,-516.66"/>
<polygon fill="#48e818" stroke="#48e818" stroke-width="2" points="613.52,-519.42 613.5,-508.83 606.91,-517.12 613.52,-519.42"/>
</g>
<!-- node0x103d0c490 -->
<g id="node10" class="node">
<title>node0x103d0c490</title>
<path fill="#fbee21" stroke="#d3c70d" d="M172,-271.5C172,-271.5 380.5,-271.5 380.5,-271.5 386.5,-271.5 392.5,-277.5 392.5,-283.5 392.5,-283.5 392.5,-358 392.5,-358 392.5,-364 386.5,-370 380.5,-370 380.5,-370 172,-370 172,-370 166,-370 160,-364 160,-358 160,-358 160,-283.5 160,-283.5 160,-277.5 166,-271.5 172,-271.5"/>
<text text-anchor="middle" x="276.25" y="-352.7" font-family="Times,serif" font-size="14.00" fill="#000000">exp</text>
<text text-anchor="middle" x="276.25" y="-336.2" font-family="Times,serif" font-size="14.00" fill="#000000">0x103d0c490</text>
<polyline fill="none" stroke="#d3c70d" points="160,-329 392.5,-329"/>
<text text-anchor="middle" x="204.75" y="-311.7" font-family="Times,serif" font-size="14.00" fill="#000000">Left</text>
<text text-anchor="middle" x="204.75" y="-295.2" font-family="Times,serif" font-size="14.00" fill="#000000">*</text>
<text text-anchor="middle" x="204.75" y="-278.7" font-family="Times,serif" font-size="14.00" fill="#000000">0x103d0c4d0</text>
<polyline fill="none" stroke="#d3c70d" points="249.5,-271.5 249.5,-329"/>
<text text-anchor="middle" x="294.25" y="-311.7" font-family="Times,serif" font-size="14.00" fill="#000000">Parent</text>
<text text-anchor="middle" x="294.25" y="-295.2" font-family="Times,serif" font-size="14.00" fill="#000000">*</text>
<text text-anchor="middle" x="294.25" y="-278.7" font-family="Times,serif" font-size="14.00" fill="#000000">0x103d0c410</text>
<polyline fill="none" stroke="#d3c70d" points="339,-271.5 339,-329"/>
<text text-anchor="middle" x="365.75" y="-311.7" font-family="Times,serif" font-size="14.00" fill="#000000">Right</text>
<text text-anchor="middle" x="365.75" y="-295.2" font-family="Times,serif" font-size="14.00" fill="#000000">NONE</text>
<text text-anchor="middle" x="365.75" y="-278.7" font-family="Times,serif" font-size="14.00" fill="#000000">0x0</text>
</g>
<!-- node0x103d0c410&#45;&gt;node0x103d0c490 -->
<g id="edge8" class="edge">
<title>node0x103d0c410:left&#45;&gt;node0x103d0c490</title>
<path fill="none" stroke="#187ae8" stroke-width="2" d="M302.75,-406.5C302.75,-398.14 301.56,-389.52 299.69,-381.12"/>
<polygon fill="#187ae8" stroke="#187ae8" stroke-width="2" points="303.53,-381.98 297.63,-373.18 296.75,-383.74 303.53,-381.98"/>
</g>
<!-- node0x103d0c450 -->
<g id="node14" class="node">
<title>node0x103d0c450</title>
<path fill="#bdef9e" stroke="#99c2a2" d="M423,-271.5C423,-271.5 595.5,-271.5 595.5,-271.5 601.5,-271.5 607.5,-277.5 607.5,-283.5 607.5,-283.5 607.5,-358 607.5,-358 607.5,-364 601.5,-370 595.5,-370 595.5,-370 423,-370 423,-370 417,-370 411,-364 411,-358 411,-358 411,-283.5 411,-283.5 411,-277.5 417,-271.5 423,-271.5"/>
<text text-anchor="middle" x="509.25" y="-352.7" font-family="Times,serif" font-size="14.00" fill="#000000">2</text>
<text text-anchor="middle" x="509.25" y="-336.2" font-family="Times,serif" font-size="14.00" fill="#000000">0x103d0c450</text>
<polyline fill="none" stroke="#99c2a2" points="411,-329 607.5,-329"/>
<text text-anchor="middle" x="437.75" y="-311.7" font-family="Times,serif" font-size="14.00" fill="#000000">Left</text>
<text text-anchor="middle" x="437.75" y="-295.2" font-family="Times,serif" font-size="14.00" fill="#000000">NONE</text>
<text text-anchor="middle" x="437.75" y="-278.7" font-family="Times,serif" font-size="14.00" fill="#000000">0x0</text>
<polyline fill="none" stroke="#99c2a2" points="464.5,-271.5 464.5,-329"/>
<text text-anchor="middle" x="509.25" y="-311.7" font-family="Times,serif" font-size="14.00" fill="#000000">Parent</text>
<text text-anchor="middle" x="509.25" y="-295.2" font-family="Times,serif" font-size="14.00" fill="#000000">*</text>
<text text-anchor="middle" x="509.25" y="-278.7" font-family="Times,serif" font-size="14.00" fill="#000000">0x103d0c410</text>
<polyline fill="none" stroke="#99c2a2" points="554,-271.5 554,-329"/>
<text text-anchor="middle" x="580.75" y="-311.7" font-family="Times,serif" font-size="14.00" fill="#000000">Right</text>
<text text-anchor="middle" x="580.75" y="-295.2" font-family="Times,serif" font-size="14.00" fill="#000000">NONE</text>
<text text-anchor="middle" x="580.75" y="-278.7" font-family="Times,serif" font-size="14.00" fill="#000000">0x0</text>
</g>
<!-- node0x103d0c410&#45;&gt;node0x103d0c450 -->
<g id="edge12" class="edge">
<title>node0x103d0c410:right&#45;&gt;node0x103d0c450</title>
<path fill="none" stroke="#48e818" stroke-width="2" d="M481.75,-406.5C481.75,-398.11 482.98,-389.47 484.93,-381.07"/>
<polygon fill="#48e818" stroke="#48e818" stroke-width="2" points="487.85,-383.68 487.07,-373.11 481.09,-381.86 487.85,-383.68"/>
</g>
<!-- node0x103d0c4d0 -->
<g id="node11" class="node">
<title>node0x103d0c4d0</title>
<path fill="#fbee21" stroke="#d3c70d" d="M83,-136C83,-136 327.5,-136 327.5,-136 333.5,-136 339.5,-142 339.5,-148 339.5,-148 339.5,-222.5 339.5,-222.5 339.5,-228.5 333.5,-234.5 327.5,-234.5 327.5,-234.5 83,-234.5 83,-234.5 77,-234.5 71,-228.5 71,-222.5 71,-222.5 71,-148 71,-148 71,-142 77,-136 83,-136"/>
<text text-anchor="middle" x="205.25" y="-217.2" font-family="Times,serif" font-size="14.00" fill="#000000">*</text>
<text text-anchor="middle" x="205.25" y="-200.7" font-family="Times,serif" font-size="14.00" fill="#000000">0x103d0c4d0</text>
<polyline fill="none" stroke="#d3c70d" points="71,-193.5 339.5,-193.5"/>
<text text-anchor="middle" x="115.75" y="-176.2" font-family="Times,serif" font-size="14.00" fill="#000000">Left</text>
<text text-anchor="middle" x="115.75" y="-159.7" font-family="Times,serif" font-size="14.00" fill="#000000">x</text>
<text text-anchor="middle" x="115.75" y="-143.2" font-family="Times,serif" font-size="14.00" fill="#000000">0x103d0c550</text>
<polyline fill="none" stroke="#d3c70d" points="160.5,-136 160.5,-193.5"/>
<text text-anchor="middle" x="205.25" y="-176.2" font-family="Times,serif" font-size="14.00" fill="#000000">Parent</text>
<text text-anchor="middle" x="205.25" y="-159.7" font-family="Times,serif" font-size="14.00" fill="#000000">exp</text>
<text text-anchor="middle" x="205.25" y="-143.2" font-family="Times,serif" font-size="14.00" fill="#000000">0x103d0c490</text>
<polyline fill="none" stroke="#d3c70d" points="250,-136 250,-193.5"/>
<text text-anchor="middle" x="294.75" y="-176.2" font-family="Times,serif" font-size="14.00" fill="#000000">Right</text>
<text text-anchor="middle" x="294.75" y="-159.7" font-family="Times,serif" font-size="14.00" fill="#000000">2</text>
<text text-anchor="middle" x="294.75" y="-143.2" font-family="Times,serif" font-size="14.00" fill="#000000">0x103d0c510</text>
</g>
<!-- node0x103d0c490&#45;&gt;node0x103d0c4d0 -->
<g id="edge9" class="edge">
<title>node0x103d0c490:left&#45;&gt;node0x103d0c4d0</title>
<path fill="none" stroke="#187ae8" stroke-width="2" d="M204.75,-271C204.75,-262.91 204.77,-254.38 204.81,-245.98"/>
<polygon fill="#187ae8" stroke="#187ae8" stroke-width="2" points="208.3,-247.7 204.85,-237.68 201.3,-247.66 208.3,-247.7"/>
</g>
<!-- node0x103d0c550 -->
<g id="node12" class="node">
<title>node0x103d0c550</title>
<path fill="#d5cfe1" stroke="#8797b2" d="M12,-0.5C12,-0.5 184.5,-0.5 184.5,-0.5 190.5,-0.5 196.5,-6.5 196.5,-12.5 196.5,-12.5 196.5,-87 196.5,-87 196.5,-93 190.5,-99 184.5,-99 184.5,-99 12,-99 12,-99 6,-99 0,-93 0,-87 0,-87 0,-12.5 0,-12.5 0,-6.5 6,-0.5 12,-0.5"/>
<text text-anchor="middle" x="98.25" y="-81.7" font-family="Times,serif" font-size="14.00" fill="#000000">x</text>
<text text-anchor="middle" x="98.25" y="-65.2" font-family="Times,serif" font-size="14.00" fill="#000000">0x103d0c550</text>
<polyline fill="none" stroke="#8797b2" points="0,-58 196.5,-58"/>
<text text-anchor="middle" x="26.75" y="-40.7" font-family="Times,serif" font-size="14.00" fill="#000000">Left</text>
<text text-anchor="middle" x="26.75" y="-24.2" font-family="Times,serif" font-size="14.00" fill="#000000">NONE</text>
<text text-anchor="middle" x="26.75" y="-7.7" font-family="Times,serif" font-size="14.00" fill="#000000">0x0</text>
<polyline fill="none" stroke="#8797b2" points="53.5,-0.5 53.5,-58"/>
<text text-anchor="middle" x="98.25" y="-40.7" font-family="Times,serif" font-size="14.00" fill="#000000">Parent</text>
<text text-anchor="middle" x="98.25" y="-24.2" font-family="Times,serif" font-size="14.00" fill="#000000">*</text>
<text text-anchor="middle" x="98.25" y="-7.7" font-family="Times,serif" font-size="14.00" fill="#000000">0x103d0c4d0</text>
<polyline fill="none" stroke="#8797b2" points="143,-0.5 143,-58"/>
<text text-anchor="middle" x="169.75" y="-40.7" font-family="Times,serif" font-size="14.00" fill="#000000">Right</text>
<text text-anchor="middle" x="169.75" y="-24.2" font-family="Times,serif" font-size="14.00" fill="#000000">NONE</text>
<text text-anchor="middle" x="169.75" y="-7.7" font-family="Times,serif" font-size="14.00" fill="#000000">0x0</text>
</g>
<!-- node0x103d0c4d0&#45;&gt;node0x103d0c550 -->
<g id="edge10" class="edge">
<title>node0x103d0c4d0:left&#45;&gt;node0x103d0c550</title>
<path fill="none" stroke="#187ae8" stroke-width="2" d="M115.75,-135.5C115.75,-127.34 114.96,-118.83 113.72,-110.48"/>
<polygon fill="#187ae8" stroke="#187ae8" stroke-width="2" points="117.45,-111.49 112.29,-102.23 110.55,-112.68 117.45,-111.49"/>
</g>
<!-- node0x103d0c510 -->
<g id="node13" class="node">
<title>node0x103d0c510</title>
<path fill="#bdef9e" stroke="#99c2a2" d="M227,-0.5C227,-0.5 399.5,-0.5 399.5,-0.5 405.5,-0.5 411.5,-6.5 411.5,-12.5 411.5,-12.5 411.5,-87 411.5,-87 411.5,-93 405.5,-99 399.5,-99 399.5,-99 227,-99 227,-99 221,-99 215,-93 215,-87 215,-87 215,-12.5 215,-12.5 215,-6.5 221,-0.5 227,-0.5"/>
<text text-anchor="middle" x="313.25" y="-81.7" font-family="Times,serif" font-size="14.00" fill="#000000">2</text>
<text text-anchor="middle" x="313.25" y="-65.2" font-family="Times,serif" font-size="14.00" fill="#000000">0x103d0c510</text>
<polyline fill="none" stroke="#99c2a2" points="215,-58 411.5,-58"/>
<text text-anchor="middle" x="241.75" y="-40.7" font-family="Times,serif" font-size="14.00" fill="#000000">Left</text>
<text text-anchor="middle" x="241.75" y="-24.2" font-family="Times,serif" font-size="14.00" fill="#000000">NONE</text>
<text text-anchor="middle" x="241.75" y="-7.7" font-family="Times,serif" font-size="14.00" fill="#000000">0x0</text>
<polyline fill="none" stroke="#99c2a2" points="268.5,-0.5 268.5,-58"/>
<text text-anchor="middle" x="313.25" y="-40.7" font-family="Times,serif" font-size="14.00" fill="#000000">Parent</text>
<text text-anchor="middle" x="313.25" y="-24.2" font-family="Times,serif" font-size="14.00" fill="#000000">*</text>
<text text-anchor="middle" x="313.25" y="-7.7" font-family="Times,serif" font-size="14.00" fill="#000000">0x103d0c4d0</text>
<polyline fill="none" stroke="#99c2a2" points="358,-0.5 358,-58"/>
<text text-anchor="middle" x="384.75" y="-40.7" font-family="Times,serif" font-size="14.00" fill="#000000">Right</text>
<text text-anchor="middle" x="384.75" y="-24.2" font-family="Times,serif" font-size="14.00" fill="#000000">NONE</text>
<text text-anchor="middle" x="384.75" y="-7.7" font-family="Times,serif" font-size="14.00" fill="#000000">0x0</text>
</g>
<!-- node0x103d0c4d0&#45;&gt;node0x103d0c510 -->
<g id="edge11" class="edge">
<title>node0x103d0c4d0:right&#45;&gt;node0x103d0c510</title>
<path fill="none" stroke="#48e818" stroke-width="2" d="M294.75,-135.5C294.75,-127.32 295.58,-118.8 296.89,-110.44"/>
<polygon fill="#48e818" stroke="#48e818" stroke-width="2" points="300.05,-112.65 298.4,-102.18 293.16,-111.39 300.05,-112.65"/>
</g>
</g>
</svg>
