<?xml version="1.0" encoding="UTF-8" standalone="no"?>
<!DOCTYPE svg PUBLIC "-//W3C//DTD SVG 1.1//EN"
 "http://www.w3.org/Graphics/SVG/1.1/DTD/svg11.dtd">
<!-- Generated by graphviz version 12.2.0 (20241103.1931)
 -->
<!-- Pages: 1 -->
<svg width="1004pt" height="1056pt"
 viewBox="0.00 0.00 1003.88 1056.00" xmlns="http://www.w3.org/2000/svg" xmlns:xlink="http://www.w3.org/1999/xlink">
<g id="graph0" class="graph" transform="scale(1 1) rotate(0) translate(4 1052)">
<polygon fill="#dcdcdc" stroke="none" points="-4,4 -4,-1052 999.88,-1052 999.88,4 -4,4"/>
<!-- node0x103d03310 -->
<g id="node1" class="node">
<title>node0x103d03310</title>
<path fill="#f18805" stroke="#af3800" d="M558.25,-949C558.25,-949 768.25,-949 768.25,-949 774.25,-949 780.25,-955 780.25,-961 780.25,-961 780.25,-1035.5 780.25,-1035.5 780.25,-1041.5 774.25,-1047.5 768.25,-1047.5 768.25,-1047.5 558.25,-1047.5 558.25,-1047.5 552.25,-1047.5 546.25,-1041.5 546.25,-1035.5 546.25,-1035.5 546.25,-961 546.25,-961 546.25,-955 552.25,-949 558.25,-949"/>
<text text-anchor="middle" x="663.25" y="-1030.2" font-family="Times,serif" font-size="14.00" fill="#000000">*</text>
<text text-anchor="middle" x="663.25" y="-1013.7" font-family="Times,serif" font-size="14.00" fill="#000000">0x103d03310</text>
<polyline fill="none" stroke="#af3800" points="546.25,-1006.5 780.25,-1006.5"/>
<text text-anchor="middle" x="591.38" y="-989.2" font-family="Times,serif" font-size="14.00" fill="#000000">Left</text>
<text text-anchor="middle" x="591.38" y="-972.7" font-family="Times,serif" font-size="14.00" fill="#000000">2</text>
<text text-anchor="middle" x="591.38" y="-956.2" font-family="Times,serif" font-size="14.00" fill="#000000">0x103d04b10</text>
<polyline fill="none" stroke="#af3800" points="636.5,-949 636.5,-1006.5"/>
<text text-anchor="middle" x="663.25" y="-989.2" font-family="Times,serif" font-size="14.00" fill="#000000">Parent</text>
<text text-anchor="middle" x="663.25" y="-972.7" font-family="Times,serif" font-size="14.00" fill="#000000">NONE</text>
<text text-anchor="middle" x="663.25" y="-956.2" font-family="Times,serif" font-size="14.00" fill="#000000">0x0</text>
<polyline fill="none" stroke="#af3800" points="690,-949 690,-1006.5"/>
<text text-anchor="middle" x="735.12" y="-989.2" font-family="Times,serif" font-size="14.00" fill="#000000">Right</text>
<text text-anchor="middle" x="735.12" y="-972.7" font-family="Times,serif" font-size="14.00" fill="#000000">*</text>
<text text-anchor="middle" x="735.12" y="-956.2" font-family="Times,serif" font-size="14.00" fill="#000000">0x103d04810</text>
</g>
<!-- node0x103d04b10 -->
<g id="node2" class="node">
<title>node0x103d04b10</title>
<path fill="#bdef9e" stroke="#99c2a2" d="M488,-813.5C488,-813.5 624.5,-813.5 624.5,-813.5 630.5,-813.5 636.5,-819.5 636.5,-825.5 636.5,-825.5 636.5,-900 636.5,-900 636.5,-906 630.5,-912 624.5,-912 624.5,-912 488,-912 488,-912 482,-912 476,-906 476,-900 476,-900 476,-825.5 476,-825.5 476,-819.5 482,-813.5 488,-813.5"/>
<text text-anchor="middle" x="556.25" y="-894.7" font-family="Times,serif" font-size="14.00" fill="#000000">2</text>
<text text-anchor="middle" x="556.25" y="-878.2" font-family="Times,serif" font-size="14.00" fill="#000000">0x103d04b10</text>
<polyline fill="none" stroke="#99c2a2" points="476,-871 636.5,-871"/>
<text text-anchor="middle" x="502.75" y="-853.7" font-family="Times,serif" font-size="14.00" fill="#000000">Left</text>
<text text-anchor="middle" x="502.75" y="-837.2" font-family="Times,serif" font-size="14.00" fill="#000000">NONE</text>
<text text-anchor="middle" x="502.75" y="-820.7" font-family="Times,serif" font-size="14.00" fill="#000000">0x0</text>
<polyline fill="none" stroke="#99c2a2" points="529.5,-813.5 529.5,-871"/>
<text text-anchor="middle" x="556.25" y="-853.7" font-family="Times,serif" font-size="14.00" fill="#000000">Parent</text>
<text text-anchor="middle" x="556.25" y="-837.2" font-family="Times,serif" font-size="14.00" fill="#000000">NONE</text>
<text text-anchor="middle" x="556.25" y="-820.7" font-family="Times,serif" font-size="14.00" fill="#000000">0x0</text>
<polyline fill="none" stroke="#99c2a2" points="583,-813.5 583,-871"/>
<text text-anchor="middle" x="609.75" y="-853.7" font-family="Times,serif" font-size="14.00" fill="#000000">Right</text>
<text text-anchor="middle" x="609.75" y="-837.2" font-family="Times,serif" font-size="14.00" fill="#000000">NONE</text>
<text text-anchor="middle" x="609.75" y="-820.7" font-family="Times,serif" font-size="14.00" fill="#000000">0x0</text>
</g>
<!-- node0x103d03310&#45;&gt;node0x103d04b10 -->
<g id="edge1" class="edge">
<title>node0x103d03310:left&#45;&gt;node0x103d04b10</title>
<path fill="none" stroke="#187ae8" stroke-width="2" d="M591.38,-948.5C591.38,-939.97 589.84,-931.31 587.41,-922.93"/>
<polygon fill="#187ae8" stroke="#187ae8" stroke-width="2" points="591.24,-923.34 584.72,-914.99 584.61,-925.58 591.24,-923.34"/>
</g>
<!-- node0x103d04810 -->
<g id="node3" class="node">
<title>node0x103d04810</title>
<path fill="#fbee21" stroke="#d3c70d" d="M666.25,-813.5C666.25,-813.5 876.25,-813.5 876.25,-813.5 882.25,-813.5 888.25,-819.5 888.25,-825.5 888.25,-825.5 888.25,-900 888.25,-900 888.25,-906 882.25,-912 876.25,-912 876.25,-912 666.25,-912 666.25,-912 660.25,-912 654.25,-906 654.25,-900 654.25,-900 654.25,-825.5 654.25,-825.5 654.25,-819.5 660.25,-813.5 666.25,-813.5"/>
<text text-anchor="middle" x="771.25" y="-894.7" font-family="Times,serif" font-size="14.00" fill="#000000">*</text>
<text text-anchor="middle" x="771.25" y="-878.2" font-family="Times,serif" font-size="14.00" fill="#000000">0x103d04810</text>
<polyline fill="none" stroke="#d3c70d" points="654.25,-871 888.25,-871"/>
<text text-anchor="middle" x="699.38" y="-853.7" font-family="Times,serif" font-size="14.00" fill="#000000">Left</text>
<text text-anchor="middle" x="699.38" y="-837.2" font-family="Times,serif" font-size="14.00" fill="#000000">*</text>
<text text-anchor="middle" x="699.38" y="-820.7" font-family="Times,serif" font-size="14.00" fill="#000000">0x103d04890</text>
<polyline fill="none" stroke="#d3c70d" points="744.5,-813.5 744.5,-871"/>
<text text-anchor="middle" x="771.25" y="-853.7" font-family="Times,serif" font-size="14.00" fill="#000000">Parent</text>
<text text-anchor="middle" x="771.25" y="-837.2" font-family="Times,serif" font-size="14.00" fill="#000000">NONE</text>
<text text-anchor="middle" x="771.25" y="-820.7" font-family="Times,serif" font-size="14.00" fill="#000000">0x0</text>
<polyline fill="none" stroke="#d3c70d" points="798,-813.5 798,-871"/>
<text text-anchor="middle" x="843.12" y="-853.7" font-family="Times,serif" font-size="14.00" fill="#000000">Right</text>
<text text-anchor="middle" x="843.12" y="-837.2" font-family="Times,serif" font-size="14.00" fill="#000000">2</text>
<text text-anchor="middle" x="843.12" y="-820.7" font-family="Times,serif" font-size="14.00" fill="#000000">0x103d04850</text>
</g>
<!-- node0x103d03310&#45;&gt;node0x103d04810 -->
<g id="edge13" class="edge">
<title>node0x103d03310:right&#45;&gt;node0x103d04810</title>
<path fill="none" stroke="#48e818" stroke-width="2" d="M735.12,-948.5C735.12,-940.05 736.66,-931.47 739.11,-923.19"/>
<polygon fill="#48e818" stroke="#48e818" stroke-width="2" points="741.86,-925.95 741.8,-915.36 735.24,-923.68 741.86,-925.95"/>
</g>
<!-- node0x103d04890 -->
<g id="node4" class="node">
<title>node0x103d04890</title>
<path fill="#fbee21" stroke="#d3c70d" d="M521.88,-678C521.88,-678 768.62,-678 768.62,-678 774.62,-678 780.62,-684 780.62,-690 780.62,-690 780.62,-764.5 780.62,-764.5 780.62,-770.5 774.62,-776.5 768.62,-776.5 768.62,-776.5 521.88,-776.5 521.88,-776.5 515.88,-776.5 509.88,-770.5 509.88,-764.5 509.88,-764.5 509.88,-690 509.88,-690 509.88,-684 515.88,-678 521.88,-678"/>
<text text-anchor="middle" x="645.25" y="-759.2" font-family="Times,serif" font-size="14.00" fill="#000000">*</text>
<text text-anchor="middle" x="645.25" y="-742.7" font-family="Times,serif" font-size="14.00" fill="#000000">0x103d04890</text>
<polyline fill="none" stroke="#d3c70d" points="509.88,-735.5 780.62,-735.5"/>
<text text-anchor="middle" x="555" y="-718.2" font-family="Times,serif" font-size="14.00" fill="#000000">Left</text>
<text text-anchor="middle" x="555" y="-701.7" font-family="Times,serif" font-size="14.00" fill="#000000">*</text>
<text text-anchor="middle" x="555" y="-685.2" font-family="Times,serif" font-size="14.00" fill="#000000">0x103d04910</text>
<polyline fill="none" stroke="#d3c70d" points="600.12,-678 600.12,-735.5"/>
<text text-anchor="middle" x="645.25" y="-718.2" font-family="Times,serif" font-size="14.00" fill="#000000">Parent</text>
<text text-anchor="middle" x="645.25" y="-701.7" font-family="Times,serif" font-size="14.00" fill="#000000">*</text>
<text text-anchor="middle" x="645.25" y="-685.2" font-family="Times,serif" font-size="14.00" fill="#000000">0x103d04810</text>
<polyline fill="none" stroke="#d3c70d" points="690.38,-678 690.38,-735.5"/>
<text text-anchor="middle" x="735.5" y="-718.2" font-family="Times,serif" font-size="14.00" fill="#000000">Right</text>
<text text-anchor="middle" x="735.5" y="-701.7" font-family="Times,serif" font-size="14.00" fill="#000000">2</text>
<text text-anchor="middle" x="735.5" y="-685.2" font-family="Times,serif" font-size="14.00" fill="#000000">0x103d048d0</text>
</g>
<!-- node0x103d04810&#45;&gt;node0x103d04890 -->
<g id="edge2" class="edge">
<title>node0x103d04810:left&#45;&gt;node0x103d04890</title>
<path fill="none" stroke="#187ae8" stroke-width="2" d="M699.38,-813C699.38,-804.04 697.2,-795.26 693.72,-786.96"/>
<polygon fill="#187ae8" stroke="#187ae8" stroke-width="2" points="697.57,-786.86 690.02,-779.44 691.29,-789.95 697.57,-786.86"/>
</g>
<!-- node0x103d04850 -->
<g id="node14" class="node">
<title>node0x103d04850</title>
<path fill="#bdef9e" stroke="#99c2a2" d="M810.62,-678C810.62,-678 983.88,-678 983.88,-678 989.88,-678 995.88,-684 995.88,-690 995.88,-690 995.88,-764.5 995.88,-764.5 995.88,-770.5 989.88,-776.5 983.88,-776.5 983.88,-776.5 810.62,-776.5 810.62,-776.5 804.62,-776.5 798.62,-770.5 798.62,-764.5 798.62,-764.5 798.62,-690 798.62,-690 798.62,-684 804.62,-678 810.62,-678"/>
<text text-anchor="middle" x="897.25" y="-759.2" font-family="Times,serif" font-size="14.00" fill="#000000">2</text>
<text text-anchor="middle" x="897.25" y="-742.7" font-family="Times,serif" font-size="14.00" fill="#000000">0x103d04850</text>
<polyline fill="none" stroke="#99c2a2" points="798.62,-735.5 995.88,-735.5"/>
<text text-anchor="middle" x="825.38" y="-718.2" font-family="Times,serif" font-size="14.00" fill="#000000">Left</text>
<text text-anchor="middle" x="825.38" y="-701.7" font-family="Times,serif" font-size="14.00" fill="#000000">NONE</text>
<text text-anchor="middle" x="825.38" y="-685.2" font-family="Times,serif" font-size="14.00" fill="#000000">0x0</text>
<polyline fill="none" stroke="#99c2a2" points="852.12,-678 852.12,-735.5"/>
<text text-anchor="middle" x="897.25" y="-718.2" font-family="Times,serif" font-size="14.00" fill="#000000">Parent</text>
<text text-anchor="middle" x="897.25" y="-701.7" font-family="Times,serif" font-size="14.00" fill="#000000">*</text>
<text text-anchor="middle" x="897.25" y="-685.2" font-family="Times,serif" font-size="14.00" fill="#000000">0x103d04810</text>
<polyline fill="none" stroke="#99c2a2" points="942.38,-678 942.38,-735.5"/>
<text text-anchor="middle" x="969.12" y="-718.2" font-family="Times,serif" font-size="14.00" fill="#000000">Right</text>
<text text-anchor="middle" x="969.12" y="-701.7" font-family="Times,serif" font-size="14.00" fill="#000000">NONE</text>
<text text-anchor="middle" x="969.12" y="-685.2" font-family="Times,serif" font-size="14.00" fill="#000000">0x0</text>
</g>
<!-- node0x103d04810&#45;&gt;node0x103d04850 -->
<g id="edge12" class="edge">
<title>node0x103d04810:right&#45;&gt;node0x103d04850</title>
<path fill="none" stroke="#48e818" stroke-width="2" d="M843.12,-813C843.12,-804.04 845.3,-795.26 848.78,-786.96"/>
<polygon fill="#48e818" stroke="#48e818" stroke-width="2" points="851.21,-789.95 852.48,-779.44 844.93,-786.86 851.21,-789.95"/>
</g>
<!-- node0x103d04910 -->
<g id="node5" class="node">
<title>node0x103d04910</title>
<path fill="#fbee21" stroke="#d3c70d" d="M395.88,-542.5C395.88,-542.5 642.62,-542.5 642.62,-542.5 648.62,-542.5 654.62,-548.5 654.62,-554.5 654.62,-554.5 654.62,-629 654.62,-629 654.62,-635 648.62,-641 642.62,-641 642.62,-641 395.88,-641 395.88,-641 389.88,-641 383.88,-635 383.88,-629 383.88,-629 383.88,-554.5 383.88,-554.5 383.88,-548.5 389.88,-542.5 395.88,-542.5"/>
<text text-anchor="middle" x="519.25" y="-623.7" font-family="Times,serif" font-size="14.00" fill="#000000">*</text>
<text text-anchor="middle" x="519.25" y="-607.2" font-family="Times,serif" font-size="14.00" fill="#000000">0x103d04910</text>
<polyline fill="none" stroke="#d3c70d" points="383.88,-600 654.62,-600"/>
<text text-anchor="middle" x="429" y="-582.7" font-family="Times,serif" font-size="14.00" fill="#000000">Left</text>
<text text-anchor="middle" x="429" y="-566.2" font-family="Times,serif" font-size="14.00" fill="#000000">*</text>
<text text-anchor="middle" x="429" y="-549.7" font-family="Times,serif" font-size="14.00" fill="#000000">0x103d04990</text>
<polyline fill="none" stroke="#d3c70d" points="474.12,-542.5 474.12,-600"/>
<text text-anchor="middle" x="519.25" y="-582.7" font-family="Times,serif" font-size="14.00" fill="#000000">Parent</text>
<text text-anchor="middle" x="519.25" y="-566.2" font-family="Times,serif" font-size="14.00" fill="#000000">*</text>
<text text-anchor="middle" x="519.25" y="-549.7" font-family="Times,serif" font-size="14.00" fill="#000000">0x103d04890</text>
<polyline fill="none" stroke="#d3c70d" points="564.38,-542.5 564.38,-600"/>
<text text-anchor="middle" x="609.5" y="-582.7" font-family="Times,serif" font-size="14.00" fill="#000000">Right</text>
<text text-anchor="middle" x="609.5" y="-566.2" font-family="Times,serif" font-size="14.00" fill="#000000">2</text>
<text text-anchor="middle" x="609.5" y="-549.7" font-family="Times,serif" font-size="14.00" fill="#000000">0x103d04950</text>
</g>
<!-- node0x103d04890&#45;&gt;node0x103d04910 -->
<g id="edge3" class="edge">
<title>node0x103d04890:left&#45;&gt;node0x103d04910</title>
<path fill="none" stroke="#187ae8" stroke-width="2" d="M555,-677.5C555,-668.95 553.44,-660.27 550.96,-651.89"/>
<polygon fill="#187ae8" stroke="#187ae8" stroke-width="2" points="554.79,-652.25 548.23,-643.94 548.17,-654.53 554.79,-652.25"/>
</g>
<!-- node0x103d048d0 -->
<g id="node13" class="node">
<title>node0x103d048d0</title>
<path fill="#bdef9e" stroke="#99c2a2" d="M684.62,-542.5C684.62,-542.5 857.88,-542.5 857.88,-542.5 863.88,-542.5 869.88,-548.5 869.88,-554.5 869.88,-554.5 869.88,-629 869.88,-629 869.88,-635 863.88,-641 857.88,-641 857.88,-641 684.62,-641 684.62,-641 678.62,-641 672.62,-635 672.62,-629 672.62,-629 672.62,-554.5 672.62,-554.5 672.62,-548.5 678.62,-542.5 684.62,-542.5"/>
<text text-anchor="middle" x="771.25" y="-623.7" font-family="Times,serif" font-size="14.00" fill="#000000">2</text>
<text text-anchor="middle" x="771.25" y="-607.2" font-family="Times,serif" font-size="14.00" fill="#000000">0x103d048d0</text>
<polyline fill="none" stroke="#99c2a2" points="672.62,-600 869.88,-600"/>
<text text-anchor="middle" x="699.38" y="-582.7" font-family="Times,serif" font-size="14.00" fill="#000000">Left</text>
<text text-anchor="middle" x="699.38" y="-566.2" font-family="Times,serif" font-size="14.00" fill="#000000">NONE</text>
<text text-anchor="middle" x="699.38" y="-549.7" font-family="Times,serif" font-size="14.00" fill="#000000">0x0</text>
<polyline fill="none" stroke="#99c2a2" points="726.12,-542.5 726.12,-600"/>
<text text-anchor="middle" x="771.25" y="-582.7" font-family="Times,serif" font-size="14.00" fill="#000000">Parent</text>
<text text-anchor="middle" x="771.25" y="-566.2" font-family="Times,serif" font-size="14.00" fill="#000000">*</text>
<text text-anchor="middle" x="771.25" y="-549.7" font-family="Times,serif" font-size="14.00" fill="#000000">0x103d04890</text>
<polyline fill="none" stroke="#99c2a2" points="816.38,-542.5 816.38,-600"/>
<text text-anchor="middle" x="843.12" y="-582.7" font-family="Times,serif" font-size="14.00" fill="#000000">Right</text>
<text text-anchor="middle" x="843.12" y="-566.2" font-family="Times,serif" font-size="14.00" fill="#000000">NONE</text>
<text text-anchor="middle" x="843.12" y="-549.7" font-family="Times,serif" font-size="14.00" fill="#000000">0x0</text>
</g>
<!-- node0x103d04890&#45;&gt;node0x103d048d0 -->
<g id="edge11" class="edge">
<title>node0x103d04890:right&#45;&gt;node0x103d048d0</title>
<path fill="none" stroke="#48e818" stroke-width="2" d="M735.5,-677.5C735.5,-668.95 737.06,-660.27 739.54,-651.89"/>
<polygon fill="#48e818" stroke="#48e818" stroke-width="2" points="742.33,-654.53 742.27,-643.94 735.71,-652.25 742.33,-654.53"/>
</g>
<!-- node0x103d04990 -->
<g id="node6" class="node">
<title>node0x103d04990</title>
<path fill="#fbee21" stroke="#d3c70d" d="M270.25,-407C270.25,-407 516.25,-407 516.25,-407 522.25,-407 528.25,-413 528.25,-419 528.25,-419 528.25,-493.5 528.25,-493.5 528.25,-499.5 522.25,-505.5 516.25,-505.5 516.25,-505.5 270.25,-505.5 270.25,-505.5 264.25,-505.5 258.25,-499.5 258.25,-493.5 258.25,-493.5 258.25,-419 258.25,-419 258.25,-413 264.25,-407 270.25,-407"/>
<text text-anchor="middle" x="393.25" y="-488.2" font-family="Times,serif" font-size="14.00" fill="#000000">*</text>
<text text-anchor="middle" x="393.25" y="-471.7" font-family="Times,serif" font-size="14.00" fill="#000000">0x103d04990</text>
<polyline fill="none" stroke="#d3c70d" points="258.25,-464.5 528.25,-464.5"/>
<text text-anchor="middle" x="303" y="-447.2" font-family="Times,serif" font-size="14.00" fill="#000000">Left</text>
<text text-anchor="middle" x="303" y="-430.7" font-family="Times,serif" font-size="14.00" fill="#000000">exp</text>
<text text-anchor="middle" x="303" y="-414.2" font-family="Times,serif" font-size="14.00" fill="#000000">0x103d04a10</text>
<polyline fill="none" stroke="#d3c70d" points="347.75,-407 347.75,-464.5"/>
<text text-anchor="middle" x="392.88" y="-447.2" font-family="Times,serif" font-size="14.00" fill="#000000">Parent</text>
<text text-anchor="middle" x="392.88" y="-430.7" font-family="Times,serif" font-size="14.00" fill="#000000">*</text>
<text text-anchor="middle" x="392.88" y="-414.2" font-family="Times,serif" font-size="14.00" fill="#000000">0x103d04910</text>
<polyline fill="none" stroke="#d3c70d" points="438,-407 438,-464.5"/>
<text text-anchor="middle" x="483.12" y="-447.2" font-family="Times,serif" font-size="14.00" fill="#000000">Right</text>
<text text-anchor="middle" x="483.12" y="-430.7" font-family="Times,serif" font-size="14.00" fill="#000000">2</text>
<text text-anchor="middle" x="483.12" y="-414.2" font-family="Times,serif" font-size="14.00" fill="#000000">0x103d049d0</text>
</g>
<!-- node0x103d04910&#45;&gt;node0x103d04990 -->
<g id="edge4" class="edge">
<title>node0x103d04910:left&#45;&gt;node0x103d04990</title>
<path fill="none" stroke="#187ae8" stroke-width="2" d="M429,-542C429,-533.45 427.44,-524.77 424.96,-516.39"/>
<polygon fill="#187ae8" stroke="#187ae8" stroke-width="2" points="428.79,-516.75 422.23,-508.44 422.17,-519.03 428.79,-516.75"/>
</g>
<!-- node0x103d04950 -->
<g id="node12" class="node">
<title>node0x103d04950</title>
<path fill="#bdef9e" stroke="#99c2a2" d="M558.62,-407C558.62,-407 731.88,-407 731.88,-407 737.88,-407 743.88,-413 743.88,-419 743.88,-419 743.88,-493.5 743.88,-493.5 743.88,-499.5 737.88,-505.5 731.88,-505.5 731.88,-505.5 558.62,-505.5 558.62,-505.5 552.62,-505.5 546.62,-499.5 546.62,-493.5 546.62,-493.5 546.62,-419 546.62,-419 546.62,-413 552.62,-407 558.62,-407"/>
<text text-anchor="middle" x="645.25" y="-488.2" font-family="Times,serif" font-size="14.00" fill="#000000">2</text>
<text text-anchor="middle" x="645.25" y="-471.7" font-family="Times,serif" font-size="14.00" fill="#000000">0x103d04950</text>
<polyline fill="none" stroke="#99c2a2" points="546.62,-464.5 743.88,-464.5"/>
<text text-anchor="middle" x="573.38" y="-447.2" font-family="Times,serif" font-size="14.00" fill="#000000">Left</text>
<text text-anchor="middle" x="573.38" y="-430.7" font-family="Times,serif" font-size="14.00" fill="#000000">NONE</text>
<text text-anchor="middle" x="573.38" y="-414.2" font-family="Times,serif" font-size="14.00" fill="#000000">0x0</text>
<polyline fill="none" stroke="#99c2a2" points="600.12,-407 600.12,-464.5"/>
<text text-anchor="middle" x="645.25" y="-447.2" font-family="Times,serif" font-size="14.00" fill="#000000">Parent</text>
<text text-anchor="middle" x="645.25" y="-430.7" font-family="Times,serif" font-size="14.00" fill="#000000">*</text>
<text text-anchor="middle" x="645.25" y="-414.2" font-family="Times,serif" font-size="14.00" fill="#000000">0x103d04910</text>
<polyline fill="none" stroke="#99c2a2" points="690.38,-407 690.38,-464.5"/>
<text text-anchor="middle" x="717.12" y="-447.2" font-family="Times,serif" font-size="14.00" fill="#000000">Right</text>
<text text-anchor="middle" x="717.12" y="-430.7" font-family="Times,serif" font-size="14.00" fill="#000000">NONE</text>
<text text-anchor="middle" x="717.12" y="-414.2" font-family="Times,serif" font-size="14.00" fill="#000000">0x0</text>
</g>
<!-- node0x103d04910&#45;&gt;node0x103d04950 -->
<g id="edge10" class="edge">
<title>node0x103d04910:right&#45;&gt;node0x103d04950</title>
<path fill="none" stroke="#48e818" stroke-width="2" d="M609.5,-542C609.5,-533.45 611.06,-524.77 613.54,-516.39"/>
<polygon fill="#48e818" stroke="#48e818" stroke-width="2" points="616.33,-519.03 616.27,-508.44 609.71,-516.75 616.33,-519.03"/>
</g>
<!-- node0x103d04a10 -->
<g id="node7" class="node">
<title>node0x103d04a10</title>
<path fill="#fbee21" stroke="#d3c70d" d="M171.62,-271.5C171.62,-271.5 380.88,-271.5 380.88,-271.5 386.88,-271.5 392.88,-277.5 392.88,-283.5 392.88,-283.5 392.88,-358 392.88,-358 392.88,-364 386.88,-370 380.88,-370 380.88,-370 171.62,-370 171.62,-370 165.62,-370 159.62,-364 159.62,-358 159.62,-358 159.62,-283.5 159.62,-283.5 159.62,-277.5 165.62,-271.5 171.62,-271.5"/>
<text text-anchor="middle" x="276.25" y="-352.7" font-family="Times,serif" font-size="14.00" fill="#000000">exp</text>
<text text-anchor="middle" x="276.25" y="-336.2" font-family="Times,serif" font-size="14.00" fill="#000000">0x103d04a10</text>
<polyline fill="none" stroke="#d3c70d" points="159.62,-329 392.88,-329"/>
<text text-anchor="middle" x="204.38" y="-311.7" font-family="Times,serif" font-size="14.00" fill="#000000">Left</text>
<text text-anchor="middle" x="204.38" y="-295.2" font-family="Times,serif" font-size="14.00" fill="#000000">*</text>
<text text-anchor="middle" x="204.38" y="-278.7" font-family="Times,serif" font-size="14.00" fill="#000000">0x103d04a50</text>
<polyline fill="none" stroke="#d3c70d" points="249.12,-271.5 249.12,-329"/>
<text text-anchor="middle" x="294.25" y="-311.7" font-family="Times,serif" font-size="14.00" fill="#000000">Parent</text>
<text text-anchor="middle" x="294.25" y="-295.2" font-family="Times,serif" font-size="14.00" fill="#000000">*</text>
<text text-anchor="middle" x="294.25" y="-278.7" font-family="Times,serif" font-size="14.00" fill="#000000">0x103d04990</text>
<polyline fill="none" stroke="#d3c70d" points="339.38,-271.5 339.38,-329"/>
<text text-anchor="middle" x="366.12" y="-311.7" font-family="Times,serif" font-size="14.00" fill="#000000">Right</text>
<text text-anchor="middle" x="366.12" y="-295.2" font-family="Times,serif" font-size="14.00" fill="#000000">NONE</text>
<text text-anchor="middle" x="366.12" y="-278.7" font-family="Times,serif" font-size="14.00" fill="#000000">0x0</text>
</g>
<!-- node0x103d04990&#45;&gt;node0x103d04a10 -->
<g id="edge5" class="edge">
<title>node0x103d04990:left&#45;&gt;node0x103d04a10</title>
<path fill="none" stroke="#187ae8" stroke-width="2" d="M303,-406.5C303,-398.13 301.8,-389.51 299.91,-381.11"/>
<polygon fill="#187ae8" stroke="#187ae8" stroke-width="2" points="303.75,-381.95 297.83,-373.16 296.97,-383.73 303.75,-381.95"/>
</g>
<!-- node0x103d049d0 -->
<g id="node11" class="node">
<title>node0x103d049d0</title>
<path fill="#bdef9e" stroke="#99c2a2" d="M422.62,-271.5C422.62,-271.5 595.88,-271.5 595.88,-271.5 601.88,-271.5 607.88,-277.5 607.88,-283.5 607.88,-283.5 607.88,-358 607.88,-358 607.88,-364 601.88,-370 595.88,-370 595.88,-370 422.62,-370 422.62,-370 416.62,-370 410.62,-364 410.62,-358 410.62,-358 410.62,-283.5 410.62,-283.5 410.62,-277.5 416.62,-271.5 422.62,-271.5"/>
<text text-anchor="middle" x="509.25" y="-352.7" font-family="Times,serif" font-size="14.00" fill="#000000">2</text>
<text text-anchor="middle" x="509.25" y="-336.2" font-family="Times,serif" font-size="14.00" fill="#000000">0x103d049d0</text>
<polyline fill="none" stroke="#99c2a2" points="410.62,-329 607.88,-329"/>
<text text-anchor="middle" x="437.38" y="-311.7" font-family="Times,serif" font-size="14.00" fill="#000000">Left</text>
<text text-anchor="middle" x="437.38" y="-295.2" font-family="Times,serif" font-size="14.00" fill="#000000">NONE</text>
<text text-anchor="middle" x="437.38" y="-278.7" font-family="Times,serif" font-size="14.00" fill="#000000">0x0</text>
<polyline fill="none" stroke="#99c2a2" points="464.12,-271.5 464.12,-329"/>
<text text-anchor="middle" x="509.25" y="-311.7" font-family="Times,serif" font-size="14.00" fill="#000000">Parent</text>
<text text-anchor="middle" x="509.25" y="-295.2" font-family="Times,serif" font-size="14.00" fill="#000000">*</text>
<text text-anchor="middle" x="509.25" y="-278.7" font-family="Times,serif" font-size="14.00" fill="#000000">0x103d04990</text>
<polyline fill="none" stroke="#99c2a2" points="554.38,-271.5 554.38,-329"/>
<text text-anchor="middle" x="581.12" y="-311.7" font-family="Times,serif" font-size="14.00" fill="#000000">Right</text>
<text text-anchor="middle" x="581.12" y="-295.2" font-family="Times,serif" font-size="14.00" fill="#000000">NONE</text>
<text text-anchor="middle" x="581.12" y="-278.7" font-family="Times,serif" font-size="14.00" fill="#000000">0x0</text>
</g>
<!-- node0x103d04990&#45;&gt;node0x103d049d0 -->
<g id="edge9" class="edge">
<title>node0x103d04990:right&#45;&gt;node0x103d049d0</title>
<path fill="none" stroke="#48e818" stroke-width="2" d="M483.12,-406.5C483.12,-398.24 484.27,-389.73 486.08,-381.42"/>
<polygon fill="#48e818" stroke="#48e818" stroke-width="2" points="489.1,-383.76 488.18,-373.21 482.32,-382.03 489.1,-383.76"/>
</g>
<!-- node0x103d04a50 -->
<g id="node8" class="node">
<title>node0x103d04a50</title>
<path fill="#fbee21" stroke="#d3c70d" d="M83,-136C83,-136 327.5,-136 327.5,-136 333.5,-136 339.5,-142 339.5,-148 339.5,-148 339.5,-222.5 339.5,-222.5 339.5,-228.5 333.5,-234.5 327.5,-234.5 327.5,-234.5 83,-234.5 83,-234.5 77,-234.5 71,-228.5 71,-222.5 71,-222.5 71,-148 71,-148 71,-142 77,-136 83,-136"/>
<text text-anchor="middle" x="205.25" y="-217.2" font-family="Times,serif" font-size="14.00" fill="#000000">*</text>
<text text-anchor="middle" x="205.25" y="-200.7" font-family="Times,serif" font-size="14.00" fill="#000000">0x103d04a50</text>
<polyline fill="none" stroke="#d3c70d" points="71,-193.5 339.5,-193.5"/>
<text text-anchor="middle" x="115.75" y="-176.2" font-family="Times,serif" font-size="14.00" fill="#000000">Left</text>
<text text-anchor="middle" x="115.75" y="-159.7" font-family="Times,serif" font-size="14.00" fill="#000000">x</text>
<text text-anchor="middle" x="115.75" y="-143.2" font-family="Times,serif" font-size="14.00" fill="#000000">0x103d04ad0</text>
<polyline fill="none" stroke="#d3c70d" points="160.5,-136 160.5,-193.5"/>
<text text-anchor="middle" x="205.25" y="-176.2" font-family="Times,serif" font-size="14.00" fill="#000000">Parent</text>
<text text-anchor="middle" x="205.25" y="-159.7" font-family="Times,serif" font-size="14.00" fill="#000000">exp</text>
<text text-anchor="middle" x="205.25" y="-143.2" font-family="Times,serif" font-size="14.00" fill="#000000">0x103d04a10</text>
<polyline fill="none" stroke="#d3c70d" points="250,-136 250,-193.5"/>
<text text-anchor="middle" x="294.75" y="-176.2" font-family="Times,serif" font-size="14.00" fill="#000000">Right</text>
<text text-anchor="middle" x="294.75" y="-159.7" font-family="Times,serif" font-size="14.00" fill="#000000">2</text>
<text text-anchor="middle" x="294.75" y="-143.2" font-family="Times,serif" font-size="14.00" fill="#000000">0x103d04a90</text>
</g>
<!-- node0x103d04a10&#45;&gt;node0x103d04a50 -->
<g id="edge6" class="edge">
<title>node0x103d04a10:left&#45;&gt;node0x103d04a50</title>
<path fill="none" stroke="#187ae8" stroke-width="2" d="M204.38,-271C204.38,-262.91 204.42,-254.38 204.48,-245.98"/>
<polygon fill="#187ae8" stroke="#187ae8" stroke-width="2" points="207.96,-247.71 204.55,-237.68 200.96,-247.65 207.96,-247.71"/>
</g>
<!-- node0x103d04ad0 -->
<g id="node9" class="node">
<title>node0x103d04ad0</title>
<path fill="#d5cfe1" stroke="#8797b2" d="M12,-0.5C12,-0.5 184.5,-0.5 184.5,-0.5 190.5,-0.5 196.5,-6.5 196.5,-12.5 196.5,-12.5 196.5,-87 196.5,-87 196.5,-93 190.5,-99 184.5,-99 184.5,-99 12,-99 12,-99 6,-99 0,-93 0,-87 0,-87 0,-12.5 0,-12.5 0,-6.5 6,-0.5 12,-0.5"/>
<text text-anchor="middle" x="98.25" y="-81.7" font-family="Times,serif" font-size="14.00" fill="#000000">x</text>
<text text-anchor="middle" x="98.25" y="-65.2" font-family="Times,serif" font-size="14.00" fill="#000000">0x103d04ad0</text>
<polyline fill="none" stroke="#8797b2" points="0,-58 196.5,-58"/>
<text text-anchor="middle" x="26.75" y="-40.7" font-family="Times,serif" font-size="14.00" fill="#000000">Left</text>
<text text-anchor="middle" x="26.75" y="-24.2" font-family="Times,serif" font-size="14.00" fill="#000000">NONE</text>
<text text-anchor="middle" x="26.75" y="-7.7" font-family="Times,serif" font-size="14.00" fill="#000000">0x0</text>
<polyline fill="none" stroke="#8797b2" points="53.5,-0.5 53.5,-58"/>
<text text-anchor="middle" x="98.25" y="-40.7" font-family="Times,serif" font-size="14.00" fill="#000000">Parent</text>
<text text-anchor="middle" x="98.25" y="-24.2" font-family="Times,serif" font-size="14.00" fill="#000000">*</text>
<text text-anchor="middle" x="98.25" y="-7.7" font-family="Times,serif" font-size="14.00" fill="#000000">0x103d04a50</text>
<polyline fill="none" stroke="#8797b2" points="143,-0.5 143,-58"/>
<text text-anchor="middle" x="169.75" y="-40.7" font-family="Times,serif" font-size="14.00" fill="#000000">Right</text>
<text text-anchor="middle" x="169.75" y="-24.2" font-family="Times,serif" font-size="14.00" fill="#000000">NONE</text>
<text text-anchor="middle" x="169.75" y="-7.7" font-family="Times,serif" font-size="14.00" fill="#000000">0x0</text>
</g>
<!-- node0x103d04a50&#45;&gt;node0x103d04ad0 -->
<g id="edge7" class="edge">
<title>node0x103d04a50:left&#45;&gt;node0x103d04ad0</title>
<path fill="none" stroke="#187ae8" stroke-width="2" d="M115.75,-135.5C115.75,-127.34 114.96,-118.83 113.72,-110.48"/>
<polygon fill="#187ae8" stroke="#187ae8" stroke-width="2" points="117.45,-111.49 112.29,-102.23 110.55,-112.68 117.45,-111.49"/>
</g>
<!-- node0x103d04a90 -->
<g id="node10" class="node">
<title>node0x103d04a90</title>
<path fill="#bdef9e" stroke="#99c2a2" d="M227,-0.5C227,-0.5 399.5,-0.5 399.5,-0.5 405.5,-0.5 411.5,-6.5 411.5,-12.5 411.5,-12.5 411.5,-87 411.5,-87 411.5,-93 405.5,-99 399.5,-99 399.5,-99 227,-99 227,-99 221,-99 215,-93 215,-87 215,-87 215,-12.5 215,-12.5 215,-6.5 221,-0.5 227,-0.5"/>
<text text-anchor="middle" x="313.25" y="-81.7" font-family="Times,serif" font-size="14.00" fill="#000000">2</text>
<text text-anchor="middle" x="313.25" y="-65.2" font-family="Times,serif" font-size="14.00" fill="#000000">0x103d04a90</text>
<polyline fill="none" stroke="#99c2a2" points="215,-58 411.5,-58"/>
<text text-anchor="middle" x="241.75" y="-40.7" font-family="Times,serif" font-size="14.00" fill="#000000">Left</text>
<text text-anchor="middle" x="241.75" y="-24.2" font-family="Times,serif" font-size="14.00" fill="#000000">NONE</text>
<text text-anchor="middle" x="241.75" y="-7.7" font-family="Times,serif" font-size="14.00" fill="#000000">0x0</text>
<polyline fill="none" stroke="#99c2a2" points="268.5,-0.5 268.5,-58"/>
<text text-anchor="middle" x="313.25" y="-40.7" font-family="Times,serif" font-size="14.00" fill="#000000">Parent</text>
<text text-anchor="middle" x="313.25" y="-24.2" font-family="Times,serif" font-size="14.00" fill="#000000">*</text>
<text text-anchor="middle" x="313.25" y="-7.7" font-family="Times,serif" font-size="14.00" fill="#000000">0x103d04a50</text>
<polyline fill="none" stroke="#99c2a2" points="358,-0.5 358,-58"/>
<text text-anchor="middle" x="384.75" y="-40.7" font-family="Times,serif" font-size="14.00" fill="#000000">Right</text>
<text text-anchor="middle" x="384.75" y="-24.2" font-family="Times,serif" font-size="14.00" fill="#000000">NONE</text>
<text text-anchor="middle" x="384.75" y="-7.7" font-family="Times,serif" font-size="14.00" fill="#000000">0x0</text>
</g>
<!-- node0x103d04a50&#45;&gt;node0x103d04a90 -->
<g id="edge8" class="edge">
<title>node0x103d04a50:right&#45;&gt;node0x103d04a90</title>
<path fill="none" stroke="#48e818" stroke-width="2" d="M294.75,-135.5C294.75,-127.32 295.58,-118.8 296.89,-110.44"/>
<polygon fill="#48e818" stroke="#48e818" stroke-width="2" points="300.05,-112.65 298.4,-102.18 293.16,-111.39 300.05,-112.65"/>
</g>
</g>
</svg>
