<?xml version="1.0" encoding="UTF-8" standalone="no"?>
<!DOCTYPE svg PUBLIC "-//W3C//DTD SVG 1.1//EN"
 "http://www.w3.org/Graphics/SVG/1.1/DTD/svg11.dtd">
<!-- Generated by graphviz version 12.2.0 (20241103.1931)
 -->
<!-- Pages: 1 -->
<svg width="690pt" height="785pt"
 viewBox="0.00 0.00 689.88 785.00" xmlns="http://www.w3.org/2000/svg" xmlns:xlink="http://www.w3.org/1999/xlink">
<g id="graph0" class="graph" transform="scale(1 1) rotate(0) translate(4 781)">
<polygon fill="#dcdcdc" stroke="none" points="-4,4 -4,-781 685.88,-781 685.88,4 -4,4"/>
<!-- node0x105900b90 -->
<g id="node1" class="node">
<title>node0x105900b90</title>
<path fill="#fbee21" stroke="#d3c70d" d="M495,-678C495,-678 667.5,-678 667.5,-678 673.5,-678 679.5,-684 679.5,-690 679.5,-690 679.5,-764.5 679.5,-764.5 679.5,-770.5 673.5,-776.5 667.5,-776.5 667.5,-776.5 495,-776.5 495,-776.5 489,-776.5 483,-770.5 483,-764.5 483,-764.5 483,-690 483,-690 483,-684 489,-678 495,-678"/>
<text text-anchor="middle" x="581.25" y="-759.2" font-family="Times,serif" font-size="14.00" fill="#000000">sin</text>
<text text-anchor="middle" x="581.25" y="-742.7" font-family="Times,serif" font-size="14.00" fill="#000000">0x105900b90</text>
<polyline fill="none" stroke="#d3c70d" points="483,-735.5 679.5,-735.5"/>
<text text-anchor="middle" x="527.75" y="-718.2" font-family="Times,serif" font-size="14.00" fill="#000000">Left</text>
<text text-anchor="middle" x="527.75" y="-701.7" font-family="Times,serif" font-size="14.00" fill="#000000">/</text>
<text text-anchor="middle" x="527.75" y="-685.2" font-family="Times,serif" font-size="14.00" fill="#000000">0x105900a10</text>
<polyline fill="none" stroke="#d3c70d" points="572.5,-678 572.5,-735.5"/>
<text text-anchor="middle" x="599.25" y="-718.2" font-family="Times,serif" font-size="14.00" fill="#000000">Parent</text>
<text text-anchor="middle" x="599.25" y="-701.7" font-family="Times,serif" font-size="14.00" fill="#000000">NONE</text>
<text text-anchor="middle" x="599.25" y="-685.2" font-family="Times,serif" font-size="14.00" fill="#000000">0x0</text>
<polyline fill="none" stroke="#d3c70d" points="626,-678 626,-735.5"/>
<text text-anchor="middle" x="652.75" y="-718.2" font-family="Times,serif" font-size="14.00" fill="#000000">Right</text>
<text text-anchor="middle" x="652.75" y="-701.7" font-family="Times,serif" font-size="14.00" fill="#000000">NONE</text>
<text text-anchor="middle" x="652.75" y="-685.2" font-family="Times,serif" font-size="14.00" fill="#000000">0x0</text>
</g>
<!-- node0x105900a10 -->
<g id="node2" class="node">
<title>node0x105900a10</title>
<path fill="#f18805" stroke="#af3800" d="M423.25,-542.5C423.25,-542.5 633.25,-542.5 633.25,-542.5 639.25,-542.5 645.25,-548.5 645.25,-554.5 645.25,-554.5 645.25,-629 645.25,-629 645.25,-635 639.25,-641 633.25,-641 633.25,-641 423.25,-641 423.25,-641 417.25,-641 411.25,-635 411.25,-629 411.25,-629 411.25,-554.5 411.25,-554.5 411.25,-548.5 417.25,-542.5 423.25,-542.5"/>
<text text-anchor="middle" x="528.25" y="-623.7" font-family="Times,serif" font-size="14.00" fill="#000000">/</text>
<text text-anchor="middle" x="528.25" y="-607.2" font-family="Times,serif" font-size="14.00" fill="#000000">0x105900a10</text>
<polyline fill="none" stroke="#af3800" points="411.25,-600 645.25,-600"/>
<text text-anchor="middle" x="456.38" y="-582.7" font-family="Times,serif" font-size="14.00" fill="#000000">Left</text>
<text text-anchor="middle" x="456.38" y="-566.2" font-family="Times,serif" font-size="14.00" fill="#000000">*</text>
<text text-anchor="middle" x="456.38" y="-549.7" font-family="Times,serif" font-size="14.00" fill="#000000">0x105900910</text>
<polyline fill="none" stroke="#af3800" points="501.5,-542.5 501.5,-600"/>
<text text-anchor="middle" x="546.62" y="-582.7" font-family="Times,serif" font-size="14.00" fill="#000000">Parent</text>
<text text-anchor="middle" x="546.62" y="-566.2" font-family="Times,serif" font-size="14.00" fill="#000000">sin</text>
<text text-anchor="middle" x="546.62" y="-549.7" font-family="Times,serif" font-size="14.00" fill="#000000">0x105900b90</text>
<polyline fill="none" stroke="#af3800" points="591.75,-542.5 591.75,-600"/>
<text text-anchor="middle" x="618.5" y="-582.7" font-family="Times,serif" font-size="14.00" fill="#000000">Right</text>
<text text-anchor="middle" x="618.5" y="-566.2" font-family="Times,serif" font-size="14.00" fill="#000000">NONE</text>
<text text-anchor="middle" x="618.5" y="-549.7" font-family="Times,serif" font-size="14.00" fill="#000000">0x0</text>
</g>
<!-- node0x105900b90&#45;&gt;node0x105900a10 -->
<g id="edge1" class="edge">
<title>node0x105900b90:left&#45;&gt;node0x105900a10</title>
<path fill="none" stroke="#187ae8" stroke-width="2" d="M527.75,-677.5C527.75,-669.41 527.77,-660.88 527.81,-652.48"/>
<polygon fill="#187ae8" stroke="#187ae8" stroke-width="2" points="531.3,-654.2 527.85,-644.18 524.3,-654.16 531.3,-654.2"/>
</g>
<!-- node0x105900910 -->
<g id="node3" class="node">
<title>node0x105900910</title>
<path fill="#fbee21" stroke="#d3c70d" d="M334.25,-407C334.25,-407 580.25,-407 580.25,-407 586.25,-407 592.25,-413 592.25,-419 592.25,-419 592.25,-493.5 592.25,-493.5 592.25,-499.5 586.25,-505.5 580.25,-505.5 580.25,-505.5 334.25,-505.5 334.25,-505.5 328.25,-505.5 322.25,-499.5 322.25,-493.5 322.25,-493.5 322.25,-419 322.25,-419 322.25,-413 328.25,-407 334.25,-407"/>
<text text-anchor="middle" x="457.25" y="-488.2" font-family="Times,serif" font-size="14.00" fill="#000000">*</text>
<text text-anchor="middle" x="457.25" y="-471.7" font-family="Times,serif" font-size="14.00" fill="#000000">0x105900910</text>
<polyline fill="none" stroke="#d3c70d" points="322.25,-464.5 592.25,-464.5"/>
<text text-anchor="middle" x="367.38" y="-447.2" font-family="Times,serif" font-size="14.00" fill="#000000">Left</text>
<text text-anchor="middle" x="367.38" y="-430.7" font-family="Times,serif" font-size="14.00" fill="#000000">^</text>
<text text-anchor="middle" x="367.38" y="-414.2" font-family="Times,serif" font-size="14.00" fill="#000000">0x105900990</text>
<polyline fill="none" stroke="#d3c70d" points="412.5,-407 412.5,-464.5"/>
<text text-anchor="middle" x="457.25" y="-447.2" font-family="Times,serif" font-size="14.00" fill="#000000">Parent</text>
<text text-anchor="middle" x="457.25" y="-430.7" font-family="Times,serif" font-size="14.00" fill="#000000">/</text>
<text text-anchor="middle" x="457.25" y="-414.2" font-family="Times,serif" font-size="14.00" fill="#000000">0x105900a10</text>
<polyline fill="none" stroke="#d3c70d" points="502,-407 502,-464.5"/>
<text text-anchor="middle" x="547.12" y="-447.2" font-family="Times,serif" font-size="14.00" fill="#000000">Right</text>
<text text-anchor="middle" x="547.12" y="-430.7" font-family="Times,serif" font-size="14.00" fill="#000000">y</text>
<text text-anchor="middle" x="547.12" y="-414.2" font-family="Times,serif" font-size="14.00" fill="#000000">0x105900890</text>
</g>
<!-- node0x105900a10&#45;&gt;node0x105900910 -->
<g id="edge2" class="edge">
<title>node0x105900a10:left&#45;&gt;node0x105900910</title>
<path fill="none" stroke="#187ae8" stroke-width="2" d="M456.38,-542C456.38,-533.91 456.42,-525.38 456.48,-516.98"/>
<polygon fill="#187ae8" stroke="#187ae8" stroke-width="2" points="459.96,-518.71 456.55,-508.68 452.96,-518.65 459.96,-518.71"/>
</g>
<!-- node0x105900990 -->
<g id="node4" class="node">
<title>node0x105900990</title>
<path fill="#fbee21" stroke="#d3c70d" d="M208.25,-271.5C208.25,-271.5 454.25,-271.5 454.25,-271.5 460.25,-271.5 466.25,-277.5 466.25,-283.5 466.25,-283.5 466.25,-358 466.25,-358 466.25,-364 460.25,-370 454.25,-370 454.25,-370 208.25,-370 208.25,-370 202.25,-370 196.25,-364 196.25,-358 196.25,-358 196.25,-283.5 196.25,-283.5 196.25,-277.5 202.25,-271.5 208.25,-271.5"/>
<text text-anchor="middle" x="331.25" y="-352.7" font-family="Times,serif" font-size="14.00" fill="#000000">^</text>
<text text-anchor="middle" x="331.25" y="-336.2" font-family="Times,serif" font-size="14.00" fill="#000000">0x105900990</text>
<polyline fill="none" stroke="#d3c70d" points="196.25,-329 466.25,-329"/>
<text text-anchor="middle" x="241" y="-311.7" font-family="Times,serif" font-size="14.00" fill="#000000">Left</text>
<text text-anchor="middle" x="241" y="-295.2" font-family="Times,serif" font-size="14.00" fill="#000000">+</text>
<text text-anchor="middle" x="241" y="-278.7" font-family="Times,serif" font-size="14.00" fill="#000000">0x105900a90</text>
<polyline fill="none" stroke="#d3c70d" points="285.75,-271.5 285.75,-329"/>
<text text-anchor="middle" x="330.88" y="-311.7" font-family="Times,serif" font-size="14.00" fill="#000000">Parent</text>
<text text-anchor="middle" x="330.88" y="-295.2" font-family="Times,serif" font-size="14.00" fill="#000000">*</text>
<text text-anchor="middle" x="330.88" y="-278.7" font-family="Times,serif" font-size="14.00" fill="#000000">0x105900910</text>
<polyline fill="none" stroke="#d3c70d" points="376,-271.5 376,-329"/>
<text text-anchor="middle" x="421.12" y="-311.7" font-family="Times,serif" font-size="14.00" fill="#000000">Right</text>
<text text-anchor="middle" x="421.12" y="-295.2" font-family="Times,serif" font-size="14.00" fill="#000000">x</text>
<text text-anchor="middle" x="421.12" y="-278.7" font-family="Times,serif" font-size="14.00" fill="#000000">0x105900950</text>
</g>
<!-- node0x105900910&#45;&gt;node0x105900990 -->
<g id="edge3" class="edge">
<title>node0x105900910:left&#45;&gt;node0x105900990</title>
<path fill="none" stroke="#187ae8" stroke-width="2" d="M367.38,-406.5C367.38,-398.05 365.84,-389.47 363.39,-381.19"/>
<polygon fill="#187ae8" stroke="#187ae8" stroke-width="2" points="367.26,-381.68 360.7,-373.36 360.64,-383.95 367.26,-381.68"/>
</g>
<!-- node0x105900890 -->
<g id="node9" class="node">
<title>node0x105900890</title>
<path fill="#d5cfe1" stroke="#8797b2" d="M496.62,-271.5C496.62,-271.5 669.88,-271.5 669.88,-271.5 675.88,-271.5 681.88,-277.5 681.88,-283.5 681.88,-283.5 681.88,-358 681.88,-358 681.88,-364 675.88,-370 669.88,-370 669.88,-370 496.62,-370 496.62,-370 490.62,-370 484.62,-364 484.62,-358 484.62,-358 484.62,-283.5 484.62,-283.5 484.62,-277.5 490.62,-271.5 496.62,-271.5"/>
<text text-anchor="middle" x="583.25" y="-352.7" font-family="Times,serif" font-size="14.00" fill="#000000">y</text>
<text text-anchor="middle" x="583.25" y="-336.2" font-family="Times,serif" font-size="14.00" fill="#000000">0x105900890</text>
<polyline fill="none" stroke="#8797b2" points="484.62,-329 681.88,-329"/>
<text text-anchor="middle" x="511.38" y="-311.7" font-family="Times,serif" font-size="14.00" fill="#000000">Left</text>
<text text-anchor="middle" x="511.38" y="-295.2" font-family="Times,serif" font-size="14.00" fill="#000000">NONE</text>
<text text-anchor="middle" x="511.38" y="-278.7" font-family="Times,serif" font-size="14.00" fill="#000000">0x0</text>
<polyline fill="none" stroke="#8797b2" points="538.12,-271.5 538.12,-329"/>
<text text-anchor="middle" x="583.25" y="-311.7" font-family="Times,serif" font-size="14.00" fill="#000000">Parent</text>
<text text-anchor="middle" x="583.25" y="-295.2" font-family="Times,serif" font-size="14.00" fill="#000000">*</text>
<text text-anchor="middle" x="583.25" y="-278.7" font-family="Times,serif" font-size="14.00" fill="#000000">0x105900910</text>
<polyline fill="none" stroke="#8797b2" points="628.38,-271.5 628.38,-329"/>
<text text-anchor="middle" x="655.12" y="-311.7" font-family="Times,serif" font-size="14.00" fill="#000000">Right</text>
<text text-anchor="middle" x="655.12" y="-295.2" font-family="Times,serif" font-size="14.00" fill="#000000">NONE</text>
<text text-anchor="middle" x="655.12" y="-278.7" font-family="Times,serif" font-size="14.00" fill="#000000">0x0</text>
</g>
<!-- node0x105900910&#45;&gt;node0x105900890 -->
<g id="edge8" class="edge">
<title>node0x105900910:right&#45;&gt;node0x105900890</title>
<path fill="none" stroke="#48e818" stroke-width="2" d="M547.12,-406.5C547.12,-398.05 548.66,-389.47 551.11,-381.19"/>
<polygon fill="#48e818" stroke="#48e818" stroke-width="2" points="553.86,-383.95 553.8,-373.36 547.24,-381.68 553.86,-383.95"/>
</g>
<!-- node0x105900a90 -->
<g id="node5" class="node">
<title>node0x105900a90</title>
<path fill="#fbee21" stroke="#d3c70d" d="M82.62,-136C82.62,-136 327.88,-136 327.88,-136 333.88,-136 339.88,-142 339.88,-148 339.88,-148 339.88,-222.5 339.88,-222.5 339.88,-228.5 333.88,-234.5 327.88,-234.5 327.88,-234.5 82.62,-234.5 82.62,-234.5 76.62,-234.5 70.62,-228.5 70.62,-222.5 70.62,-222.5 70.62,-148 70.62,-148 70.62,-142 76.62,-136 82.62,-136"/>
<text text-anchor="middle" x="205.25" y="-217.2" font-family="Times,serif" font-size="14.00" fill="#000000">+</text>
<text text-anchor="middle" x="205.25" y="-200.7" font-family="Times,serif" font-size="14.00" fill="#000000">0x105900a90</text>
<polyline fill="none" stroke="#d3c70d" points="70.62,-193.5 339.88,-193.5"/>
<text text-anchor="middle" x="115.38" y="-176.2" font-family="Times,serif" font-size="14.00" fill="#000000">Left</text>
<text text-anchor="middle" x="115.38" y="-159.7" font-family="Times,serif" font-size="14.00" fill="#000000">1</text>
<text text-anchor="middle" x="115.38" y="-143.2" font-family="Times,serif" font-size="14.00" fill="#000000">0x105900ad0</text>
<polyline fill="none" stroke="#d3c70d" points="160.12,-136 160.12,-193.5"/>
<text text-anchor="middle" x="205.25" y="-176.2" font-family="Times,serif" font-size="14.00" fill="#000000">Parent</text>
<text text-anchor="middle" x="205.25" y="-159.7" font-family="Times,serif" font-size="14.00" fill="#000000">^</text>
<text text-anchor="middle" x="205.25" y="-143.2" font-family="Times,serif" font-size="14.00" fill="#000000">0x105900990</text>
<polyline fill="none" stroke="#d3c70d" points="250.38,-136 250.38,-193.5"/>
<text text-anchor="middle" x="295.12" y="-176.2" font-family="Times,serif" font-size="14.00" fill="#000000">Right</text>
<text text-anchor="middle" x="295.12" y="-159.7" font-family="Times,serif" font-size="14.00" fill="#000000">x</text>
<text text-anchor="middle" x="295.12" y="-143.2" font-family="Times,serif" font-size="14.00" fill="#000000">0x105900a50</text>
</g>
<!-- node0x105900990&#45;&gt;node0x105900a90 -->
<g id="edge4" class="edge">
<title>node0x105900990:left&#45;&gt;node0x105900a90</title>
<path fill="none" stroke="#187ae8" stroke-width="2" d="M241,-271C241,-262.45 239.44,-253.77 236.96,-245.39"/>
<polygon fill="#187ae8" stroke="#187ae8" stroke-width="2" points="240.79,-245.75 234.23,-237.44 234.17,-248.03 240.79,-245.75"/>
</g>
<!-- node0x105900950 -->
<g id="node8" class="node">
<title>node0x105900950</title>
<path fill="#d5cfe1" stroke="#8797b2" d="M369.62,-136C369.62,-136 542.88,-136 542.88,-136 548.88,-136 554.88,-142 554.88,-148 554.88,-148 554.88,-222.5 554.88,-222.5 554.88,-228.5 548.88,-234.5 542.88,-234.5 542.88,-234.5 369.62,-234.5 369.62,-234.5 363.62,-234.5 357.62,-228.5 357.62,-222.5 357.62,-222.5 357.62,-148 357.62,-148 357.62,-142 363.62,-136 369.62,-136"/>
<text text-anchor="middle" x="456.25" y="-217.2" font-family="Times,serif" font-size="14.00" fill="#000000">x</text>
<text text-anchor="middle" x="456.25" y="-200.7" font-family="Times,serif" font-size="14.00" fill="#000000">0x105900950</text>
<polyline fill="none" stroke="#8797b2" points="357.62,-193.5 554.88,-193.5"/>
<text text-anchor="middle" x="384.38" y="-176.2" font-family="Times,serif" font-size="14.00" fill="#000000">Left</text>
<text text-anchor="middle" x="384.38" y="-159.7" font-family="Times,serif" font-size="14.00" fill="#000000">NONE</text>
<text text-anchor="middle" x="384.38" y="-143.2" font-family="Times,serif" font-size="14.00" fill="#000000">0x0</text>
<polyline fill="none" stroke="#8797b2" points="411.12,-136 411.12,-193.5"/>
<text text-anchor="middle" x="456.25" y="-176.2" font-family="Times,serif" font-size="14.00" fill="#000000">Parent</text>
<text text-anchor="middle" x="456.25" y="-159.7" font-family="Times,serif" font-size="14.00" fill="#000000">^</text>
<text text-anchor="middle" x="456.25" y="-143.2" font-family="Times,serif" font-size="14.00" fill="#000000">0x105900990</text>
<polyline fill="none" stroke="#8797b2" points="501.38,-136 501.38,-193.5"/>
<text text-anchor="middle" x="528.12" y="-176.2" font-family="Times,serif" font-size="14.00" fill="#000000">Right</text>
<text text-anchor="middle" x="528.12" y="-159.7" font-family="Times,serif" font-size="14.00" fill="#000000">NONE</text>
<text text-anchor="middle" x="528.12" y="-143.2" font-family="Times,serif" font-size="14.00" fill="#000000">0x0</text>
</g>
<!-- node0x105900990&#45;&gt;node0x105900950 -->
<g id="edge7" class="edge">
<title>node0x105900990:right&#45;&gt;node0x105900950</title>
<path fill="none" stroke="#48e818" stroke-width="2" d="M421.12,-271C421.12,-262.47 422.66,-253.81 425.09,-245.43"/>
<polygon fill="#48e818" stroke="#48e818" stroke-width="2" points="427.89,-248.08 427.78,-237.49 421.26,-245.84 427.89,-248.08"/>
</g>
<!-- node0x105900ad0 -->
<g id="node6" class="node">
<title>node0x105900ad0</title>
<path fill="#bdef9e" stroke="#99c2a2" d="M12,-0.5C12,-0.5 184.5,-0.5 184.5,-0.5 190.5,-0.5 196.5,-6.5 196.5,-12.5 196.5,-12.5 196.5,-87 196.5,-87 196.5,-93 190.5,-99 184.5,-99 184.5,-99 12,-99 12,-99 6,-99 0,-93 0,-87 0,-87 0,-12.5 0,-12.5 0,-6.5 6,-0.5 12,-0.5"/>
<text text-anchor="middle" x="98.25" y="-81.7" font-family="Times,serif" font-size="14.00" fill="#000000">1</text>
<text text-anchor="middle" x="98.25" y="-65.2" font-family="Times,serif" font-size="14.00" fill="#000000">0x105900ad0</text>
<polyline fill="none" stroke="#99c2a2" points="0,-58 196.5,-58"/>
<text text-anchor="middle" x="26.75" y="-40.7" font-family="Times,serif" font-size="14.00" fill="#000000">Left</text>
<text text-anchor="middle" x="26.75" y="-24.2" font-family="Times,serif" font-size="14.00" fill="#000000">NONE</text>
<text text-anchor="middle" x="26.75" y="-7.7" font-family="Times,serif" font-size="14.00" fill="#000000">0x0</text>
<polyline fill="none" stroke="#99c2a2" points="53.5,-0.5 53.5,-58"/>
<text text-anchor="middle" x="98.25" y="-40.7" font-family="Times,serif" font-size="14.00" fill="#000000">Parent</text>
<text text-anchor="middle" x="98.25" y="-24.2" font-family="Times,serif" font-size="14.00" fill="#000000">+</text>
<text text-anchor="middle" x="98.25" y="-7.7" font-family="Times,serif" font-size="14.00" fill="#000000">0x105900a90</text>
<polyline fill="none" stroke="#99c2a2" points="143,-0.5 143,-58"/>
<text text-anchor="middle" x="169.75" y="-40.7" font-family="Times,serif" font-size="14.00" fill="#000000">Right</text>
<text text-anchor="middle" x="169.75" y="-24.2" font-family="Times,serif" font-size="14.00" fill="#000000">NONE</text>
<text text-anchor="middle" x="169.75" y="-7.7" font-family="Times,serif" font-size="14.00" fill="#000000">0x0</text>
</g>
<!-- node0x105900a90&#45;&gt;node0x105900ad0 -->
<g id="edge5" class="edge">
<title>node0x105900a90:left&#45;&gt;node0x105900ad0</title>
<path fill="none" stroke="#187ae8" stroke-width="2" d="M115.38,-135.5C115.38,-127.35 114.6,-118.84 113.39,-110.49"/>
<polygon fill="#187ae8" stroke="#187ae8" stroke-width="2" points="117.11,-111.52 111.99,-102.25 110.21,-112.69 117.11,-111.52"/>
</g>
<!-- node0x105900a50 -->
<g id="node7" class="node">
<title>node0x105900a50</title>
<path fill="#d5cfe1" stroke="#8797b2" d="M227,-0.5C227,-0.5 399.5,-0.5 399.5,-0.5 405.5,-0.5 411.5,-6.5 411.5,-12.5 411.5,-12.5 411.5,-87 411.5,-87 411.5,-93 405.5,-99 399.5,-99 399.5,-99 227,-99 227,-99 221,-99 215,-93 215,-87 215,-87 215,-12.5 215,-12.5 215,-6.5 221,-0.5 227,-0.5"/>
<text text-anchor="middle" x="313.25" y="-81.7" font-family="Times,serif" font-size="14.00" fill="#000000">x</text>
<text text-anchor="middle" x="313.25" y="-65.2" font-family="Times,serif" font-size="14.00" fill="#000000">0x105900a50</text>
<polyline fill="none" stroke="#8797b2" points="215,-58 411.5,-58"/>
<text text-anchor="middle" x="241.75" y="-40.7" font-family="Times,serif" font-size="14.00" fill="#000000">Left</text>
<text text-anchor="middle" x="241.75" y="-24.2" font-family="Times,serif" font-size="14.00" fill="#000000">NONE</text>
<text text-anchor="middle" x="241.75" y="-7.7" font-family="Times,serif" font-size="14.00" fill="#000000">0x0</text>
<polyline fill="none" stroke="#8797b2" points="268.5,-0.5 268.5,-58"/>
<text text-anchor="middle" x="313.25" y="-40.7" font-family="Times,serif" font-size="14.00" fill="#000000">Parent</text>
<text text-anchor="middle" x="313.25" y="-24.2" font-family="Times,serif" font-size="14.00" fill="#000000">+</text>
<text text-anchor="middle" x="313.25" y="-7.7" font-family="Times,serif" font-size="14.00" fill="#000000">0x105900a90</text>
<polyline fill="none" stroke="#8797b2" points="358,-0.5 358,-58"/>
<text text-anchor="middle" x="384.75" y="-40.7" font-family="Times,serif" font-size="14.00" fill="#000000">Right</text>
<text text-anchor="middle" x="384.75" y="-24.2" font-family="Times,serif" font-size="14.00" fill="#000000">NONE</text>
<text text-anchor="middle" x="384.75" y="-7.7" font-family="Times,serif" font-size="14.00" fill="#000000">0x0</text>
</g>
<!-- node0x105900a90&#45;&gt;node0x105900a50 -->
<g id="edge6" class="edge">
<title>node0x105900a90:right&#45;&gt;node0x105900a50</title>
<path fill="none" stroke="#48e818" stroke-width="2" d="M295.12,-135.5C295.12,-127.33 295.94,-118.81 297.23,-110.46"/>
<polygon fill="#48e818" stroke="#48e818" stroke-width="2" points="300.39,-112.66 298.7,-102.2 293.5,-111.43 300.39,-112.66"/>
</g>
</g>
</svg>
