<?xml version="1.0" encoding="UTF-8" standalone="no"?>
<!DOCTYPE svg PUBLIC "-//W3C//DTD SVG 1.1//EN"
 "http://www.w3.org/Graphics/SVG/1.1/DTD/svg11.dtd">
<!-- Generated by graphviz version 12.2.0 (20241103.1931)
 -->
<!-- Pages: 1 -->
<svg width="536pt" height="514pt"
 viewBox="0.00 0.00 535.88 514.00" xmlns="http://www.w3.org/2000/svg" xmlns:xlink="http://www.w3.org/1999/xlink">
<g id="graph0" class="graph" transform="scale(1 1) rotate(0) translate(4 510)">
<polygon fill="#dcdcdc" stroke="none" points="-4,4 -4,-510 531.88,-510 531.88,4 -4,4"/>
<!-- node0x1050000d0 -->
<g id="node1" class="node">
<title>node0x1050000d0</title>
<path fill="#f18805" stroke="#af3800" d="M82.62,-407C82.62,-407 291.88,-407 291.88,-407 297.88,-407 303.88,-413 303.88,-419 303.88,-419 303.88,-493.5 303.88,-493.5 303.88,-499.5 297.88,-505.5 291.88,-505.5 291.88,-505.5 82.63,-505.5 82.63,-505.5 76.62,-505.5 70.62,-499.5 70.62,-493.5 70.62,-493.5 70.62,-419 70.62,-419 70.62,-413 76.62,-407 82.62,-407"/>
<text text-anchor="middle" x="187.25" y="-488.2" font-family="Times,serif" font-size="14.00" fill="#000000">*</text>
<text text-anchor="middle" x="187.25" y="-471.7" font-family="Times,serif" font-size="14.00" fill="#000000">0x1050000d0</text>
<polyline fill="none" stroke="#af3800" points="70.62,-464.5 303.88,-464.5"/>
<text text-anchor="middle" x="115.75" y="-447.2" font-family="Times,serif" font-size="14.00" fill="#000000">Left</text>
<text text-anchor="middle" x="115.75" y="-430.7" font-family="Times,serif" font-size="14.00" fill="#000000">&#45;1</text>
<text text-anchor="middle" x="115.75" y="-414.2" font-family="Times,serif" font-size="14.00" fill="#000000">0x105000090</text>
<polyline fill="none" stroke="#af3800" points="160.88,-407 160.88,-464.5"/>
<text text-anchor="middle" x="187.62" y="-447.2" font-family="Times,serif" font-size="14.00" fill="#000000">Parent</text>
<text text-anchor="middle" x="187.62" y="-430.7" font-family="Times,serif" font-size="14.00" fill="#000000">NONE</text>
<text text-anchor="middle" x="187.62" y="-414.2" font-family="Times,serif" font-size="14.00" fill="#000000">0x0</text>
<polyline fill="none" stroke="#af3800" points="214.38,-407 214.38,-464.5"/>
<text text-anchor="middle" x="259.12" y="-447.2" font-family="Times,serif" font-size="14.00" fill="#000000">Right</text>
<text text-anchor="middle" x="259.12" y="-430.7" font-family="Times,serif" font-size="14.00" fill="#000000">*</text>
<text text-anchor="middle" x="259.12" y="-414.2" font-family="Times,serif" font-size="14.00" fill="#000000">0x105001e90</text>
</g>
<!-- node0x105000090 -->
<g id="node2" class="node">
<title>node0x105000090</title>
<path fill="#bdef9e" stroke="#99c2a2" d="M12,-271.5C12,-271.5 148.5,-271.5 148.5,-271.5 154.5,-271.5 160.5,-277.5 160.5,-283.5 160.5,-283.5 160.5,-358 160.5,-358 160.5,-364 154.5,-370 148.5,-370 148.5,-370 12,-370 12,-370 6,-370 0,-364 0,-358 0,-358 0,-283.5 0,-283.5 0,-277.5 6,-271.5 12,-271.5"/>
<text text-anchor="middle" x="80.25" y="-352.7" font-family="Times,serif" font-size="14.00" fill="#000000">&#45;1</text>
<text text-anchor="middle" x="80.25" y="-336.2" font-family="Times,serif" font-size="14.00" fill="#000000">0x105000090</text>
<polyline fill="none" stroke="#99c2a2" points="0,-329 160.5,-329"/>
<text text-anchor="middle" x="26.75" y="-311.7" font-family="Times,serif" font-size="14.00" fill="#000000">Left</text>
<text text-anchor="middle" x="26.75" y="-295.2" font-family="Times,serif" font-size="14.00" fill="#000000">NONE</text>
<text text-anchor="middle" x="26.75" y="-278.7" font-family="Times,serif" font-size="14.00" fill="#000000">0x0</text>
<polyline fill="none" stroke="#99c2a2" points="53.5,-271.5 53.5,-329"/>
<text text-anchor="middle" x="80.25" y="-311.7" font-family="Times,serif" font-size="14.00" fill="#000000">Parent</text>
<text text-anchor="middle" x="80.25" y="-295.2" font-family="Times,serif" font-size="14.00" fill="#000000">NONE</text>
<text text-anchor="middle" x="80.25" y="-278.7" font-family="Times,serif" font-size="14.00" fill="#000000">0x0</text>
<polyline fill="none" stroke="#99c2a2" points="107,-271.5 107,-329"/>
<text text-anchor="middle" x="133.75" y="-311.7" font-family="Times,serif" font-size="14.00" fill="#000000">Right</text>
<text text-anchor="middle" x="133.75" y="-295.2" font-family="Times,serif" font-size="14.00" fill="#000000">NONE</text>
<text text-anchor="middle" x="133.75" y="-278.7" font-family="Times,serif" font-size="14.00" fill="#000000">0x0</text>
</g>
<!-- node0x1050000d0&#45;&gt;node0x105000090 -->
<g id="edge1" class="edge">
<title>node0x1050000d0:left&#45;&gt;node0x105000090</title>
<path fill="none" stroke="#187ae8" stroke-width="2" d="M115.75,-406.5C115.75,-397.96 114.2,-389.28 111.74,-380.9"/>
<polygon fill="#187ae8" stroke="#187ae8" stroke-width="2" points="115.57,-381.29 109.03,-372.96 108.95,-383.55 115.57,-381.29"/>
</g>
<!-- node0x105001e90 -->
<g id="node3" class="node">
<title>node0x105001e90</title>
<path fill="#fbee21" stroke="#d3c70d" d="M190.62,-271.5C190.62,-271.5 399.88,-271.5 399.88,-271.5 405.88,-271.5 411.88,-277.5 411.88,-283.5 411.88,-283.5 411.88,-358 411.88,-358 411.88,-364 405.88,-370 399.88,-370 399.88,-370 190.62,-370 190.62,-370 184.62,-370 178.62,-364 178.62,-358 178.62,-358 178.62,-283.5 178.62,-283.5 178.62,-277.5 184.62,-271.5 190.62,-271.5"/>
<text text-anchor="middle" x="295.25" y="-352.7" font-family="Times,serif" font-size="14.00" fill="#000000">*</text>
<text text-anchor="middle" x="295.25" y="-336.2" font-family="Times,serif" font-size="14.00" fill="#000000">0x105001e90</text>
<polyline fill="none" stroke="#d3c70d" points="178.62,-329 411.88,-329"/>
<text text-anchor="middle" x="223.75" y="-311.7" font-family="Times,serif" font-size="14.00" fill="#000000">Left</text>
<text text-anchor="middle" x="223.75" y="-295.2" font-family="Times,serif" font-size="14.00" fill="#000000">&#45;1</text>
<text text-anchor="middle" x="223.75" y="-278.7" font-family="Times,serif" font-size="14.00" fill="#000000">0x105000050</text>
<polyline fill="none" stroke="#d3c70d" points="268.88,-271.5 268.88,-329"/>
<text text-anchor="middle" x="295.62" y="-311.7" font-family="Times,serif" font-size="14.00" fill="#000000">Parent</text>
<text text-anchor="middle" x="295.62" y="-295.2" font-family="Times,serif" font-size="14.00" fill="#000000">NONE</text>
<text text-anchor="middle" x="295.62" y="-278.7" font-family="Times,serif" font-size="14.00" fill="#000000">0x0</text>
<polyline fill="none" stroke="#d3c70d" points="322.38,-271.5 322.38,-329"/>
<text text-anchor="middle" x="367.12" y="-311.7" font-family="Times,serif" font-size="14.00" fill="#000000">Right</text>
<text text-anchor="middle" x="367.12" y="-295.2" font-family="Times,serif" font-size="14.00" fill="#000000">sin</text>
<text text-anchor="middle" x="367.12" y="-278.7" font-family="Times,serif" font-size="14.00" fill="#000000">0x105001ed0</text>
</g>
<!-- node0x1050000d0&#45;&gt;node0x105001e90 -->
<g id="edge5" class="edge">
<title>node0x1050000d0:right&#45;&gt;node0x105001e90</title>
<path fill="none" stroke="#48e818" stroke-width="2" d="M259.12,-406.5C259.12,-398.05 260.66,-389.47 263.11,-381.19"/>
<polygon fill="#48e818" stroke="#48e818" stroke-width="2" points="265.86,-383.95 265.8,-373.36 259.24,-381.68 265.86,-383.95"/>
</g>
<!-- node0x105000050 -->
<g id="node4" class="node">
<title>node0x105000050</title>
<path fill="#bdef9e" stroke="#99c2a2" d="M92,-136C92,-136 264.5,-136 264.5,-136 270.5,-136 276.5,-142 276.5,-148 276.5,-148 276.5,-222.5 276.5,-222.5 276.5,-228.5 270.5,-234.5 264.5,-234.5 264.5,-234.5 92,-234.5 92,-234.5 86,-234.5 80,-228.5 80,-222.5 80,-222.5 80,-148 80,-148 80,-142 86,-136 92,-136"/>
<text text-anchor="middle" x="178.25" y="-217.2" font-family="Times,serif" font-size="14.00" fill="#000000">&#45;1</text>
<text text-anchor="middle" x="178.25" y="-200.7" font-family="Times,serif" font-size="14.00" fill="#000000">0x105000050</text>
<polyline fill="none" stroke="#99c2a2" points="80,-193.5 276.5,-193.5"/>
<text text-anchor="middle" x="106.75" y="-176.2" font-family="Times,serif" font-size="14.00" fill="#000000">Left</text>
<text text-anchor="middle" x="106.75" y="-159.7" font-family="Times,serif" font-size="14.00" fill="#000000">NONE</text>
<text text-anchor="middle" x="106.75" y="-143.2" font-family="Times,serif" font-size="14.00" fill="#000000">0x0</text>
<polyline fill="none" stroke="#99c2a2" points="133.5,-136 133.5,-193.5"/>
<text text-anchor="middle" x="178.25" y="-176.2" font-family="Times,serif" font-size="14.00" fill="#000000">Parent</text>
<text text-anchor="middle" x="178.25" y="-159.7" font-family="Times,serif" font-size="14.00" fill="#000000">*</text>
<text text-anchor="middle" x="178.25" y="-143.2" font-family="Times,serif" font-size="14.00" fill="#000000">0x105001e90</text>
<polyline fill="none" stroke="#99c2a2" points="223,-136 223,-193.5"/>
<text text-anchor="middle" x="249.75" y="-176.2" font-family="Times,serif" font-size="14.00" fill="#000000">Right</text>
<text text-anchor="middle" x="249.75" y="-159.7" font-family="Times,serif" font-size="14.00" fill="#000000">NONE</text>
<text text-anchor="middle" x="249.75" y="-143.2" font-family="Times,serif" font-size="14.00" fill="#000000">0x0</text>
</g>
<!-- node0x105001e90&#45;&gt;node0x105000050 -->
<g id="edge2" class="edge">
<title>node0x105001e90:left&#45;&gt;node0x105000050</title>
<path fill="none" stroke="#187ae8" stroke-width="2" d="M223.75,-271C223.75,-262.19 221.82,-253.42 218.75,-245.04"/>
<polygon fill="#187ae8" stroke="#187ae8" stroke-width="2" points="222.66,-245.26 215.51,-237.44 216.22,-248.01 222.66,-245.26"/>
</g>
<!-- node0x105001ed0 -->
<g id="node5" class="node">
<title>node0x105001ed0</title>
<path fill="#fbee21" stroke="#d3c70d" d="M306.62,-136C306.62,-136 515.88,-136 515.88,-136 521.88,-136 527.88,-142 527.88,-148 527.88,-148 527.88,-222.5 527.88,-222.5 527.88,-228.5 521.88,-234.5 515.88,-234.5 515.88,-234.5 306.62,-234.5 306.62,-234.5 300.62,-234.5 294.62,-228.5 294.62,-222.5 294.62,-222.5 294.62,-148 294.62,-148 294.62,-142 300.62,-136 306.62,-136"/>
<text text-anchor="middle" x="411.25" y="-217.2" font-family="Times,serif" font-size="14.00" fill="#000000">sin</text>
<text text-anchor="middle" x="411.25" y="-200.7" font-family="Times,serif" font-size="14.00" fill="#000000">0x105001ed0</text>
<polyline fill="none" stroke="#d3c70d" points="294.62,-193.5 527.88,-193.5"/>
<text text-anchor="middle" x="339.75" y="-176.2" font-family="Times,serif" font-size="14.00" fill="#000000">Left</text>
<text text-anchor="middle" x="339.75" y="-159.7" font-family="Times,serif" font-size="14.00" fill="#000000">x</text>
<text text-anchor="middle" x="339.75" y="-143.2" font-family="Times,serif" font-size="14.00" fill="#000000">0x105000010</text>
<polyline fill="none" stroke="#d3c70d" points="384.88,-136 384.88,-193.5"/>
<text text-anchor="middle" x="429.62" y="-176.2" font-family="Times,serif" font-size="14.00" fill="#000000">Parent</text>
<text text-anchor="middle" x="429.62" y="-159.7" font-family="Times,serif" font-size="14.00" fill="#000000">*</text>
<text text-anchor="middle" x="429.62" y="-143.2" font-family="Times,serif" font-size="14.00" fill="#000000">0x105001e90</text>
<polyline fill="none" stroke="#d3c70d" points="474.38,-136 474.38,-193.5"/>
<text text-anchor="middle" x="501.12" y="-176.2" font-family="Times,serif" font-size="14.00" fill="#000000">Right</text>
<text text-anchor="middle" x="501.12" y="-159.7" font-family="Times,serif" font-size="14.00" fill="#000000">NONE</text>
<text text-anchor="middle" x="501.12" y="-143.2" font-family="Times,serif" font-size="14.00" fill="#000000">0x0</text>
</g>
<!-- node0x105001e90&#45;&gt;node0x105001ed0 -->
<g id="edge4" class="edge">
<title>node0x105001e90:right&#45;&gt;node0x105001ed0</title>
<path fill="none" stroke="#48e818" stroke-width="2" d="M367.12,-271C367.12,-262.25 369,-253.51 371.97,-245.15"/>
<polygon fill="#48e818" stroke="#48e818" stroke-width="2" points="374.51,-248.16 375.11,-237.58 368.05,-245.48 374.51,-248.16"/>
</g>
<!-- node0x105000010 -->
<g id="node6" class="node">
<title>node0x105000010</title>
<path fill="#d5cfe1" stroke="#8797b2" d="M254,-0.5C254,-0.5 426.5,-0.5 426.5,-0.5 432.5,-0.5 438.5,-6.5 438.5,-12.5 438.5,-12.5 438.5,-87 438.5,-87 438.5,-93 432.5,-99 426.5,-99 426.5,-99 254,-99 254,-99 248,-99 242,-93 242,-87 242,-87 242,-12.5 242,-12.5 242,-6.5 248,-0.5 254,-0.5"/>
<text text-anchor="middle" x="340.25" y="-81.7" font-family="Times,serif" font-size="14.00" fill="#000000">x</text>
<text text-anchor="middle" x="340.25" y="-65.2" font-family="Times,serif" font-size="14.00" fill="#000000">0x105000010</text>
<polyline fill="none" stroke="#8797b2" points="242,-58 438.5,-58"/>
<text text-anchor="middle" x="268.75" y="-40.7" font-family="Times,serif" font-size="14.00" fill="#000000">Left</text>
<text text-anchor="middle" x="268.75" y="-24.2" font-family="Times,serif" font-size="14.00" fill="#000000">NONE</text>
<text text-anchor="middle" x="268.75" y="-7.7" font-family="Times,serif" font-size="14.00" fill="#000000">0x0</text>
<polyline fill="none" stroke="#8797b2" points="295.5,-0.5 295.5,-58"/>
<text text-anchor="middle" x="340.25" y="-40.7" font-family="Times,serif" font-size="14.00" fill="#000000">Parent</text>
<text text-anchor="middle" x="340.25" y="-24.2" font-family="Times,serif" font-size="14.00" fill="#000000">sin</text>
<text text-anchor="middle" x="340.25" y="-7.7" font-family="Times,serif" font-size="14.00" fill="#000000">0x105001ed0</text>
<polyline fill="none" stroke="#8797b2" points="385,-0.5 385,-58"/>
<text text-anchor="middle" x="411.75" y="-40.7" font-family="Times,serif" font-size="14.00" fill="#000000">Right</text>
<text text-anchor="middle" x="411.75" y="-24.2" font-family="Times,serif" font-size="14.00" fill="#000000">NONE</text>
<text text-anchor="middle" x="411.75" y="-7.7" font-family="Times,serif" font-size="14.00" fill="#000000">0x0</text>
</g>
<!-- node0x105001ed0&#45;&gt;node0x105000010 -->
<g id="edge3" class="edge">
<title>node0x105001ed0:left&#45;&gt;node0x105000010</title>
<path fill="none" stroke="#187ae8" stroke-width="2" d="M339.75,-135.5C339.75,-127.41 339.77,-118.88 339.81,-110.48"/>
<polygon fill="#187ae8" stroke="#187ae8" stroke-width="2" points="343.3,-112.2 339.85,-102.18 336.3,-112.16 343.3,-112.2"/>
</g>
</g>
</svg>
