<?xml version="1.0" encoding="UTF-8" standalone="no"?>
<!DOCTYPE svg PUBLIC "-//W3C//DTD SVG 1.1//EN"
 "http://www.w3.org/Graphics/SVG/1.1/DTD/svg11.dtd">
<!-- Generated by graphviz version 12.2.0 (20241103.1931)
 -->
<!-- Pages: 1 -->
<svg width="564pt" height="379pt"
 viewBox="0.00 0.00 564.25 378.50" xmlns="http://www.w3.org/2000/svg" xmlns:xlink="http://www.w3.org/1999/xlink">
<g id="graph0" class="graph" transform="scale(1 1) rotate(0) translate(4 374.5)">
<polygon fill="#dcdcdc" stroke="none" points="-4,4 -4,-374.5 560.25,-374.5 560.25,4 -4,4"/>
<!-- node0x107600b90 -->
<g id="node1" class="node">
<title>node0x107600b90</title>
<path fill="#fbee21" stroke="#d3c70d" d="M227,-271.5C227,-271.5 436.25,-271.5 436.25,-271.5 442.25,-271.5 448.25,-277.5 448.25,-283.5 448.25,-283.5 448.25,-358 448.25,-358 448.25,-364 442.25,-370 436.25,-370 436.25,-370 227,-370 227,-370 221,-370 215,-364 215,-358 215,-358 215,-283.5 215,-283.5 215,-277.5 221,-271.5 227,-271.5"/>
<text text-anchor="middle" x="331.62" y="-352.7" font-family="Times,serif" font-size="14.00" fill="#000000">^</text>
<text text-anchor="middle" x="331.62" y="-336.2" font-family="Times,serif" font-size="14.00" fill="#000000">0x107600b90</text>
<polyline fill="none" stroke="#d3c70d" points="215,-329 448.25,-329"/>
<text text-anchor="middle" x="260.12" y="-311.7" font-family="Times,serif" font-size="14.00" fill="#000000">Left</text>
<text text-anchor="middle" x="260.12" y="-295.2" font-family="Times,serif" font-size="14.00" fill="#000000">^</text>
<text text-anchor="middle" x="260.12" y="-278.7" font-family="Times,serif" font-size="14.00" fill="#000000">0x107600b50</text>
<polyline fill="none" stroke="#d3c70d" points="305.25,-271.5 305.25,-329"/>
<text text-anchor="middle" x="332" y="-311.7" font-family="Times,serif" font-size="14.00" fill="#000000">Parent</text>
<text text-anchor="middle" x="332" y="-295.2" font-family="Times,serif" font-size="14.00" fill="#000000">NONE</text>
<text text-anchor="middle" x="332" y="-278.7" font-family="Times,serif" font-size="14.00" fill="#000000">0x0</text>
<polyline fill="none" stroke="#d3c70d" points="358.75,-271.5 358.75,-329"/>
<text text-anchor="middle" x="403.5" y="-311.7" font-family="Times,serif" font-size="14.00" fill="#000000">Right</text>
<text text-anchor="middle" x="403.5" y="-295.2" font-family="Times,serif" font-size="14.00" fill="#000000">x</text>
<text text-anchor="middle" x="403.5" y="-278.7" font-family="Times,serif" font-size="14.00" fill="#000000">0x107600a90</text>
</g>
<!-- node0x107600b50 -->
<g id="node2" class="node">
<title>node0x107600b50</title>
<path fill="#fbee21" stroke="#d3c70d" d="M82.62,-136C82.62,-136 328.62,-136 328.62,-136 334.62,-136 340.62,-142 340.62,-148 340.62,-148 340.62,-222.5 340.62,-222.5 340.62,-228.5 334.62,-234.5 328.62,-234.5 328.62,-234.5 82.62,-234.5 82.62,-234.5 76.63,-234.5 70.62,-228.5 70.62,-222.5 70.62,-222.5 70.62,-148 70.62,-148 70.62,-142 76.62,-136 82.62,-136"/>
<text text-anchor="middle" x="205.62" y="-217.2" font-family="Times,serif" font-size="14.00" fill="#000000">^</text>
<text text-anchor="middle" x="205.62" y="-200.7" font-family="Times,serif" font-size="14.00" fill="#000000">0x107600b50</text>
<polyline fill="none" stroke="#d3c70d" points="70.62,-193.5 340.62,-193.5"/>
<text text-anchor="middle" x="115.75" y="-176.2" font-family="Times,serif" font-size="14.00" fill="#000000">Left</text>
<text text-anchor="middle" x="115.75" y="-159.7" font-family="Times,serif" font-size="14.00" fill="#000000">x</text>
<text text-anchor="middle" x="115.75" y="-143.2" font-family="Times,serif" font-size="14.00" fill="#000000">0x107600b10</text>
<polyline fill="none" stroke="#d3c70d" points="160.88,-136 160.88,-193.5"/>
<text text-anchor="middle" x="206" y="-176.2" font-family="Times,serif" font-size="14.00" fill="#000000">Parent</text>
<text text-anchor="middle" x="206" y="-159.7" font-family="Times,serif" font-size="14.00" fill="#000000">^</text>
<text text-anchor="middle" x="206" y="-143.2" font-family="Times,serif" font-size="14.00" fill="#000000">0x107600b90</text>
<polyline fill="none" stroke="#d3c70d" points="251.12,-136 251.12,-193.5"/>
<text text-anchor="middle" x="295.88" y="-176.2" font-family="Times,serif" font-size="14.00" fill="#000000">Right</text>
<text text-anchor="middle" x="295.88" y="-159.7" font-family="Times,serif" font-size="14.00" fill="#000000">x</text>
<text text-anchor="middle" x="295.88" y="-143.2" font-family="Times,serif" font-size="14.00" fill="#000000">0x107600ad0</text>
</g>
<!-- node0x107600b90&#45;&gt;node0x107600b50 -->
<g id="edge1" class="edge">
<title>node0x107600b90:left&#45;&gt;node0x107600b50</title>
<path fill="none" stroke="#187ae8" stroke-width="2" d="M260.12,-271C260.12,-262.02 257.93,-253.24 254.43,-244.93"/>
<polygon fill="#187ae8" stroke="#187ae8" stroke-width="2" points="258.27,-244.8 250.7,-237.39 252,-247.91 258.27,-244.8"/>
</g>
<!-- node0x107600a90 -->
<g id="node5" class="node">
<title>node0x107600a90</title>
<path fill="#d5cfe1" stroke="#8797b2" d="M371,-136C371,-136 544.25,-136 544.25,-136 550.25,-136 556.25,-142 556.25,-148 556.25,-148 556.25,-222.5 556.25,-222.5 556.25,-228.5 550.25,-234.5 544.25,-234.5 544.25,-234.5 371,-234.5 371,-234.5 365,-234.5 359,-228.5 359,-222.5 359,-222.5 359,-148 359,-148 359,-142 365,-136 371,-136"/>
<text text-anchor="middle" x="457.62" y="-217.2" font-family="Times,serif" font-size="14.00" fill="#000000">x</text>
<text text-anchor="middle" x="457.62" y="-200.7" font-family="Times,serif" font-size="14.00" fill="#000000">0x107600a90</text>
<polyline fill="none" stroke="#8797b2" points="359,-193.5 556.25,-193.5"/>
<text text-anchor="middle" x="385.75" y="-176.2" font-family="Times,serif" font-size="14.00" fill="#000000">Left</text>
<text text-anchor="middle" x="385.75" y="-159.7" font-family="Times,serif" font-size="14.00" fill="#000000">NONE</text>
<text text-anchor="middle" x="385.75" y="-143.2" font-family="Times,serif" font-size="14.00" fill="#000000">0x0</text>
<polyline fill="none" stroke="#8797b2" points="412.5,-136 412.5,-193.5"/>
<text text-anchor="middle" x="457.62" y="-176.2" font-family="Times,serif" font-size="14.00" fill="#000000">Parent</text>
<text text-anchor="middle" x="457.62" y="-159.7" font-family="Times,serif" font-size="14.00" fill="#000000">^</text>
<text text-anchor="middle" x="457.62" y="-143.2" font-family="Times,serif" font-size="14.00" fill="#000000">0x107600b90</text>
<polyline fill="none" stroke="#8797b2" points="502.75,-136 502.75,-193.5"/>
<text text-anchor="middle" x="529.5" y="-176.2" font-family="Times,serif" font-size="14.00" fill="#000000">Right</text>
<text text-anchor="middle" x="529.5" y="-159.7" font-family="Times,serif" font-size="14.00" fill="#000000">NONE</text>
<text text-anchor="middle" x="529.5" y="-143.2" font-family="Times,serif" font-size="14.00" fill="#000000">0x0</text>
</g>
<!-- node0x107600b90&#45;&gt;node0x107600a90 -->
<g id="edge4" class="edge">
<title>node0x107600b90:right&#45;&gt;node0x107600a90</title>
<path fill="none" stroke="#48e818" stroke-width="2" d="M403.5,-271C403.5,-262.04 405.68,-253.26 409.16,-244.96"/>
<polygon fill="#48e818" stroke="#48e818" stroke-width="2" points="411.58,-247.95 412.86,-237.44 405.3,-244.86 411.58,-247.95"/>
</g>
<!-- node0x107600b10 -->
<g id="node3" class="node">
<title>node0x107600b10</title>
<path fill="#d5cfe1" stroke="#8797b2" d="M12,-0.5C12,-0.5 185.25,-0.5 185.25,-0.5 191.25,-0.5 197.25,-6.5 197.25,-12.5 197.25,-12.5 197.25,-87 197.25,-87 197.25,-93 191.25,-99 185.25,-99 185.25,-99 12,-99 12,-99 6,-99 0,-93 0,-87 0,-87 0,-12.5 0,-12.5 0,-6.5 6,-0.5 12,-0.5"/>
<text text-anchor="middle" x="98.62" y="-81.7" font-family="Times,serif" font-size="14.00" fill="#000000">x</text>
<text text-anchor="middle" x="98.62" y="-65.2" font-family="Times,serif" font-size="14.00" fill="#000000">0x107600b10</text>
<polyline fill="none" stroke="#8797b2" points="0,-58 197.25,-58"/>
<text text-anchor="middle" x="26.75" y="-40.7" font-family="Times,serif" font-size="14.00" fill="#000000">Left</text>
<text text-anchor="middle" x="26.75" y="-24.2" font-family="Times,serif" font-size="14.00" fill="#000000">NONE</text>
<text text-anchor="middle" x="26.75" y="-7.7" font-family="Times,serif" font-size="14.00" fill="#000000">0x0</text>
<polyline fill="none" stroke="#8797b2" points="53.5,-0.5 53.5,-58"/>
<text text-anchor="middle" x="98.62" y="-40.7" font-family="Times,serif" font-size="14.00" fill="#000000">Parent</text>
<text text-anchor="middle" x="98.62" y="-24.2" font-family="Times,serif" font-size="14.00" fill="#000000">^</text>
<text text-anchor="middle" x="98.62" y="-7.7" font-family="Times,serif" font-size="14.00" fill="#000000">0x107600b50</text>
<polyline fill="none" stroke="#8797b2" points="143.75,-0.5 143.75,-58"/>
<text text-anchor="middle" x="170.5" y="-40.7" font-family="Times,serif" font-size="14.00" fill="#000000">Right</text>
<text text-anchor="middle" x="170.5" y="-24.2" font-family="Times,serif" font-size="14.00" fill="#000000">NONE</text>
<text text-anchor="middle" x="170.5" y="-7.7" font-family="Times,serif" font-size="14.00" fill="#000000">0x0</text>
</g>
<!-- node0x107600b50&#45;&gt;node0x107600b10 -->
<g id="edge2" class="edge">
<title>node0x107600b50:left&#45;&gt;node0x107600b10</title>
<path fill="none" stroke="#187ae8" stroke-width="2" d="M115.75,-135.5C115.75,-127.35 114.98,-118.84 113.76,-110.49"/>
<polygon fill="#187ae8" stroke="#187ae8" stroke-width="2" points="117.49,-111.52 112.37,-102.25 110.59,-112.69 117.49,-111.52"/>
</g>
<!-- node0x107600ad0 -->
<g id="node4" class="node">
<title>node0x107600ad0</title>
<path fill="#d5cfe1" stroke="#8797b2" d="M227,-0.5C227,-0.5 400.25,-0.5 400.25,-0.5 406.25,-0.5 412.25,-6.5 412.25,-12.5 412.25,-12.5 412.25,-87 412.25,-87 412.25,-93 406.25,-99 400.25,-99 400.25,-99 227,-99 227,-99 221,-99 215,-93 215,-87 215,-87 215,-12.5 215,-12.5 215,-6.5 221,-0.5 227,-0.5"/>
<text text-anchor="middle" x="313.62" y="-81.7" font-family="Times,serif" font-size="14.00" fill="#000000">x</text>
<text text-anchor="middle" x="313.62" y="-65.2" font-family="Times,serif" font-size="14.00" fill="#000000">0x107600ad0</text>
<polyline fill="none" stroke="#8797b2" points="215,-58 412.25,-58"/>
<text text-anchor="middle" x="241.75" y="-40.7" font-family="Times,serif" font-size="14.00" fill="#000000">Left</text>
<text text-anchor="middle" x="241.75" y="-24.2" font-family="Times,serif" font-size="14.00" fill="#000000">NONE</text>
<text text-anchor="middle" x="241.75" y="-7.7" font-family="Times,serif" font-size="14.00" fill="#000000">0x0</text>
<polyline fill="none" stroke="#8797b2" points="268.5,-0.5 268.5,-58"/>
<text text-anchor="middle" x="313.62" y="-40.7" font-family="Times,serif" font-size="14.00" fill="#000000">Parent</text>
<text text-anchor="middle" x="313.62" y="-24.2" font-family="Times,serif" font-size="14.00" fill="#000000">^</text>
<text text-anchor="middle" x="313.62" y="-7.7" font-family="Times,serif" font-size="14.00" fill="#000000">0x107600b50</text>
<polyline fill="none" stroke="#8797b2" points="358.75,-0.5 358.75,-58"/>
<text text-anchor="middle" x="385.5" y="-40.7" font-family="Times,serif" font-size="14.00" fill="#000000">Right</text>
<text text-anchor="middle" x="385.5" y="-24.2" font-family="Times,serif" font-size="14.00" fill="#000000">NONE</text>
<text text-anchor="middle" x="385.5" y="-7.7" font-family="Times,serif" font-size="14.00" fill="#000000">0x0</text>
</g>
<!-- node0x107600b50&#45;&gt;node0x107600ad0 -->
<g id="edge3" class="edge">
<title>node0x107600b50:right&#45;&gt;node0x107600ad0</title>
<path fill="none" stroke="#48e818" stroke-width="2" d="M295.88,-135.5C295.88,-127.34 296.67,-118.82 297.93,-110.47"/>
<polygon fill="#48e818" stroke="#48e818" stroke-width="2" points="301.1,-112.67 299.38,-102.22 294.21,-111.46 301.1,-112.67"/>
</g>
</g>
</svg>
