<?xml version="1.0" encoding="UTF-8" standalone="no"?>
<!DOCTYPE svg PUBLIC "-//W3C//DTD SVG 1.1//EN"
 "http://www.w3.org/Graphics/SVG/1.1/DTD/svg11.dtd">
<!-- Generated by graphviz version 12.2.0 (20241103.1931)
 -->
<!-- Pages: 1 -->
<svg width="715pt" height="785pt"
 viewBox="0.00 0.00 715.25 785.00" xmlns="http://www.w3.org/2000/svg" xmlns:xlink="http://www.w3.org/1999/xlink">
<g id="graph0" class="graph" transform="scale(1 1) rotate(0) translate(4 781)">
<polygon fill="#dcdcdc" stroke="none" points="-4,4 -4,-781 711.25,-781 711.25,4 -4,4"/>
<!-- node0x107800b90 -->
<g id="node1" class="node">
<title>node0x107800b90</title>
<path fill="#fbee21" stroke="#d3c70d" d="M244.62,-678C244.62,-678 454.62,-678 454.62,-678 460.62,-678 466.62,-684 466.62,-690 466.62,-690 466.62,-764.5 466.62,-764.5 466.62,-770.5 460.62,-776.5 454.62,-776.5 454.62,-776.5 244.62,-776.5 244.62,-776.5 238.62,-776.5 232.62,-770.5 232.62,-764.5 232.62,-764.5 232.62,-690 232.62,-690 232.62,-684 238.62,-678 244.62,-678"/>
<text text-anchor="middle" x="349.62" y="-759.2" font-family="Times,serif" font-size="14.00" fill="#000000">*</text>
<text text-anchor="middle" x="349.62" y="-742.7" font-family="Times,serif" font-size="14.00" fill="#000000">0x107800b90</text>
<polyline fill="none" stroke="#d3c70d" points="232.62,-735.5 466.62,-735.5"/>
<text text-anchor="middle" x="277.75" y="-718.2" font-family="Times,serif" font-size="14.00" fill="#000000">Left</text>
<text text-anchor="middle" x="277.75" y="-701.7" font-family="Times,serif" font-size="14.00" fill="#000000">+</text>
<text text-anchor="middle" x="277.75" y="-685.2" font-family="Times,serif" font-size="14.00" fill="#000000">0x107800b50</text>
<polyline fill="none" stroke="#d3c70d" points="322.88,-678 322.88,-735.5"/>
<text text-anchor="middle" x="349.62" y="-718.2" font-family="Times,serif" font-size="14.00" fill="#000000">Parent</text>
<text text-anchor="middle" x="349.62" y="-701.7" font-family="Times,serif" font-size="14.00" fill="#000000">NONE</text>
<text text-anchor="middle" x="349.62" y="-685.2" font-family="Times,serif" font-size="14.00" fill="#000000">0x0</text>
<polyline fill="none" stroke="#d3c70d" points="376.38,-678 376.38,-735.5"/>
<text text-anchor="middle" x="421.5" y="-718.2" font-family="Times,serif" font-size="14.00" fill="#000000">Right</text>
<text text-anchor="middle" x="421.5" y="-701.7" font-family="Times,serif" font-size="14.00" fill="#000000">x</text>
<text text-anchor="middle" x="421.5" y="-685.2" font-family="Times,serif" font-size="14.00" fill="#000000">0x107800950</text>
</g>
<!-- node0x107800b50 -->
<g id="node2" class="node">
<title>node0x107800b50</title>
<path fill="#fbee21" stroke="#d3c70d" d="M100.62,-542.5C100.62,-542.5 346.62,-542.5 346.62,-542.5 352.62,-542.5 358.62,-548.5 358.62,-554.5 358.62,-554.5 358.62,-629 358.62,-629 358.62,-635 352.62,-641 346.62,-641 346.62,-641 100.62,-641 100.62,-641 94.63,-641 88.62,-635 88.62,-629 88.62,-629 88.62,-554.5 88.62,-554.5 88.62,-548.5 94.62,-542.5 100.62,-542.5"/>
<text text-anchor="middle" x="223.62" y="-623.7" font-family="Times,serif" font-size="14.00" fill="#000000">+</text>
<text text-anchor="middle" x="223.62" y="-607.2" font-family="Times,serif" font-size="14.00" fill="#000000">0x107800b50</text>
<polyline fill="none" stroke="#d3c70d" points="88.62,-600 358.62,-600"/>
<text text-anchor="middle" x="133.75" y="-582.7" font-family="Times,serif" font-size="14.00" fill="#000000">Left</text>
<text text-anchor="middle" x="133.75" y="-566.2" font-family="Times,serif" font-size="14.00" fill="#000000">1</text>
<text text-anchor="middle" x="133.75" y="-549.7" font-family="Times,serif" font-size="14.00" fill="#000000">0x107800b10</text>
<polyline fill="none" stroke="#d3c70d" points="178.88,-542.5 178.88,-600"/>
<text text-anchor="middle" x="224" y="-582.7" font-family="Times,serif" font-size="14.00" fill="#000000">Parent</text>
<text text-anchor="middle" x="224" y="-566.2" font-family="Times,serif" font-size="14.00" fill="#000000">*</text>
<text text-anchor="middle" x="224" y="-549.7" font-family="Times,serif" font-size="14.00" fill="#000000">0x107800b90</text>
<polyline fill="none" stroke="#d3c70d" points="269.12,-542.5 269.12,-600"/>
<text text-anchor="middle" x="313.88" y="-582.7" font-family="Times,serif" font-size="14.00" fill="#000000">Right</text>
<text text-anchor="middle" x="313.88" y="-566.2" font-family="Times,serif" font-size="14.00" fill="#000000">^</text>
<text text-anchor="middle" x="313.88" y="-549.7" font-family="Times,serif" font-size="14.00" fill="#000000">0x107800ad0</text>
</g>
<!-- node0x107800b90&#45;&gt;node0x107800b50 -->
<g id="edge1" class="edge">
<title>node0x107800b90:left&#45;&gt;node0x107800b50</title>
<path fill="none" stroke="#187ae8" stroke-width="2" d="M277.75,-677.5C277.75,-668.54 275.57,-659.76 272.09,-651.46"/>
<polygon fill="#187ae8" stroke="#187ae8" stroke-width="2" points="275.95,-651.36 268.39,-643.94 269.67,-654.45 275.95,-651.36"/>
</g>
<!-- node0x107800950 -->
<g id="node10" class="node">
<title>node0x107800950</title>
<path fill="#d5cfe1" stroke="#8797b2" d="M389,-542.5C389,-542.5 562.25,-542.5 562.25,-542.5 568.25,-542.5 574.25,-548.5 574.25,-554.5 574.25,-554.5 574.25,-629 574.25,-629 574.25,-635 568.25,-641 562.25,-641 562.25,-641 389,-641 389,-641 383,-641 377,-635 377,-629 377,-629 377,-554.5 377,-554.5 377,-548.5 383,-542.5 389,-542.5"/>
<text text-anchor="middle" x="475.62" y="-623.7" font-family="Times,serif" font-size="14.00" fill="#000000">x</text>
<text text-anchor="middle" x="475.62" y="-607.2" font-family="Times,serif" font-size="14.00" fill="#000000">0x107800950</text>
<polyline fill="none" stroke="#8797b2" points="377,-600 574.25,-600"/>
<text text-anchor="middle" x="403.75" y="-582.7" font-family="Times,serif" font-size="14.00" fill="#000000">Left</text>
<text text-anchor="middle" x="403.75" y="-566.2" font-family="Times,serif" font-size="14.00" fill="#000000">NONE</text>
<text text-anchor="middle" x="403.75" y="-549.7" font-family="Times,serif" font-size="14.00" fill="#000000">0x0</text>
<polyline fill="none" stroke="#8797b2" points="430.5,-542.5 430.5,-600"/>
<text text-anchor="middle" x="475.62" y="-582.7" font-family="Times,serif" font-size="14.00" fill="#000000">Parent</text>
<text text-anchor="middle" x="475.62" y="-566.2" font-family="Times,serif" font-size="14.00" fill="#000000">*</text>
<text text-anchor="middle" x="475.62" y="-549.7" font-family="Times,serif" font-size="14.00" fill="#000000">0x107800b90</text>
<polyline fill="none" stroke="#8797b2" points="520.75,-542.5 520.75,-600"/>
<text text-anchor="middle" x="547.5" y="-582.7" font-family="Times,serif" font-size="14.00" fill="#000000">Right</text>
<text text-anchor="middle" x="547.5" y="-566.2" font-family="Times,serif" font-size="14.00" fill="#000000">NONE</text>
<text text-anchor="middle" x="547.5" y="-549.7" font-family="Times,serif" font-size="14.00" fill="#000000">0x0</text>
</g>
<!-- node0x107800b90&#45;&gt;node0x107800950 -->
<g id="edge9" class="edge">
<title>node0x107800b90:right&#45;&gt;node0x107800950</title>
<path fill="none" stroke="#48e818" stroke-width="2" d="M421.5,-677.5C421.5,-668.54 423.68,-659.76 427.16,-651.46"/>
<polygon fill="#48e818" stroke="#48e818" stroke-width="2" points="429.58,-654.45 430.86,-643.94 423.3,-651.36 429.58,-654.45"/>
</g>
<!-- node0x107800b10 -->
<g id="node3" class="node">
<title>node0x107800b10</title>
<path fill="#bdef9e" stroke="#99c2a2" d="M12,-407C12,-407 185.25,-407 185.25,-407 191.25,-407 197.25,-413 197.25,-419 197.25,-419 197.25,-493.5 197.25,-493.5 197.25,-499.5 191.25,-505.5 185.25,-505.5 185.25,-505.5 12,-505.5 12,-505.5 6,-505.5 0,-499.5 0,-493.5 0,-493.5 0,-419 0,-419 0,-413 6,-407 12,-407"/>
<text text-anchor="middle" x="98.62" y="-488.2" font-family="Times,serif" font-size="14.00" fill="#000000">1</text>
<text text-anchor="middle" x="98.62" y="-471.7" font-family="Times,serif" font-size="14.00" fill="#000000">0x107800b10</text>
<polyline fill="none" stroke="#99c2a2" points="0,-464.5 197.25,-464.5"/>
<text text-anchor="middle" x="26.75" y="-447.2" font-family="Times,serif" font-size="14.00" fill="#000000">Left</text>
<text text-anchor="middle" x="26.75" y="-430.7" font-family="Times,serif" font-size="14.00" fill="#000000">NONE</text>
<text text-anchor="middle" x="26.75" y="-414.2" font-family="Times,serif" font-size="14.00" fill="#000000">0x0</text>
<polyline fill="none" stroke="#99c2a2" points="53.5,-407 53.5,-464.5"/>
<text text-anchor="middle" x="98.62" y="-447.2" font-family="Times,serif" font-size="14.00" fill="#000000">Parent</text>
<text text-anchor="middle" x="98.62" y="-430.7" font-family="Times,serif" font-size="14.00" fill="#000000">+</text>
<text text-anchor="middle" x="98.62" y="-414.2" font-family="Times,serif" font-size="14.00" fill="#000000">0x107800b50</text>
<polyline fill="none" stroke="#99c2a2" points="143.75,-407 143.75,-464.5"/>
<text text-anchor="middle" x="170.5" y="-447.2" font-family="Times,serif" font-size="14.00" fill="#000000">Right</text>
<text text-anchor="middle" x="170.5" y="-430.7" font-family="Times,serif" font-size="14.00" fill="#000000">NONE</text>
<text text-anchor="middle" x="170.5" y="-414.2" font-family="Times,serif" font-size="14.00" fill="#000000">0x0</text>
</g>
<!-- node0x107800b50&#45;&gt;node0x107800b10 -->
<g id="edge2" class="edge">
<title>node0x107800b50:left&#45;&gt;node0x107800b10</title>
<path fill="none" stroke="#187ae8" stroke-width="2" d="M133.75,-542C133.75,-533.47 132.21,-524.81 129.78,-516.43"/>
<polygon fill="#187ae8" stroke="#187ae8" stroke-width="2" points="133.62,-516.84 127.1,-508.49 126.99,-519.08 133.62,-516.84"/>
</g>
<!-- node0x107800ad0 -->
<g id="node4" class="node">
<title>node0x107800ad0</title>
<path fill="#fbee21" stroke="#d3c70d" d="M227,-407C227,-407 472.25,-407 472.25,-407 478.25,-407 484.25,-413 484.25,-419 484.25,-419 484.25,-493.5 484.25,-493.5 484.25,-499.5 478.25,-505.5 472.25,-505.5 472.25,-505.5 227,-505.5 227,-505.5 221,-505.5 215,-499.5 215,-493.5 215,-493.5 215,-419 215,-419 215,-413 221,-407 227,-407"/>
<text text-anchor="middle" x="349.62" y="-488.2" font-family="Times,serif" font-size="14.00" fill="#000000">^</text>
<text text-anchor="middle" x="349.62" y="-471.7" font-family="Times,serif" font-size="14.00" fill="#000000">0x107800ad0</text>
<polyline fill="none" stroke="#d3c70d" points="215,-464.5 484.25,-464.5"/>
<text text-anchor="middle" x="259.75" y="-447.2" font-family="Times,serif" font-size="14.00" fill="#000000">Left</text>
<text text-anchor="middle" x="259.75" y="-430.7" font-family="Times,serif" font-size="14.00" fill="#000000">x</text>
<text text-anchor="middle" x="259.75" y="-414.2" font-family="Times,serif" font-size="14.00" fill="#000000">0x107800a90</text>
<polyline fill="none" stroke="#d3c70d" points="304.5,-407 304.5,-464.5"/>
<text text-anchor="middle" x="349.62" y="-447.2" font-family="Times,serif" font-size="14.00" fill="#000000">Parent</text>
<text text-anchor="middle" x="349.62" y="-430.7" font-family="Times,serif" font-size="14.00" fill="#000000">+</text>
<text text-anchor="middle" x="349.62" y="-414.2" font-family="Times,serif" font-size="14.00" fill="#000000">0x107800b50</text>
<polyline fill="none" stroke="#d3c70d" points="394.75,-407 394.75,-464.5"/>
<text text-anchor="middle" x="439.5" y="-447.2" font-family="Times,serif" font-size="14.00" fill="#000000">Right</text>
<text text-anchor="middle" x="439.5" y="-430.7" font-family="Times,serif" font-size="14.00" fill="#000000">+</text>
<text text-anchor="middle" x="439.5" y="-414.2" font-family="Times,serif" font-size="14.00" fill="#000000">0x107800a50</text>
</g>
<!-- node0x107800b50&#45;&gt;node0x107800ad0 -->
<g id="edge8" class="edge">
<title>node0x107800b50:right&#45;&gt;node0x107800ad0</title>
<path fill="none" stroke="#48e818" stroke-width="2" d="M313.88,-542C313.88,-533.45 315.44,-524.77 317.91,-516.39"/>
<polygon fill="#48e818" stroke="#48e818" stroke-width="2" points="320.7,-519.03 320.65,-508.44 314.08,-516.75 320.7,-519.03"/>
</g>
<!-- node0x107800a90 -->
<g id="node5" class="node">
<title>node0x107800a90</title>
<path fill="#d5cfe1" stroke="#8797b2" d="M137.38,-271.5C137.38,-271.5 309.88,-271.5 309.88,-271.5 315.88,-271.5 321.88,-277.5 321.88,-283.5 321.88,-283.5 321.88,-358 321.88,-358 321.88,-364 315.88,-370 309.88,-370 309.88,-370 137.38,-370 137.38,-370 131.38,-370 125.38,-364 125.38,-358 125.38,-358 125.38,-283.5 125.38,-283.5 125.38,-277.5 131.38,-271.5 137.38,-271.5"/>
<text text-anchor="middle" x="223.62" y="-352.7" font-family="Times,serif" font-size="14.00" fill="#000000">x</text>
<text text-anchor="middle" x="223.62" y="-336.2" font-family="Times,serif" font-size="14.00" fill="#000000">0x107800a90</text>
<polyline fill="none" stroke="#8797b2" points="125.38,-329 321.88,-329"/>
<text text-anchor="middle" x="152.12" y="-311.7" font-family="Times,serif" font-size="14.00" fill="#000000">Left</text>
<text text-anchor="middle" x="152.12" y="-295.2" font-family="Times,serif" font-size="14.00" fill="#000000">NONE</text>
<text text-anchor="middle" x="152.12" y="-278.7" font-family="Times,serif" font-size="14.00" fill="#000000">0x0</text>
<polyline fill="none" stroke="#8797b2" points="178.88,-271.5 178.88,-329"/>
<text text-anchor="middle" x="223.62" y="-311.7" font-family="Times,serif" font-size="14.00" fill="#000000">Parent</text>
<text text-anchor="middle" x="223.62" y="-295.2" font-family="Times,serif" font-size="14.00" fill="#000000">^</text>
<text text-anchor="middle" x="223.62" y="-278.7" font-family="Times,serif" font-size="14.00" fill="#000000">0x107800ad0</text>
<polyline fill="none" stroke="#8797b2" points="268.38,-271.5 268.38,-329"/>
<text text-anchor="middle" x="295.12" y="-311.7" font-family="Times,serif" font-size="14.00" fill="#000000">Right</text>
<text text-anchor="middle" x="295.12" y="-295.2" font-family="Times,serif" font-size="14.00" fill="#000000">NONE</text>
<text text-anchor="middle" x="295.12" y="-278.7" font-family="Times,serif" font-size="14.00" fill="#000000">0x0</text>
</g>
<!-- node0x107800ad0&#45;&gt;node0x107800a90 -->
<g id="edge3" class="edge">
<title>node0x107800ad0:left&#45;&gt;node0x107800a90</title>
<path fill="none" stroke="#187ae8" stroke-width="2" d="M259.75,-406.5C259.75,-398.05 258.21,-389.47 255.77,-381.19"/>
<polygon fill="#187ae8" stroke="#187ae8" stroke-width="2" points="259.64,-381.68 253.07,-373.36 253.02,-383.95 259.64,-381.68"/>
</g>
<!-- node0x107800a50 -->
<g id="node6" class="node">
<title>node0x107800a50</title>
<path fill="#fbee21" stroke="#d3c70d" d="M352,-271.5C352,-271.5 597.25,-271.5 597.25,-271.5 603.25,-271.5 609.25,-277.5 609.25,-283.5 609.25,-283.5 609.25,-358 609.25,-358 609.25,-364 603.25,-370 597.25,-370 597.25,-370 352,-370 352,-370 346,-370 340,-364 340,-358 340,-358 340,-283.5 340,-283.5 340,-277.5 346,-271.5 352,-271.5"/>
<text text-anchor="middle" x="474.62" y="-352.7" font-family="Times,serif" font-size="14.00" fill="#000000">+</text>
<text text-anchor="middle" x="474.62" y="-336.2" font-family="Times,serif" font-size="14.00" fill="#000000">0x107800a50</text>
<polyline fill="none" stroke="#d3c70d" points="340,-329 609.25,-329"/>
<text text-anchor="middle" x="384.75" y="-311.7" font-family="Times,serif" font-size="14.00" fill="#000000">Left</text>
<text text-anchor="middle" x="384.75" y="-295.2" font-family="Times,serif" font-size="14.00" fill="#000000">x</text>
<text text-anchor="middle" x="384.75" y="-278.7" font-family="Times,serif" font-size="14.00" fill="#000000">0x107800a10</text>
<polyline fill="none" stroke="#d3c70d" points="429.5,-271.5 429.5,-329"/>
<text text-anchor="middle" x="474.25" y="-311.7" font-family="Times,serif" font-size="14.00" fill="#000000">Parent</text>
<text text-anchor="middle" x="474.25" y="-295.2" font-family="Times,serif" font-size="14.00" fill="#000000">^</text>
<text text-anchor="middle" x="474.25" y="-278.7" font-family="Times,serif" font-size="14.00" fill="#000000">0x107800ad0</text>
<polyline fill="none" stroke="#d3c70d" points="519,-271.5 519,-329"/>
<text text-anchor="middle" x="564.12" y="-311.7" font-family="Times,serif" font-size="14.00" fill="#000000">Right</text>
<text text-anchor="middle" x="564.12" y="-295.2" font-family="Times,serif" font-size="14.00" fill="#000000">sin</text>
<text text-anchor="middle" x="564.12" y="-278.7" font-family="Times,serif" font-size="14.00" fill="#000000">0x1078009d0</text>
</g>
<!-- node0x107800ad0&#45;&gt;node0x107800a50 -->
<g id="edge7" class="edge">
<title>node0x107800ad0:right&#45;&gt;node0x107800a50</title>
<path fill="none" stroke="#48e818" stroke-width="2" d="M439.5,-406.5C439.5,-397.97 441.04,-389.31 443.47,-380.93"/>
<polygon fill="#48e818" stroke="#48e818" stroke-width="2" points="446.26,-383.58 446.15,-372.99 439.63,-381.34 446.26,-383.58"/>
</g>
<!-- node0x107800a10 -->
<g id="node7" class="node">
<title>node0x107800a10</title>
<path fill="#d5cfe1" stroke="#8797b2" d="M271.38,-136C271.38,-136 443.88,-136 443.88,-136 449.88,-136 455.88,-142 455.88,-148 455.88,-148 455.88,-222.5 455.88,-222.5 455.88,-228.5 449.88,-234.5 443.88,-234.5 443.88,-234.5 271.38,-234.5 271.38,-234.5 265.38,-234.5 259.38,-228.5 259.38,-222.5 259.38,-222.5 259.38,-148 259.38,-148 259.38,-142 265.38,-136 271.38,-136"/>
<text text-anchor="middle" x="357.62" y="-217.2" font-family="Times,serif" font-size="14.00" fill="#000000">x</text>
<text text-anchor="middle" x="357.62" y="-200.7" font-family="Times,serif" font-size="14.00" fill="#000000">0x107800a10</text>
<polyline fill="none" stroke="#8797b2" points="259.38,-193.5 455.88,-193.5"/>
<text text-anchor="middle" x="286.12" y="-176.2" font-family="Times,serif" font-size="14.00" fill="#000000">Left</text>
<text text-anchor="middle" x="286.12" y="-159.7" font-family="Times,serif" font-size="14.00" fill="#000000">NONE</text>
<text text-anchor="middle" x="286.12" y="-143.2" font-family="Times,serif" font-size="14.00" fill="#000000">0x0</text>
<polyline fill="none" stroke="#8797b2" points="312.88,-136 312.88,-193.5"/>
<text text-anchor="middle" x="357.62" y="-176.2" font-family="Times,serif" font-size="14.00" fill="#000000">Parent</text>
<text text-anchor="middle" x="357.62" y="-159.7" font-family="Times,serif" font-size="14.00" fill="#000000">+</text>
<text text-anchor="middle" x="357.62" y="-143.2" font-family="Times,serif" font-size="14.00" fill="#000000">0x107800a50</text>
<polyline fill="none" stroke="#8797b2" points="402.38,-136 402.38,-193.5"/>
<text text-anchor="middle" x="429.12" y="-176.2" font-family="Times,serif" font-size="14.00" fill="#000000">Right</text>
<text text-anchor="middle" x="429.12" y="-159.7" font-family="Times,serif" font-size="14.00" fill="#000000">NONE</text>
<text text-anchor="middle" x="429.12" y="-143.2" font-family="Times,serif" font-size="14.00" fill="#000000">0x0</text>
</g>
<!-- node0x107800a50&#45;&gt;node0x107800a10 -->
<g id="edge4" class="edge">
<title>node0x107800a50:left&#45;&gt;node0x107800a10</title>
<path fill="none" stroke="#187ae8" stroke-width="2" d="M384.75,-271C384.75,-262.62 383.53,-253.99 381.61,-245.59"/>
<polygon fill="#187ae8" stroke="#187ae8" stroke-width="2" points="385.45,-246.41 379.51,-237.64 378.69,-248.2 385.45,-246.41"/>
</g>
<!-- node0x1078009d0 -->
<g id="node8" class="node">
<title>node0x1078009d0</title>
<path fill="#fbee21" stroke="#d3c70d" d="M486,-136C486,-136 695.25,-136 695.25,-136 701.25,-136 707.25,-142 707.25,-148 707.25,-148 707.25,-222.5 707.25,-222.5 707.25,-228.5 701.25,-234.5 695.25,-234.5 695.25,-234.5 486,-234.5 486,-234.5 480,-234.5 474,-228.5 474,-222.5 474,-222.5 474,-148 474,-148 474,-142 480,-136 486,-136"/>
<text text-anchor="middle" x="590.62" y="-217.2" font-family="Times,serif" font-size="14.00" fill="#000000">sin</text>
<text text-anchor="middle" x="590.62" y="-200.7" font-family="Times,serif" font-size="14.00" fill="#000000">0x1078009d0</text>
<polyline fill="none" stroke="#d3c70d" points="474,-193.5 707.25,-193.5"/>
<text text-anchor="middle" x="519.12" y="-176.2" font-family="Times,serif" font-size="14.00" fill="#000000">Left</text>
<text text-anchor="middle" x="519.12" y="-159.7" font-family="Times,serif" font-size="14.00" fill="#000000">x</text>
<text text-anchor="middle" x="519.12" y="-143.2" font-family="Times,serif" font-size="14.00" fill="#000000">0x107800990</text>
<polyline fill="none" stroke="#d3c70d" points="564.25,-136 564.25,-193.5"/>
<text text-anchor="middle" x="609" y="-176.2" font-family="Times,serif" font-size="14.00" fill="#000000">Parent</text>
<text text-anchor="middle" x="609" y="-159.7" font-family="Times,serif" font-size="14.00" fill="#000000">+</text>
<text text-anchor="middle" x="609" y="-143.2" font-family="Times,serif" font-size="14.00" fill="#000000">0x107800a50</text>
<polyline fill="none" stroke="#d3c70d" points="653.75,-136 653.75,-193.5"/>
<text text-anchor="middle" x="680.5" y="-176.2" font-family="Times,serif" font-size="14.00" fill="#000000">Right</text>
<text text-anchor="middle" x="680.5" y="-159.7" font-family="Times,serif" font-size="14.00" fill="#000000">NONE</text>
<text text-anchor="middle" x="680.5" y="-143.2" font-family="Times,serif" font-size="14.00" fill="#000000">0x0</text>
</g>
<!-- node0x107800a50&#45;&gt;node0x1078009d0 -->
<g id="edge6" class="edge">
<title>node0x107800a50:right&#45;&gt;node0x1078009d0</title>
<path fill="none" stroke="#48e818" stroke-width="2" d="M564.12,-271C564.12,-262.64 565.31,-254.02 567.19,-245.62"/>
<polygon fill="#48e818" stroke="#48e818" stroke-width="2" points="570.13,-248.24 569.25,-237.68 563.35,-246.48 570.13,-248.24"/>
</g>
<!-- node0x107800990 -->
<g id="node9" class="node">
<title>node0x107800990</title>
<path fill="#d5cfe1" stroke="#8797b2" d="M433,-0.5C433,-0.5 606.25,-0.5 606.25,-0.5 612.25,-0.5 618.25,-6.5 618.25,-12.5 618.25,-12.5 618.25,-87 618.25,-87 618.25,-93 612.25,-99 606.25,-99 606.25,-99 433,-99 433,-99 427,-99 421,-93 421,-87 421,-87 421,-12.5 421,-12.5 421,-6.5 427,-0.5 433,-0.5"/>
<text text-anchor="middle" x="519.62" y="-81.7" font-family="Times,serif" font-size="14.00" fill="#000000">x</text>
<text text-anchor="middle" x="519.62" y="-65.2" font-family="Times,serif" font-size="14.00" fill="#000000">0x107800990</text>
<polyline fill="none" stroke="#8797b2" points="421,-58 618.25,-58"/>
<text text-anchor="middle" x="447.75" y="-40.7" font-family="Times,serif" font-size="14.00" fill="#000000">Left</text>
<text text-anchor="middle" x="447.75" y="-24.2" font-family="Times,serif" font-size="14.00" fill="#000000">NONE</text>
<text text-anchor="middle" x="447.75" y="-7.7" font-family="Times,serif" font-size="14.00" fill="#000000">0x0</text>
<polyline fill="none" stroke="#8797b2" points="474.5,-0.5 474.5,-58"/>
<text text-anchor="middle" x="519.62" y="-40.7" font-family="Times,serif" font-size="14.00" fill="#000000">Parent</text>
<text text-anchor="middle" x="519.62" y="-24.2" font-family="Times,serif" font-size="14.00" fill="#000000">sin</text>
<text text-anchor="middle" x="519.62" y="-7.7" font-family="Times,serif" font-size="14.00" fill="#000000">0x1078009d0</text>
<polyline fill="none" stroke="#8797b2" points="564.75,-0.5 564.75,-58"/>
<text text-anchor="middle" x="591.5" y="-40.7" font-family="Times,serif" font-size="14.00" fill="#000000">Right</text>
<text text-anchor="middle" x="591.5" y="-24.2" font-family="Times,serif" font-size="14.00" fill="#000000">NONE</text>
<text text-anchor="middle" x="591.5" y="-7.7" font-family="Times,serif" font-size="14.00" fill="#000000">0x0</text>
</g>
<!-- node0x1078009d0&#45;&gt;node0x107800990 -->
<g id="edge5" class="edge">
<title>node0x1078009d0:left&#45;&gt;node0x107800990</title>
<path fill="none" stroke="#187ae8" stroke-width="2" d="M519.12,-135.5C519.12,-127.41 519.15,-118.88 519.18,-110.48"/>
<polygon fill="#187ae8" stroke="#187ae8" stroke-width="2" points="522.68,-112.2 519.23,-102.18 515.68,-112.16 522.68,-112.2"/>
</g>
</g>
</svg>
