<?xml version="1.0" encoding="UTF-8" standalone="no"?>
<!DOCTYPE svg PUBLIC "-//W3C//DTD SVG 1.1//EN"
 "http://www.w3.org/Graphics/SVG/1.1/DTD/svg11.dtd">
<!-- Generated by graphviz version 12.2.0 (20241103.1931)
 -->
<!-- Pages: 1 -->
<svg width="752pt" height="785pt"
 viewBox="0.00 0.00 752.25 785.00" xmlns="http://www.w3.org/2000/svg" xmlns:xlink="http://www.w3.org/1999/xlink">
<g id="graph0" class="graph" transform="scale(1 1) rotate(0) translate(4 781)">
<polygon fill="#dcdcdc" stroke="none" points="-4,4 -4,-781 748.25,-781 748.25,4 -4,4"/>
<!-- node0x103d01a10 -->
<g id="node1" class="node">
<title>node0x103d01a10</title>
<path fill="#f18805" stroke="#af3800" d="M306.62,-678C306.62,-678 516.62,-678 516.62,-678 522.62,-678 528.62,-684 528.62,-690 528.62,-690 528.62,-764.5 528.62,-764.5 528.62,-770.5 522.62,-776.5 516.62,-776.5 516.62,-776.5 306.62,-776.5 306.62,-776.5 300.62,-776.5 294.62,-770.5 294.62,-764.5 294.62,-764.5 294.62,-690 294.62,-690 294.62,-684 300.62,-678 306.62,-678"/>
<text text-anchor="middle" x="411.62" y="-759.2" font-family="Times,serif" font-size="14.00" fill="#000000">*</text>
<text text-anchor="middle" x="411.62" y="-742.7" font-family="Times,serif" font-size="14.00" fill="#000000">0x103d01a10</text>
<polyline fill="none" stroke="#af3800" points="294.62,-735.5 528.62,-735.5"/>
<text text-anchor="middle" x="339.75" y="-718.2" font-family="Times,serif" font-size="14.00" fill="#000000">Left</text>
<text text-anchor="middle" x="339.75" y="-701.7" font-family="Times,serif" font-size="14.00" fill="#000000">2</text>
<text text-anchor="middle" x="339.75" y="-685.2" font-family="Times,serif" font-size="14.00" fill="#000000">0x103d01810</text>
<polyline fill="none" stroke="#af3800" points="384.88,-678 384.88,-735.5"/>
<text text-anchor="middle" x="411.62" y="-718.2" font-family="Times,serif" font-size="14.00" fill="#000000">Parent</text>
<text text-anchor="middle" x="411.62" y="-701.7" font-family="Times,serif" font-size="14.00" fill="#000000">NONE</text>
<text text-anchor="middle" x="411.62" y="-685.2" font-family="Times,serif" font-size="14.00" fill="#000000">0x0</text>
<polyline fill="none" stroke="#af3800" points="438.38,-678 438.38,-735.5"/>
<text text-anchor="middle" x="483.5" y="-718.2" font-family="Times,serif" font-size="14.00" fill="#000000">Right</text>
<text text-anchor="middle" x="483.5" y="-701.7" font-family="Times,serif" font-size="14.00" fill="#000000">*</text>
<text text-anchor="middle" x="483.5" y="-685.2" font-family="Times,serif" font-size="14.00" fill="#000000">0x103d01610</text>
</g>
<!-- node0x103d01810 -->
<g id="node2" class="node">
<title>node0x103d01810</title>
<path fill="#bdef9e" stroke="#99c2a2" d="M236.38,-542.5C236.38,-542.5 372.88,-542.5 372.88,-542.5 378.88,-542.5 384.88,-548.5 384.88,-554.5 384.88,-554.5 384.88,-629 384.88,-629 384.88,-635 378.88,-641 372.88,-641 372.88,-641 236.38,-641 236.38,-641 230.38,-641 224.38,-635 224.38,-629 224.38,-629 224.38,-554.5 224.38,-554.5 224.38,-548.5 230.38,-542.5 236.38,-542.5"/>
<text text-anchor="middle" x="304.62" y="-623.7" font-family="Times,serif" font-size="14.00" fill="#000000">2</text>
<text text-anchor="middle" x="304.62" y="-607.2" font-family="Times,serif" font-size="14.00" fill="#000000">0x103d01810</text>
<polyline fill="none" stroke="#99c2a2" points="224.38,-600 384.88,-600"/>
<text text-anchor="middle" x="251.12" y="-582.7" font-family="Times,serif" font-size="14.00" fill="#000000">Left</text>
<text text-anchor="middle" x="251.12" y="-566.2" font-family="Times,serif" font-size="14.00" fill="#000000">NONE</text>
<text text-anchor="middle" x="251.12" y="-549.7" font-family="Times,serif" font-size="14.00" fill="#000000">0x0</text>
<polyline fill="none" stroke="#99c2a2" points="277.88,-542.5 277.88,-600"/>
<text text-anchor="middle" x="304.62" y="-582.7" font-family="Times,serif" font-size="14.00" fill="#000000">Parent</text>
<text text-anchor="middle" x="304.62" y="-566.2" font-family="Times,serif" font-size="14.00" fill="#000000">NONE</text>
<text text-anchor="middle" x="304.62" y="-549.7" font-family="Times,serif" font-size="14.00" fill="#000000">0x0</text>
<polyline fill="none" stroke="#99c2a2" points="331.38,-542.5 331.38,-600"/>
<text text-anchor="middle" x="358.12" y="-582.7" font-family="Times,serif" font-size="14.00" fill="#000000">Right</text>
<text text-anchor="middle" x="358.12" y="-566.2" font-family="Times,serif" font-size="14.00" fill="#000000">NONE</text>
<text text-anchor="middle" x="358.12" y="-549.7" font-family="Times,serif" font-size="14.00" fill="#000000">0x0</text>
</g>
<!-- node0x103d01a10&#45;&gt;node0x103d01810 -->
<g id="edge1" class="edge">
<title>node0x103d01a10:left&#45;&gt;node0x103d01810</title>
<path fill="none" stroke="#187ae8" stroke-width="2" d="M339.75,-677.5C339.75,-668.97 338.21,-660.31 335.78,-651.93"/>
<polygon fill="#187ae8" stroke="#187ae8" stroke-width="2" points="339.62,-652.34 333.1,-643.99 332.99,-654.58 339.62,-652.34"/>
</g>
<!-- node0x103d01610 -->
<g id="node3" class="node">
<title>node0x103d01610</title>
<path fill="#fbee21" stroke="#d3c70d" d="M414.62,-542.5C414.62,-542.5 624.62,-542.5 624.62,-542.5 630.62,-542.5 636.62,-548.5 636.62,-554.5 636.62,-554.5 636.62,-629 636.62,-629 636.62,-635 630.62,-641 624.62,-641 624.62,-641 414.62,-641 414.62,-641 408.62,-641 402.62,-635 402.62,-629 402.62,-629 402.62,-554.5 402.62,-554.5 402.62,-548.5 408.62,-542.5 414.62,-542.5"/>
<text text-anchor="middle" x="519.62" y="-623.7" font-family="Times,serif" font-size="14.00" fill="#000000">*</text>
<text text-anchor="middle" x="519.62" y="-607.2" font-family="Times,serif" font-size="14.00" fill="#000000">0x103d01610</text>
<polyline fill="none" stroke="#d3c70d" points="402.62,-600 636.62,-600"/>
<text text-anchor="middle" x="447.75" y="-582.7" font-family="Times,serif" font-size="14.00" fill="#000000">Left</text>
<text text-anchor="middle" x="447.75" y="-566.2" font-family="Times,serif" font-size="14.00" fill="#000000">*</text>
<text text-anchor="middle" x="447.75" y="-549.7" font-family="Times,serif" font-size="14.00" fill="#000000">0x103d01690</text>
<polyline fill="none" stroke="#d3c70d" points="492.88,-542.5 492.88,-600"/>
<text text-anchor="middle" x="519.62" y="-582.7" font-family="Times,serif" font-size="14.00" fill="#000000">Parent</text>
<text text-anchor="middle" x="519.62" y="-566.2" font-family="Times,serif" font-size="14.00" fill="#000000">NONE</text>
<text text-anchor="middle" x="519.62" y="-549.7" font-family="Times,serif" font-size="14.00" fill="#000000">0x0</text>
<polyline fill="none" stroke="#d3c70d" points="546.38,-542.5 546.38,-600"/>
<text text-anchor="middle" x="591.5" y="-582.7" font-family="Times,serif" font-size="14.00" fill="#000000">Right</text>
<text text-anchor="middle" x="591.5" y="-566.2" font-family="Times,serif" font-size="14.00" fill="#000000">2</text>
<text text-anchor="middle" x="591.5" y="-549.7" font-family="Times,serif" font-size="14.00" fill="#000000">0x103d01650</text>
</g>
<!-- node0x103d01a10&#45;&gt;node0x103d01610 -->
<g id="edge9" class="edge">
<title>node0x103d01a10:right&#45;&gt;node0x103d01610</title>
<path fill="none" stroke="#48e818" stroke-width="2" d="M483.5,-677.5C483.5,-669.05 485.04,-660.47 487.48,-652.19"/>
<polygon fill="#48e818" stroke="#48e818" stroke-width="2" points="490.23,-654.95 490.18,-644.36 483.61,-652.68 490.23,-654.95"/>
</g>
<!-- node0x103d01690 -->
<g id="node4" class="node">
<title>node0x103d01690</title>
<path fill="#fbee21" stroke="#d3c70d" d="M270.25,-407C270.25,-407 517,-407 517,-407 523,-407 529,-413 529,-419 529,-419 529,-493.5 529,-493.5 529,-499.5 523,-505.5 517,-505.5 517,-505.5 270.25,-505.5 270.25,-505.5 264.25,-505.5 258.25,-499.5 258.25,-493.5 258.25,-493.5 258.25,-419 258.25,-419 258.25,-413 264.25,-407 270.25,-407"/>
<text text-anchor="middle" x="393.62" y="-488.2" font-family="Times,serif" font-size="14.00" fill="#000000">*</text>
<text text-anchor="middle" x="393.62" y="-471.7" font-family="Times,serif" font-size="14.00" fill="#000000">0x103d01690</text>
<polyline fill="none" stroke="#d3c70d" points="258.25,-464.5 529,-464.5"/>
<text text-anchor="middle" x="303.38" y="-447.2" font-family="Times,serif" font-size="14.00" fill="#000000">Left</text>
<text text-anchor="middle" x="303.38" y="-430.7" font-family="Times,serif" font-size="14.00" fill="#000000">exp</text>
<text text-anchor="middle" x="303.38" y="-414.2" font-family="Times,serif" font-size="14.00" fill="#000000">0x103d01710</text>
<polyline fill="none" stroke="#d3c70d" points="348.5,-407 348.5,-464.5"/>
<text text-anchor="middle" x="393.62" y="-447.2" font-family="Times,serif" font-size="14.00" fill="#000000">Parent</text>
<text text-anchor="middle" x="393.62" y="-430.7" font-family="Times,serif" font-size="14.00" fill="#000000">*</text>
<text text-anchor="middle" x="393.62" y="-414.2" font-family="Times,serif" font-size="14.00" fill="#000000">0x103d01610</text>
<polyline fill="none" stroke="#d3c70d" points="438.75,-407 438.75,-464.5"/>
<text text-anchor="middle" x="483.88" y="-447.2" font-family="Times,serif" font-size="14.00" fill="#000000">Right</text>
<text text-anchor="middle" x="483.88" y="-430.7" font-family="Times,serif" font-size="14.00" fill="#000000">2</text>
<text text-anchor="middle" x="483.88" y="-414.2" font-family="Times,serif" font-size="14.00" fill="#000000">0x103d016d0</text>
</g>
<!-- node0x103d01610&#45;&gt;node0x103d01690 -->
<g id="edge2" class="edge">
<title>node0x103d01610:left&#45;&gt;node0x103d01690</title>
<path fill="none" stroke="#187ae8" stroke-width="2" d="M447.75,-542C447.75,-533.04 445.57,-524.26 442.09,-515.96"/>
<polygon fill="#187ae8" stroke="#187ae8" stroke-width="2" points="445.95,-515.86 438.39,-508.44 439.67,-518.95 445.95,-515.86"/>
</g>
<!-- node0x103d01650 -->
<g id="node10" class="node">
<title>node0x103d01650</title>
<path fill="#bdef9e" stroke="#99c2a2" d="M559,-407C559,-407 732.25,-407 732.25,-407 738.25,-407 744.25,-413 744.25,-419 744.25,-419 744.25,-493.5 744.25,-493.5 744.25,-499.5 738.25,-505.5 732.25,-505.5 732.25,-505.5 559,-505.5 559,-505.5 553,-505.5 547,-499.5 547,-493.5 547,-493.5 547,-419 547,-419 547,-413 553,-407 559,-407"/>
<text text-anchor="middle" x="645.62" y="-488.2" font-family="Times,serif" font-size="14.00" fill="#000000">2</text>
<text text-anchor="middle" x="645.62" y="-471.7" font-family="Times,serif" font-size="14.00" fill="#000000">0x103d01650</text>
<polyline fill="none" stroke="#99c2a2" points="547,-464.5 744.25,-464.5"/>
<text text-anchor="middle" x="573.75" y="-447.2" font-family="Times,serif" font-size="14.00" fill="#000000">Left</text>
<text text-anchor="middle" x="573.75" y="-430.7" font-family="Times,serif" font-size="14.00" fill="#000000">NONE</text>
<text text-anchor="middle" x="573.75" y="-414.2" font-family="Times,serif" font-size="14.00" fill="#000000">0x0</text>
<polyline fill="none" stroke="#99c2a2" points="600.5,-407 600.5,-464.5"/>
<text text-anchor="middle" x="645.62" y="-447.2" font-family="Times,serif" font-size="14.00" fill="#000000">Parent</text>
<text text-anchor="middle" x="645.62" y="-430.7" font-family="Times,serif" font-size="14.00" fill="#000000">*</text>
<text text-anchor="middle" x="645.62" y="-414.2" font-family="Times,serif" font-size="14.00" fill="#000000">0x103d01610</text>
<polyline fill="none" stroke="#99c2a2" points="690.75,-407 690.75,-464.5"/>
<text text-anchor="middle" x="717.5" y="-447.2" font-family="Times,serif" font-size="14.00" fill="#000000">Right</text>
<text text-anchor="middle" x="717.5" y="-430.7" font-family="Times,serif" font-size="14.00" fill="#000000">NONE</text>
<text text-anchor="middle" x="717.5" y="-414.2" font-family="Times,serif" font-size="14.00" fill="#000000">0x0</text>
</g>
<!-- node0x103d01610&#45;&gt;node0x103d01650 -->
<g id="edge8" class="edge">
<title>node0x103d01610:right&#45;&gt;node0x103d01650</title>
<path fill="none" stroke="#48e818" stroke-width="2" d="M591.5,-542C591.5,-533.04 593.68,-524.26 597.16,-515.96"/>
<polygon fill="#48e818" stroke="#48e818" stroke-width="2" points="599.58,-518.95 600.86,-508.44 593.3,-515.86 599.58,-518.95"/>
</g>
<!-- node0x103d01710 -->
<g id="node5" class="node">
<title>node0x103d01710</title>
<path fill="#fbee21" stroke="#d3c70d" d="M171.62,-271.5C171.62,-271.5 381.62,-271.5 381.62,-271.5 387.62,-271.5 393.62,-277.5 393.62,-283.5 393.62,-283.5 393.62,-358 393.62,-358 393.62,-364 387.62,-370 381.62,-370 381.62,-370 171.62,-370 171.62,-370 165.62,-370 159.62,-364 159.62,-358 159.62,-358 159.62,-283.5 159.62,-283.5 159.62,-277.5 165.62,-271.5 171.62,-271.5"/>
<text text-anchor="middle" x="276.62" y="-352.7" font-family="Times,serif" font-size="14.00" fill="#000000">exp</text>
<text text-anchor="middle" x="276.62" y="-336.2" font-family="Times,serif" font-size="14.00" fill="#000000">0x103d01710</text>
<polyline fill="none" stroke="#d3c70d" points="159.62,-329 393.62,-329"/>
<text text-anchor="middle" x="204.75" y="-311.7" font-family="Times,serif" font-size="14.00" fill="#000000">Left</text>
<text text-anchor="middle" x="204.75" y="-295.2" font-family="Times,serif" font-size="14.00" fill="#000000">*</text>
<text text-anchor="middle" x="204.75" y="-278.7" font-family="Times,serif" font-size="14.00" fill="#000000">0x103d01750</text>
<polyline fill="none" stroke="#d3c70d" points="249.88,-271.5 249.88,-329"/>
<text text-anchor="middle" x="295" y="-311.7" font-family="Times,serif" font-size="14.00" fill="#000000">Parent</text>
<text text-anchor="middle" x="295" y="-295.2" font-family="Times,serif" font-size="14.00" fill="#000000">*</text>
<text text-anchor="middle" x="295" y="-278.7" font-family="Times,serif" font-size="14.00" fill="#000000">0x103d01690</text>
<polyline fill="none" stroke="#d3c70d" points="340.12,-271.5 340.12,-329"/>
<text text-anchor="middle" x="366.88" y="-311.7" font-family="Times,serif" font-size="14.00" fill="#000000">Right</text>
<text text-anchor="middle" x="366.88" y="-295.2" font-family="Times,serif" font-size="14.00" fill="#000000">NONE</text>
<text text-anchor="middle" x="366.88" y="-278.7" font-family="Times,serif" font-size="14.00" fill="#000000">0x0</text>
</g>
<!-- node0x103d01690&#45;&gt;node0x103d01710 -->
<g id="edge3" class="edge">
<title>node0x103d01690:left&#45;&gt;node0x103d01710</title>
<path fill="none" stroke="#187ae8" stroke-width="2" d="M303.38,-406.5C303.38,-398.13 302.17,-389.51 300.28,-381.11"/>
<polygon fill="#187ae8" stroke="#187ae8" stroke-width="2" points="304.12,-381.95 298.2,-373.16 297.35,-383.73 304.12,-381.95"/>
</g>
<!-- node0x103d016d0 -->
<g id="node9" class="node">
<title>node0x103d016d0</title>
<path fill="#bdef9e" stroke="#99c2a2" d="M424,-271.5C424,-271.5 597.25,-271.5 597.25,-271.5 603.25,-271.5 609.25,-277.5 609.25,-283.5 609.25,-283.5 609.25,-358 609.25,-358 609.25,-364 603.25,-370 597.25,-370 597.25,-370 424,-370 424,-370 418,-370 412,-364 412,-358 412,-358 412,-283.5 412,-283.5 412,-277.5 418,-271.5 424,-271.5"/>
<text text-anchor="middle" x="510.62" y="-352.7" font-family="Times,serif" font-size="14.00" fill="#000000">2</text>
<text text-anchor="middle" x="510.62" y="-336.2" font-family="Times,serif" font-size="14.00" fill="#000000">0x103d016d0</text>
<polyline fill="none" stroke="#99c2a2" points="412,-329 609.25,-329"/>
<text text-anchor="middle" x="438.75" y="-311.7" font-family="Times,serif" font-size="14.00" fill="#000000">Left</text>
<text text-anchor="middle" x="438.75" y="-295.2" font-family="Times,serif" font-size="14.00" fill="#000000">NONE</text>
<text text-anchor="middle" x="438.75" y="-278.7" font-family="Times,serif" font-size="14.00" fill="#000000">0x0</text>
<polyline fill="none" stroke="#99c2a2" points="465.5,-271.5 465.5,-329"/>
<text text-anchor="middle" x="510.62" y="-311.7" font-family="Times,serif" font-size="14.00" fill="#000000">Parent</text>
<text text-anchor="middle" x="510.62" y="-295.2" font-family="Times,serif" font-size="14.00" fill="#000000">*</text>
<text text-anchor="middle" x="510.62" y="-278.7" font-family="Times,serif" font-size="14.00" fill="#000000">0x103d01690</text>
<polyline fill="none" stroke="#99c2a2" points="555.75,-271.5 555.75,-329"/>
<text text-anchor="middle" x="582.5" y="-311.7" font-family="Times,serif" font-size="14.00" fill="#000000">Right</text>
<text text-anchor="middle" x="582.5" y="-295.2" font-family="Times,serif" font-size="14.00" fill="#000000">NONE</text>
<text text-anchor="middle" x="582.5" y="-278.7" font-family="Times,serif" font-size="14.00" fill="#000000">0x0</text>
</g>
<!-- node0x103d01690&#45;&gt;node0x103d016d0 -->
<g id="edge7" class="edge">
<title>node0x103d01690:right&#45;&gt;node0x103d016d0</title>
<path fill="none" stroke="#48e818" stroke-width="2" d="M483.88,-406.5C483.88,-398.13 485.08,-389.51 486.97,-381.11"/>
<polygon fill="#48e818" stroke="#48e818" stroke-width="2" points="489.9,-383.73 489.05,-373.16 483.13,-381.95 489.9,-383.73"/>
</g>
<!-- node0x103d01750 -->
<g id="node6" class="node">
<title>node0x103d01750</title>
<path fill="#fbee21" stroke="#d3c70d" d="M82.25,-136C82.25,-136 329,-136 329,-136 335,-136 341,-142 341,-148 341,-148 341,-222.5 341,-222.5 341,-228.5 335,-234.5 329,-234.5 329,-234.5 82.25,-234.5 82.25,-234.5 76.25,-234.5 70.25,-228.5 70.25,-222.5 70.25,-222.5 70.25,-148 70.25,-148 70.25,-142 76.25,-136 82.25,-136"/>
<text text-anchor="middle" x="205.62" y="-217.2" font-family="Times,serif" font-size="14.00" fill="#000000">*</text>
<text text-anchor="middle" x="205.62" y="-200.7" font-family="Times,serif" font-size="14.00" fill="#000000">0x103d01750</text>
<polyline fill="none" stroke="#d3c70d" points="70.25,-193.5 341,-193.5"/>
<text text-anchor="middle" x="115.38" y="-176.2" font-family="Times,serif" font-size="14.00" fill="#000000">Left</text>
<text text-anchor="middle" x="115.38" y="-159.7" font-family="Times,serif" font-size="14.00" fill="#000000">x</text>
<text text-anchor="middle" x="115.38" y="-143.2" font-family="Times,serif" font-size="14.00" fill="#000000">0x103d017d0</text>
<polyline fill="none" stroke="#d3c70d" points="160.5,-136 160.5,-193.5"/>
<text text-anchor="middle" x="205.62" y="-176.2" font-family="Times,serif" font-size="14.00" fill="#000000">Parent</text>
<text text-anchor="middle" x="205.62" y="-159.7" font-family="Times,serif" font-size="14.00" fill="#000000">exp</text>
<text text-anchor="middle" x="205.62" y="-143.2" font-family="Times,serif" font-size="14.00" fill="#000000">0x103d01710</text>
<polyline fill="none" stroke="#d3c70d" points="250.75,-136 250.75,-193.5"/>
<text text-anchor="middle" x="295.88" y="-176.2" font-family="Times,serif" font-size="14.00" fill="#000000">Right</text>
<text text-anchor="middle" x="295.88" y="-159.7" font-family="Times,serif" font-size="14.00" fill="#000000">2</text>
<text text-anchor="middle" x="295.88" y="-143.2" font-family="Times,serif" font-size="14.00" fill="#000000">0x103d01790</text>
</g>
<!-- node0x103d01710&#45;&gt;node0x103d01750 -->
<g id="edge4" class="edge">
<title>node0x103d01710:left&#45;&gt;node0x103d01750</title>
<path fill="none" stroke="#187ae8" stroke-width="2" d="M204.75,-271C204.75,-262.91 204.79,-254.38 204.85,-245.98"/>
<polygon fill="#187ae8" stroke="#187ae8" stroke-width="2" points="208.34,-247.71 204.93,-237.68 201.34,-247.65 208.34,-247.71"/>
</g>
<!-- node0x103d017d0 -->
<g id="node7" class="node">
<title>node0x103d017d0</title>
<path fill="#d5cfe1" stroke="#8797b2" d="M12,-0.5C12,-0.5 185.25,-0.5 185.25,-0.5 191.25,-0.5 197.25,-6.5 197.25,-12.5 197.25,-12.5 197.25,-87 197.25,-87 197.25,-93 191.25,-99 185.25,-99 185.25,-99 12,-99 12,-99 6,-99 0,-93 0,-87 0,-87 0,-12.5 0,-12.5 0,-6.5 6,-0.5 12,-0.5"/>
<text text-anchor="middle" x="98.62" y="-81.7" font-family="Times,serif" font-size="14.00" fill="#000000">x</text>
<text text-anchor="middle" x="98.62" y="-65.2" font-family="Times,serif" font-size="14.00" fill="#000000">0x103d017d0</text>
<polyline fill="none" stroke="#8797b2" points="0,-58 197.25,-58"/>
<text text-anchor="middle" x="26.75" y="-40.7" font-family="Times,serif" font-size="14.00" fill="#000000">Left</text>
<text text-anchor="middle" x="26.75" y="-24.2" font-family="Times,serif" font-size="14.00" fill="#000000">NONE</text>
<text text-anchor="middle" x="26.75" y="-7.7" font-family="Times,serif" font-size="14.00" fill="#000000">0x0</text>
<polyline fill="none" stroke="#8797b2" points="53.5,-0.5 53.5,-58"/>
<text text-anchor="middle" x="98.62" y="-40.7" font-family="Times,serif" font-size="14.00" fill="#000000">Parent</text>
<text text-anchor="middle" x="98.62" y="-24.2" font-family="Times,serif" font-size="14.00" fill="#000000">*</text>
<text text-anchor="middle" x="98.62" y="-7.7" font-family="Times,serif" font-size="14.00" fill="#000000">0x103d01750</text>
<polyline fill="none" stroke="#8797b2" points="143.75,-0.5 143.75,-58"/>
<text text-anchor="middle" x="170.5" y="-40.7" font-family="Times,serif" font-size="14.00" fill="#000000">Right</text>
<text text-anchor="middle" x="170.5" y="-24.2" font-family="Times,serif" font-size="14.00" fill="#000000">NONE</text>
<text text-anchor="middle" x="170.5" y="-7.7" font-family="Times,serif" font-size="14.00" fill="#000000">0x0</text>
</g>
<!-- node0x103d01750&#45;&gt;node0x103d017d0 -->
<g id="edge5" class="edge">
<title>node0x103d01750:left&#45;&gt;node0x103d017d0</title>
<path fill="none" stroke="#187ae8" stroke-width="2" d="M115.38,-135.5C115.38,-127.35 114.62,-118.85 113.43,-110.51"/>
<polygon fill="#187ae8" stroke="#187ae8" stroke-width="2" points="117.15,-111.56 112.07,-102.26 110.25,-112.7 117.15,-111.56"/>
</g>
<!-- node0x103d01790 -->
<g id="node8" class="node">
<title>node0x103d01790</title>
<path fill="#bdef9e" stroke="#99c2a2" d="M227,-0.5C227,-0.5 400.25,-0.5 400.25,-0.5 406.25,-0.5 412.25,-6.5 412.25,-12.5 412.25,-12.5 412.25,-87 412.25,-87 412.25,-93 406.25,-99 400.25,-99 400.25,-99 227,-99 227,-99 221,-99 215,-93 215,-87 215,-87 215,-12.5 215,-12.5 215,-6.5 221,-0.5 227,-0.5"/>
<text text-anchor="middle" x="313.62" y="-81.7" font-family="Times,serif" font-size="14.00" fill="#000000">2</text>
<text text-anchor="middle" x="313.62" y="-65.2" font-family="Times,serif" font-size="14.00" fill="#000000">0x103d01790</text>
<polyline fill="none" stroke="#99c2a2" points="215,-58 412.25,-58"/>
<text text-anchor="middle" x="241.75" y="-40.7" font-family="Times,serif" font-size="14.00" fill="#000000">Left</text>
<text text-anchor="middle" x="241.75" y="-24.2" font-family="Times,serif" font-size="14.00" fill="#000000">NONE</text>
<text text-anchor="middle" x="241.75" y="-7.7" font-family="Times,serif" font-size="14.00" fill="#000000">0x0</text>
<polyline fill="none" stroke="#99c2a2" points="268.5,-0.5 268.5,-58"/>
<text text-anchor="middle" x="313.62" y="-40.7" font-family="Times,serif" font-size="14.00" fill="#000000">Parent</text>
<text text-anchor="middle" x="313.62" y="-24.2" font-family="Times,serif" font-size="14.00" fill="#000000">*</text>
<text text-anchor="middle" x="313.62" y="-7.7" font-family="Times,serif" font-size="14.00" fill="#000000">0x103d01750</text>
<polyline fill="none" stroke="#99c2a2" points="358.75,-0.5 358.75,-58"/>
<text text-anchor="middle" x="385.5" y="-40.7" font-family="Times,serif" font-size="14.00" fill="#000000">Right</text>
<text text-anchor="middle" x="385.5" y="-24.2" font-family="Times,serif" font-size="14.00" fill="#000000">NONE</text>
<text text-anchor="middle" x="385.5" y="-7.7" font-family="Times,serif" font-size="14.00" fill="#000000">0x0</text>
</g>
<!-- node0x103d01750&#45;&gt;node0x103d01790 -->
<g id="edge6" class="edge">
<title>node0x103d01750:right&#45;&gt;node0x103d01790</title>
<path fill="none" stroke="#48e818" stroke-width="2" d="M295.88,-135.5C295.88,-127.34 296.67,-118.82 297.93,-110.47"/>
<polygon fill="#48e818" stroke="#48e818" stroke-width="2" points="301.1,-112.67 299.38,-102.22 294.21,-111.46 301.1,-112.67"/>
</g>
</g>
</svg>
