<?xml version="1.0" encoding="UTF-8" standalone="no"?>
<!DOCTYPE svg PUBLIC "-//W3C//DTD SVG 1.1//EN"
 "http://www.w3.org/Graphics/SVG/1.1/DTD/svg11.dtd">
<!-- Generated by graphviz version 12.2.0 (20241103.1931)
 -->
<!-- Pages: 1 -->
<svg width="1254pt" height="1327pt"
 viewBox="0.00 0.00 1253.88 1327.00" xmlns="http://www.w3.org/2000/svg" xmlns:xlink="http://www.w3.org/1999/xlink">
<g id="graph0" class="graph" transform="scale(1 1) rotate(0) translate(4 1323)">
<polygon fill="#dcdcdc" stroke="none" points="-4,4 -4,-1323 1249.88,-1323 1249.88,4 -4,4"/>
<!-- node0x103d08b10 -->
<g id="node1" class="node">
<title>node0x103d08b10</title>
<path fill="#f18805" stroke="#af3800" d="M808.25,-1220C808.25,-1220 1018.25,-1220 1018.25,-1220 1024.25,-1220 1030.25,-1226 1030.25,-1232 1030.25,-1232 1030.25,-1306.5 1030.25,-1306.5 1030.25,-1312.5 1024.25,-1318.5 1018.25,-1318.5 1018.25,-1318.5 808.25,-1318.5 808.25,-1318.5 802.25,-1318.5 796.25,-1312.5 796.25,-1306.5 796.25,-1306.5 796.25,-1232 796.25,-1232 796.25,-1226 802.25,-1220 808.25,-1220"/>
<text text-anchor="middle" x="913.25" y="-1301.2" font-family="Times,serif" font-size="14.00" fill="#000000">*</text>
<text text-anchor="middle" x="913.25" y="-1284.7" font-family="Times,serif" font-size="14.00" fill="#000000">0x103d08b10</text>
<polyline fill="none" stroke="#af3800" points="796.25,-1277.5 1030.25,-1277.5"/>
<text text-anchor="middle" x="841.38" y="-1260.2" font-family="Times,serif" font-size="14.00" fill="#000000">Left</text>
<text text-anchor="middle" x="841.38" y="-1243.7" font-family="Times,serif" font-size="14.00" fill="#000000">2</text>
<text text-anchor="middle" x="841.38" y="-1227.2" font-family="Times,serif" font-size="14.00" fill="#000000">0x103d07d10</text>
<polyline fill="none" stroke="#af3800" points="886.5,-1220 886.5,-1277.5"/>
<text text-anchor="middle" x="913.25" y="-1260.2" font-family="Times,serif" font-size="14.00" fill="#000000">Parent</text>
<text text-anchor="middle" x="913.25" y="-1243.7" font-family="Times,serif" font-size="14.00" fill="#000000">NONE</text>
<text text-anchor="middle" x="913.25" y="-1227.2" font-family="Times,serif" font-size="14.00" fill="#000000">0x0</text>
<polyline fill="none" stroke="#af3800" points="940,-1220 940,-1277.5"/>
<text text-anchor="middle" x="985.12" y="-1260.2" font-family="Times,serif" font-size="14.00" fill="#000000">Right</text>
<text text-anchor="middle" x="985.12" y="-1243.7" font-family="Times,serif" font-size="14.00" fill="#000000">*</text>
<text text-anchor="middle" x="985.12" y="-1227.2" font-family="Times,serif" font-size="14.00" fill="#000000">0x103d09810</text>
</g>
<!-- node0x103d07d10 -->
<g id="node2" class="node">
<title>node0x103d07d10</title>
<path fill="#bdef9e" stroke="#99c2a2" d="M738,-1084.5C738,-1084.5 874.5,-1084.5 874.5,-1084.5 880.5,-1084.5 886.5,-1090.5 886.5,-1096.5 886.5,-1096.5 886.5,-1171 886.5,-1171 886.5,-1177 880.5,-1183 874.5,-1183 874.5,-1183 738,-1183 738,-1183 732,-1183 726,-1177 726,-1171 726,-1171 726,-1096.5 726,-1096.5 726,-1090.5 732,-1084.5 738,-1084.5"/>
<text text-anchor="middle" x="806.25" y="-1165.7" font-family="Times,serif" font-size="14.00" fill="#000000">2</text>
<text text-anchor="middle" x="806.25" y="-1149.2" font-family="Times,serif" font-size="14.00" fill="#000000">0x103d07d10</text>
<polyline fill="none" stroke="#99c2a2" points="726,-1142 886.5,-1142"/>
<text text-anchor="middle" x="752.75" y="-1124.7" font-family="Times,serif" font-size="14.00" fill="#000000">Left</text>
<text text-anchor="middle" x="752.75" y="-1108.2" font-family="Times,serif" font-size="14.00" fill="#000000">NONE</text>
<text text-anchor="middle" x="752.75" y="-1091.7" font-family="Times,serif" font-size="14.00" fill="#000000">0x0</text>
<polyline fill="none" stroke="#99c2a2" points="779.5,-1084.5 779.5,-1142"/>
<text text-anchor="middle" x="806.25" y="-1124.7" font-family="Times,serif" font-size="14.00" fill="#000000">Parent</text>
<text text-anchor="middle" x="806.25" y="-1108.2" font-family="Times,serif" font-size="14.00" fill="#000000">NONE</text>
<text text-anchor="middle" x="806.25" y="-1091.7" font-family="Times,serif" font-size="14.00" fill="#000000">0x0</text>
<polyline fill="none" stroke="#99c2a2" points="833,-1084.5 833,-1142"/>
<text text-anchor="middle" x="859.75" y="-1124.7" font-family="Times,serif" font-size="14.00" fill="#000000">Right</text>
<text text-anchor="middle" x="859.75" y="-1108.2" font-family="Times,serif" font-size="14.00" fill="#000000">NONE</text>
<text text-anchor="middle" x="859.75" y="-1091.7" font-family="Times,serif" font-size="14.00" fill="#000000">0x0</text>
</g>
<!-- node0x103d08b10&#45;&gt;node0x103d07d10 -->
<g id="edge1" class="edge">
<title>node0x103d08b10:left&#45;&gt;node0x103d07d10</title>
<path fill="none" stroke="#187ae8" stroke-width="2" d="M841.38,-1219.5C841.38,-1210.97 839.84,-1202.31 837.41,-1193.93"/>
<polygon fill="#187ae8" stroke="#187ae8" stroke-width="2" points="841.24,-1194.34 834.72,-1185.99 834.61,-1196.58 841.24,-1194.34"/>
</g>
<!-- node0x103d09810 -->
<g id="node3" class="node">
<title>node0x103d09810</title>
<path fill="#fbee21" stroke="#d3c70d" d="M916.25,-1084.5C916.25,-1084.5 1126.25,-1084.5 1126.25,-1084.5 1132.25,-1084.5 1138.25,-1090.5 1138.25,-1096.5 1138.25,-1096.5 1138.25,-1171 1138.25,-1171 1138.25,-1177 1132.25,-1183 1126.25,-1183 1126.25,-1183 916.25,-1183 916.25,-1183 910.25,-1183 904.25,-1177 904.25,-1171 904.25,-1171 904.25,-1096.5 904.25,-1096.5 904.25,-1090.5 910.25,-1084.5 916.25,-1084.5"/>
<text text-anchor="middle" x="1021.25" y="-1165.7" font-family="Times,serif" font-size="14.00" fill="#000000">*</text>
<text text-anchor="middle" x="1021.25" y="-1149.2" font-family="Times,serif" font-size="14.00" fill="#000000">0x103d09810</text>
<polyline fill="none" stroke="#d3c70d" points="904.25,-1142 1138.25,-1142"/>
<text text-anchor="middle" x="949.38" y="-1124.7" font-family="Times,serif" font-size="14.00" fill="#000000">Left</text>
<text text-anchor="middle" x="949.38" y="-1108.2" font-family="Times,serif" font-size="14.00" fill="#000000">*</text>
<text text-anchor="middle" x="949.38" y="-1091.7" font-family="Times,serif" font-size="14.00" fill="#000000">0x103d09890</text>
<polyline fill="none" stroke="#d3c70d" points="994.5,-1084.5 994.5,-1142"/>
<text text-anchor="middle" x="1021.25" y="-1124.7" font-family="Times,serif" font-size="14.00" fill="#000000">Parent</text>
<text text-anchor="middle" x="1021.25" y="-1108.2" font-family="Times,serif" font-size="14.00" fill="#000000">NONE</text>
<text text-anchor="middle" x="1021.25" y="-1091.7" font-family="Times,serif" font-size="14.00" fill="#000000">0x0</text>
<polyline fill="none" stroke="#d3c70d" points="1048,-1084.5 1048,-1142"/>
<text text-anchor="middle" x="1093.12" y="-1124.7" font-family="Times,serif" font-size="14.00" fill="#000000">Right</text>
<text text-anchor="middle" x="1093.12" y="-1108.2" font-family="Times,serif" font-size="14.00" fill="#000000">2</text>
<text text-anchor="middle" x="1093.12" y="-1091.7" font-family="Times,serif" font-size="14.00" fill="#000000">0x103d09850</text>
</g>
<!-- node0x103d08b10&#45;&gt;node0x103d09810 -->
<g id="edge17" class="edge">
<title>node0x103d08b10:right&#45;&gt;node0x103d09810</title>
<path fill="none" stroke="#48e818" stroke-width="2" d="M985.12,-1219.5C985.12,-1211.05 986.66,-1202.47 989.11,-1194.19"/>
<polygon fill="#48e818" stroke="#48e818" stroke-width="2" points="991.86,-1196.95 991.8,-1186.36 985.24,-1194.68 991.86,-1196.95"/>
</g>
<!-- node0x103d09890 -->
<g id="node4" class="node">
<title>node0x103d09890</title>
<path fill="#fbee21" stroke="#d3c70d" d="M771.88,-949C771.88,-949 1018.62,-949 1018.62,-949 1024.62,-949 1030.62,-955 1030.62,-961 1030.62,-961 1030.62,-1035.5 1030.62,-1035.5 1030.62,-1041.5 1024.62,-1047.5 1018.62,-1047.5 1018.62,-1047.5 771.88,-1047.5 771.88,-1047.5 765.88,-1047.5 759.88,-1041.5 759.88,-1035.5 759.88,-1035.5 759.88,-961 759.88,-961 759.88,-955 765.88,-949 771.88,-949"/>
<text text-anchor="middle" x="895.25" y="-1030.2" font-family="Times,serif" font-size="14.00" fill="#000000">*</text>
<text text-anchor="middle" x="895.25" y="-1013.7" font-family="Times,serif" font-size="14.00" fill="#000000">0x103d09890</text>
<polyline fill="none" stroke="#d3c70d" points="759.88,-1006.5 1030.62,-1006.5"/>
<text text-anchor="middle" x="805" y="-989.2" font-family="Times,serif" font-size="14.00" fill="#000000">Left</text>
<text text-anchor="middle" x="805" y="-972.7" font-family="Times,serif" font-size="14.00" fill="#000000">*</text>
<text text-anchor="middle" x="805" y="-956.2" font-family="Times,serif" font-size="14.00" fill="#000000">0x103d09910</text>
<polyline fill="none" stroke="#d3c70d" points="850.12,-949 850.12,-1006.5"/>
<text text-anchor="middle" x="895.25" y="-989.2" font-family="Times,serif" font-size="14.00" fill="#000000">Parent</text>
<text text-anchor="middle" x="895.25" y="-972.7" font-family="Times,serif" font-size="14.00" fill="#000000">*</text>
<text text-anchor="middle" x="895.25" y="-956.2" font-family="Times,serif" font-size="14.00" fill="#000000">0x103d09810</text>
<polyline fill="none" stroke="#d3c70d" points="940.38,-949 940.38,-1006.5"/>
<text text-anchor="middle" x="985.5" y="-989.2" font-family="Times,serif" font-size="14.00" fill="#000000">Right</text>
<text text-anchor="middle" x="985.5" y="-972.7" font-family="Times,serif" font-size="14.00" fill="#000000">2</text>
<text text-anchor="middle" x="985.5" y="-956.2" font-family="Times,serif" font-size="14.00" fill="#000000">0x103d098d0</text>
</g>
<!-- node0x103d09810&#45;&gt;node0x103d09890 -->
<g id="edge2" class="edge">
<title>node0x103d09810:left&#45;&gt;node0x103d09890</title>
<path fill="none" stroke="#187ae8" stroke-width="2" d="M949.38,-1084C949.38,-1075.04 947.2,-1066.26 943.72,-1057.96"/>
<polygon fill="#187ae8" stroke="#187ae8" stroke-width="2" points="947.57,-1057.86 940.02,-1050.44 941.29,-1060.95 947.57,-1057.86"/>
</g>
<!-- node0x103d09850 -->
<g id="node18" class="node">
<title>node0x103d09850</title>
<path fill="#bdef9e" stroke="#99c2a2" d="M1060.62,-949C1060.62,-949 1233.88,-949 1233.88,-949 1239.88,-949 1245.88,-955 1245.88,-961 1245.88,-961 1245.88,-1035.5 1245.88,-1035.5 1245.88,-1041.5 1239.88,-1047.5 1233.88,-1047.5 1233.88,-1047.5 1060.62,-1047.5 1060.62,-1047.5 1054.62,-1047.5 1048.62,-1041.5 1048.62,-1035.5 1048.62,-1035.5 1048.62,-961 1048.62,-961 1048.62,-955 1054.62,-949 1060.62,-949"/>
<text text-anchor="middle" x="1147.25" y="-1030.2" font-family="Times,serif" font-size="14.00" fill="#000000">2</text>
<text text-anchor="middle" x="1147.25" y="-1013.7" font-family="Times,serif" font-size="14.00" fill="#000000">0x103d09850</text>
<polyline fill="none" stroke="#99c2a2" points="1048.62,-1006.5 1245.88,-1006.5"/>
<text text-anchor="middle" x="1075.38" y="-989.2" font-family="Times,serif" font-size="14.00" fill="#000000">Left</text>
<text text-anchor="middle" x="1075.38" y="-972.7" font-family="Times,serif" font-size="14.00" fill="#000000">NONE</text>
<text text-anchor="middle" x="1075.38" y="-956.2" font-family="Times,serif" font-size="14.00" fill="#000000">0x0</text>
<polyline fill="none" stroke="#99c2a2" points="1102.12,-949 1102.12,-1006.5"/>
<text text-anchor="middle" x="1147.25" y="-989.2" font-family="Times,serif" font-size="14.00" fill="#000000">Parent</text>
<text text-anchor="middle" x="1147.25" y="-972.7" font-family="Times,serif" font-size="14.00" fill="#000000">*</text>
<text text-anchor="middle" x="1147.25" y="-956.2" font-family="Times,serif" font-size="14.00" fill="#000000">0x103d09810</text>
<polyline fill="none" stroke="#99c2a2" points="1192.38,-949 1192.38,-1006.5"/>
<text text-anchor="middle" x="1219.12" y="-989.2" font-family="Times,serif" font-size="14.00" fill="#000000">Right</text>
<text text-anchor="middle" x="1219.12" y="-972.7" font-family="Times,serif" font-size="14.00" fill="#000000">NONE</text>
<text text-anchor="middle" x="1219.12" y="-956.2" font-family="Times,serif" font-size="14.00" fill="#000000">0x0</text>
</g>
<!-- node0x103d09810&#45;&gt;node0x103d09850 -->
<g id="edge16" class="edge">
<title>node0x103d09810:right&#45;&gt;node0x103d09850</title>
<path fill="none" stroke="#48e818" stroke-width="2" d="M1093.12,-1084C1093.12,-1075.04 1095.3,-1066.26 1098.78,-1057.96"/>
<polygon fill="#48e818" stroke="#48e818" stroke-width="2" points="1101.21,-1060.95 1102.48,-1050.44 1094.93,-1057.86 1101.21,-1060.95"/>
</g>
<!-- node0x103d09910 -->
<g id="node5" class="node">
<title>node0x103d09910</title>
<path fill="#fbee21" stroke="#d3c70d" d="M645.88,-813.5C645.88,-813.5 892.62,-813.5 892.62,-813.5 898.62,-813.5 904.62,-819.5 904.62,-825.5 904.62,-825.5 904.62,-900 904.62,-900 904.62,-906 898.62,-912 892.62,-912 892.62,-912 645.88,-912 645.88,-912 639.88,-912 633.88,-906 633.88,-900 633.88,-900 633.88,-825.5 633.88,-825.5 633.88,-819.5 639.88,-813.5 645.88,-813.5"/>
<text text-anchor="middle" x="769.25" y="-894.7" font-family="Times,serif" font-size="14.00" fill="#000000">*</text>
<text text-anchor="middle" x="769.25" y="-878.2" font-family="Times,serif" font-size="14.00" fill="#000000">0x103d09910</text>
<polyline fill="none" stroke="#d3c70d" points="633.88,-871 904.62,-871"/>
<text text-anchor="middle" x="679" y="-853.7" font-family="Times,serif" font-size="14.00" fill="#000000">Left</text>
<text text-anchor="middle" x="679" y="-837.2" font-family="Times,serif" font-size="14.00" fill="#000000">*</text>
<text text-anchor="middle" x="679" y="-820.7" font-family="Times,serif" font-size="14.00" fill="#000000">0x103d09990</text>
<polyline fill="none" stroke="#d3c70d" points="724.12,-813.5 724.12,-871"/>
<text text-anchor="middle" x="769.25" y="-853.7" font-family="Times,serif" font-size="14.00" fill="#000000">Parent</text>
<text text-anchor="middle" x="769.25" y="-837.2" font-family="Times,serif" font-size="14.00" fill="#000000">*</text>
<text text-anchor="middle" x="769.25" y="-820.7" font-family="Times,serif" font-size="14.00" fill="#000000">0x103d09890</text>
<polyline fill="none" stroke="#d3c70d" points="814.38,-813.5 814.38,-871"/>
<text text-anchor="middle" x="859.5" y="-853.7" font-family="Times,serif" font-size="14.00" fill="#000000">Right</text>
<text text-anchor="middle" x="859.5" y="-837.2" font-family="Times,serif" font-size="14.00" fill="#000000">2</text>
<text text-anchor="middle" x="859.5" y="-820.7" font-family="Times,serif" font-size="14.00" fill="#000000">0x103d09950</text>
</g>
<!-- node0x103d09890&#45;&gt;node0x103d09910 -->
<g id="edge3" class="edge">
<title>node0x103d09890:left&#45;&gt;node0x103d09910</title>
<path fill="none" stroke="#187ae8" stroke-width="2" d="M805,-948.5C805,-939.95 803.44,-931.27 800.96,-922.89"/>
<polygon fill="#187ae8" stroke="#187ae8" stroke-width="2" points="804.79,-923.25 798.23,-914.94 798.17,-925.53 804.79,-923.25"/>
</g>
<!-- node0x103d098d0 -->
<g id="node17" class="node">
<title>node0x103d098d0</title>
<path fill="#bdef9e" stroke="#99c2a2" d="M934.62,-813.5C934.62,-813.5 1107.88,-813.5 1107.88,-813.5 1113.88,-813.5 1119.88,-819.5 1119.88,-825.5 1119.88,-825.5 1119.88,-900 1119.88,-900 1119.88,-906 1113.88,-912 1107.88,-912 1107.88,-912 934.62,-912 934.62,-912 928.62,-912 922.62,-906 922.62,-900 922.62,-900 922.62,-825.5 922.62,-825.5 922.62,-819.5 928.62,-813.5 934.62,-813.5"/>
<text text-anchor="middle" x="1021.25" y="-894.7" font-family="Times,serif" font-size="14.00" fill="#000000">2</text>
<text text-anchor="middle" x="1021.25" y="-878.2" font-family="Times,serif" font-size="14.00" fill="#000000">0x103d098d0</text>
<polyline fill="none" stroke="#99c2a2" points="922.62,-871 1119.88,-871"/>
<text text-anchor="middle" x="949.38" y="-853.7" font-family="Times,serif" font-size="14.00" fill="#000000">Left</text>
<text text-anchor="middle" x="949.38" y="-837.2" font-family="Times,serif" font-size="14.00" fill="#000000">NONE</text>
<text text-anchor="middle" x="949.38" y="-820.7" font-family="Times,serif" font-size="14.00" fill="#000000">0x0</text>
<polyline fill="none" stroke="#99c2a2" points="976.12,-813.5 976.12,-871"/>
<text text-anchor="middle" x="1021.25" y="-853.7" font-family="Times,serif" font-size="14.00" fill="#000000">Parent</text>
<text text-anchor="middle" x="1021.25" y="-837.2" font-family="Times,serif" font-size="14.00" fill="#000000">*</text>
<text text-anchor="middle" x="1021.25" y="-820.7" font-family="Times,serif" font-size="14.00" fill="#000000">0x103d09890</text>
<polyline fill="none" stroke="#99c2a2" points="1066.38,-813.5 1066.38,-871"/>
<text text-anchor="middle" x="1093.12" y="-853.7" font-family="Times,serif" font-size="14.00" fill="#000000">Right</text>
<text text-anchor="middle" x="1093.12" y="-837.2" font-family="Times,serif" font-size="14.00" fill="#000000">NONE</text>
<text text-anchor="middle" x="1093.12" y="-820.7" font-family="Times,serif" font-size="14.00" fill="#000000">0x0</text>
</g>
<!-- node0x103d09890&#45;&gt;node0x103d098d0 -->
<g id="edge15" class="edge">
<title>node0x103d09890:right&#45;&gt;node0x103d098d0</title>
<path fill="none" stroke="#48e818" stroke-width="2" d="M985.5,-948.5C985.5,-939.95 987.06,-931.27 989.54,-922.89"/>
<polygon fill="#48e818" stroke="#48e818" stroke-width="2" points="992.33,-925.53 992.27,-914.94 985.71,-923.25 992.33,-925.53"/>
</g>
<!-- node0x103d09990 -->
<g id="node6" class="node">
<title>node0x103d09990</title>
<path fill="#fbee21" stroke="#d3c70d" d="M520.25,-678C520.25,-678 766.25,-678 766.25,-678 772.25,-678 778.25,-684 778.25,-690 778.25,-690 778.25,-764.5 778.25,-764.5 778.25,-770.5 772.25,-776.5 766.25,-776.5 766.25,-776.5 520.25,-776.5 520.25,-776.5 514.25,-776.5 508.25,-770.5 508.25,-764.5 508.25,-764.5 508.25,-690 508.25,-690 508.25,-684 514.25,-678 520.25,-678"/>
<text text-anchor="middle" x="643.25" y="-759.2" font-family="Times,serif" font-size="14.00" fill="#000000">*</text>
<text text-anchor="middle" x="643.25" y="-742.7" font-family="Times,serif" font-size="14.00" fill="#000000">0x103d09990</text>
<polyline fill="none" stroke="#d3c70d" points="508.25,-735.5 778.25,-735.5"/>
<text text-anchor="middle" x="553" y="-718.2" font-family="Times,serif" font-size="14.00" fill="#000000">Left</text>
<text text-anchor="middle" x="553" y="-701.7" font-family="Times,serif" font-size="14.00" fill="#000000">*</text>
<text text-anchor="middle" x="553" y="-685.2" font-family="Times,serif" font-size="14.00" fill="#000000">0x103d09a10</text>
<polyline fill="none" stroke="#d3c70d" points="597.75,-678 597.75,-735.5"/>
<text text-anchor="middle" x="642.88" y="-718.2" font-family="Times,serif" font-size="14.00" fill="#000000">Parent</text>
<text text-anchor="middle" x="642.88" y="-701.7" font-family="Times,serif" font-size="14.00" fill="#000000">*</text>
<text text-anchor="middle" x="642.88" y="-685.2" font-family="Times,serif" font-size="14.00" fill="#000000">0x103d09910</text>
<polyline fill="none" stroke="#d3c70d" points="688,-678 688,-735.5"/>
<text text-anchor="middle" x="733.12" y="-718.2" font-family="Times,serif" font-size="14.00" fill="#000000">Right</text>
<text text-anchor="middle" x="733.12" y="-701.7" font-family="Times,serif" font-size="14.00" fill="#000000">2</text>
<text text-anchor="middle" x="733.12" y="-685.2" font-family="Times,serif" font-size="14.00" fill="#000000">0x103d099d0</text>
</g>
<!-- node0x103d09910&#45;&gt;node0x103d09990 -->
<g id="edge4" class="edge">
<title>node0x103d09910:left&#45;&gt;node0x103d09990</title>
<path fill="none" stroke="#187ae8" stroke-width="2" d="M679,-813C679,-804.45 677.44,-795.77 674.96,-787.39"/>
<polygon fill="#187ae8" stroke="#187ae8" stroke-width="2" points="678.79,-787.75 672.23,-779.44 672.17,-790.03 678.79,-787.75"/>
</g>
<!-- node0x103d09950 -->
<g id="node16" class="node">
<title>node0x103d09950</title>
<path fill="#bdef9e" stroke="#99c2a2" d="M808.62,-678C808.62,-678 981.88,-678 981.88,-678 987.88,-678 993.88,-684 993.88,-690 993.88,-690 993.88,-764.5 993.88,-764.5 993.88,-770.5 987.88,-776.5 981.88,-776.5 981.88,-776.5 808.62,-776.5 808.62,-776.5 802.62,-776.5 796.62,-770.5 796.62,-764.5 796.62,-764.5 796.62,-690 796.62,-690 796.62,-684 802.62,-678 808.62,-678"/>
<text text-anchor="middle" x="895.25" y="-759.2" font-family="Times,serif" font-size="14.00" fill="#000000">2</text>
<text text-anchor="middle" x="895.25" y="-742.7" font-family="Times,serif" font-size="14.00" fill="#000000">0x103d09950</text>
<polyline fill="none" stroke="#99c2a2" points="796.62,-735.5 993.88,-735.5"/>
<text text-anchor="middle" x="823.38" y="-718.2" font-family="Times,serif" font-size="14.00" fill="#000000">Left</text>
<text text-anchor="middle" x="823.38" y="-701.7" font-family="Times,serif" font-size="14.00" fill="#000000">NONE</text>
<text text-anchor="middle" x="823.38" y="-685.2" font-family="Times,serif" font-size="14.00" fill="#000000">0x0</text>
<polyline fill="none" stroke="#99c2a2" points="850.12,-678 850.12,-735.5"/>
<text text-anchor="middle" x="895.25" y="-718.2" font-family="Times,serif" font-size="14.00" fill="#000000">Parent</text>
<text text-anchor="middle" x="895.25" y="-701.7" font-family="Times,serif" font-size="14.00" fill="#000000">*</text>
<text text-anchor="middle" x="895.25" y="-685.2" font-family="Times,serif" font-size="14.00" fill="#000000">0x103d09910</text>
<polyline fill="none" stroke="#99c2a2" points="940.38,-678 940.38,-735.5"/>
<text text-anchor="middle" x="967.12" y="-718.2" font-family="Times,serif" font-size="14.00" fill="#000000">Right</text>
<text text-anchor="middle" x="967.12" y="-701.7" font-family="Times,serif" font-size="14.00" fill="#000000">NONE</text>
<text text-anchor="middle" x="967.12" y="-685.2" font-family="Times,serif" font-size="14.00" fill="#000000">0x0</text>
</g>
<!-- node0x103d09910&#45;&gt;node0x103d09950 -->
<g id="edge14" class="edge">
<title>node0x103d09910:right&#45;&gt;node0x103d09950</title>
<path fill="none" stroke="#48e818" stroke-width="2" d="M859.5,-813C859.5,-804.45 861.06,-795.77 863.54,-787.39"/>
<polygon fill="#48e818" stroke="#48e818" stroke-width="2" points="866.33,-790.03 866.27,-779.44 859.71,-787.75 866.33,-790.03"/>
</g>
<!-- node0x103d09a10 -->
<g id="node7" class="node">
<title>node0x103d09a10</title>
<path fill="#fbee21" stroke="#d3c70d" d="M394.62,-542.5C394.62,-542.5 639.88,-542.5 639.88,-542.5 645.88,-542.5 651.88,-548.5 651.88,-554.5 651.88,-554.5 651.88,-629 651.88,-629 651.88,-635 645.88,-641 639.88,-641 639.88,-641 394.62,-641 394.62,-641 388.62,-641 382.62,-635 382.62,-629 382.62,-629 382.62,-554.5 382.62,-554.5 382.62,-548.5 388.62,-542.5 394.62,-542.5"/>
<text text-anchor="middle" x="517.25" y="-623.7" font-family="Times,serif" font-size="14.00" fill="#000000">*</text>
<text text-anchor="middle" x="517.25" y="-607.2" font-family="Times,serif" font-size="14.00" fill="#000000">0x103d09a10</text>
<polyline fill="none" stroke="#d3c70d" points="382.62,-600 651.88,-600"/>
<text text-anchor="middle" x="427.38" y="-582.7" font-family="Times,serif" font-size="14.00" fill="#000000">Left</text>
<text text-anchor="middle" x="427.38" y="-566.2" font-family="Times,serif" font-size="14.00" fill="#000000">*</text>
<text text-anchor="middle" x="427.38" y="-549.7" font-family="Times,serif" font-size="14.00" fill="#000000">0x103d09a90</text>
<polyline fill="none" stroke="#d3c70d" points="472.12,-542.5 472.12,-600"/>
<text text-anchor="middle" x="517.25" y="-582.7" font-family="Times,serif" font-size="14.00" fill="#000000">Parent</text>
<text text-anchor="middle" x="517.25" y="-566.2" font-family="Times,serif" font-size="14.00" fill="#000000">*</text>
<text text-anchor="middle" x="517.25" y="-549.7" font-family="Times,serif" font-size="14.00" fill="#000000">0x103d09990</text>
<polyline fill="none" stroke="#d3c70d" points="562.38,-542.5 562.38,-600"/>
<text text-anchor="middle" x="607.12" y="-582.7" font-family="Times,serif" font-size="14.00" fill="#000000">Right</text>
<text text-anchor="middle" x="607.12" y="-566.2" font-family="Times,serif" font-size="14.00" fill="#000000">2</text>
<text text-anchor="middle" x="607.12" y="-549.7" font-family="Times,serif" font-size="14.00" fill="#000000">0x103d09a50</text>
</g>
<!-- node0x103d09990&#45;&gt;node0x103d09a10 -->
<g id="edge5" class="edge">
<title>node0x103d09990:left&#45;&gt;node0x103d09a10</title>
<path fill="none" stroke="#187ae8" stroke-width="2" d="M553,-677.5C553,-668.95 551.44,-660.27 548.96,-651.89"/>
<polygon fill="#187ae8" stroke="#187ae8" stroke-width="2" points="552.79,-652.25 546.23,-643.94 546.17,-654.53 552.79,-652.25"/>
</g>
<!-- node0x103d099d0 -->
<g id="node15" class="node">
<title>node0x103d099d0</title>
<path fill="#bdef9e" stroke="#99c2a2" d="M681.62,-542.5C681.62,-542.5 854.88,-542.5 854.88,-542.5 860.88,-542.5 866.88,-548.5 866.88,-554.5 866.88,-554.5 866.88,-629 866.88,-629 866.88,-635 860.88,-641 854.88,-641 854.88,-641 681.62,-641 681.62,-641 675.62,-641 669.62,-635 669.62,-629 669.62,-629 669.62,-554.5 669.62,-554.5 669.62,-548.5 675.62,-542.5 681.62,-542.5"/>
<text text-anchor="middle" x="768.25" y="-623.7" font-family="Times,serif" font-size="14.00" fill="#000000">2</text>
<text text-anchor="middle" x="768.25" y="-607.2" font-family="Times,serif" font-size="14.00" fill="#000000">0x103d099d0</text>
<polyline fill="none" stroke="#99c2a2" points="669.62,-600 866.88,-600"/>
<text text-anchor="middle" x="696.38" y="-582.7" font-family="Times,serif" font-size="14.00" fill="#000000">Left</text>
<text text-anchor="middle" x="696.38" y="-566.2" font-family="Times,serif" font-size="14.00" fill="#000000">NONE</text>
<text text-anchor="middle" x="696.38" y="-549.7" font-family="Times,serif" font-size="14.00" fill="#000000">0x0</text>
<polyline fill="none" stroke="#99c2a2" points="723.12,-542.5 723.12,-600"/>
<text text-anchor="middle" x="768.25" y="-582.7" font-family="Times,serif" font-size="14.00" fill="#000000">Parent</text>
<text text-anchor="middle" x="768.25" y="-566.2" font-family="Times,serif" font-size="14.00" fill="#000000">*</text>
<text text-anchor="middle" x="768.25" y="-549.7" font-family="Times,serif" font-size="14.00" fill="#000000">0x103d09990</text>
<polyline fill="none" stroke="#99c2a2" points="813.38,-542.5 813.38,-600"/>
<text text-anchor="middle" x="840.12" y="-582.7" font-family="Times,serif" font-size="14.00" fill="#000000">Right</text>
<text text-anchor="middle" x="840.12" y="-566.2" font-family="Times,serif" font-size="14.00" fill="#000000">NONE</text>
<text text-anchor="middle" x="840.12" y="-549.7" font-family="Times,serif" font-size="14.00" fill="#000000">0x0</text>
</g>
<!-- node0x103d09990&#45;&gt;node0x103d099d0 -->
<g id="edge13" class="edge">
<title>node0x103d09990:right&#45;&gt;node0x103d099d0</title>
<path fill="none" stroke="#48e818" stroke-width="2" d="M733.12,-677.5C733.12,-668.97 734.66,-660.31 737.09,-651.93"/>
<polygon fill="#48e818" stroke="#48e818" stroke-width="2" points="739.89,-654.58 739.78,-643.99 733.26,-652.34 739.89,-654.58"/>
</g>
<!-- node0x103d09a90 -->
<g id="node8" class="node">
<title>node0x103d09a90</title>
<path fill="#fbee21" stroke="#d3c70d" d="M270,-407C270,-407 514.5,-407 514.5,-407 520.5,-407 526.5,-413 526.5,-419 526.5,-419 526.5,-493.5 526.5,-493.5 526.5,-499.5 520.5,-505.5 514.5,-505.5 514.5,-505.5 270,-505.5 270,-505.5 264,-505.5 258,-499.5 258,-493.5 258,-493.5 258,-419 258,-419 258,-413 264,-407 270,-407"/>
<text text-anchor="middle" x="392.25" y="-488.2" font-family="Times,serif" font-size="14.00" fill="#000000">*</text>
<text text-anchor="middle" x="392.25" y="-471.7" font-family="Times,serif" font-size="14.00" fill="#000000">0x103d09a90</text>
<polyline fill="none" stroke="#d3c70d" points="258,-464.5 526.5,-464.5"/>
<text text-anchor="middle" x="302.75" y="-447.2" font-family="Times,serif" font-size="14.00" fill="#000000">Left</text>
<text text-anchor="middle" x="302.75" y="-430.7" font-family="Times,serif" font-size="14.00" fill="#000000">exp</text>
<text text-anchor="middle" x="302.75" y="-414.2" font-family="Times,serif" font-size="14.00" fill="#000000">0x103d07c10</text>
<polyline fill="none" stroke="#d3c70d" points="347.5,-407 347.5,-464.5"/>
<text text-anchor="middle" x="392.25" y="-447.2" font-family="Times,serif" font-size="14.00" fill="#000000">Parent</text>
<text text-anchor="middle" x="392.25" y="-430.7" font-family="Times,serif" font-size="14.00" fill="#000000">*</text>
<text text-anchor="middle" x="392.25" y="-414.2" font-family="Times,serif" font-size="14.00" fill="#000000">0x103d09a10</text>
<polyline fill="none" stroke="#d3c70d" points="437,-407 437,-464.5"/>
<text text-anchor="middle" x="481.75" y="-447.2" font-family="Times,serif" font-size="14.00" fill="#000000">Right</text>
<text text-anchor="middle" x="481.75" y="-430.7" font-family="Times,serif" font-size="14.00" fill="#000000">2</text>
<text text-anchor="middle" x="481.75" y="-414.2" font-family="Times,serif" font-size="14.00" fill="#000000">0x103d09ad0</text>
</g>
<!-- node0x103d09a10&#45;&gt;node0x103d09a90 -->
<g id="edge6" class="edge">
<title>node0x103d09a10:left&#45;&gt;node0x103d09a90</title>
<path fill="none" stroke="#187ae8" stroke-width="2" d="M427.38,-542C427.38,-533.47 425.84,-524.81 423.41,-516.43"/>
<polygon fill="#187ae8" stroke="#187ae8" stroke-width="2" points="427.24,-516.84 420.72,-508.49 420.61,-519.08 427.24,-516.84"/>
</g>
<!-- node0x103d09a50 -->
<g id="node14" class="node">
<title>node0x103d09a50</title>
<path fill="#bdef9e" stroke="#99c2a2" d="M557,-407C557,-407 729.5,-407 729.5,-407 735.5,-407 741.5,-413 741.5,-419 741.5,-419 741.5,-493.5 741.5,-493.5 741.5,-499.5 735.5,-505.5 729.5,-505.5 729.5,-505.5 557,-505.5 557,-505.5 551,-505.5 545,-499.5 545,-493.5 545,-493.5 545,-419 545,-419 545,-413 551,-407 557,-407"/>
<text text-anchor="middle" x="643.25" y="-488.2" font-family="Times,serif" font-size="14.00" fill="#000000">2</text>
<text text-anchor="middle" x="643.25" y="-471.7" font-family="Times,serif" font-size="14.00" fill="#000000">0x103d09a50</text>
<polyline fill="none" stroke="#99c2a2" points="545,-464.5 741.5,-464.5"/>
<text text-anchor="middle" x="571.75" y="-447.2" font-family="Times,serif" font-size="14.00" fill="#000000">Left</text>
<text text-anchor="middle" x="571.75" y="-430.7" font-family="Times,serif" font-size="14.00" fill="#000000">NONE</text>
<text text-anchor="middle" x="571.75" y="-414.2" font-family="Times,serif" font-size="14.00" fill="#000000">0x0</text>
<polyline fill="none" stroke="#99c2a2" points="598.5,-407 598.5,-464.5"/>
<text text-anchor="middle" x="643.25" y="-447.2" font-family="Times,serif" font-size="14.00" fill="#000000">Parent</text>
<text text-anchor="middle" x="643.25" y="-430.7" font-family="Times,serif" font-size="14.00" fill="#000000">*</text>
<text text-anchor="middle" x="643.25" y="-414.2" font-family="Times,serif" font-size="14.00" fill="#000000">0x103d09a10</text>
<polyline fill="none" stroke="#99c2a2" points="688,-407 688,-464.5"/>
<text text-anchor="middle" x="714.75" y="-447.2" font-family="Times,serif" font-size="14.00" fill="#000000">Right</text>
<text text-anchor="middle" x="714.75" y="-430.7" font-family="Times,serif" font-size="14.00" fill="#000000">NONE</text>
<text text-anchor="middle" x="714.75" y="-414.2" font-family="Times,serif" font-size="14.00" fill="#000000">0x0</text>
</g>
<!-- node0x103d09a10&#45;&gt;node0x103d09a50 -->
<g id="edge12" class="edge">
<title>node0x103d09a10:right&#45;&gt;node0x103d09a50</title>
<path fill="none" stroke="#48e818" stroke-width="2" d="M607.12,-542C607.12,-533.55 608.66,-524.97 611.11,-516.69"/>
<polygon fill="#48e818" stroke="#48e818" stroke-width="2" points="613.86,-519.45 613.8,-508.86 607.24,-517.18 613.86,-519.45"/>
</g>
<!-- node0x103d07c10 -->
<g id="node9" class="node">
<title>node0x103d07c10</title>
<path fill="#fbee21" stroke="#d3c70d" d="M172,-271.5C172,-271.5 380.5,-271.5 380.5,-271.5 386.5,-271.5 392.5,-277.5 392.5,-283.5 392.5,-283.5 392.5,-358 392.5,-358 392.5,-364 386.5,-370 380.5,-370 380.5,-370 172,-370 172,-370 166,-370 160,-364 160,-358 160,-358 160,-283.5 160,-283.5 160,-277.5 166,-271.5 172,-271.5"/>
<text text-anchor="middle" x="276.25" y="-352.7" font-family="Times,serif" font-size="14.00" fill="#000000">exp</text>
<text text-anchor="middle" x="276.25" y="-336.2" font-family="Times,serif" font-size="14.00" fill="#000000">0x103d07c10</text>
<polyline fill="none" stroke="#d3c70d" points="160,-329 392.5,-329"/>
<text text-anchor="middle" x="204.75" y="-311.7" font-family="Times,serif" font-size="14.00" fill="#000000">Left</text>
<text text-anchor="middle" x="204.75" y="-295.2" font-family="Times,serif" font-size="14.00" fill="#000000">*</text>
<text text-anchor="middle" x="204.75" y="-278.7" font-family="Times,serif" font-size="14.00" fill="#000000">0x103d07c50</text>
<polyline fill="none" stroke="#d3c70d" points="249.5,-271.5 249.5,-329"/>
<text text-anchor="middle" x="294.25" y="-311.7" font-family="Times,serif" font-size="14.00" fill="#000000">Parent</text>
<text text-anchor="middle" x="294.25" y="-295.2" font-family="Times,serif" font-size="14.00" fill="#000000">*</text>
<text text-anchor="middle" x="294.25" y="-278.7" font-family="Times,serif" font-size="14.00" fill="#000000">0x103d09a90</text>
<polyline fill="none" stroke="#d3c70d" points="339,-271.5 339,-329"/>
<text text-anchor="middle" x="365.75" y="-311.7" font-family="Times,serif" font-size="14.00" fill="#000000">Right</text>
<text text-anchor="middle" x="365.75" y="-295.2" font-family="Times,serif" font-size="14.00" fill="#000000">NONE</text>
<text text-anchor="middle" x="365.75" y="-278.7" font-family="Times,serif" font-size="14.00" fill="#000000">0x0</text>
</g>
<!-- node0x103d09a90&#45;&gt;node0x103d07c10 -->
<g id="edge7" class="edge">
<title>node0x103d09a90:left&#45;&gt;node0x103d07c10</title>
<path fill="none" stroke="#187ae8" stroke-width="2" d="M302.75,-406.5C302.75,-398.14 301.56,-389.52 299.69,-381.12"/>
<polygon fill="#187ae8" stroke="#187ae8" stroke-width="2" points="303.53,-381.98 297.63,-373.18 296.75,-383.74 303.53,-381.98"/>
</g>
<!-- node0x103d09ad0 -->
<g id="node13" class="node">
<title>node0x103d09ad0</title>
<path fill="#bdef9e" stroke="#99c2a2" d="M423,-271.5C423,-271.5 595.5,-271.5 595.5,-271.5 601.5,-271.5 607.5,-277.5 607.5,-283.5 607.5,-283.5 607.5,-358 607.5,-358 607.5,-364 601.5,-370 595.5,-370 595.5,-370 423,-370 423,-370 417,-370 411,-364 411,-358 411,-358 411,-283.5 411,-283.5 411,-277.5 417,-271.5 423,-271.5"/>
<text text-anchor="middle" x="509.25" y="-352.7" font-family="Times,serif" font-size="14.00" fill="#000000">2</text>
<text text-anchor="middle" x="509.25" y="-336.2" font-family="Times,serif" font-size="14.00" fill="#000000">0x103d09ad0</text>
<polyline fill="none" stroke="#99c2a2" points="411,-329 607.5,-329"/>
<text text-anchor="middle" x="437.75" y="-311.7" font-family="Times,serif" font-size="14.00" fill="#000000">Left</text>
<text text-anchor="middle" x="437.75" y="-295.2" font-family="Times,serif" font-size="14.00" fill="#000000">NONE</text>
<text text-anchor="middle" x="437.75" y="-278.7" font-family="Times,serif" font-size="14.00" fill="#000000">0x0</text>
<polyline fill="none" stroke="#99c2a2" points="464.5,-271.5 464.5,-329"/>
<text text-anchor="middle" x="509.25" y="-311.7" font-family="Times,serif" font-size="14.00" fill="#000000">Parent</text>
<text text-anchor="middle" x="509.25" y="-295.2" font-family="Times,serif" font-size="14.00" fill="#000000">*</text>
<text text-anchor="middle" x="509.25" y="-278.7" font-family="Times,serif" font-size="14.00" fill="#000000">0x103d09a90</text>
<polyline fill="none" stroke="#99c2a2" points="554,-271.5 554,-329"/>
<text text-anchor="middle" x="580.75" y="-311.7" font-family="Times,serif" font-size="14.00" fill="#000000">Right</text>
<text text-anchor="middle" x="580.75" y="-295.2" font-family="Times,serif" font-size="14.00" fill="#000000">NONE</text>
<text text-anchor="middle" x="580.75" y="-278.7" font-family="Times,serif" font-size="14.00" fill="#000000">0x0</text>
</g>
<!-- node0x103d09a90&#45;&gt;node0x103d09ad0 -->
<g id="edge11" class="edge">
<title>node0x103d09a90:right&#45;&gt;node0x103d09ad0</title>
<path fill="none" stroke="#48e818" stroke-width="2" d="M481.75,-406.5C481.75,-398.11 482.98,-389.47 484.93,-381.07"/>
<polygon fill="#48e818" stroke="#48e818" stroke-width="2" points="487.85,-383.68 487.07,-373.11 481.09,-381.86 487.85,-383.68"/>
</g>
<!-- node0x103d07c50 -->
<g id="node10" class="node">
<title>node0x103d07c50</title>
<path fill="#fbee21" stroke="#d3c70d" d="M83,-136C83,-136 327.5,-136 327.5,-136 333.5,-136 339.5,-142 339.5,-148 339.5,-148 339.5,-222.5 339.5,-222.5 339.5,-228.5 333.5,-234.5 327.5,-234.5 327.5,-234.5 83,-234.5 83,-234.5 77,-234.5 71,-228.5 71,-222.5 71,-222.5 71,-148 71,-148 71,-142 77,-136 83,-136"/>
<text text-anchor="middle" x="205.25" y="-217.2" font-family="Times,serif" font-size="14.00" fill="#000000">*</text>
<text text-anchor="middle" x="205.25" y="-200.7" font-family="Times,serif" font-size="14.00" fill="#000000">0x103d07c50</text>
<polyline fill="none" stroke="#d3c70d" points="71,-193.5 339.5,-193.5"/>
<text text-anchor="middle" x="115.75" y="-176.2" font-family="Times,serif" font-size="14.00" fill="#000000">Left</text>
<text text-anchor="middle" x="115.75" y="-159.7" font-family="Times,serif" font-size="14.00" fill="#000000">x</text>
<text text-anchor="middle" x="115.75" y="-143.2" font-family="Times,serif" font-size="14.00" fill="#000000">0x103d07cd0</text>
<polyline fill="none" stroke="#d3c70d" points="160.5,-136 160.5,-193.5"/>
<text text-anchor="middle" x="205.25" y="-176.2" font-family="Times,serif" font-size="14.00" fill="#000000">Parent</text>
<text text-anchor="middle" x="205.25" y="-159.7" font-family="Times,serif" font-size="14.00" fill="#000000">exp</text>
<text text-anchor="middle" x="205.25" y="-143.2" font-family="Times,serif" font-size="14.00" fill="#000000">0x103d07c10</text>
<polyline fill="none" stroke="#d3c70d" points="250,-136 250,-193.5"/>
<text text-anchor="middle" x="294.75" y="-176.2" font-family="Times,serif" font-size="14.00" fill="#000000">Right</text>
<text text-anchor="middle" x="294.75" y="-159.7" font-family="Times,serif" font-size="14.00" fill="#000000">2</text>
<text text-anchor="middle" x="294.75" y="-143.2" font-family="Times,serif" font-size="14.00" fill="#000000">0x103d07c90</text>
</g>
<!-- node0x103d07c10&#45;&gt;node0x103d07c50 -->
<g id="edge8" class="edge">
<title>node0x103d07c10:left&#45;&gt;node0x103d07c50</title>
<path fill="none" stroke="#187ae8" stroke-width="2" d="M204.75,-271C204.75,-262.91 204.77,-254.38 204.81,-245.98"/>
<polygon fill="#187ae8" stroke="#187ae8" stroke-width="2" points="208.3,-247.7 204.85,-237.68 201.3,-247.66 208.3,-247.7"/>
</g>
<!-- node0x103d07cd0 -->
<g id="node11" class="node">
<title>node0x103d07cd0</title>
<path fill="#d5cfe1" stroke="#8797b2" d="M12,-0.5C12,-0.5 184.5,-0.5 184.5,-0.5 190.5,-0.5 196.5,-6.5 196.5,-12.5 196.5,-12.5 196.5,-87 196.5,-87 196.5,-93 190.5,-99 184.5,-99 184.5,-99 12,-99 12,-99 6,-99 0,-93 0,-87 0,-87 0,-12.5 0,-12.5 0,-6.5 6,-0.5 12,-0.5"/>
<text text-anchor="middle" x="98.25" y="-81.7" font-family="Times,serif" font-size="14.00" fill="#000000">x</text>
<text text-anchor="middle" x="98.25" y="-65.2" font-family="Times,serif" font-size="14.00" fill="#000000">0x103d07cd0</text>
<polyline fill="none" stroke="#8797b2" points="0,-58 196.5,-58"/>
<text text-anchor="middle" x="26.75" y="-40.7" font-family="Times,serif" font-size="14.00" fill="#000000">Left</text>
<text text-anchor="middle" x="26.75" y="-24.2" font-family="Times,serif" font-size="14.00" fill="#000000">NONE</text>
<text text-anchor="middle" x="26.75" y="-7.7" font-family="Times,serif" font-size="14.00" fill="#000000">0x0</text>
<polyline fill="none" stroke="#8797b2" points="53.5,-0.5 53.5,-58"/>
<text text-anchor="middle" x="98.25" y="-40.7" font-family="Times,serif" font-size="14.00" fill="#000000">Parent</text>
<text text-anchor="middle" x="98.25" y="-24.2" font-family="Times,serif" font-size="14.00" fill="#000000">*</text>
<text text-anchor="middle" x="98.25" y="-7.7" font-family="Times,serif" font-size="14.00" fill="#000000">0x103d07c50</text>
<polyline fill="none" stroke="#8797b2" points="143,-0.5 143,-58"/>
<text text-anchor="middle" x="169.75" y="-40.7" font-family="Times,serif" font-size="14.00" fill="#000000">Right</text>
<text text-anchor="middle" x="169.75" y="-24.2" font-family="Times,serif" font-size="14.00" fill="#000000">NONE</text>
<text text-anchor="middle" x="169.75" y="-7.7" font-family="Times,serif" font-size="14.00" fill="#000000">0x0</text>
</g>
<!-- node0x103d07c50&#45;&gt;node0x103d07cd0 -->
<g id="edge9" class="edge">
<title>node0x103d07c50:left&#45;&gt;node0x103d07cd0</title>
<path fill="none" stroke="#187ae8" stroke-width="2" d="M115.75,-135.5C115.75,-127.34 114.96,-118.83 113.72,-110.48"/>
<polygon fill="#187ae8" stroke="#187ae8" stroke-width="2" points="117.45,-111.49 112.29,-102.23 110.55,-112.68 117.45,-111.49"/>
</g>
<!-- node0x103d07c90 -->
<g id="node12" class="node">
<title>node0x103d07c90</title>
<path fill="#bdef9e" stroke="#99c2a2" d="M227,-0.5C227,-0.5 399.5,-0.5 399.5,-0.5 405.5,-0.5 411.5,-6.5 411.5,-12.5 411.5,-12.5 411.5,-87 411.5,-87 411.5,-93 405.5,-99 399.5,-99 399.5,-99 227,-99 227,-99 221,-99 215,-93 215,-87 215,-87 215,-12.5 215,-12.5 215,-6.5 221,-0.5 227,-0.5"/>
<text text-anchor="middle" x="313.25" y="-81.7" font-family="Times,serif" font-size="14.00" fill="#000000">2</text>
<text text-anchor="middle" x="313.25" y="-65.2" font-family="Times,serif" font-size="14.00" fill="#000000">0x103d07c90</text>
<polyline fill="none" stroke="#99c2a2" points="215,-58 411.5,-58"/>
<text text-anchor="middle" x="241.75" y="-40.7" font-family="Times,serif" font-size="14.00" fill="#000000">Left</text>
<text text-anchor="middle" x="241.75" y="-24.2" font-family="Times,serif" font-size="14.00" fill="#000000">NONE</text>
<text text-anchor="middle" x="241.75" y="-7.7" font-family="Times,serif" font-size="14.00" fill="#000000">0x0</text>
<polyline fill="none" stroke="#99c2a2" points="268.5,-0.5 268.5,-58"/>
<text text-anchor="middle" x="313.25" y="-40.7" font-family="Times,serif" font-size="14.00" fill="#000000">Parent</text>
<text text-anchor="middle" x="313.25" y="-24.2" font-family="Times,serif" font-size="14.00" fill="#000000">*</text>
<text text-anchor="middle" x="313.25" y="-7.7" font-family="Times,serif" font-size="14.00" fill="#000000">0x103d07c50</text>
<polyline fill="none" stroke="#99c2a2" points="358,-0.5 358,-58"/>
<text text-anchor="middle" x="384.75" y="-40.7" font-family="Times,serif" font-size="14.00" fill="#000000">Right</text>
<text text-anchor="middle" x="384.75" y="-24.2" font-family="Times,serif" font-size="14.00" fill="#000000">NONE</text>
<text text-anchor="middle" x="384.75" y="-7.7" font-family="Times,serif" font-size="14.00" fill="#000000">0x0</text>
</g>
<!-- node0x103d07c50&#45;&gt;node0x103d07c90 -->
<g id="edge10" class="edge">
<title>node0x103d07c50:right&#45;&gt;node0x103d07c90</title>
<path fill="none" stroke="#48e818" stroke-width="2" d="M294.75,-135.5C294.75,-127.32 295.58,-118.8 296.89,-110.44"/>
<polygon fill="#48e818" stroke="#48e818" stroke-width="2" points="300.05,-112.65 298.4,-102.18 293.16,-111.39 300.05,-112.65"/>
</g>
</g>
</svg>
