<?xml version="1.0" encoding="UTF-8" standalone="no"?>
<!DOCTYPE svg PUBLIC "-//W3C//DTD SVG 1.1//EN"
 "http://www.w3.org/Graphics/SVG/1.1/DTD/svg11.dtd">
<!-- Generated by graphviz version 12.2.0 (20241103.1931)
 -->
<!-- Pages: 1 -->
<svg width="1209pt" height="650pt"
 viewBox="0.00 0.00 1208.88 649.50" xmlns="http://www.w3.org/2000/svg" xmlns:xlink="http://www.w3.org/1999/xlink">
<g id="graph0" class="graph" transform="scale(1 1) rotate(0) translate(4 645.5)">
<polygon fill="#dcdcdc" stroke="none" points="-4,4 -4,-645.5 1204.88,-645.5 1204.88,4 -4,4"/>
<!-- node0x107100850 -->
<g id="node1" class="node">
<title>node0x107100850</title>
<path fill="#fbee21" stroke="#d3c70d" d="M585.25,-542.5C585.25,-542.5 795.25,-542.5 795.25,-542.5 801.25,-542.5 807.25,-548.5 807.25,-554.5 807.25,-554.5 807.25,-629 807.25,-629 807.25,-635 801.25,-641 795.25,-641 795.25,-641 585.25,-641 585.25,-641 579.25,-641 573.25,-635 573.25,-629 573.25,-629 573.25,-554.5 573.25,-554.5 573.25,-548.5 579.25,-542.5 585.25,-542.5"/>
<text text-anchor="middle" x="690.25" y="-623.7" font-family="Times,serif" font-size="14.00" fill="#000000">*</text>
<text text-anchor="middle" x="690.25" y="-607.2" font-family="Times,serif" font-size="14.00" fill="#000000">0x107100850</text>
<polyline fill="none" stroke="#d3c70d" points="573.25,-600 807.25,-600"/>
<text text-anchor="middle" x="618.38" y="-582.7" font-family="Times,serif" font-size="14.00" fill="#000000">Left</text>
<text text-anchor="middle" x="618.38" y="-566.2" font-family="Times,serif" font-size="14.00" fill="#000000">/</text>
<text text-anchor="middle" x="618.38" y="-549.7" font-family="Times,serif" font-size="14.00" fill="#000000">0x107100990</text>
<polyline fill="none" stroke="#d3c70d" points="663.5,-542.5 663.5,-600"/>
<text text-anchor="middle" x="690.25" y="-582.7" font-family="Times,serif" font-size="14.00" fill="#000000">Parent</text>
<text text-anchor="middle" x="690.25" y="-566.2" font-family="Times,serif" font-size="14.00" fill="#000000">NONE</text>
<text text-anchor="middle" x="690.25" y="-549.7" font-family="Times,serif" font-size="14.00" fill="#000000">0x0</text>
<polyline fill="none" stroke="#d3c70d" points="717,-542.5 717,-600"/>
<text text-anchor="middle" x="762.12" y="-582.7" font-family="Times,serif" font-size="14.00" fill="#000000">Right</text>
<text text-anchor="middle" x="762.12" y="-566.2" font-family="Times,serif" font-size="14.00" fill="#000000">sqrt</text>
<text text-anchor="middle" x="762.12" y="-549.7" font-family="Times,serif" font-size="14.00" fill="#000000">0x107100890</text>
</g>
<!-- node0x107100990 -->
<g id="node2" class="node">
<title>node0x107100990</title>
<path fill="#fbee21" stroke="#d3c70d" d="M352.25,-407C352.25,-407 598.25,-407 598.25,-407 604.25,-407 610.25,-413 610.25,-419 610.25,-419 610.25,-493.5 610.25,-493.5 610.25,-499.5 604.25,-505.5 598.25,-505.5 598.25,-505.5 352.25,-505.5 352.25,-505.5 346.25,-505.5 340.25,-499.5 340.25,-493.5 340.25,-493.5 340.25,-419 340.25,-419 340.25,-413 346.25,-407 352.25,-407"/>
<text text-anchor="middle" x="475.25" y="-488.2" font-family="Times,serif" font-size="14.00" fill="#000000">/</text>
<text text-anchor="middle" x="475.25" y="-471.7" font-family="Times,serif" font-size="14.00" fill="#000000">0x107100990</text>
<polyline fill="none" stroke="#d3c70d" points="340.25,-464.5 610.25,-464.5"/>
<text text-anchor="middle" x="385" y="-447.2" font-family="Times,serif" font-size="14.00" fill="#000000">Left</text>
<text text-anchor="middle" x="385" y="-430.7" font-family="Times,serif" font-size="14.00" fill="#000000">sin</text>
<text text-anchor="middle" x="385" y="-414.2" font-family="Times,serif" font-size="14.00" fill="#000000">0x107100a90</text>
<polyline fill="none" stroke="#d3c70d" points="429.75,-407 429.75,-464.5"/>
<text text-anchor="middle" x="474.88" y="-447.2" font-family="Times,serif" font-size="14.00" fill="#000000">Parent</text>
<text text-anchor="middle" x="474.88" y="-430.7" font-family="Times,serif" font-size="14.00" fill="#000000">*</text>
<text text-anchor="middle" x="474.88" y="-414.2" font-family="Times,serif" font-size="14.00" fill="#000000">0x107100850</text>
<polyline fill="none" stroke="#d3c70d" points="520,-407 520,-464.5"/>
<text text-anchor="middle" x="565.12" y="-447.2" font-family="Times,serif" font-size="14.00" fill="#000000">Right</text>
<text text-anchor="middle" x="565.12" y="-430.7" font-family="Times,serif" font-size="14.00" fill="#000000">^</text>
<text text-anchor="middle" x="565.12" y="-414.2" font-family="Times,serif" font-size="14.00" fill="#000000">0x1071009d0</text>
</g>
<!-- node0x107100850&#45;&gt;node0x107100990 -->
<g id="edge1" class="edge">
<title>node0x107100850:left&#45;&gt;node0x107100990</title>
<path fill="none" stroke="#187ae8" stroke-width="2" d="M572.25,-571.25C539.59,-571.25 515.62,-543.77 499.68,-515.8"/>
<polygon fill="#187ae8" stroke="#187ae8" stroke-width="2" points="503.62,-515.75 495.8,-508.59 497.46,-519.06 503.62,-515.75"/>
</g>
<!-- node0x107100890 -->
<g id="node10" class="node">
<title>node0x107100890</title>
<path fill="#fbee21" stroke="#d3c70d" d="M800.25,-407C800.25,-407 1010.25,-407 1010.25,-407 1016.25,-407 1022.25,-413 1022.25,-419 1022.25,-419 1022.25,-493.5 1022.25,-493.5 1022.25,-499.5 1016.25,-505.5 1010.25,-505.5 1010.25,-505.5 800.25,-505.5 800.25,-505.5 794.25,-505.5 788.25,-499.5 788.25,-493.5 788.25,-493.5 788.25,-419 788.25,-419 788.25,-413 794.25,-407 800.25,-407"/>
<text text-anchor="middle" x="905.25" y="-488.2" font-family="Times,serif" font-size="14.00" fill="#000000">sqrt</text>
<text text-anchor="middle" x="905.25" y="-471.7" font-family="Times,serif" font-size="14.00" fill="#000000">0x107100890</text>
<polyline fill="none" stroke="#d3c70d" points="788.25,-464.5 1022.25,-464.5"/>
<text text-anchor="middle" x="833.38" y="-447.2" font-family="Times,serif" font-size="14.00" fill="#000000">Left</text>
<text text-anchor="middle" x="833.38" y="-430.7" font-family="Times,serif" font-size="14.00" fill="#000000">&#45;</text>
<text text-anchor="middle" x="833.38" y="-414.2" font-family="Times,serif" font-size="14.00" fill="#000000">0x1071008d0</text>
<polyline fill="none" stroke="#d3c70d" points="878.5,-407 878.5,-464.5"/>
<text text-anchor="middle" x="923.62" y="-447.2" font-family="Times,serif" font-size="14.00" fill="#000000">Parent</text>
<text text-anchor="middle" x="923.62" y="-430.7" font-family="Times,serif" font-size="14.00" fill="#000000">*</text>
<text text-anchor="middle" x="923.62" y="-414.2" font-family="Times,serif" font-size="14.00" fill="#000000">0x107100850</text>
<polyline fill="none" stroke="#d3c70d" points="968.75,-407 968.75,-464.5"/>
<text text-anchor="middle" x="995.5" y="-447.2" font-family="Times,serif" font-size="14.00" fill="#000000">Right</text>
<text text-anchor="middle" x="995.5" y="-430.7" font-family="Times,serif" font-size="14.00" fill="#000000">NONE</text>
<text text-anchor="middle" x="995.5" y="-414.2" font-family="Times,serif" font-size="14.00" fill="#000000">0x0</text>
</g>
<!-- node0x107100850&#45;&gt;node0x107100890 -->
<g id="edge12" class="edge">
<title>node0x107100850:right&#45;&gt;node0x107100890</title>
<path fill="none" stroke="#48e818" stroke-width="2" d="M808.25,-571.25C840.91,-571.25 864.88,-543.77 880.82,-515.8"/>
<polygon fill="#48e818" stroke="#48e818" stroke-width="2" points="883.04,-519.06 884.7,-508.59 876.88,-515.75 883.04,-519.06"/>
</g>
<!-- node0x107100a90 -->
<g id="node3" class="node">
<title>node0x107100a90</title>
<path fill="#fbee21" stroke="#d3c70d" d="M190.62,-271.5C190.62,-271.5 399.88,-271.5 399.88,-271.5 405.88,-271.5 411.88,-277.5 411.88,-283.5 411.88,-283.5 411.88,-358 411.88,-358 411.88,-364 405.88,-370 399.88,-370 399.88,-370 190.62,-370 190.62,-370 184.62,-370 178.62,-364 178.62,-358 178.62,-358 178.62,-283.5 178.62,-283.5 178.62,-277.5 184.62,-271.5 190.62,-271.5"/>
<text text-anchor="middle" x="295.25" y="-352.7" font-family="Times,serif" font-size="14.00" fill="#000000">sin</text>
<text text-anchor="middle" x="295.25" y="-336.2" font-family="Times,serif" font-size="14.00" fill="#000000">0x107100a90</text>
<polyline fill="none" stroke="#d3c70d" points="178.62,-329 411.88,-329"/>
<text text-anchor="middle" x="223.38" y="-311.7" font-family="Times,serif" font-size="14.00" fill="#000000">Left</text>
<text text-anchor="middle" x="223.38" y="-295.2" font-family="Times,serif" font-size="14.00" fill="#000000">+</text>
<text text-anchor="middle" x="223.38" y="-278.7" font-family="Times,serif" font-size="14.00" fill="#000000">0x107100ad0</text>
<polyline fill="none" stroke="#d3c70d" points="268.12,-271.5 268.12,-329"/>
<text text-anchor="middle" x="313.25" y="-311.7" font-family="Times,serif" font-size="14.00" fill="#000000">Parent</text>
<text text-anchor="middle" x="313.25" y="-295.2" font-family="Times,serif" font-size="14.00" fill="#000000">/</text>
<text text-anchor="middle" x="313.25" y="-278.7" font-family="Times,serif" font-size="14.00" fill="#000000">0x107100990</text>
<polyline fill="none" stroke="#d3c70d" points="358.38,-271.5 358.38,-329"/>
<text text-anchor="middle" x="385.12" y="-311.7" font-family="Times,serif" font-size="14.00" fill="#000000">Right</text>
<text text-anchor="middle" x="385.12" y="-295.2" font-family="Times,serif" font-size="14.00" fill="#000000">NONE</text>
<text text-anchor="middle" x="385.12" y="-278.7" font-family="Times,serif" font-size="14.00" fill="#000000">0x0</text>
</g>
<!-- node0x107100990&#45;&gt;node0x107100a90 -->
<g id="edge2" class="edge">
<title>node0x107100990:left&#45;&gt;node0x107100a90</title>
<path fill="none" stroke="#187ae8" stroke-width="2" d="M339.25,-435.75C313.05,-435.75 301.89,-409.22 297.36,-381.76"/>
<polygon fill="#187ae8" stroke="#187ae8" stroke-width="2" points="301.04,-382.87 296.24,-373.43 294.1,-383.8 301.04,-382.87"/>
</g>
<!-- node0x1071009d0 -->
<g id="node7" class="node">
<title>node0x1071009d0</title>
<path fill="#fbee21" stroke="#d3c70d" d="M441.62,-271.5C441.62,-271.5 686.88,-271.5 686.88,-271.5 692.88,-271.5 698.88,-277.5 698.88,-283.5 698.88,-283.5 698.88,-358 698.88,-358 698.88,-364 692.88,-370 686.88,-370 686.88,-370 441.62,-370 441.62,-370 435.62,-370 429.62,-364 429.62,-358 429.62,-358 429.62,-283.5 429.62,-283.5 429.62,-277.5 435.62,-271.5 441.62,-271.5"/>
<text text-anchor="middle" x="564.25" y="-352.7" font-family="Times,serif" font-size="14.00" fill="#000000">^</text>
<text text-anchor="middle" x="564.25" y="-336.2" font-family="Times,serif" font-size="14.00" fill="#000000">0x1071009d0</text>
<polyline fill="none" stroke="#d3c70d" points="429.62,-329 698.88,-329"/>
<text text-anchor="middle" x="474.38" y="-311.7" font-family="Times,serif" font-size="14.00" fill="#000000">Left</text>
<text text-anchor="middle" x="474.38" y="-295.2" font-family="Times,serif" font-size="14.00" fill="#000000">12</text>
<text text-anchor="middle" x="474.38" y="-278.7" font-family="Times,serif" font-size="14.00" fill="#000000">0x107100a50</text>
<polyline fill="none" stroke="#d3c70d" points="519.12,-271.5 519.12,-329"/>
<text text-anchor="middle" x="564.25" y="-311.7" font-family="Times,serif" font-size="14.00" fill="#000000">Parent</text>
<text text-anchor="middle" x="564.25" y="-295.2" font-family="Times,serif" font-size="14.00" fill="#000000">/</text>
<text text-anchor="middle" x="564.25" y="-278.7" font-family="Times,serif" font-size="14.00" fill="#000000">0x107100990</text>
<polyline fill="none" stroke="#d3c70d" points="609.38,-271.5 609.38,-329"/>
<text text-anchor="middle" x="654.12" y="-311.7" font-family="Times,serif" font-size="14.00" fill="#000000">Right</text>
<text text-anchor="middle" x="654.12" y="-295.2" font-family="Times,serif" font-size="14.00" fill="#000000">x</text>
<text text-anchor="middle" x="654.12" y="-278.7" font-family="Times,serif" font-size="14.00" fill="#000000">0x107100a10</text>
</g>
<!-- node0x107100990&#45;&gt;node0x1071009d0 -->
<g id="edge8" class="edge">
<title>node0x107100990:right&#45;&gt;node0x1071009d0</title>
<path fill="none" stroke="#48e818" stroke-width="2" d="M565.12,-406.5C565.12,-398.41 565.08,-389.88 565.02,-381.48"/>
<polygon fill="#48e818" stroke="#48e818" stroke-width="2" points="568.54,-383.15 564.95,-373.18 561.54,-383.21 568.54,-383.15"/>
</g>
<!-- node0x107100ad0 -->
<g id="node4" class="node">
<title>node0x107100ad0</title>
<path fill="#fbee21" stroke="#d3c70d" d="M82.25,-136C82.25,-136 328.25,-136 328.25,-136 334.25,-136 340.25,-142 340.25,-148 340.25,-148 340.25,-222.5 340.25,-222.5 340.25,-228.5 334.25,-234.5 328.25,-234.5 328.25,-234.5 82.25,-234.5 82.25,-234.5 76.25,-234.5 70.25,-228.5 70.25,-222.5 70.25,-222.5 70.25,-148 70.25,-148 70.25,-142 76.25,-136 82.25,-136"/>
<text text-anchor="middle" x="205.25" y="-217.2" font-family="Times,serif" font-size="14.00" fill="#000000">+</text>
<text text-anchor="middle" x="205.25" y="-200.7" font-family="Times,serif" font-size="14.00" fill="#000000">0x107100ad0</text>
<polyline fill="none" stroke="#d3c70d" points="70.25,-193.5 340.25,-193.5"/>
<text text-anchor="middle" x="115.38" y="-176.2" font-family="Times,serif" font-size="14.00" fill="#000000">Left</text>
<text text-anchor="middle" x="115.38" y="-159.7" font-family="Times,serif" font-size="14.00" fill="#000000">1</text>
<text text-anchor="middle" x="115.38" y="-143.2" font-family="Times,serif" font-size="14.00" fill="#000000">0x107100b50</text>
<polyline fill="none" stroke="#d3c70d" points="160.5,-136 160.5,-193.5"/>
<text text-anchor="middle" x="205.25" y="-176.2" font-family="Times,serif" font-size="14.00" fill="#000000">Parent</text>
<text text-anchor="middle" x="205.25" y="-159.7" font-family="Times,serif" font-size="14.00" fill="#000000">sin</text>
<text text-anchor="middle" x="205.25" y="-143.2" font-family="Times,serif" font-size="14.00" fill="#000000">0x107100a90</text>
<polyline fill="none" stroke="#d3c70d" points="250,-136 250,-193.5"/>
<text text-anchor="middle" x="295.12" y="-176.2" font-family="Times,serif" font-size="14.00" fill="#000000">Right</text>
<text text-anchor="middle" x="295.12" y="-159.7" font-family="Times,serif" font-size="14.00" fill="#000000">x</text>
<text text-anchor="middle" x="295.12" y="-143.2" font-family="Times,serif" font-size="14.00" fill="#000000">0x107100b10</text>
</g>
<!-- node0x107100a90&#45;&gt;node0x107100ad0 -->
<g id="edge3" class="edge">
<title>node0x107100a90:left&#45;&gt;node0x107100ad0</title>
<path fill="none" stroke="#187ae8" stroke-width="2" d="M223.38,-271C223.38,-262.83 222.56,-254.31 221.27,-245.96"/>
<polygon fill="#187ae8" stroke="#187ae8" stroke-width="2" points="225,-246.93 219.8,-237.7 218.11,-248.16 225,-246.93"/>
</g>
<!-- node0x107100b50 -->
<g id="node5" class="node">
<title>node0x107100b50</title>
<path fill="#bdef9e" stroke="#99c2a2" d="M12,-0.5C12,-0.5 184.5,-0.5 184.5,-0.5 190.5,-0.5 196.5,-6.5 196.5,-12.5 196.5,-12.5 196.5,-87 196.5,-87 196.5,-93 190.5,-99 184.5,-99 184.5,-99 12,-99 12,-99 6,-99 0,-93 0,-87 0,-87 0,-12.5 0,-12.5 0,-6.5 6,-0.5 12,-0.5"/>
<text text-anchor="middle" x="98.25" y="-81.7" font-family="Times,serif" font-size="14.00" fill="#000000">1</text>
<text text-anchor="middle" x="98.25" y="-65.2" font-family="Times,serif" font-size="14.00" fill="#000000">0x107100b50</text>
<polyline fill="none" stroke="#99c2a2" points="0,-58 196.5,-58"/>
<text text-anchor="middle" x="26.75" y="-40.7" font-family="Times,serif" font-size="14.00" fill="#000000">Left</text>
<text text-anchor="middle" x="26.75" y="-24.2" font-family="Times,serif" font-size="14.00" fill="#000000">NONE</text>
<text text-anchor="middle" x="26.75" y="-7.7" font-family="Times,serif" font-size="14.00" fill="#000000">0x0</text>
<polyline fill="none" stroke="#99c2a2" points="53.5,-0.5 53.5,-58"/>
<text text-anchor="middle" x="98.25" y="-40.7" font-family="Times,serif" font-size="14.00" fill="#000000">Parent</text>
<text text-anchor="middle" x="98.25" y="-24.2" font-family="Times,serif" font-size="14.00" fill="#000000">+</text>
<text text-anchor="middle" x="98.25" y="-7.7" font-family="Times,serif" font-size="14.00" fill="#000000">0x107100ad0</text>
<polyline fill="none" stroke="#99c2a2" points="143,-0.5 143,-58"/>
<text text-anchor="middle" x="169.75" y="-40.7" font-family="Times,serif" font-size="14.00" fill="#000000">Right</text>
<text text-anchor="middle" x="169.75" y="-24.2" font-family="Times,serif" font-size="14.00" fill="#000000">NONE</text>
<text text-anchor="middle" x="169.75" y="-7.7" font-family="Times,serif" font-size="14.00" fill="#000000">0x0</text>
</g>
<!-- node0x107100ad0&#45;&gt;node0x107100b50 -->
<g id="edge4" class="edge">
<title>node0x107100ad0:left&#45;&gt;node0x107100b50</title>
<path fill="none" stroke="#187ae8" stroke-width="2" d="M115.38,-135.5C115.38,-127.35 114.6,-118.84 113.39,-110.49"/>
<polygon fill="#187ae8" stroke="#187ae8" stroke-width="2" points="117.11,-111.52 111.99,-102.25 110.21,-112.69 117.11,-111.52"/>
</g>
<!-- node0x107100b10 -->
<g id="node6" class="node">
<title>node0x107100b10</title>
<path fill="#d5cfe1" stroke="#8797b2" d="M227,-0.5C227,-0.5 399.5,-0.5 399.5,-0.5 405.5,-0.5 411.5,-6.5 411.5,-12.5 411.5,-12.5 411.5,-87 411.5,-87 411.5,-93 405.5,-99 399.5,-99 399.5,-99 227,-99 227,-99 221,-99 215,-93 215,-87 215,-87 215,-12.5 215,-12.5 215,-6.5 221,-0.5 227,-0.5"/>
<text text-anchor="middle" x="313.25" y="-81.7" font-family="Times,serif" font-size="14.00" fill="#000000">x</text>
<text text-anchor="middle" x="313.25" y="-65.2" font-family="Times,serif" font-size="14.00" fill="#000000">0x107100b10</text>
<polyline fill="none" stroke="#8797b2" points="215,-58 411.5,-58"/>
<text text-anchor="middle" x="241.75" y="-40.7" font-family="Times,serif" font-size="14.00" fill="#000000">Left</text>
<text text-anchor="middle" x="241.75" y="-24.2" font-family="Times,serif" font-size="14.00" fill="#000000">NONE</text>
<text text-anchor="middle" x="241.75" y="-7.7" font-family="Times,serif" font-size="14.00" fill="#000000">0x0</text>
<polyline fill="none" stroke="#8797b2" points="268.5,-0.5 268.5,-58"/>
<text text-anchor="middle" x="313.25" y="-40.7" font-family="Times,serif" font-size="14.00" fill="#000000">Parent</text>
<text text-anchor="middle" x="313.25" y="-24.2" font-family="Times,serif" font-size="14.00" fill="#000000">+</text>
<text text-anchor="middle" x="313.25" y="-7.7" font-family="Times,serif" font-size="14.00" fill="#000000">0x107100ad0</text>
<polyline fill="none" stroke="#8797b2" points="358,-0.5 358,-58"/>
<text text-anchor="middle" x="384.75" y="-40.7" font-family="Times,serif" font-size="14.00" fill="#000000">Right</text>
<text text-anchor="middle" x="384.75" y="-24.2" font-family="Times,serif" font-size="14.00" fill="#000000">NONE</text>
<text text-anchor="middle" x="384.75" y="-7.7" font-family="Times,serif" font-size="14.00" fill="#000000">0x0</text>
</g>
<!-- node0x107100ad0&#45;&gt;node0x107100b10 -->
<g id="edge5" class="edge">
<title>node0x107100ad0:right&#45;&gt;node0x107100b10</title>
<path fill="none" stroke="#48e818" stroke-width="2" d="M295.12,-135.5C295.12,-127.33 295.94,-118.81 297.23,-110.46"/>
<polygon fill="#48e818" stroke="#48e818" stroke-width="2" points="300.39,-112.66 298.7,-102.2 293.5,-111.43 300.39,-112.66"/>
</g>
<!-- node0x107100a50 -->
<g id="node8" class="node">
<title>node0x107100a50</title>
<path fill="#bdef9e" stroke="#99c2a2" d="M370.62,-136C370.62,-136 543.88,-136 543.88,-136 549.88,-136 555.88,-142 555.88,-148 555.88,-148 555.88,-222.5 555.88,-222.5 555.88,-228.5 549.88,-234.5 543.88,-234.5 543.88,-234.5 370.62,-234.5 370.62,-234.5 364.62,-234.5 358.62,-228.5 358.62,-222.5 358.62,-222.5 358.62,-148 358.62,-148 358.62,-142 364.62,-136 370.62,-136"/>
<text text-anchor="middle" x="457.25" y="-217.2" font-family="Times,serif" font-size="14.00" fill="#000000">12</text>
<text text-anchor="middle" x="457.25" y="-200.7" font-family="Times,serif" font-size="14.00" fill="#000000">0x107100a50</text>
<polyline fill="none" stroke="#99c2a2" points="358.62,-193.5 555.88,-193.5"/>
<text text-anchor="middle" x="385.38" y="-176.2" font-family="Times,serif" font-size="14.00" fill="#000000">Left</text>
<text text-anchor="middle" x="385.38" y="-159.7" font-family="Times,serif" font-size="14.00" fill="#000000">NONE</text>
<text text-anchor="middle" x="385.38" y="-143.2" font-family="Times,serif" font-size="14.00" fill="#000000">0x0</text>
<polyline fill="none" stroke="#99c2a2" points="412.12,-136 412.12,-193.5"/>
<text text-anchor="middle" x="457.25" y="-176.2" font-family="Times,serif" font-size="14.00" fill="#000000">Parent</text>
<text text-anchor="middle" x="457.25" y="-159.7" font-family="Times,serif" font-size="14.00" fill="#000000">^</text>
<text text-anchor="middle" x="457.25" y="-143.2" font-family="Times,serif" font-size="14.00" fill="#000000">0x1071009d0</text>
<polyline fill="none" stroke="#99c2a2" points="502.38,-136 502.38,-193.5"/>
<text text-anchor="middle" x="529.12" y="-176.2" font-family="Times,serif" font-size="14.00" fill="#000000">Right</text>
<text text-anchor="middle" x="529.12" y="-159.7" font-family="Times,serif" font-size="14.00" fill="#000000">NONE</text>
<text text-anchor="middle" x="529.12" y="-143.2" font-family="Times,serif" font-size="14.00" fill="#000000">0x0</text>
</g>
<!-- node0x1071009d0&#45;&gt;node0x107100a50 -->
<g id="edge6" class="edge">
<title>node0x1071009d0:left&#45;&gt;node0x107100a50</title>
<path fill="none" stroke="#187ae8" stroke-width="2" d="M474.38,-271C474.38,-262.85 473.6,-254.34 472.39,-245.99"/>
<polygon fill="#187ae8" stroke="#187ae8" stroke-width="2" points="476.11,-247.02 470.99,-237.75 469.21,-248.19 476.11,-247.02"/>
</g>
<!-- node0x107100a10 -->
<g id="node9" class="node">
<title>node0x107100a10</title>
<path fill="#d5cfe1" stroke="#8797b2" d="M585.62,-136C585.62,-136 758.88,-136 758.88,-136 764.88,-136 770.88,-142 770.88,-148 770.88,-148 770.88,-222.5 770.88,-222.5 770.88,-228.5 764.88,-234.5 758.88,-234.5 758.88,-234.5 585.62,-234.5 585.62,-234.5 579.62,-234.5 573.62,-228.5 573.62,-222.5 573.62,-222.5 573.62,-148 573.62,-148 573.62,-142 579.62,-136 585.62,-136"/>
<text text-anchor="middle" x="672.25" y="-217.2" font-family="Times,serif" font-size="14.00" fill="#000000">x</text>
<text text-anchor="middle" x="672.25" y="-200.7" font-family="Times,serif" font-size="14.00" fill="#000000">0x107100a10</text>
<polyline fill="none" stroke="#8797b2" points="573.62,-193.5 770.88,-193.5"/>
<text text-anchor="middle" x="600.38" y="-176.2" font-family="Times,serif" font-size="14.00" fill="#000000">Left</text>
<text text-anchor="middle" x="600.38" y="-159.7" font-family="Times,serif" font-size="14.00" fill="#000000">NONE</text>
<text text-anchor="middle" x="600.38" y="-143.2" font-family="Times,serif" font-size="14.00" fill="#000000">0x0</text>
<polyline fill="none" stroke="#8797b2" points="627.12,-136 627.12,-193.5"/>
<text text-anchor="middle" x="672.25" y="-176.2" font-family="Times,serif" font-size="14.00" fill="#000000">Parent</text>
<text text-anchor="middle" x="672.25" y="-159.7" font-family="Times,serif" font-size="14.00" fill="#000000">^</text>
<text text-anchor="middle" x="672.25" y="-143.2" font-family="Times,serif" font-size="14.00" fill="#000000">0x1071009d0</text>
<polyline fill="none" stroke="#8797b2" points="717.38,-136 717.38,-193.5"/>
<text text-anchor="middle" x="744.12" y="-176.2" font-family="Times,serif" font-size="14.00" fill="#000000">Right</text>
<text text-anchor="middle" x="744.12" y="-159.7" font-family="Times,serif" font-size="14.00" fill="#000000">NONE</text>
<text text-anchor="middle" x="744.12" y="-143.2" font-family="Times,serif" font-size="14.00" fill="#000000">0x0</text>
</g>
<!-- node0x1071009d0&#45;&gt;node0x107100a10 -->
<g id="edge7" class="edge">
<title>node0x1071009d0:right&#45;&gt;node0x107100a10</title>
<path fill="none" stroke="#48e818" stroke-width="2" d="M654.12,-271C654.12,-262.83 654.94,-254.31 656.23,-245.96"/>
<polygon fill="#48e818" stroke="#48e818" stroke-width="2" points="659.39,-248.16 657.7,-237.7 652.5,-246.93 659.39,-248.16"/>
</g>
<!-- node0x1071008d0 -->
<g id="node11" class="node">
<title>node0x1071008d0</title>
<path fill="#fbee21" stroke="#d3c70d" d="M853.88,-271.5C853.88,-271.5 1100.62,-271.5 1100.62,-271.5 1106.62,-271.5 1112.62,-277.5 1112.62,-283.5 1112.62,-283.5 1112.62,-358 1112.62,-358 1112.62,-364 1106.62,-370 1100.62,-370 1100.62,-370 853.88,-370 853.88,-370 847.88,-370 841.88,-364 841.88,-358 841.88,-358 841.88,-283.5 841.88,-283.5 841.88,-277.5 847.88,-271.5 853.88,-271.5"/>
<text text-anchor="middle" x="977.25" y="-352.7" font-family="Times,serif" font-size="14.00" fill="#000000">&#45;</text>
<text text-anchor="middle" x="977.25" y="-336.2" font-family="Times,serif" font-size="14.00" fill="#000000">0x1071008d0</text>
<polyline fill="none" stroke="#d3c70d" points="841.88,-329 1112.62,-329"/>
<text text-anchor="middle" x="887" y="-311.7" font-family="Times,serif" font-size="14.00" fill="#000000">Left</text>
<text text-anchor="middle" x="887" y="-295.2" font-family="Times,serif" font-size="14.00" fill="#000000">y</text>
<text text-anchor="middle" x="887" y="-278.7" font-family="Times,serif" font-size="14.00" fill="#000000">0x107100950</text>
<polyline fill="none" stroke="#d3c70d" points="932.12,-271.5 932.12,-329"/>
<text text-anchor="middle" x="977.25" y="-311.7" font-family="Times,serif" font-size="14.00" fill="#000000">Parent</text>
<text text-anchor="middle" x="977.25" y="-295.2" font-family="Times,serif" font-size="14.00" fill="#000000">sqrt</text>
<text text-anchor="middle" x="977.25" y="-278.7" font-family="Times,serif" font-size="14.00" fill="#000000">0x107100890</text>
<polyline fill="none" stroke="#d3c70d" points="1022.38,-271.5 1022.38,-329"/>
<text text-anchor="middle" x="1067.5" y="-311.7" font-family="Times,serif" font-size="14.00" fill="#000000">Right</text>
<text text-anchor="middle" x="1067.5" y="-295.2" font-family="Times,serif" font-size="14.00" fill="#000000">x</text>
<text text-anchor="middle" x="1067.5" y="-278.7" font-family="Times,serif" font-size="14.00" fill="#000000">0x107100910</text>
</g>
<!-- node0x107100890&#45;&gt;node0x1071008d0 -->
<g id="edge9" class="edge">
<title>node0x107100890:left&#45;&gt;node0x1071008d0</title>
<path fill="none" stroke="#187ae8" stroke-width="2" d="M833.38,-406.5C833.38,-396.3 836.09,-387.3 840.78,-379.37"/>
<polygon fill="#187ae8" stroke="#187ae8" stroke-width="2" points="842.61,-382.81 845.65,-372.66 836.95,-378.69 842.61,-382.81"/>
</g>
<!-- node0x107100950 -->
<g id="node12" class="node">
<title>node0x107100950</title>
<path fill="#d5cfe1" stroke="#8797b2" d="M800.62,-136C800.62,-136 973.88,-136 973.88,-136 979.88,-136 985.88,-142 985.88,-148 985.88,-148 985.88,-222.5 985.88,-222.5 985.88,-228.5 979.88,-234.5 973.88,-234.5 973.88,-234.5 800.62,-234.5 800.62,-234.5 794.62,-234.5 788.62,-228.5 788.62,-222.5 788.62,-222.5 788.62,-148 788.62,-148 788.62,-142 794.62,-136 800.62,-136"/>
<text text-anchor="middle" x="887.25" y="-217.2" font-family="Times,serif" font-size="14.00" fill="#000000">y</text>
<text text-anchor="middle" x="887.25" y="-200.7" font-family="Times,serif" font-size="14.00" fill="#000000">0x107100950</text>
<polyline fill="none" stroke="#8797b2" points="788.62,-193.5 985.88,-193.5"/>
<text text-anchor="middle" x="815.38" y="-176.2" font-family="Times,serif" font-size="14.00" fill="#000000">Left</text>
<text text-anchor="middle" x="815.38" y="-159.7" font-family="Times,serif" font-size="14.00" fill="#000000">NONE</text>
<text text-anchor="middle" x="815.38" y="-143.2" font-family="Times,serif" font-size="14.00" fill="#000000">0x0</text>
<polyline fill="none" stroke="#8797b2" points="842.12,-136 842.12,-193.5"/>
<text text-anchor="middle" x="887.25" y="-176.2" font-family="Times,serif" font-size="14.00" fill="#000000">Parent</text>
<text text-anchor="middle" x="887.25" y="-159.7" font-family="Times,serif" font-size="14.00" fill="#000000">&#45;</text>
<text text-anchor="middle" x="887.25" y="-143.2" font-family="Times,serif" font-size="14.00" fill="#000000">0x1071008d0</text>
<polyline fill="none" stroke="#8797b2" points="932.38,-136 932.38,-193.5"/>
<text text-anchor="middle" x="959.12" y="-176.2" font-family="Times,serif" font-size="14.00" fill="#000000">Right</text>
<text text-anchor="middle" x="959.12" y="-159.7" font-family="Times,serif" font-size="14.00" fill="#000000">NONE</text>
<text text-anchor="middle" x="959.12" y="-143.2" font-family="Times,serif" font-size="14.00" fill="#000000">0x0</text>
</g>
<!-- node0x1071008d0&#45;&gt;node0x107100950 -->
<g id="edge10" class="edge">
<title>node0x1071008d0:left&#45;&gt;node0x107100950</title>
<path fill="none" stroke="#187ae8" stroke-width="2" d="M887,-271C887,-262.91 887.01,-254.38 887.03,-245.98"/>
<polygon fill="#187ae8" stroke="#187ae8" stroke-width="2" points="890.53,-247.69 887.05,-237.68 883.53,-247.67 890.53,-247.69"/>
</g>
<!-- node0x107100910 -->
<g id="node13" class="node">
<title>node0x107100910</title>
<path fill="#d5cfe1" stroke="#8797b2" d="M1015.62,-136C1015.62,-136 1188.88,-136 1188.88,-136 1194.88,-136 1200.88,-142 1200.88,-148 1200.88,-148 1200.88,-222.5 1200.88,-222.5 1200.88,-228.5 1194.88,-234.5 1188.88,-234.5 1188.88,-234.5 1015.62,-234.5 1015.62,-234.5 1009.62,-234.5 1003.62,-228.5 1003.62,-222.5 1003.62,-222.5 1003.62,-148 1003.62,-148 1003.62,-142 1009.62,-136 1015.62,-136"/>
<text text-anchor="middle" x="1102.25" y="-217.2" font-family="Times,serif" font-size="14.00" fill="#000000">x</text>
<text text-anchor="middle" x="1102.25" y="-200.7" font-family="Times,serif" font-size="14.00" fill="#000000">0x107100910</text>
<polyline fill="none" stroke="#8797b2" points="1003.62,-193.5 1200.88,-193.5"/>
<text text-anchor="middle" x="1030.38" y="-176.2" font-family="Times,serif" font-size="14.00" fill="#000000">Left</text>
<text text-anchor="middle" x="1030.38" y="-159.7" font-family="Times,serif" font-size="14.00" fill="#000000">NONE</text>
<text text-anchor="middle" x="1030.38" y="-143.2" font-family="Times,serif" font-size="14.00" fill="#000000">0x0</text>
<polyline fill="none" stroke="#8797b2" points="1057.12,-136 1057.12,-193.5"/>
<text text-anchor="middle" x="1102.25" y="-176.2" font-family="Times,serif" font-size="14.00" fill="#000000">Parent</text>
<text text-anchor="middle" x="1102.25" y="-159.7" font-family="Times,serif" font-size="14.00" fill="#000000">&#45;</text>
<text text-anchor="middle" x="1102.25" y="-143.2" font-family="Times,serif" font-size="14.00" fill="#000000">0x1071008d0</text>
<polyline fill="none" stroke="#8797b2" points="1147.38,-136 1147.38,-193.5"/>
<text text-anchor="middle" x="1174.12" y="-176.2" font-family="Times,serif" font-size="14.00" fill="#000000">Right</text>
<text text-anchor="middle" x="1174.12" y="-159.7" font-family="Times,serif" font-size="14.00" fill="#000000">NONE</text>
<text text-anchor="middle" x="1174.12" y="-143.2" font-family="Times,serif" font-size="14.00" fill="#000000">0x0</text>
</g>
<!-- node0x1071008d0&#45;&gt;node0x107100910 -->
<g id="edge11" class="edge">
<title>node0x1071008d0:right&#45;&gt;node0x107100910</title>
<path fill="none" stroke="#48e818" stroke-width="2" d="M1067.5,-271C1067.5,-262.49 1069.02,-253.83 1071.42,-245.45"/>
<polygon fill="#48e818" stroke="#48e818" stroke-width="2" points="1074.22,-248.12 1074.08,-237.52 1067.59,-245.89 1074.22,-248.12"/>
</g>
</g>
</svg>
