<?xml version="1.0" encoding="UTF-8" standalone="no"?>
<!DOCTYPE svg PUBLIC "-//W3C//DTD SVG 1.1//EN"
 "http://www.w3.org/Graphics/SVG/1.1/DTD/svg11.dtd">
<!-- Generated by graphviz version 12.2.0 (20241103.1931)
 -->
<!-- Pages: 1 -->
<svg width="420pt" height="379pt"
 viewBox="0.00 0.00 420.25 378.50" xmlns="http://www.w3.org/2000/svg" xmlns:xlink="http://www.w3.org/1999/xlink">
<g id="graph0" class="graph" transform="scale(1 1) rotate(0) translate(4 374.5)">
<polygon fill="#dcdcdc" stroke="none" points="-4,4 -4,-374.5 416.25,-374.5 416.25,4 -4,4"/>
<!-- node0x105600b90 -->
<g id="node1" class="node">
<title>node0x105600b90</title>
<path fill="#fbee21" stroke="#d3c70d" d="M172,-271.5C172,-271.5 345.25,-271.5 345.25,-271.5 351.25,-271.5 357.25,-277.5 357.25,-283.5 357.25,-283.5 357.25,-358 357.25,-358 357.25,-364 351.25,-370 345.25,-370 345.25,-370 172,-370 172,-370 166,-370 160,-364 160,-358 160,-358 160,-283.5 160,-283.5 160,-277.5 166,-271.5 172,-271.5"/>
<text text-anchor="middle" x="258.62" y="-352.7" font-family="Times,serif" font-size="14.00" fill="#000000">cos</text>
<text text-anchor="middle" x="258.62" y="-336.2" font-family="Times,serif" font-size="14.00" fill="#000000">0x105600b90</text>
<polyline fill="none" stroke="#d3c70d" points="160,-329 357.25,-329"/>
<text text-anchor="middle" x="205.12" y="-311.7" font-family="Times,serif" font-size="14.00" fill="#000000">Left</text>
<text text-anchor="middle" x="205.12" y="-295.2" font-family="Times,serif" font-size="14.00" fill="#000000">*</text>
<text text-anchor="middle" x="205.12" y="-278.7" font-family="Times,serif" font-size="14.00" fill="#000000">0x105600b50</text>
<polyline fill="none" stroke="#d3c70d" points="250.25,-271.5 250.25,-329"/>
<text text-anchor="middle" x="277" y="-311.7" font-family="Times,serif" font-size="14.00" fill="#000000">Parent</text>
<text text-anchor="middle" x="277" y="-295.2" font-family="Times,serif" font-size="14.00" fill="#000000">NONE</text>
<text text-anchor="middle" x="277" y="-278.7" font-family="Times,serif" font-size="14.00" fill="#000000">0x0</text>
<polyline fill="none" stroke="#d3c70d" points="303.75,-271.5 303.75,-329"/>
<text text-anchor="middle" x="330.5" y="-311.7" font-family="Times,serif" font-size="14.00" fill="#000000">Right</text>
<text text-anchor="middle" x="330.5" y="-295.2" font-family="Times,serif" font-size="14.00" fill="#000000">NONE</text>
<text text-anchor="middle" x="330.5" y="-278.7" font-family="Times,serif" font-size="14.00" fill="#000000">0x0</text>
</g>
<!-- node0x105600b50 -->
<g id="node2" class="node">
<title>node0x105600b50</title>
<path fill="#fbee21" stroke="#d3c70d" d="M82.62,-136C82.62,-136 328.62,-136 328.62,-136 334.62,-136 340.62,-142 340.62,-148 340.62,-148 340.62,-222.5 340.62,-222.5 340.62,-228.5 334.62,-234.5 328.62,-234.5 328.62,-234.5 82.62,-234.5 82.62,-234.5 76.63,-234.5 70.62,-228.5 70.62,-222.5 70.62,-222.5 70.62,-148 70.62,-148 70.62,-142 76.62,-136 82.62,-136"/>
<text text-anchor="middle" x="205.62" y="-217.2" font-family="Times,serif" font-size="14.00" fill="#000000">*</text>
<text text-anchor="middle" x="205.62" y="-200.7" font-family="Times,serif" font-size="14.00" fill="#000000">0x105600b50</text>
<polyline fill="none" stroke="#d3c70d" points="70.62,-193.5 340.62,-193.5"/>
<text text-anchor="middle" x="115.75" y="-176.2" font-family="Times,serif" font-size="14.00" fill="#000000">Left</text>
<text text-anchor="middle" x="115.75" y="-159.7" font-family="Times,serif" font-size="14.00" fill="#000000">2</text>
<text text-anchor="middle" x="115.75" y="-143.2" font-family="Times,serif" font-size="14.00" fill="#000000">0x105600b10</text>
<polyline fill="none" stroke="#d3c70d" points="160.88,-136 160.88,-193.5"/>
<text text-anchor="middle" x="206" y="-176.2" font-family="Times,serif" font-size="14.00" fill="#000000">Parent</text>
<text text-anchor="middle" x="206" y="-159.7" font-family="Times,serif" font-size="14.00" fill="#000000">cos</text>
<text text-anchor="middle" x="206" y="-143.2" font-family="Times,serif" font-size="14.00" fill="#000000">0x105600b90</text>
<polyline fill="none" stroke="#d3c70d" points="251.12,-136 251.12,-193.5"/>
<text text-anchor="middle" x="295.88" y="-176.2" font-family="Times,serif" font-size="14.00" fill="#000000">Right</text>
<text text-anchor="middle" x="295.88" y="-159.7" font-family="Times,serif" font-size="14.00" fill="#000000">x</text>
<text text-anchor="middle" x="295.88" y="-143.2" font-family="Times,serif" font-size="14.00" fill="#000000">0x105600ad0</text>
</g>
<!-- node0x105600b90&#45;&gt;node0x105600b50 -->
<g id="edge1" class="edge">
<title>node0x105600b90:left&#45;&gt;node0x105600b50</title>
<path fill="none" stroke="#187ae8" stroke-width="2" d="M205.12,-271C205.12,-262.91 205.15,-254.38 205.18,-245.98"/>
<polygon fill="#187ae8" stroke="#187ae8" stroke-width="2" points="208.68,-247.7 205.23,-237.68 201.68,-247.66 208.68,-247.7"/>
</g>
<!-- node0x105600b10 -->
<g id="node3" class="node">
<title>node0x105600b10</title>
<path fill="#bdef9e" stroke="#99c2a2" d="M12,-0.5C12,-0.5 185.25,-0.5 185.25,-0.5 191.25,-0.5 197.25,-6.5 197.25,-12.5 197.25,-12.5 197.25,-87 197.25,-87 197.25,-93 191.25,-99 185.25,-99 185.25,-99 12,-99 12,-99 6,-99 0,-93 0,-87 0,-87 0,-12.5 0,-12.5 0,-6.5 6,-0.5 12,-0.5"/>
<text text-anchor="middle" x="98.62" y="-81.7" font-family="Times,serif" font-size="14.00" fill="#000000">2</text>
<text text-anchor="middle" x="98.62" y="-65.2" font-family="Times,serif" font-size="14.00" fill="#000000">0x105600b10</text>
<polyline fill="none" stroke="#99c2a2" points="0,-58 197.25,-58"/>
<text text-anchor="middle" x="26.75" y="-40.7" font-family="Times,serif" font-size="14.00" fill="#000000">Left</text>
<text text-anchor="middle" x="26.75" y="-24.2" font-family="Times,serif" font-size="14.00" fill="#000000">NONE</text>
<text text-anchor="middle" x="26.75" y="-7.7" font-family="Times,serif" font-size="14.00" fill="#000000">0x0</text>
<polyline fill="none" stroke="#99c2a2" points="53.5,-0.5 53.5,-58"/>
<text text-anchor="middle" x="98.62" y="-40.7" font-family="Times,serif" font-size="14.00" fill="#000000">Parent</text>
<text text-anchor="middle" x="98.62" y="-24.2" font-family="Times,serif" font-size="14.00" fill="#000000">*</text>
<text text-anchor="middle" x="98.62" y="-7.7" font-family="Times,serif" font-size="14.00" fill="#000000">0x105600b50</text>
<polyline fill="none" stroke="#99c2a2" points="143.75,-0.5 143.75,-58"/>
<text text-anchor="middle" x="170.5" y="-40.7" font-family="Times,serif" font-size="14.00" fill="#000000">Right</text>
<text text-anchor="middle" x="170.5" y="-24.2" font-family="Times,serif" font-size="14.00" fill="#000000">NONE</text>
<text text-anchor="middle" x="170.5" y="-7.7" font-family="Times,serif" font-size="14.00" fill="#000000">0x0</text>
</g>
<!-- node0x105600b50&#45;&gt;node0x105600b10 -->
<g id="edge2" class="edge">
<title>node0x105600b50:left&#45;&gt;node0x105600b10</title>
<path fill="none" stroke="#187ae8" stroke-width="2" d="M115.75,-135.5C115.75,-127.35 114.98,-118.84 113.76,-110.49"/>
<polygon fill="#187ae8" stroke="#187ae8" stroke-width="2" points="117.49,-111.52 112.37,-102.25 110.59,-112.69 117.49,-111.52"/>
</g>
<!-- node0x105600ad0 -->
<g id="node4" class="node">
<title>node0x105600ad0</title>
<path fill="#d5cfe1" stroke="#8797b2" d="M227,-0.5C227,-0.5 400.25,-0.5 400.25,-0.5 406.25,-0.5 412.25,-6.5 412.25,-12.5 412.25,-12.5 412.25,-87 412.25,-87 412.25,-93 406.25,-99 400.25,-99 400.25,-99 227,-99 227,-99 221,-99 215,-93 215,-87 215,-87 215,-12.5 215,-12.5 215,-6.5 221,-0.5 227,-0.5"/>
<text text-anchor="middle" x="313.62" y="-81.7" font-family="Times,serif" font-size="14.00" fill="#000000">x</text>
<text text-anchor="middle" x="313.62" y="-65.2" font-family="Times,serif" font-size="14.00" fill="#000000">0x105600ad0</text>
<polyline fill="none" stroke="#8797b2" points="215,-58 412.25,-58"/>
<text text-anchor="middle" x="241.75" y="-40.7" font-family="Times,serif" font-size="14.00" fill="#000000">Left</text>
<text text-anchor="middle" x="241.75" y="-24.2" font-family="Times,serif" font-size="14.00" fill="#000000">NONE</text>
<text text-anchor="middle" x="241.75" y="-7.7" font-family="Times,serif" font-size="14.00" fill="#000000">0x0</text>
<polyline fill="none" stroke="#8797b2" points="268.5,-0.5 268.5,-58"/>
<text text-anchor="middle" x="313.62" y="-40.7" font-family="Times,serif" font-size="14.00" fill="#000000">Parent</text>
<text text-anchor="middle" x="313.62" y="-24.2" font-family="Times,serif" font-size="14.00" fill="#000000">*</text>
<text text-anchor="middle" x="313.62" y="-7.7" font-family="Times,serif" font-size="14.00" fill="#000000">0x105600b50</text>
<polyline fill="none" stroke="#8797b2" points="358.75,-0.5 358.75,-58"/>
<text text-anchor="middle" x="385.5" y="-40.7" font-family="Times,serif" font-size="14.00" fill="#000000">Right</text>
<text text-anchor="middle" x="385.5" y="-24.2" font-family="Times,serif" font-size="14.00" fill="#000000">NONE</text>
<text text-anchor="middle" x="385.5" y="-7.7" font-family="Times,serif" font-size="14.00" fill="#000000">0x0</text>
</g>
<!-- node0x105600b50&#45;&gt;node0x105600ad0 -->
<g id="edge3" class="edge">
<title>node0x105600b50:right&#45;&gt;node0x105600ad0</title>
<path fill="none" stroke="#48e818" stroke-width="2" d="M295.88,-135.5C295.88,-127.34 296.67,-118.82 297.93,-110.47"/>
<polygon fill="#48e818" stroke="#48e818" stroke-width="2" points="301.1,-112.67 299.38,-102.22 294.21,-111.46 301.1,-112.67"/>
</g>
</g>
</svg>
