<?xml version="1.0" encoding="UTF-8" standalone="no"?>
<!DOCTYPE svg PUBLIC "-//W3C//DTD SVG 1.1//EN"
 "http://www.w3.org/Graphics/SVG/1.1/DTD/svg11.dtd">
<!-- Generated by graphviz version 12.2.0 (20241103.1931)
 -->
<!-- Pages: 1 -->
<svg width="258pt" height="243pt"
 viewBox="0.00 0.00 258.25 243.00" xmlns="http://www.w3.org/2000/svg" xmlns:xlink="http://www.w3.org/1999/xlink">
<g id="graph0" class="graph" transform="scale(1 1) rotate(0) translate(4 239)">
<polygon fill="#dcdcdc" stroke="none" points="-4,4 -4,-239 254.25,-239 254.25,4 -4,4"/>
<!-- node0x105000b90 -->
<g id="node1" class="node">
<title>node0x105000b90</title>
<path fill="#fbee21" stroke="#d3c70d" d="M65,-136C65,-136 238.25,-136 238.25,-136 244.25,-136 250.25,-142 250.25,-148 250.25,-148 250.25,-222.5 250.25,-222.5 250.25,-228.5 244.25,-234.5 238.25,-234.5 238.25,-234.5 65,-234.5 65,-234.5 59,-234.5 53,-228.5 53,-222.5 53,-222.5 53,-148 53,-148 53,-142 59,-136 65,-136"/>
<text text-anchor="middle" x="151.62" y="-217.2" font-family="Times,serif" font-size="14.00" fill="#000000">cos</text>
<text text-anchor="middle" x="151.62" y="-200.7" font-family="Times,serif" font-size="14.00" fill="#000000">0x105000b90</text>
<polyline fill="none" stroke="#d3c70d" points="53,-193.5 250.25,-193.5"/>
<text text-anchor="middle" x="98.12" y="-176.2" font-family="Times,serif" font-size="14.00" fill="#000000">Left</text>
<text text-anchor="middle" x="98.12" y="-159.7" font-family="Times,serif" font-size="14.00" fill="#000000">x</text>
<text text-anchor="middle" x="98.12" y="-143.2" font-family="Times,serif" font-size="14.00" fill="#000000">0x105000b50</text>
<polyline fill="none" stroke="#d3c70d" points="143.25,-136 143.25,-193.5"/>
<text text-anchor="middle" x="170" y="-176.2" font-family="Times,serif" font-size="14.00" fill="#000000">Parent</text>
<text text-anchor="middle" x="170" y="-159.7" font-family="Times,serif" font-size="14.00" fill="#000000">NONE</text>
<text text-anchor="middle" x="170" y="-143.2" font-family="Times,serif" font-size="14.00" fill="#000000">0x0</text>
<polyline fill="none" stroke="#d3c70d" points="196.75,-136 196.75,-193.5"/>
<text text-anchor="middle" x="223.5" y="-176.2" font-family="Times,serif" font-size="14.00" fill="#000000">Right</text>
<text text-anchor="middle" x="223.5" y="-159.7" font-family="Times,serif" font-size="14.00" fill="#000000">NONE</text>
<text text-anchor="middle" x="223.5" y="-143.2" font-family="Times,serif" font-size="14.00" fill="#000000">0x0</text>
</g>
<!-- node0x105000b50 -->
<g id="node2" class="node">
<title>node0x105000b50</title>
<path fill="#d5cfe1" stroke="#8797b2" d="M12,-0.5C12,-0.5 185.25,-0.5 185.25,-0.5 191.25,-0.5 197.25,-6.5 197.25,-12.5 197.25,-12.5 197.25,-87 197.25,-87 197.25,-93 191.25,-99 185.25,-99 185.25,-99 12,-99 12,-99 6,-99 0,-93 0,-87 0,-87 0,-12.5 0,-12.5 0,-6.5 6,-0.5 12,-0.5"/>
<text text-anchor="middle" x="98.62" y="-81.7" font-family="Times,serif" font-size="14.00" fill="#000000">x</text>
<text text-anchor="middle" x="98.62" y="-65.2" font-family="Times,serif" font-size="14.00" fill="#000000">0x105000b50</text>
<polyline fill="none" stroke="#8797b2" points="0,-58 197.25,-58"/>
<text text-anchor="middle" x="26.75" y="-40.7" font-family="Times,serif" font-size="14.00" fill="#000000">Left</text>
<text text-anchor="middle" x="26.75" y="-24.2" font-family="Times,serif" font-size="14.00" fill="#000000">NONE</text>
<text text-anchor="middle" x="26.75" y="-7.7" font-family="Times,serif" font-size="14.00" fill="#000000">0x0</text>
<polyline fill="none" stroke="#8797b2" points="53.5,-0.5 53.5,-58"/>
<text text-anchor="middle" x="98.62" y="-40.7" font-family="Times,serif" font-size="14.00" fill="#000000">Parent</text>
<text text-anchor="middle" x="98.62" y="-24.2" font-family="Times,serif" font-size="14.00" fill="#000000">cos</text>
<text text-anchor="middle" x="98.62" y="-7.7" font-family="Times,serif" font-size="14.00" fill="#000000">0x105000b90</text>
<polyline fill="none" stroke="#8797b2" points="143.75,-0.5 143.75,-58"/>
<text text-anchor="middle" x="170.5" y="-40.7" font-family="Times,serif" font-size="14.00" fill="#000000">Right</text>
<text text-anchor="middle" x="170.5" y="-24.2" font-family="Times,serif" font-size="14.00" fill="#000000">NONE</text>
<text text-anchor="middle" x="170.5" y="-7.7" font-family="Times,serif" font-size="14.00" fill="#000000">0x0</text>
</g>
<!-- node0x105000b90&#45;&gt;node0x105000b50 -->
<g id="edge1" class="edge">
<title>node0x105000b90:left&#45;&gt;node0x105000b50</title>
<path fill="none" stroke="#187ae8" stroke-width="2" d="M98.12,-135.5C98.12,-127.41 98.15,-118.88 98.18,-110.48"/>
<polygon fill="#187ae8" stroke="#187ae8" stroke-width="2" points="101.68,-112.2 98.23,-102.18 94.68,-112.16 101.68,-112.2"/>
</g>
</g>
</svg>
