<?xml version="1.0" encoding="UTF-8" standalone="no"?>
<!DOCTYPE svg PUBLIC "-//W3C//DTD SVG 1.1//EN"
 "http://www.w3.org/Graphics/SVG/1.1/DTD/svg11.dtd">
<!-- Generated by graphviz version 12.2.0 (20241103.1931)
 -->
<!-- Pages: 1 -->
<svg width="878pt" height="921pt"
 viewBox="0.00 0.00 878.25 920.50" xmlns="http://www.w3.org/2000/svg" xmlns:xlink="http://www.w3.org/1999/xlink">
<g id="graph0" class="graph" transform="scale(1 1) rotate(0) translate(4 916.5)">
<polygon fill="#dcdcdc" stroke="none" points="-4,4 -4,-916.5 874.25,-916.5 874.25,4 -4,4"/>
<!-- node0x103d029d0 -->
<g id="node1" class="node">
<title>node0x103d029d0</title>
<path fill="#f18805" stroke="#af3800" d="M432.62,-813.5C432.62,-813.5 642.62,-813.5 642.62,-813.5 648.62,-813.5 654.62,-819.5 654.62,-825.5 654.62,-825.5 654.62,-900 654.62,-900 654.62,-906 648.62,-912 642.62,-912 642.62,-912 432.62,-912 432.62,-912 426.62,-912 420.62,-906 420.62,-900 420.62,-900 420.62,-825.5 420.62,-825.5 420.62,-819.5 426.62,-813.5 432.62,-813.5"/>
<text text-anchor="middle" x="537.62" y="-894.7" font-family="Times,serif" font-size="14.00" fill="#000000">*</text>
<text text-anchor="middle" x="537.62" y="-878.2" font-family="Times,serif" font-size="14.00" fill="#000000">0x103d029d0</text>
<polyline fill="none" stroke="#af3800" points="420.62,-871 654.62,-871"/>
<text text-anchor="middle" x="465.75" y="-853.7" font-family="Times,serif" font-size="14.00" fill="#000000">Left</text>
<text text-anchor="middle" x="465.75" y="-837.2" font-family="Times,serif" font-size="14.00" fill="#000000">2</text>
<text text-anchor="middle" x="465.75" y="-820.7" font-family="Times,serif" font-size="14.00" fill="#000000">0x103d02590</text>
<polyline fill="none" stroke="#af3800" points="510.88,-813.5 510.88,-871"/>
<text text-anchor="middle" x="537.62" y="-853.7" font-family="Times,serif" font-size="14.00" fill="#000000">Parent</text>
<text text-anchor="middle" x="537.62" y="-837.2" font-family="Times,serif" font-size="14.00" fill="#000000">NONE</text>
<text text-anchor="middle" x="537.62" y="-820.7" font-family="Times,serif" font-size="14.00" fill="#000000">0x0</text>
<polyline fill="none" stroke="#af3800" points="564.38,-813.5 564.38,-871"/>
<text text-anchor="middle" x="609.5" y="-853.7" font-family="Times,serif" font-size="14.00" fill="#000000">Right</text>
<text text-anchor="middle" x="609.5" y="-837.2" font-family="Times,serif" font-size="14.00" fill="#000000">*</text>
<text text-anchor="middle" x="609.5" y="-820.7" font-family="Times,serif" font-size="14.00" fill="#000000">0x103d02310</text>
</g>
<!-- node0x103d02590 -->
<g id="node2" class="node">
<title>node0x103d02590</title>
<path fill="#bdef9e" stroke="#99c2a2" d="M362.38,-678C362.38,-678 498.88,-678 498.88,-678 504.88,-678 510.88,-684 510.88,-690 510.88,-690 510.88,-764.5 510.88,-764.5 510.88,-770.5 504.88,-776.5 498.88,-776.5 498.88,-776.5 362.38,-776.5 362.38,-776.5 356.38,-776.5 350.38,-770.5 350.38,-764.5 350.38,-764.5 350.38,-690 350.38,-690 350.38,-684 356.38,-678 362.38,-678"/>
<text text-anchor="middle" x="430.62" y="-759.2" font-family="Times,serif" font-size="14.00" fill="#000000">2</text>
<text text-anchor="middle" x="430.62" y="-742.7" font-family="Times,serif" font-size="14.00" fill="#000000">0x103d02590</text>
<polyline fill="none" stroke="#99c2a2" points="350.38,-735.5 510.88,-735.5"/>
<text text-anchor="middle" x="377.12" y="-718.2" font-family="Times,serif" font-size="14.00" fill="#000000">Left</text>
<text text-anchor="middle" x="377.12" y="-701.7" font-family="Times,serif" font-size="14.00" fill="#000000">NONE</text>
<text text-anchor="middle" x="377.12" y="-685.2" font-family="Times,serif" font-size="14.00" fill="#000000">0x0</text>
<polyline fill="none" stroke="#99c2a2" points="403.88,-678 403.88,-735.5"/>
<text text-anchor="middle" x="430.62" y="-718.2" font-family="Times,serif" font-size="14.00" fill="#000000">Parent</text>
<text text-anchor="middle" x="430.62" y="-701.7" font-family="Times,serif" font-size="14.00" fill="#000000">NONE</text>
<text text-anchor="middle" x="430.62" y="-685.2" font-family="Times,serif" font-size="14.00" fill="#000000">0x0</text>
<polyline fill="none" stroke="#99c2a2" points="457.38,-678 457.38,-735.5"/>
<text text-anchor="middle" x="484.12" y="-718.2" font-family="Times,serif" font-size="14.00" fill="#000000">Right</text>
<text text-anchor="middle" x="484.12" y="-701.7" font-family="Times,serif" font-size="14.00" fill="#000000">NONE</text>
<text text-anchor="middle" x="484.12" y="-685.2" font-family="Times,serif" font-size="14.00" fill="#000000">0x0</text>
</g>
<!-- node0x103d029d0&#45;&gt;node0x103d02590 -->
<g id="edge1" class="edge">
<title>node0x103d029d0:left&#45;&gt;node0x103d02590</title>
<path fill="none" stroke="#187ae8" stroke-width="2" d="M465.75,-813C465.75,-804.47 464.21,-795.81 461.78,-787.43"/>
<polygon fill="#187ae8" stroke="#187ae8" stroke-width="2" points="465.62,-787.84 459.1,-779.49 458.99,-790.08 465.62,-787.84"/>
</g>
<!-- node0x103d02310 -->
<g id="node3" class="node">
<title>node0x103d02310</title>
<path fill="#fbee21" stroke="#d3c70d" d="M540.62,-678C540.62,-678 750.62,-678 750.62,-678 756.62,-678 762.62,-684 762.62,-690 762.62,-690 762.62,-764.5 762.62,-764.5 762.62,-770.5 756.62,-776.5 750.62,-776.5 750.62,-776.5 540.62,-776.5 540.62,-776.5 534.62,-776.5 528.62,-770.5 528.62,-764.5 528.62,-764.5 528.62,-690 528.62,-690 528.62,-684 534.62,-678 540.62,-678"/>
<text text-anchor="middle" x="645.62" y="-759.2" font-family="Times,serif" font-size="14.00" fill="#000000">*</text>
<text text-anchor="middle" x="645.62" y="-742.7" font-family="Times,serif" font-size="14.00" fill="#000000">0x103d02310</text>
<polyline fill="none" stroke="#d3c70d" points="528.62,-735.5 762.62,-735.5"/>
<text text-anchor="middle" x="573.75" y="-718.2" font-family="Times,serif" font-size="14.00" fill="#000000">Left</text>
<text text-anchor="middle" x="573.75" y="-701.7" font-family="Times,serif" font-size="14.00" fill="#000000">*</text>
<text text-anchor="middle" x="573.75" y="-685.2" font-family="Times,serif" font-size="14.00" fill="#000000">0x103d02390</text>
<polyline fill="none" stroke="#d3c70d" points="618.88,-678 618.88,-735.5"/>
<text text-anchor="middle" x="645.62" y="-718.2" font-family="Times,serif" font-size="14.00" fill="#000000">Parent</text>
<text text-anchor="middle" x="645.62" y="-701.7" font-family="Times,serif" font-size="14.00" fill="#000000">NONE</text>
<text text-anchor="middle" x="645.62" y="-685.2" font-family="Times,serif" font-size="14.00" fill="#000000">0x0</text>
<polyline fill="none" stroke="#d3c70d" points="672.38,-678 672.38,-735.5"/>
<text text-anchor="middle" x="717.5" y="-718.2" font-family="Times,serif" font-size="14.00" fill="#000000">Right</text>
<text text-anchor="middle" x="717.5" y="-701.7" font-family="Times,serif" font-size="14.00" fill="#000000">2</text>
<text text-anchor="middle" x="717.5" y="-685.2" font-family="Times,serif" font-size="14.00" fill="#000000">0x103d02350</text>
</g>
<!-- node0x103d029d0&#45;&gt;node0x103d02310 -->
<g id="edge11" class="edge">
<title>node0x103d029d0:right&#45;&gt;node0x103d02310</title>
<path fill="none" stroke="#48e818" stroke-width="2" d="M609.5,-813C609.5,-804.55 611.04,-795.97 613.48,-787.69"/>
<polygon fill="#48e818" stroke="#48e818" stroke-width="2" points="616.23,-790.45 616.18,-779.86 609.61,-788.18 616.23,-790.45"/>
</g>
<!-- node0x103d02390 -->
<g id="node4" class="node">
<title>node0x103d02390</title>
<path fill="#fbee21" stroke="#d3c70d" d="M396.25,-542.5C396.25,-542.5 643,-542.5 643,-542.5 649,-542.5 655,-548.5 655,-554.5 655,-554.5 655,-629 655,-629 655,-635 649,-641 643,-641 643,-641 396.25,-641 396.25,-641 390.25,-641 384.25,-635 384.25,-629 384.25,-629 384.25,-554.5 384.25,-554.5 384.25,-548.5 390.25,-542.5 396.25,-542.5"/>
<text text-anchor="middle" x="519.62" y="-623.7" font-family="Times,serif" font-size="14.00" fill="#000000">*</text>
<text text-anchor="middle" x="519.62" y="-607.2" font-family="Times,serif" font-size="14.00" fill="#000000">0x103d02390</text>
<polyline fill="none" stroke="#d3c70d" points="384.25,-600 655,-600"/>
<text text-anchor="middle" x="429.38" y="-582.7" font-family="Times,serif" font-size="14.00" fill="#000000">Left</text>
<text text-anchor="middle" x="429.38" y="-566.2" font-family="Times,serif" font-size="14.00" fill="#000000">*</text>
<text text-anchor="middle" x="429.38" y="-549.7" font-family="Times,serif" font-size="14.00" fill="#000000">0x103d02410</text>
<polyline fill="none" stroke="#d3c70d" points="474.5,-542.5 474.5,-600"/>
<text text-anchor="middle" x="519.62" y="-582.7" font-family="Times,serif" font-size="14.00" fill="#000000">Parent</text>
<text text-anchor="middle" x="519.62" y="-566.2" font-family="Times,serif" font-size="14.00" fill="#000000">*</text>
<text text-anchor="middle" x="519.62" y="-549.7" font-family="Times,serif" font-size="14.00" fill="#000000">0x103d02310</text>
<polyline fill="none" stroke="#d3c70d" points="564.75,-542.5 564.75,-600"/>
<text text-anchor="middle" x="609.88" y="-582.7" font-family="Times,serif" font-size="14.00" fill="#000000">Right</text>
<text text-anchor="middle" x="609.88" y="-566.2" font-family="Times,serif" font-size="14.00" fill="#000000">2</text>
<text text-anchor="middle" x="609.88" y="-549.7" font-family="Times,serif" font-size="14.00" fill="#000000">0x103d023d0</text>
</g>
<!-- node0x103d02310&#45;&gt;node0x103d02390 -->
<g id="edge2" class="edge">
<title>node0x103d02310:left&#45;&gt;node0x103d02390</title>
<path fill="none" stroke="#187ae8" stroke-width="2" d="M573.75,-677.5C573.75,-668.54 571.57,-659.76 568.09,-651.46"/>
<polygon fill="#187ae8" stroke="#187ae8" stroke-width="2" points="571.95,-651.36 564.39,-643.94 565.67,-654.45 571.95,-651.36"/>
</g>
<!-- node0x103d02350 -->
<g id="node12" class="node">
<title>node0x103d02350</title>
<path fill="#bdef9e" stroke="#99c2a2" d="M685,-542.5C685,-542.5 858.25,-542.5 858.25,-542.5 864.25,-542.5 870.25,-548.5 870.25,-554.5 870.25,-554.5 870.25,-629 870.25,-629 870.25,-635 864.25,-641 858.25,-641 858.25,-641 685,-641 685,-641 679,-641 673,-635 673,-629 673,-629 673,-554.5 673,-554.5 673,-548.5 679,-542.5 685,-542.5"/>
<text text-anchor="middle" x="771.62" y="-623.7" font-family="Times,serif" font-size="14.00" fill="#000000">2</text>
<text text-anchor="middle" x="771.62" y="-607.2" font-family="Times,serif" font-size="14.00" fill="#000000">0x103d02350</text>
<polyline fill="none" stroke="#99c2a2" points="673,-600 870.25,-600"/>
<text text-anchor="middle" x="699.75" y="-582.7" font-family="Times,serif" font-size="14.00" fill="#000000">Left</text>
<text text-anchor="middle" x="699.75" y="-566.2" font-family="Times,serif" font-size="14.00" fill="#000000">NONE</text>
<text text-anchor="middle" x="699.75" y="-549.7" font-family="Times,serif" font-size="14.00" fill="#000000">0x0</text>
<polyline fill="none" stroke="#99c2a2" points="726.5,-542.5 726.5,-600"/>
<text text-anchor="middle" x="771.62" y="-582.7" font-family="Times,serif" font-size="14.00" fill="#000000">Parent</text>
<text text-anchor="middle" x="771.62" y="-566.2" font-family="Times,serif" font-size="14.00" fill="#000000">*</text>
<text text-anchor="middle" x="771.62" y="-549.7" font-family="Times,serif" font-size="14.00" fill="#000000">0x103d02310</text>
<polyline fill="none" stroke="#99c2a2" points="816.75,-542.5 816.75,-600"/>
<text text-anchor="middle" x="843.5" y="-582.7" font-family="Times,serif" font-size="14.00" fill="#000000">Right</text>
<text text-anchor="middle" x="843.5" y="-566.2" font-family="Times,serif" font-size="14.00" fill="#000000">NONE</text>
<text text-anchor="middle" x="843.5" y="-549.7" font-family="Times,serif" font-size="14.00" fill="#000000">0x0</text>
</g>
<!-- node0x103d02310&#45;&gt;node0x103d02350 -->
<g id="edge10" class="edge">
<title>node0x103d02310:right&#45;&gt;node0x103d02350</title>
<path fill="none" stroke="#48e818" stroke-width="2" d="M717.5,-677.5C717.5,-668.54 719.68,-659.76 723.16,-651.46"/>
<polygon fill="#48e818" stroke="#48e818" stroke-width="2" points="725.58,-654.45 726.86,-643.94 719.3,-651.36 725.58,-654.45"/>
</g>
<!-- node0x103d02410 -->
<g id="node5" class="node">
<title>node0x103d02410</title>
<path fill="#fbee21" stroke="#d3c70d" d="M270.25,-407C270.25,-407 517,-407 517,-407 523,-407 529,-413 529,-419 529,-419 529,-493.5 529,-493.5 529,-499.5 523,-505.5 517,-505.5 517,-505.5 270.25,-505.5 270.25,-505.5 264.25,-505.5 258.25,-499.5 258.25,-493.5 258.25,-493.5 258.25,-419 258.25,-419 258.25,-413 264.25,-407 270.25,-407"/>
<text text-anchor="middle" x="393.62" y="-488.2" font-family="Times,serif" font-size="14.00" fill="#000000">*</text>
<text text-anchor="middle" x="393.62" y="-471.7" font-family="Times,serif" font-size="14.00" fill="#000000">0x103d02410</text>
<polyline fill="none" stroke="#d3c70d" points="258.25,-464.5 529,-464.5"/>
<text text-anchor="middle" x="303.38" y="-447.2" font-family="Times,serif" font-size="14.00" fill="#000000">Left</text>
<text text-anchor="middle" x="303.38" y="-430.7" font-family="Times,serif" font-size="14.00" fill="#000000">exp</text>
<text text-anchor="middle" x="303.38" y="-414.2" font-family="Times,serif" font-size="14.00" fill="#000000">0x103d02490</text>
<polyline fill="none" stroke="#d3c70d" points="348.5,-407 348.5,-464.5"/>
<text text-anchor="middle" x="393.62" y="-447.2" font-family="Times,serif" font-size="14.00" fill="#000000">Parent</text>
<text text-anchor="middle" x="393.62" y="-430.7" font-family="Times,serif" font-size="14.00" fill="#000000">*</text>
<text text-anchor="middle" x="393.62" y="-414.2" font-family="Times,serif" font-size="14.00" fill="#000000">0x103d02390</text>
<polyline fill="none" stroke="#d3c70d" points="438.75,-407 438.75,-464.5"/>
<text text-anchor="middle" x="483.88" y="-447.2" font-family="Times,serif" font-size="14.00" fill="#000000">Right</text>
<text text-anchor="middle" x="483.88" y="-430.7" font-family="Times,serif" font-size="14.00" fill="#000000">2</text>
<text text-anchor="middle" x="483.88" y="-414.2" font-family="Times,serif" font-size="14.00" fill="#000000">0x103d02450</text>
</g>
<!-- node0x103d02390&#45;&gt;node0x103d02410 -->
<g id="edge3" class="edge">
<title>node0x103d02390:left&#45;&gt;node0x103d02410</title>
<path fill="none" stroke="#187ae8" stroke-width="2" d="M429.38,-542C429.38,-533.45 427.81,-524.77 425.34,-516.39"/>
<polygon fill="#187ae8" stroke="#187ae8" stroke-width="2" points="429.17,-516.75 422.6,-508.44 422.55,-519.03 429.17,-516.75"/>
</g>
<!-- node0x103d023d0 -->
<g id="node11" class="node">
<title>node0x103d023d0</title>
<path fill="#bdef9e" stroke="#99c2a2" d="M559,-407C559,-407 732.25,-407 732.25,-407 738.25,-407 744.25,-413 744.25,-419 744.25,-419 744.25,-493.5 744.25,-493.5 744.25,-499.5 738.25,-505.5 732.25,-505.5 732.25,-505.5 559,-505.5 559,-505.5 553,-505.5 547,-499.5 547,-493.5 547,-493.5 547,-419 547,-419 547,-413 553,-407 559,-407"/>
<text text-anchor="middle" x="645.62" y="-488.2" font-family="Times,serif" font-size="14.00" fill="#000000">2</text>
<text text-anchor="middle" x="645.62" y="-471.7" font-family="Times,serif" font-size="14.00" fill="#000000">0x103d023d0</text>
<polyline fill="none" stroke="#99c2a2" points="547,-464.5 744.25,-464.5"/>
<text text-anchor="middle" x="573.75" y="-447.2" font-family="Times,serif" font-size="14.00" fill="#000000">Left</text>
<text text-anchor="middle" x="573.75" y="-430.7" font-family="Times,serif" font-size="14.00" fill="#000000">NONE</text>
<text text-anchor="middle" x="573.75" y="-414.2" font-family="Times,serif" font-size="14.00" fill="#000000">0x0</text>
<polyline fill="none" stroke="#99c2a2" points="600.5,-407 600.5,-464.5"/>
<text text-anchor="middle" x="645.62" y="-447.2" font-family="Times,serif" font-size="14.00" fill="#000000">Parent</text>
<text text-anchor="middle" x="645.62" y="-430.7" font-family="Times,serif" font-size="14.00" fill="#000000">*</text>
<text text-anchor="middle" x="645.62" y="-414.2" font-family="Times,serif" font-size="14.00" fill="#000000">0x103d02390</text>
<polyline fill="none" stroke="#99c2a2" points="690.75,-407 690.75,-464.5"/>
<text text-anchor="middle" x="717.5" y="-447.2" font-family="Times,serif" font-size="14.00" fill="#000000">Right</text>
<text text-anchor="middle" x="717.5" y="-430.7" font-family="Times,serif" font-size="14.00" fill="#000000">NONE</text>
<text text-anchor="middle" x="717.5" y="-414.2" font-family="Times,serif" font-size="14.00" fill="#000000">0x0</text>
</g>
<!-- node0x103d02390&#45;&gt;node0x103d023d0 -->
<g id="edge9" class="edge">
<title>node0x103d02390:right&#45;&gt;node0x103d023d0</title>
<path fill="none" stroke="#48e818" stroke-width="2" d="M609.88,-542C609.88,-533.45 611.44,-524.77 613.91,-516.39"/>
<polygon fill="#48e818" stroke="#48e818" stroke-width="2" points="616.7,-519.03 616.65,-508.44 610.08,-516.75 616.7,-519.03"/>
</g>
<!-- node0x103d02490 -->
<g id="node6" class="node">
<title>node0x103d02490</title>
<path fill="#fbee21" stroke="#d3c70d" d="M171.62,-271.5C171.62,-271.5 381.62,-271.5 381.62,-271.5 387.62,-271.5 393.62,-277.5 393.62,-283.5 393.62,-283.5 393.62,-358 393.62,-358 393.62,-364 387.62,-370 381.62,-370 381.62,-370 171.62,-370 171.62,-370 165.62,-370 159.62,-364 159.62,-358 159.62,-358 159.62,-283.5 159.62,-283.5 159.62,-277.5 165.62,-271.5 171.62,-271.5"/>
<text text-anchor="middle" x="276.62" y="-352.7" font-family="Times,serif" font-size="14.00" fill="#000000">exp</text>
<text text-anchor="middle" x="276.62" y="-336.2" font-family="Times,serif" font-size="14.00" fill="#000000">0x103d02490</text>
<polyline fill="none" stroke="#d3c70d" points="159.62,-329 393.62,-329"/>
<text text-anchor="middle" x="204.75" y="-311.7" font-family="Times,serif" font-size="14.00" fill="#000000">Left</text>
<text text-anchor="middle" x="204.75" y="-295.2" font-family="Times,serif" font-size="14.00" fill="#000000">*</text>
<text text-anchor="middle" x="204.75" y="-278.7" font-family="Times,serif" font-size="14.00" fill="#000000">0x103d024d0</text>
<polyline fill="none" stroke="#d3c70d" points="249.88,-271.5 249.88,-329"/>
<text text-anchor="middle" x="295" y="-311.7" font-family="Times,serif" font-size="14.00" fill="#000000">Parent</text>
<text text-anchor="middle" x="295" y="-295.2" font-family="Times,serif" font-size="14.00" fill="#000000">*</text>
<text text-anchor="middle" x="295" y="-278.7" font-family="Times,serif" font-size="14.00" fill="#000000">0x103d02410</text>
<polyline fill="none" stroke="#d3c70d" points="340.12,-271.5 340.12,-329"/>
<text text-anchor="middle" x="366.88" y="-311.7" font-family="Times,serif" font-size="14.00" fill="#000000">Right</text>
<text text-anchor="middle" x="366.88" y="-295.2" font-family="Times,serif" font-size="14.00" fill="#000000">NONE</text>
<text text-anchor="middle" x="366.88" y="-278.7" font-family="Times,serif" font-size="14.00" fill="#000000">0x0</text>
</g>
<!-- node0x103d02410&#45;&gt;node0x103d02490 -->
<g id="edge4" class="edge">
<title>node0x103d02410:left&#45;&gt;node0x103d02490</title>
<path fill="none" stroke="#187ae8" stroke-width="2" d="M303.38,-406.5C303.38,-398.13 302.17,-389.51 300.28,-381.11"/>
<polygon fill="#187ae8" stroke="#187ae8" stroke-width="2" points="304.12,-381.95 298.2,-373.16 297.35,-383.73 304.12,-381.95"/>
</g>
<!-- node0x103d02450 -->
<g id="node10" class="node">
<title>node0x103d02450</title>
<path fill="#bdef9e" stroke="#99c2a2" d="M424,-271.5C424,-271.5 597.25,-271.5 597.25,-271.5 603.25,-271.5 609.25,-277.5 609.25,-283.5 609.25,-283.5 609.25,-358 609.25,-358 609.25,-364 603.25,-370 597.25,-370 597.25,-370 424,-370 424,-370 418,-370 412,-364 412,-358 412,-358 412,-283.5 412,-283.5 412,-277.5 418,-271.5 424,-271.5"/>
<text text-anchor="middle" x="510.62" y="-352.7" font-family="Times,serif" font-size="14.00" fill="#000000">2</text>
<text text-anchor="middle" x="510.62" y="-336.2" font-family="Times,serif" font-size="14.00" fill="#000000">0x103d02450</text>
<polyline fill="none" stroke="#99c2a2" points="412,-329 609.25,-329"/>
<text text-anchor="middle" x="438.75" y="-311.7" font-family="Times,serif" font-size="14.00" fill="#000000">Left</text>
<text text-anchor="middle" x="438.75" y="-295.2" font-family="Times,serif" font-size="14.00" fill="#000000">NONE</text>
<text text-anchor="middle" x="438.75" y="-278.7" font-family="Times,serif" font-size="14.00" fill="#000000">0x0</text>
<polyline fill="none" stroke="#99c2a2" points="465.5,-271.5 465.5,-329"/>
<text text-anchor="middle" x="510.62" y="-311.7" font-family="Times,serif" font-size="14.00" fill="#000000">Parent</text>
<text text-anchor="middle" x="510.62" y="-295.2" font-family="Times,serif" font-size="14.00" fill="#000000">*</text>
<text text-anchor="middle" x="510.62" y="-278.7" font-family="Times,serif" font-size="14.00" fill="#000000">0x103d02410</text>
<polyline fill="none" stroke="#99c2a2" points="555.75,-271.5 555.75,-329"/>
<text text-anchor="middle" x="582.5" y="-311.7" font-family="Times,serif" font-size="14.00" fill="#000000">Right</text>
<text text-anchor="middle" x="582.5" y="-295.2" font-family="Times,serif" font-size="14.00" fill="#000000">NONE</text>
<text text-anchor="middle" x="582.5" y="-278.7" font-family="Times,serif" font-size="14.00" fill="#000000">0x0</text>
</g>
<!-- node0x103d02410&#45;&gt;node0x103d02450 -->
<g id="edge8" class="edge">
<title>node0x103d02410:right&#45;&gt;node0x103d02450</title>
<path fill="none" stroke="#48e818" stroke-width="2" d="M483.88,-406.5C483.88,-398.13 485.08,-389.51 486.97,-381.11"/>
<polygon fill="#48e818" stroke="#48e818" stroke-width="2" points="489.9,-383.73 489.05,-373.16 483.13,-381.95 489.9,-383.73"/>
</g>
<!-- node0x103d024d0 -->
<g id="node7" class="node">
<title>node0x103d024d0</title>
<path fill="#fbee21" stroke="#d3c70d" d="M82.25,-136C82.25,-136 329,-136 329,-136 335,-136 341,-142 341,-148 341,-148 341,-222.5 341,-222.5 341,-228.5 335,-234.5 329,-234.5 329,-234.5 82.25,-234.5 82.25,-234.5 76.25,-234.5 70.25,-228.5 70.25,-222.5 70.25,-222.5 70.25,-148 70.25,-148 70.25,-142 76.25,-136 82.25,-136"/>
<text text-anchor="middle" x="205.62" y="-217.2" font-family="Times,serif" font-size="14.00" fill="#000000">*</text>
<text text-anchor="middle" x="205.62" y="-200.7" font-family="Times,serif" font-size="14.00" fill="#000000">0x103d024d0</text>
<polyline fill="none" stroke="#d3c70d" points="70.25,-193.5 341,-193.5"/>
<text text-anchor="middle" x="115.38" y="-176.2" font-family="Times,serif" font-size="14.00" fill="#000000">Left</text>
<text text-anchor="middle" x="115.38" y="-159.7" font-family="Times,serif" font-size="14.00" fill="#000000">x</text>
<text text-anchor="middle" x="115.38" y="-143.2" font-family="Times,serif" font-size="14.00" fill="#000000">0x103d02550</text>
<polyline fill="none" stroke="#d3c70d" points="160.5,-136 160.5,-193.5"/>
<text text-anchor="middle" x="205.62" y="-176.2" font-family="Times,serif" font-size="14.00" fill="#000000">Parent</text>
<text text-anchor="middle" x="205.62" y="-159.7" font-family="Times,serif" font-size="14.00" fill="#000000">exp</text>
<text text-anchor="middle" x="205.62" y="-143.2" font-family="Times,serif" font-size="14.00" fill="#000000">0x103d02490</text>
<polyline fill="none" stroke="#d3c70d" points="250.75,-136 250.75,-193.5"/>
<text text-anchor="middle" x="295.88" y="-176.2" font-family="Times,serif" font-size="14.00" fill="#000000">Right</text>
<text text-anchor="middle" x="295.88" y="-159.7" font-family="Times,serif" font-size="14.00" fill="#000000">2</text>
<text text-anchor="middle" x="295.88" y="-143.2" font-family="Times,serif" font-size="14.00" fill="#000000">0x103d02510</text>
</g>
<!-- node0x103d02490&#45;&gt;node0x103d024d0 -->
<g id="edge5" class="edge">
<title>node0x103d02490:left&#45;&gt;node0x103d024d0</title>
<path fill="none" stroke="#187ae8" stroke-width="2" d="M204.75,-271C204.75,-262.91 204.79,-254.38 204.85,-245.98"/>
<polygon fill="#187ae8" stroke="#187ae8" stroke-width="2" points="208.34,-247.71 204.93,-237.68 201.34,-247.65 208.34,-247.71"/>
</g>
<!-- node0x103d02550 -->
<g id="node8" class="node">
<title>node0x103d02550</title>
<path fill="#d5cfe1" stroke="#8797b2" d="M12,-0.5C12,-0.5 185.25,-0.5 185.25,-0.5 191.25,-0.5 197.25,-6.5 197.25,-12.5 197.25,-12.5 197.25,-87 197.25,-87 197.25,-93 191.25,-99 185.25,-99 185.25,-99 12,-99 12,-99 6,-99 0,-93 0,-87 0,-87 0,-12.5 0,-12.5 0,-6.5 6,-0.5 12,-0.5"/>
<text text-anchor="middle" x="98.62" y="-81.7" font-family="Times,serif" font-size="14.00" fill="#000000">x</text>
<text text-anchor="middle" x="98.62" y="-65.2" font-family="Times,serif" font-size="14.00" fill="#000000">0x103d02550</text>
<polyline fill="none" stroke="#8797b2" points="0,-58 197.25,-58"/>
<text text-anchor="middle" x="26.75" y="-40.7" font-family="Times,serif" font-size="14.00" fill="#000000">Left</text>
<text text-anchor="middle" x="26.75" y="-24.2" font-family="Times,serif" font-size="14.00" fill="#000000">NONE</text>
<text text-anchor="middle" x="26.75" y="-7.7" font-family="Times,serif" font-size="14.00" fill="#000000">0x0</text>
<polyline fill="none" stroke="#8797b2" points="53.5,-0.5 53.5,-58"/>
<text text-anchor="middle" x="98.62" y="-40.7" font-family="Times,serif" font-size="14.00" fill="#000000">Parent</text>
<text text-anchor="middle" x="98.62" y="-24.2" font-family="Times,serif" font-size="14.00" fill="#000000">*</text>
<text text-anchor="middle" x="98.62" y="-7.7" font-family="Times,serif" font-size="14.00" fill="#000000">0x103d024d0</text>
<polyline fill="none" stroke="#8797b2" points="143.75,-0.5 143.75,-58"/>
<text text-anchor="middle" x="170.5" y="-40.7" font-family="Times,serif" font-size="14.00" fill="#000000">Right</text>
<text text-anchor="middle" x="170.5" y="-24.2" font-family="Times,serif" font-size="14.00" fill="#000000">NONE</text>
<text text-anchor="middle" x="170.5" y="-7.7" font-family="Times,serif" font-size="14.00" fill="#000000">0x0</text>
</g>
<!-- node0x103d024d0&#45;&gt;node0x103d02550 -->
<g id="edge6" class="edge">
<title>node0x103d024d0:left&#45;&gt;node0x103d02550</title>
<path fill="none" stroke="#187ae8" stroke-width="2" d="M115.38,-135.5C115.38,-127.35 114.62,-118.85 113.43,-110.51"/>
<polygon fill="#187ae8" stroke="#187ae8" stroke-width="2" points="117.15,-111.56 112.07,-102.26 110.25,-112.7 117.15,-111.56"/>
</g>
<!-- node0x103d02510 -->
<g id="node9" class="node">
<title>node0x103d02510</title>
<path fill="#bdef9e" stroke="#99c2a2" d="M227,-0.5C227,-0.5 400.25,-0.5 400.25,-0.5 406.25,-0.5 412.25,-6.5 412.25,-12.5 412.25,-12.5 412.25,-87 412.25,-87 412.25,-93 406.25,-99 400.25,-99 400.25,-99 227,-99 227,-99 221,-99 215,-93 215,-87 215,-87 215,-12.5 215,-12.5 215,-6.5 221,-0.5 227,-0.5"/>
<text text-anchor="middle" x="313.62" y="-81.7" font-family="Times,serif" font-size="14.00" fill="#000000">2</text>
<text text-anchor="middle" x="313.62" y="-65.2" font-family="Times,serif" font-size="14.00" fill="#000000">0x103d02510</text>
<polyline fill="none" stroke="#99c2a2" points="215,-58 412.25,-58"/>
<text text-anchor="middle" x="241.75" y="-40.7" font-family="Times,serif" font-size="14.00" fill="#000000">Left</text>
<text text-anchor="middle" x="241.75" y="-24.2" font-family="Times,serif" font-size="14.00" fill="#000000">NONE</text>
<text text-anchor="middle" x="241.75" y="-7.7" font-family="Times,serif" font-size="14.00" fill="#000000">0x0</text>
<polyline fill="none" stroke="#99c2a2" points="268.5,-0.5 268.5,-58"/>
<text text-anchor="middle" x="313.62" y="-40.7" font-family="Times,serif" font-size="14.00" fill="#000000">Parent</text>
<text text-anchor="middle" x="313.62" y="-24.2" font-family="Times,serif" font-size="14.00" fill="#000000">*</text>
<text text-anchor="middle" x="313.62" y="-7.7" font-family="Times,serif" font-size="14.00" fill="#000000">0x103d024d0</text>
<polyline fill="none" stroke="#99c2a2" points="358.75,-0.5 358.75,-58"/>
<text text-anchor="middle" x="385.5" y="-40.7" font-family="Times,serif" font-size="14.00" fill="#000000">Right</text>
<text text-anchor="middle" x="385.5" y="-24.2" font-family="Times,serif" font-size="14.00" fill="#000000">NONE</text>
<text text-anchor="middle" x="385.5" y="-7.7" font-family="Times,serif" font-size="14.00" fill="#000000">0x0</text>
</g>
<!-- node0x103d024d0&#45;&gt;node0x103d02510 -->
<g id="edge7" class="edge">
<title>node0x103d024d0:right&#45;&gt;node0x103d02510</title>
<path fill="none" stroke="#48e818" stroke-width="2" d="M295.88,-135.5C295.88,-127.34 296.67,-118.82 297.93,-110.47"/>
<polygon fill="#48e818" stroke="#48e818" stroke-width="2" points="301.1,-112.67 299.38,-102.22 294.21,-111.46 301.1,-112.67"/>
</g>
</g>
</svg>
