<?xml version="1.0" encoding="UTF-8" standalone="no"?>
<!DOCTYPE svg PUBLIC "-//W3C//DTD SVG 1.1//EN"
 "http://www.w3.org/Graphics/SVG/1.1/DTD/svg11.dtd">
<!-- Generated by graphviz version 12.2.0 (20241103.1931)
 -->
<!-- Pages: 1 -->
<svg width="759pt" height="921pt"
 viewBox="0.00 0.00 758.50 920.50" xmlns="http://www.w3.org/2000/svg" xmlns:xlink="http://www.w3.org/1999/xlink">
<g id="graph0" class="graph" transform="scale(1 1) rotate(0) translate(4 916.5)">
<polygon fill="#dcdcdc" stroke="none" points="-4,4 -4,-916.5 754.5,-916.5 754.5,4 -4,4"/>
<!-- node0x105900b90 -->
<g id="node1" class="node">
<title>node0x105900b90</title>
<path fill="#fbee21" stroke="#d3c70d" d="M566,-813.5C566,-813.5 738.5,-813.5 738.5,-813.5 744.5,-813.5 750.5,-819.5 750.5,-825.5 750.5,-825.5 750.5,-900 750.5,-900 750.5,-906 744.5,-912 738.5,-912 738.5,-912 566,-912 566,-912 560,-912 554,-906 554,-900 554,-900 554,-825.5 554,-825.5 554,-819.5 560,-813.5 566,-813.5"/>
<text text-anchor="middle" x="652.25" y="-894.7" font-family="Times,serif" font-size="14.00" fill="#000000">sin</text>
<text text-anchor="middle" x="652.25" y="-878.2" font-family="Times,serif" font-size="14.00" fill="#000000">0x105900b90</text>
<polyline fill="none" stroke="#d3c70d" points="554,-871 750.5,-871"/>
<text text-anchor="middle" x="598.75" y="-853.7" font-family="Times,serif" font-size="14.00" fill="#000000">Left</text>
<text text-anchor="middle" x="598.75" y="-837.2" font-family="Times,serif" font-size="14.00" fill="#000000">/</text>
<text text-anchor="middle" x="598.75" y="-820.7" font-family="Times,serif" font-size="14.00" fill="#000000">0x105900a10</text>
<polyline fill="none" stroke="#d3c70d" points="643.5,-813.5 643.5,-871"/>
<text text-anchor="middle" x="670.25" y="-853.7" font-family="Times,serif" font-size="14.00" fill="#000000">Parent</text>
<text text-anchor="middle" x="670.25" y="-837.2" font-family="Times,serif" font-size="14.00" fill="#000000">NONE</text>
<text text-anchor="middle" x="670.25" y="-820.7" font-family="Times,serif" font-size="14.00" fill="#000000">0x0</text>
<polyline fill="none" stroke="#d3c70d" points="697,-813.5 697,-871"/>
<text text-anchor="middle" x="723.75" y="-853.7" font-family="Times,serif" font-size="14.00" fill="#000000">Right</text>
<text text-anchor="middle" x="723.75" y="-837.2" font-family="Times,serif" font-size="14.00" fill="#000000">NONE</text>
<text text-anchor="middle" x="723.75" y="-820.7" font-family="Times,serif" font-size="14.00" fill="#000000">0x0</text>
</g>
<!-- node0x105900a10 -->
<g id="node2" class="node">
<title>node0x105900a10</title>
<path fill="#fbee21" stroke="#d3c70d" d="M494.25,-678C494.25,-678 704.25,-678 704.25,-678 710.25,-678 716.25,-684 716.25,-690 716.25,-690 716.25,-764.5 716.25,-764.5 716.25,-770.5 710.25,-776.5 704.25,-776.5 704.25,-776.5 494.25,-776.5 494.25,-776.5 488.25,-776.5 482.25,-770.5 482.25,-764.5 482.25,-764.5 482.25,-690 482.25,-690 482.25,-684 488.25,-678 494.25,-678"/>
<text text-anchor="middle" x="599.25" y="-759.2" font-family="Times,serif" font-size="14.00" fill="#000000">/</text>
<text text-anchor="middle" x="599.25" y="-742.7" font-family="Times,serif" font-size="14.00" fill="#000000">0x105900a10</text>
<polyline fill="none" stroke="#d3c70d" points="482.25,-735.5 716.25,-735.5"/>
<text text-anchor="middle" x="527.38" y="-718.2" font-family="Times,serif" font-size="14.00" fill="#000000">Left</text>
<text text-anchor="middle" x="527.38" y="-701.7" font-family="Times,serif" font-size="14.00" fill="#000000">&#45;</text>
<text text-anchor="middle" x="527.38" y="-685.2" font-family="Times,serif" font-size="14.00" fill="#000000">0x105900850</text>
<polyline fill="none" stroke="#d3c70d" points="572.5,-678 572.5,-735.5"/>
<text text-anchor="middle" x="617.62" y="-718.2" font-family="Times,serif" font-size="14.00" fill="#000000">Parent</text>
<text text-anchor="middle" x="617.62" y="-701.7" font-family="Times,serif" font-size="14.00" fill="#000000">sin</text>
<text text-anchor="middle" x="617.62" y="-685.2" font-family="Times,serif" font-size="14.00" fill="#000000">0x105900b90</text>
<polyline fill="none" stroke="#d3c70d" points="662.75,-678 662.75,-735.5"/>
<text text-anchor="middle" x="689.5" y="-718.2" font-family="Times,serif" font-size="14.00" fill="#000000">Right</text>
<text text-anchor="middle" x="689.5" y="-701.7" font-family="Times,serif" font-size="14.00" fill="#000000">NONE</text>
<text text-anchor="middle" x="689.5" y="-685.2" font-family="Times,serif" font-size="14.00" fill="#000000">0x0</text>
</g>
<!-- node0x105900b90&#45;&gt;node0x105900a10 -->
<g id="edge1" class="edge">
<title>node0x105900b90:left&#45;&gt;node0x105900a10</title>
<path fill="none" stroke="#187ae8" stroke-width="2" d="M598.75,-813C598.75,-804.91 598.77,-796.38 598.81,-787.98"/>
<polygon fill="#187ae8" stroke="#187ae8" stroke-width="2" points="602.3,-789.7 598.85,-779.68 595.3,-789.66 602.3,-789.7"/>
</g>
<!-- node0x105900850 -->
<g id="node3" class="node">
<title>node0x105900850</title>
<path fill="#f18805" stroke="#af3800" d="M423.62,-542.5C423.62,-542.5 632.88,-542.5 632.88,-542.5 638.88,-542.5 644.88,-548.5 644.88,-554.5 644.88,-554.5 644.88,-629 644.88,-629 644.88,-635 638.88,-641 632.88,-641 632.88,-641 423.62,-641 423.62,-641 417.62,-641 411.62,-635 411.62,-629 411.62,-629 411.62,-554.5 411.62,-554.5 411.62,-548.5 417.62,-542.5 423.62,-542.5"/>
<text text-anchor="middle" x="528.25" y="-623.7" font-family="Times,serif" font-size="14.00" fill="#000000">&#45;</text>
<text text-anchor="middle" x="528.25" y="-607.2" font-family="Times,serif" font-size="14.00" fill="#000000">0x105900850</text>
<polyline fill="none" stroke="#af3800" points="411.62,-600 644.88,-600"/>
<text text-anchor="middle" x="456.75" y="-582.7" font-family="Times,serif" font-size="14.00" fill="#000000">Left</text>
<text text-anchor="middle" x="456.75" y="-566.2" font-family="Times,serif" font-size="14.00" fill="#000000">*</text>
<text text-anchor="middle" x="456.75" y="-549.7" font-family="Times,serif" font-size="14.00" fill="#000000">0x105900910</text>
<polyline fill="none" stroke="#af3800" points="501.88,-542.5 501.88,-600"/>
<text text-anchor="middle" x="546.62" y="-582.7" font-family="Times,serif" font-size="14.00" fill="#000000">Parent</text>
<text text-anchor="middle" x="546.62" y="-566.2" font-family="Times,serif" font-size="14.00" fill="#000000">/</text>
<text text-anchor="middle" x="546.62" y="-549.7" font-family="Times,serif" font-size="14.00" fill="#000000">0x105900a10</text>
<polyline fill="none" stroke="#af3800" points="591.38,-542.5 591.38,-600"/>
<text text-anchor="middle" x="618.12" y="-582.7" font-family="Times,serif" font-size="14.00" fill="#000000">Right</text>
<text text-anchor="middle" x="618.12" y="-566.2" font-family="Times,serif" font-size="14.00" fill="#000000">NONE</text>
<text text-anchor="middle" x="618.12" y="-549.7" font-family="Times,serif" font-size="14.00" fill="#000000">0x0</text>
</g>
<!-- node0x105900a10&#45;&gt;node0x105900850 -->
<g id="edge2" class="edge">
<title>node0x105900a10:left&#45;&gt;node0x105900850</title>
<path fill="none" stroke="#187ae8" stroke-width="2" d="M527.38,-677.5C527.38,-669.41 527.42,-660.88 527.48,-652.48"/>
<polygon fill="#187ae8" stroke="#187ae8" stroke-width="2" points="530.96,-654.21 527.55,-644.18 523.96,-654.15 530.96,-654.21"/>
</g>
<!-- node0x105900910 -->
<g id="node4" class="node">
<title>node0x105900910</title>
<path fill="#fbee21" stroke="#d3c70d" d="M333.88,-407C333.88,-407 580.62,-407 580.62,-407 586.62,-407 592.62,-413 592.62,-419 592.62,-419 592.62,-493.5 592.62,-493.5 592.62,-499.5 586.62,-505.5 580.62,-505.5 580.62,-505.5 333.88,-505.5 333.88,-505.5 327.88,-505.5 321.88,-499.5 321.88,-493.5 321.88,-493.5 321.88,-419 321.88,-419 321.88,-413 327.88,-407 333.88,-407"/>
<text text-anchor="middle" x="457.25" y="-488.2" font-family="Times,serif" font-size="14.00" fill="#000000">*</text>
<text text-anchor="middle" x="457.25" y="-471.7" font-family="Times,serif" font-size="14.00" fill="#000000">0x105900910</text>
<polyline fill="none" stroke="#d3c70d" points="321.88,-464.5 592.62,-464.5"/>
<text text-anchor="middle" x="367" y="-447.2" font-family="Times,serif" font-size="14.00" fill="#000000">Left</text>
<text text-anchor="middle" x="367" y="-430.7" font-family="Times,serif" font-size="14.00" fill="#000000">^</text>
<text text-anchor="middle" x="367" y="-414.2" font-family="Times,serif" font-size="14.00" fill="#000000">0x105900990</text>
<polyline fill="none" stroke="#d3c70d" points="412.12,-407 412.12,-464.5"/>
<text text-anchor="middle" x="457.25" y="-447.2" font-family="Times,serif" font-size="14.00" fill="#000000">Parent</text>
<text text-anchor="middle" x="457.25" y="-430.7" font-family="Times,serif" font-size="14.00" fill="#000000">&#45;</text>
<text text-anchor="middle" x="457.25" y="-414.2" font-family="Times,serif" font-size="14.00" fill="#000000">0x105900850</text>
<polyline fill="none" stroke="#d3c70d" points="502.38,-407 502.38,-464.5"/>
<text text-anchor="middle" x="547.5" y="-447.2" font-family="Times,serif" font-size="14.00" fill="#000000">Right</text>
<text text-anchor="middle" x="547.5" y="-430.7" font-family="Times,serif" font-size="14.00" fill="#000000">y</text>
<text text-anchor="middle" x="547.5" y="-414.2" font-family="Times,serif" font-size="14.00" fill="#000000">0x105900890</text>
</g>
<!-- node0x105900850&#45;&gt;node0x105900910 -->
<g id="edge3" class="edge">
<title>node0x105900850:left&#45;&gt;node0x105900910</title>
<path fill="none" stroke="#187ae8" stroke-width="2" d="M456.75,-542C456.75,-533.91 456.77,-525.38 456.81,-516.98"/>
<polygon fill="#187ae8" stroke="#187ae8" stroke-width="2" points="460.3,-518.7 456.85,-508.68 453.3,-518.66 460.3,-518.7"/>
</g>
<!-- node0x105900990 -->
<g id="node5" class="node">
<title>node0x105900990</title>
<path fill="#fbee21" stroke="#d3c70d" d="M208.25,-271.5C208.25,-271.5 454.25,-271.5 454.25,-271.5 460.25,-271.5 466.25,-277.5 466.25,-283.5 466.25,-283.5 466.25,-358 466.25,-358 466.25,-364 460.25,-370 454.25,-370 454.25,-370 208.25,-370 208.25,-370 202.25,-370 196.25,-364 196.25,-358 196.25,-358 196.25,-283.5 196.25,-283.5 196.25,-277.5 202.25,-271.5 208.25,-271.5"/>
<text text-anchor="middle" x="331.25" y="-352.7" font-family="Times,serif" font-size="14.00" fill="#000000">^</text>
<text text-anchor="middle" x="331.25" y="-336.2" font-family="Times,serif" font-size="14.00" fill="#000000">0x105900990</text>
<polyline fill="none" stroke="#d3c70d" points="196.25,-329 466.25,-329"/>
<text text-anchor="middle" x="241" y="-311.7" font-family="Times,serif" font-size="14.00" fill="#000000">Left</text>
<text text-anchor="middle" x="241" y="-295.2" font-family="Times,serif" font-size="14.00" fill="#000000">+</text>
<text text-anchor="middle" x="241" y="-278.7" font-family="Times,serif" font-size="14.00" fill="#000000">0x105900a90</text>
<polyline fill="none" stroke="#d3c70d" points="285.75,-271.5 285.75,-329"/>
<text text-anchor="middle" x="330.88" y="-311.7" font-family="Times,serif" font-size="14.00" fill="#000000">Parent</text>
<text text-anchor="middle" x="330.88" y="-295.2" font-family="Times,serif" font-size="14.00" fill="#000000">*</text>
<text text-anchor="middle" x="330.88" y="-278.7" font-family="Times,serif" font-size="14.00" fill="#000000">0x105900910</text>
<polyline fill="none" stroke="#d3c70d" points="376,-271.5 376,-329"/>
<text text-anchor="middle" x="421.12" y="-311.7" font-family="Times,serif" font-size="14.00" fill="#000000">Right</text>
<text text-anchor="middle" x="421.12" y="-295.2" font-family="Times,serif" font-size="14.00" fill="#000000">x</text>
<text text-anchor="middle" x="421.12" y="-278.7" font-family="Times,serif" font-size="14.00" fill="#000000">0x105900950</text>
</g>
<!-- node0x105900910&#45;&gt;node0x105900990 -->
<g id="edge4" class="edge">
<title>node0x105900910:left&#45;&gt;node0x105900990</title>
<path fill="none" stroke="#187ae8" stroke-width="2" d="M367,-406.5C367,-397.95 365.44,-389.27 362.96,-380.89"/>
<polygon fill="#187ae8" stroke="#187ae8" stroke-width="2" points="366.79,-381.25 360.23,-372.94 360.17,-383.53 366.79,-381.25"/>
</g>
<!-- node0x105900890 -->
<g id="node10" class="node">
<title>node0x105900890</title>
<path fill="#d5cfe1" stroke="#8797b2" d="M496.62,-271.5C496.62,-271.5 669.88,-271.5 669.88,-271.5 675.88,-271.5 681.88,-277.5 681.88,-283.5 681.88,-283.5 681.88,-358 681.88,-358 681.88,-364 675.88,-370 669.88,-370 669.88,-370 496.62,-370 496.62,-370 490.62,-370 484.62,-364 484.62,-358 484.62,-358 484.62,-283.5 484.62,-283.5 484.62,-277.5 490.62,-271.5 496.62,-271.5"/>
<text text-anchor="middle" x="583.25" y="-352.7" font-family="Times,serif" font-size="14.00" fill="#000000">y</text>
<text text-anchor="middle" x="583.25" y="-336.2" font-family="Times,serif" font-size="14.00" fill="#000000">0x105900890</text>
<polyline fill="none" stroke="#8797b2" points="484.62,-329 681.88,-329"/>
<text text-anchor="middle" x="511.38" y="-311.7" font-family="Times,serif" font-size="14.00" fill="#000000">Left</text>
<text text-anchor="middle" x="511.38" y="-295.2" font-family="Times,serif" font-size="14.00" fill="#000000">NONE</text>
<text text-anchor="middle" x="511.38" y="-278.7" font-family="Times,serif" font-size="14.00" fill="#000000">0x0</text>
<polyline fill="none" stroke="#8797b2" points="538.12,-271.5 538.12,-329"/>
<text text-anchor="middle" x="583.25" y="-311.7" font-family="Times,serif" font-size="14.00" fill="#000000">Parent</text>
<text text-anchor="middle" x="583.25" y="-295.2" font-family="Times,serif" font-size="14.00" fill="#000000">*</text>
<text text-anchor="middle" x="583.25" y="-278.7" font-family="Times,serif" font-size="14.00" fill="#000000">0x105900910</text>
<polyline fill="none" stroke="#8797b2" points="628.38,-271.5 628.38,-329"/>
<text text-anchor="middle" x="655.12" y="-311.7" font-family="Times,serif" font-size="14.00" fill="#000000">Right</text>
<text text-anchor="middle" x="655.12" y="-295.2" font-family="Times,serif" font-size="14.00" fill="#000000">NONE</text>
<text text-anchor="middle" x="655.12" y="-278.7" font-family="Times,serif" font-size="14.00" fill="#000000">0x0</text>
</g>
<!-- node0x105900910&#45;&gt;node0x105900890 -->
<g id="edge9" class="edge">
<title>node0x105900910:right&#45;&gt;node0x105900890</title>
<path fill="none" stroke="#48e818" stroke-width="2" d="M547.5,-406.5C547.5,-397.95 549.06,-389.27 551.54,-380.89"/>
<polygon fill="#48e818" stroke="#48e818" stroke-width="2" points="554.33,-383.53 554.27,-372.94 547.71,-381.25 554.33,-383.53"/>
</g>
<!-- node0x105900a90 -->
<g id="node6" class="node">
<title>node0x105900a90</title>
<path fill="#fbee21" stroke="#d3c70d" d="M82.62,-136C82.62,-136 327.88,-136 327.88,-136 333.88,-136 339.88,-142 339.88,-148 339.88,-148 339.88,-222.5 339.88,-222.5 339.88,-228.5 333.88,-234.5 327.88,-234.5 327.88,-234.5 82.62,-234.5 82.62,-234.5 76.62,-234.5 70.62,-228.5 70.62,-222.5 70.62,-222.5 70.62,-148 70.62,-148 70.62,-142 76.62,-136 82.62,-136"/>
<text text-anchor="middle" x="205.25" y="-217.2" font-family="Times,serif" font-size="14.00" fill="#000000">+</text>
<text text-anchor="middle" x="205.25" y="-200.7" font-family="Times,serif" font-size="14.00" fill="#000000">0x105900a90</text>
<polyline fill="none" stroke="#d3c70d" points="70.62,-193.5 339.88,-193.5"/>
<text text-anchor="middle" x="115.38" y="-176.2" font-family="Times,serif" font-size="14.00" fill="#000000">Left</text>
<text text-anchor="middle" x="115.38" y="-159.7" font-family="Times,serif" font-size="14.00" fill="#000000">1</text>
<text text-anchor="middle" x="115.38" y="-143.2" font-family="Times,serif" font-size="14.00" fill="#000000">0x105900ad0</text>
<polyline fill="none" stroke="#d3c70d" points="160.12,-136 160.12,-193.5"/>
<text text-anchor="middle" x="205.25" y="-176.2" font-family="Times,serif" font-size="14.00" fill="#000000">Parent</text>
<text text-anchor="middle" x="205.25" y="-159.7" font-family="Times,serif" font-size="14.00" fill="#000000">^</text>
<text text-anchor="middle" x="205.25" y="-143.2" font-family="Times,serif" font-size="14.00" fill="#000000">0x105900990</text>
<polyline fill="none" stroke="#d3c70d" points="250.38,-136 250.38,-193.5"/>
<text text-anchor="middle" x="295.12" y="-176.2" font-family="Times,serif" font-size="14.00" fill="#000000">Right</text>
<text text-anchor="middle" x="295.12" y="-159.7" font-family="Times,serif" font-size="14.00" fill="#000000">x</text>
<text text-anchor="middle" x="295.12" y="-143.2" font-family="Times,serif" font-size="14.00" fill="#000000">0x105900a50</text>
</g>
<!-- node0x105900990&#45;&gt;node0x105900a90 -->
<g id="edge5" class="edge">
<title>node0x105900990:left&#45;&gt;node0x105900a90</title>
<path fill="none" stroke="#187ae8" stroke-width="2" d="M241,-271C241,-262.45 239.44,-253.77 236.96,-245.39"/>
<polygon fill="#187ae8" stroke="#187ae8" stroke-width="2" points="240.79,-245.75 234.23,-237.44 234.17,-248.03 240.79,-245.75"/>
</g>
<!-- node0x105900950 -->
<g id="node9" class="node">
<title>node0x105900950</title>
<path fill="#d5cfe1" stroke="#8797b2" d="M369.62,-136C369.62,-136 542.88,-136 542.88,-136 548.88,-136 554.88,-142 554.88,-148 554.88,-148 554.88,-222.5 554.88,-222.5 554.88,-228.5 548.88,-234.5 542.88,-234.5 542.88,-234.5 369.62,-234.5 369.62,-234.5 363.62,-234.5 357.62,-228.5 357.62,-222.5 357.62,-222.5 357.62,-148 357.62,-148 357.62,-142 363.62,-136 369.62,-136"/>
<text text-anchor="middle" x="456.25" y="-217.2" font-family="Times,serif" font-size="14.00" fill="#000000">x</text>
<text text-anchor="middle" x="456.25" y="-200.7" font-family="Times,serif" font-size="14.00" fill="#000000">0x105900950</text>
<polyline fill="none" stroke="#8797b2" points="357.62,-193.5 554.88,-193.5"/>
<text text-anchor="middle" x="384.38" y="-176.2" font-family="Times,serif" font-size="14.00" fill="#000000">Left</text>
<text text-anchor="middle" x="384.38" y="-159.7" font-family="Times,serif" font-size="14.00" fill="#000000">NONE</text>
<text text-anchor="middle" x="384.38" y="-143.2" font-family="Times,serif" font-size="14.00" fill="#000000">0x0</text>
<polyline fill="none" stroke="#8797b2" points="411.12,-136 411.12,-193.5"/>
<text text-anchor="middle" x="456.25" y="-176.2" font-family="Times,serif" font-size="14.00" fill="#000000">Parent</text>
<text text-anchor="middle" x="456.25" y="-159.7" font-family="Times,serif" font-size="14.00" fill="#000000">^</text>
<text text-anchor="middle" x="456.25" y="-143.2" font-family="Times,serif" font-size="14.00" fill="#000000">0x105900990</text>
<polyline fill="none" stroke="#8797b2" points="501.38,-136 501.38,-193.5"/>
<text text-anchor="middle" x="528.12" y="-176.2" font-family="Times,serif" font-size="14.00" fill="#000000">Right</text>
<text text-anchor="middle" x="528.12" y="-159.7" font-family="Times,serif" font-size="14.00" fill="#000000">NONE</text>
<text text-anchor="middle" x="528.12" y="-143.2" font-family="Times,serif" font-size="14.00" fill="#000000">0x0</text>
</g>
<!-- node0x105900990&#45;&gt;node0x105900950 -->
<g id="edge8" class="edge">
<title>node0x105900990:right&#45;&gt;node0x105900950</title>
<path fill="none" stroke="#48e818" stroke-width="2" d="M421.12,-271C421.12,-262.47 422.66,-253.81 425.09,-245.43"/>
<polygon fill="#48e818" stroke="#48e818" stroke-width="2" points="427.89,-248.08 427.78,-237.49 421.26,-245.84 427.89,-248.08"/>
</g>
<!-- node0x105900ad0 -->
<g id="node7" class="node">
<title>node0x105900ad0</title>
<path fill="#bdef9e" stroke="#99c2a2" d="M12,-0.5C12,-0.5 184.5,-0.5 184.5,-0.5 190.5,-0.5 196.5,-6.5 196.5,-12.5 196.5,-12.5 196.5,-87 196.5,-87 196.5,-93 190.5,-99 184.5,-99 184.5,-99 12,-99 12,-99 6,-99 0,-93 0,-87 0,-87 0,-12.5 0,-12.5 0,-6.5 6,-0.5 12,-0.5"/>
<text text-anchor="middle" x="98.25" y="-81.7" font-family="Times,serif" font-size="14.00" fill="#000000">1</text>
<text text-anchor="middle" x="98.25" y="-65.2" font-family="Times,serif" font-size="14.00" fill="#000000">0x105900ad0</text>
<polyline fill="none" stroke="#99c2a2" points="0,-58 196.5,-58"/>
<text text-anchor="middle" x="26.75" y="-40.7" font-family="Times,serif" font-size="14.00" fill="#000000">Left</text>
<text text-anchor="middle" x="26.75" y="-24.2" font-family="Times,serif" font-size="14.00" fill="#000000">NONE</text>
<text text-anchor="middle" x="26.75" y="-7.7" font-family="Times,serif" font-size="14.00" fill="#000000">0x0</text>
<polyline fill="none" stroke="#99c2a2" points="53.5,-0.5 53.5,-58"/>
<text text-anchor="middle" x="98.25" y="-40.7" font-family="Times,serif" font-size="14.00" fill="#000000">Parent</text>
<text text-anchor="middle" x="98.25" y="-24.2" font-family="Times,serif" font-size="14.00" fill="#000000">+</text>
<text text-anchor="middle" x="98.25" y="-7.7" font-family="Times,serif" font-size="14.00" fill="#000000">0x105900a90</text>
<polyline fill="none" stroke="#99c2a2" points="143,-0.5 143,-58"/>
<text text-anchor="middle" x="169.75" y="-40.7" font-family="Times,serif" font-size="14.00" fill="#000000">Right</text>
<text text-anchor="middle" x="169.75" y="-24.2" font-family="Times,serif" font-size="14.00" fill="#000000">NONE</text>
<text text-anchor="middle" x="169.75" y="-7.7" font-family="Times,serif" font-size="14.00" fill="#000000">0x0</text>
</g>
<!-- node0x105900a90&#45;&gt;node0x105900ad0 -->
<g id="edge6" class="edge">
<title>node0x105900a90:left&#45;&gt;node0x105900ad0</title>
<path fill="none" stroke="#187ae8" stroke-width="2" d="M115.38,-135.5C115.38,-127.35 114.6,-118.84 113.39,-110.49"/>
<polygon fill="#187ae8" stroke="#187ae8" stroke-width="2" points="117.11,-111.52 111.99,-102.25 110.21,-112.69 117.11,-111.52"/>
</g>
<!-- node0x105900a50 -->
<g id="node8" class="node">
<title>node0x105900a50</title>
<path fill="#d5cfe1" stroke="#8797b2" d="M227,-0.5C227,-0.5 399.5,-0.5 399.5,-0.5 405.5,-0.5 411.5,-6.5 411.5,-12.5 411.5,-12.5 411.5,-87 411.5,-87 411.5,-93 405.5,-99 399.5,-99 399.5,-99 227,-99 227,-99 221,-99 215,-93 215,-87 215,-87 215,-12.5 215,-12.5 215,-6.5 221,-0.5 227,-0.5"/>
<text text-anchor="middle" x="313.25" y="-81.7" font-family="Times,serif" font-size="14.00" fill="#000000">x</text>
<text text-anchor="middle" x="313.25" y="-65.2" font-family="Times,serif" font-size="14.00" fill="#000000">0x105900a50</text>
<polyline fill="none" stroke="#8797b2" points="215,-58 411.5,-58"/>
<text text-anchor="middle" x="241.75" y="-40.7" font-family="Times,serif" font-size="14.00" fill="#000000">Left</text>
<text text-anchor="middle" x="241.75" y="-24.2" font-family="Times,serif" font-size="14.00" fill="#000000">NONE</text>
<text text-anchor="middle" x="241.75" y="-7.7" font-family="Times,serif" font-size="14.00" fill="#000000">0x0</text>
<polyline fill="none" stroke="#8797b2" points="268.5,-0.5 268.5,-58"/>
<text text-anchor="middle" x="313.25" y="-40.7" font-family="Times,serif" font-size="14.00" fill="#000000">Parent</text>
<text text-anchor="middle" x="313.25" y="-24.2" font-family="Times,serif" font-size="14.00" fill="#000000">+</text>
<text text-anchor="middle" x="313.25" y="-7.7" font-family="Times,serif" font-size="14.00" fill="#000000">0x105900a90</text>
<polyline fill="none" stroke="#8797b2" points="358,-0.5 358,-58"/>
<text text-anchor="middle" x="384.75" y="-40.7" font-family="Times,serif" font-size="14.00" fill="#000000">Right</text>
<text text-anchor="middle" x="384.75" y="-24.2" font-family="Times,serif" font-size="14.00" fill="#000000">NONE</text>
<text text-anchor="middle" x="384.75" y="-7.7" font-family="Times,serif" font-size="14.00" fill="#000000">0x0</text>
</g>
<!-- node0x105900a90&#45;&gt;node0x105900a50 -->
<g id="edge7" class="edge">
<title>node0x105900a90:right&#45;&gt;node0x105900a50</title>
<path fill="none" stroke="#48e818" stroke-width="2" d="M295.12,-135.5C295.12,-127.33 295.94,-118.81 297.23,-110.46"/>
<polygon fill="#48e818" stroke="#48e818" stroke-width="2" points="300.39,-112.66 298.7,-102.2 293.5,-111.43 300.39,-112.66"/>
</g>
</g>
</svg>
