<?xml version="1.0" encoding="UTF-8" standalone="no"?>
<!DOCTYPE svg PUBLIC "-//W3C//DTD SVG 1.1//EN"
 "http://www.w3.org/Graphics/SVG/1.1/DTD/svg11.dtd">
<!-- Generated by graphviz version 12.2.0 (20241103.1931)
 -->
<!-- Pages: 1 -->
<svg width="617pt" height="650pt"
 viewBox="0.00 0.00 617.25 649.50" xmlns="http://www.w3.org/2000/svg" xmlns:xlink="http://www.w3.org/1999/xlink">
<g id="graph0" class="graph" transform="scale(1 1) rotate(0) translate(4 645.5)">
<polygon fill="#dcdcdc" stroke="none" points="-4,4 -4,-645.5 613.25,-645.5 613.25,4 -4,4"/>
<!-- node0x103d004d0 -->
<g id="node1" class="node">
<title>node0x103d004d0</title>
<path fill="#f18805" stroke="#af3800" d="M180.62,-542.5C180.62,-542.5 390.62,-542.5 390.62,-542.5 396.62,-542.5 402.62,-548.5 402.62,-554.5 402.62,-554.5 402.62,-629 402.62,-629 402.62,-635 396.62,-641 390.62,-641 390.62,-641 180.62,-641 180.62,-641 174.62,-641 168.62,-635 168.62,-629 168.62,-629 168.62,-554.5 168.62,-554.5 168.62,-548.5 174.62,-542.5 180.62,-542.5"/>
<text text-anchor="middle" x="285.62" y="-623.7" font-family="Times,serif" font-size="14.00" fill="#000000">*</text>
<text text-anchor="middle" x="285.62" y="-607.2" font-family="Times,serif" font-size="14.00" fill="#000000">0x103d004d0</text>
<polyline fill="none" stroke="#af3800" points="168.62,-600 402.62,-600"/>
<text text-anchor="middle" x="213.75" y="-582.7" font-family="Times,serif" font-size="14.00" fill="#000000">Left</text>
<text text-anchor="middle" x="213.75" y="-566.2" font-family="Times,serif" font-size="14.00" fill="#000000">2</text>
<text text-anchor="middle" x="213.75" y="-549.7" font-family="Times,serif" font-size="14.00" fill="#000000">0x103d00490</text>
<polyline fill="none" stroke="#af3800" points="258.88,-542.5 258.88,-600"/>
<text text-anchor="middle" x="285.62" y="-582.7" font-family="Times,serif" font-size="14.00" fill="#000000">Parent</text>
<text text-anchor="middle" x="285.62" y="-566.2" font-family="Times,serif" font-size="14.00" fill="#000000">NONE</text>
<text text-anchor="middle" x="285.62" y="-549.7" font-family="Times,serif" font-size="14.00" fill="#000000">0x0</text>
<polyline fill="none" stroke="#af3800" points="312.38,-542.5 312.38,-600"/>
<text text-anchor="middle" x="357.5" y="-582.7" font-family="Times,serif" font-size="14.00" fill="#000000">Right</text>
<text text-anchor="middle" x="357.5" y="-566.2" font-family="Times,serif" font-size="14.00" fill="#000000">*</text>
<text text-anchor="middle" x="357.5" y="-549.7" font-family="Times,serif" font-size="14.00" fill="#000000">0x103d00310</text>
</g>
<!-- node0x103d00490 -->
<g id="node2" class="node">
<title>node0x103d00490</title>
<path fill="#bdef9e" stroke="#99c2a2" d="M110.38,-407C110.38,-407 246.88,-407 246.88,-407 252.88,-407 258.88,-413 258.88,-419 258.88,-419 258.88,-493.5 258.88,-493.5 258.88,-499.5 252.88,-505.5 246.88,-505.5 246.88,-505.5 110.38,-505.5 110.38,-505.5 104.38,-505.5 98.38,-499.5 98.38,-493.5 98.38,-493.5 98.38,-419 98.38,-419 98.38,-413 104.38,-407 110.38,-407"/>
<text text-anchor="middle" x="178.62" y="-488.2" font-family="Times,serif" font-size="14.00" fill="#000000">2</text>
<text text-anchor="middle" x="178.62" y="-471.7" font-family="Times,serif" font-size="14.00" fill="#000000">0x103d00490</text>
<polyline fill="none" stroke="#99c2a2" points="98.38,-464.5 258.88,-464.5"/>
<text text-anchor="middle" x="125.12" y="-447.2" font-family="Times,serif" font-size="14.00" fill="#000000">Left</text>
<text text-anchor="middle" x="125.12" y="-430.7" font-family="Times,serif" font-size="14.00" fill="#000000">NONE</text>
<text text-anchor="middle" x="125.12" y="-414.2" font-family="Times,serif" font-size="14.00" fill="#000000">0x0</text>
<polyline fill="none" stroke="#99c2a2" points="151.88,-407 151.88,-464.5"/>
<text text-anchor="middle" x="178.62" y="-447.2" font-family="Times,serif" font-size="14.00" fill="#000000">Parent</text>
<text text-anchor="middle" x="178.62" y="-430.7" font-family="Times,serif" font-size="14.00" fill="#000000">NONE</text>
<text text-anchor="middle" x="178.62" y="-414.2" font-family="Times,serif" font-size="14.00" fill="#000000">0x0</text>
<polyline fill="none" stroke="#99c2a2" points="205.38,-407 205.38,-464.5"/>
<text text-anchor="middle" x="232.12" y="-447.2" font-family="Times,serif" font-size="14.00" fill="#000000">Right</text>
<text text-anchor="middle" x="232.12" y="-430.7" font-family="Times,serif" font-size="14.00" fill="#000000">NONE</text>
<text text-anchor="middle" x="232.12" y="-414.2" font-family="Times,serif" font-size="14.00" fill="#000000">0x0</text>
</g>
<!-- node0x103d004d0&#45;&gt;node0x103d00490 -->
<g id="edge1" class="edge">
<title>node0x103d004d0:left&#45;&gt;node0x103d00490</title>
<path fill="none" stroke="#187ae8" stroke-width="2" d="M213.75,-542C213.75,-533.47 212.21,-524.81 209.78,-516.43"/>
<polygon fill="#187ae8" stroke="#187ae8" stroke-width="2" points="213.62,-516.84 207.1,-508.49 206.99,-519.08 213.62,-516.84"/>
</g>
<!-- node0x103d00310 -->
<g id="node3" class="node">
<title>node0x103d00310</title>
<path fill="#fbee21" stroke="#d3c70d" d="M288.62,-407C288.62,-407 498.62,-407 498.62,-407 504.62,-407 510.62,-413 510.62,-419 510.62,-419 510.62,-493.5 510.62,-493.5 510.62,-499.5 504.62,-505.5 498.62,-505.5 498.62,-505.5 288.62,-505.5 288.62,-505.5 282.62,-505.5 276.62,-499.5 276.62,-493.5 276.62,-493.5 276.62,-419 276.62,-419 276.62,-413 282.62,-407 288.62,-407"/>
<text text-anchor="middle" x="393.62" y="-488.2" font-family="Times,serif" font-size="14.00" fill="#000000">*</text>
<text text-anchor="middle" x="393.62" y="-471.7" font-family="Times,serif" font-size="14.00" fill="#000000">0x103d00310</text>
<polyline fill="none" stroke="#d3c70d" points="276.62,-464.5 510.62,-464.5"/>
<text text-anchor="middle" x="321.75" y="-447.2" font-family="Times,serif" font-size="14.00" fill="#000000">Left</text>
<text text-anchor="middle" x="321.75" y="-430.7" font-family="Times,serif" font-size="14.00" fill="#000000">exp</text>
<text text-anchor="middle" x="321.75" y="-414.2" font-family="Times,serif" font-size="14.00" fill="#000000">0x103d00390</text>
<polyline fill="none" stroke="#d3c70d" points="366.88,-407 366.88,-464.5"/>
<text text-anchor="middle" x="393.62" y="-447.2" font-family="Times,serif" font-size="14.00" fill="#000000">Parent</text>
<text text-anchor="middle" x="393.62" y="-430.7" font-family="Times,serif" font-size="14.00" fill="#000000">NONE</text>
<text text-anchor="middle" x="393.62" y="-414.2" font-family="Times,serif" font-size="14.00" fill="#000000">0x0</text>
<polyline fill="none" stroke="#d3c70d" points="420.38,-407 420.38,-464.5"/>
<text text-anchor="middle" x="465.5" y="-447.2" font-family="Times,serif" font-size="14.00" fill="#000000">Right</text>
<text text-anchor="middle" x="465.5" y="-430.7" font-family="Times,serif" font-size="14.00" fill="#000000">2</text>
<text text-anchor="middle" x="465.5" y="-414.2" font-family="Times,serif" font-size="14.00" fill="#000000">0x103d00350</text>
</g>
<!-- node0x103d004d0&#45;&gt;node0x103d00310 -->
<g id="edge7" class="edge">
<title>node0x103d004d0:right&#45;&gt;node0x103d00310</title>
<path fill="none" stroke="#48e818" stroke-width="2" d="M357.5,-542C357.5,-533.55 359.04,-524.97 361.48,-516.69"/>
<polygon fill="#48e818" stroke="#48e818" stroke-width="2" points="364.23,-519.45 364.18,-508.86 357.61,-517.18 364.23,-519.45"/>
</g>
<!-- node0x103d00390 -->
<g id="node4" class="node">
<title>node0x103d00390</title>
<path fill="#fbee21" stroke="#d3c70d" d="M171.62,-271.5C171.62,-271.5 381.62,-271.5 381.62,-271.5 387.62,-271.5 393.62,-277.5 393.62,-283.5 393.62,-283.5 393.62,-358 393.62,-358 393.62,-364 387.62,-370 381.62,-370 381.62,-370 171.62,-370 171.62,-370 165.62,-370 159.62,-364 159.62,-358 159.62,-358 159.62,-283.5 159.62,-283.5 159.62,-277.5 165.62,-271.5 171.62,-271.5"/>
<text text-anchor="middle" x="276.62" y="-352.7" font-family="Times,serif" font-size="14.00" fill="#000000">exp</text>
<text text-anchor="middle" x="276.62" y="-336.2" font-family="Times,serif" font-size="14.00" fill="#000000">0x103d00390</text>
<polyline fill="none" stroke="#d3c70d" points="159.62,-329 393.62,-329"/>
<text text-anchor="middle" x="204.75" y="-311.7" font-family="Times,serif" font-size="14.00" fill="#000000">Left</text>
<text text-anchor="middle" x="204.75" y="-295.2" font-family="Times,serif" font-size="14.00" fill="#000000">*</text>
<text text-anchor="middle" x="204.75" y="-278.7" font-family="Times,serif" font-size="14.00" fill="#000000">0x103d003d0</text>
<polyline fill="none" stroke="#d3c70d" points="249.88,-271.5 249.88,-329"/>
<text text-anchor="middle" x="295" y="-311.7" font-family="Times,serif" font-size="14.00" fill="#000000">Parent</text>
<text text-anchor="middle" x="295" y="-295.2" font-family="Times,serif" font-size="14.00" fill="#000000">*</text>
<text text-anchor="middle" x="295" y="-278.7" font-family="Times,serif" font-size="14.00" fill="#000000">0x103d00310</text>
<polyline fill="none" stroke="#d3c70d" points="340.12,-271.5 340.12,-329"/>
<text text-anchor="middle" x="366.88" y="-311.7" font-family="Times,serif" font-size="14.00" fill="#000000">Right</text>
<text text-anchor="middle" x="366.88" y="-295.2" font-family="Times,serif" font-size="14.00" fill="#000000">NONE</text>
<text text-anchor="middle" x="366.88" y="-278.7" font-family="Times,serif" font-size="14.00" fill="#000000">0x0</text>
</g>
<!-- node0x103d00310&#45;&gt;node0x103d00390 -->
<g id="edge2" class="edge">
<title>node0x103d00310:left&#45;&gt;node0x103d00390</title>
<path fill="none" stroke="#187ae8" stroke-width="2" d="M321.75,-406.5C321.75,-397.71 319.84,-388.94 316.79,-380.57"/>
<polygon fill="#187ae8" stroke="#187ae8" stroke-width="2" points="320.7,-380.82 313.58,-372.98 314.26,-383.55 320.7,-380.82"/>
</g>
<!-- node0x103d00350 -->
<g id="node8" class="node">
<title>node0x103d00350</title>
<path fill="#bdef9e" stroke="#99c2a2" d="M424,-271.5C424,-271.5 597.25,-271.5 597.25,-271.5 603.25,-271.5 609.25,-277.5 609.25,-283.5 609.25,-283.5 609.25,-358 609.25,-358 609.25,-364 603.25,-370 597.25,-370 597.25,-370 424,-370 424,-370 418,-370 412,-364 412,-358 412,-358 412,-283.5 412,-283.5 412,-277.5 418,-271.5 424,-271.5"/>
<text text-anchor="middle" x="510.62" y="-352.7" font-family="Times,serif" font-size="14.00" fill="#000000">2</text>
<text text-anchor="middle" x="510.62" y="-336.2" font-family="Times,serif" font-size="14.00" fill="#000000">0x103d00350</text>
<polyline fill="none" stroke="#99c2a2" points="412,-329 609.25,-329"/>
<text text-anchor="middle" x="438.75" y="-311.7" font-family="Times,serif" font-size="14.00" fill="#000000">Left</text>
<text text-anchor="middle" x="438.75" y="-295.2" font-family="Times,serif" font-size="14.00" fill="#000000">NONE</text>
<text text-anchor="middle" x="438.75" y="-278.7" font-family="Times,serif" font-size="14.00" fill="#000000">0x0</text>
<polyline fill="none" stroke="#99c2a2" points="465.5,-271.5 465.5,-329"/>
<text text-anchor="middle" x="510.62" y="-311.7" font-family="Times,serif" font-size="14.00" fill="#000000">Parent</text>
<text text-anchor="middle" x="510.62" y="-295.2" font-family="Times,serif" font-size="14.00" fill="#000000">*</text>
<text text-anchor="middle" x="510.62" y="-278.7" font-family="Times,serif" font-size="14.00" fill="#000000">0x103d00310</text>
<polyline fill="none" stroke="#99c2a2" points="555.75,-271.5 555.75,-329"/>
<text text-anchor="middle" x="582.5" y="-311.7" font-family="Times,serif" font-size="14.00" fill="#000000">Right</text>
<text text-anchor="middle" x="582.5" y="-295.2" font-family="Times,serif" font-size="14.00" fill="#000000">NONE</text>
<text text-anchor="middle" x="582.5" y="-278.7" font-family="Times,serif" font-size="14.00" fill="#000000">0x0</text>
</g>
<!-- node0x103d00310&#45;&gt;node0x103d00350 -->
<g id="edge6" class="edge">
<title>node0x103d00310:right&#45;&gt;node0x103d00350</title>
<path fill="none" stroke="#48e818" stroke-width="2" d="M465.5,-406.5C465.5,-397.71 467.41,-388.94 470.46,-380.57"/>
<polygon fill="#48e818" stroke="#48e818" stroke-width="2" points="472.99,-383.55 473.67,-372.98 466.55,-380.82 472.99,-383.55"/>
</g>
<!-- node0x103d003d0 -->
<g id="node5" class="node">
<title>node0x103d003d0</title>
<path fill="#fbee21" stroke="#d3c70d" d="M82.25,-136C82.25,-136 329,-136 329,-136 335,-136 341,-142 341,-148 341,-148 341,-222.5 341,-222.5 341,-228.5 335,-234.5 329,-234.5 329,-234.5 82.25,-234.5 82.25,-234.5 76.25,-234.5 70.25,-228.5 70.25,-222.5 70.25,-222.5 70.25,-148 70.25,-148 70.25,-142 76.25,-136 82.25,-136"/>
<text text-anchor="middle" x="205.62" y="-217.2" font-family="Times,serif" font-size="14.00" fill="#000000">*</text>
<text text-anchor="middle" x="205.62" y="-200.7" font-family="Times,serif" font-size="14.00" fill="#000000">0x103d003d0</text>
<polyline fill="none" stroke="#d3c70d" points="70.25,-193.5 341,-193.5"/>
<text text-anchor="middle" x="115.38" y="-176.2" font-family="Times,serif" font-size="14.00" fill="#000000">Left</text>
<text text-anchor="middle" x="115.38" y="-159.7" font-family="Times,serif" font-size="14.00" fill="#000000">x</text>
<text text-anchor="middle" x="115.38" y="-143.2" font-family="Times,serif" font-size="14.00" fill="#000000">0x103d00450</text>
<polyline fill="none" stroke="#d3c70d" points="160.5,-136 160.5,-193.5"/>
<text text-anchor="middle" x="205.62" y="-176.2" font-family="Times,serif" font-size="14.00" fill="#000000">Parent</text>
<text text-anchor="middle" x="205.62" y="-159.7" font-family="Times,serif" font-size="14.00" fill="#000000">exp</text>
<text text-anchor="middle" x="205.62" y="-143.2" font-family="Times,serif" font-size="14.00" fill="#000000">0x103d00390</text>
<polyline fill="none" stroke="#d3c70d" points="250.75,-136 250.75,-193.5"/>
<text text-anchor="middle" x="295.88" y="-176.2" font-family="Times,serif" font-size="14.00" fill="#000000">Right</text>
<text text-anchor="middle" x="295.88" y="-159.7" font-family="Times,serif" font-size="14.00" fill="#000000">2</text>
<text text-anchor="middle" x="295.88" y="-143.2" font-family="Times,serif" font-size="14.00" fill="#000000">0x103d00410</text>
</g>
<!-- node0x103d00390&#45;&gt;node0x103d003d0 -->
<g id="edge3" class="edge">
<title>node0x103d00390:left&#45;&gt;node0x103d003d0</title>
<path fill="none" stroke="#187ae8" stroke-width="2" d="M204.75,-271C204.75,-262.91 204.79,-254.38 204.85,-245.98"/>
<polygon fill="#187ae8" stroke="#187ae8" stroke-width="2" points="208.34,-247.71 204.93,-237.68 201.34,-247.65 208.34,-247.71"/>
</g>
<!-- node0x103d00450 -->
<g id="node6" class="node">
<title>node0x103d00450</title>
<path fill="#d5cfe1" stroke="#8797b2" d="M12,-0.5C12,-0.5 185.25,-0.5 185.25,-0.5 191.25,-0.5 197.25,-6.5 197.25,-12.5 197.25,-12.5 197.25,-87 197.25,-87 197.25,-93 191.25,-99 185.25,-99 185.25,-99 12,-99 12,-99 6,-99 0,-93 0,-87 0,-87 0,-12.5 0,-12.5 0,-6.5 6,-0.5 12,-0.5"/>
<text text-anchor="middle" x="98.62" y="-81.7" font-family="Times,serif" font-size="14.00" fill="#000000">x</text>
<text text-anchor="middle" x="98.62" y="-65.2" font-family="Times,serif" font-size="14.00" fill="#000000">0x103d00450</text>
<polyline fill="none" stroke="#8797b2" points="0,-58 197.25,-58"/>
<text text-anchor="middle" x="26.75" y="-40.7" font-family="Times,serif" font-size="14.00" fill="#000000">Left</text>
<text text-anchor="middle" x="26.75" y="-24.2" font-family="Times,serif" font-size="14.00" fill="#000000">NONE</text>
<text text-anchor="middle" x="26.75" y="-7.7" font-family="Times,serif" font-size="14.00" fill="#000000">0x0</text>
<polyline fill="none" stroke="#8797b2" points="53.5,-0.5 53.5,-58"/>
<text text-anchor="middle" x="98.62" y="-40.7" font-family="Times,serif" font-size="14.00" fill="#000000">Parent</text>
<text text-anchor="middle" x="98.62" y="-24.2" font-family="Times,serif" font-size="14.00" fill="#000000">*</text>
<text text-anchor="middle" x="98.62" y="-7.7" font-family="Times,serif" font-size="14.00" fill="#000000">0x103d003d0</text>
<polyline fill="none" stroke="#8797b2" points="143.75,-0.5 143.75,-58"/>
<text text-anchor="middle" x="170.5" y="-40.7" font-family="Times,serif" font-size="14.00" fill="#000000">Right</text>
<text text-anchor="middle" x="170.5" y="-24.2" font-family="Times,serif" font-size="14.00" fill="#000000">NONE</text>
<text text-anchor="middle" x="170.5" y="-7.7" font-family="Times,serif" font-size="14.00" fill="#000000">0x0</text>
</g>
<!-- node0x103d003d0&#45;&gt;node0x103d00450 -->
<g id="edge4" class="edge">
<title>node0x103d003d0:left&#45;&gt;node0x103d00450</title>
<path fill="none" stroke="#187ae8" stroke-width="2" d="M115.38,-135.5C115.38,-127.35 114.62,-118.85 113.43,-110.51"/>
<polygon fill="#187ae8" stroke="#187ae8" stroke-width="2" points="117.15,-111.56 112.07,-102.26 110.25,-112.7 117.15,-111.56"/>
</g>
<!-- node0x103d00410 -->
<g id="node7" class="node">
<title>node0x103d00410</title>
<path fill="#bdef9e" stroke="#99c2a2" d="M227,-0.5C227,-0.5 400.25,-0.5 400.25,-0.5 406.25,-0.5 412.25,-6.5 412.25,-12.5 412.25,-12.5 412.25,-87 412.25,-87 412.25,-93 406.25,-99 400.25,-99 400.25,-99 227,-99 227,-99 221,-99 215,-93 215,-87 215,-87 215,-12.5 215,-12.5 215,-6.5 221,-0.5 227,-0.5"/>
<text text-anchor="middle" x="313.62" y="-81.7" font-family="Times,serif" font-size="14.00" fill="#000000">2</text>
<text text-anchor="middle" x="313.62" y="-65.2" font-family="Times,serif" font-size="14.00" fill="#000000">0x103d00410</text>
<polyline fill="none" stroke="#99c2a2" points="215,-58 412.25,-58"/>
<text text-anchor="middle" x="241.75" y="-40.7" font-family="Times,serif" font-size="14.00" fill="#000000">Left</text>
<text text-anchor="middle" x="241.75" y="-24.2" font-family="Times,serif" font-size="14.00" fill="#000000">NONE</text>
<text text-anchor="middle" x="241.75" y="-7.7" font-family="Times,serif" font-size="14.00" fill="#000000">0x0</text>
<polyline fill="none" stroke="#99c2a2" points="268.5,-0.5 268.5,-58"/>
<text text-anchor="middle" x="313.62" y="-40.7" font-family="Times,serif" font-size="14.00" fill="#000000">Parent</text>
<text text-anchor="middle" x="313.62" y="-24.2" font-family="Times,serif" font-size="14.00" fill="#000000">*</text>
<text text-anchor="middle" x="313.62" y="-7.7" font-family="Times,serif" font-size="14.00" fill="#000000">0x103d003d0</text>
<polyline fill="none" stroke="#99c2a2" points="358.75,-0.5 358.75,-58"/>
<text text-anchor="middle" x="385.5" y="-40.7" font-family="Times,serif" font-size="14.00" fill="#000000">Right</text>
<text text-anchor="middle" x="385.5" y="-24.2" font-family="Times,serif" font-size="14.00" fill="#000000">NONE</text>
<text text-anchor="middle" x="385.5" y="-7.7" font-family="Times,serif" font-size="14.00" fill="#000000">0x0</text>
</g>
<!-- node0x103d003d0&#45;&gt;node0x103d00410 -->
<g id="edge5" class="edge">
<title>node0x103d003d0:right&#45;&gt;node0x103d00410</title>
<path fill="none" stroke="#48e818" stroke-width="2" d="M295.88,-135.5C295.88,-127.34 296.67,-118.82 297.93,-110.47"/>
<polygon fill="#48e818" stroke="#48e818" stroke-width="2" points="301.1,-112.67 299.38,-102.22 294.21,-111.46 301.1,-112.67"/>
</g>
</g>
</svg>
