<?xml version="1.0" encoding="UTF-8" standalone="no"?>
<!DOCTYPE svg PUBLIC "-//W3C//DTD SVG 1.1//EN"
 "http://www.w3.org/Graphics/SVG/1.1/DTD/svg11.dtd">
<!-- Generated by graphviz version 12.2.0 (20241103.1931)
 -->
<!-- Pages: 1 -->
<svg width="563pt" height="650pt"
 viewBox="0.00 0.00 562.88 649.50" xmlns="http://www.w3.org/2000/svg" xmlns:xlink="http://www.w3.org/1999/xlink">
<g id="graph0" class="graph" transform="scale(1 1) rotate(0) translate(4 645.5)">
<polygon fill="#dcdcdc" stroke="none" points="-4,4 -4,-645.5 558.88,-645.5 558.88,4 -4,4"/>
<!-- node0x105900b90 -->
<g id="node1" class="node">
<title>node0x105900b90</title>
<path fill="#fbee21" stroke="#d3c70d" d="M368,-542.5C368,-542.5 540.5,-542.5 540.5,-542.5 546.5,-542.5 552.5,-548.5 552.5,-554.5 552.5,-554.5 552.5,-629 552.5,-629 552.5,-635 546.5,-641 540.5,-641 540.5,-641 368,-641 368,-641 362,-641 356,-635 356,-629 356,-629 356,-554.5 356,-554.5 356,-548.5 362,-542.5 368,-542.5"/>
<text text-anchor="middle" x="454.25" y="-623.7" font-family="Times,serif" font-size="14.00" fill="#000000">sin</text>
<text text-anchor="middle" x="454.25" y="-607.2" font-family="Times,serif" font-size="14.00" fill="#000000">0x105900b90</text>
<polyline fill="none" stroke="#d3c70d" points="356,-600 552.5,-600"/>
<text text-anchor="middle" x="400.75" y="-582.7" font-family="Times,serif" font-size="14.00" fill="#000000">Left</text>
<text text-anchor="middle" x="400.75" y="-566.2" font-family="Times,serif" font-size="14.00" fill="#000000">/</text>
<text text-anchor="middle" x="400.75" y="-549.7" font-family="Times,serif" font-size="14.00" fill="#000000">0x105900a10</text>
<polyline fill="none" stroke="#d3c70d" points="445.5,-542.5 445.5,-600"/>
<text text-anchor="middle" x="472.25" y="-582.7" font-family="Times,serif" font-size="14.00" fill="#000000">Parent</text>
<text text-anchor="middle" x="472.25" y="-566.2" font-family="Times,serif" font-size="14.00" fill="#000000">NONE</text>
<text text-anchor="middle" x="472.25" y="-549.7" font-family="Times,serif" font-size="14.00" fill="#000000">0x0</text>
<polyline fill="none" stroke="#d3c70d" points="499,-542.5 499,-600"/>
<text text-anchor="middle" x="525.75" y="-582.7" font-family="Times,serif" font-size="14.00" fill="#000000">Right</text>
<text text-anchor="middle" x="525.75" y="-566.2" font-family="Times,serif" font-size="14.00" fill="#000000">NONE</text>
<text text-anchor="middle" x="525.75" y="-549.7" font-family="Times,serif" font-size="14.00" fill="#000000">0x0</text>
</g>
<!-- node0x105900a10 -->
<g id="node2" class="node">
<title>node0x105900a10</title>
<path fill="#f18805" stroke="#af3800" d="M296.25,-407C296.25,-407 506.25,-407 506.25,-407 512.25,-407 518.25,-413 518.25,-419 518.25,-419 518.25,-493.5 518.25,-493.5 518.25,-499.5 512.25,-505.5 506.25,-505.5 506.25,-505.5 296.25,-505.5 296.25,-505.5 290.25,-505.5 284.25,-499.5 284.25,-493.5 284.25,-493.5 284.25,-419 284.25,-419 284.25,-413 290.25,-407 296.25,-407"/>
<text text-anchor="middle" x="401.25" y="-488.2" font-family="Times,serif" font-size="14.00" fill="#000000">/</text>
<text text-anchor="middle" x="401.25" y="-471.7" font-family="Times,serif" font-size="14.00" fill="#000000">0x105900a10</text>
<polyline fill="none" stroke="#af3800" points="284.25,-464.5 518.25,-464.5"/>
<text text-anchor="middle" x="329.38" y="-447.2" font-family="Times,serif" font-size="14.00" fill="#000000">Left</text>
<text text-anchor="middle" x="329.38" y="-430.7" font-family="Times,serif" font-size="14.00" fill="#000000">^</text>
<text text-anchor="middle" x="329.38" y="-414.2" font-family="Times,serif" font-size="14.00" fill="#000000">0x105900990</text>
<polyline fill="none" stroke="#af3800" points="374.5,-407 374.5,-464.5"/>
<text text-anchor="middle" x="419.62" y="-447.2" font-family="Times,serif" font-size="14.00" fill="#000000">Parent</text>
<text text-anchor="middle" x="419.62" y="-430.7" font-family="Times,serif" font-size="14.00" fill="#000000">sin</text>
<text text-anchor="middle" x="419.62" y="-414.2" font-family="Times,serif" font-size="14.00" fill="#000000">0x105900b90</text>
<polyline fill="none" stroke="#af3800" points="464.75,-407 464.75,-464.5"/>
<text text-anchor="middle" x="491.5" y="-447.2" font-family="Times,serif" font-size="14.00" fill="#000000">Right</text>
<text text-anchor="middle" x="491.5" y="-430.7" font-family="Times,serif" font-size="14.00" fill="#000000">NONE</text>
<text text-anchor="middle" x="491.5" y="-414.2" font-family="Times,serif" font-size="14.00" fill="#000000">0x0</text>
</g>
<!-- node0x105900b90&#45;&gt;node0x105900a10 -->
<g id="edge1" class="edge">
<title>node0x105900b90:left&#45;&gt;node0x105900a10</title>
<path fill="none" stroke="#187ae8" stroke-width="2" d="M400.75,-542C400.75,-533.91 400.77,-525.38 400.81,-516.98"/>
<polygon fill="#187ae8" stroke="#187ae8" stroke-width="2" points="404.3,-518.7 400.85,-508.68 397.3,-518.66 404.3,-518.7"/>
</g>
<!-- node0x105900990 -->
<g id="node3" class="node">
<title>node0x105900990</title>
<path fill="#fbee21" stroke="#d3c70d" d="M207.62,-271.5C207.62,-271.5 452.88,-271.5 452.88,-271.5 458.88,-271.5 464.88,-277.5 464.88,-283.5 464.88,-283.5 464.88,-358 464.88,-358 464.88,-364 458.88,-370 452.88,-370 452.88,-370 207.62,-370 207.62,-370 201.62,-370 195.62,-364 195.62,-358 195.62,-358 195.62,-283.5 195.62,-283.5 195.62,-277.5 201.62,-271.5 207.62,-271.5"/>
<text text-anchor="middle" x="330.25" y="-352.7" font-family="Times,serif" font-size="14.00" fill="#000000">^</text>
<text text-anchor="middle" x="330.25" y="-336.2" font-family="Times,serif" font-size="14.00" fill="#000000">0x105900990</text>
<polyline fill="none" stroke="#d3c70d" points="195.62,-329 464.88,-329"/>
<text text-anchor="middle" x="240.38" y="-311.7" font-family="Times,serif" font-size="14.00" fill="#000000">Left</text>
<text text-anchor="middle" x="240.38" y="-295.2" font-family="Times,serif" font-size="14.00" fill="#000000">+</text>
<text text-anchor="middle" x="240.38" y="-278.7" font-family="Times,serif" font-size="14.00" fill="#000000">0x105900a90</text>
<polyline fill="none" stroke="#d3c70d" points="285.12,-271.5 285.12,-329"/>
<text text-anchor="middle" x="329.88" y="-311.7" font-family="Times,serif" font-size="14.00" fill="#000000">Parent</text>
<text text-anchor="middle" x="329.88" y="-295.2" font-family="Times,serif" font-size="14.00" fill="#000000">/</text>
<text text-anchor="middle" x="329.88" y="-278.7" font-family="Times,serif" font-size="14.00" fill="#000000">0x105900a10</text>
<polyline fill="none" stroke="#d3c70d" points="374.62,-271.5 374.62,-329"/>
<text text-anchor="middle" x="419.75" y="-311.7" font-family="Times,serif" font-size="14.00" fill="#000000">Right</text>
<text text-anchor="middle" x="419.75" y="-295.2" font-family="Times,serif" font-size="14.00" fill="#000000">x</text>
<text text-anchor="middle" x="419.75" y="-278.7" font-family="Times,serif" font-size="14.00" fill="#000000">0x105900950</text>
</g>
<!-- node0x105900a10&#45;&gt;node0x105900990 -->
<g id="edge2" class="edge">
<title>node0x105900a10:left&#45;&gt;node0x105900990</title>
<path fill="none" stroke="#187ae8" stroke-width="2" d="M329.38,-406.5C329.38,-398.41 329.42,-389.88 329.48,-381.48"/>
<polygon fill="#187ae8" stroke="#187ae8" stroke-width="2" points="332.96,-383.21 329.55,-373.18 325.96,-383.15 332.96,-383.21"/>
</g>
<!-- node0x105900a90 -->
<g id="node4" class="node">
<title>node0x105900a90</title>
<path fill="#fbee21" stroke="#d3c70d" d="M82.62,-136C82.62,-136 327.88,-136 327.88,-136 333.88,-136 339.88,-142 339.88,-148 339.88,-148 339.88,-222.5 339.88,-222.5 339.88,-228.5 333.88,-234.5 327.88,-234.5 327.88,-234.5 82.62,-234.5 82.62,-234.5 76.62,-234.5 70.62,-228.5 70.62,-222.5 70.62,-222.5 70.62,-148 70.62,-148 70.62,-142 76.62,-136 82.62,-136"/>
<text text-anchor="middle" x="205.25" y="-217.2" font-family="Times,serif" font-size="14.00" fill="#000000">+</text>
<text text-anchor="middle" x="205.25" y="-200.7" font-family="Times,serif" font-size="14.00" fill="#000000">0x105900a90</text>
<polyline fill="none" stroke="#d3c70d" points="70.62,-193.5 339.88,-193.5"/>
<text text-anchor="middle" x="115.38" y="-176.2" font-family="Times,serif" font-size="14.00" fill="#000000">Left</text>
<text text-anchor="middle" x="115.38" y="-159.7" font-family="Times,serif" font-size="14.00" fill="#000000">1</text>
<text text-anchor="middle" x="115.38" y="-143.2" font-family="Times,serif" font-size="14.00" fill="#000000">0x105900ad0</text>
<polyline fill="none" stroke="#d3c70d" points="160.12,-136 160.12,-193.5"/>
<text text-anchor="middle" x="205.25" y="-176.2" font-family="Times,serif" font-size="14.00" fill="#000000">Parent</text>
<text text-anchor="middle" x="205.25" y="-159.7" font-family="Times,serif" font-size="14.00" fill="#000000">^</text>
<text text-anchor="middle" x="205.25" y="-143.2" font-family="Times,serif" font-size="14.00" fill="#000000">0x105900990</text>
<polyline fill="none" stroke="#d3c70d" points="250.38,-136 250.38,-193.5"/>
<text text-anchor="middle" x="295.12" y="-176.2" font-family="Times,serif" font-size="14.00" fill="#000000">Right</text>
<text text-anchor="middle" x="295.12" y="-159.7" font-family="Times,serif" font-size="14.00" fill="#000000">x</text>
<text text-anchor="middle" x="295.12" y="-143.2" font-family="Times,serif" font-size="14.00" fill="#000000">0x105900a50</text>
</g>
<!-- node0x105900990&#45;&gt;node0x105900a90 -->
<g id="edge3" class="edge">
<title>node0x105900990:left&#45;&gt;node0x105900a90</title>
<path fill="none" stroke="#187ae8" stroke-width="2" d="M240.38,-271C240.38,-262.47 238.84,-253.81 236.41,-245.43"/>
<polygon fill="#187ae8" stroke="#187ae8" stroke-width="2" points="240.24,-245.84 233.72,-237.49 233.61,-248.08 240.24,-245.84"/>
</g>
<!-- node0x105900950 -->
<g id="node7" class="node">
<title>node0x105900950</title>
<path fill="#d5cfe1" stroke="#8797b2" d="M369.62,-136C369.62,-136 542.88,-136 542.88,-136 548.88,-136 554.88,-142 554.88,-148 554.88,-148 554.88,-222.5 554.88,-222.5 554.88,-228.5 548.88,-234.5 542.88,-234.5 542.88,-234.5 369.62,-234.5 369.62,-234.5 363.62,-234.5 357.62,-228.5 357.62,-222.5 357.62,-222.5 357.62,-148 357.62,-148 357.62,-142 363.62,-136 369.62,-136"/>
<text text-anchor="middle" x="456.25" y="-217.2" font-family="Times,serif" font-size="14.00" fill="#000000">x</text>
<text text-anchor="middle" x="456.25" y="-200.7" font-family="Times,serif" font-size="14.00" fill="#000000">0x105900950</text>
<polyline fill="none" stroke="#8797b2" points="357.62,-193.5 554.88,-193.5"/>
<text text-anchor="middle" x="384.38" y="-176.2" font-family="Times,serif" font-size="14.00" fill="#000000">Left</text>
<text text-anchor="middle" x="384.38" y="-159.7" font-family="Times,serif" font-size="14.00" fill="#000000">NONE</text>
<text text-anchor="middle" x="384.38" y="-143.2" font-family="Times,serif" font-size="14.00" fill="#000000">0x0</text>
<polyline fill="none" stroke="#8797b2" points="411.12,-136 411.12,-193.5"/>
<text text-anchor="middle" x="456.25" y="-176.2" font-family="Times,serif" font-size="14.00" fill="#000000">Parent</text>
<text text-anchor="middle" x="456.25" y="-159.7" font-family="Times,serif" font-size="14.00" fill="#000000">^</text>
<text text-anchor="middle" x="456.25" y="-143.2" font-family="Times,serif" font-size="14.00" fill="#000000">0x105900990</text>
<polyline fill="none" stroke="#8797b2" points="501.38,-136 501.38,-193.5"/>
<text text-anchor="middle" x="528.12" y="-176.2" font-family="Times,serif" font-size="14.00" fill="#000000">Right</text>
<text text-anchor="middle" x="528.12" y="-159.7" font-family="Times,serif" font-size="14.00" fill="#000000">NONE</text>
<text text-anchor="middle" x="528.12" y="-143.2" font-family="Times,serif" font-size="14.00" fill="#000000">0x0</text>
</g>
<!-- node0x105900990&#45;&gt;node0x105900950 -->
<g id="edge6" class="edge">
<title>node0x105900990:right&#45;&gt;node0x105900950</title>
<path fill="none" stroke="#48e818" stroke-width="2" d="M419.75,-271C419.75,-262.53 421.31,-253.95 423.77,-245.66"/>
<polygon fill="#48e818" stroke="#48e818" stroke-width="2" points="426.52,-248.42 426.5,-237.83 419.91,-246.12 426.52,-248.42"/>
</g>
<!-- node0x105900ad0 -->
<g id="node5" class="node">
<title>node0x105900ad0</title>
<path fill="#bdef9e" stroke="#99c2a2" d="M12,-0.5C12,-0.5 184.5,-0.5 184.5,-0.5 190.5,-0.5 196.5,-6.5 196.5,-12.5 196.5,-12.5 196.5,-87 196.5,-87 196.5,-93 190.5,-99 184.5,-99 184.5,-99 12,-99 12,-99 6,-99 0,-93 0,-87 0,-87 0,-12.5 0,-12.5 0,-6.5 6,-0.5 12,-0.5"/>
<text text-anchor="middle" x="98.25" y="-81.7" font-family="Times,serif" font-size="14.00" fill="#000000">1</text>
<text text-anchor="middle" x="98.25" y="-65.2" font-family="Times,serif" font-size="14.00" fill="#000000">0x105900ad0</text>
<polyline fill="none" stroke="#99c2a2" points="0,-58 196.5,-58"/>
<text text-anchor="middle" x="26.75" y="-40.7" font-family="Times,serif" font-size="14.00" fill="#000000">Left</text>
<text text-anchor="middle" x="26.75" y="-24.2" font-family="Times,serif" font-size="14.00" fill="#000000">NONE</text>
<text text-anchor="middle" x="26.75" y="-7.7" font-family="Times,serif" font-size="14.00" fill="#000000">0x0</text>
<polyline fill="none" stroke="#99c2a2" points="53.5,-0.5 53.5,-58"/>
<text text-anchor="middle" x="98.25" y="-40.7" font-family="Times,serif" font-size="14.00" fill="#000000">Parent</text>
<text text-anchor="middle" x="98.25" y="-24.2" font-family="Times,serif" font-size="14.00" fill="#000000">+</text>
<text text-anchor="middle" x="98.25" y="-7.7" font-family="Times,serif" font-size="14.00" fill="#000000">0x105900a90</text>
<polyline fill="none" stroke="#99c2a2" points="143,-0.5 143,-58"/>
<text text-anchor="middle" x="169.75" y="-40.7" font-family="Times,serif" font-size="14.00" fill="#000000">Right</text>
<text text-anchor="middle" x="169.75" y="-24.2" font-family="Times,serif" font-size="14.00" fill="#000000">NONE</text>
<text text-anchor="middle" x="169.75" y="-7.7" font-family="Times,serif" font-size="14.00" fill="#000000">0x0</text>
</g>
<!-- node0x105900a90&#45;&gt;node0x105900ad0 -->
<g id="edge4" class="edge">
<title>node0x105900a90:left&#45;&gt;node0x105900ad0</title>
<path fill="none" stroke="#187ae8" stroke-width="2" d="M115.38,-135.5C115.38,-127.35 114.6,-118.84 113.39,-110.49"/>
<polygon fill="#187ae8" stroke="#187ae8" stroke-width="2" points="117.11,-111.52 111.99,-102.25 110.21,-112.69 117.11,-111.52"/>
</g>
<!-- node0x105900a50 -->
<g id="node6" class="node">
<title>node0x105900a50</title>
<path fill="#d5cfe1" stroke="#8797b2" d="M227,-0.5C227,-0.5 399.5,-0.5 399.5,-0.5 405.5,-0.5 411.5,-6.5 411.5,-12.5 411.5,-12.5 411.5,-87 411.5,-87 411.5,-93 405.5,-99 399.5,-99 399.5,-99 227,-99 227,-99 221,-99 215,-93 215,-87 215,-87 215,-12.5 215,-12.5 215,-6.5 221,-0.5 227,-0.5"/>
<text text-anchor="middle" x="313.25" y="-81.7" font-family="Times,serif" font-size="14.00" fill="#000000">x</text>
<text text-anchor="middle" x="313.25" y="-65.2" font-family="Times,serif" font-size="14.00" fill="#000000">0x105900a50</text>
<polyline fill="none" stroke="#8797b2" points="215,-58 411.5,-58"/>
<text text-anchor="middle" x="241.75" y="-40.7" font-family="Times,serif" font-size="14.00" fill="#000000">Left</text>
<text text-anchor="middle" x="241.75" y="-24.2" font-family="Times,serif" font-size="14.00" fill="#000000">NONE</text>
<text text-anchor="middle" x="241.75" y="-7.7" font-family="Times,serif" font-size="14.00" fill="#000000">0x0</text>
<polyline fill="none" stroke="#8797b2" points="268.5,-0.5 268.5,-58"/>
<text text-anchor="middle" x="313.25" y="-40.7" font-family="Times,serif" font-size="14.00" fill="#000000">Parent</text>
<text text-anchor="middle" x="313.25" y="-24.2" font-family="Times,serif" font-size="14.00" fill="#000000">+</text>
<text text-anchor="middle" x="313.25" y="-7.7" font-family="Times,serif" font-size="14.00" fill="#000000">0x105900a90</text>
<polyline fill="none" stroke="#8797b2" points="358,-0.5 358,-58"/>
<text text-anchor="middle" x="384.75" y="-40.7" font-family="Times,serif" font-size="14.00" fill="#000000">Right</text>
<text text-anchor="middle" x="384.75" y="-24.2" font-family="Times,serif" font-size="14.00" fill="#000000">NONE</text>
<text text-anchor="middle" x="384.75" y="-7.7" font-family="Times,serif" font-size="14.00" fill="#000000">0x0</text>
</g>
<!-- node0x105900a90&#45;&gt;node0x105900a50 -->
<g id="edge5" class="edge">
<title>node0x105900a90:right&#45;&gt;node0x105900a50</title>
<path fill="none" stroke="#48e818" stroke-width="2" d="M295.12,-135.5C295.12,-127.33 295.94,-118.81 297.23,-110.46"/>
<polygon fill="#48e818" stroke="#48e818" stroke-width="2" points="300.39,-112.66 298.7,-102.2 293.5,-111.43 300.39,-112.66"/>
</g>
</g>
</svg>
