<?xml version="1.0" encoding="UTF-8" standalone="no"?>
<!DOCTYPE svg PUBLIC "-//W3C//DTD SVG 1.1//EN"
 "http://www.w3.org/Graphics/SVG/1.1/DTD/svg11.dtd">
<!-- Generated by graphviz version 12.2.0 (20241103.1931)
 -->
<!-- Pages: 1 -->
<svg width="850pt" height="379pt"
 viewBox="0.00 0.00 849.88 378.50" xmlns="http://www.w3.org/2000/svg" xmlns:xlink="http://www.w3.org/1999/xlink">
<g id="graph0" class="graph" transform="scale(1 1) rotate(0) translate(4 374.5)">
<polygon fill="#dcdcdc" stroke="none" points="-4,4 -4,-374.5 845.88,-374.5 845.88,4 -4,4"/>
<!-- node0x105401e70 -->
<g id="node1" class="node">
<title>node0x105401e70</title>
<path fill="#fbee21" stroke="#d3c70d" d="M315.62,-271.5C315.62,-271.5 524.88,-271.5 524.88,-271.5 530.88,-271.5 536.88,-277.5 536.88,-283.5 536.88,-283.5 536.88,-358 536.88,-358 536.88,-364 530.88,-370 524.88,-370 524.88,-370 315.62,-370 315.62,-370 309.62,-370 303.62,-364 303.62,-358 303.62,-358 303.62,-283.5 303.62,-283.5 303.62,-277.5 309.62,-271.5 315.62,-271.5"/>
<text text-anchor="middle" x="420.25" y="-352.7" font-family="Times,serif" font-size="14.00" fill="#000000">/</text>
<text text-anchor="middle" x="420.25" y="-336.2" font-family="Times,serif" font-size="14.00" fill="#000000">0x105401e70</text>
<polyline fill="none" stroke="#d3c70d" points="303.62,-329 536.88,-329"/>
<text text-anchor="middle" x="348.38" y="-311.7" font-family="Times,serif" font-size="14.00" fill="#000000">Left</text>
<text text-anchor="middle" x="348.38" y="-295.2" font-family="Times,serif" font-size="14.00" fill="#000000">+</text>
<text text-anchor="middle" x="348.38" y="-278.7" font-family="Times,serif" font-size="14.00" fill="#000000">0x105401de0</text>
<polyline fill="none" stroke="#d3c70d" points="393.12,-271.5 393.12,-329"/>
<text text-anchor="middle" x="419.88" y="-311.7" font-family="Times,serif" font-size="14.00" fill="#000000">Parent</text>
<text text-anchor="middle" x="419.88" y="-295.2" font-family="Times,serif" font-size="14.00" fill="#000000">NONE</text>
<text text-anchor="middle" x="419.88" y="-278.7" font-family="Times,serif" font-size="14.00" fill="#000000">0x0</text>
<polyline fill="none" stroke="#d3c70d" points="446.62,-271.5 446.62,-329"/>
<text text-anchor="middle" x="491.75" y="-311.7" font-family="Times,serif" font-size="14.00" fill="#000000">Right</text>
<text text-anchor="middle" x="491.75" y="-295.2" font-family="Times,serif" font-size="14.00" fill="#000000">&#45;</text>
<text text-anchor="middle" x="491.75" y="-278.7" font-family="Times,serif" font-size="14.00" fill="#000000">0x105401d50</text>
</g>
<!-- node0x105401de0 -->
<g id="node2" class="node">
<title>node0x105401de0</title>
<path fill="#fbee21" stroke="#d3c70d" d="M102,-136C102,-136 346.5,-136 346.5,-136 352.5,-136 358.5,-142 358.5,-148 358.5,-148 358.5,-222.5 358.5,-222.5 358.5,-228.5 352.5,-234.5 346.5,-234.5 346.5,-234.5 102,-234.5 102,-234.5 96,-234.5 90,-228.5 90,-222.5 90,-222.5 90,-148 90,-148 90,-142 96,-136 102,-136"/>
<text text-anchor="middle" x="224.25" y="-217.2" font-family="Times,serif" font-size="14.00" fill="#000000">+</text>
<text text-anchor="middle" x="224.25" y="-200.7" font-family="Times,serif" font-size="14.00" fill="#000000">0x105401de0</text>
<polyline fill="none" stroke="#d3c70d" points="90,-193.5 358.5,-193.5"/>
<text text-anchor="middle" x="134.75" y="-176.2" font-family="Times,serif" font-size="14.00" fill="#000000">Left</text>
<text text-anchor="middle" x="134.75" y="-159.7" font-family="Times,serif" font-size="14.00" fill="#000000">30</text>
<text text-anchor="middle" x="134.75" y="-143.2" font-family="Times,serif" font-size="14.00" fill="#000000">0x105401e40</text>
<polyline fill="none" stroke="#d3c70d" points="179.5,-136 179.5,-193.5"/>
<text text-anchor="middle" x="224.25" y="-176.2" font-family="Times,serif" font-size="14.00" fill="#000000">Parent</text>
<text text-anchor="middle" x="224.25" y="-159.7" font-family="Times,serif" font-size="14.00" fill="#000000">/</text>
<text text-anchor="middle" x="224.25" y="-143.2" font-family="Times,serif" font-size="14.00" fill="#000000">0x105401e70</text>
<polyline fill="none" stroke="#d3c70d" points="269,-136 269,-193.5"/>
<text text-anchor="middle" x="313.75" y="-176.2" font-family="Times,serif" font-size="14.00" fill="#000000">Right</text>
<text text-anchor="middle" x="313.75" y="-159.7" font-family="Times,serif" font-size="14.00" fill="#000000">50</text>
<text text-anchor="middle" x="313.75" y="-143.2" font-family="Times,serif" font-size="14.00" fill="#000000">0x105401e10</text>
</g>
<!-- node0x105401e70&#45;&gt;node0x105401de0 -->
<g id="edge1" class="edge">
<title>node0x105401e70:left&#45;&gt;node0x105401de0</title>
<path fill="none" stroke="#187ae8" stroke-width="2" d="M302.62,-300.25C272.7,-300.25 253.34,-273.25 241.35,-245.53"/>
<polygon fill="#187ae8" stroke="#187ae8" stroke-width="2" points="245.2,-245.72 238.23,-237.74 238.7,-248.32 245.2,-245.72"/>
</g>
<!-- node0x105401d50 -->
<g id="node5" class="node">
<title>node0x105401d50</title>
<path fill="#fbee21" stroke="#d3c70d" d="M494.25,-136C494.25,-136 740.25,-136 740.25,-136 746.25,-136 752.25,-142 752.25,-148 752.25,-148 752.25,-222.5 752.25,-222.5 752.25,-228.5 746.25,-234.5 740.25,-234.5 740.25,-234.5 494.25,-234.5 494.25,-234.5 488.25,-234.5 482.25,-228.5 482.25,-222.5 482.25,-222.5 482.25,-148 482.25,-148 482.25,-142 488.25,-136 494.25,-136"/>
<text text-anchor="middle" x="617.25" y="-217.2" font-family="Times,serif" font-size="14.00" fill="#000000">&#45;</text>
<text text-anchor="middle" x="617.25" y="-200.7" font-family="Times,serif" font-size="14.00" fill="#000000">0x105401d50</text>
<polyline fill="none" stroke="#d3c70d" points="482.25,-193.5 752.25,-193.5"/>
<text text-anchor="middle" x="527.38" y="-176.2" font-family="Times,serif" font-size="14.00" fill="#000000">Left</text>
<text text-anchor="middle" x="527.38" y="-159.7" font-family="Times,serif" font-size="14.00" fill="#000000">12</text>
<text text-anchor="middle" x="527.38" y="-143.2" font-family="Times,serif" font-size="14.00" fill="#000000">0x105401db0</text>
<polyline fill="none" stroke="#d3c70d" points="572.5,-136 572.5,-193.5"/>
<text text-anchor="middle" x="617.25" y="-176.2" font-family="Times,serif" font-size="14.00" fill="#000000">Parent</text>
<text text-anchor="middle" x="617.25" y="-159.7" font-family="Times,serif" font-size="14.00" fill="#000000">/</text>
<text text-anchor="middle" x="617.25" y="-143.2" font-family="Times,serif" font-size="14.00" fill="#000000">0x105401e70</text>
<polyline fill="none" stroke="#d3c70d" points="662,-136 662,-193.5"/>
<text text-anchor="middle" x="707.12" y="-176.2" font-family="Times,serif" font-size="14.00" fill="#000000">Right</text>
<text text-anchor="middle" x="707.12" y="-159.7" font-family="Times,serif" font-size="14.00" fill="#000000">x</text>
<text text-anchor="middle" x="707.12" y="-143.2" font-family="Times,serif" font-size="14.00" fill="#000000">0x105401d80</text>
</g>
<!-- node0x105401e70&#45;&gt;node0x105401d50 -->
<g id="edge6" class="edge">
<title>node0x105401e70:right&#45;&gt;node0x105401d50</title>
<path fill="none" stroke="#48e818" stroke-width="2" d="M537.88,-300.25C567.92,-300.25 587.52,-273.25 599.73,-245.53"/>
<polygon fill="#48e818" stroke="#48e818" stroke-width="2" points="602.37,-248.31 602.91,-237.73 595.89,-245.67 602.37,-248.31"/>
</g>
<!-- node0x105401e40 -->
<g id="node3" class="node">
<title>node0x105401e40</title>
<path fill="#bdef9e" stroke="#99c2a2" d="M12,-0.5C12,-0.5 184.5,-0.5 184.5,-0.5 190.5,-0.5 196.5,-6.5 196.5,-12.5 196.5,-12.5 196.5,-87 196.5,-87 196.5,-93 190.5,-99 184.5,-99 184.5,-99 12,-99 12,-99 6,-99 0,-93 0,-87 0,-87 0,-12.5 0,-12.5 0,-6.5 6,-0.5 12,-0.5"/>
<text text-anchor="middle" x="98.25" y="-81.7" font-family="Times,serif" font-size="14.00" fill="#000000">30</text>
<text text-anchor="middle" x="98.25" y="-65.2" font-family="Times,serif" font-size="14.00" fill="#000000">0x105401e40</text>
<polyline fill="none" stroke="#99c2a2" points="0,-58 196.5,-58"/>
<text text-anchor="middle" x="26.75" y="-40.7" font-family="Times,serif" font-size="14.00" fill="#000000">Left</text>
<text text-anchor="middle" x="26.75" y="-24.2" font-family="Times,serif" font-size="14.00" fill="#000000">NONE</text>
<text text-anchor="middle" x="26.75" y="-7.7" font-family="Times,serif" font-size="14.00" fill="#000000">0x0</text>
<polyline fill="none" stroke="#99c2a2" points="53.5,-0.5 53.5,-58"/>
<text text-anchor="middle" x="98.25" y="-40.7" font-family="Times,serif" font-size="14.00" fill="#000000">Parent</text>
<text text-anchor="middle" x="98.25" y="-24.2" font-family="Times,serif" font-size="14.00" fill="#000000">+</text>
<text text-anchor="middle" x="98.25" y="-7.7" font-family="Times,serif" font-size="14.00" fill="#000000">0x105401de0</text>
<polyline fill="none" stroke="#99c2a2" points="143,-0.5 143,-58"/>
<text text-anchor="middle" x="169.75" y="-40.7" font-family="Times,serif" font-size="14.00" fill="#000000">Right</text>
<text text-anchor="middle" x="169.75" y="-24.2" font-family="Times,serif" font-size="14.00" fill="#000000">NONE</text>
<text text-anchor="middle" x="169.75" y="-7.7" font-family="Times,serif" font-size="14.00" fill="#000000">0x0</text>
</g>
<!-- node0x105401de0&#45;&gt;node0x105401e40 -->
<g id="edge2" class="edge">
<title>node0x105401de0:left&#45;&gt;node0x105401e40</title>
<path fill="none" stroke="#187ae8" stroke-width="2" d="M134.75,-135.5C134.75,-127.03 133.19,-118.45 130.73,-110.16"/>
<polygon fill="#187ae8" stroke="#187ae8" stroke-width="2" points="134.59,-110.62 128,-102.33 127.98,-112.92 134.59,-110.62"/>
</g>
<!-- node0x105401e10 -->
<g id="node4" class="node">
<title>node0x105401e10</title>
<path fill="#bdef9e" stroke="#99c2a2" d="M227,-0.5C227,-0.5 399.5,-0.5 399.5,-0.5 405.5,-0.5 411.5,-6.5 411.5,-12.5 411.5,-12.5 411.5,-87 411.5,-87 411.5,-93 405.5,-99 399.5,-99 399.5,-99 227,-99 227,-99 221,-99 215,-93 215,-87 215,-87 215,-12.5 215,-12.5 215,-6.5 221,-0.5 227,-0.5"/>
<text text-anchor="middle" x="313.25" y="-81.7" font-family="Times,serif" font-size="14.00" fill="#000000">50</text>
<text text-anchor="middle" x="313.25" y="-65.2" font-family="Times,serif" font-size="14.00" fill="#000000">0x105401e10</text>
<polyline fill="none" stroke="#99c2a2" points="215,-58 411.5,-58"/>
<text text-anchor="middle" x="241.75" y="-40.7" font-family="Times,serif" font-size="14.00" fill="#000000">Left</text>
<text text-anchor="middle" x="241.75" y="-24.2" font-family="Times,serif" font-size="14.00" fill="#000000">NONE</text>
<text text-anchor="middle" x="241.75" y="-7.7" font-family="Times,serif" font-size="14.00" fill="#000000">0x0</text>
<polyline fill="none" stroke="#99c2a2" points="268.5,-0.5 268.5,-58"/>
<text text-anchor="middle" x="313.25" y="-40.7" font-family="Times,serif" font-size="14.00" fill="#000000">Parent</text>
<text text-anchor="middle" x="313.25" y="-24.2" font-family="Times,serif" font-size="14.00" fill="#000000">+</text>
<text text-anchor="middle" x="313.25" y="-7.7" font-family="Times,serif" font-size="14.00" fill="#000000">0x105401de0</text>
<polyline fill="none" stroke="#99c2a2" points="358,-0.5 358,-58"/>
<text text-anchor="middle" x="384.75" y="-40.7" font-family="Times,serif" font-size="14.00" fill="#000000">Right</text>
<text text-anchor="middle" x="384.75" y="-24.2" font-family="Times,serif" font-size="14.00" fill="#000000">NONE</text>
<text text-anchor="middle" x="384.75" y="-7.7" font-family="Times,serif" font-size="14.00" fill="#000000">0x0</text>
</g>
<!-- node0x105401de0&#45;&gt;node0x105401e10 -->
<g id="edge3" class="edge">
<title>node0x105401de0:right&#45;&gt;node0x105401e10</title>
<path fill="none" stroke="#48e818" stroke-width="2" d="M313.75,-135.5C313.75,-127.41 313.73,-118.88 313.69,-110.48"/>
<polygon fill="#48e818" stroke="#48e818" stroke-width="2" points="317.2,-112.16 313.65,-102.18 310.2,-112.2 317.2,-112.16"/>
</g>
<!-- node0x105401db0 -->
<g id="node6" class="node">
<title>node0x105401db0</title>
<path fill="#bdef9e" stroke="#99c2a2" d="M441.62,-0.5C441.62,-0.5 614.88,-0.5 614.88,-0.5 620.88,-0.5 626.88,-6.5 626.88,-12.5 626.88,-12.5 626.88,-87 626.88,-87 626.88,-93 620.88,-99 614.88,-99 614.88,-99 441.62,-99 441.62,-99 435.62,-99 429.62,-93 429.62,-87 429.62,-87 429.62,-12.5 429.62,-12.5 429.62,-6.5 435.62,-0.5 441.62,-0.5"/>
<text text-anchor="middle" x="528.25" y="-81.7" font-family="Times,serif" font-size="14.00" fill="#000000">12</text>
<text text-anchor="middle" x="528.25" y="-65.2" font-family="Times,serif" font-size="14.00" fill="#000000">0x105401db0</text>
<polyline fill="none" stroke="#99c2a2" points="429.62,-58 626.88,-58"/>
<text text-anchor="middle" x="456.38" y="-40.7" font-family="Times,serif" font-size="14.00" fill="#000000">Left</text>
<text text-anchor="middle" x="456.38" y="-24.2" font-family="Times,serif" font-size="14.00" fill="#000000">NONE</text>
<text text-anchor="middle" x="456.38" y="-7.7" font-family="Times,serif" font-size="14.00" fill="#000000">0x0</text>
<polyline fill="none" stroke="#99c2a2" points="483.12,-0.5 483.12,-58"/>
<text text-anchor="middle" x="528.25" y="-40.7" font-family="Times,serif" font-size="14.00" fill="#000000">Parent</text>
<text text-anchor="middle" x="528.25" y="-24.2" font-family="Times,serif" font-size="14.00" fill="#000000">&#45;</text>
<text text-anchor="middle" x="528.25" y="-7.7" font-family="Times,serif" font-size="14.00" fill="#000000">0x105401d50</text>
<polyline fill="none" stroke="#99c2a2" points="573.38,-0.5 573.38,-58"/>
<text text-anchor="middle" x="600.12" y="-40.7" font-family="Times,serif" font-size="14.00" fill="#000000">Right</text>
<text text-anchor="middle" x="600.12" y="-24.2" font-family="Times,serif" font-size="14.00" fill="#000000">NONE</text>
<text text-anchor="middle" x="600.12" y="-7.7" font-family="Times,serif" font-size="14.00" fill="#000000">0x0</text>
</g>
<!-- node0x105401d50&#45;&gt;node0x105401db0 -->
<g id="edge4" class="edge">
<title>node0x105401d50:left&#45;&gt;node0x105401db0</title>
<path fill="none" stroke="#187ae8" stroke-width="2" d="M527.38,-135.5C527.38,-127.41 527.42,-118.88 527.48,-110.48"/>
<polygon fill="#187ae8" stroke="#187ae8" stroke-width="2" points="530.96,-112.21 527.55,-102.18 523.96,-112.15 530.96,-112.21"/>
</g>
<!-- node0x105401d80 -->
<g id="node7" class="node">
<title>node0x105401d80</title>
<path fill="#d5cfe1" stroke="#8797b2" d="M656.62,-0.5C656.62,-0.5 829.88,-0.5 829.88,-0.5 835.88,-0.5 841.88,-6.5 841.88,-12.5 841.88,-12.5 841.88,-87 841.88,-87 841.88,-93 835.88,-99 829.88,-99 829.88,-99 656.62,-99 656.62,-99 650.62,-99 644.62,-93 644.62,-87 644.62,-87 644.62,-12.5 644.62,-12.5 644.62,-6.5 650.62,-0.5 656.62,-0.5"/>
<text text-anchor="middle" x="743.25" y="-81.7" font-family="Times,serif" font-size="14.00" fill="#000000">x</text>
<text text-anchor="middle" x="743.25" y="-65.2" font-family="Times,serif" font-size="14.00" fill="#000000">0x105401d80</text>
<polyline fill="none" stroke="#8797b2" points="644.62,-58 841.88,-58"/>
<text text-anchor="middle" x="671.38" y="-40.7" font-family="Times,serif" font-size="14.00" fill="#000000">Left</text>
<text text-anchor="middle" x="671.38" y="-24.2" font-family="Times,serif" font-size="14.00" fill="#000000">NONE</text>
<text text-anchor="middle" x="671.38" y="-7.7" font-family="Times,serif" font-size="14.00" fill="#000000">0x0</text>
<polyline fill="none" stroke="#8797b2" points="698.12,-0.5 698.12,-58"/>
<text text-anchor="middle" x="743.25" y="-40.7" font-family="Times,serif" font-size="14.00" fill="#000000">Parent</text>
<text text-anchor="middle" x="743.25" y="-24.2" font-family="Times,serif" font-size="14.00" fill="#000000">&#45;</text>
<text text-anchor="middle" x="743.25" y="-7.7" font-family="Times,serif" font-size="14.00" fill="#000000">0x105401d50</text>
<polyline fill="none" stroke="#8797b2" points="788.38,-0.5 788.38,-58"/>
<text text-anchor="middle" x="815.12" y="-40.7" font-family="Times,serif" font-size="14.00" fill="#000000">Right</text>
<text text-anchor="middle" x="815.12" y="-24.2" font-family="Times,serif" font-size="14.00" fill="#000000">NONE</text>
<text text-anchor="middle" x="815.12" y="-7.7" font-family="Times,serif" font-size="14.00" fill="#000000">0x0</text>
</g>
<!-- node0x105401d50&#45;&gt;node0x105401d80 -->
<g id="edge5" class="edge">
<title>node0x105401d50:right&#45;&gt;node0x105401d80</title>
<path fill="none" stroke="#48e818" stroke-width="2" d="M707.12,-135.5C707.12,-127.05 708.66,-118.47 711.11,-110.19"/>
<polygon fill="#48e818" stroke="#48e818" stroke-width="2" points="713.86,-112.95 713.8,-102.36 707.24,-110.68 713.86,-112.95"/>
</g>
</g>
</svg>
