<?xml version="1.0" encoding="UTF-8" standalone="no"?>
<!DOCTYPE svg PUBLIC "-//W3C//DTD SVG 1.1//EN"
 "http://www.w3.org/Graphics/SVG/1.1/DTD/svg11.dtd">
<!-- Generated by graphviz version 12.2.0 (20241103.1931)
 -->
<!-- Pages: 1 -->
<svg width="917pt" height="514pt"
 viewBox="0.00 0.00 917.12 514.00" xmlns="http://www.w3.org/2000/svg" xmlns:xlink="http://www.w3.org/1999/xlink">
<g id="graph0" class="graph" transform="scale(1 1) rotate(0) translate(4 510)">
<polygon fill="#dcdcdc" stroke="none" points="-4,4 -4,-510 913.12,-510 913.12,4 -4,4"/>
<!-- node0x103c00910 -->
<g id="node1" class="node">
<title>node0x103c00910</title>
<path fill="#fbee21" stroke="#d3c70d" d="M332,-407C332,-407 539.75,-407 539.75,-407 545.75,-407 551.75,-413 551.75,-419 551.75,-419 551.75,-493.5 551.75,-493.5 551.75,-499.5 545.75,-505.5 539.75,-505.5 539.75,-505.5 332,-505.5 332,-505.5 326,-505.5 320,-499.5 320,-493.5 320,-493.5 320,-419 320,-419 320,-413 326,-407 332,-407"/>
<text text-anchor="middle" x="435.88" y="-488.2" font-family="Times,serif" font-size="14.00" fill="#000000">&#45;</text>
<text text-anchor="middle" x="435.88" y="-471.7" font-family="Times,serif" font-size="14.00" fill="#000000">0x103c00910</text>
<polyline fill="none" stroke="#d3c70d" points="320,-464.5 551.75,-464.5"/>
<text text-anchor="middle" x="364.38" y="-447.2" font-family="Times,serif" font-size="14.00" fill="#000000">Left</text>
<text text-anchor="middle" x="364.38" y="-430.7" font-family="Times,serif" font-size="14.00" fill="#000000">+</text>
<text text-anchor="middle" x="364.38" y="-414.2" font-family="Times,serif" font-size="14.00" fill="#000000">0x103c00a90</text>
<polyline fill="none" stroke="#d3c70d" points="408.75,-407 408.75,-464.5"/>
<text text-anchor="middle" x="435.5" y="-447.2" font-family="Times,serif" font-size="14.00" fill="#000000">Parent</text>
<text text-anchor="middle" x="435.5" y="-430.7" font-family="Times,serif" font-size="14.00" fill="#000000">NONE</text>
<text text-anchor="middle" x="435.5" y="-414.2" font-family="Times,serif" font-size="14.00" fill="#000000">0x0</text>
<polyline fill="none" stroke="#d3c70d" points="462.25,-407 462.25,-464.5"/>
<text text-anchor="middle" x="507" y="-447.2" font-family="Times,serif" font-size="14.00" fill="#000000">Right</text>
<text text-anchor="middle" x="507" y="-430.7" font-family="Times,serif" font-size="14.00" fill="#000000">&#45;</text>
<text text-anchor="middle" x="507" y="-414.2" font-family="Times,serif" font-size="14.00" fill="#000000">0x103c00950</text>
</g>
<!-- node0x103c00a90 -->
<g id="node2" class="node">
<title>node0x103c00a90</title>
<path fill="#fbee21" stroke="#d3c70d" d="M101,-271.5C101,-271.5 344.75,-271.5 344.75,-271.5 350.75,-271.5 356.75,-277.5 356.75,-283.5 356.75,-283.5 356.75,-358 356.75,-358 356.75,-364 350.75,-370 344.75,-370 344.75,-370 101,-370 101,-370 95,-370 89,-364 89,-358 89,-358 89,-283.5 89,-283.5 89,-277.5 95,-271.5 101,-271.5"/>
<text text-anchor="middle" x="222.88" y="-352.7" font-family="Times,serif" font-size="14.00" fill="#000000">+</text>
<text text-anchor="middle" x="222.88" y="-336.2" font-family="Times,serif" font-size="14.00" fill="#000000">0x103c00a90</text>
<polyline fill="none" stroke="#d3c70d" points="89,-329 356.75,-329"/>
<text text-anchor="middle" x="133.75" y="-311.7" font-family="Times,serif" font-size="14.00" fill="#000000">Left</text>
<text text-anchor="middle" x="133.75" y="-295.2" font-family="Times,serif" font-size="14.00" fill="#000000">1</text>
<text text-anchor="middle" x="133.75" y="-278.7" font-family="Times,serif" font-size="14.00" fill="#000000">0x103c00b10</text>
<polyline fill="none" stroke="#d3c70d" points="178.5,-271.5 178.5,-329"/>
<text text-anchor="middle" x="223.25" y="-311.7" font-family="Times,serif" font-size="14.00" fill="#000000">Parent</text>
<text text-anchor="middle" x="223.25" y="-295.2" font-family="Times,serif" font-size="14.00" fill="#000000">&#45;</text>
<text text-anchor="middle" x="223.25" y="-278.7" font-family="Times,serif" font-size="14.00" fill="#000000">0x103c00910</text>
<polyline fill="none" stroke="#d3c70d" points="268,-271.5 268,-329"/>
<text text-anchor="middle" x="312.38" y="-311.7" font-family="Times,serif" font-size="14.00" fill="#000000">Right</text>
<text text-anchor="middle" x="312.38" y="-295.2" font-family="Times,serif" font-size="14.00" fill="#000000">3</text>
<text text-anchor="middle" x="312.38" y="-278.7" font-family="Times,serif" font-size="14.00" fill="#000000">0x103c00ad0</text>
</g>
<!-- node0x103c00910&#45;&gt;node0x103c00a90 -->
<g id="edge1" class="edge">
<title>node0x103c00910:left&#45;&gt;node0x103c00a90</title>
<path fill="none" stroke="#187ae8" stroke-width="2" d="M319,-435.75C286.46,-435.75 262.71,-408.27 246.95,-380.3"/>
<polygon fill="#187ae8" stroke="#187ae8" stroke-width="2" points="250.91,-380.29 243.13,-373.1 244.72,-383.57 250.91,-380.29"/>
</g>
<!-- node0x103c00950 -->
<g id="node5" class="node">
<title>node0x103c00950</title>
<path fill="#fbee21" stroke="#d3c70d" d="M527.62,-271.5C527.62,-271.5 772.12,-271.5 772.12,-271.5 778.12,-271.5 784.12,-277.5 784.12,-283.5 784.12,-283.5 784.12,-358 784.12,-358 784.12,-364 778.12,-370 772.12,-370 772.12,-370 527.62,-370 527.62,-370 521.62,-370 515.62,-364 515.62,-358 515.62,-358 515.62,-283.5 515.62,-283.5 515.62,-277.5 521.62,-271.5 527.62,-271.5"/>
<text text-anchor="middle" x="649.88" y="-352.7" font-family="Times,serif" font-size="14.00" fill="#000000">&#45;</text>
<text text-anchor="middle" x="649.88" y="-336.2" font-family="Times,serif" font-size="14.00" fill="#000000">0x103c00950</text>
<polyline fill="none" stroke="#d3c70d" points="515.62,-329 784.12,-329"/>
<text text-anchor="middle" x="560.38" y="-311.7" font-family="Times,serif" font-size="14.00" fill="#000000">Left</text>
<text text-anchor="middle" x="560.38" y="-295.2" font-family="Times,serif" font-size="14.00" fill="#000000">*</text>
<text text-anchor="middle" x="560.38" y="-278.7" font-family="Times,serif" font-size="14.00" fill="#000000">0x103c009d0</text>
<polyline fill="none" stroke="#d3c70d" points="605.12,-271.5 605.12,-329"/>
<text text-anchor="middle" x="649.88" y="-311.7" font-family="Times,serif" font-size="14.00" fill="#000000">Parent</text>
<text text-anchor="middle" x="649.88" y="-295.2" font-family="Times,serif" font-size="14.00" fill="#000000">&#45;</text>
<text text-anchor="middle" x="649.88" y="-278.7" font-family="Times,serif" font-size="14.00" fill="#000000">0x103c00910</text>
<polyline fill="none" stroke="#d3c70d" points="694.62,-271.5 694.62,-329"/>
<text text-anchor="middle" x="739.38" y="-311.7" font-family="Times,serif" font-size="14.00" fill="#000000">Right</text>
<text text-anchor="middle" x="739.38" y="-295.2" font-family="Times,serif" font-size="14.00" fill="#000000">52</text>
<text text-anchor="middle" x="739.38" y="-278.7" font-family="Times,serif" font-size="14.00" fill="#000000">0x103c00990</text>
</g>
<!-- node0x103c00910&#45;&gt;node0x103c00950 -->
<g id="edge8" class="edge">
<title>node0x103c00910:right&#45;&gt;node0x103c00950</title>
<path fill="none" stroke="#48e818" stroke-width="2" d="M552.75,-435.75C585.43,-435.75 609.43,-408.27 625.4,-380.3"/>
<polygon fill="#48e818" stroke="#48e818" stroke-width="2" points="627.62,-383.56 629.28,-373.09 621.45,-380.24 627.62,-383.56"/>
</g>
<!-- node0x103c00b10 -->
<g id="node3" class="node">
<title>node0x103c00b10</title>
<path fill="#bdef9e" stroke="#99c2a2" d="M12,-136C12,-136 183.75,-136 183.75,-136 189.75,-136 195.75,-142 195.75,-148 195.75,-148 195.75,-222.5 195.75,-222.5 195.75,-228.5 189.75,-234.5 183.75,-234.5 183.75,-234.5 12,-234.5 12,-234.5 6,-234.5 0,-228.5 0,-222.5 0,-222.5 0,-148 0,-148 0,-142 6,-136 12,-136"/>
<text text-anchor="middle" x="97.88" y="-217.2" font-family="Times,serif" font-size="14.00" fill="#000000">1</text>
<text text-anchor="middle" x="97.88" y="-200.7" font-family="Times,serif" font-size="14.00" fill="#000000">0x103c00b10</text>
<polyline fill="none" stroke="#99c2a2" points="0,-193.5 195.75,-193.5"/>
<text text-anchor="middle" x="26.75" y="-176.2" font-family="Times,serif" font-size="14.00" fill="#000000">Left</text>
<text text-anchor="middle" x="26.75" y="-159.7" font-family="Times,serif" font-size="14.00" fill="#000000">NONE</text>
<text text-anchor="middle" x="26.75" y="-143.2" font-family="Times,serif" font-size="14.00" fill="#000000">0x0</text>
<polyline fill="none" stroke="#99c2a2" points="53.5,-136 53.5,-193.5"/>
<text text-anchor="middle" x="97.88" y="-176.2" font-family="Times,serif" font-size="14.00" fill="#000000">Parent</text>
<text text-anchor="middle" x="97.88" y="-159.7" font-family="Times,serif" font-size="14.00" fill="#000000">+</text>
<text text-anchor="middle" x="97.88" y="-143.2" font-family="Times,serif" font-size="14.00" fill="#000000">0x103c00a90</text>
<polyline fill="none" stroke="#99c2a2" points="142.25,-136 142.25,-193.5"/>
<text text-anchor="middle" x="169" y="-176.2" font-family="Times,serif" font-size="14.00" fill="#000000">Right</text>
<text text-anchor="middle" x="169" y="-159.7" font-family="Times,serif" font-size="14.00" fill="#000000">NONE</text>
<text text-anchor="middle" x="169" y="-143.2" font-family="Times,serif" font-size="14.00" fill="#000000">0x0</text>
</g>
<!-- node0x103c00a90&#45;&gt;node0x103c00b10 -->
<g id="edge2" class="edge">
<title>node0x103c00a90:left&#45;&gt;node0x103c00b10</title>
<path fill="none" stroke="#187ae8" stroke-width="2" d="M133.75,-271C133.75,-262.45 132.18,-253.76 129.7,-245.38"/>
<polygon fill="#187ae8" stroke="#187ae8" stroke-width="2" points="133.53,-245.74 126.95,-237.43 126.91,-248.02 133.53,-245.74"/>
</g>
<!-- node0x103c00ad0 -->
<g id="node4" class="node">
<title>node0x103c00ad0</title>
<path fill="#bdef9e" stroke="#99c2a2" d="M226,-136C226,-136 397.75,-136 397.75,-136 403.75,-136 409.75,-142 409.75,-148 409.75,-148 409.75,-222.5 409.75,-222.5 409.75,-228.5 403.75,-234.5 397.75,-234.5 397.75,-234.5 226,-234.5 226,-234.5 220,-234.5 214,-228.5 214,-222.5 214,-222.5 214,-148 214,-148 214,-142 220,-136 226,-136"/>
<text text-anchor="middle" x="311.88" y="-217.2" font-family="Times,serif" font-size="14.00" fill="#000000">3</text>
<text text-anchor="middle" x="311.88" y="-200.7" font-family="Times,serif" font-size="14.00" fill="#000000">0x103c00ad0</text>
<polyline fill="none" stroke="#99c2a2" points="214,-193.5 409.75,-193.5"/>
<text text-anchor="middle" x="240.75" y="-176.2" font-family="Times,serif" font-size="14.00" fill="#000000">Left</text>
<text text-anchor="middle" x="240.75" y="-159.7" font-family="Times,serif" font-size="14.00" fill="#000000">NONE</text>
<text text-anchor="middle" x="240.75" y="-143.2" font-family="Times,serif" font-size="14.00" fill="#000000">0x0</text>
<polyline fill="none" stroke="#99c2a2" points="267.5,-136 267.5,-193.5"/>
<text text-anchor="middle" x="311.88" y="-176.2" font-family="Times,serif" font-size="14.00" fill="#000000">Parent</text>
<text text-anchor="middle" x="311.88" y="-159.7" font-family="Times,serif" font-size="14.00" fill="#000000">+</text>
<text text-anchor="middle" x="311.88" y="-143.2" font-family="Times,serif" font-size="14.00" fill="#000000">0x103c00a90</text>
<polyline fill="none" stroke="#99c2a2" points="356.25,-136 356.25,-193.5"/>
<text text-anchor="middle" x="383" y="-176.2" font-family="Times,serif" font-size="14.00" fill="#000000">Right</text>
<text text-anchor="middle" x="383" y="-159.7" font-family="Times,serif" font-size="14.00" fill="#000000">NONE</text>
<text text-anchor="middle" x="383" y="-143.2" font-family="Times,serif" font-size="14.00" fill="#000000">0x0</text>
</g>
<!-- node0x103c00a90&#45;&gt;node0x103c00ad0 -->
<g id="edge3" class="edge">
<title>node0x103c00a90:right&#45;&gt;node0x103c00ad0</title>
<path fill="none" stroke="#48e818" stroke-width="2" d="M312.38,-271C312.38,-262.91 312.35,-254.38 312.32,-245.98"/>
<polygon fill="#48e818" stroke="#48e818" stroke-width="2" points="315.82,-247.66 312.27,-237.68 308.82,-247.7 315.82,-247.66"/>
</g>
<!-- node0x103c009d0 -->
<g id="node6" class="node">
<title>node0x103c009d0</title>
<path fill="#fbee21" stroke="#d3c70d" d="M439.38,-136C439.38,-136 682.38,-136 682.38,-136 688.38,-136 694.38,-142 694.38,-148 694.38,-148 694.38,-222.5 694.38,-222.5 694.38,-228.5 688.38,-234.5 682.38,-234.5 682.38,-234.5 439.38,-234.5 439.38,-234.5 433.38,-234.5 427.38,-228.5 427.38,-222.5 427.38,-222.5 427.38,-148 427.38,-148 427.38,-142 433.38,-136 439.38,-136"/>
<text text-anchor="middle" x="560.88" y="-217.2" font-family="Times,serif" font-size="14.00" fill="#000000">*</text>
<text text-anchor="middle" x="560.88" y="-200.7" font-family="Times,serif" font-size="14.00" fill="#000000">0x103c009d0</text>
<polyline fill="none" stroke="#d3c70d" points="427.38,-193.5 694.38,-193.5"/>
<text text-anchor="middle" x="471.75" y="-176.2" font-family="Times,serif" font-size="14.00" fill="#000000">Left</text>
<text text-anchor="middle" x="471.75" y="-159.7" font-family="Times,serif" font-size="14.00" fill="#000000">7</text>
<text text-anchor="middle" x="471.75" y="-143.2" font-family="Times,serif" font-size="14.00" fill="#000000">0x103c00a50</text>
<polyline fill="none" stroke="#d3c70d" points="516.12,-136 516.12,-193.5"/>
<text text-anchor="middle" x="560.88" y="-176.2" font-family="Times,serif" font-size="14.00" fill="#000000">Parent</text>
<text text-anchor="middle" x="560.88" y="-159.7" font-family="Times,serif" font-size="14.00" fill="#000000">&#45;</text>
<text text-anchor="middle" x="560.88" y="-143.2" font-family="Times,serif" font-size="14.00" fill="#000000">0x103c00950</text>
<polyline fill="none" stroke="#d3c70d" points="605.62,-136 605.62,-193.5"/>
<text text-anchor="middle" x="650" y="-176.2" font-family="Times,serif" font-size="14.00" fill="#000000">Right</text>
<text text-anchor="middle" x="650" y="-159.7" font-family="Times,serif" font-size="14.00" fill="#000000">8</text>
<text text-anchor="middle" x="650" y="-143.2" font-family="Times,serif" font-size="14.00" fill="#000000">0x103c00a10</text>
</g>
<!-- node0x103c00950&#45;&gt;node0x103c009d0 -->
<g id="edge4" class="edge">
<title>node0x103c00950:left&#45;&gt;node0x103c009d0</title>
<path fill="none" stroke="#187ae8" stroke-width="2" d="M560.38,-271C560.38,-262.91 560.4,-254.38 560.43,-245.98"/>
<polygon fill="#187ae8" stroke="#187ae8" stroke-width="2" points="563.93,-247.7 560.48,-237.68 556.93,-247.66 563.93,-247.7"/>
</g>
<!-- node0x103c00990 -->
<g id="node9" class="node">
<title>node0x103c00990</title>
<path fill="#bdef9e" stroke="#99c2a2" d="M724.62,-136C724.62,-136 897.12,-136 897.12,-136 903.12,-136 909.12,-142 909.12,-148 909.12,-148 909.12,-222.5 909.12,-222.5 909.12,-228.5 903.12,-234.5 897.12,-234.5 897.12,-234.5 724.62,-234.5 724.62,-234.5 718.62,-234.5 712.62,-228.5 712.62,-222.5 712.62,-222.5 712.62,-148 712.62,-148 712.62,-142 718.62,-136 724.62,-136"/>
<text text-anchor="middle" x="810.88" y="-217.2" font-family="Times,serif" font-size="14.00" fill="#000000">52</text>
<text text-anchor="middle" x="810.88" y="-200.7" font-family="Times,serif" font-size="14.00" fill="#000000">0x103c00990</text>
<polyline fill="none" stroke="#99c2a2" points="712.62,-193.5 909.12,-193.5"/>
<text text-anchor="middle" x="739.38" y="-176.2" font-family="Times,serif" font-size="14.00" fill="#000000">Left</text>
<text text-anchor="middle" x="739.38" y="-159.7" font-family="Times,serif" font-size="14.00" fill="#000000">NONE</text>
<text text-anchor="middle" x="739.38" y="-143.2" font-family="Times,serif" font-size="14.00" fill="#000000">0x0</text>
<polyline fill="none" stroke="#99c2a2" points="766.12,-136 766.12,-193.5"/>
<text text-anchor="middle" x="810.88" y="-176.2" font-family="Times,serif" font-size="14.00" fill="#000000">Parent</text>
<text text-anchor="middle" x="810.88" y="-159.7" font-family="Times,serif" font-size="14.00" fill="#000000">&#45;</text>
<text text-anchor="middle" x="810.88" y="-143.2" font-family="Times,serif" font-size="14.00" fill="#000000">0x103c00950</text>
<polyline fill="none" stroke="#99c2a2" points="855.62,-136 855.62,-193.5"/>
<text text-anchor="middle" x="882.38" y="-176.2" font-family="Times,serif" font-size="14.00" fill="#000000">Right</text>
<text text-anchor="middle" x="882.38" y="-159.7" font-family="Times,serif" font-size="14.00" fill="#000000">NONE</text>
<text text-anchor="middle" x="882.38" y="-143.2" font-family="Times,serif" font-size="14.00" fill="#000000">0x0</text>
</g>
<!-- node0x103c00950&#45;&gt;node0x103c00990 -->
<g id="edge7" class="edge">
<title>node0x103c00950:right&#45;&gt;node0x103c00990</title>
<path fill="none" stroke="#48e818" stroke-width="2" d="M739.38,-271C739.38,-261.56 742,-252.62 746.24,-244.34"/>
<polygon fill="#48e818" stroke="#48e818" stroke-width="2" points="748.4,-247.54 750.59,-237.17 742.41,-243.91 748.4,-247.54"/>
</g>
<!-- node0x103c00a50 -->
<g id="node7" class="node">
<title>node0x103c00a50</title>
<path fill="#bdef9e" stroke="#99c2a2" d="M366.62,-0.5C366.62,-0.5 539.12,-0.5 539.12,-0.5 545.12,-0.5 551.12,-6.5 551.12,-12.5 551.12,-12.5 551.12,-87 551.12,-87 551.12,-93 545.12,-99 539.12,-99 539.12,-99 366.62,-99 366.62,-99 360.62,-99 354.62,-93 354.62,-87 354.62,-87 354.62,-12.5 354.62,-12.5 354.62,-6.5 360.62,-0.5 366.62,-0.5"/>
<text text-anchor="middle" x="452.88" y="-81.7" font-family="Times,serif" font-size="14.00" fill="#000000">7</text>
<text text-anchor="middle" x="452.88" y="-65.2" font-family="Times,serif" font-size="14.00" fill="#000000">0x103c00a50</text>
<polyline fill="none" stroke="#99c2a2" points="354.62,-58 551.12,-58"/>
<text text-anchor="middle" x="381.38" y="-40.7" font-family="Times,serif" font-size="14.00" fill="#000000">Left</text>
<text text-anchor="middle" x="381.38" y="-24.2" font-family="Times,serif" font-size="14.00" fill="#000000">NONE</text>
<text text-anchor="middle" x="381.38" y="-7.7" font-family="Times,serif" font-size="14.00" fill="#000000">0x0</text>
<polyline fill="none" stroke="#99c2a2" points="408.12,-0.5 408.12,-58"/>
<text text-anchor="middle" x="452.88" y="-40.7" font-family="Times,serif" font-size="14.00" fill="#000000">Parent</text>
<text text-anchor="middle" x="452.88" y="-24.2" font-family="Times,serif" font-size="14.00" fill="#000000">*</text>
<text text-anchor="middle" x="452.88" y="-7.7" font-family="Times,serif" font-size="14.00" fill="#000000">0x103c009d0</text>
<polyline fill="none" stroke="#99c2a2" points="497.62,-0.5 497.62,-58"/>
<text text-anchor="middle" x="524.38" y="-40.7" font-family="Times,serif" font-size="14.00" fill="#000000">Right</text>
<text text-anchor="middle" x="524.38" y="-24.2" font-family="Times,serif" font-size="14.00" fill="#000000">NONE</text>
<text text-anchor="middle" x="524.38" y="-7.7" font-family="Times,serif" font-size="14.00" fill="#000000">0x0</text>
</g>
<!-- node0x103c009d0&#45;&gt;node0x103c00a50 -->
<g id="edge5" class="edge">
<title>node0x103c009d0:left&#45;&gt;node0x103c00a50</title>
<path fill="none" stroke="#187ae8" stroke-width="2" d="M471.75,-135.5C471.75,-127.31 470.9,-118.79 469.56,-110.43"/>
<polygon fill="#187ae8" stroke="#187ae8" stroke-width="2" points="473.29,-111.36 468.02,-102.17 466.41,-112.64 473.29,-111.36"/>
</g>
<!-- node0x103c00a10 -->
<g id="node8" class="node">
<title>node0x103c00a10</title>
<path fill="#bdef9e" stroke="#99c2a2" d="M581.62,-0.5C581.62,-0.5 754.12,-0.5 754.12,-0.5 760.12,-0.5 766.12,-6.5 766.12,-12.5 766.12,-12.5 766.12,-87 766.12,-87 766.12,-93 760.12,-99 754.12,-99 754.12,-99 581.62,-99 581.62,-99 575.62,-99 569.62,-93 569.62,-87 569.62,-87 569.62,-12.5 569.62,-12.5 569.62,-6.5 575.62,-0.5 581.62,-0.5"/>
<text text-anchor="middle" x="667.88" y="-81.7" font-family="Times,serif" font-size="14.00" fill="#000000">8</text>
<text text-anchor="middle" x="667.88" y="-65.2" font-family="Times,serif" font-size="14.00" fill="#000000">0x103c00a10</text>
<polyline fill="none" stroke="#99c2a2" points="569.62,-58 766.12,-58"/>
<text text-anchor="middle" x="596.38" y="-40.7" font-family="Times,serif" font-size="14.00" fill="#000000">Left</text>
<text text-anchor="middle" x="596.38" y="-24.2" font-family="Times,serif" font-size="14.00" fill="#000000">NONE</text>
<text text-anchor="middle" x="596.38" y="-7.7" font-family="Times,serif" font-size="14.00" fill="#000000">0x0</text>
<polyline fill="none" stroke="#99c2a2" points="623.12,-0.5 623.12,-58"/>
<text text-anchor="middle" x="667.88" y="-40.7" font-family="Times,serif" font-size="14.00" fill="#000000">Parent</text>
<text text-anchor="middle" x="667.88" y="-24.2" font-family="Times,serif" font-size="14.00" fill="#000000">*</text>
<text text-anchor="middle" x="667.88" y="-7.7" font-family="Times,serif" font-size="14.00" fill="#000000">0x103c009d0</text>
<polyline fill="none" stroke="#99c2a2" points="712.62,-0.5 712.62,-58"/>
<text text-anchor="middle" x="739.38" y="-40.7" font-family="Times,serif" font-size="14.00" fill="#000000">Right</text>
<text text-anchor="middle" x="739.38" y="-24.2" font-family="Times,serif" font-size="14.00" fill="#000000">NONE</text>
<text text-anchor="middle" x="739.38" y="-7.7" font-family="Times,serif" font-size="14.00" fill="#000000">0x0</text>
</g>
<!-- node0x103c009d0&#45;&gt;node0x103c00a10 -->
<g id="edge6" class="edge">
<title>node0x103c009d0:right&#45;&gt;node0x103c00a10</title>
<path fill="none" stroke="#48e818" stroke-width="2" d="M650,-135.5C650,-127.33 650.8,-118.82 652.07,-110.47"/>
<polygon fill="#48e818" stroke="#48e818" stroke-width="2" points="655.24,-112.67 653.53,-102.21 648.34,-111.45 655.24,-112.67"/>
</g>
</g>
</svg>
