<?xml version="1.0" encoding="UTF-8" standalone="no"?>
<!DOCTYPE svg PUBLIC "-//W3C//DTD SVG 1.1//EN"
 "http://www.w3.org/Graphics/SVG/1.1/DTD/svg11.dtd">
<!-- Generated by graphviz version 12.2.0 (20241103.1931)
 -->
<!-- Pages: 1 -->
<svg width="1130pt" height="1192pt"
 viewBox="0.00 0.00 1130.25 1191.50" xmlns="http://www.w3.org/2000/svg" xmlns:xlink="http://www.w3.org/1999/xlink">
<g id="graph0" class="graph" transform="scale(1 1) rotate(0) translate(4 1187.5)">
<polygon fill="#dcdcdc" stroke="none" points="-4,4 -4,-1187.5 1126.25,-1187.5 1126.25,4 -4,4"/>
<!-- node0x103d053d0 -->
<g id="node1" class="node">
<title>node0x103d053d0</title>
<path fill="#f18805" stroke="#af3800" d="M684.62,-1084.5C684.62,-1084.5 894.62,-1084.5 894.62,-1084.5 900.62,-1084.5 906.62,-1090.5 906.62,-1096.5 906.62,-1096.5 906.62,-1171 906.62,-1171 906.62,-1177 900.62,-1183 894.62,-1183 894.62,-1183 684.62,-1183 684.62,-1183 678.62,-1183 672.62,-1177 672.62,-1171 672.62,-1171 672.62,-1096.5 672.62,-1096.5 672.62,-1090.5 678.62,-1084.5 684.62,-1084.5"/>
<text text-anchor="middle" x="789.62" y="-1165.7" font-family="Times,serif" font-size="14.00" fill="#000000">*</text>
<text text-anchor="middle" x="789.62" y="-1149.2" font-family="Times,serif" font-size="14.00" fill="#000000">0x103d053d0</text>
<polyline fill="none" stroke="#af3800" points="672.62,-1142 906.62,-1142"/>
<text text-anchor="middle" x="717.75" y="-1124.7" font-family="Times,serif" font-size="14.00" fill="#000000">Left</text>
<text text-anchor="middle" x="717.75" y="-1108.2" font-family="Times,serif" font-size="14.00" fill="#000000">2</text>
<text text-anchor="middle" x="717.75" y="-1091.7" font-family="Times,serif" font-size="14.00" fill="#000000">0x103d06890</text>
<polyline fill="none" stroke="#af3800" points="762.88,-1084.5 762.88,-1142"/>
<text text-anchor="middle" x="789.62" y="-1124.7" font-family="Times,serif" font-size="14.00" fill="#000000">Parent</text>
<text text-anchor="middle" x="789.62" y="-1108.2" font-family="Times,serif" font-size="14.00" fill="#000000">NONE</text>
<text text-anchor="middle" x="789.62" y="-1091.7" font-family="Times,serif" font-size="14.00" fill="#000000">0x0</text>
<polyline fill="none" stroke="#af3800" points="816.38,-1084.5 816.38,-1142"/>
<text text-anchor="middle" x="861.5" y="-1124.7" font-family="Times,serif" font-size="14.00" fill="#000000">Right</text>
<text text-anchor="middle" x="861.5" y="-1108.2" font-family="Times,serif" font-size="14.00" fill="#000000">*</text>
<text text-anchor="middle" x="861.5" y="-1091.7" font-family="Times,serif" font-size="14.00" fill="#000000">0x103d06510</text>
</g>
<!-- node0x103d06890 -->
<g id="node2" class="node">
<title>node0x103d06890</title>
<path fill="#bdef9e" stroke="#99c2a2" d="M614.38,-949C614.38,-949 750.88,-949 750.88,-949 756.88,-949 762.88,-955 762.88,-961 762.88,-961 762.88,-1035.5 762.88,-1035.5 762.88,-1041.5 756.88,-1047.5 750.88,-1047.5 750.88,-1047.5 614.38,-1047.5 614.38,-1047.5 608.38,-1047.5 602.38,-1041.5 602.38,-1035.5 602.38,-1035.5 602.38,-961 602.38,-961 602.38,-955 608.38,-949 614.38,-949"/>
<text text-anchor="middle" x="682.62" y="-1030.2" font-family="Times,serif" font-size="14.00" fill="#000000">2</text>
<text text-anchor="middle" x="682.62" y="-1013.7" font-family="Times,serif" font-size="14.00" fill="#000000">0x103d06890</text>
<polyline fill="none" stroke="#99c2a2" points="602.38,-1006.5 762.88,-1006.5"/>
<text text-anchor="middle" x="629.12" y="-989.2" font-family="Times,serif" font-size="14.00" fill="#000000">Left</text>
<text text-anchor="middle" x="629.12" y="-972.7" font-family="Times,serif" font-size="14.00" fill="#000000">NONE</text>
<text text-anchor="middle" x="629.12" y="-956.2" font-family="Times,serif" font-size="14.00" fill="#000000">0x0</text>
<polyline fill="none" stroke="#99c2a2" points="655.88,-949 655.88,-1006.5"/>
<text text-anchor="middle" x="682.62" y="-989.2" font-family="Times,serif" font-size="14.00" fill="#000000">Parent</text>
<text text-anchor="middle" x="682.62" y="-972.7" font-family="Times,serif" font-size="14.00" fill="#000000">NONE</text>
<text text-anchor="middle" x="682.62" y="-956.2" font-family="Times,serif" font-size="14.00" fill="#000000">0x0</text>
<polyline fill="none" stroke="#99c2a2" points="709.38,-949 709.38,-1006.5"/>
<text text-anchor="middle" x="736.12" y="-989.2" font-family="Times,serif" font-size="14.00" fill="#000000">Right</text>
<text text-anchor="middle" x="736.12" y="-972.7" font-family="Times,serif" font-size="14.00" fill="#000000">NONE</text>
<text text-anchor="middle" x="736.12" y="-956.2" font-family="Times,serif" font-size="14.00" fill="#000000">0x0</text>
</g>
<!-- node0x103d053d0&#45;&gt;node0x103d06890 -->
<g id="edge1" class="edge">
<title>node0x103d053d0:left&#45;&gt;node0x103d06890</title>
<path fill="none" stroke="#187ae8" stroke-width="2" d="M717.75,-1084C717.75,-1075.47 716.21,-1066.81 713.78,-1058.43"/>
<polygon fill="#187ae8" stroke="#187ae8" stroke-width="2" points="717.62,-1058.84 711.1,-1050.49 710.99,-1061.08 717.62,-1058.84"/>
</g>
<!-- node0x103d06510 -->
<g id="node3" class="node">
<title>node0x103d06510</title>
<path fill="#fbee21" stroke="#d3c70d" d="M792.62,-949C792.62,-949 1002.62,-949 1002.62,-949 1008.62,-949 1014.62,-955 1014.62,-961 1014.62,-961 1014.62,-1035.5 1014.62,-1035.5 1014.62,-1041.5 1008.62,-1047.5 1002.62,-1047.5 1002.62,-1047.5 792.62,-1047.5 792.62,-1047.5 786.62,-1047.5 780.62,-1041.5 780.62,-1035.5 780.62,-1035.5 780.62,-961 780.62,-961 780.62,-955 786.62,-949 792.62,-949"/>
<text text-anchor="middle" x="897.62" y="-1030.2" font-family="Times,serif" font-size="14.00" fill="#000000">*</text>
<text text-anchor="middle" x="897.62" y="-1013.7" font-family="Times,serif" font-size="14.00" fill="#000000">0x103d06510</text>
<polyline fill="none" stroke="#d3c70d" points="780.62,-1006.5 1014.62,-1006.5"/>
<text text-anchor="middle" x="825.75" y="-989.2" font-family="Times,serif" font-size="14.00" fill="#000000">Left</text>
<text text-anchor="middle" x="825.75" y="-972.7" font-family="Times,serif" font-size="14.00" fill="#000000">*</text>
<text text-anchor="middle" x="825.75" y="-956.2" font-family="Times,serif" font-size="14.00" fill="#000000">0x103d06590</text>
<polyline fill="none" stroke="#d3c70d" points="870.88,-949 870.88,-1006.5"/>
<text text-anchor="middle" x="897.62" y="-989.2" font-family="Times,serif" font-size="14.00" fill="#000000">Parent</text>
<text text-anchor="middle" x="897.62" y="-972.7" font-family="Times,serif" font-size="14.00" fill="#000000">NONE</text>
<text text-anchor="middle" x="897.62" y="-956.2" font-family="Times,serif" font-size="14.00" fill="#000000">0x0</text>
<polyline fill="none" stroke="#d3c70d" points="924.38,-949 924.38,-1006.5"/>
<text text-anchor="middle" x="969.5" y="-989.2" font-family="Times,serif" font-size="14.00" fill="#000000">Right</text>
<text text-anchor="middle" x="969.5" y="-972.7" font-family="Times,serif" font-size="14.00" fill="#000000">2</text>
<text text-anchor="middle" x="969.5" y="-956.2" font-family="Times,serif" font-size="14.00" fill="#000000">0x103d06550</text>
</g>
<!-- node0x103d053d0&#45;&gt;node0x103d06510 -->
<g id="edge15" class="edge">
<title>node0x103d053d0:right&#45;&gt;node0x103d06510</title>
<path fill="none" stroke="#48e818" stroke-width="2" d="M861.5,-1084C861.5,-1075.55 863.04,-1066.97 865.48,-1058.69"/>
<polygon fill="#48e818" stroke="#48e818" stroke-width="2" points="868.23,-1061.45 868.18,-1050.86 861.61,-1059.18 868.23,-1061.45"/>
</g>
<!-- node0x103d06590 -->
<g id="node4" class="node">
<title>node0x103d06590</title>
<path fill="#fbee21" stroke="#d3c70d" d="M648.25,-813.5C648.25,-813.5 895,-813.5 895,-813.5 901,-813.5 907,-819.5 907,-825.5 907,-825.5 907,-900 907,-900 907,-906 901,-912 895,-912 895,-912 648.25,-912 648.25,-912 642.25,-912 636.25,-906 636.25,-900 636.25,-900 636.25,-825.5 636.25,-825.5 636.25,-819.5 642.25,-813.5 648.25,-813.5"/>
<text text-anchor="middle" x="771.62" y="-894.7" font-family="Times,serif" font-size="14.00" fill="#000000">*</text>
<text text-anchor="middle" x="771.62" y="-878.2" font-family="Times,serif" font-size="14.00" fill="#000000">0x103d06590</text>
<polyline fill="none" stroke="#d3c70d" points="636.25,-871 907,-871"/>
<text text-anchor="middle" x="681.38" y="-853.7" font-family="Times,serif" font-size="14.00" fill="#000000">Left</text>
<text text-anchor="middle" x="681.38" y="-837.2" font-family="Times,serif" font-size="14.00" fill="#000000">*</text>
<text text-anchor="middle" x="681.38" y="-820.7" font-family="Times,serif" font-size="14.00" fill="#000000">0x103d06610</text>
<polyline fill="none" stroke="#d3c70d" points="726.5,-813.5 726.5,-871"/>
<text text-anchor="middle" x="771.62" y="-853.7" font-family="Times,serif" font-size="14.00" fill="#000000">Parent</text>
<text text-anchor="middle" x="771.62" y="-837.2" font-family="Times,serif" font-size="14.00" fill="#000000">*</text>
<text text-anchor="middle" x="771.62" y="-820.7" font-family="Times,serif" font-size="14.00" fill="#000000">0x103d06510</text>
<polyline fill="none" stroke="#d3c70d" points="816.75,-813.5 816.75,-871"/>
<text text-anchor="middle" x="861.88" y="-853.7" font-family="Times,serif" font-size="14.00" fill="#000000">Right</text>
<text text-anchor="middle" x="861.88" y="-837.2" font-family="Times,serif" font-size="14.00" fill="#000000">2</text>
<text text-anchor="middle" x="861.88" y="-820.7" font-family="Times,serif" font-size="14.00" fill="#000000">0x103d065d0</text>
</g>
<!-- node0x103d06510&#45;&gt;node0x103d06590 -->
<g id="edge2" class="edge">
<title>node0x103d06510:left&#45;&gt;node0x103d06590</title>
<path fill="none" stroke="#187ae8" stroke-width="2" d="M825.75,-948.5C825.75,-939.54 823.57,-930.76 820.09,-922.46"/>
<polygon fill="#187ae8" stroke="#187ae8" stroke-width="2" points="823.95,-922.36 816.39,-914.94 817.67,-925.45 823.95,-922.36"/>
</g>
<!-- node0x103d06550 -->
<g id="node16" class="node">
<title>node0x103d06550</title>
<path fill="#bdef9e" stroke="#99c2a2" d="M937,-813.5C937,-813.5 1110.25,-813.5 1110.25,-813.5 1116.25,-813.5 1122.25,-819.5 1122.25,-825.5 1122.25,-825.5 1122.25,-900 1122.25,-900 1122.25,-906 1116.25,-912 1110.25,-912 1110.25,-912 937,-912 937,-912 931,-912 925,-906 925,-900 925,-900 925,-825.5 925,-825.5 925,-819.5 931,-813.5 937,-813.5"/>
<text text-anchor="middle" x="1023.62" y="-894.7" font-family="Times,serif" font-size="14.00" fill="#000000">2</text>
<text text-anchor="middle" x="1023.62" y="-878.2" font-family="Times,serif" font-size="14.00" fill="#000000">0x103d06550</text>
<polyline fill="none" stroke="#99c2a2" points="925,-871 1122.25,-871"/>
<text text-anchor="middle" x="951.75" y="-853.7" font-family="Times,serif" font-size="14.00" fill="#000000">Left</text>
<text text-anchor="middle" x="951.75" y="-837.2" font-family="Times,serif" font-size="14.00" fill="#000000">NONE</text>
<text text-anchor="middle" x="951.75" y="-820.7" font-family="Times,serif" font-size="14.00" fill="#000000">0x0</text>
<polyline fill="none" stroke="#99c2a2" points="978.5,-813.5 978.5,-871"/>
<text text-anchor="middle" x="1023.62" y="-853.7" font-family="Times,serif" font-size="14.00" fill="#000000">Parent</text>
<text text-anchor="middle" x="1023.62" y="-837.2" font-family="Times,serif" font-size="14.00" fill="#000000">*</text>
<text text-anchor="middle" x="1023.62" y="-820.7" font-family="Times,serif" font-size="14.00" fill="#000000">0x103d06510</text>
<polyline fill="none" stroke="#99c2a2" points="1068.75,-813.5 1068.75,-871"/>
<text text-anchor="middle" x="1095.5" y="-853.7" font-family="Times,serif" font-size="14.00" fill="#000000">Right</text>
<text text-anchor="middle" x="1095.5" y="-837.2" font-family="Times,serif" font-size="14.00" fill="#000000">NONE</text>
<text text-anchor="middle" x="1095.5" y="-820.7" font-family="Times,serif" font-size="14.00" fill="#000000">0x0</text>
</g>
<!-- node0x103d06510&#45;&gt;node0x103d06550 -->
<g id="edge14" class="edge">
<title>node0x103d06510:right&#45;&gt;node0x103d06550</title>
<path fill="none" stroke="#48e818" stroke-width="2" d="M969.5,-948.5C969.5,-939.54 971.68,-930.76 975.16,-922.46"/>
<polygon fill="#48e818" stroke="#48e818" stroke-width="2" points="977.58,-925.45 978.86,-914.94 971.3,-922.36 977.58,-925.45"/>
</g>
<!-- node0x103d06610 -->
<g id="node5" class="node">
<title>node0x103d06610</title>
<path fill="#fbee21" stroke="#d3c70d" d="M522.25,-678C522.25,-678 769,-678 769,-678 775,-678 781,-684 781,-690 781,-690 781,-764.5 781,-764.5 781,-770.5 775,-776.5 769,-776.5 769,-776.5 522.25,-776.5 522.25,-776.5 516.25,-776.5 510.25,-770.5 510.25,-764.5 510.25,-764.5 510.25,-690 510.25,-690 510.25,-684 516.25,-678 522.25,-678"/>
<text text-anchor="middle" x="645.62" y="-759.2" font-family="Times,serif" font-size="14.00" fill="#000000">*</text>
<text text-anchor="middle" x="645.62" y="-742.7" font-family="Times,serif" font-size="14.00" fill="#000000">0x103d06610</text>
<polyline fill="none" stroke="#d3c70d" points="510.25,-735.5 781,-735.5"/>
<text text-anchor="middle" x="555.38" y="-718.2" font-family="Times,serif" font-size="14.00" fill="#000000">Left</text>
<text text-anchor="middle" x="555.38" y="-701.7" font-family="Times,serif" font-size="14.00" fill="#000000">*</text>
<text text-anchor="middle" x="555.38" y="-685.2" font-family="Times,serif" font-size="14.00" fill="#000000">0x103d06690</text>
<polyline fill="none" stroke="#d3c70d" points="600.5,-678 600.5,-735.5"/>
<text text-anchor="middle" x="645.62" y="-718.2" font-family="Times,serif" font-size="14.00" fill="#000000">Parent</text>
<text text-anchor="middle" x="645.62" y="-701.7" font-family="Times,serif" font-size="14.00" fill="#000000">*</text>
<text text-anchor="middle" x="645.62" y="-685.2" font-family="Times,serif" font-size="14.00" fill="#000000">0x103d06590</text>
<polyline fill="none" stroke="#d3c70d" points="690.75,-678 690.75,-735.5"/>
<text text-anchor="middle" x="735.88" y="-718.2" font-family="Times,serif" font-size="14.00" fill="#000000">Right</text>
<text text-anchor="middle" x="735.88" y="-701.7" font-family="Times,serif" font-size="14.00" fill="#000000">2</text>
<text text-anchor="middle" x="735.88" y="-685.2" font-family="Times,serif" font-size="14.00" fill="#000000">0x103d06650</text>
</g>
<!-- node0x103d06590&#45;&gt;node0x103d06610 -->
<g id="edge3" class="edge">
<title>node0x103d06590:left&#45;&gt;node0x103d06610</title>
<path fill="none" stroke="#187ae8" stroke-width="2" d="M681.38,-813C681.38,-804.45 679.81,-795.77 677.34,-787.39"/>
<polygon fill="#187ae8" stroke="#187ae8" stroke-width="2" points="681.17,-787.75 674.6,-779.44 674.55,-790.03 681.17,-787.75"/>
</g>
<!-- node0x103d065d0 -->
<g id="node15" class="node">
<title>node0x103d065d0</title>
<path fill="#bdef9e" stroke="#99c2a2" d="M811,-678C811,-678 984.25,-678 984.25,-678 990.25,-678 996.25,-684 996.25,-690 996.25,-690 996.25,-764.5 996.25,-764.5 996.25,-770.5 990.25,-776.5 984.25,-776.5 984.25,-776.5 811,-776.5 811,-776.5 805,-776.5 799,-770.5 799,-764.5 799,-764.5 799,-690 799,-690 799,-684 805,-678 811,-678"/>
<text text-anchor="middle" x="897.62" y="-759.2" font-family="Times,serif" font-size="14.00" fill="#000000">2</text>
<text text-anchor="middle" x="897.62" y="-742.7" font-family="Times,serif" font-size="14.00" fill="#000000">0x103d065d0</text>
<polyline fill="none" stroke="#99c2a2" points="799,-735.5 996.25,-735.5"/>
<text text-anchor="middle" x="825.75" y="-718.2" font-family="Times,serif" font-size="14.00" fill="#000000">Left</text>
<text text-anchor="middle" x="825.75" y="-701.7" font-family="Times,serif" font-size="14.00" fill="#000000">NONE</text>
<text text-anchor="middle" x="825.75" y="-685.2" font-family="Times,serif" font-size="14.00" fill="#000000">0x0</text>
<polyline fill="none" stroke="#99c2a2" points="852.5,-678 852.5,-735.5"/>
<text text-anchor="middle" x="897.62" y="-718.2" font-family="Times,serif" font-size="14.00" fill="#000000">Parent</text>
<text text-anchor="middle" x="897.62" y="-701.7" font-family="Times,serif" font-size="14.00" fill="#000000">*</text>
<text text-anchor="middle" x="897.62" y="-685.2" font-family="Times,serif" font-size="14.00" fill="#000000">0x103d06590</text>
<polyline fill="none" stroke="#99c2a2" points="942.75,-678 942.75,-735.5"/>
<text text-anchor="middle" x="969.5" y="-718.2" font-family="Times,serif" font-size="14.00" fill="#000000">Right</text>
<text text-anchor="middle" x="969.5" y="-701.7" font-family="Times,serif" font-size="14.00" fill="#000000">NONE</text>
<text text-anchor="middle" x="969.5" y="-685.2" font-family="Times,serif" font-size="14.00" fill="#000000">0x0</text>
</g>
<!-- node0x103d06590&#45;&gt;node0x103d065d0 -->
<g id="edge13" class="edge">
<title>node0x103d06590:right&#45;&gt;node0x103d065d0</title>
<path fill="none" stroke="#48e818" stroke-width="2" d="M861.88,-813C861.88,-804.45 863.44,-795.77 865.91,-787.39"/>
<polygon fill="#48e818" stroke="#48e818" stroke-width="2" points="868.7,-790.03 868.65,-779.44 862.08,-787.75 868.7,-790.03"/>
</g>
<!-- node0x103d06690 -->
<g id="node6" class="node">
<title>node0x103d06690</title>
<path fill="#fbee21" stroke="#d3c70d" d="M396.25,-542.5C396.25,-542.5 643,-542.5 643,-542.5 649,-542.5 655,-548.5 655,-554.5 655,-554.5 655,-629 655,-629 655,-635 649,-641 643,-641 643,-641 396.25,-641 396.25,-641 390.25,-641 384.25,-635 384.25,-629 384.25,-629 384.25,-554.5 384.25,-554.5 384.25,-548.5 390.25,-542.5 396.25,-542.5"/>
<text text-anchor="middle" x="519.62" y="-623.7" font-family="Times,serif" font-size="14.00" fill="#000000">*</text>
<text text-anchor="middle" x="519.62" y="-607.2" font-family="Times,serif" font-size="14.00" fill="#000000">0x103d06690</text>
<polyline fill="none" stroke="#d3c70d" points="384.25,-600 655,-600"/>
<text text-anchor="middle" x="429.38" y="-582.7" font-family="Times,serif" font-size="14.00" fill="#000000">Left</text>
<text text-anchor="middle" x="429.38" y="-566.2" font-family="Times,serif" font-size="14.00" fill="#000000">*</text>
<text text-anchor="middle" x="429.38" y="-549.7" font-family="Times,serif" font-size="14.00" fill="#000000">0x103d06710</text>
<polyline fill="none" stroke="#d3c70d" points="474.5,-542.5 474.5,-600"/>
<text text-anchor="middle" x="519.62" y="-582.7" font-family="Times,serif" font-size="14.00" fill="#000000">Parent</text>
<text text-anchor="middle" x="519.62" y="-566.2" font-family="Times,serif" font-size="14.00" fill="#000000">*</text>
<text text-anchor="middle" x="519.62" y="-549.7" font-family="Times,serif" font-size="14.00" fill="#000000">0x103d06610</text>
<polyline fill="none" stroke="#d3c70d" points="564.75,-542.5 564.75,-600"/>
<text text-anchor="middle" x="609.88" y="-582.7" font-family="Times,serif" font-size="14.00" fill="#000000">Right</text>
<text text-anchor="middle" x="609.88" y="-566.2" font-family="Times,serif" font-size="14.00" fill="#000000">2</text>
<text text-anchor="middle" x="609.88" y="-549.7" font-family="Times,serif" font-size="14.00" fill="#000000">0x103d066d0</text>
</g>
<!-- node0x103d06610&#45;&gt;node0x103d06690 -->
<g id="edge4" class="edge">
<title>node0x103d06610:left&#45;&gt;node0x103d06690</title>
<path fill="none" stroke="#187ae8" stroke-width="2" d="M555.38,-677.5C555.38,-668.95 553.81,-660.27 551.34,-651.89"/>
<polygon fill="#187ae8" stroke="#187ae8" stroke-width="2" points="555.17,-652.25 548.6,-643.94 548.55,-654.53 555.17,-652.25"/>
</g>
<!-- node0x103d06650 -->
<g id="node14" class="node">
<title>node0x103d06650</title>
<path fill="#bdef9e" stroke="#99c2a2" d="M685,-542.5C685,-542.5 858.25,-542.5 858.25,-542.5 864.25,-542.5 870.25,-548.5 870.25,-554.5 870.25,-554.5 870.25,-629 870.25,-629 870.25,-635 864.25,-641 858.25,-641 858.25,-641 685,-641 685,-641 679,-641 673,-635 673,-629 673,-629 673,-554.5 673,-554.5 673,-548.5 679,-542.5 685,-542.5"/>
<text text-anchor="middle" x="771.62" y="-623.7" font-family="Times,serif" font-size="14.00" fill="#000000">2</text>
<text text-anchor="middle" x="771.62" y="-607.2" font-family="Times,serif" font-size="14.00" fill="#000000">0x103d06650</text>
<polyline fill="none" stroke="#99c2a2" points="673,-600 870.25,-600"/>
<text text-anchor="middle" x="699.75" y="-582.7" font-family="Times,serif" font-size="14.00" fill="#000000">Left</text>
<text text-anchor="middle" x="699.75" y="-566.2" font-family="Times,serif" font-size="14.00" fill="#000000">NONE</text>
<text text-anchor="middle" x="699.75" y="-549.7" font-family="Times,serif" font-size="14.00" fill="#000000">0x0</text>
<polyline fill="none" stroke="#99c2a2" points="726.5,-542.5 726.5,-600"/>
<text text-anchor="middle" x="771.62" y="-582.7" font-family="Times,serif" font-size="14.00" fill="#000000">Parent</text>
<text text-anchor="middle" x="771.62" y="-566.2" font-family="Times,serif" font-size="14.00" fill="#000000">*</text>
<text text-anchor="middle" x="771.62" y="-549.7" font-family="Times,serif" font-size="14.00" fill="#000000">0x103d06610</text>
<polyline fill="none" stroke="#99c2a2" points="816.75,-542.5 816.75,-600"/>
<text text-anchor="middle" x="843.5" y="-582.7" font-family="Times,serif" font-size="14.00" fill="#000000">Right</text>
<text text-anchor="middle" x="843.5" y="-566.2" font-family="Times,serif" font-size="14.00" fill="#000000">NONE</text>
<text text-anchor="middle" x="843.5" y="-549.7" font-family="Times,serif" font-size="14.00" fill="#000000">0x0</text>
</g>
<!-- node0x103d06610&#45;&gt;node0x103d06650 -->
<g id="edge12" class="edge">
<title>node0x103d06610:right&#45;&gt;node0x103d06650</title>
<path fill="none" stroke="#48e818" stroke-width="2" d="M735.88,-677.5C735.88,-668.95 737.44,-660.27 739.91,-651.89"/>
<polygon fill="#48e818" stroke="#48e818" stroke-width="2" points="742.7,-654.53 742.65,-643.94 736.08,-652.25 742.7,-654.53"/>
</g>
<!-- node0x103d06710 -->
<g id="node7" class="node">
<title>node0x103d06710</title>
<path fill="#fbee21" stroke="#d3c70d" d="M270.25,-407C270.25,-407 517,-407 517,-407 523,-407 529,-413 529,-419 529,-419 529,-493.5 529,-493.5 529,-499.5 523,-505.5 517,-505.5 517,-505.5 270.25,-505.5 270.25,-505.5 264.25,-505.5 258.25,-499.5 258.25,-493.5 258.25,-493.5 258.25,-419 258.25,-419 258.25,-413 264.25,-407 270.25,-407"/>
<text text-anchor="middle" x="393.62" y="-488.2" font-family="Times,serif" font-size="14.00" fill="#000000">*</text>
<text text-anchor="middle" x="393.62" y="-471.7" font-family="Times,serif" font-size="14.00" fill="#000000">0x103d06710</text>
<polyline fill="none" stroke="#d3c70d" points="258.25,-464.5 529,-464.5"/>
<text text-anchor="middle" x="303.38" y="-447.2" font-family="Times,serif" font-size="14.00" fill="#000000">Left</text>
<text text-anchor="middle" x="303.38" y="-430.7" font-family="Times,serif" font-size="14.00" fill="#000000">exp</text>
<text text-anchor="middle" x="303.38" y="-414.2" font-family="Times,serif" font-size="14.00" fill="#000000">0x103d06790</text>
<polyline fill="none" stroke="#d3c70d" points="348.5,-407 348.5,-464.5"/>
<text text-anchor="middle" x="393.62" y="-447.2" font-family="Times,serif" font-size="14.00" fill="#000000">Parent</text>
<text text-anchor="middle" x="393.62" y="-430.7" font-family="Times,serif" font-size="14.00" fill="#000000">*</text>
<text text-anchor="middle" x="393.62" y="-414.2" font-family="Times,serif" font-size="14.00" fill="#000000">0x103d06690</text>
<polyline fill="none" stroke="#d3c70d" points="438.75,-407 438.75,-464.5"/>
<text text-anchor="middle" x="483.88" y="-447.2" font-family="Times,serif" font-size="14.00" fill="#000000">Right</text>
<text text-anchor="middle" x="483.88" y="-430.7" font-family="Times,serif" font-size="14.00" fill="#000000">2</text>
<text text-anchor="middle" x="483.88" y="-414.2" font-family="Times,serif" font-size="14.00" fill="#000000">0x103d06750</text>
</g>
<!-- node0x103d06690&#45;&gt;node0x103d06710 -->
<g id="edge5" class="edge">
<title>node0x103d06690:left&#45;&gt;node0x103d06710</title>
<path fill="none" stroke="#187ae8" stroke-width="2" d="M429.38,-542C429.38,-533.45 427.81,-524.77 425.34,-516.39"/>
<polygon fill="#187ae8" stroke="#187ae8" stroke-width="2" points="429.17,-516.75 422.6,-508.44 422.55,-519.03 429.17,-516.75"/>
</g>
<!-- node0x103d066d0 -->
<g id="node13" class="node">
<title>node0x103d066d0</title>
<path fill="#bdef9e" stroke="#99c2a2" d="M559,-407C559,-407 732.25,-407 732.25,-407 738.25,-407 744.25,-413 744.25,-419 744.25,-419 744.25,-493.5 744.25,-493.5 744.25,-499.5 738.25,-505.5 732.25,-505.5 732.25,-505.5 559,-505.5 559,-505.5 553,-505.5 547,-499.5 547,-493.5 547,-493.5 547,-419 547,-419 547,-413 553,-407 559,-407"/>
<text text-anchor="middle" x="645.62" y="-488.2" font-family="Times,serif" font-size="14.00" fill="#000000">2</text>
<text text-anchor="middle" x="645.62" y="-471.7" font-family="Times,serif" font-size="14.00" fill="#000000">0x103d066d0</text>
<polyline fill="none" stroke="#99c2a2" points="547,-464.5 744.25,-464.5"/>
<text text-anchor="middle" x="573.75" y="-447.2" font-family="Times,serif" font-size="14.00" fill="#000000">Left</text>
<text text-anchor="middle" x="573.75" y="-430.7" font-family="Times,serif" font-size="14.00" fill="#000000">NONE</text>
<text text-anchor="middle" x="573.75" y="-414.2" font-family="Times,serif" font-size="14.00" fill="#000000">0x0</text>
<polyline fill="none" stroke="#99c2a2" points="600.5,-407 600.5,-464.5"/>
<text text-anchor="middle" x="645.62" y="-447.2" font-family="Times,serif" font-size="14.00" fill="#000000">Parent</text>
<text text-anchor="middle" x="645.62" y="-430.7" font-family="Times,serif" font-size="14.00" fill="#000000">*</text>
<text text-anchor="middle" x="645.62" y="-414.2" font-family="Times,serif" font-size="14.00" fill="#000000">0x103d06690</text>
<polyline fill="none" stroke="#99c2a2" points="690.75,-407 690.75,-464.5"/>
<text text-anchor="middle" x="717.5" y="-447.2" font-family="Times,serif" font-size="14.00" fill="#000000">Right</text>
<text text-anchor="middle" x="717.5" y="-430.7" font-family="Times,serif" font-size="14.00" fill="#000000">NONE</text>
<text text-anchor="middle" x="717.5" y="-414.2" font-family="Times,serif" font-size="14.00" fill="#000000">0x0</text>
</g>
<!-- node0x103d06690&#45;&gt;node0x103d066d0 -->
<g id="edge11" class="edge">
<title>node0x103d06690:right&#45;&gt;node0x103d066d0</title>
<path fill="none" stroke="#48e818" stroke-width="2" d="M609.88,-542C609.88,-533.45 611.44,-524.77 613.91,-516.39"/>
<polygon fill="#48e818" stroke="#48e818" stroke-width="2" points="616.7,-519.03 616.65,-508.44 610.08,-516.75 616.7,-519.03"/>
</g>
<!-- node0x103d06790 -->
<g id="node8" class="node">
<title>node0x103d06790</title>
<path fill="#fbee21" stroke="#d3c70d" d="M171.62,-271.5C171.62,-271.5 381.62,-271.5 381.62,-271.5 387.62,-271.5 393.62,-277.5 393.62,-283.5 393.62,-283.5 393.62,-358 393.62,-358 393.62,-364 387.62,-370 381.62,-370 381.62,-370 171.62,-370 171.62,-370 165.62,-370 159.62,-364 159.62,-358 159.62,-358 159.62,-283.5 159.62,-283.5 159.62,-277.5 165.62,-271.5 171.62,-271.5"/>
<text text-anchor="middle" x="276.62" y="-352.7" font-family="Times,serif" font-size="14.00" fill="#000000">exp</text>
<text text-anchor="middle" x="276.62" y="-336.2" font-family="Times,serif" font-size="14.00" fill="#000000">0x103d06790</text>
<polyline fill="none" stroke="#d3c70d" points="159.62,-329 393.62,-329"/>
<text text-anchor="middle" x="204.75" y="-311.7" font-family="Times,serif" font-size="14.00" fill="#000000">Left</text>
<text text-anchor="middle" x="204.75" y="-295.2" font-family="Times,serif" font-size="14.00" fill="#000000">*</text>
<text text-anchor="middle" x="204.75" y="-278.7" font-family="Times,serif" font-size="14.00" fill="#000000">0x103d067d0</text>
<polyline fill="none" stroke="#d3c70d" points="249.88,-271.5 249.88,-329"/>
<text text-anchor="middle" x="295" y="-311.7" font-family="Times,serif" font-size="14.00" fill="#000000">Parent</text>
<text text-anchor="middle" x="295" y="-295.2" font-family="Times,serif" font-size="14.00" fill="#000000">*</text>
<text text-anchor="middle" x="295" y="-278.7" font-family="Times,serif" font-size="14.00" fill="#000000">0x103d06710</text>
<polyline fill="none" stroke="#d3c70d" points="340.12,-271.5 340.12,-329"/>
<text text-anchor="middle" x="366.88" y="-311.7" font-family="Times,serif" font-size="14.00" fill="#000000">Right</text>
<text text-anchor="middle" x="366.88" y="-295.2" font-family="Times,serif" font-size="14.00" fill="#000000">NONE</text>
<text text-anchor="middle" x="366.88" y="-278.7" font-family="Times,serif" font-size="14.00" fill="#000000">0x0</text>
</g>
<!-- node0x103d06710&#45;&gt;node0x103d06790 -->
<g id="edge6" class="edge">
<title>node0x103d06710:left&#45;&gt;node0x103d06790</title>
<path fill="none" stroke="#187ae8" stroke-width="2" d="M303.38,-406.5C303.38,-398.13 302.17,-389.51 300.28,-381.11"/>
<polygon fill="#187ae8" stroke="#187ae8" stroke-width="2" points="304.12,-381.95 298.2,-373.16 297.35,-383.73 304.12,-381.95"/>
</g>
<!-- node0x103d06750 -->
<g id="node12" class="node">
<title>node0x103d06750</title>
<path fill="#bdef9e" stroke="#99c2a2" d="M424,-271.5C424,-271.5 597.25,-271.5 597.25,-271.5 603.25,-271.5 609.25,-277.5 609.25,-283.5 609.25,-283.5 609.25,-358 609.25,-358 609.25,-364 603.25,-370 597.25,-370 597.25,-370 424,-370 424,-370 418,-370 412,-364 412,-358 412,-358 412,-283.5 412,-283.5 412,-277.5 418,-271.5 424,-271.5"/>
<text text-anchor="middle" x="510.62" y="-352.7" font-family="Times,serif" font-size="14.00" fill="#000000">2</text>
<text text-anchor="middle" x="510.62" y="-336.2" font-family="Times,serif" font-size="14.00" fill="#000000">0x103d06750</text>
<polyline fill="none" stroke="#99c2a2" points="412,-329 609.25,-329"/>
<text text-anchor="middle" x="438.75" y="-311.7" font-family="Times,serif" font-size="14.00" fill="#000000">Left</text>
<text text-anchor="middle" x="438.75" y="-295.2" font-family="Times,serif" font-size="14.00" fill="#000000">NONE</text>
<text text-anchor="middle" x="438.75" y="-278.7" font-family="Times,serif" font-size="14.00" fill="#000000">0x0</text>
<polyline fill="none" stroke="#99c2a2" points="465.5,-271.5 465.5,-329"/>
<text text-anchor="middle" x="510.62" y="-311.7" font-family="Times,serif" font-size="14.00" fill="#000000">Parent</text>
<text text-anchor="middle" x="510.62" y="-295.2" font-family="Times,serif" font-size="14.00" fill="#000000">*</text>
<text text-anchor="middle" x="510.62" y="-278.7" font-family="Times,serif" font-size="14.00" fill="#000000">0x103d06710</text>
<polyline fill="none" stroke="#99c2a2" points="555.75,-271.5 555.75,-329"/>
<text text-anchor="middle" x="582.5" y="-311.7" font-family="Times,serif" font-size="14.00" fill="#000000">Right</text>
<text text-anchor="middle" x="582.5" y="-295.2" font-family="Times,serif" font-size="14.00" fill="#000000">NONE</text>
<text text-anchor="middle" x="582.5" y="-278.7" font-family="Times,serif" font-size="14.00" fill="#000000">0x0</text>
</g>
<!-- node0x103d06710&#45;&gt;node0x103d06750 -->
<g id="edge10" class="edge">
<title>node0x103d06710:right&#45;&gt;node0x103d06750</title>
<path fill="none" stroke="#48e818" stroke-width="2" d="M483.88,-406.5C483.88,-398.13 485.08,-389.51 486.97,-381.11"/>
<polygon fill="#48e818" stroke="#48e818" stroke-width="2" points="489.9,-383.73 489.05,-373.16 483.13,-381.95 489.9,-383.73"/>
</g>
<!-- node0x103d067d0 -->
<g id="node9" class="node">
<title>node0x103d067d0</title>
<path fill="#fbee21" stroke="#d3c70d" d="M82.25,-136C82.25,-136 329,-136 329,-136 335,-136 341,-142 341,-148 341,-148 341,-222.5 341,-222.5 341,-228.5 335,-234.5 329,-234.5 329,-234.5 82.25,-234.5 82.25,-234.5 76.25,-234.5 70.25,-228.5 70.25,-222.5 70.25,-222.5 70.25,-148 70.25,-148 70.25,-142 76.25,-136 82.25,-136"/>
<text text-anchor="middle" x="205.62" y="-217.2" font-family="Times,serif" font-size="14.00" fill="#000000">*</text>
<text text-anchor="middle" x="205.62" y="-200.7" font-family="Times,serif" font-size="14.00" fill="#000000">0x103d067d0</text>
<polyline fill="none" stroke="#d3c70d" points="70.25,-193.5 341,-193.5"/>
<text text-anchor="middle" x="115.38" y="-176.2" font-family="Times,serif" font-size="14.00" fill="#000000">Left</text>
<text text-anchor="middle" x="115.38" y="-159.7" font-family="Times,serif" font-size="14.00" fill="#000000">x</text>
<text text-anchor="middle" x="115.38" y="-143.2" font-family="Times,serif" font-size="14.00" fill="#000000">0x103d06850</text>
<polyline fill="none" stroke="#d3c70d" points="160.5,-136 160.5,-193.5"/>
<text text-anchor="middle" x="205.62" y="-176.2" font-family="Times,serif" font-size="14.00" fill="#000000">Parent</text>
<text text-anchor="middle" x="205.62" y="-159.7" font-family="Times,serif" font-size="14.00" fill="#000000">exp</text>
<text text-anchor="middle" x="205.62" y="-143.2" font-family="Times,serif" font-size="14.00" fill="#000000">0x103d06790</text>
<polyline fill="none" stroke="#d3c70d" points="250.75,-136 250.75,-193.5"/>
<text text-anchor="middle" x="295.88" y="-176.2" font-family="Times,serif" font-size="14.00" fill="#000000">Right</text>
<text text-anchor="middle" x="295.88" y="-159.7" font-family="Times,serif" font-size="14.00" fill="#000000">2</text>
<text text-anchor="middle" x="295.88" y="-143.2" font-family="Times,serif" font-size="14.00" fill="#000000">0x103d06810</text>
</g>
<!-- node0x103d06790&#45;&gt;node0x103d067d0 -->
<g id="edge7" class="edge">
<title>node0x103d06790:left&#45;&gt;node0x103d067d0</title>
<path fill="none" stroke="#187ae8" stroke-width="2" d="M204.75,-271C204.75,-262.91 204.79,-254.38 204.85,-245.98"/>
<polygon fill="#187ae8" stroke="#187ae8" stroke-width="2" points="208.34,-247.71 204.93,-237.68 201.34,-247.65 208.34,-247.71"/>
</g>
<!-- node0x103d06850 -->
<g id="node10" class="node">
<title>node0x103d06850</title>
<path fill="#d5cfe1" stroke="#8797b2" d="M12,-0.5C12,-0.5 185.25,-0.5 185.25,-0.5 191.25,-0.5 197.25,-6.5 197.25,-12.5 197.25,-12.5 197.25,-87 197.25,-87 197.25,-93 191.25,-99 185.25,-99 185.25,-99 12,-99 12,-99 6,-99 0,-93 0,-87 0,-87 0,-12.5 0,-12.5 0,-6.5 6,-0.5 12,-0.5"/>
<text text-anchor="middle" x="98.62" y="-81.7" font-family="Times,serif" font-size="14.00" fill="#000000">x</text>
<text text-anchor="middle" x="98.62" y="-65.2" font-family="Times,serif" font-size="14.00" fill="#000000">0x103d06850</text>
<polyline fill="none" stroke="#8797b2" points="0,-58 197.25,-58"/>
<text text-anchor="middle" x="26.75" y="-40.7" font-family="Times,serif" font-size="14.00" fill="#000000">Left</text>
<text text-anchor="middle" x="26.75" y="-24.2" font-family="Times,serif" font-size="14.00" fill="#000000">NONE</text>
<text text-anchor="middle" x="26.75" y="-7.7" font-family="Times,serif" font-size="14.00" fill="#000000">0x0</text>
<polyline fill="none" stroke="#8797b2" points="53.5,-0.5 53.5,-58"/>
<text text-anchor="middle" x="98.62" y="-40.7" font-family="Times,serif" font-size="14.00" fill="#000000">Parent</text>
<text text-anchor="middle" x="98.62" y="-24.2" font-family="Times,serif" font-size="14.00" fill="#000000">*</text>
<text text-anchor="middle" x="98.62" y="-7.7" font-family="Times,serif" font-size="14.00" fill="#000000">0x103d067d0</text>
<polyline fill="none" stroke="#8797b2" points="143.75,-0.5 143.75,-58"/>
<text text-anchor="middle" x="170.5" y="-40.7" font-family="Times,serif" font-size="14.00" fill="#000000">Right</text>
<text text-anchor="middle" x="170.5" y="-24.2" font-family="Times,serif" font-size="14.00" fill="#000000">NONE</text>
<text text-anchor="middle" x="170.5" y="-7.7" font-family="Times,serif" font-size="14.00" fill="#000000">0x0</text>
</g>
<!-- node0x103d067d0&#45;&gt;node0x103d06850 -->
<g id="edge8" class="edge">
<title>node0x103d067d0:left&#45;&gt;node0x103d06850</title>
<path fill="none" stroke="#187ae8" stroke-width="2" d="M115.38,-135.5C115.38,-127.35 114.62,-118.85 113.43,-110.51"/>
<polygon fill="#187ae8" stroke="#187ae8" stroke-width="2" points="117.15,-111.56 112.07,-102.26 110.25,-112.7 117.15,-111.56"/>
</g>
<!-- node0x103d06810 -->
<g id="node11" class="node">
<title>node0x103d06810</title>
<path fill="#bdef9e" stroke="#99c2a2" d="M227,-0.5C227,-0.5 400.25,-0.5 400.25,-0.5 406.25,-0.5 412.25,-6.5 412.25,-12.5 412.25,-12.5 412.25,-87 412.25,-87 412.25,-93 406.25,-99 400.25,-99 400.25,-99 227,-99 227,-99 221,-99 215,-93 215,-87 215,-87 215,-12.5 215,-12.5 215,-6.5 221,-0.5 227,-0.5"/>
<text text-anchor="middle" x="313.62" y="-81.7" font-family="Times,serif" font-size="14.00" fill="#000000">2</text>
<text text-anchor="middle" x="313.62" y="-65.2" font-family="Times,serif" font-size="14.00" fill="#000000">0x103d06810</text>
<polyline fill="none" stroke="#99c2a2" points="215,-58 412.25,-58"/>
<text text-anchor="middle" x="241.75" y="-40.7" font-family="Times,serif" font-size="14.00" fill="#000000">Left</text>
<text text-anchor="middle" x="241.75" y="-24.2" font-family="Times,serif" font-size="14.00" fill="#000000">NONE</text>
<text text-anchor="middle" x="241.75" y="-7.7" font-family="Times,serif" font-size="14.00" fill="#000000">0x0</text>
<polyline fill="none" stroke="#99c2a2" points="268.5,-0.5 268.5,-58"/>
<text text-anchor="middle" x="313.62" y="-40.7" font-family="Times,serif" font-size="14.00" fill="#000000">Parent</text>
<text text-anchor="middle" x="313.62" y="-24.2" font-family="Times,serif" font-size="14.00" fill="#000000">*</text>
<text text-anchor="middle" x="313.62" y="-7.7" font-family="Times,serif" font-size="14.00" fill="#000000">0x103d067d0</text>
<polyline fill="none" stroke="#99c2a2" points="358.75,-0.5 358.75,-58"/>
<text text-anchor="middle" x="385.5" y="-40.7" font-family="Times,serif" font-size="14.00" fill="#000000">Right</text>
<text text-anchor="middle" x="385.5" y="-24.2" font-family="Times,serif" font-size="14.00" fill="#000000">NONE</text>
<text text-anchor="middle" x="385.5" y="-7.7" font-family="Times,serif" font-size="14.00" fill="#000000">0x0</text>
</g>
<!-- node0x103d067d0&#45;&gt;node0x103d06810 -->
<g id="edge9" class="edge">
<title>node0x103d067d0:right&#45;&gt;node0x103d06810</title>
<path fill="none" stroke="#48e818" stroke-width="2" d="M295.88,-135.5C295.88,-127.34 296.67,-118.82 297.93,-110.47"/>
<polygon fill="#48e818" stroke="#48e818" stroke-width="2" points="301.1,-112.67 299.38,-102.22 294.21,-111.46 301.1,-112.67"/>
</g>
</g>
</svg>
