<?xml version="1.0" encoding="UTF-8" standalone="no"?>
<!DOCTYPE svg PUBLIC "-//W3C//DTD SVG 1.1//EN"
 "http://www.w3.org/Graphics/SVG/1.1/DTD/svg11.dtd">
<!-- Generated by graphviz version 12.2.0 (20241103.1931)
 -->
<!-- Pages: 1 -->
<svg width="1280pt" height="650pt"
 viewBox="0.00 0.00 1279.88 649.50" xmlns="http://www.w3.org/2000/svg" xmlns:xlink="http://www.w3.org/1999/xlink">
<g id="graph0" class="graph" transform="scale(1 1) rotate(0) translate(4 645.5)">
<polygon fill="#dcdcdc" stroke="none" points="-4,4 -4,-645.5 1275.88,-645.5 1275.88,4 -4,4"/>
<!-- node0x105600b90 -->
<g id="node1" class="node">
<title>node0x105600b90</title>
<path fill="#fbee21" stroke="#d3c70d" d="M551.62,-542.5C551.62,-542.5 760.88,-542.5 760.88,-542.5 766.88,-542.5 772.88,-548.5 772.88,-554.5 772.88,-554.5 772.88,-629 772.88,-629 772.88,-635 766.88,-641 760.88,-641 760.88,-641 551.62,-641 551.62,-641 545.62,-641 539.62,-635 539.62,-629 539.62,-629 539.62,-554.5 539.62,-554.5 539.62,-548.5 545.62,-542.5 551.62,-542.5"/>
<text text-anchor="middle" x="656.25" y="-623.7" font-family="Times,serif" font-size="14.00" fill="#000000">^</text>
<text text-anchor="middle" x="656.25" y="-607.2" font-family="Times,serif" font-size="14.00" fill="#000000">0x105600b90</text>
<polyline fill="none" stroke="#d3c70d" points="539.62,-600 772.88,-600"/>
<text text-anchor="middle" x="584.75" y="-582.7" font-family="Times,serif" font-size="14.00" fill="#000000">Left</text>
<text text-anchor="middle" x="584.75" y="-566.2" font-family="Times,serif" font-size="14.00" fill="#000000">sqrt</text>
<text text-anchor="middle" x="584.75" y="-549.7" font-family="Times,serif" font-size="14.00" fill="#000000">0x105600b50</text>
<polyline fill="none" stroke="#d3c70d" points="629.88,-542.5 629.88,-600"/>
<text text-anchor="middle" x="656.62" y="-582.7" font-family="Times,serif" font-size="14.00" fill="#000000">Parent</text>
<text text-anchor="middle" x="656.62" y="-566.2" font-family="Times,serif" font-size="14.00" fill="#000000">NONE</text>
<text text-anchor="middle" x="656.62" y="-549.7" font-family="Times,serif" font-size="14.00" fill="#000000">0x0</text>
<polyline fill="none" stroke="#d3c70d" points="683.38,-542.5 683.38,-600"/>
<text text-anchor="middle" x="728.12" y="-582.7" font-family="Times,serif" font-size="14.00" fill="#000000">Right</text>
<text text-anchor="middle" x="728.12" y="-566.2" font-family="Times,serif" font-size="14.00" fill="#000000">&#45;</text>
<text text-anchor="middle" x="728.12" y="-549.7" font-family="Times,serif" font-size="14.00" fill="#000000">0x105600a10</text>
</g>
<!-- node0x105600b50 -->
<g id="node2" class="node">
<title>node0x105600b50</title>
<path fill="#fbee21" stroke="#d3c70d" d="M394.25,-407C394.25,-407 604.25,-407 604.25,-407 610.25,-407 616.25,-413 616.25,-419 616.25,-419 616.25,-493.5 616.25,-493.5 616.25,-499.5 610.25,-505.5 604.25,-505.5 604.25,-505.5 394.25,-505.5 394.25,-505.5 388.25,-505.5 382.25,-499.5 382.25,-493.5 382.25,-493.5 382.25,-419 382.25,-419 382.25,-413 388.25,-407 394.25,-407"/>
<text text-anchor="middle" x="499.25" y="-488.2" font-family="Times,serif" font-size="14.00" fill="#000000">sqrt</text>
<text text-anchor="middle" x="499.25" y="-471.7" font-family="Times,serif" font-size="14.00" fill="#000000">0x105600b50</text>
<polyline fill="none" stroke="#d3c70d" points="382.25,-464.5 616.25,-464.5"/>
<text text-anchor="middle" x="427.38" y="-447.2" font-family="Times,serif" font-size="14.00" fill="#000000">Left</text>
<text text-anchor="middle" x="427.38" y="-430.7" font-family="Times,serif" font-size="14.00" fill="#000000">cos</text>
<text text-anchor="middle" x="427.38" y="-414.2" font-family="Times,serif" font-size="14.00" fill="#000000">0x105600b10</text>
<polyline fill="none" stroke="#d3c70d" points="472.5,-407 472.5,-464.5"/>
<text text-anchor="middle" x="517.62" y="-447.2" font-family="Times,serif" font-size="14.00" fill="#000000">Parent</text>
<text text-anchor="middle" x="517.62" y="-430.7" font-family="Times,serif" font-size="14.00" fill="#000000">^</text>
<text text-anchor="middle" x="517.62" y="-414.2" font-family="Times,serif" font-size="14.00" fill="#000000">0x105600b90</text>
<polyline fill="none" stroke="#d3c70d" points="562.75,-407 562.75,-464.5"/>
<text text-anchor="middle" x="589.5" y="-447.2" font-family="Times,serif" font-size="14.00" fill="#000000">Right</text>
<text text-anchor="middle" x="589.5" y="-430.7" font-family="Times,serif" font-size="14.00" fill="#000000">NONE</text>
<text text-anchor="middle" x="589.5" y="-414.2" font-family="Times,serif" font-size="14.00" fill="#000000">0x0</text>
</g>
<!-- node0x105600b90&#45;&gt;node0x105600b50 -->
<g id="edge1" class="edge">
<title>node0x105600b90:left&#45;&gt;node0x105600b50</title>
<path fill="none" stroke="#187ae8" stroke-width="2" d="M584.75,-542C584.75,-532.34 581.96,-523.41 577.4,-515.25"/>
<polygon fill="#187ae8" stroke="#187ae8" stroke-width="2" points="581.16,-514.58 572.69,-508.21 575.34,-518.47 581.16,-514.58"/>
</g>
<!-- node0x105600a10 -->
<g id="node7" class="node">
<title>node0x105600a10</title>
<path fill="#fbee21" stroke="#d3c70d" d="M690.88,-407C690.88,-407 937.62,-407 937.62,-407 943.62,-407 949.62,-413 949.62,-419 949.62,-419 949.62,-493.5 949.62,-493.5 949.62,-499.5 943.62,-505.5 937.62,-505.5 937.62,-505.5 690.88,-505.5 690.88,-505.5 684.88,-505.5 678.88,-499.5 678.88,-493.5 678.88,-493.5 678.88,-419 678.88,-419 678.88,-413 684.88,-407 690.88,-407"/>
<text text-anchor="middle" x="814.25" y="-488.2" font-family="Times,serif" font-size="14.00" fill="#000000">&#45;</text>
<text text-anchor="middle" x="814.25" y="-471.7" font-family="Times,serif" font-size="14.00" fill="#000000">0x105600a10</text>
<polyline fill="none" stroke="#d3c70d" points="678.88,-464.5 949.62,-464.5"/>
<text text-anchor="middle" x="724" y="-447.2" font-family="Times,serif" font-size="14.00" fill="#000000">Left</text>
<text text-anchor="middle" x="724" y="-430.7" font-family="Times,serif" font-size="14.00" fill="#000000">+</text>
<text text-anchor="middle" x="724" y="-414.2" font-family="Times,serif" font-size="14.00" fill="#000000">0x1056009d0</text>
<polyline fill="none" stroke="#d3c70d" points="769.12,-407 769.12,-464.5"/>
<text text-anchor="middle" x="814.25" y="-447.2" font-family="Times,serif" font-size="14.00" fill="#000000">Parent</text>
<text text-anchor="middle" x="814.25" y="-430.7" font-family="Times,serif" font-size="14.00" fill="#000000">^</text>
<text text-anchor="middle" x="814.25" y="-414.2" font-family="Times,serif" font-size="14.00" fill="#000000">0x105600b90</text>
<polyline fill="none" stroke="#d3c70d" points="859.38,-407 859.38,-464.5"/>
<text text-anchor="middle" x="904.5" y="-447.2" font-family="Times,serif" font-size="14.00" fill="#000000">Right</text>
<text text-anchor="middle" x="904.5" y="-430.7" font-family="Times,serif" font-size="14.00" fill="#000000">1</text>
<text text-anchor="middle" x="904.5" y="-414.2" font-family="Times,serif" font-size="14.00" fill="#000000">0x105600810</text>
</g>
<!-- node0x105600b90&#45;&gt;node0x105600a10 -->
<g id="edge14" class="edge">
<title>node0x105600b90:right&#45;&gt;node0x105600a10</title>
<path fill="none" stroke="#48e818" stroke-width="2" d="M728.12,-542C728.12,-532.2 730.99,-523.15 735.68,-514.91"/>
<polygon fill="#48e818" stroke="#48e818" stroke-width="2" points="737.57,-518.37 740.27,-508.12 731.77,-514.45 737.57,-518.37"/>
</g>
<!-- node0x105600b10 -->
<g id="node3" class="node">
<title>node0x105600b10</title>
<path fill="#fbee21" stroke="#d3c70d" d="M278.62,-271.5C278.62,-271.5 487.88,-271.5 487.88,-271.5 493.88,-271.5 499.88,-277.5 499.88,-283.5 499.88,-283.5 499.88,-358 499.88,-358 499.88,-364 493.88,-370 487.88,-370 487.88,-370 278.62,-370 278.62,-370 272.62,-370 266.62,-364 266.62,-358 266.62,-358 266.62,-283.5 266.62,-283.5 266.62,-277.5 272.62,-271.5 278.62,-271.5"/>
<text text-anchor="middle" x="383.25" y="-352.7" font-family="Times,serif" font-size="14.00" fill="#000000">cos</text>
<text text-anchor="middle" x="383.25" y="-336.2" font-family="Times,serif" font-size="14.00" fill="#000000">0x105600b10</text>
<polyline fill="none" stroke="#d3c70d" points="266.62,-329 499.88,-329"/>
<text text-anchor="middle" x="311.38" y="-311.7" font-family="Times,serif" font-size="14.00" fill="#000000">Left</text>
<text text-anchor="middle" x="311.38" y="-295.2" font-family="Times,serif" font-size="14.00" fill="#000000">^</text>
<text text-anchor="middle" x="311.38" y="-278.7" font-family="Times,serif" font-size="14.00" fill="#000000">0x105600ad0</text>
<polyline fill="none" stroke="#d3c70d" points="356.12,-271.5 356.12,-329"/>
<text text-anchor="middle" x="401.25" y="-311.7" font-family="Times,serif" font-size="14.00" fill="#000000">Parent</text>
<text text-anchor="middle" x="401.25" y="-295.2" font-family="Times,serif" font-size="14.00" fill="#000000">sqrt</text>
<text text-anchor="middle" x="401.25" y="-278.7" font-family="Times,serif" font-size="14.00" fill="#000000">0x105600b50</text>
<polyline fill="none" stroke="#d3c70d" points="446.38,-271.5 446.38,-329"/>
<text text-anchor="middle" x="473.12" y="-311.7" font-family="Times,serif" font-size="14.00" fill="#000000">Right</text>
<text text-anchor="middle" x="473.12" y="-295.2" font-family="Times,serif" font-size="14.00" fill="#000000">NONE</text>
<text text-anchor="middle" x="473.12" y="-278.7" font-family="Times,serif" font-size="14.00" fill="#000000">0x0</text>
</g>
<!-- node0x105600b50&#45;&gt;node0x105600b10 -->
<g id="edge2" class="edge">
<title>node0x105600b50:left&#45;&gt;node0x105600b10</title>
<path fill="none" stroke="#187ae8" stroke-width="2" d="M427.38,-406.5C427.38,-397.75 425.5,-389.01 422.53,-380.65"/>
<polygon fill="#187ae8" stroke="#187ae8" stroke-width="2" points="426.45,-380.98 419.39,-373.08 419.99,-383.66 426.45,-380.98"/>
</g>
<!-- node0x105600ad0 -->
<g id="node4" class="node">
<title>node0x105600ad0</title>
<path fill="#fbee21" stroke="#d3c70d" d="M101.62,-136C101.62,-136 346.88,-136 346.88,-136 352.88,-136 358.88,-142 358.88,-148 358.88,-148 358.88,-222.5 358.88,-222.5 358.88,-228.5 352.88,-234.5 346.88,-234.5 346.88,-234.5 101.62,-234.5 101.62,-234.5 95.62,-234.5 89.62,-228.5 89.62,-222.5 89.62,-222.5 89.62,-148 89.62,-148 89.62,-142 95.62,-136 101.62,-136"/>
<text text-anchor="middle" x="224.25" y="-217.2" font-family="Times,serif" font-size="14.00" fill="#000000">^</text>
<text text-anchor="middle" x="224.25" y="-200.7" font-family="Times,serif" font-size="14.00" fill="#000000">0x105600ad0</text>
<polyline fill="none" stroke="#d3c70d" points="89.62,-193.5 358.88,-193.5"/>
<text text-anchor="middle" x="134.38" y="-176.2" font-family="Times,serif" font-size="14.00" fill="#000000">Left</text>
<text text-anchor="middle" x="134.38" y="-159.7" font-family="Times,serif" font-size="14.00" fill="#000000">x</text>
<text text-anchor="middle" x="134.38" y="-143.2" font-family="Times,serif" font-size="14.00" fill="#000000">0x105600a90</text>
<polyline fill="none" stroke="#d3c70d" points="179.12,-136 179.12,-193.5"/>
<text text-anchor="middle" x="224.25" y="-176.2" font-family="Times,serif" font-size="14.00" fill="#000000">Parent</text>
<text text-anchor="middle" x="224.25" y="-159.7" font-family="Times,serif" font-size="14.00" fill="#000000">cos</text>
<text text-anchor="middle" x="224.25" y="-143.2" font-family="Times,serif" font-size="14.00" fill="#000000">0x105600b10</text>
<polyline fill="none" stroke="#d3c70d" points="269.38,-136 269.38,-193.5"/>
<text text-anchor="middle" x="314.12" y="-176.2" font-family="Times,serif" font-size="14.00" fill="#000000">Right</text>
<text text-anchor="middle" x="314.12" y="-159.7" font-family="Times,serif" font-size="14.00" fill="#000000">2</text>
<text text-anchor="middle" x="314.12" y="-143.2" font-family="Times,serif" font-size="14.00" fill="#000000">0x105600a50</text>
</g>
<!-- node0x105600b10&#45;&gt;node0x105600ad0 -->
<g id="edge3" class="edge">
<title>node0x105600b10:left&#45;&gt;node0x105600ad0</title>
<path fill="none" stroke="#187ae8" stroke-width="2" d="M265.62,-300.25C239.63,-300.25 229.08,-273.72 225.13,-246.26"/>
<polygon fill="#187ae8" stroke="#187ae8" stroke-width="2" points="228.79,-247.48 224.19,-237.93 221.84,-248.26 228.79,-247.48"/>
</g>
<!-- node0x105600a90 -->
<g id="node5" class="node">
<title>node0x105600a90</title>
<path fill="#d5cfe1" stroke="#8797b2" d="M12,-0.5C12,-0.5 184.5,-0.5 184.5,-0.5 190.5,-0.5 196.5,-6.5 196.5,-12.5 196.5,-12.5 196.5,-87 196.5,-87 196.5,-93 190.5,-99 184.5,-99 184.5,-99 12,-99 12,-99 6,-99 0,-93 0,-87 0,-87 0,-12.5 0,-12.5 0,-6.5 6,-0.5 12,-0.5"/>
<text text-anchor="middle" x="98.25" y="-81.7" font-family="Times,serif" font-size="14.00" fill="#000000">x</text>
<text text-anchor="middle" x="98.25" y="-65.2" font-family="Times,serif" font-size="14.00" fill="#000000">0x105600a90</text>
<polyline fill="none" stroke="#8797b2" points="0,-58 196.5,-58"/>
<text text-anchor="middle" x="26.75" y="-40.7" font-family="Times,serif" font-size="14.00" fill="#000000">Left</text>
<text text-anchor="middle" x="26.75" y="-24.2" font-family="Times,serif" font-size="14.00" fill="#000000">NONE</text>
<text text-anchor="middle" x="26.75" y="-7.7" font-family="Times,serif" font-size="14.00" fill="#000000">0x0</text>
<polyline fill="none" stroke="#8797b2" points="53.5,-0.5 53.5,-58"/>
<text text-anchor="middle" x="98.25" y="-40.7" font-family="Times,serif" font-size="14.00" fill="#000000">Parent</text>
<text text-anchor="middle" x="98.25" y="-24.2" font-family="Times,serif" font-size="14.00" fill="#000000">^</text>
<text text-anchor="middle" x="98.25" y="-7.7" font-family="Times,serif" font-size="14.00" fill="#000000">0x105600ad0</text>
<polyline fill="none" stroke="#8797b2" points="143,-0.5 143,-58"/>
<text text-anchor="middle" x="169.75" y="-40.7" font-family="Times,serif" font-size="14.00" fill="#000000">Right</text>
<text text-anchor="middle" x="169.75" y="-24.2" font-family="Times,serif" font-size="14.00" fill="#000000">NONE</text>
<text text-anchor="middle" x="169.75" y="-7.7" font-family="Times,serif" font-size="14.00" fill="#000000">0x0</text>
</g>
<!-- node0x105600ad0&#45;&gt;node0x105600a90 -->
<g id="edge4" class="edge">
<title>node0x105600ad0:left&#45;&gt;node0x105600a90</title>
<path fill="none" stroke="#187ae8" stroke-width="2" d="M134.38,-135.5C134.38,-127.05 132.84,-118.47 130.39,-110.19"/>
<polygon fill="#187ae8" stroke="#187ae8" stroke-width="2" points="134.26,-110.68 127.7,-102.36 127.64,-112.95 134.26,-110.68"/>
</g>
<!-- node0x105600a50 -->
<g id="node6" class="node">
<title>node0x105600a50</title>
<path fill="#bdef9e" stroke="#99c2a2" d="M227,-0.5C227,-0.5 399.5,-0.5 399.5,-0.5 405.5,-0.5 411.5,-6.5 411.5,-12.5 411.5,-12.5 411.5,-87 411.5,-87 411.5,-93 405.5,-99 399.5,-99 399.5,-99 227,-99 227,-99 221,-99 215,-93 215,-87 215,-87 215,-12.5 215,-12.5 215,-6.5 221,-0.5 227,-0.5"/>
<text text-anchor="middle" x="313.25" y="-81.7" font-family="Times,serif" font-size="14.00" fill="#000000">2</text>
<text text-anchor="middle" x="313.25" y="-65.2" font-family="Times,serif" font-size="14.00" fill="#000000">0x105600a50</text>
<polyline fill="none" stroke="#99c2a2" points="215,-58 411.5,-58"/>
<text text-anchor="middle" x="241.75" y="-40.7" font-family="Times,serif" font-size="14.00" fill="#000000">Left</text>
<text text-anchor="middle" x="241.75" y="-24.2" font-family="Times,serif" font-size="14.00" fill="#000000">NONE</text>
<text text-anchor="middle" x="241.75" y="-7.7" font-family="Times,serif" font-size="14.00" fill="#000000">0x0</text>
<polyline fill="none" stroke="#99c2a2" points="268.5,-0.5 268.5,-58"/>
<text text-anchor="middle" x="313.25" y="-40.7" font-family="Times,serif" font-size="14.00" fill="#000000">Parent</text>
<text text-anchor="middle" x="313.25" y="-24.2" font-family="Times,serif" font-size="14.00" fill="#000000">^</text>
<text text-anchor="middle" x="313.25" y="-7.7" font-family="Times,serif" font-size="14.00" fill="#000000">0x105600ad0</text>
<polyline fill="none" stroke="#99c2a2" points="358,-0.5 358,-58"/>
<text text-anchor="middle" x="384.75" y="-40.7" font-family="Times,serif" font-size="14.00" fill="#000000">Right</text>
<text text-anchor="middle" x="384.75" y="-24.2" font-family="Times,serif" font-size="14.00" fill="#000000">NONE</text>
<text text-anchor="middle" x="384.75" y="-7.7" font-family="Times,serif" font-size="14.00" fill="#000000">0x0</text>
</g>
<!-- node0x105600ad0&#45;&gt;node0x105600a50 -->
<g id="edge5" class="edge">
<title>node0x105600ad0:right&#45;&gt;node0x105600a50</title>
<path fill="none" stroke="#48e818" stroke-width="2" d="M314.12,-135.5C314.12,-127.41 314.08,-118.88 314.02,-110.48"/>
<polygon fill="#48e818" stroke="#48e818" stroke-width="2" points="317.54,-112.15 313.95,-102.18 310.54,-112.21 317.54,-112.15"/>
</g>
<!-- node0x1056009d0 -->
<g id="node8" class="node">
<title>node0x1056009d0</title>
<path fill="#fbee21" stroke="#d3c70d" d="M601.25,-271.5C601.25,-271.5 847.25,-271.5 847.25,-271.5 853.25,-271.5 859.25,-277.5 859.25,-283.5 859.25,-283.5 859.25,-358 859.25,-358 859.25,-364 853.25,-370 847.25,-370 847.25,-370 601.25,-370 601.25,-370 595.25,-370 589.25,-364 589.25,-358 589.25,-358 589.25,-283.5 589.25,-283.5 589.25,-277.5 595.25,-271.5 601.25,-271.5"/>
<text text-anchor="middle" x="724.25" y="-352.7" font-family="Times,serif" font-size="14.00" fill="#000000">+</text>
<text text-anchor="middle" x="724.25" y="-336.2" font-family="Times,serif" font-size="14.00" fill="#000000">0x1056009d0</text>
<polyline fill="none" stroke="#d3c70d" points="589.25,-329 859.25,-329"/>
<text text-anchor="middle" x="634.38" y="-311.7" font-family="Times,serif" font-size="14.00" fill="#000000">Left</text>
<text text-anchor="middle" x="634.38" y="-295.2" font-family="Times,serif" font-size="14.00" fill="#000000">^</text>
<text text-anchor="middle" x="634.38" y="-278.7" font-family="Times,serif" font-size="14.00" fill="#000000">0x105600990</text>
<polyline fill="none" stroke="#d3c70d" points="679.5,-271.5 679.5,-329"/>
<text text-anchor="middle" x="724.25" y="-311.7" font-family="Times,serif" font-size="14.00" fill="#000000">Parent</text>
<text text-anchor="middle" x="724.25" y="-295.2" font-family="Times,serif" font-size="14.00" fill="#000000">&#45;</text>
<text text-anchor="middle" x="724.25" y="-278.7" font-family="Times,serif" font-size="14.00" fill="#000000">0x105600a10</text>
<polyline fill="none" stroke="#d3c70d" points="769,-271.5 769,-329"/>
<text text-anchor="middle" x="814.12" y="-311.7" font-family="Times,serif" font-size="14.00" fill="#000000">Right</text>
<text text-anchor="middle" x="814.12" y="-295.2" font-family="Times,serif" font-size="14.00" fill="#000000">*</text>
<text text-anchor="middle" x="814.12" y="-278.7" font-family="Times,serif" font-size="14.00" fill="#000000">0x1056008d0</text>
</g>
<!-- node0x105600a10&#45;&gt;node0x1056009d0 -->
<g id="edge6" class="edge">
<title>node0x105600a10:left&#45;&gt;node0x1056009d0</title>
<path fill="none" stroke="#187ae8" stroke-width="2" d="M724,-406.5C724,-398.41 724.01,-389.88 724.03,-381.48"/>
<polygon fill="#187ae8" stroke="#187ae8" stroke-width="2" points="727.53,-383.19 724.05,-373.18 720.53,-383.17 727.53,-383.19"/>
</g>
<!-- node0x105600810 -->
<g id="node15" class="node">
<title>node0x105600810</title>
<path fill="#bdef9e" stroke="#99c2a2" d="M889,-271.5C889,-271.5 1061.5,-271.5 1061.5,-271.5 1067.5,-271.5 1073.5,-277.5 1073.5,-283.5 1073.5,-283.5 1073.5,-358 1073.5,-358 1073.5,-364 1067.5,-370 1061.5,-370 1061.5,-370 889,-370 889,-370 883,-370 877,-364 877,-358 877,-358 877,-283.5 877,-283.5 877,-277.5 883,-271.5 889,-271.5"/>
<text text-anchor="middle" x="975.25" y="-352.7" font-family="Times,serif" font-size="14.00" fill="#000000">1</text>
<text text-anchor="middle" x="975.25" y="-336.2" font-family="Times,serif" font-size="14.00" fill="#000000">0x105600810</text>
<polyline fill="none" stroke="#99c2a2" points="877,-329 1073.5,-329"/>
<text text-anchor="middle" x="903.75" y="-311.7" font-family="Times,serif" font-size="14.00" fill="#000000">Left</text>
<text text-anchor="middle" x="903.75" y="-295.2" font-family="Times,serif" font-size="14.00" fill="#000000">NONE</text>
<text text-anchor="middle" x="903.75" y="-278.7" font-family="Times,serif" font-size="14.00" fill="#000000">0x0</text>
<polyline fill="none" stroke="#99c2a2" points="930.5,-271.5 930.5,-329"/>
<text text-anchor="middle" x="975.25" y="-311.7" font-family="Times,serif" font-size="14.00" fill="#000000">Parent</text>
<text text-anchor="middle" x="975.25" y="-295.2" font-family="Times,serif" font-size="14.00" fill="#000000">&#45;</text>
<text text-anchor="middle" x="975.25" y="-278.7" font-family="Times,serif" font-size="14.00" fill="#000000">0x105600a10</text>
<polyline fill="none" stroke="#99c2a2" points="1020,-271.5 1020,-329"/>
<text text-anchor="middle" x="1046.75" y="-311.7" font-family="Times,serif" font-size="14.00" fill="#000000">Right</text>
<text text-anchor="middle" x="1046.75" y="-295.2" font-family="Times,serif" font-size="14.00" fill="#000000">NONE</text>
<text text-anchor="middle" x="1046.75" y="-278.7" font-family="Times,serif" font-size="14.00" fill="#000000">0x0</text>
</g>
<!-- node0x105600a10&#45;&gt;node0x105600810 -->
<g id="edge13" class="edge">
<title>node0x105600a10:right&#45;&gt;node0x105600810</title>
<path fill="none" stroke="#48e818" stroke-width="2" d="M904.5,-406.5C904.5,-397.1 907.1,-388.19 911.3,-379.92"/>
<polygon fill="#48e818" stroke="#48e818" stroke-width="2" points="913.44,-383.15 915.59,-372.77 907.44,-379.55 913.44,-383.15"/>
</g>
<!-- node0x105600990 -->
<g id="node9" class="node">
<title>node0x105600990</title>
<path fill="#fbee21" stroke="#d3c70d" d="M511.88,-136C511.88,-136 758.62,-136 758.62,-136 764.62,-136 770.62,-142 770.62,-148 770.62,-148 770.62,-222.5 770.62,-222.5 770.62,-228.5 764.62,-234.5 758.62,-234.5 758.62,-234.5 511.88,-234.5 511.88,-234.5 505.88,-234.5 499.88,-228.5 499.88,-222.5 499.88,-222.5 499.88,-148 499.88,-148 499.88,-142 505.88,-136 511.88,-136"/>
<text text-anchor="middle" x="635.25" y="-217.2" font-family="Times,serif" font-size="14.00" fill="#000000">^</text>
<text text-anchor="middle" x="635.25" y="-200.7" font-family="Times,serif" font-size="14.00" fill="#000000">0x105600990</text>
<polyline fill="none" stroke="#d3c70d" points="499.88,-193.5 770.62,-193.5"/>
<text text-anchor="middle" x="545" y="-176.2" font-family="Times,serif" font-size="14.00" fill="#000000">Left</text>
<text text-anchor="middle" x="545" y="-159.7" font-family="Times,serif" font-size="14.00" fill="#000000">x</text>
<text text-anchor="middle" x="545" y="-143.2" font-family="Times,serif" font-size="14.00" fill="#000000">0x105600950</text>
<polyline fill="none" stroke="#d3c70d" points="590.12,-136 590.12,-193.5"/>
<text text-anchor="middle" x="635.25" y="-176.2" font-family="Times,serif" font-size="14.00" fill="#000000">Parent</text>
<text text-anchor="middle" x="635.25" y="-159.7" font-family="Times,serif" font-size="14.00" fill="#000000">+</text>
<text text-anchor="middle" x="635.25" y="-143.2" font-family="Times,serif" font-size="14.00" fill="#000000">0x1056009d0</text>
<polyline fill="none" stroke="#d3c70d" points="680.38,-136 680.38,-193.5"/>
<text text-anchor="middle" x="725.5" y="-176.2" font-family="Times,serif" font-size="14.00" fill="#000000">Right</text>
<text text-anchor="middle" x="725.5" y="-159.7" font-family="Times,serif" font-size="14.00" fill="#000000">2</text>
<text text-anchor="middle" x="725.5" y="-143.2" font-family="Times,serif" font-size="14.00" fill="#000000">0x105600910</text>
</g>
<!-- node0x1056009d0&#45;&gt;node0x105600990 -->
<g id="edge7" class="edge">
<title>node0x1056009d0:left&#45;&gt;node0x105600990</title>
<path fill="none" stroke="#187ae8" stroke-width="2" d="M634.38,-271C634.38,-262.91 634.42,-254.38 634.48,-245.98"/>
<polygon fill="#187ae8" stroke="#187ae8" stroke-width="2" points="637.96,-247.71 634.55,-237.68 630.96,-247.65 637.96,-247.71"/>
</g>
<!-- node0x1056008d0 -->
<g id="node12" class="node">
<title>node0x1056008d0</title>
<path fill="#fbee21" stroke="#d3c70d" d="M924.88,-136C924.88,-136 1171.62,-136 1171.62,-136 1177.62,-136 1183.62,-142 1183.62,-148 1183.62,-148 1183.62,-222.5 1183.62,-222.5 1183.62,-228.5 1177.62,-234.5 1171.62,-234.5 1171.62,-234.5 924.88,-234.5 924.88,-234.5 918.88,-234.5 912.88,-228.5 912.88,-222.5 912.88,-222.5 912.88,-148 912.88,-148 912.88,-142 918.88,-136 924.88,-136"/>
<text text-anchor="middle" x="1048.25" y="-217.2" font-family="Times,serif" font-size="14.00" fill="#000000">*</text>
<text text-anchor="middle" x="1048.25" y="-200.7" font-family="Times,serif" font-size="14.00" fill="#000000">0x1056008d0</text>
<polyline fill="none" stroke="#d3c70d" points="912.88,-193.5 1183.62,-193.5"/>
<text text-anchor="middle" x="958" y="-176.2" font-family="Times,serif" font-size="14.00" fill="#000000">Left</text>
<text text-anchor="middle" x="958" y="-159.7" font-family="Times,serif" font-size="14.00" fill="#000000">2</text>
<text text-anchor="middle" x="958" y="-143.2" font-family="Times,serif" font-size="14.00" fill="#000000">0x105600890</text>
<polyline fill="none" stroke="#d3c70d" points="1003.12,-136 1003.12,-193.5"/>
<text text-anchor="middle" x="1048.25" y="-176.2" font-family="Times,serif" font-size="14.00" fill="#000000">Parent</text>
<text text-anchor="middle" x="1048.25" y="-159.7" font-family="Times,serif" font-size="14.00" fill="#000000">+</text>
<text text-anchor="middle" x="1048.25" y="-143.2" font-family="Times,serif" font-size="14.00" fill="#000000">0x1056009d0</text>
<polyline fill="none" stroke="#d3c70d" points="1093.38,-136 1093.38,-193.5"/>
<text text-anchor="middle" x="1138.5" y="-176.2" font-family="Times,serif" font-size="14.00" fill="#000000">Right</text>
<text text-anchor="middle" x="1138.5" y="-159.7" font-family="Times,serif" font-size="14.00" fill="#000000">x</text>
<text text-anchor="middle" x="1138.5" y="-143.2" font-family="Times,serif" font-size="14.00" fill="#000000">0x105600850</text>
</g>
<!-- node0x1056009d0&#45;&gt;node0x1056008d0 -->
<g id="edge12" class="edge">
<title>node0x1056009d0:right&#45;&gt;node0x1056008d0</title>
<path fill="none" stroke="#48e818" stroke-width="2" d="M860.25,-300.25C873.73,-300.25 859.58,-281.32 868.25,-271 878.17,-259.19 890.11,-248.92 903.06,-240.02"/>
<polygon fill="#48e818" stroke="#48e818" stroke-width="2" points="903.65,-243.81 910.12,-235.42 899.83,-237.94 903.65,-243.81"/>
</g>
<!-- node0x105600950 -->
<g id="node10" class="node">
<title>node0x105600950</title>
<path fill="#d5cfe1" stroke="#8797b2" d="M441.62,-0.5C441.62,-0.5 614.88,-0.5 614.88,-0.5 620.88,-0.5 626.88,-6.5 626.88,-12.5 626.88,-12.5 626.88,-87 626.88,-87 626.88,-93 620.88,-99 614.88,-99 614.88,-99 441.62,-99 441.62,-99 435.62,-99 429.62,-93 429.62,-87 429.62,-87 429.62,-12.5 429.62,-12.5 429.62,-6.5 435.62,-0.5 441.62,-0.5"/>
<text text-anchor="middle" x="528.25" y="-81.7" font-family="Times,serif" font-size="14.00" fill="#000000">x</text>
<text text-anchor="middle" x="528.25" y="-65.2" font-family="Times,serif" font-size="14.00" fill="#000000">0x105600950</text>
<polyline fill="none" stroke="#8797b2" points="429.62,-58 626.88,-58"/>
<text text-anchor="middle" x="456.38" y="-40.7" font-family="Times,serif" font-size="14.00" fill="#000000">Left</text>
<text text-anchor="middle" x="456.38" y="-24.2" font-family="Times,serif" font-size="14.00" fill="#000000">NONE</text>
<text text-anchor="middle" x="456.38" y="-7.7" font-family="Times,serif" font-size="14.00" fill="#000000">0x0</text>
<polyline fill="none" stroke="#8797b2" points="483.12,-0.5 483.12,-58"/>
<text text-anchor="middle" x="528.25" y="-40.7" font-family="Times,serif" font-size="14.00" fill="#000000">Parent</text>
<text text-anchor="middle" x="528.25" y="-24.2" font-family="Times,serif" font-size="14.00" fill="#000000">^</text>
<text text-anchor="middle" x="528.25" y="-7.7" font-family="Times,serif" font-size="14.00" fill="#000000">0x105600990</text>
<polyline fill="none" stroke="#8797b2" points="573.38,-0.5 573.38,-58"/>
<text text-anchor="middle" x="600.12" y="-40.7" font-family="Times,serif" font-size="14.00" fill="#000000">Right</text>
<text text-anchor="middle" x="600.12" y="-24.2" font-family="Times,serif" font-size="14.00" fill="#000000">NONE</text>
<text text-anchor="middle" x="600.12" y="-7.7" font-family="Times,serif" font-size="14.00" fill="#000000">0x0</text>
</g>
<!-- node0x105600990&#45;&gt;node0x105600950 -->
<g id="edge8" class="edge">
<title>node0x105600990:left&#45;&gt;node0x105600950</title>
<path fill="none" stroke="#187ae8" stroke-width="2" d="M545,-135.5C545,-127.35 544.25,-118.85 543.06,-110.51"/>
<polygon fill="#187ae8" stroke="#187ae8" stroke-width="2" points="546.78,-111.56 541.69,-102.26 539.87,-112.7 546.78,-111.56"/>
</g>
<!-- node0x105600910 -->
<g id="node11" class="node">
<title>node0x105600910</title>
<path fill="#bdef9e" stroke="#99c2a2" d="M656.62,-0.5C656.62,-0.5 829.88,-0.5 829.88,-0.5 835.88,-0.5 841.88,-6.5 841.88,-12.5 841.88,-12.5 841.88,-87 841.88,-87 841.88,-93 835.88,-99 829.88,-99 829.88,-99 656.62,-99 656.62,-99 650.62,-99 644.62,-93 644.62,-87 644.62,-87 644.62,-12.5 644.62,-12.5 644.62,-6.5 650.62,-0.5 656.62,-0.5"/>
<text text-anchor="middle" x="743.25" y="-81.7" font-family="Times,serif" font-size="14.00" fill="#000000">2</text>
<text text-anchor="middle" x="743.25" y="-65.2" font-family="Times,serif" font-size="14.00" fill="#000000">0x105600910</text>
<polyline fill="none" stroke="#99c2a2" points="644.62,-58 841.88,-58"/>
<text text-anchor="middle" x="671.38" y="-40.7" font-family="Times,serif" font-size="14.00" fill="#000000">Left</text>
<text text-anchor="middle" x="671.38" y="-24.2" font-family="Times,serif" font-size="14.00" fill="#000000">NONE</text>
<text text-anchor="middle" x="671.38" y="-7.7" font-family="Times,serif" font-size="14.00" fill="#000000">0x0</text>
<polyline fill="none" stroke="#99c2a2" points="698.12,-0.5 698.12,-58"/>
<text text-anchor="middle" x="743.25" y="-40.7" font-family="Times,serif" font-size="14.00" fill="#000000">Parent</text>
<text text-anchor="middle" x="743.25" y="-24.2" font-family="Times,serif" font-size="14.00" fill="#000000">^</text>
<text text-anchor="middle" x="743.25" y="-7.7" font-family="Times,serif" font-size="14.00" fill="#000000">0x105600990</text>
<polyline fill="none" stroke="#99c2a2" points="788.38,-0.5 788.38,-58"/>
<text text-anchor="middle" x="815.12" y="-40.7" font-family="Times,serif" font-size="14.00" fill="#000000">Right</text>
<text text-anchor="middle" x="815.12" y="-24.2" font-family="Times,serif" font-size="14.00" fill="#000000">NONE</text>
<text text-anchor="middle" x="815.12" y="-7.7" font-family="Times,serif" font-size="14.00" fill="#000000">0x0</text>
</g>
<!-- node0x105600990&#45;&gt;node0x105600910 -->
<g id="edge9" class="edge">
<title>node0x105600990:right&#45;&gt;node0x105600910</title>
<path fill="none" stroke="#48e818" stroke-width="2" d="M725.5,-135.5C725.5,-127.34 726.3,-118.82 727.56,-110.47"/>
<polygon fill="#48e818" stroke="#48e818" stroke-width="2" points="730.73,-112.67 729,-102.22 723.83,-111.46 730.73,-112.67"/>
</g>
<!-- node0x105600890 -->
<g id="node13" class="node">
<title>node0x105600890</title>
<path fill="#bdef9e" stroke="#99c2a2" d="M871.62,-0.5C871.62,-0.5 1044.88,-0.5 1044.88,-0.5 1050.88,-0.5 1056.88,-6.5 1056.88,-12.5 1056.88,-12.5 1056.88,-87 1056.88,-87 1056.88,-93 1050.88,-99 1044.88,-99 1044.88,-99 871.62,-99 871.62,-99 865.62,-99 859.62,-93 859.62,-87 859.62,-87 859.62,-12.5 859.62,-12.5 859.62,-6.5 865.62,-0.5 871.62,-0.5"/>
<text text-anchor="middle" x="958.25" y="-81.7" font-family="Times,serif" font-size="14.00" fill="#000000">2</text>
<text text-anchor="middle" x="958.25" y="-65.2" font-family="Times,serif" font-size="14.00" fill="#000000">0x105600890</text>
<polyline fill="none" stroke="#99c2a2" points="859.62,-58 1056.88,-58"/>
<text text-anchor="middle" x="886.38" y="-40.7" font-family="Times,serif" font-size="14.00" fill="#000000">Left</text>
<text text-anchor="middle" x="886.38" y="-24.2" font-family="Times,serif" font-size="14.00" fill="#000000">NONE</text>
<text text-anchor="middle" x="886.38" y="-7.7" font-family="Times,serif" font-size="14.00" fill="#000000">0x0</text>
<polyline fill="none" stroke="#99c2a2" points="913.12,-0.5 913.12,-58"/>
<text text-anchor="middle" x="958.25" y="-40.7" font-family="Times,serif" font-size="14.00" fill="#000000">Parent</text>
<text text-anchor="middle" x="958.25" y="-24.2" font-family="Times,serif" font-size="14.00" fill="#000000">*</text>
<text text-anchor="middle" x="958.25" y="-7.7" font-family="Times,serif" font-size="14.00" fill="#000000">0x1056008d0</text>
<polyline fill="none" stroke="#99c2a2" points="1003.38,-0.5 1003.38,-58"/>
<text text-anchor="middle" x="1030.12" y="-40.7" font-family="Times,serif" font-size="14.00" fill="#000000">Right</text>
<text text-anchor="middle" x="1030.12" y="-24.2" font-family="Times,serif" font-size="14.00" fill="#000000">NONE</text>
<text text-anchor="middle" x="1030.12" y="-7.7" font-family="Times,serif" font-size="14.00" fill="#000000">0x0</text>
</g>
<!-- node0x1056008d0&#45;&gt;node0x105600890 -->
<g id="edge10" class="edge">
<title>node0x1056008d0:left&#45;&gt;node0x105600890</title>
<path fill="none" stroke="#187ae8" stroke-width="2" d="M958,-135.5C958,-127.41 958.01,-118.88 958.03,-110.48"/>
<polygon fill="#187ae8" stroke="#187ae8" stroke-width="2" points="961.53,-112.19 958.05,-102.18 954.53,-112.17 961.53,-112.19"/>
</g>
<!-- node0x105600850 -->
<g id="node14" class="node">
<title>node0x105600850</title>
<path fill="#d5cfe1" stroke="#8797b2" d="M1086.62,-0.5C1086.62,-0.5 1259.88,-0.5 1259.88,-0.5 1265.88,-0.5 1271.88,-6.5 1271.88,-12.5 1271.88,-12.5 1271.88,-87 1271.88,-87 1271.88,-93 1265.88,-99 1259.88,-99 1259.88,-99 1086.62,-99 1086.62,-99 1080.62,-99 1074.62,-93 1074.62,-87 1074.62,-87 1074.62,-12.5 1074.62,-12.5 1074.62,-6.5 1080.62,-0.5 1086.62,-0.5"/>
<text text-anchor="middle" x="1173.25" y="-81.7" font-family="Times,serif" font-size="14.00" fill="#000000">x</text>
<text text-anchor="middle" x="1173.25" y="-65.2" font-family="Times,serif" font-size="14.00" fill="#000000">0x105600850</text>
<polyline fill="none" stroke="#8797b2" points="1074.62,-58 1271.88,-58"/>
<text text-anchor="middle" x="1101.38" y="-40.7" font-family="Times,serif" font-size="14.00" fill="#000000">Left</text>
<text text-anchor="middle" x="1101.38" y="-24.2" font-family="Times,serif" font-size="14.00" fill="#000000">NONE</text>
<text text-anchor="middle" x="1101.38" y="-7.7" font-family="Times,serif" font-size="14.00" fill="#000000">0x0</text>
<polyline fill="none" stroke="#8797b2" points="1128.12,-0.5 1128.12,-58"/>
<text text-anchor="middle" x="1173.25" y="-40.7" font-family="Times,serif" font-size="14.00" fill="#000000">Parent</text>
<text text-anchor="middle" x="1173.25" y="-24.2" font-family="Times,serif" font-size="14.00" fill="#000000">*</text>
<text text-anchor="middle" x="1173.25" y="-7.7" font-family="Times,serif" font-size="14.00" fill="#000000">0x1056008d0</text>
<polyline fill="none" stroke="#8797b2" points="1218.38,-0.5 1218.38,-58"/>
<text text-anchor="middle" x="1245.12" y="-40.7" font-family="Times,serif" font-size="14.00" fill="#000000">Right</text>
<text text-anchor="middle" x="1245.12" y="-24.2" font-family="Times,serif" font-size="14.00" fill="#000000">NONE</text>
<text text-anchor="middle" x="1245.12" y="-7.7" font-family="Times,serif" font-size="14.00" fill="#000000">0x0</text>
</g>
<!-- node0x1056008d0&#45;&gt;node0x105600850 -->
<g id="edge11" class="edge">
<title>node0x1056008d0:right&#45;&gt;node0x105600850</title>
<path fill="none" stroke="#48e818" stroke-width="2" d="M1138.5,-135.5C1138.5,-126.99 1140.02,-118.33 1142.42,-109.95"/>
<polygon fill="#48e818" stroke="#48e818" stroke-width="2" points="1145.22,-112.62 1145.08,-102.02 1138.59,-110.39 1145.22,-112.62"/>
</g>
</g>
</svg>
