<?xml version="1.0" encoding="UTF-8" standalone="no"?>
<!DOCTYPE svg PUBLIC "-//W3C//DTD SVG 1.1//EN"
 "http://www.w3.org/Graphics/SVG/1.1/DTD/svg11.dtd">
<!-- Generated by graphviz version 12.2.0 (20241103.1931)
 -->
<!-- Pages: 1 -->
<svg width="475pt" height="514pt"
 viewBox="0.00 0.00 474.88 514.00" xmlns="http://www.w3.org/2000/svg" xmlns:xlink="http://www.w3.org/1999/xlink">
<g id="graph0" class="graph" transform="scale(1 1) rotate(0) translate(4 510)">
<polygon fill="#dcdcdc" stroke="none" points="-4,4 -4,-510 470.88,-510 470.88,4 -4,4"/>
<!-- node0x103d00b90 -->
<g id="node1" class="node">
<title>node0x103d00b90</title>
<path fill="#fbee21" stroke="#d3c70d" d="M109.62,-407C109.62,-407 319.62,-407 319.62,-407 325.62,-407 331.62,-413 331.62,-419 331.62,-419 331.62,-493.5 331.62,-493.5 331.62,-499.5 325.62,-505.5 319.62,-505.5 319.62,-505.5 109.63,-505.5 109.63,-505.5 103.62,-505.5 97.62,-499.5 97.62,-493.5 97.62,-493.5 97.62,-419 97.62,-419 97.62,-413 103.62,-407 109.62,-407"/>
<text text-anchor="middle" x="214.62" y="-488.2" font-family="Times,serif" font-size="14.00" fill="#000000">*</text>
<text text-anchor="middle" x="214.62" y="-471.7" font-family="Times,serif" font-size="14.00" fill="#000000">0x103d00b90</text>
<polyline fill="none" stroke="#d3c70d" points="97.62,-464.5 331.62,-464.5"/>
<text text-anchor="middle" x="142.75" y="-447.2" font-family="Times,serif" font-size="14.00" fill="#000000">Left</text>
<text text-anchor="middle" x="142.75" y="-430.7" font-family="Times,serif" font-size="14.00" fill="#000000">2</text>
<text text-anchor="middle" x="142.75" y="-414.2" font-family="Times,serif" font-size="14.00" fill="#000000">0x103d00b50</text>
<polyline fill="none" stroke="#d3c70d" points="187.88,-407 187.88,-464.5"/>
<text text-anchor="middle" x="214.62" y="-447.2" font-family="Times,serif" font-size="14.00" fill="#000000">Parent</text>
<text text-anchor="middle" x="214.62" y="-430.7" font-family="Times,serif" font-size="14.00" fill="#000000">NONE</text>
<text text-anchor="middle" x="214.62" y="-414.2" font-family="Times,serif" font-size="14.00" fill="#000000">0x0</text>
<polyline fill="none" stroke="#d3c70d" points="241.38,-407 241.38,-464.5"/>
<text text-anchor="middle" x="286.5" y="-447.2" font-family="Times,serif" font-size="14.00" fill="#000000">Right</text>
<text text-anchor="middle" x="286.5" y="-430.7" font-family="Times,serif" font-size="14.00" fill="#000000">exp</text>
<text text-anchor="middle" x="286.5" y="-414.2" font-family="Times,serif" font-size="14.00" fill="#000000">0x103d00b10</text>
</g>
<!-- node0x103d00b50 -->
<g id="node2" class="node">
<title>node0x103d00b50</title>
<path fill="#bdef9e" stroke="#99c2a2" d="M12,-271.5C12,-271.5 185.25,-271.5 185.25,-271.5 191.25,-271.5 197.25,-277.5 197.25,-283.5 197.25,-283.5 197.25,-358 197.25,-358 197.25,-364 191.25,-370 185.25,-370 185.25,-370 12,-370 12,-370 6,-370 0,-364 0,-358 0,-358 0,-283.5 0,-283.5 0,-277.5 6,-271.5 12,-271.5"/>
<text text-anchor="middle" x="98.62" y="-352.7" font-family="Times,serif" font-size="14.00" fill="#000000">2</text>
<text text-anchor="middle" x="98.62" y="-336.2" font-family="Times,serif" font-size="14.00" fill="#000000">0x103d00b50</text>
<polyline fill="none" stroke="#99c2a2" points="0,-329 197.25,-329"/>
<text text-anchor="middle" x="26.75" y="-311.7" font-family="Times,serif" font-size="14.00" fill="#000000">Left</text>
<text text-anchor="middle" x="26.75" y="-295.2" font-family="Times,serif" font-size="14.00" fill="#000000">NONE</text>
<text text-anchor="middle" x="26.75" y="-278.7" font-family="Times,serif" font-size="14.00" fill="#000000">0x0</text>
<polyline fill="none" stroke="#99c2a2" points="53.5,-271.5 53.5,-329"/>
<text text-anchor="middle" x="98.62" y="-311.7" font-family="Times,serif" font-size="14.00" fill="#000000">Parent</text>
<text text-anchor="middle" x="98.62" y="-295.2" font-family="Times,serif" font-size="14.00" fill="#000000">*</text>
<text text-anchor="middle" x="98.62" y="-278.7" font-family="Times,serif" font-size="14.00" fill="#000000">0x103d00b90</text>
<polyline fill="none" stroke="#99c2a2" points="143.75,-271.5 143.75,-329"/>
<text text-anchor="middle" x="170.5" y="-311.7" font-family="Times,serif" font-size="14.00" fill="#000000">Right</text>
<text text-anchor="middle" x="170.5" y="-295.2" font-family="Times,serif" font-size="14.00" fill="#000000">NONE</text>
<text text-anchor="middle" x="170.5" y="-278.7" font-family="Times,serif" font-size="14.00" fill="#000000">0x0</text>
</g>
<!-- node0x103d00b90&#45;&gt;node0x103d00b50 -->
<g id="edge1" class="edge">
<title>node0x103d00b90:left&#45;&gt;node0x103d00b50</title>
<path fill="none" stroke="#187ae8" stroke-width="2" d="M142.75,-406.5C142.75,-397.75 140.88,-389.01 137.9,-380.65"/>
<polygon fill="#187ae8" stroke="#187ae8" stroke-width="2" points="141.83,-380.98 134.77,-373.08 135.36,-383.66 141.83,-380.98"/>
</g>
<!-- node0x103d00b10 -->
<g id="node3" class="node">
<title>node0x103d00b10</title>
<path fill="#fbee21" stroke="#d3c70d" d="M227,-271.5C227,-271.5 436.25,-271.5 436.25,-271.5 442.25,-271.5 448.25,-277.5 448.25,-283.5 448.25,-283.5 448.25,-358 448.25,-358 448.25,-364 442.25,-370 436.25,-370 436.25,-370 227,-370 227,-370 221,-370 215,-364 215,-358 215,-358 215,-283.5 215,-283.5 215,-277.5 221,-271.5 227,-271.5"/>
<text text-anchor="middle" x="331.62" y="-352.7" font-family="Times,serif" font-size="14.00" fill="#000000">exp</text>
<text text-anchor="middle" x="331.62" y="-336.2" font-family="Times,serif" font-size="14.00" fill="#000000">0x103d00b10</text>
<polyline fill="none" stroke="#d3c70d" points="215,-329 448.25,-329"/>
<text text-anchor="middle" x="259.75" y="-311.7" font-family="Times,serif" font-size="14.00" fill="#000000">Left</text>
<text text-anchor="middle" x="259.75" y="-295.2" font-family="Times,serif" font-size="14.00" fill="#000000">*</text>
<text text-anchor="middle" x="259.75" y="-278.7" font-family="Times,serif" font-size="14.00" fill="#000000">0x103d00ad0</text>
<polyline fill="none" stroke="#d3c70d" points="304.5,-271.5 304.5,-329"/>
<text text-anchor="middle" x="349.62" y="-311.7" font-family="Times,serif" font-size="14.00" fill="#000000">Parent</text>
<text text-anchor="middle" x="349.62" y="-295.2" font-family="Times,serif" font-size="14.00" fill="#000000">*</text>
<text text-anchor="middle" x="349.62" y="-278.7" font-family="Times,serif" font-size="14.00" fill="#000000">0x103d00b90</text>
<polyline fill="none" stroke="#d3c70d" points="394.75,-271.5 394.75,-329"/>
<text text-anchor="middle" x="421.5" y="-311.7" font-family="Times,serif" font-size="14.00" fill="#000000">Right</text>
<text text-anchor="middle" x="421.5" y="-295.2" font-family="Times,serif" font-size="14.00" fill="#000000">NONE</text>
<text text-anchor="middle" x="421.5" y="-278.7" font-family="Times,serif" font-size="14.00" fill="#000000">0x0</text>
</g>
<!-- node0x103d00b90&#45;&gt;node0x103d00b10 -->
<g id="edge5" class="edge">
<title>node0x103d00b90:right&#45;&gt;node0x103d00b10</title>
<path fill="none" stroke="#48e818" stroke-width="2" d="M286.5,-406.5C286.5,-397.71 288.41,-388.94 291.46,-380.57"/>
<polygon fill="#48e818" stroke="#48e818" stroke-width="2" points="293.99,-383.55 294.67,-372.98 287.55,-380.82 293.99,-383.55"/>
</g>
<!-- node0x103d00ad0 -->
<g id="node4" class="node">
<title>node0x103d00ad0</title>
<path fill="#fbee21" stroke="#d3c70d" d="M138,-136C138,-136 383.25,-136 383.25,-136 389.25,-136 395.25,-142 395.25,-148 395.25,-148 395.25,-222.5 395.25,-222.5 395.25,-228.5 389.25,-234.5 383.25,-234.5 383.25,-234.5 138,-234.5 138,-234.5 132,-234.5 126,-228.5 126,-222.5 126,-222.5 126,-148 126,-148 126,-142 132,-136 138,-136"/>
<text text-anchor="middle" x="260.62" y="-217.2" font-family="Times,serif" font-size="14.00" fill="#000000">*</text>
<text text-anchor="middle" x="260.62" y="-200.7" font-family="Times,serif" font-size="14.00" fill="#000000">0x103d00ad0</text>
<polyline fill="none" stroke="#d3c70d" points="126,-193.5 395.25,-193.5"/>
<text text-anchor="middle" x="170.75" y="-176.2" font-family="Times,serif" font-size="14.00" fill="#000000">Left</text>
<text text-anchor="middle" x="170.75" y="-159.7" font-family="Times,serif" font-size="14.00" fill="#000000">x</text>
<text text-anchor="middle" x="170.75" y="-143.2" font-family="Times,serif" font-size="14.00" fill="#000000">0x103d00a90</text>
<polyline fill="none" stroke="#d3c70d" points="215.5,-136 215.5,-193.5"/>
<text text-anchor="middle" x="260.62" y="-176.2" font-family="Times,serif" font-size="14.00" fill="#000000">Parent</text>
<text text-anchor="middle" x="260.62" y="-159.7" font-family="Times,serif" font-size="14.00" fill="#000000">exp</text>
<text text-anchor="middle" x="260.62" y="-143.2" font-family="Times,serif" font-size="14.00" fill="#000000">0x103d00b10</text>
<polyline fill="none" stroke="#d3c70d" points="305.75,-136 305.75,-193.5"/>
<text text-anchor="middle" x="350.5" y="-176.2" font-family="Times,serif" font-size="14.00" fill="#000000">Right</text>
<text text-anchor="middle" x="350.5" y="-159.7" font-family="Times,serif" font-size="14.00" fill="#000000">2</text>
<text text-anchor="middle" x="350.5" y="-143.2" font-family="Times,serif" font-size="14.00" fill="#000000">0x103d00a50</text>
</g>
<!-- node0x103d00b10&#45;&gt;node0x103d00ad0 -->
<g id="edge2" class="edge">
<title>node0x103d00b10:left&#45;&gt;node0x103d00ad0</title>
<path fill="none" stroke="#187ae8" stroke-width="2" d="M259.75,-271C259.75,-262.91 259.79,-254.38 259.85,-245.98"/>
<polygon fill="#187ae8" stroke="#187ae8" stroke-width="2" points="263.34,-247.71 259.93,-237.68 256.34,-247.65 263.34,-247.71"/>
</g>
<!-- node0x103d00a90 -->
<g id="node5" class="node">
<title>node0x103d00a90</title>
<path fill="#d5cfe1" stroke="#8797b2" d="M67.38,-0.5C67.38,-0.5 239.88,-0.5 239.88,-0.5 245.88,-0.5 251.88,-6.5 251.88,-12.5 251.88,-12.5 251.88,-87 251.88,-87 251.88,-93 245.88,-99 239.88,-99 239.88,-99 67.38,-99 67.38,-99 61.38,-99 55.38,-93 55.38,-87 55.38,-87 55.38,-12.5 55.38,-12.5 55.38,-6.5 61.38,-0.5 67.38,-0.5"/>
<text text-anchor="middle" x="153.62" y="-81.7" font-family="Times,serif" font-size="14.00" fill="#000000">x</text>
<text text-anchor="middle" x="153.62" y="-65.2" font-family="Times,serif" font-size="14.00" fill="#000000">0x103d00a90</text>
<polyline fill="none" stroke="#8797b2" points="55.38,-58 251.88,-58"/>
<text text-anchor="middle" x="82.12" y="-40.7" font-family="Times,serif" font-size="14.00" fill="#000000">Left</text>
<text text-anchor="middle" x="82.12" y="-24.2" font-family="Times,serif" font-size="14.00" fill="#000000">NONE</text>
<text text-anchor="middle" x="82.12" y="-7.7" font-family="Times,serif" font-size="14.00" fill="#000000">0x0</text>
<polyline fill="none" stroke="#8797b2" points="108.88,-0.5 108.88,-58"/>
<text text-anchor="middle" x="153.62" y="-40.7" font-family="Times,serif" font-size="14.00" fill="#000000">Parent</text>
<text text-anchor="middle" x="153.62" y="-24.2" font-family="Times,serif" font-size="14.00" fill="#000000">*</text>
<text text-anchor="middle" x="153.62" y="-7.7" font-family="Times,serif" font-size="14.00" fill="#000000">0x103d00ad0</text>
<polyline fill="none" stroke="#8797b2" points="198.38,-0.5 198.38,-58"/>
<text text-anchor="middle" x="225.12" y="-40.7" font-family="Times,serif" font-size="14.00" fill="#000000">Right</text>
<text text-anchor="middle" x="225.12" y="-24.2" font-family="Times,serif" font-size="14.00" fill="#000000">NONE</text>
<text text-anchor="middle" x="225.12" y="-7.7" font-family="Times,serif" font-size="14.00" fill="#000000">0x0</text>
</g>
<!-- node0x103d00ad0&#45;&gt;node0x103d00a90 -->
<g id="edge3" class="edge">
<title>node0x103d00ad0:left&#45;&gt;node0x103d00a90</title>
<path fill="none" stroke="#187ae8" stroke-width="2" d="M170.75,-135.5C170.75,-127.35 169.98,-118.84 168.76,-110.49"/>
<polygon fill="#187ae8" stroke="#187ae8" stroke-width="2" points="172.49,-111.52 167.37,-102.25 165.59,-112.69 172.49,-111.52"/>
</g>
<!-- node0x103d00a50 -->
<g id="node6" class="node">
<title>node0x103d00a50</title>
<path fill="#bdef9e" stroke="#99c2a2" d="M282.38,-0.5C282.38,-0.5 454.88,-0.5 454.88,-0.5 460.88,-0.5 466.88,-6.5 466.88,-12.5 466.88,-12.5 466.88,-87 466.88,-87 466.88,-93 460.88,-99 454.88,-99 454.88,-99 282.38,-99 282.38,-99 276.38,-99 270.38,-93 270.38,-87 270.38,-87 270.38,-12.5 270.38,-12.5 270.38,-6.5 276.38,-0.5 282.38,-0.5"/>
<text text-anchor="middle" x="368.62" y="-81.7" font-family="Times,serif" font-size="14.00" fill="#000000">2</text>
<text text-anchor="middle" x="368.62" y="-65.2" font-family="Times,serif" font-size="14.00" fill="#000000">0x103d00a50</text>
<polyline fill="none" stroke="#99c2a2" points="270.38,-58 466.88,-58"/>
<text text-anchor="middle" x="297.12" y="-40.7" font-family="Times,serif" font-size="14.00" fill="#000000">Left</text>
<text text-anchor="middle" x="297.12" y="-24.2" font-family="Times,serif" font-size="14.00" fill="#000000">NONE</text>
<text text-anchor="middle" x="297.12" y="-7.7" font-family="Times,serif" font-size="14.00" fill="#000000">0x0</text>
<polyline fill="none" stroke="#99c2a2" points="323.88,-0.5 323.88,-58"/>
<text text-anchor="middle" x="368.62" y="-40.7" font-family="Times,serif" font-size="14.00" fill="#000000">Parent</text>
<text text-anchor="middle" x="368.62" y="-24.2" font-family="Times,serif" font-size="14.00" fill="#000000">*</text>
<text text-anchor="middle" x="368.62" y="-7.7" font-family="Times,serif" font-size="14.00" fill="#000000">0x103d00ad0</text>
<polyline fill="none" stroke="#99c2a2" points="413.38,-0.5 413.38,-58"/>
<text text-anchor="middle" x="440.12" y="-40.7" font-family="Times,serif" font-size="14.00" fill="#000000">Right</text>
<text text-anchor="middle" x="440.12" y="-24.2" font-family="Times,serif" font-size="14.00" fill="#000000">NONE</text>
<text text-anchor="middle" x="440.12" y="-7.7" font-family="Times,serif" font-size="14.00" fill="#000000">0x0</text>
</g>
<!-- node0x103d00ad0&#45;&gt;node0x103d00a50 -->
<g id="edge4" class="edge">
<title>node0x103d00ad0:right&#45;&gt;node0x103d00a50</title>
<path fill="none" stroke="#48e818" stroke-width="2" d="M350.5,-135.5C350.5,-127.33 351.32,-118.81 352.6,-110.46"/>
<polygon fill="#48e818" stroke="#48e818" stroke-width="2" points="355.76,-112.66 354.08,-102.2 348.87,-111.43 355.76,-112.66"/>
</g>
</g>
</svg>
