<?xml version="1.0" encoding="UTF-8" standalone="no"?>
<!DOCTYPE svg PUBLIC "-//W3C//DTD SVG 1.1//EN"
 "http://www.w3.org/Graphics/SVG/1.1/DTD/svg11.dtd">
<!-- Generated by graphviz version 12.2.0 (20241103.1931)
 -->
<!-- Pages: 1 -->
<svg width="847pt" height="379pt"
 viewBox="0.00 0.00 847.12 378.50" xmlns="http://www.w3.org/2000/svg" xmlns:xlink="http://www.w3.org/1999/xlink">
<g id="graph0" class="graph" transform="scale(1 1) rotate(0) translate(4 374.5)">
<polygon fill="#dcdcdc" stroke="none" points="-4,4 -4,-374.5 843.12,-374.5 843.12,4 -4,4"/>
<!-- node0x102c01e70 -->
<g id="node1" class="node">
<title>node0x102c01e70</title>
<path fill="#fbee21" stroke="#d3c70d" d="M315,-271.5C315,-271.5 522.75,-271.5 522.75,-271.5 528.75,-271.5 534.75,-277.5 534.75,-283.5 534.75,-283.5 534.75,-358 534.75,-358 534.75,-364 528.75,-370 522.75,-370 522.75,-370 315,-370 315,-370 309,-370 303,-364 303,-358 303,-358 303,-283.5 303,-283.5 303,-277.5 309,-271.5 315,-271.5"/>
<text text-anchor="middle" x="418.88" y="-352.7" font-family="Times,serif" font-size="14.00" fill="#000000">/</text>
<text text-anchor="middle" x="418.88" y="-336.2" font-family="Times,serif" font-size="14.00" fill="#000000">0x102c01e70</text>
<polyline fill="none" stroke="#d3c70d" points="303,-329 534.75,-329"/>
<text text-anchor="middle" x="347.38" y="-311.7" font-family="Times,serif" font-size="14.00" fill="#000000">Left</text>
<text text-anchor="middle" x="347.38" y="-295.2" font-family="Times,serif" font-size="14.00" fill="#000000">+</text>
<text text-anchor="middle" x="347.38" y="-278.7" font-family="Times,serif" font-size="14.00" fill="#000000">0x102c01de0</text>
<polyline fill="none" stroke="#d3c70d" points="391.75,-271.5 391.75,-329"/>
<text text-anchor="middle" x="418.5" y="-311.7" font-family="Times,serif" font-size="14.00" fill="#000000">Parent</text>
<text text-anchor="middle" x="418.5" y="-295.2" font-family="Times,serif" font-size="14.00" fill="#000000">NONE</text>
<text text-anchor="middle" x="418.5" y="-278.7" font-family="Times,serif" font-size="14.00" fill="#000000">0x0</text>
<polyline fill="none" stroke="#d3c70d" points="445.25,-271.5 445.25,-329"/>
<text text-anchor="middle" x="490" y="-311.7" font-family="Times,serif" font-size="14.00" fill="#000000">Right</text>
<text text-anchor="middle" x="490" y="-295.2" font-family="Times,serif" font-size="14.00" fill="#000000">&#45;</text>
<text text-anchor="middle" x="490" y="-278.7" font-family="Times,serif" font-size="14.00" fill="#000000">0x102c01d50</text>
</g>
<!-- node0x102c01de0 -->
<g id="node2" class="node">
<title>node0x102c01de0</title>
<path fill="#fbee21" stroke="#d3c70d" d="M102.75,-136C102.75,-136 345,-136 345,-136 351,-136 357,-142 357,-148 357,-148 357,-222.5 357,-222.5 357,-228.5 351,-234.5 345,-234.5 345,-234.5 102.75,-234.5 102.75,-234.5 96.75,-234.5 90.75,-228.5 90.75,-222.5 90.75,-222.5 90.75,-148 90.75,-148 90.75,-142 96.75,-136 102.75,-136"/>
<text text-anchor="middle" x="223.88" y="-217.2" font-family="Times,serif" font-size="14.00" fill="#000000">+</text>
<text text-anchor="middle" x="223.88" y="-200.7" font-family="Times,serif" font-size="14.00" fill="#000000">0x102c01de0</text>
<polyline fill="none" stroke="#d3c70d" points="90.75,-193.5 357,-193.5"/>
<text text-anchor="middle" x="135.12" y="-176.2" font-family="Times,serif" font-size="14.00" fill="#000000">Left</text>
<text text-anchor="middle" x="135.12" y="-159.7" font-family="Times,serif" font-size="14.00" fill="#000000">30</text>
<text text-anchor="middle" x="135.12" y="-143.2" font-family="Times,serif" font-size="14.00" fill="#000000">0x102c01e40</text>
<polyline fill="none" stroke="#d3c70d" points="179.5,-136 179.5,-193.5"/>
<text text-anchor="middle" x="223.88" y="-176.2" font-family="Times,serif" font-size="14.00" fill="#000000">Parent</text>
<text text-anchor="middle" x="223.88" y="-159.7" font-family="Times,serif" font-size="14.00" fill="#000000">/</text>
<text text-anchor="middle" x="223.88" y="-143.2" font-family="Times,serif" font-size="14.00" fill="#000000">0x102c01e70</text>
<polyline fill="none" stroke="#d3c70d" points="268.25,-136 268.25,-193.5"/>
<text text-anchor="middle" x="312.62" y="-176.2" font-family="Times,serif" font-size="14.00" fill="#000000">Right</text>
<text text-anchor="middle" x="312.62" y="-159.7" font-family="Times,serif" font-size="14.00" fill="#000000">50</text>
<text text-anchor="middle" x="312.62" y="-143.2" font-family="Times,serif" font-size="14.00" fill="#000000">0x102c01e10</text>
</g>
<!-- node0x102c01e70&#45;&gt;node0x102c01de0 -->
<g id="edge1" class="edge">
<title>node0x102c01e70:left&#45;&gt;node0x102c01de0</title>
<path fill="none" stroke="#187ae8" stroke-width="2" d="M302,-300.25C272.11,-300.25 252.81,-273.25 240.87,-245.53"/>
<polygon fill="#187ae8" stroke="#187ae8" stroke-width="2" points="244.72,-245.74 237.77,-237.74 238.21,-248.32 244.72,-245.74"/>
</g>
<!-- node0x102c01d50 -->
<g id="node5" class="node">
<title>node0x102c01d50</title>
<path fill="#fbee21" stroke="#d3c70d" d="M493,-136C493,-136 736.75,-136 736.75,-136 742.75,-136 748.75,-142 748.75,-148 748.75,-148 748.75,-222.5 748.75,-222.5 748.75,-228.5 742.75,-234.5 736.75,-234.5 736.75,-234.5 493,-234.5 493,-234.5 487,-234.5 481,-228.5 481,-222.5 481,-222.5 481,-148 481,-148 481,-142 487,-136 493,-136"/>
<text text-anchor="middle" x="614.88" y="-217.2" font-family="Times,serif" font-size="14.00" fill="#000000">&#45;</text>
<text text-anchor="middle" x="614.88" y="-200.7" font-family="Times,serif" font-size="14.00" fill="#000000">0x102c01d50</text>
<polyline fill="none" stroke="#d3c70d" points="481,-193.5 748.75,-193.5"/>
<text text-anchor="middle" x="525.75" y="-176.2" font-family="Times,serif" font-size="14.00" fill="#000000">Left</text>
<text text-anchor="middle" x="525.75" y="-159.7" font-family="Times,serif" font-size="14.00" fill="#000000">12</text>
<text text-anchor="middle" x="525.75" y="-143.2" font-family="Times,serif" font-size="14.00" fill="#000000">0x102c01db0</text>
<polyline fill="none" stroke="#d3c70d" points="570.5,-136 570.5,-193.5"/>
<text text-anchor="middle" x="614.88" y="-176.2" font-family="Times,serif" font-size="14.00" fill="#000000">Parent</text>
<text text-anchor="middle" x="614.88" y="-159.7" font-family="Times,serif" font-size="14.00" fill="#000000">/</text>
<text text-anchor="middle" x="614.88" y="-143.2" font-family="Times,serif" font-size="14.00" fill="#000000">0x102c01e70</text>
<polyline fill="none" stroke="#d3c70d" points="659.25,-136 659.25,-193.5"/>
<text text-anchor="middle" x="704" y="-176.2" font-family="Times,serif" font-size="14.00" fill="#000000">Right</text>
<text text-anchor="middle" x="704" y="-159.7" font-family="Times,serif" font-size="14.00" fill="#000000">x</text>
<text text-anchor="middle" x="704" y="-143.2" font-family="Times,serif" font-size="14.00" fill="#000000">0x102c01d80</text>
</g>
<!-- node0x102c01e70&#45;&gt;node0x102c01d50 -->
<g id="edge6" class="edge">
<title>node0x102c01e70:right&#45;&gt;node0x102c01d50</title>
<path fill="none" stroke="#48e818" stroke-width="2" d="M535.75,-300.25C565.76,-300.25 585.31,-273.25 597.46,-245.53"/>
<polygon fill="#48e818" stroke="#48e818" stroke-width="2" points="600.11,-248.31 600.62,-237.73 593.62,-245.68 600.11,-248.31"/>
</g>
<!-- node0x102c01e40 -->
<g id="node3" class="node">
<title>node0x102c01e40</title>
<path fill="#bdef9e" stroke="#99c2a2" d="M12,-0.5C12,-0.5 183.75,-0.5 183.75,-0.5 189.75,-0.5 195.75,-6.5 195.75,-12.5 195.75,-12.5 195.75,-87 195.75,-87 195.75,-93 189.75,-99 183.75,-99 183.75,-99 12,-99 12,-99 6,-99 0,-93 0,-87 0,-87 0,-12.5 0,-12.5 0,-6.5 6,-0.5 12,-0.5"/>
<text text-anchor="middle" x="97.88" y="-81.7" font-family="Times,serif" font-size="14.00" fill="#000000">30</text>
<text text-anchor="middle" x="97.88" y="-65.2" font-family="Times,serif" font-size="14.00" fill="#000000">0x102c01e40</text>
<polyline fill="none" stroke="#99c2a2" points="0,-58 195.75,-58"/>
<text text-anchor="middle" x="26.75" y="-40.7" font-family="Times,serif" font-size="14.00" fill="#000000">Left</text>
<text text-anchor="middle" x="26.75" y="-24.2" font-family="Times,serif" font-size="14.00" fill="#000000">NONE</text>
<text text-anchor="middle" x="26.75" y="-7.7" font-family="Times,serif" font-size="14.00" fill="#000000">0x0</text>
<polyline fill="none" stroke="#99c2a2" points="53.5,-0.5 53.5,-58"/>
<text text-anchor="middle" x="97.88" y="-40.7" font-family="Times,serif" font-size="14.00" fill="#000000">Parent</text>
<text text-anchor="middle" x="97.88" y="-24.2" font-family="Times,serif" font-size="14.00" fill="#000000">+</text>
<text text-anchor="middle" x="97.88" y="-7.7" font-family="Times,serif" font-size="14.00" fill="#000000">0x102c01de0</text>
<polyline fill="none" stroke="#99c2a2" points="142.25,-0.5 142.25,-58"/>
<text text-anchor="middle" x="169" y="-40.7" font-family="Times,serif" font-size="14.00" fill="#000000">Right</text>
<text text-anchor="middle" x="169" y="-24.2" font-family="Times,serif" font-size="14.00" fill="#000000">NONE</text>
<text text-anchor="middle" x="169" y="-7.7" font-family="Times,serif" font-size="14.00" fill="#000000">0x0</text>
</g>
<!-- node0x102c01de0&#45;&gt;node0x102c01e40 -->
<g id="edge2" class="edge">
<title>node0x102c01de0:left&#45;&gt;node0x102c01e40</title>
<path fill="none" stroke="#187ae8" stroke-width="2" d="M135.12,-135.5C135.12,-127.01 133.54,-118.41 131.02,-110.11"/>
<polygon fill="#187ae8" stroke="#187ae8" stroke-width="2" points="134.88,-110.52 128.24,-102.26 128.28,-112.86 134.88,-110.52"/>
</g>
<!-- node0x102c01e10 -->
<g id="node4" class="node">
<title>node0x102c01e10</title>
<path fill="#bdef9e" stroke="#99c2a2" d="M226,-0.5C226,-0.5 397.75,-0.5 397.75,-0.5 403.75,-0.5 409.75,-6.5 409.75,-12.5 409.75,-12.5 409.75,-87 409.75,-87 409.75,-93 403.75,-99 397.75,-99 397.75,-99 226,-99 226,-99 220,-99 214,-93 214,-87 214,-87 214,-12.5 214,-12.5 214,-6.5 220,-0.5 226,-0.5"/>
<text text-anchor="middle" x="311.88" y="-81.7" font-family="Times,serif" font-size="14.00" fill="#000000">50</text>
<text text-anchor="middle" x="311.88" y="-65.2" font-family="Times,serif" font-size="14.00" fill="#000000">0x102c01e10</text>
<polyline fill="none" stroke="#99c2a2" points="214,-58 409.75,-58"/>
<text text-anchor="middle" x="240.75" y="-40.7" font-family="Times,serif" font-size="14.00" fill="#000000">Left</text>
<text text-anchor="middle" x="240.75" y="-24.2" font-family="Times,serif" font-size="14.00" fill="#000000">NONE</text>
<text text-anchor="middle" x="240.75" y="-7.7" font-family="Times,serif" font-size="14.00" fill="#000000">0x0</text>
<polyline fill="none" stroke="#99c2a2" points="267.5,-0.5 267.5,-58"/>
<text text-anchor="middle" x="311.88" y="-40.7" font-family="Times,serif" font-size="14.00" fill="#000000">Parent</text>
<text text-anchor="middle" x="311.88" y="-24.2" font-family="Times,serif" font-size="14.00" fill="#000000">+</text>
<text text-anchor="middle" x="311.88" y="-7.7" font-family="Times,serif" font-size="14.00" fill="#000000">0x102c01de0</text>
<polyline fill="none" stroke="#99c2a2" points="356.25,-0.5 356.25,-58"/>
<text text-anchor="middle" x="383" y="-40.7" font-family="Times,serif" font-size="14.00" fill="#000000">Right</text>
<text text-anchor="middle" x="383" y="-24.2" font-family="Times,serif" font-size="14.00" fill="#000000">NONE</text>
<text text-anchor="middle" x="383" y="-7.7" font-family="Times,serif" font-size="14.00" fill="#000000">0x0</text>
</g>
<!-- node0x102c01de0&#45;&gt;node0x102c01e10 -->
<g id="edge3" class="edge">
<title>node0x102c01de0:right&#45;&gt;node0x102c01e10</title>
<path fill="none" stroke="#48e818" stroke-width="2" d="M312.62,-135.5C312.62,-127.41 312.59,-118.88 312.54,-110.48"/>
<polygon fill="#48e818" stroke="#48e818" stroke-width="2" points="316.05,-112.15 312.47,-102.18 309.05,-112.21 316.05,-112.15"/>
</g>
<!-- node0x102c01db0 -->
<g id="node6" class="node">
<title>node0x102c01db0</title>
<path fill="#bdef9e" stroke="#99c2a2" d="M439.62,-0.5C439.62,-0.5 612.12,-0.5 612.12,-0.5 618.12,-0.5 624.12,-6.5 624.12,-12.5 624.12,-12.5 624.12,-87 624.12,-87 624.12,-93 618.12,-99 612.12,-99 612.12,-99 439.62,-99 439.62,-99 433.62,-99 427.62,-93 427.62,-87 427.62,-87 427.62,-12.5 427.62,-12.5 427.62,-6.5 433.62,-0.5 439.62,-0.5"/>
<text text-anchor="middle" x="525.88" y="-81.7" font-family="Times,serif" font-size="14.00" fill="#000000">12</text>
<text text-anchor="middle" x="525.88" y="-65.2" font-family="Times,serif" font-size="14.00" fill="#000000">0x102c01db0</text>
<polyline fill="none" stroke="#99c2a2" points="427.62,-58 624.12,-58"/>
<text text-anchor="middle" x="454.38" y="-40.7" font-family="Times,serif" font-size="14.00" fill="#000000">Left</text>
<text text-anchor="middle" x="454.38" y="-24.2" font-family="Times,serif" font-size="14.00" fill="#000000">NONE</text>
<text text-anchor="middle" x="454.38" y="-7.7" font-family="Times,serif" font-size="14.00" fill="#000000">0x0</text>
<polyline fill="none" stroke="#99c2a2" points="481.12,-0.5 481.12,-58"/>
<text text-anchor="middle" x="525.88" y="-40.7" font-family="Times,serif" font-size="14.00" fill="#000000">Parent</text>
<text text-anchor="middle" x="525.88" y="-24.2" font-family="Times,serif" font-size="14.00" fill="#000000">&#45;</text>
<text text-anchor="middle" x="525.88" y="-7.7" font-family="Times,serif" font-size="14.00" fill="#000000">0x102c01d50</text>
<polyline fill="none" stroke="#99c2a2" points="570.62,-0.5 570.62,-58"/>
<text text-anchor="middle" x="597.38" y="-40.7" font-family="Times,serif" font-size="14.00" fill="#000000">Right</text>
<text text-anchor="middle" x="597.38" y="-24.2" font-family="Times,serif" font-size="14.00" fill="#000000">NONE</text>
<text text-anchor="middle" x="597.38" y="-7.7" font-family="Times,serif" font-size="14.00" fill="#000000">0x0</text>
</g>
<!-- node0x102c01d50&#45;&gt;node0x102c01db0 -->
<g id="edge4" class="edge">
<title>node0x102c01d50:left&#45;&gt;node0x102c01db0</title>
<path fill="none" stroke="#187ae8" stroke-width="2" d="M525.75,-135.5C525.75,-127.41 525.76,-118.88 525.76,-110.48"/>
<polygon fill="#187ae8" stroke="#187ae8" stroke-width="2" points="529.26,-112.18 525.78,-102.18 522.26,-112.18 529.26,-112.18"/>
</g>
<!-- node0x102c01d80 -->
<g id="node7" class="node">
<title>node0x102c01d80</title>
<path fill="#d5cfe1" stroke="#8797b2" d="M654.62,-0.5C654.62,-0.5 827.12,-0.5 827.12,-0.5 833.12,-0.5 839.12,-6.5 839.12,-12.5 839.12,-12.5 839.12,-87 839.12,-87 839.12,-93 833.12,-99 827.12,-99 827.12,-99 654.62,-99 654.62,-99 648.62,-99 642.62,-93 642.62,-87 642.62,-87 642.62,-12.5 642.62,-12.5 642.62,-6.5 648.62,-0.5 654.62,-0.5"/>
<text text-anchor="middle" x="740.88" y="-81.7" font-family="Times,serif" font-size="14.00" fill="#000000">x</text>
<text text-anchor="middle" x="740.88" y="-65.2" font-family="Times,serif" font-size="14.00" fill="#000000">0x102c01d80</text>
<polyline fill="none" stroke="#8797b2" points="642.62,-58 839.12,-58"/>
<text text-anchor="middle" x="669.38" y="-40.7" font-family="Times,serif" font-size="14.00" fill="#000000">Left</text>
<text text-anchor="middle" x="669.38" y="-24.2" font-family="Times,serif" font-size="14.00" fill="#000000">NONE</text>
<text text-anchor="middle" x="669.38" y="-7.7" font-family="Times,serif" font-size="14.00" fill="#000000">0x0</text>
<polyline fill="none" stroke="#8797b2" points="696.12,-0.5 696.12,-58"/>
<text text-anchor="middle" x="740.88" y="-40.7" font-family="Times,serif" font-size="14.00" fill="#000000">Parent</text>
<text text-anchor="middle" x="740.88" y="-24.2" font-family="Times,serif" font-size="14.00" fill="#000000">&#45;</text>
<text text-anchor="middle" x="740.88" y="-7.7" font-family="Times,serif" font-size="14.00" fill="#000000">0x102c01d50</text>
<polyline fill="none" stroke="#8797b2" points="785.62,-0.5 785.62,-58"/>
<text text-anchor="middle" x="812.38" y="-40.7" font-family="Times,serif" font-size="14.00" fill="#000000">Right</text>
<text text-anchor="middle" x="812.38" y="-24.2" font-family="Times,serif" font-size="14.00" fill="#000000">NONE</text>
<text text-anchor="middle" x="812.38" y="-7.7" font-family="Times,serif" font-size="14.00" fill="#000000">0x0</text>
</g>
<!-- node0x102c01d50&#45;&gt;node0x102c01d80 -->
<g id="edge5" class="edge">
<title>node0x102c01d50:right&#45;&gt;node0x102c01d80</title>
<path fill="none" stroke="#48e818" stroke-width="2" d="M704,-135.5C704,-127.02 705.57,-118.43 708.07,-110.14"/>
<polygon fill="#48e818" stroke="#48e818" stroke-width="2" points="710.81,-112.89 710.82,-102.3 704.2,-110.57 710.81,-112.89"/>
</g>
</g>
</svg>
