<?xml version="1.0" encoding="UTF-8" standalone="no"?>
<!DOCTYPE svg PUBLIC "-//W3C//DTD SVG 1.1//EN"
 "http://www.w3.org/Graphics/SVG/1.1/DTD/svg11.dtd">
<!-- Generated by graphviz version 12.2.0 (20241103.1931)
 -->
<!-- Pages: 1 -->
<svg width="574pt" height="650pt"
 viewBox="0.00 0.00 574.25 649.50" xmlns="http://www.w3.org/2000/svg" xmlns:xlink="http://www.w3.org/1999/xlink">
<g id="graph0" class="graph" transform="scale(1 1) rotate(0) translate(4 645.5)">
<polygon fill="#dcdcdc" stroke="none" points="-4,4 -4,-645.5 570.25,-645.5 570.25,4 -4,4"/>
<!-- node0x105600710 -->
<g id="node1" class="node">
<title>node0x105600710</title>
<path fill="#f18805" stroke="#af3800" d="M236.62,-542.5C236.62,-542.5 446.62,-542.5 446.62,-542.5 452.62,-542.5 458.62,-548.5 458.62,-554.5 458.62,-554.5 458.62,-629 458.62,-629 458.62,-635 452.62,-641 446.62,-641 446.62,-641 236.62,-641 236.62,-641 230.62,-641 224.62,-635 224.62,-629 224.62,-629 224.62,-554.5 224.62,-554.5 224.62,-548.5 230.62,-542.5 236.62,-542.5"/>
<text text-anchor="middle" x="341.62" y="-623.7" font-family="Times,serif" font-size="14.00" fill="#000000">*</text>
<text text-anchor="middle" x="341.62" y="-607.2" font-family="Times,serif" font-size="14.00" fill="#000000">0x105600710</text>
<polyline fill="none" stroke="#af3800" points="224.62,-600 458.62,-600"/>
<text text-anchor="middle" x="269.75" y="-582.7" font-family="Times,serif" font-size="14.00" fill="#000000">Left</text>
<text text-anchor="middle" x="269.75" y="-566.2" font-family="Times,serif" font-size="14.00" fill="#000000">*</text>
<text text-anchor="middle" x="269.75" y="-549.7" font-family="Times,serif" font-size="14.00" fill="#000000">0x105600910</text>
<polyline fill="none" stroke="#af3800" points="314.88,-542.5 314.88,-600"/>
<text text-anchor="middle" x="341.62" y="-582.7" font-family="Times,serif" font-size="14.00" fill="#000000">Parent</text>
<text text-anchor="middle" x="341.62" y="-566.2" font-family="Times,serif" font-size="14.00" fill="#000000">NONE</text>
<text text-anchor="middle" x="341.62" y="-549.7" font-family="Times,serif" font-size="14.00" fill="#000000">0x0</text>
<polyline fill="none" stroke="#af3800" points="368.38,-542.5 368.38,-600"/>
<text text-anchor="middle" x="413.5" y="-582.7" font-family="Times,serif" font-size="14.00" fill="#000000">Right</text>
<text text-anchor="middle" x="413.5" y="-566.2" font-family="Times,serif" font-size="14.00" fill="#000000">2</text>
<text text-anchor="middle" x="413.5" y="-549.7" font-family="Times,serif" font-size="14.00" fill="#000000">0x105600750</text>
</g>
<!-- node0x105600910 -->
<g id="node2" class="node">
<title>node0x105600910</title>
<path fill="#fbee21" stroke="#d3c70d" d="M92.62,-407C92.62,-407 338.62,-407 338.62,-407 344.62,-407 350.62,-413 350.62,-419 350.62,-419 350.62,-493.5 350.62,-493.5 350.62,-499.5 344.62,-505.5 338.62,-505.5 338.62,-505.5 92.62,-505.5 92.62,-505.5 86.63,-505.5 80.62,-499.5 80.62,-493.5 80.62,-493.5 80.62,-419 80.62,-419 80.62,-413 86.62,-407 92.62,-407"/>
<text text-anchor="middle" x="215.62" y="-488.2" font-family="Times,serif" font-size="14.00" fill="#000000">*</text>
<text text-anchor="middle" x="215.62" y="-471.7" font-family="Times,serif" font-size="14.00" fill="#000000">0x105600910</text>
<polyline fill="none" stroke="#d3c70d" points="80.62,-464.5 350.62,-464.5"/>
<text text-anchor="middle" x="125.38" y="-447.2" font-family="Times,serif" font-size="14.00" fill="#000000">Left</text>
<text text-anchor="middle" x="125.38" y="-430.7" font-family="Times,serif" font-size="14.00" fill="#000000">&#45;1</text>
<text text-anchor="middle" x="125.38" y="-414.2" font-family="Times,serif" font-size="14.00" fill="#000000">0x105600a50</text>
<polyline fill="none" stroke="#d3c70d" points="170.12,-407 170.12,-464.5"/>
<text text-anchor="middle" x="215.25" y="-447.2" font-family="Times,serif" font-size="14.00" fill="#000000">Parent</text>
<text text-anchor="middle" x="215.25" y="-430.7" font-family="Times,serif" font-size="14.00" fill="#000000">*</text>
<text text-anchor="middle" x="215.25" y="-414.2" font-family="Times,serif" font-size="14.00" fill="#000000">0x105600710</text>
<polyline fill="none" stroke="#d3c70d" points="260.38,-407 260.38,-464.5"/>
<text text-anchor="middle" x="305.5" y="-447.2" font-family="Times,serif" font-size="14.00" fill="#000000">Right</text>
<text text-anchor="middle" x="305.5" y="-430.7" font-family="Times,serif" font-size="14.00" fill="#000000">sin</text>
<text text-anchor="middle" x="305.5" y="-414.2" font-family="Times,serif" font-size="14.00" fill="#000000">0x105600950</text>
</g>
<!-- node0x105600710&#45;&gt;node0x105600910 -->
<g id="edge1" class="edge">
<title>node0x105600710:left&#45;&gt;node0x105600910</title>
<path fill="none" stroke="#187ae8" stroke-width="2" d="M269.75,-542C269.75,-533.04 267.57,-524.26 264.09,-515.96"/>
<polygon fill="#187ae8" stroke="#187ae8" stroke-width="2" points="267.95,-515.86 260.39,-508.44 261.67,-518.95 267.95,-515.86"/>
</g>
<!-- node0x105600750 -->
<g id="node8" class="node">
<title>node0x105600750</title>
<path fill="#bdef9e" stroke="#99c2a2" d="M381,-407C381,-407 554.25,-407 554.25,-407 560.25,-407 566.25,-413 566.25,-419 566.25,-419 566.25,-493.5 566.25,-493.5 566.25,-499.5 560.25,-505.5 554.25,-505.5 554.25,-505.5 381,-505.5 381,-505.5 375,-505.5 369,-499.5 369,-493.5 369,-493.5 369,-419 369,-419 369,-413 375,-407 381,-407"/>
<text text-anchor="middle" x="467.62" y="-488.2" font-family="Times,serif" font-size="14.00" fill="#000000">2</text>
<text text-anchor="middle" x="467.62" y="-471.7" font-family="Times,serif" font-size="14.00" fill="#000000">0x105600750</text>
<polyline fill="none" stroke="#99c2a2" points="369,-464.5 566.25,-464.5"/>
<text text-anchor="middle" x="395.75" y="-447.2" font-family="Times,serif" font-size="14.00" fill="#000000">Left</text>
<text text-anchor="middle" x="395.75" y="-430.7" font-family="Times,serif" font-size="14.00" fill="#000000">NONE</text>
<text text-anchor="middle" x="395.75" y="-414.2" font-family="Times,serif" font-size="14.00" fill="#000000">0x0</text>
<polyline fill="none" stroke="#99c2a2" points="422.5,-407 422.5,-464.5"/>
<text text-anchor="middle" x="467.62" y="-447.2" font-family="Times,serif" font-size="14.00" fill="#000000">Parent</text>
<text text-anchor="middle" x="467.62" y="-430.7" font-family="Times,serif" font-size="14.00" fill="#000000">*</text>
<text text-anchor="middle" x="467.62" y="-414.2" font-family="Times,serif" font-size="14.00" fill="#000000">0x105600710</text>
<polyline fill="none" stroke="#99c2a2" points="512.75,-407 512.75,-464.5"/>
<text text-anchor="middle" x="539.5" y="-447.2" font-family="Times,serif" font-size="14.00" fill="#000000">Right</text>
<text text-anchor="middle" x="539.5" y="-430.7" font-family="Times,serif" font-size="14.00" fill="#000000">NONE</text>
<text text-anchor="middle" x="539.5" y="-414.2" font-family="Times,serif" font-size="14.00" fill="#000000">0x0</text>
</g>
<!-- node0x105600710&#45;&gt;node0x105600750 -->
<g id="edge7" class="edge">
<title>node0x105600710:right&#45;&gt;node0x105600750</title>
<path fill="none" stroke="#48e818" stroke-width="2" d="M413.5,-542C413.5,-533.04 415.68,-524.26 419.16,-515.96"/>
<polygon fill="#48e818" stroke="#48e818" stroke-width="2" points="421.58,-518.95 422.86,-508.44 415.3,-515.86 421.58,-518.95"/>
</g>
<!-- node0x105600a50 -->
<g id="node3" class="node">
<title>node0x105600a50</title>
<path fill="#bdef9e" stroke="#99c2a2" d="M12,-271.5C12,-271.5 185.25,-271.5 185.25,-271.5 191.25,-271.5 197.25,-277.5 197.25,-283.5 197.25,-283.5 197.25,-358 197.25,-358 197.25,-364 191.25,-370 185.25,-370 185.25,-370 12,-370 12,-370 6,-370 0,-364 0,-358 0,-358 0,-283.5 0,-283.5 0,-277.5 6,-271.5 12,-271.5"/>
<text text-anchor="middle" x="98.62" y="-352.7" font-family="Times,serif" font-size="14.00" fill="#000000">&#45;1</text>
<text text-anchor="middle" x="98.62" y="-336.2" font-family="Times,serif" font-size="14.00" fill="#000000">0x105600a50</text>
<polyline fill="none" stroke="#99c2a2" points="0,-329 197.25,-329"/>
<text text-anchor="middle" x="26.75" y="-311.7" font-family="Times,serif" font-size="14.00" fill="#000000">Left</text>
<text text-anchor="middle" x="26.75" y="-295.2" font-family="Times,serif" font-size="14.00" fill="#000000">NONE</text>
<text text-anchor="middle" x="26.75" y="-278.7" font-family="Times,serif" font-size="14.00" fill="#000000">0x0</text>
<polyline fill="none" stroke="#99c2a2" points="53.5,-271.5 53.5,-329"/>
<text text-anchor="middle" x="98.62" y="-311.7" font-family="Times,serif" font-size="14.00" fill="#000000">Parent</text>
<text text-anchor="middle" x="98.62" y="-295.2" font-family="Times,serif" font-size="14.00" fill="#000000">*</text>
<text text-anchor="middle" x="98.62" y="-278.7" font-family="Times,serif" font-size="14.00" fill="#000000">0x105600910</text>
<polyline fill="none" stroke="#99c2a2" points="143.75,-271.5 143.75,-329"/>
<text text-anchor="middle" x="170.5" y="-311.7" font-family="Times,serif" font-size="14.00" fill="#000000">Right</text>
<text text-anchor="middle" x="170.5" y="-295.2" font-family="Times,serif" font-size="14.00" fill="#000000">NONE</text>
<text text-anchor="middle" x="170.5" y="-278.7" font-family="Times,serif" font-size="14.00" fill="#000000">0x0</text>
</g>
<!-- node0x105600910&#45;&gt;node0x105600a50 -->
<g id="edge2" class="edge">
<title>node0x105600910:left&#45;&gt;node0x105600a50</title>
<path fill="none" stroke="#187ae8" stroke-width="2" d="M125.38,-406.5C125.38,-398.13 124.17,-389.51 122.28,-381.11"/>
<polygon fill="#187ae8" stroke="#187ae8" stroke-width="2" points="126.12,-381.95 120.2,-373.16 119.35,-383.73 126.12,-381.95"/>
</g>
<!-- node0x105600950 -->
<g id="node4" class="node">
<title>node0x105600950</title>
<path fill="#fbee21" stroke="#d3c70d" d="M227.62,-271.5C227.62,-271.5 437.62,-271.5 437.62,-271.5 443.62,-271.5 449.62,-277.5 449.62,-283.5 449.62,-283.5 449.62,-358 449.62,-358 449.62,-364 443.62,-370 437.62,-370 437.62,-370 227.62,-370 227.62,-370 221.62,-370 215.62,-364 215.62,-358 215.62,-358 215.62,-283.5 215.62,-283.5 215.62,-277.5 221.62,-271.5 227.62,-271.5"/>
<text text-anchor="middle" x="332.62" y="-352.7" font-family="Times,serif" font-size="14.00" fill="#000000">sin</text>
<text text-anchor="middle" x="332.62" y="-336.2" font-family="Times,serif" font-size="14.00" fill="#000000">0x105600950</text>
<polyline fill="none" stroke="#d3c70d" points="215.62,-329 449.62,-329"/>
<text text-anchor="middle" x="260.75" y="-311.7" font-family="Times,serif" font-size="14.00" fill="#000000">Left</text>
<text text-anchor="middle" x="260.75" y="-295.2" font-family="Times,serif" font-size="14.00" fill="#000000">*</text>
<text text-anchor="middle" x="260.75" y="-278.7" font-family="Times,serif" font-size="14.00" fill="#000000">0x105600990</text>
<polyline fill="none" stroke="#d3c70d" points="305.88,-271.5 305.88,-329"/>
<text text-anchor="middle" x="351" y="-311.7" font-family="Times,serif" font-size="14.00" fill="#000000">Parent</text>
<text text-anchor="middle" x="351" y="-295.2" font-family="Times,serif" font-size="14.00" fill="#000000">*</text>
<text text-anchor="middle" x="351" y="-278.7" font-family="Times,serif" font-size="14.00" fill="#000000">0x105600910</text>
<polyline fill="none" stroke="#d3c70d" points="396.12,-271.5 396.12,-329"/>
<text text-anchor="middle" x="422.88" y="-311.7" font-family="Times,serif" font-size="14.00" fill="#000000">Right</text>
<text text-anchor="middle" x="422.88" y="-295.2" font-family="Times,serif" font-size="14.00" fill="#000000">NONE</text>
<text text-anchor="middle" x="422.88" y="-278.7" font-family="Times,serif" font-size="14.00" fill="#000000">0x0</text>
</g>
<!-- node0x105600910&#45;&gt;node0x105600950 -->
<g id="edge6" class="edge">
<title>node0x105600910:right&#45;&gt;node0x105600950</title>
<path fill="none" stroke="#48e818" stroke-width="2" d="M305.5,-406.5C305.5,-398.12 306.72,-389.49 308.64,-381.09"/>
<polygon fill="#48e818" stroke="#48e818" stroke-width="2" points="311.56,-383.7 310.74,-373.14 304.8,-381.91 311.56,-383.7"/>
</g>
<!-- node0x105600990 -->
<g id="node5" class="node">
<title>node0x105600990</title>
<path fill="#fbee21" stroke="#d3c70d" d="M138.62,-136C138.62,-136 384.62,-136 384.62,-136 390.62,-136 396.62,-142 396.62,-148 396.62,-148 396.62,-222.5 396.62,-222.5 396.62,-228.5 390.62,-234.5 384.62,-234.5 384.62,-234.5 138.62,-234.5 138.62,-234.5 132.62,-234.5 126.62,-228.5 126.62,-222.5 126.62,-222.5 126.62,-148 126.62,-148 126.62,-142 132.62,-136 138.62,-136"/>
<text text-anchor="middle" x="261.62" y="-217.2" font-family="Times,serif" font-size="14.00" fill="#000000">*</text>
<text text-anchor="middle" x="261.62" y="-200.7" font-family="Times,serif" font-size="14.00" fill="#000000">0x105600990</text>
<polyline fill="none" stroke="#d3c70d" points="126.62,-193.5 396.62,-193.5"/>
<text text-anchor="middle" x="171.38" y="-176.2" font-family="Times,serif" font-size="14.00" fill="#000000">Left</text>
<text text-anchor="middle" x="171.38" y="-159.7" font-family="Times,serif" font-size="14.00" fill="#000000">2</text>
<text text-anchor="middle" x="171.38" y="-143.2" font-family="Times,serif" font-size="14.00" fill="#000000">0x105600a10</text>
<polyline fill="none" stroke="#d3c70d" points="216.12,-136 216.12,-193.5"/>
<text text-anchor="middle" x="261.25" y="-176.2" font-family="Times,serif" font-size="14.00" fill="#000000">Parent</text>
<text text-anchor="middle" x="261.25" y="-159.7" font-family="Times,serif" font-size="14.00" fill="#000000">sin</text>
<text text-anchor="middle" x="261.25" y="-143.2" font-family="Times,serif" font-size="14.00" fill="#000000">0x105600950</text>
<polyline fill="none" stroke="#d3c70d" points="306.38,-136 306.38,-193.5"/>
<text text-anchor="middle" x="351.5" y="-176.2" font-family="Times,serif" font-size="14.00" fill="#000000">Right</text>
<text text-anchor="middle" x="351.5" y="-159.7" font-family="Times,serif" font-size="14.00" fill="#000000">x</text>
<text text-anchor="middle" x="351.5" y="-143.2" font-family="Times,serif" font-size="14.00" fill="#000000">0x1056009d0</text>
</g>
<!-- node0x105600950&#45;&gt;node0x105600990 -->
<g id="edge3" class="edge">
<title>node0x105600950:left&#45;&gt;node0x105600990</title>
<path fill="none" stroke="#187ae8" stroke-width="2" d="M260.75,-271C260.75,-262.91 260.79,-254.38 260.85,-245.98"/>
<polygon fill="#187ae8" stroke="#187ae8" stroke-width="2" points="264.34,-247.71 260.93,-237.68 257.34,-247.65 264.34,-247.71"/>
</g>
<!-- node0x105600a10 -->
<g id="node6" class="node">
<title>node0x105600a10</title>
<path fill="#bdef9e" stroke="#99c2a2" d="M67,-0.5C67,-0.5 240.25,-0.5 240.25,-0.5 246.25,-0.5 252.25,-6.5 252.25,-12.5 252.25,-12.5 252.25,-87 252.25,-87 252.25,-93 246.25,-99 240.25,-99 240.25,-99 67,-99 67,-99 61,-99 55,-93 55,-87 55,-87 55,-12.5 55,-12.5 55,-6.5 61,-0.5 67,-0.5"/>
<text text-anchor="middle" x="153.62" y="-81.7" font-family="Times,serif" font-size="14.00" fill="#000000">2</text>
<text text-anchor="middle" x="153.62" y="-65.2" font-family="Times,serif" font-size="14.00" fill="#000000">0x105600a10</text>
<polyline fill="none" stroke="#99c2a2" points="55,-58 252.25,-58"/>
<text text-anchor="middle" x="81.75" y="-40.7" font-family="Times,serif" font-size="14.00" fill="#000000">Left</text>
<text text-anchor="middle" x="81.75" y="-24.2" font-family="Times,serif" font-size="14.00" fill="#000000">NONE</text>
<text text-anchor="middle" x="81.75" y="-7.7" font-family="Times,serif" font-size="14.00" fill="#000000">0x0</text>
<polyline fill="none" stroke="#99c2a2" points="108.5,-0.5 108.5,-58"/>
<text text-anchor="middle" x="153.62" y="-40.7" font-family="Times,serif" font-size="14.00" fill="#000000">Parent</text>
<text text-anchor="middle" x="153.62" y="-24.2" font-family="Times,serif" font-size="14.00" fill="#000000">*</text>
<text text-anchor="middle" x="153.62" y="-7.7" font-family="Times,serif" font-size="14.00" fill="#000000">0x105600990</text>
<polyline fill="none" stroke="#99c2a2" points="198.75,-0.5 198.75,-58"/>
<text text-anchor="middle" x="225.5" y="-40.7" font-family="Times,serif" font-size="14.00" fill="#000000">Right</text>
<text text-anchor="middle" x="225.5" y="-24.2" font-family="Times,serif" font-size="14.00" fill="#000000">NONE</text>
<text text-anchor="middle" x="225.5" y="-7.7" font-family="Times,serif" font-size="14.00" fill="#000000">0x0</text>
</g>
<!-- node0x105600990&#45;&gt;node0x105600a10 -->
<g id="edge4" class="edge">
<title>node0x105600990:left&#45;&gt;node0x105600a10</title>
<path fill="none" stroke="#187ae8" stroke-width="2" d="M171.38,-135.5C171.38,-127.34 170.58,-118.82 169.32,-110.47"/>
<polygon fill="#187ae8" stroke="#187ae8" stroke-width="2" points="173.04,-111.46 167.87,-102.22 166.15,-112.67 173.04,-111.46"/>
</g>
<!-- node0x1056009d0 -->
<g id="node7" class="node">
<title>node0x1056009d0</title>
<path fill="#d5cfe1" stroke="#8797b2" d="M282,-0.5C282,-0.5 455.25,-0.5 455.25,-0.5 461.25,-0.5 467.25,-6.5 467.25,-12.5 467.25,-12.5 467.25,-87 467.25,-87 467.25,-93 461.25,-99 455.25,-99 455.25,-99 282,-99 282,-99 276,-99 270,-93 270,-87 270,-87 270,-12.5 270,-12.5 270,-6.5 276,-0.5 282,-0.5"/>
<text text-anchor="middle" x="368.62" y="-81.7" font-family="Times,serif" font-size="14.00" fill="#000000">x</text>
<text text-anchor="middle" x="368.62" y="-65.2" font-family="Times,serif" font-size="14.00" fill="#000000">0x1056009d0</text>
<polyline fill="none" stroke="#8797b2" points="270,-58 467.25,-58"/>
<text text-anchor="middle" x="296.75" y="-40.7" font-family="Times,serif" font-size="14.00" fill="#000000">Left</text>
<text text-anchor="middle" x="296.75" y="-24.2" font-family="Times,serif" font-size="14.00" fill="#000000">NONE</text>
<text text-anchor="middle" x="296.75" y="-7.7" font-family="Times,serif" font-size="14.00" fill="#000000">0x0</text>
<polyline fill="none" stroke="#8797b2" points="323.5,-0.5 323.5,-58"/>
<text text-anchor="middle" x="368.62" y="-40.7" font-family="Times,serif" font-size="14.00" fill="#000000">Parent</text>
<text text-anchor="middle" x="368.62" y="-24.2" font-family="Times,serif" font-size="14.00" fill="#000000">*</text>
<text text-anchor="middle" x="368.62" y="-7.7" font-family="Times,serif" font-size="14.00" fill="#000000">0x105600990</text>
<polyline fill="none" stroke="#8797b2" points="413.75,-0.5 413.75,-58"/>
<text text-anchor="middle" x="440.5" y="-40.7" font-family="Times,serif" font-size="14.00" fill="#000000">Right</text>
<text text-anchor="middle" x="440.5" y="-24.2" font-family="Times,serif" font-size="14.00" fill="#000000">NONE</text>
<text text-anchor="middle" x="440.5" y="-7.7" font-family="Times,serif" font-size="14.00" fill="#000000">0x0</text>
</g>
<!-- node0x105600990&#45;&gt;node0x1056009d0 -->
<g id="edge5" class="edge">
<title>node0x105600990:right&#45;&gt;node0x1056009d0</title>
<path fill="none" stroke="#48e818" stroke-width="2" d="M351.5,-135.5C351.5,-127.35 352.27,-118.84 353.49,-110.49"/>
<polygon fill="#48e818" stroke="#48e818" stroke-width="2" points="356.66,-112.69 354.88,-102.25 349.76,-111.52 356.66,-112.69"/>
</g>
</g>
</svg>
