<?xml version="1.0" encoding="UTF-8" standalone="no"?>
<!DOCTYPE svg PUBLIC "-//W3C//DTD SVG 1.1//EN"
 "http://www.w3.org/Graphics/SVG/1.1/DTD/svg11.dtd">
<!-- Generated by graphviz version 12.2.0 (20241103.1931)
 -->
<!-- Pages: 1 -->
<svg width="564pt" height="379pt"
 viewBox="0.00 0.00 564.25 378.50" xmlns="http://www.w3.org/2000/svg" xmlns:xlink="http://www.w3.org/1999/xlink">
<g id="graph0" class="graph" transform="scale(1 1) rotate(0) translate(4 374.5)">
<polygon fill="#dcdcdc" stroke="none" points="-4,4 -4,-374.5 560.25,-374.5 560.25,4 -4,4"/>
<!-- node0x103100790 -->
<g id="node1" class="node">
<title>node0x103100790</title>
<path fill="#f18805" stroke="#af3800" d="M226.62,-271.5C226.62,-271.5 436.62,-271.5 436.62,-271.5 442.62,-271.5 448.62,-277.5 448.62,-283.5 448.62,-283.5 448.62,-358 448.62,-358 448.62,-364 442.62,-370 436.62,-370 436.62,-370 226.62,-370 226.62,-370 220.62,-370 214.62,-364 214.62,-358 214.62,-358 214.62,-283.5 214.62,-283.5 214.62,-277.5 220.62,-271.5 226.62,-271.5"/>
<text text-anchor="middle" x="331.62" y="-352.7" font-family="Times,serif" font-size="14.00" fill="#000000">*</text>
<text text-anchor="middle" x="331.62" y="-336.2" font-family="Times,serif" font-size="14.00" fill="#000000">0x103100790</text>
<polyline fill="none" stroke="#af3800" points="214.62,-329 448.62,-329"/>
<text text-anchor="middle" x="259.75" y="-311.7" font-family="Times,serif" font-size="14.00" fill="#000000">Left</text>
<text text-anchor="middle" x="259.75" y="-295.2" font-family="Times,serif" font-size="14.00" fill="#000000">^</text>
<text text-anchor="middle" x="259.75" y="-278.7" font-family="Times,serif" font-size="14.00" fill="#000000">0x103100890</text>
<polyline fill="none" stroke="#af3800" points="304.88,-271.5 304.88,-329"/>
<text text-anchor="middle" x="331.62" y="-311.7" font-family="Times,serif" font-size="14.00" fill="#000000">Parent</text>
<text text-anchor="middle" x="331.62" y="-295.2" font-family="Times,serif" font-size="14.00" fill="#000000">NONE</text>
<text text-anchor="middle" x="331.62" y="-278.7" font-family="Times,serif" font-size="14.00" fill="#000000">0x0</text>
<polyline fill="none" stroke="#af3800" points="358.38,-271.5 358.38,-329"/>
<text text-anchor="middle" x="403.5" y="-311.7" font-family="Times,serif" font-size="14.00" fill="#000000">Right</text>
<text text-anchor="middle" x="403.5" y="-295.2" font-family="Times,serif" font-size="14.00" fill="#000000">2</text>
<text text-anchor="middle" x="403.5" y="-278.7" font-family="Times,serif" font-size="14.00" fill="#000000">0x1031009d0</text>
</g>
<!-- node0x103100890 -->
<g id="node2" class="node">
<title>node0x103100890</title>
<path fill="#fbee21" stroke="#d3c70d" d="M82.25,-136C82.25,-136 329,-136 329,-136 335,-136 341,-142 341,-148 341,-148 341,-222.5 341,-222.5 341,-228.5 335,-234.5 329,-234.5 329,-234.5 82.25,-234.5 82.25,-234.5 76.25,-234.5 70.25,-228.5 70.25,-222.5 70.25,-222.5 70.25,-148 70.25,-148 70.25,-142 76.25,-136 82.25,-136"/>
<text text-anchor="middle" x="205.62" y="-217.2" font-family="Times,serif" font-size="14.00" fill="#000000">^</text>
<text text-anchor="middle" x="205.62" y="-200.7" font-family="Times,serif" font-size="14.00" fill="#000000">0x103100890</text>
<polyline fill="none" stroke="#d3c70d" points="70.25,-193.5 341,-193.5"/>
<text text-anchor="middle" x="115.38" y="-176.2" font-family="Times,serif" font-size="14.00" fill="#000000">Left</text>
<text text-anchor="middle" x="115.38" y="-159.7" font-family="Times,serif" font-size="14.00" fill="#000000">x</text>
<text text-anchor="middle" x="115.38" y="-143.2" font-family="Times,serif" font-size="14.00" fill="#000000">0x103100990</text>
<polyline fill="none" stroke="#d3c70d" points="160.5,-136 160.5,-193.5"/>
<text text-anchor="middle" x="205.62" y="-176.2" font-family="Times,serif" font-size="14.00" fill="#000000">Parent</text>
<text text-anchor="middle" x="205.62" y="-159.7" font-family="Times,serif" font-size="14.00" fill="#000000">*</text>
<text text-anchor="middle" x="205.62" y="-143.2" font-family="Times,serif" font-size="14.00" fill="#000000">0x103100790</text>
<polyline fill="none" stroke="#d3c70d" points="250.75,-136 250.75,-193.5"/>
<text text-anchor="middle" x="295.88" y="-176.2" font-family="Times,serif" font-size="14.00" fill="#000000">Right</text>
<text text-anchor="middle" x="295.88" y="-159.7" font-family="Times,serif" font-size="14.00" fill="#000000">1</text>
<text text-anchor="middle" x="295.88" y="-143.2" font-family="Times,serif" font-size="14.00" fill="#000000">0x1031008d0</text>
</g>
<!-- node0x103100790&#45;&gt;node0x103100890 -->
<g id="edge1" class="edge">
<title>node0x103100790:left&#45;&gt;node0x103100890</title>
<path fill="none" stroke="#187ae8" stroke-width="2" d="M259.75,-271C259.75,-262.04 257.57,-253.26 254.09,-244.96"/>
<polygon fill="#187ae8" stroke="#187ae8" stroke-width="2" points="257.95,-244.86 250.39,-237.44 251.67,-247.95 257.95,-244.86"/>
</g>
<!-- node0x1031009d0 -->
<g id="node5" class="node">
<title>node0x1031009d0</title>
<path fill="#bdef9e" stroke="#99c2a2" d="M371,-136C371,-136 544.25,-136 544.25,-136 550.25,-136 556.25,-142 556.25,-148 556.25,-148 556.25,-222.5 556.25,-222.5 556.25,-228.5 550.25,-234.5 544.25,-234.5 544.25,-234.5 371,-234.5 371,-234.5 365,-234.5 359,-228.5 359,-222.5 359,-222.5 359,-148 359,-148 359,-142 365,-136 371,-136"/>
<text text-anchor="middle" x="457.62" y="-217.2" font-family="Times,serif" font-size="14.00" fill="#000000">2</text>
<text text-anchor="middle" x="457.62" y="-200.7" font-family="Times,serif" font-size="14.00" fill="#000000">0x1031009d0</text>
<polyline fill="none" stroke="#99c2a2" points="359,-193.5 556.25,-193.5"/>
<text text-anchor="middle" x="385.75" y="-176.2" font-family="Times,serif" font-size="14.00" fill="#000000">Left</text>
<text text-anchor="middle" x="385.75" y="-159.7" font-family="Times,serif" font-size="14.00" fill="#000000">NONE</text>
<text text-anchor="middle" x="385.75" y="-143.2" font-family="Times,serif" font-size="14.00" fill="#000000">0x0</text>
<polyline fill="none" stroke="#99c2a2" points="412.5,-136 412.5,-193.5"/>
<text text-anchor="middle" x="457.62" y="-176.2" font-family="Times,serif" font-size="14.00" fill="#000000">Parent</text>
<text text-anchor="middle" x="457.62" y="-159.7" font-family="Times,serif" font-size="14.00" fill="#000000">*</text>
<text text-anchor="middle" x="457.62" y="-143.2" font-family="Times,serif" font-size="14.00" fill="#000000">0x103100790</text>
<polyline fill="none" stroke="#99c2a2" points="502.75,-136 502.75,-193.5"/>
<text text-anchor="middle" x="529.5" y="-176.2" font-family="Times,serif" font-size="14.00" fill="#000000">Right</text>
<text text-anchor="middle" x="529.5" y="-159.7" font-family="Times,serif" font-size="14.00" fill="#000000">NONE</text>
<text text-anchor="middle" x="529.5" y="-143.2" font-family="Times,serif" font-size="14.00" fill="#000000">0x0</text>
</g>
<!-- node0x103100790&#45;&gt;node0x1031009d0 -->
<g id="edge4" class="edge">
<title>node0x103100790:right&#45;&gt;node0x1031009d0</title>
<path fill="none" stroke="#48e818" stroke-width="2" d="M403.5,-271C403.5,-262.04 405.68,-253.26 409.16,-244.96"/>
<polygon fill="#48e818" stroke="#48e818" stroke-width="2" points="411.58,-247.95 412.86,-237.44 405.3,-244.86 411.58,-247.95"/>
</g>
<!-- node0x103100990 -->
<g id="node3" class="node">
<title>node0x103100990</title>
<path fill="#d5cfe1" stroke="#8797b2" d="M12,-0.5C12,-0.5 185.25,-0.5 185.25,-0.5 191.25,-0.5 197.25,-6.5 197.25,-12.5 197.25,-12.5 197.25,-87 197.25,-87 197.25,-93 191.25,-99 185.25,-99 185.25,-99 12,-99 12,-99 6,-99 0,-93 0,-87 0,-87 0,-12.5 0,-12.5 0,-6.5 6,-0.5 12,-0.5"/>
<text text-anchor="middle" x="98.62" y="-81.7" font-family="Times,serif" font-size="14.00" fill="#000000">x</text>
<text text-anchor="middle" x="98.62" y="-65.2" font-family="Times,serif" font-size="14.00" fill="#000000">0x103100990</text>
<polyline fill="none" stroke="#8797b2" points="0,-58 197.25,-58"/>
<text text-anchor="middle" x="26.75" y="-40.7" font-family="Times,serif" font-size="14.00" fill="#000000">Left</text>
<text text-anchor="middle" x="26.75" y="-24.2" font-family="Times,serif" font-size="14.00" fill="#000000">NONE</text>
<text text-anchor="middle" x="26.75" y="-7.7" font-family="Times,serif" font-size="14.00" fill="#000000">0x0</text>
<polyline fill="none" stroke="#8797b2" points="53.5,-0.5 53.5,-58"/>
<text text-anchor="middle" x="98.62" y="-40.7" font-family="Times,serif" font-size="14.00" fill="#000000">Parent</text>
<text text-anchor="middle" x="98.62" y="-24.2" font-family="Times,serif" font-size="14.00" fill="#000000">^</text>
<text text-anchor="middle" x="98.62" y="-7.7" font-family="Times,serif" font-size="14.00" fill="#000000">0x103100890</text>
<polyline fill="none" stroke="#8797b2" points="143.75,-0.5 143.75,-58"/>
<text text-anchor="middle" x="170.5" y="-40.7" font-family="Times,serif" font-size="14.00" fill="#000000">Right</text>
<text text-anchor="middle" x="170.5" y="-24.2" font-family="Times,serif" font-size="14.00" fill="#000000">NONE</text>
<text text-anchor="middle" x="170.5" y="-7.7" font-family="Times,serif" font-size="14.00" fill="#000000">0x0</text>
</g>
<!-- node0x103100890&#45;&gt;node0x103100990 -->
<g id="edge2" class="edge">
<title>node0x103100890:left&#45;&gt;node0x103100990</title>
<path fill="none" stroke="#187ae8" stroke-width="2" d="M115.38,-135.5C115.38,-127.35 114.62,-118.85 113.43,-110.51"/>
<polygon fill="#187ae8" stroke="#187ae8" stroke-width="2" points="117.15,-111.56 112.07,-102.26 110.25,-112.7 117.15,-111.56"/>
</g>
<!-- node0x1031008d0 -->
<g id="node4" class="node">
<title>node0x1031008d0</title>
<path fill="#bdef9e" stroke="#99c2a2" d="M227,-0.5C227,-0.5 400.25,-0.5 400.25,-0.5 406.25,-0.5 412.25,-6.5 412.25,-12.5 412.25,-12.5 412.25,-87 412.25,-87 412.25,-93 406.25,-99 400.25,-99 400.25,-99 227,-99 227,-99 221,-99 215,-93 215,-87 215,-87 215,-12.5 215,-12.5 215,-6.5 221,-0.5 227,-0.5"/>
<text text-anchor="middle" x="313.62" y="-81.7" font-family="Times,serif" font-size="14.00" fill="#000000">1</text>
<text text-anchor="middle" x="313.62" y="-65.2" font-family="Times,serif" font-size="14.00" fill="#000000">0x1031008d0</text>
<polyline fill="none" stroke="#99c2a2" points="215,-58 412.25,-58"/>
<text text-anchor="middle" x="241.75" y="-40.7" font-family="Times,serif" font-size="14.00" fill="#000000">Left</text>
<text text-anchor="middle" x="241.75" y="-24.2" font-family="Times,serif" font-size="14.00" fill="#000000">NONE</text>
<text text-anchor="middle" x="241.75" y="-7.7" font-family="Times,serif" font-size="14.00" fill="#000000">0x0</text>
<polyline fill="none" stroke="#99c2a2" points="268.5,-0.5 268.5,-58"/>
<text text-anchor="middle" x="313.62" y="-40.7" font-family="Times,serif" font-size="14.00" fill="#000000">Parent</text>
<text text-anchor="middle" x="313.62" y="-24.2" font-family="Times,serif" font-size="14.00" fill="#000000">^</text>
<text text-anchor="middle" x="313.62" y="-7.7" font-family="Times,serif" font-size="14.00" fill="#000000">0x103100890</text>
<polyline fill="none" stroke="#99c2a2" points="358.75,-0.5 358.75,-58"/>
<text text-anchor="middle" x="385.5" y="-40.7" font-family="Times,serif" font-size="14.00" fill="#000000">Right</text>
<text text-anchor="middle" x="385.5" y="-24.2" font-family="Times,serif" font-size="14.00" fill="#000000">NONE</text>
<text text-anchor="middle" x="385.5" y="-7.7" font-family="Times,serif" font-size="14.00" fill="#000000">0x0</text>
</g>
<!-- node0x103100890&#45;&gt;node0x1031008d0 -->
<g id="edge3" class="edge">
<title>node0x103100890:right&#45;&gt;node0x1031008d0</title>
<path fill="none" stroke="#48e818" stroke-width="2" d="M295.88,-135.5C295.88,-127.34 296.67,-118.82 297.93,-110.47"/>
<polygon fill="#48e818" stroke="#48e818" stroke-width="2" points="301.1,-112.67 299.38,-102.22 294.21,-111.46 301.1,-112.67"/>
</g>
</g>
</svg>
