<?xml version="1.0" encoding="UTF-8" standalone="no"?>
<!DOCTYPE svg PUBLIC "-//W3C//DTD SVG 1.1//EN"
 "http://www.w3.org/Graphics/SVG/1.1/DTD/svg11.dtd">
<!-- Generated by graphviz version 12.2.0 (20241103.1931)
 -->
<!-- Pages: 1 -->
<svg width="633pt" height="785pt"
 viewBox="0.00 0.00 632.50 785.00" xmlns="http://www.w3.org/2000/svg" xmlns:xlink="http://www.w3.org/1999/xlink">
<g id="graph0" class="graph" transform="scale(1 1) rotate(0) translate(4 781)">
<polygon fill="#dcdcdc" stroke="none" points="-4,4 -4,-781 628.5,-781 628.5,4 -4,4"/>
<!-- node0x105900b90 -->
<g id="node1" class="node">
<title>node0x105900b90</title>
<path fill="#fbee21" stroke="#d3c70d" d="M440,-678C440,-678 612.5,-678 612.5,-678 618.5,-678 624.5,-684 624.5,-690 624.5,-690 624.5,-764.5 624.5,-764.5 624.5,-770.5 618.5,-776.5 612.5,-776.5 612.5,-776.5 440,-776.5 440,-776.5 434,-776.5 428,-770.5 428,-764.5 428,-764.5 428,-690 428,-690 428,-684 434,-678 440,-678"/>
<text text-anchor="middle" x="526.25" y="-759.2" font-family="Times,serif" font-size="14.00" fill="#000000">sin</text>
<text text-anchor="middle" x="526.25" y="-742.7" font-family="Times,serif" font-size="14.00" fill="#000000">0x105900b90</text>
<polyline fill="none" stroke="#d3c70d" points="428,-735.5 624.5,-735.5"/>
<text text-anchor="middle" x="472.75" y="-718.2" font-family="Times,serif" font-size="14.00" fill="#000000">Left</text>
<text text-anchor="middle" x="472.75" y="-701.7" font-family="Times,serif" font-size="14.00" fill="#000000">/</text>
<text text-anchor="middle" x="472.75" y="-685.2" font-family="Times,serif" font-size="14.00" fill="#000000">0x105900a10</text>
<polyline fill="none" stroke="#d3c70d" points="517.5,-678 517.5,-735.5"/>
<text text-anchor="middle" x="544.25" y="-718.2" font-family="Times,serif" font-size="14.00" fill="#000000">Parent</text>
<text text-anchor="middle" x="544.25" y="-701.7" font-family="Times,serif" font-size="14.00" fill="#000000">NONE</text>
<text text-anchor="middle" x="544.25" y="-685.2" font-family="Times,serif" font-size="14.00" fill="#000000">0x0</text>
<polyline fill="none" stroke="#d3c70d" points="571,-678 571,-735.5"/>
<text text-anchor="middle" x="597.75" y="-718.2" font-family="Times,serif" font-size="14.00" fill="#000000">Right</text>
<text text-anchor="middle" x="597.75" y="-701.7" font-family="Times,serif" font-size="14.00" fill="#000000">NONE</text>
<text text-anchor="middle" x="597.75" y="-685.2" font-family="Times,serif" font-size="14.00" fill="#000000">0x0</text>
</g>
<!-- node0x105900a10 -->
<g id="node2" class="node">
<title>node0x105900a10</title>
<path fill="#fbee21" stroke="#d3c70d" d="M368.25,-542.5C368.25,-542.5 578.25,-542.5 578.25,-542.5 584.25,-542.5 590.25,-548.5 590.25,-554.5 590.25,-554.5 590.25,-629 590.25,-629 590.25,-635 584.25,-641 578.25,-641 578.25,-641 368.25,-641 368.25,-641 362.25,-641 356.25,-635 356.25,-629 356.25,-629 356.25,-554.5 356.25,-554.5 356.25,-548.5 362.25,-542.5 368.25,-542.5"/>
<text text-anchor="middle" x="473.25" y="-623.7" font-family="Times,serif" font-size="14.00" fill="#000000">/</text>
<text text-anchor="middle" x="473.25" y="-607.2" font-family="Times,serif" font-size="14.00" fill="#000000">0x105900a10</text>
<polyline fill="none" stroke="#d3c70d" points="356.25,-600 590.25,-600"/>
<text text-anchor="middle" x="401.38" y="-582.7" font-family="Times,serif" font-size="14.00" fill="#000000">Left</text>
<text text-anchor="middle" x="401.38" y="-566.2" font-family="Times,serif" font-size="14.00" fill="#000000">*</text>
<text text-anchor="middle" x="401.38" y="-549.7" font-family="Times,serif" font-size="14.00" fill="#000000">0x105900910</text>
<polyline fill="none" stroke="#d3c70d" points="446.5,-542.5 446.5,-600"/>
<text text-anchor="middle" x="491.62" y="-582.7" font-family="Times,serif" font-size="14.00" fill="#000000">Parent</text>
<text text-anchor="middle" x="491.62" y="-566.2" font-family="Times,serif" font-size="14.00" fill="#000000">sin</text>
<text text-anchor="middle" x="491.62" y="-549.7" font-family="Times,serif" font-size="14.00" fill="#000000">0x105900b90</text>
<polyline fill="none" stroke="#d3c70d" points="536.75,-542.5 536.75,-600"/>
<text text-anchor="middle" x="563.5" y="-582.7" font-family="Times,serif" font-size="14.00" fill="#000000">Right</text>
<text text-anchor="middle" x="563.5" y="-566.2" font-family="Times,serif" font-size="14.00" fill="#000000">NONE</text>
<text text-anchor="middle" x="563.5" y="-549.7" font-family="Times,serif" font-size="14.00" fill="#000000">0x0</text>
</g>
<!-- node0x105900b90&#45;&gt;node0x105900a10 -->
<g id="edge1" class="edge">
<title>node0x105900b90:left&#45;&gt;node0x105900a10</title>
<path fill="none" stroke="#187ae8" stroke-width="2" d="M472.75,-677.5C472.75,-669.41 472.77,-660.88 472.81,-652.48"/>
<polygon fill="#187ae8" stroke="#187ae8" stroke-width="2" points="476.3,-654.2 472.85,-644.18 469.3,-654.16 476.3,-654.2"/>
</g>
<!-- node0x105900910 -->
<g id="node3" class="node">
<title>node0x105900910</title>
<path fill="#f18805" stroke="#af3800" d="M297.62,-407C297.62,-407 506.88,-407 506.88,-407 512.88,-407 518.88,-413 518.88,-419 518.88,-419 518.88,-493.5 518.88,-493.5 518.88,-499.5 512.88,-505.5 506.88,-505.5 506.88,-505.5 297.62,-505.5 297.62,-505.5 291.62,-505.5 285.62,-499.5 285.62,-493.5 285.62,-493.5 285.62,-419 285.62,-419 285.62,-413 291.62,-407 297.62,-407"/>
<text text-anchor="middle" x="402.25" y="-488.2" font-family="Times,serif" font-size="14.00" fill="#000000">*</text>
<text text-anchor="middle" x="402.25" y="-471.7" font-family="Times,serif" font-size="14.00" fill="#000000">0x105900910</text>
<polyline fill="none" stroke="#af3800" points="285.62,-464.5 518.88,-464.5"/>
<text text-anchor="middle" x="330.75" y="-447.2" font-family="Times,serif" font-size="14.00" fill="#000000">Left</text>
<text text-anchor="middle" x="330.75" y="-430.7" font-family="Times,serif" font-size="14.00" fill="#000000">^</text>
<text text-anchor="middle" x="330.75" y="-414.2" font-family="Times,serif" font-size="14.00" fill="#000000">0x105900990</text>
<polyline fill="none" stroke="#af3800" points="375.88,-407 375.88,-464.5"/>
<text text-anchor="middle" x="420.62" y="-447.2" font-family="Times,serif" font-size="14.00" fill="#000000">Parent</text>
<text text-anchor="middle" x="420.62" y="-430.7" font-family="Times,serif" font-size="14.00" fill="#000000">/</text>
<text text-anchor="middle" x="420.62" y="-414.2" font-family="Times,serif" font-size="14.00" fill="#000000">0x105900a10</text>
<polyline fill="none" stroke="#af3800" points="465.38,-407 465.38,-464.5"/>
<text text-anchor="middle" x="492.12" y="-447.2" font-family="Times,serif" font-size="14.00" fill="#000000">Right</text>
<text text-anchor="middle" x="492.12" y="-430.7" font-family="Times,serif" font-size="14.00" fill="#000000">NONE</text>
<text text-anchor="middle" x="492.12" y="-414.2" font-family="Times,serif" font-size="14.00" fill="#000000">0x0</text>
</g>
<!-- node0x105900a10&#45;&gt;node0x105900910 -->
<g id="edge2" class="edge">
<title>node0x105900a10:left&#45;&gt;node0x105900910</title>
<path fill="none" stroke="#187ae8" stroke-width="2" d="M401.38,-542C401.38,-533.91 401.42,-525.38 401.48,-516.98"/>
<polygon fill="#187ae8" stroke="#187ae8" stroke-width="2" points="404.96,-518.71 401.55,-508.68 397.96,-518.65 404.96,-518.71"/>
</g>
<!-- node0x105900990 -->
<g id="node4" class="node">
<title>node0x105900990</title>
<path fill="#fbee21" stroke="#d3c70d" d="M208.25,-271.5C208.25,-271.5 454.25,-271.5 454.25,-271.5 460.25,-271.5 466.25,-277.5 466.25,-283.5 466.25,-283.5 466.25,-358 466.25,-358 466.25,-364 460.25,-370 454.25,-370 454.25,-370 208.25,-370 208.25,-370 202.25,-370 196.25,-364 196.25,-358 196.25,-358 196.25,-283.5 196.25,-283.5 196.25,-277.5 202.25,-271.5 208.25,-271.5"/>
<text text-anchor="middle" x="331.25" y="-352.7" font-family="Times,serif" font-size="14.00" fill="#000000">^</text>
<text text-anchor="middle" x="331.25" y="-336.2" font-family="Times,serif" font-size="14.00" fill="#000000">0x105900990</text>
<polyline fill="none" stroke="#d3c70d" points="196.25,-329 466.25,-329"/>
<text text-anchor="middle" x="241" y="-311.7" font-family="Times,serif" font-size="14.00" fill="#000000">Left</text>
<text text-anchor="middle" x="241" y="-295.2" font-family="Times,serif" font-size="14.00" fill="#000000">+</text>
<text text-anchor="middle" x="241" y="-278.7" font-family="Times,serif" font-size="14.00" fill="#000000">0x105900a90</text>
<polyline fill="none" stroke="#d3c70d" points="285.75,-271.5 285.75,-329"/>
<text text-anchor="middle" x="330.88" y="-311.7" font-family="Times,serif" font-size="14.00" fill="#000000">Parent</text>
<text text-anchor="middle" x="330.88" y="-295.2" font-family="Times,serif" font-size="14.00" fill="#000000">*</text>
<text text-anchor="middle" x="330.88" y="-278.7" font-family="Times,serif" font-size="14.00" fill="#000000">0x105900910</text>
<polyline fill="none" stroke="#d3c70d" points="376,-271.5 376,-329"/>
<text text-anchor="middle" x="421.12" y="-311.7" font-family="Times,serif" font-size="14.00" fill="#000000">Right</text>
<text text-anchor="middle" x="421.12" y="-295.2" font-family="Times,serif" font-size="14.00" fill="#000000">x</text>
<text text-anchor="middle" x="421.12" y="-278.7" font-family="Times,serif" font-size="14.00" fill="#000000">0x105900950</text>
</g>
<!-- node0x105900910&#45;&gt;node0x105900990 -->
<g id="edge3" class="edge">
<title>node0x105900910:left&#45;&gt;node0x105900990</title>
<path fill="none" stroke="#187ae8" stroke-width="2" d="M330.75,-406.5C330.75,-398.41 330.77,-389.88 330.81,-381.48"/>
<polygon fill="#187ae8" stroke="#187ae8" stroke-width="2" points="334.3,-383.2 330.85,-373.18 327.3,-383.16 334.3,-383.2"/>
</g>
<!-- node0x105900a90 -->
<g id="node5" class="node">
<title>node0x105900a90</title>
<path fill="#fbee21" stroke="#d3c70d" d="M82.62,-136C82.62,-136 327.88,-136 327.88,-136 333.88,-136 339.88,-142 339.88,-148 339.88,-148 339.88,-222.5 339.88,-222.5 339.88,-228.5 333.88,-234.5 327.88,-234.5 327.88,-234.5 82.62,-234.5 82.62,-234.5 76.62,-234.5 70.62,-228.5 70.62,-222.5 70.62,-222.5 70.62,-148 70.62,-148 70.62,-142 76.62,-136 82.62,-136"/>
<text text-anchor="middle" x="205.25" y="-217.2" font-family="Times,serif" font-size="14.00" fill="#000000">+</text>
<text text-anchor="middle" x="205.25" y="-200.7" font-family="Times,serif" font-size="14.00" fill="#000000">0x105900a90</text>
<polyline fill="none" stroke="#d3c70d" points="70.62,-193.5 339.88,-193.5"/>
<text text-anchor="middle" x="115.38" y="-176.2" font-family="Times,serif" font-size="14.00" fill="#000000">Left</text>
<text text-anchor="middle" x="115.38" y="-159.7" font-family="Times,serif" font-size="14.00" fill="#000000">1</text>
<text text-anchor="middle" x="115.38" y="-143.2" font-family="Times,serif" font-size="14.00" fill="#000000">0x105900ad0</text>
<polyline fill="none" stroke="#d3c70d" points="160.12,-136 160.12,-193.5"/>
<text text-anchor="middle" x="205.25" y="-176.2" font-family="Times,serif" font-size="14.00" fill="#000000">Parent</text>
<text text-anchor="middle" x="205.25" y="-159.7" font-family="Times,serif" font-size="14.00" fill="#000000">^</text>
<text text-anchor="middle" x="205.25" y="-143.2" font-family="Times,serif" font-size="14.00" fill="#000000">0x105900990</text>
<polyline fill="none" stroke="#d3c70d" points="250.38,-136 250.38,-193.5"/>
<text text-anchor="middle" x="295.12" y="-176.2" font-family="Times,serif" font-size="14.00" fill="#000000">Right</text>
<text text-anchor="middle" x="295.12" y="-159.7" font-family="Times,serif" font-size="14.00" fill="#000000">x</text>
<text text-anchor="middle" x="295.12" y="-143.2" font-family="Times,serif" font-size="14.00" fill="#000000">0x105900a50</text>
</g>
<!-- node0x105900990&#45;&gt;node0x105900a90 -->
<g id="edge4" class="edge">
<title>node0x105900990:left&#45;&gt;node0x105900a90</title>
<path fill="none" stroke="#187ae8" stroke-width="2" d="M241,-271C241,-262.45 239.44,-253.77 236.96,-245.39"/>
<polygon fill="#187ae8" stroke="#187ae8" stroke-width="2" points="240.79,-245.75 234.23,-237.44 234.17,-248.03 240.79,-245.75"/>
</g>
<!-- node0x105900950 -->
<g id="node8" class="node">
<title>node0x105900950</title>
<path fill="#d5cfe1" stroke="#8797b2" d="M369.62,-136C369.62,-136 542.88,-136 542.88,-136 548.88,-136 554.88,-142 554.88,-148 554.88,-148 554.88,-222.5 554.88,-222.5 554.88,-228.5 548.88,-234.5 542.88,-234.5 542.88,-234.5 369.62,-234.5 369.62,-234.5 363.62,-234.5 357.62,-228.5 357.62,-222.5 357.62,-222.5 357.62,-148 357.62,-148 357.62,-142 363.62,-136 369.62,-136"/>
<text text-anchor="middle" x="456.25" y="-217.2" font-family="Times,serif" font-size="14.00" fill="#000000">x</text>
<text text-anchor="middle" x="456.25" y="-200.7" font-family="Times,serif" font-size="14.00" fill="#000000">0x105900950</text>
<polyline fill="none" stroke="#8797b2" points="357.62,-193.5 554.88,-193.5"/>
<text text-anchor="middle" x="384.38" y="-176.2" font-family="Times,serif" font-size="14.00" fill="#000000">Left</text>
<text text-anchor="middle" x="384.38" y="-159.7" font-family="Times,serif" font-size="14.00" fill="#000000">NONE</text>
<text text-anchor="middle" x="384.38" y="-143.2" font-family="Times,serif" font-size="14.00" fill="#000000">0x0</text>
<polyline fill="none" stroke="#8797b2" points="411.12,-136 411.12,-193.5"/>
<text text-anchor="middle" x="456.25" y="-176.2" font-family="Times,serif" font-size="14.00" fill="#000000">Parent</text>
<text text-anchor="middle" x="456.25" y="-159.7" font-family="Times,serif" font-size="14.00" fill="#000000">^</text>
<text text-anchor="middle" x="456.25" y="-143.2" font-family="Times,serif" font-size="14.00" fill="#000000">0x105900990</text>
<polyline fill="none" stroke="#8797b2" points="501.38,-136 501.38,-193.5"/>
<text text-anchor="middle" x="528.12" y="-176.2" font-family="Times,serif" font-size="14.00" fill="#000000">Right</text>
<text text-anchor="middle" x="528.12" y="-159.7" font-family="Times,serif" font-size="14.00" fill="#000000">NONE</text>
<text text-anchor="middle" x="528.12" y="-143.2" font-family="Times,serif" font-size="14.00" fill="#000000">0x0</text>
</g>
<!-- node0x105900990&#45;&gt;node0x105900950 -->
<g id="edge7" class="edge">
<title>node0x105900990:right&#45;&gt;node0x105900950</title>
<path fill="none" stroke="#48e818" stroke-width="2" d="M421.12,-271C421.12,-262.47 422.66,-253.81 425.09,-245.43"/>
<polygon fill="#48e818" stroke="#48e818" stroke-width="2" points="427.89,-248.08 427.78,-237.49 421.26,-245.84 427.89,-248.08"/>
</g>
<!-- node0x105900ad0 -->
<g id="node6" class="node">
<title>node0x105900ad0</title>
<path fill="#bdef9e" stroke="#99c2a2" d="M12,-0.5C12,-0.5 184.5,-0.5 184.5,-0.5 190.5,-0.5 196.5,-6.5 196.5,-12.5 196.5,-12.5 196.5,-87 196.5,-87 196.5,-93 190.5,-99 184.5,-99 184.5,-99 12,-99 12,-99 6,-99 0,-93 0,-87 0,-87 0,-12.5 0,-12.5 0,-6.5 6,-0.5 12,-0.5"/>
<text text-anchor="middle" x="98.25" y="-81.7" font-family="Times,serif" font-size="14.00" fill="#000000">1</text>
<text text-anchor="middle" x="98.25" y="-65.2" font-family="Times,serif" font-size="14.00" fill="#000000">0x105900ad0</text>
<polyline fill="none" stroke="#99c2a2" points="0,-58 196.5,-58"/>
<text text-anchor="middle" x="26.75" y="-40.7" font-family="Times,serif" font-size="14.00" fill="#000000">Left</text>
<text text-anchor="middle" x="26.75" y="-24.2" font-family="Times,serif" font-size="14.00" fill="#000000">NONE</text>
<text text-anchor="middle" x="26.75" y="-7.7" font-family="Times,serif" font-size="14.00" fill="#000000">0x0</text>
<polyline fill="none" stroke="#99c2a2" points="53.5,-0.5 53.5,-58"/>
<text text-anchor="middle" x="98.25" y="-40.7" font-family="Times,serif" font-size="14.00" fill="#000000">Parent</text>
<text text-anchor="middle" x="98.25" y="-24.2" font-family="Times,serif" font-size="14.00" fill="#000000">+</text>
<text text-anchor="middle" x="98.25" y="-7.7" font-family="Times,serif" font-size="14.00" fill="#000000">0x105900a90</text>
<polyline fill="none" stroke="#99c2a2" points="143,-0.5 143,-58"/>
<text text-anchor="middle" x="169.75" y="-40.7" font-family="Times,serif" font-size="14.00" fill="#000000">Right</text>
<text text-anchor="middle" x="169.75" y="-24.2" font-family="Times,serif" font-size="14.00" fill="#000000">NONE</text>
<text text-anchor="middle" x="169.75" y="-7.7" font-family="Times,serif" font-size="14.00" fill="#000000">0x0</text>
</g>
<!-- node0x105900a90&#45;&gt;node0x105900ad0 -->
<g id="edge5" class="edge">
<title>node0x105900a90:left&#45;&gt;node0x105900ad0</title>
<path fill="none" stroke="#187ae8" stroke-width="2" d="M115.38,-135.5C115.38,-127.35 114.6,-118.84 113.39,-110.49"/>
<polygon fill="#187ae8" stroke="#187ae8" stroke-width="2" points="117.11,-111.52 111.99,-102.25 110.21,-112.69 117.11,-111.52"/>
</g>
<!-- node0x105900a50 -->
<g id="node7" class="node">
<title>node0x105900a50</title>
<path fill="#d5cfe1" stroke="#8797b2" d="M227,-0.5C227,-0.5 399.5,-0.5 399.5,-0.5 405.5,-0.5 411.5,-6.5 411.5,-12.5 411.5,-12.5 411.5,-87 411.5,-87 411.5,-93 405.5,-99 399.5,-99 399.5,-99 227,-99 227,-99 221,-99 215,-93 215,-87 215,-87 215,-12.5 215,-12.5 215,-6.5 221,-0.5 227,-0.5"/>
<text text-anchor="middle" x="313.25" y="-81.7" font-family="Times,serif" font-size="14.00" fill="#000000">x</text>
<text text-anchor="middle" x="313.25" y="-65.2" font-family="Times,serif" font-size="14.00" fill="#000000">0x105900a50</text>
<polyline fill="none" stroke="#8797b2" points="215,-58 411.5,-58"/>
<text text-anchor="middle" x="241.75" y="-40.7" font-family="Times,serif" font-size="14.00" fill="#000000">Left</text>
<text text-anchor="middle" x="241.75" y="-24.2" font-family="Times,serif" font-size="14.00" fill="#000000">NONE</text>
<text text-anchor="middle" x="241.75" y="-7.7" font-family="Times,serif" font-size="14.00" fill="#000000">0x0</text>
<polyline fill="none" stroke="#8797b2" points="268.5,-0.5 268.5,-58"/>
<text text-anchor="middle" x="313.25" y="-40.7" font-family="Times,serif" font-size="14.00" fill="#000000">Parent</text>
<text text-anchor="middle" x="313.25" y="-24.2" font-family="Times,serif" font-size="14.00" fill="#000000">+</text>
<text text-anchor="middle" x="313.25" y="-7.7" font-family="Times,serif" font-size="14.00" fill="#000000">0x105900a90</text>
<polyline fill="none" stroke="#8797b2" points="358,-0.5 358,-58"/>
<text text-anchor="middle" x="384.75" y="-40.7" font-family="Times,serif" font-size="14.00" fill="#000000">Right</text>
<text text-anchor="middle" x="384.75" y="-24.2" font-family="Times,serif" font-size="14.00" fill="#000000">NONE</text>
<text text-anchor="middle" x="384.75" y="-7.7" font-family="Times,serif" font-size="14.00" fill="#000000">0x0</text>
</g>
<!-- node0x105900a90&#45;&gt;node0x105900a50 -->
<g id="edge6" class="edge">
<title>node0x105900a90:right&#45;&gt;node0x105900a50</title>
<path fill="none" stroke="#48e818" stroke-width="2" d="M295.12,-135.5C295.12,-127.33 295.94,-118.81 297.23,-110.46"/>
<polygon fill="#48e818" stroke="#48e818" stroke-width="2" points="300.39,-112.66 298.7,-102.2 293.5,-111.43 300.39,-112.66"/>
</g>
</g>
</svg>
