<?xml version="1.0" encoding="UTF-8" standalone="no"?>
<!DOCTYPE svg PUBLIC "-//W3C//DTD SVG 1.1//EN"
 "http://www.w3.org/Graphics/SVG/1.1/DTD/svg11.dtd">
<!-- Generated by graphviz version 12.2.0 (20241103.1931)
 -->
<!-- Pages: 1 -->
<svg width="690pt" height="785pt"
 viewBox="0.00 0.00 690.25 785.00" xmlns="http://www.w3.org/2000/svg" xmlns:xlink="http://www.w3.org/1999/xlink">
<g id="graph0" class="graph" transform="scale(1 1) rotate(0) translate(4 781)">
<polygon fill="#dcdcdc" stroke="none" points="-4,4 -4,-781 686.25,-781 686.25,4 -4,4"/>
<!-- node0x103100790 -->
<g id="node1" class="node">
<title>node0x103100790</title>
<path fill="#f18805" stroke="#af3800" d="M120,-678C120,-678 329.25,-678 329.25,-678 335.25,-678 341.25,-684 341.25,-690 341.25,-690 341.25,-764.5 341.25,-764.5 341.25,-770.5 335.25,-776.5 329.25,-776.5 329.25,-776.5 120,-776.5 120,-776.5 114,-776.5 108,-770.5 108,-764.5 108,-764.5 108,-690 108,-690 108,-684 114,-678 120,-678"/>
<text text-anchor="middle" x="224.62" y="-759.2" font-family="Times,serif" font-size="14.00" fill="#000000">+</text>
<text text-anchor="middle" x="224.62" y="-742.7" font-family="Times,serif" font-size="14.00" fill="#000000">0x103100790</text>
<polyline fill="none" stroke="#af3800" points="108,-735.5 341.25,-735.5"/>
<text text-anchor="middle" x="152.75" y="-718.2" font-family="Times,serif" font-size="14.00" fill="#000000">Left</text>
<text text-anchor="middle" x="152.75" y="-701.7" font-family="Times,serif" font-size="14.00" fill="#000000">0</text>
<text text-anchor="middle" x="152.75" y="-685.2" font-family="Times,serif" font-size="14.00" fill="#000000">0x103100a10</text>
<polyline fill="none" stroke="#af3800" points="197.5,-678 197.5,-735.5"/>
<text text-anchor="middle" x="224.25" y="-718.2" font-family="Times,serif" font-size="14.00" fill="#000000">Parent</text>
<text text-anchor="middle" x="224.25" y="-701.7" font-family="Times,serif" font-size="14.00" fill="#000000">NONE</text>
<text text-anchor="middle" x="224.25" y="-685.2" font-family="Times,serif" font-size="14.00" fill="#000000">0x0</text>
<polyline fill="none" stroke="#af3800" points="251,-678 251,-735.5"/>
<text text-anchor="middle" x="296.12" y="-718.2" font-family="Times,serif" font-size="14.00" fill="#000000">Right</text>
<text text-anchor="middle" x="296.12" y="-701.7" font-family="Times,serif" font-size="14.00" fill="#000000">*</text>
<text text-anchor="middle" x="296.12" y="-685.2" font-family="Times,serif" font-size="14.00" fill="#000000">0x1031007d0</text>
</g>
<!-- node0x103100a10 -->
<g id="node2" class="node">
<title>node0x103100a10</title>
<path fill="#bdef9e" stroke="#99c2a2" d="M12,-542.5C12,-542.5 185.25,-542.5 185.25,-542.5 191.25,-542.5 197.25,-548.5 197.25,-554.5 197.25,-554.5 197.25,-629 197.25,-629 197.25,-635 191.25,-641 185.25,-641 185.25,-641 12,-641 12,-641 6,-641 0,-635 0,-629 0,-629 0,-554.5 0,-554.5 0,-548.5 6,-542.5 12,-542.5"/>
<text text-anchor="middle" x="98.62" y="-623.7" font-family="Times,serif" font-size="14.00" fill="#000000">0</text>
<text text-anchor="middle" x="98.62" y="-607.2" font-family="Times,serif" font-size="14.00" fill="#000000">0x103100a10</text>
<polyline fill="none" stroke="#99c2a2" points="0,-600 197.25,-600"/>
<text text-anchor="middle" x="26.75" y="-582.7" font-family="Times,serif" font-size="14.00" fill="#000000">Left</text>
<text text-anchor="middle" x="26.75" y="-566.2" font-family="Times,serif" font-size="14.00" fill="#000000">NONE</text>
<text text-anchor="middle" x="26.75" y="-549.7" font-family="Times,serif" font-size="14.00" fill="#000000">0x0</text>
<polyline fill="none" stroke="#99c2a2" points="53.5,-542.5 53.5,-600"/>
<text text-anchor="middle" x="98.62" y="-582.7" font-family="Times,serif" font-size="14.00" fill="#000000">Parent</text>
<text text-anchor="middle" x="98.62" y="-566.2" font-family="Times,serif" font-size="14.00" fill="#000000">+</text>
<text text-anchor="middle" x="98.62" y="-549.7" font-family="Times,serif" font-size="14.00" fill="#000000">0x103100790</text>
<polyline fill="none" stroke="#99c2a2" points="143.75,-542.5 143.75,-600"/>
<text text-anchor="middle" x="170.5" y="-582.7" font-family="Times,serif" font-size="14.00" fill="#000000">Right</text>
<text text-anchor="middle" x="170.5" y="-566.2" font-family="Times,serif" font-size="14.00" fill="#000000">NONE</text>
<text text-anchor="middle" x="170.5" y="-549.7" font-family="Times,serif" font-size="14.00" fill="#000000">0x0</text>
</g>
<!-- node0x103100790&#45;&gt;node0x103100a10 -->
<g id="edge1" class="edge">
<title>node0x103100790:left&#45;&gt;node0x103100a10</title>
<path fill="none" stroke="#187ae8" stroke-width="2" d="M152.75,-677.5C152.75,-668.54 150.57,-659.76 147.09,-651.46"/>
<polygon fill="#187ae8" stroke="#187ae8" stroke-width="2" points="150.95,-651.36 143.39,-643.94 144.67,-654.45 150.95,-651.36"/>
</g>
<!-- node0x1031007d0 -->
<g id="node3" class="node">
<title>node0x1031007d0</title>
<path fill="#fbee21" stroke="#d3c70d" d="M227.25,-542.5C227.25,-542.5 474,-542.5 474,-542.5 480,-542.5 486,-548.5 486,-554.5 486,-554.5 486,-629 486,-629 486,-635 480,-641 474,-641 474,-641 227.25,-641 227.25,-641 221.25,-641 215.25,-635 215.25,-629 215.25,-629 215.25,-554.5 215.25,-554.5 215.25,-548.5 221.25,-542.5 227.25,-542.5"/>
<text text-anchor="middle" x="350.62" y="-623.7" font-family="Times,serif" font-size="14.00" fill="#000000">*</text>
<text text-anchor="middle" x="350.62" y="-607.2" font-family="Times,serif" font-size="14.00" fill="#000000">0x1031007d0</text>
<polyline fill="none" stroke="#d3c70d" points="215.25,-600 486,-600"/>
<text text-anchor="middle" x="260.38" y="-582.7" font-family="Times,serif" font-size="14.00" fill="#000000">Left</text>
<text text-anchor="middle" x="260.38" y="-566.2" font-family="Times,serif" font-size="14.00" fill="#000000">*</text>
<text text-anchor="middle" x="260.38" y="-549.7" font-family="Times,serif" font-size="14.00" fill="#000000">0x103100850</text>
<polyline fill="none" stroke="#d3c70d" points="305.5,-542.5 305.5,-600"/>
<text text-anchor="middle" x="350.62" y="-582.7" font-family="Times,serif" font-size="14.00" fill="#000000">Parent</text>
<text text-anchor="middle" x="350.62" y="-566.2" font-family="Times,serif" font-size="14.00" fill="#000000">+</text>
<text text-anchor="middle" x="350.62" y="-549.7" font-family="Times,serif" font-size="14.00" fill="#000000">0x103100790</text>
<polyline fill="none" stroke="#d3c70d" points="395.75,-542.5 395.75,-600"/>
<text text-anchor="middle" x="440.88" y="-582.7" font-family="Times,serif" font-size="14.00" fill="#000000">Right</text>
<text text-anchor="middle" x="440.88" y="-566.2" font-family="Times,serif" font-size="14.00" fill="#000000">1</text>
<text text-anchor="middle" x="440.88" y="-549.7" font-family="Times,serif" font-size="14.00" fill="#000000">0x103100810</text>
</g>
<!-- node0x103100790&#45;&gt;node0x1031007d0 -->
<g id="edge10" class="edge">
<title>node0x103100790:right&#45;&gt;node0x1031007d0</title>
<path fill="none" stroke="#48e818" stroke-width="2" d="M296.12,-677.5C296.12,-668.52 298.32,-659.74 301.82,-651.43"/>
<polygon fill="#48e818" stroke="#48e818" stroke-width="2" points="304.25,-654.41 305.55,-643.89 297.98,-651.3 304.25,-654.41"/>
</g>
<!-- node0x103100850 -->
<g id="node4" class="node">
<title>node0x103100850</title>
<path fill="#fbee21" stroke="#d3c70d" d="M101.25,-407C101.25,-407 348,-407 348,-407 354,-407 360,-413 360,-419 360,-419 360,-493.5 360,-493.5 360,-499.5 354,-505.5 348,-505.5 348,-505.5 101.25,-505.5 101.25,-505.5 95.25,-505.5 89.25,-499.5 89.25,-493.5 89.25,-493.5 89.25,-419 89.25,-419 89.25,-413 95.25,-407 101.25,-407"/>
<text text-anchor="middle" x="224.62" y="-488.2" font-family="Times,serif" font-size="14.00" fill="#000000">*</text>
<text text-anchor="middle" x="224.62" y="-471.7" font-family="Times,serif" font-size="14.00" fill="#000000">0x103100850</text>
<polyline fill="none" stroke="#d3c70d" points="89.25,-464.5 360,-464.5"/>
<text text-anchor="middle" x="134.38" y="-447.2" font-family="Times,serif" font-size="14.00" fill="#000000">Left</text>
<text text-anchor="middle" x="134.38" y="-430.7" font-family="Times,serif" font-size="14.00" fill="#000000">2</text>
<text text-anchor="middle" x="134.38" y="-414.2" font-family="Times,serif" font-size="14.00" fill="#000000">0x1031009d0</text>
<polyline fill="none" stroke="#d3c70d" points="179.5,-407 179.5,-464.5"/>
<text text-anchor="middle" x="224.62" y="-447.2" font-family="Times,serif" font-size="14.00" fill="#000000">Parent</text>
<text text-anchor="middle" x="224.62" y="-430.7" font-family="Times,serif" font-size="14.00" fill="#000000">*</text>
<text text-anchor="middle" x="224.62" y="-414.2" font-family="Times,serif" font-size="14.00" fill="#000000">0x1031007d0</text>
<polyline fill="none" stroke="#d3c70d" points="269.75,-407 269.75,-464.5"/>
<text text-anchor="middle" x="314.88" y="-447.2" font-family="Times,serif" font-size="14.00" fill="#000000">Right</text>
<text text-anchor="middle" x="314.88" y="-430.7" font-family="Times,serif" font-size="14.00" fill="#000000">^</text>
<text text-anchor="middle" x="314.88" y="-414.2" font-family="Times,serif" font-size="14.00" fill="#000000">0x103100890</text>
</g>
<!-- node0x1031007d0&#45;&gt;node0x103100850 -->
<g id="edge2" class="edge">
<title>node0x1031007d0:left&#45;&gt;node0x103100850</title>
<path fill="none" stroke="#187ae8" stroke-width="2" d="M260.38,-542C260.38,-533.45 258.81,-524.77 256.34,-516.39"/>
<polygon fill="#187ae8" stroke="#187ae8" stroke-width="2" points="260.17,-516.75 253.6,-508.44 253.55,-519.03 260.17,-516.75"/>
</g>
<!-- node0x103100810 -->
<g id="node11" class="node">
<title>node0x103100810</title>
<path fill="#bdef9e" stroke="#99c2a2" d="M390,-407C390,-407 563.25,-407 563.25,-407 569.25,-407 575.25,-413 575.25,-419 575.25,-419 575.25,-493.5 575.25,-493.5 575.25,-499.5 569.25,-505.5 563.25,-505.5 563.25,-505.5 390,-505.5 390,-505.5 384,-505.5 378,-499.5 378,-493.5 378,-493.5 378,-419 378,-419 378,-413 384,-407 390,-407"/>
<text text-anchor="middle" x="476.62" y="-488.2" font-family="Times,serif" font-size="14.00" fill="#000000">1</text>
<text text-anchor="middle" x="476.62" y="-471.7" font-family="Times,serif" font-size="14.00" fill="#000000">0x103100810</text>
<polyline fill="none" stroke="#99c2a2" points="378,-464.5 575.25,-464.5"/>
<text text-anchor="middle" x="404.75" y="-447.2" font-family="Times,serif" font-size="14.00" fill="#000000">Left</text>
<text text-anchor="middle" x="404.75" y="-430.7" font-family="Times,serif" font-size="14.00" fill="#000000">NONE</text>
<text text-anchor="middle" x="404.75" y="-414.2" font-family="Times,serif" font-size="14.00" fill="#000000">0x0</text>
<polyline fill="none" stroke="#99c2a2" points="431.5,-407 431.5,-464.5"/>
<text text-anchor="middle" x="476.62" y="-447.2" font-family="Times,serif" font-size="14.00" fill="#000000">Parent</text>
<text text-anchor="middle" x="476.62" y="-430.7" font-family="Times,serif" font-size="14.00" fill="#000000">*</text>
<text text-anchor="middle" x="476.62" y="-414.2" font-family="Times,serif" font-size="14.00" fill="#000000">0x1031007d0</text>
<polyline fill="none" stroke="#99c2a2" points="521.75,-407 521.75,-464.5"/>
<text text-anchor="middle" x="548.5" y="-447.2" font-family="Times,serif" font-size="14.00" fill="#000000">Right</text>
<text text-anchor="middle" x="548.5" y="-430.7" font-family="Times,serif" font-size="14.00" fill="#000000">NONE</text>
<text text-anchor="middle" x="548.5" y="-414.2" font-family="Times,serif" font-size="14.00" fill="#000000">0x0</text>
</g>
<!-- node0x1031007d0&#45;&gt;node0x103100810 -->
<g id="edge9" class="edge">
<title>node0x1031007d0:right&#45;&gt;node0x103100810</title>
<path fill="none" stroke="#48e818" stroke-width="2" d="M440.88,-542C440.88,-533.45 442.44,-524.77 444.91,-516.39"/>
<polygon fill="#48e818" stroke="#48e818" stroke-width="2" points="447.7,-519.03 447.65,-508.44 441.08,-516.75 447.7,-519.03"/>
</g>
<!-- node0x1031009d0 -->
<g id="node5" class="node">
<title>node0x1031009d0</title>
<path fill="#bdef9e" stroke="#99c2a2" d="M12,-271.5C12,-271.5 185.25,-271.5 185.25,-271.5 191.25,-271.5 197.25,-277.5 197.25,-283.5 197.25,-283.5 197.25,-358 197.25,-358 197.25,-364 191.25,-370 185.25,-370 185.25,-370 12,-370 12,-370 6,-370 0,-364 0,-358 0,-358 0,-283.5 0,-283.5 0,-277.5 6,-271.5 12,-271.5"/>
<text text-anchor="middle" x="98.62" y="-352.7" font-family="Times,serif" font-size="14.00" fill="#000000">2</text>
<text text-anchor="middle" x="98.62" y="-336.2" font-family="Times,serif" font-size="14.00" fill="#000000">0x1031009d0</text>
<polyline fill="none" stroke="#99c2a2" points="0,-329 197.25,-329"/>
<text text-anchor="middle" x="26.75" y="-311.7" font-family="Times,serif" font-size="14.00" fill="#000000">Left</text>
<text text-anchor="middle" x="26.75" y="-295.2" font-family="Times,serif" font-size="14.00" fill="#000000">NONE</text>
<text text-anchor="middle" x="26.75" y="-278.7" font-family="Times,serif" font-size="14.00" fill="#000000">0x0</text>
<polyline fill="none" stroke="#99c2a2" points="53.5,-271.5 53.5,-329"/>
<text text-anchor="middle" x="98.62" y="-311.7" font-family="Times,serif" font-size="14.00" fill="#000000">Parent</text>
<text text-anchor="middle" x="98.62" y="-295.2" font-family="Times,serif" font-size="14.00" fill="#000000">*</text>
<text text-anchor="middle" x="98.62" y="-278.7" font-family="Times,serif" font-size="14.00" fill="#000000">0x103100850</text>
<polyline fill="none" stroke="#99c2a2" points="143.75,-271.5 143.75,-329"/>
<text text-anchor="middle" x="170.5" y="-311.7" font-family="Times,serif" font-size="14.00" fill="#000000">Right</text>
<text text-anchor="middle" x="170.5" y="-295.2" font-family="Times,serif" font-size="14.00" fill="#000000">NONE</text>
<text text-anchor="middle" x="170.5" y="-278.7" font-family="Times,serif" font-size="14.00" fill="#000000">0x0</text>
</g>
<!-- node0x103100850&#45;&gt;node0x1031009d0 -->
<g id="edge3" class="edge">
<title>node0x103100850:left&#45;&gt;node0x1031009d0</title>
<path fill="none" stroke="#187ae8" stroke-width="2" d="M134.38,-406.5C134.38,-397.95 132.81,-389.27 130.34,-380.89"/>
<polygon fill="#187ae8" stroke="#187ae8" stroke-width="2" points="134.17,-381.25 127.6,-372.94 127.55,-383.53 134.17,-381.25"/>
</g>
<!-- node0x103100890 -->
<g id="node6" class="node">
<title>node0x103100890</title>
<path fill="#fbee21" stroke="#d3c70d" d="M227.25,-271.5C227.25,-271.5 474,-271.5 474,-271.5 480,-271.5 486,-277.5 486,-283.5 486,-283.5 486,-358 486,-358 486,-364 480,-370 474,-370 474,-370 227.25,-370 227.25,-370 221.25,-370 215.25,-364 215.25,-358 215.25,-358 215.25,-283.5 215.25,-283.5 215.25,-277.5 221.25,-271.5 227.25,-271.5"/>
<text text-anchor="middle" x="350.62" y="-352.7" font-family="Times,serif" font-size="14.00" fill="#000000">^</text>
<text text-anchor="middle" x="350.62" y="-336.2" font-family="Times,serif" font-size="14.00" fill="#000000">0x103100890</text>
<polyline fill="none" stroke="#d3c70d" points="215.25,-329 486,-329"/>
<text text-anchor="middle" x="260.38" y="-311.7" font-family="Times,serif" font-size="14.00" fill="#000000">Left</text>
<text text-anchor="middle" x="260.38" y="-295.2" font-family="Times,serif" font-size="14.00" fill="#000000">x</text>
<text text-anchor="middle" x="260.38" y="-278.7" font-family="Times,serif" font-size="14.00" fill="#000000">0x103100990</text>
<polyline fill="none" stroke="#d3c70d" points="305.5,-271.5 305.5,-329"/>
<text text-anchor="middle" x="350.62" y="-311.7" font-family="Times,serif" font-size="14.00" fill="#000000">Parent</text>
<text text-anchor="middle" x="350.62" y="-295.2" font-family="Times,serif" font-size="14.00" fill="#000000">*</text>
<text text-anchor="middle" x="350.62" y="-278.7" font-family="Times,serif" font-size="14.00" fill="#000000">0x103100850</text>
<polyline fill="none" stroke="#d3c70d" points="395.75,-271.5 395.75,-329"/>
<text text-anchor="middle" x="440.88" y="-311.7" font-family="Times,serif" font-size="14.00" fill="#000000">Right</text>
<text text-anchor="middle" x="440.88" y="-295.2" font-family="Times,serif" font-size="14.00" fill="#000000">&#45;</text>
<text text-anchor="middle" x="440.88" y="-278.7" font-family="Times,serif" font-size="14.00" fill="#000000">0x1031008d0</text>
</g>
<!-- node0x103100850&#45;&gt;node0x103100890 -->
<g id="edge8" class="edge">
<title>node0x103100850:right&#45;&gt;node0x103100890</title>
<path fill="none" stroke="#48e818" stroke-width="2" d="M314.88,-406.5C314.88,-397.95 316.44,-389.27 318.91,-380.89"/>
<polygon fill="#48e818" stroke="#48e818" stroke-width="2" points="321.7,-383.53 321.65,-372.94 315.08,-381.25 321.7,-383.53"/>
</g>
<!-- node0x103100990 -->
<g id="node7" class="node">
<title>node0x103100990</title>
<path fill="#d5cfe1" stroke="#8797b2" d="M138,-136C138,-136 311.25,-136 311.25,-136 317.25,-136 323.25,-142 323.25,-148 323.25,-148 323.25,-222.5 323.25,-222.5 323.25,-228.5 317.25,-234.5 311.25,-234.5 311.25,-234.5 138,-234.5 138,-234.5 132,-234.5 126,-228.5 126,-222.5 126,-222.5 126,-148 126,-148 126,-142 132,-136 138,-136"/>
<text text-anchor="middle" x="224.62" y="-217.2" font-family="Times,serif" font-size="14.00" fill="#000000">x</text>
<text text-anchor="middle" x="224.62" y="-200.7" font-family="Times,serif" font-size="14.00" fill="#000000">0x103100990</text>
<polyline fill="none" stroke="#8797b2" points="126,-193.5 323.25,-193.5"/>
<text text-anchor="middle" x="152.75" y="-176.2" font-family="Times,serif" font-size="14.00" fill="#000000">Left</text>
<text text-anchor="middle" x="152.75" y="-159.7" font-family="Times,serif" font-size="14.00" fill="#000000">NONE</text>
<text text-anchor="middle" x="152.75" y="-143.2" font-family="Times,serif" font-size="14.00" fill="#000000">0x0</text>
<polyline fill="none" stroke="#8797b2" points="179.5,-136 179.5,-193.5"/>
<text text-anchor="middle" x="224.62" y="-176.2" font-family="Times,serif" font-size="14.00" fill="#000000">Parent</text>
<text text-anchor="middle" x="224.62" y="-159.7" font-family="Times,serif" font-size="14.00" fill="#000000">^</text>
<text text-anchor="middle" x="224.62" y="-143.2" font-family="Times,serif" font-size="14.00" fill="#000000">0x103100890</text>
<polyline fill="none" stroke="#8797b2" points="269.75,-136 269.75,-193.5"/>
<text text-anchor="middle" x="296.5" y="-176.2" font-family="Times,serif" font-size="14.00" fill="#000000">Right</text>
<text text-anchor="middle" x="296.5" y="-159.7" font-family="Times,serif" font-size="14.00" fill="#000000">NONE</text>
<text text-anchor="middle" x="296.5" y="-143.2" font-family="Times,serif" font-size="14.00" fill="#000000">0x0</text>
</g>
<!-- node0x103100890&#45;&gt;node0x103100990 -->
<g id="edge4" class="edge">
<title>node0x103100890:left&#45;&gt;node0x103100990</title>
<path fill="none" stroke="#187ae8" stroke-width="2" d="M260.38,-271C260.38,-262.45 258.81,-253.77 256.34,-245.39"/>
<polygon fill="#187ae8" stroke="#187ae8" stroke-width="2" points="260.17,-245.75 253.6,-237.44 253.55,-248.03 260.17,-245.75"/>
</g>
<!-- node0x1031008d0 -->
<g id="node8" class="node">
<title>node0x1031008d0</title>
<path fill="#fbee21" stroke="#d3c70d" d="M353.25,-136C353.25,-136 600,-136 600,-136 606,-136 612,-142 612,-148 612,-148 612,-222.5 612,-222.5 612,-228.5 606,-234.5 600,-234.5 600,-234.5 353.25,-234.5 353.25,-234.5 347.25,-234.5 341.25,-228.5 341.25,-222.5 341.25,-222.5 341.25,-148 341.25,-148 341.25,-142 347.25,-136 353.25,-136"/>
<text text-anchor="middle" x="476.62" y="-217.2" font-family="Times,serif" font-size="14.00" fill="#000000">&#45;</text>
<text text-anchor="middle" x="476.62" y="-200.7" font-family="Times,serif" font-size="14.00" fill="#000000">0x1031008d0</text>
<polyline fill="none" stroke="#d3c70d" points="341.25,-193.5 612,-193.5"/>
<text text-anchor="middle" x="386.38" y="-176.2" font-family="Times,serif" font-size="14.00" fill="#000000">Left</text>
<text text-anchor="middle" x="386.38" y="-159.7" font-family="Times,serif" font-size="14.00" fill="#000000">2</text>
<text text-anchor="middle" x="386.38" y="-143.2" font-family="Times,serif" font-size="14.00" fill="#000000">0x103100950</text>
<polyline fill="none" stroke="#d3c70d" points="431.5,-136 431.5,-193.5"/>
<text text-anchor="middle" x="476.62" y="-176.2" font-family="Times,serif" font-size="14.00" fill="#000000">Parent</text>
<text text-anchor="middle" x="476.62" y="-159.7" font-family="Times,serif" font-size="14.00" fill="#000000">^</text>
<text text-anchor="middle" x="476.62" y="-143.2" font-family="Times,serif" font-size="14.00" fill="#000000">0x103100890</text>
<polyline fill="none" stroke="#d3c70d" points="521.75,-136 521.75,-193.5"/>
<text text-anchor="middle" x="566.88" y="-176.2" font-family="Times,serif" font-size="14.00" fill="#000000">Right</text>
<text text-anchor="middle" x="566.88" y="-159.7" font-family="Times,serif" font-size="14.00" fill="#000000">1</text>
<text text-anchor="middle" x="566.88" y="-143.2" font-family="Times,serif" font-size="14.00" fill="#000000">0x103100910</text>
</g>
<!-- node0x103100890&#45;&gt;node0x1031008d0 -->
<g id="edge7" class="edge">
<title>node0x103100890:right&#45;&gt;node0x1031008d0</title>
<path fill="none" stroke="#48e818" stroke-width="2" d="M440.88,-271C440.88,-262.45 442.44,-253.77 444.91,-245.39"/>
<polygon fill="#48e818" stroke="#48e818" stroke-width="2" points="447.7,-248.03 447.65,-237.44 441.08,-245.75 447.7,-248.03"/>
</g>
<!-- node0x103100950 -->
<g id="node9" class="node">
<title>node0x103100950</title>
<path fill="#bdef9e" stroke="#99c2a2" d="M282,-0.5C282,-0.5 455.25,-0.5 455.25,-0.5 461.25,-0.5 467.25,-6.5 467.25,-12.5 467.25,-12.5 467.25,-87 467.25,-87 467.25,-93 461.25,-99 455.25,-99 455.25,-99 282,-99 282,-99 276,-99 270,-93 270,-87 270,-87 270,-12.5 270,-12.5 270,-6.5 276,-0.5 282,-0.5"/>
<text text-anchor="middle" x="368.62" y="-81.7" font-family="Times,serif" font-size="14.00" fill="#000000">2</text>
<text text-anchor="middle" x="368.62" y="-65.2" font-family="Times,serif" font-size="14.00" fill="#000000">0x103100950</text>
<polyline fill="none" stroke="#99c2a2" points="270,-58 467.25,-58"/>
<text text-anchor="middle" x="296.75" y="-40.7" font-family="Times,serif" font-size="14.00" fill="#000000">Left</text>
<text text-anchor="middle" x="296.75" y="-24.2" font-family="Times,serif" font-size="14.00" fill="#000000">NONE</text>
<text text-anchor="middle" x="296.75" y="-7.7" font-family="Times,serif" font-size="14.00" fill="#000000">0x0</text>
<polyline fill="none" stroke="#99c2a2" points="323.5,-0.5 323.5,-58"/>
<text text-anchor="middle" x="368.62" y="-40.7" font-family="Times,serif" font-size="14.00" fill="#000000">Parent</text>
<text text-anchor="middle" x="368.62" y="-24.2" font-family="Times,serif" font-size="14.00" fill="#000000">&#45;</text>
<text text-anchor="middle" x="368.62" y="-7.7" font-family="Times,serif" font-size="14.00" fill="#000000">0x1031008d0</text>
<polyline fill="none" stroke="#99c2a2" points="413.75,-0.5 413.75,-58"/>
<text text-anchor="middle" x="440.5" y="-40.7" font-family="Times,serif" font-size="14.00" fill="#000000">Right</text>
<text text-anchor="middle" x="440.5" y="-24.2" font-family="Times,serif" font-size="14.00" fill="#000000">NONE</text>
<text text-anchor="middle" x="440.5" y="-7.7" font-family="Times,serif" font-size="14.00" fill="#000000">0x0</text>
</g>
<!-- node0x1031008d0&#45;&gt;node0x103100950 -->
<g id="edge5" class="edge">
<title>node0x1031008d0:left&#45;&gt;node0x103100950</title>
<path fill="none" stroke="#187ae8" stroke-width="2" d="M386.38,-135.5C386.38,-127.34 385.58,-118.82 384.32,-110.47"/>
<polygon fill="#187ae8" stroke="#187ae8" stroke-width="2" points="388.04,-111.46 382.87,-102.22 381.15,-112.67 388.04,-111.46"/>
</g>
<!-- node0x103100910 -->
<g id="node10" class="node">
<title>node0x103100910</title>
<path fill="#bdef9e" stroke="#99c2a2" d="M497,-0.5C497,-0.5 670.25,-0.5 670.25,-0.5 676.25,-0.5 682.25,-6.5 682.25,-12.5 682.25,-12.5 682.25,-87 682.25,-87 682.25,-93 676.25,-99 670.25,-99 670.25,-99 497,-99 497,-99 491,-99 485,-93 485,-87 485,-87 485,-12.5 485,-12.5 485,-6.5 491,-0.5 497,-0.5"/>
<text text-anchor="middle" x="583.62" y="-81.7" font-family="Times,serif" font-size="14.00" fill="#000000">1</text>
<text text-anchor="middle" x="583.62" y="-65.2" font-family="Times,serif" font-size="14.00" fill="#000000">0x103100910</text>
<polyline fill="none" stroke="#99c2a2" points="485,-58 682.25,-58"/>
<text text-anchor="middle" x="511.75" y="-40.7" font-family="Times,serif" font-size="14.00" fill="#000000">Left</text>
<text text-anchor="middle" x="511.75" y="-24.2" font-family="Times,serif" font-size="14.00" fill="#000000">NONE</text>
<text text-anchor="middle" x="511.75" y="-7.7" font-family="Times,serif" font-size="14.00" fill="#000000">0x0</text>
<polyline fill="none" stroke="#99c2a2" points="538.5,-0.5 538.5,-58"/>
<text text-anchor="middle" x="583.62" y="-40.7" font-family="Times,serif" font-size="14.00" fill="#000000">Parent</text>
<text text-anchor="middle" x="583.62" y="-24.2" font-family="Times,serif" font-size="14.00" fill="#000000">&#45;</text>
<text text-anchor="middle" x="583.62" y="-7.7" font-family="Times,serif" font-size="14.00" fill="#000000">0x1031008d0</text>
<polyline fill="none" stroke="#99c2a2" points="628.75,-0.5 628.75,-58"/>
<text text-anchor="middle" x="655.5" y="-40.7" font-family="Times,serif" font-size="14.00" fill="#000000">Right</text>
<text text-anchor="middle" x="655.5" y="-24.2" font-family="Times,serif" font-size="14.00" fill="#000000">NONE</text>
<text text-anchor="middle" x="655.5" y="-7.7" font-family="Times,serif" font-size="14.00" fill="#000000">0x0</text>
</g>
<!-- node0x1031008d0&#45;&gt;node0x103100910 -->
<g id="edge6" class="edge">
<title>node0x1031008d0:right&#45;&gt;node0x103100910</title>
<path fill="none" stroke="#48e818" stroke-width="2" d="M566.88,-135.5C566.88,-127.35 567.63,-118.85 568.82,-110.51"/>
<polygon fill="#48e818" stroke="#48e818" stroke-width="2" points="572,-112.7 570.18,-102.26 565.1,-111.56 572,-112.7"/>
</g>
</g>
</svg>
